<?xml version="1.0" encoding="utf-8" standalone="no"?>
<!DOCTYPE svg PUBLIC "-//W3C//DTD SVG 1.1//EN"
  "http://www.w3.org/Graphics/SVG/1.1/DTD/svg11.dtd">
<!-- Created with matplotlib (http://matplotlib.org/) -->
<svg height="288pt" version="1.1" viewBox="0 0 432 288" width="432pt" xmlns="http://www.w3.org/2000/svg" xmlns:xlink="http://www.w3.org/1999/xlink">
 <defs>
  <style type="text/css">
*{stroke-linecap:butt;stroke-linejoin:round;}
  </style>
 </defs>
 <g id="figure_1">
  <g id="patch_1">
   <path d="M 0 288 
L 432 288 
L 432 0 
L 0 0 
z
" style="fill:#ffffff;"/>
  </g>
  <g id="axes_1">
   <g id="patch_2">
    <path d="M 54 252 
L 388.8 252 
L 388.8 34.56 
L 54 34.56 
z
" style="fill:#ffffff;"/>
   </g>
   <g id="matplotlib.axis_1">
    <g id="xtick_1">
     <g id="line2d_1">
      <defs>
       <path d="M 0 0 
L 0 3.5 
" id="meb38971271" style="stroke:#000000;stroke-width:0.8;"/>
      </defs>
      <g>
       <use style="stroke:#000000;stroke-width:0.8;" x="69.218182" xlink:href="#meb38971271" y="252"/>
      </g>
     </g>
     <g id="text_1">
      <!-- 0 -->
      <defs>
       <path d="M 31.78125 66.40625 
Q 24.171875 66.40625 20.328125 58.90625 
Q 16.5 51.421875 16.5 36.375 
Q 16.5 21.390625 20.328125 13.890625 
Q 24.171875 6.390625 31.78125 6.390625 
Q 39.453125 6.390625 43.28125 13.890625 
Q 47.125 21.390625 47.125 36.375 
Q 47.125 51.421875 43.28125 58.90625 
Q 39.453125 66.40625 31.78125 66.40625 
z
M 31.78125 74.21875 
Q 44.046875 74.21875 50.515625 64.515625 
Q 56.984375 54.828125 56.984375 36.375 
Q 56.984375 17.96875 50.515625 8.265625 
Q 44.046875 -1.421875 31.78125 -1.421875 
Q 19.53125 -1.421875 13.0625 8.265625 
Q 6.59375 17.96875 6.59375 36.375 
Q 6.59375 54.828125 13.0625 64.515625 
Q 19.53125 74.21875 31.78125 74.21875 
z
" id="DejaVuSans-30"/>
      </defs>
      <g transform="translate(66.036932 266.598437)scale(0.1 -0.1)">
       <use xlink:href="#DejaVuSans-30"/>
      </g>
     </g>
    </g>
    <g id="xtick_2">
     <g id="line2d_2">
      <g>
       <use style="stroke:#000000;stroke-width:0.8;" x="112.948589" xlink:href="#meb38971271" y="252"/>
      </g>
     </g>
     <g id="text_2">
      <!-- 25 -->
      <defs>
       <path d="M 19.1875 8.296875 
L 53.609375 8.296875 
L 53.609375 0 
L 7.328125 0 
L 7.328125 8.296875 
Q 12.9375 14.109375 22.625 23.890625 
Q 32.328125 33.6875 34.8125 36.53125 
Q 39.546875 41.84375 41.421875 45.53125 
Q 43.3125 49.21875 43.3125 52.78125 
Q 43.3125 58.59375 39.234375 62.25 
Q 35.15625 65.921875 28.609375 65.921875 
Q 23.96875 65.921875 18.8125 64.3125 
Q 13.671875 62.703125 7.8125 59.421875 
L 7.8125 69.390625 
Q 13.765625 71.78125 18.9375 73 
Q 24.125 74.21875 28.421875 74.21875 
Q 39.75 74.21875 46.484375 68.546875 
Q 53.21875 62.890625 53.21875 53.421875 
Q 53.21875 48.921875 51.53125 44.890625 
Q 49.859375 40.875 45.40625 35.40625 
Q 44.1875 33.984375 37.640625 27.21875 
Q 31.109375 20.453125 19.1875 8.296875 
z
" id="DejaVuSans-32"/>
       <path d="M 10.796875 72.90625 
L 49.515625 72.90625 
L 49.515625 64.59375 
L 19.828125 64.59375 
L 19.828125 46.734375 
Q 21.96875 47.46875 24.109375 47.828125 
Q 26.265625 48.1875 28.421875 48.1875 
Q 40.625 48.1875 47.75 41.5 
Q 54.890625 34.8125 54.890625 23.390625 
Q 54.890625 11.625 47.5625 5.09375 
Q 40.234375 -1.421875 26.90625 -1.421875 
Q 22.3125 -1.421875 17.546875 -0.640625 
Q 12.796875 0.140625 7.71875 1.703125 
L 7.71875 11.625 
Q 12.109375 9.234375 16.796875 8.0625 
Q 21.484375 6.890625 26.703125 6.890625 
Q 35.15625 6.890625 40.078125 11.328125 
Q 45.015625 15.765625 45.015625 23.390625 
Q 45.015625 31 40.078125 35.4375 
Q 35.15625 39.890625 26.703125 39.890625 
Q 22.75 39.890625 18.8125 39.015625 
Q 14.890625 38.140625 10.796875 36.28125 
z
" id="DejaVuSans-35"/>
      </defs>
      <g transform="translate(106.586089 266.598437)scale(0.1 -0.1)">
       <use xlink:href="#DejaVuSans-32"/>
       <use x="63.623047" xlink:href="#DejaVuSans-35"/>
      </g>
     </g>
    </g>
    <g id="xtick_3">
     <g id="line2d_3">
      <g>
       <use style="stroke:#000000;stroke-width:0.8;" x="156.678997" xlink:href="#meb38971271" y="252"/>
      </g>
     </g>
     <g id="text_3">
      <!-- 50 -->
      <g transform="translate(150.316497 266.598437)scale(0.1 -0.1)">
       <use xlink:href="#DejaVuSans-35"/>
       <use x="63.623047" xlink:href="#DejaVuSans-30"/>
      </g>
     </g>
    </g>
    <g id="xtick_4">
     <g id="line2d_4">
      <g>
       <use style="stroke:#000000;stroke-width:0.8;" x="200.409404" xlink:href="#meb38971271" y="252"/>
      </g>
     </g>
     <g id="text_4">
      <!-- 75 -->
      <defs>
       <path d="M 8.203125 72.90625 
L 55.078125 72.90625 
L 55.078125 68.703125 
L 28.609375 0 
L 18.3125 0 
L 43.21875 64.59375 
L 8.203125 64.59375 
z
" id="DejaVuSans-37"/>
      </defs>
      <g transform="translate(194.046904 266.598437)scale(0.1 -0.1)">
       <use xlink:href="#DejaVuSans-37"/>
       <use x="63.623047" xlink:href="#DejaVuSans-35"/>
      </g>
     </g>
    </g>
    <g id="xtick_5">
     <g id="line2d_5">
      <g>
       <use style="stroke:#000000;stroke-width:0.8;" x="244.139812" xlink:href="#meb38971271" y="252"/>
      </g>
     </g>
     <g id="text_5">
      <!-- 100 -->
      <defs>
       <path d="M 12.40625 8.296875 
L 28.515625 8.296875 
L 28.515625 63.921875 
L 10.984375 60.40625 
L 10.984375 69.390625 
L 28.421875 72.90625 
L 38.28125 72.90625 
L 38.28125 8.296875 
L 54.390625 8.296875 
L 54.390625 0 
L 12.40625 0 
z
" id="DejaVuSans-31"/>
      </defs>
      <g transform="translate(234.596062 266.598437)scale(0.1 -0.1)">
       <use xlink:href="#DejaVuSans-31"/>
       <use x="63.623047" xlink:href="#DejaVuSans-30"/>
       <use x="127.246094" xlink:href="#DejaVuSans-30"/>
      </g>
     </g>
    </g>
    <g id="xtick_6">
     <g id="line2d_6">
      <g>
       <use style="stroke:#000000;stroke-width:0.8;" x="287.870219" xlink:href="#meb38971271" y="252"/>
      </g>
     </g>
     <g id="text_6">
      <!-- 125 -->
      <g transform="translate(278.326469 266.598437)scale(0.1 -0.1)">
       <use xlink:href="#DejaVuSans-31"/>
       <use x="63.623047" xlink:href="#DejaVuSans-32"/>
       <use x="127.246094" xlink:href="#DejaVuSans-35"/>
      </g>
     </g>
    </g>
    <g id="xtick_7">
     <g id="line2d_7">
      <g>
       <use style="stroke:#000000;stroke-width:0.8;" x="331.600627" xlink:href="#meb38971271" y="252"/>
      </g>
     </g>
     <g id="text_7">
      <!-- 150 -->
      <g transform="translate(322.056877 266.598437)scale(0.1 -0.1)">
       <use xlink:href="#DejaVuSans-31"/>
       <use x="63.623047" xlink:href="#DejaVuSans-35"/>
       <use x="127.246094" xlink:href="#DejaVuSans-30"/>
      </g>
     </g>
    </g>
    <g id="xtick_8">
     <g id="line2d_8">
      <g>
       <use style="stroke:#000000;stroke-width:0.8;" x="375.331034" xlink:href="#meb38971271" y="252"/>
      </g>
     </g>
     <g id="text_8">
      <!-- 175 -->
      <g transform="translate(365.787284 266.598437)scale(0.1 -0.1)">
       <use xlink:href="#DejaVuSans-31"/>
       <use x="63.623047" xlink:href="#DejaVuSans-37"/>
       <use x="127.246094" xlink:href="#DejaVuSans-35"/>
      </g>
     </g>
    </g>
   </g>
   <g id="matplotlib.axis_2">
    <g id="ytick_1">
     <g id="line2d_9">
      <defs>
       <path d="M 0 0 
L -3.5 0 
" id="m110e13adb0" style="stroke:#000000;stroke-width:0.8;"/>
      </defs>
      <g>
       <use style="stroke:#000000;stroke-width:0.8;" x="54" xlink:href="#m110e13adb0" y="250.463247"/>
      </g>
     </g>
     <g id="text_9">
      <!-- 0.0 -->
      <defs>
       <path d="M 10.6875 12.40625 
L 21 12.40625 
L 21 0 
L 10.6875 0 
z
" id="DejaVuSans-2e"/>
      </defs>
      <g transform="translate(31.096875 254.262466)scale(0.1 -0.1)">
       <use xlink:href="#DejaVuSans-30"/>
       <use x="63.623047" xlink:href="#DejaVuSans-2e"/>
       <use x="95.410156" xlink:href="#DejaVuSans-30"/>
      </g>
     </g>
    </g>
    <g id="ytick_2">
     <g id="line2d_10">
      <g>
       <use style="stroke:#000000;stroke-width:0.8;" x="54" xlink:href="#m110e13adb0" y="209.818905"/>
      </g>
     </g>
     <g id="text_10">
      <!-- 0.2 -->
      <g transform="translate(31.096875 213.618123)scale(0.1 -0.1)">
       <use xlink:href="#DejaVuSans-30"/>
       <use x="63.623047" xlink:href="#DejaVuSans-2e"/>
       <use x="95.410156" xlink:href="#DejaVuSans-32"/>
      </g>
     </g>
    </g>
    <g id="ytick_3">
     <g id="line2d_11">
      <g>
       <use style="stroke:#000000;stroke-width:0.8;" x="54" xlink:href="#m110e13adb0" y="169.174562"/>
      </g>
     </g>
     <g id="text_11">
      <!-- 0.4 -->
      <defs>
       <path d="M 37.796875 64.3125 
L 12.890625 25.390625 
L 37.796875 25.390625 
z
M 35.203125 72.90625 
L 47.609375 72.90625 
L 47.609375 25.390625 
L 58.015625 25.390625 
L 58.015625 17.1875 
L 47.609375 17.1875 
L 47.609375 0 
L 37.796875 0 
L 37.796875 17.1875 
L 4.890625 17.1875 
L 4.890625 26.703125 
z
" id="DejaVuSans-34"/>
      </defs>
      <g transform="translate(31.096875 172.973781)scale(0.1 -0.1)">
       <use xlink:href="#DejaVuSans-30"/>
       <use x="63.623047" xlink:href="#DejaVuSans-2e"/>
       <use x="95.410156" xlink:href="#DejaVuSans-34"/>
      </g>
     </g>
    </g>
    <g id="ytick_4">
     <g id="line2d_12">
      <g>
       <use style="stroke:#000000;stroke-width:0.8;" x="54" xlink:href="#m110e13adb0" y="128.530219"/>
      </g>
     </g>
     <g id="text_12">
      <!-- 0.6 -->
      <defs>
       <path d="M 33.015625 40.375 
Q 26.375 40.375 22.484375 35.828125 
Q 18.609375 31.296875 18.609375 23.390625 
Q 18.609375 15.53125 22.484375 10.953125 
Q 26.375 6.390625 33.015625 6.390625 
Q 39.65625 6.390625 43.53125 10.953125 
Q 47.40625 15.53125 47.40625 23.390625 
Q 47.40625 31.296875 43.53125 35.828125 
Q 39.65625 40.375 33.015625 40.375 
z
M 52.59375 71.296875 
L 52.59375 62.3125 
Q 48.875 64.0625 45.09375 64.984375 
Q 41.3125 65.921875 37.59375 65.921875 
Q 27.828125 65.921875 22.671875 59.328125 
Q 17.53125 52.734375 16.796875 39.40625 
Q 19.671875 43.65625 24.015625 45.921875 
Q 28.375 48.1875 33.59375 48.1875 
Q 44.578125 48.1875 50.953125 41.515625 
Q 57.328125 34.859375 57.328125 23.390625 
Q 57.328125 12.15625 50.6875 5.359375 
Q 44.046875 -1.421875 33.015625 -1.421875 
Q 20.359375 -1.421875 13.671875 8.265625 
Q 6.984375 17.96875 6.984375 36.375 
Q 6.984375 53.65625 15.1875 63.9375 
Q 23.390625 74.21875 37.203125 74.21875 
Q 40.921875 74.21875 44.703125 73.484375 
Q 48.484375 72.75 52.59375 71.296875 
z
" id="DejaVuSans-36"/>
      </defs>
      <g transform="translate(31.096875 132.329438)scale(0.1 -0.1)">
       <use xlink:href="#DejaVuSans-30"/>
       <use x="63.623047" xlink:href="#DejaVuSans-2e"/>
       <use x="95.410156" xlink:href="#DejaVuSans-36"/>
      </g>
     </g>
    </g>
    <g id="ytick_5">
     <g id="line2d_13">
      <g>
       <use style="stroke:#000000;stroke-width:0.8;" x="54" xlink:href="#m110e13adb0" y="87.885877"/>
      </g>
     </g>
     <g id="text_13">
      <!-- 0.8 -->
      <defs>
       <path d="M 31.78125 34.625 
Q 24.75 34.625 20.71875 30.859375 
Q 16.703125 27.09375 16.703125 20.515625 
Q 16.703125 13.921875 20.71875 10.15625 
Q 24.75 6.390625 31.78125 6.390625 
Q 38.8125 6.390625 42.859375 10.171875 
Q 46.921875 13.96875 46.921875 20.515625 
Q 46.921875 27.09375 42.890625 30.859375 
Q 38.875 34.625 31.78125 34.625 
z
M 21.921875 38.8125 
Q 15.578125 40.375 12.03125 44.71875 
Q 8.5 49.078125 8.5 55.328125 
Q 8.5 64.0625 14.71875 69.140625 
Q 20.953125 74.21875 31.78125 74.21875 
Q 42.671875 74.21875 48.875 69.140625 
Q 55.078125 64.0625 55.078125 55.328125 
Q 55.078125 49.078125 51.53125 44.71875 
Q 48 40.375 41.703125 38.8125 
Q 48.828125 37.15625 52.796875 32.3125 
Q 56.78125 27.484375 56.78125 20.515625 
Q 56.78125 9.90625 50.3125 4.234375 
Q 43.84375 -1.421875 31.78125 -1.421875 
Q 19.734375 -1.421875 13.25 4.234375 
Q 6.78125 9.90625 6.78125 20.515625 
Q 6.78125 27.484375 10.78125 32.3125 
Q 14.796875 37.15625 21.921875 38.8125 
z
M 18.3125 54.390625 
Q 18.3125 48.734375 21.84375 45.5625 
Q 25.390625 42.390625 31.78125 42.390625 
Q 38.140625 42.390625 41.71875 45.5625 
Q 45.3125 48.734375 45.3125 54.390625 
Q 45.3125 60.0625 41.71875 63.234375 
Q 38.140625 66.40625 31.78125 66.40625 
Q 25.390625 66.40625 21.84375 63.234375 
Q 18.3125 60.0625 18.3125 54.390625 
z
" id="DejaVuSans-38"/>
      </defs>
      <g transform="translate(31.096875 91.685096)scale(0.1 -0.1)">
       <use xlink:href="#DejaVuSans-30"/>
       <use x="63.623047" xlink:href="#DejaVuSans-2e"/>
       <use x="95.410156" xlink:href="#DejaVuSans-38"/>
      </g>
     </g>
    </g>
    <g id="ytick_6">
     <g id="line2d_14">
      <g>
       <use style="stroke:#000000;stroke-width:0.8;" x="54" xlink:href="#m110e13adb0" y="47.241534"/>
      </g>
     </g>
     <g id="text_14">
      <!-- 1.0 -->
      <g transform="translate(31.096875 51.040753)scale(0.1 -0.1)">
       <use xlink:href="#DejaVuSans-31"/>
       <use x="63.623047" xlink:href="#DejaVuSans-2e"/>
       <use x="95.410156" xlink:href="#DejaVuSans-30"/>
      </g>
     </g>
    </g>
   </g>
   <g id="line2d_15">
    <path clip-path="url(#p0dd631d01a)" d="M 69.218182 85.189268 
L 70.967398 85.777086 
L 72.716614 86.036004 
L 76.215047 86.255786 
L 83.211912 86.37265 
L 107.70094 86.376231 
L 111.199373 86.374205 
L 112.948589 85.930821 
L 118.196238 85.852892 
L 151.431348 85.975989 
L 154.929781 85.936392 
L 156.678997 86.340902 
L 165.425078 86.293202 
L 200.409404 86.361585 
L 242.390596 86.357585 
L 244.139812 85.747645 
L 251.136677 85.582003 
L 261.631975 85.597264 
L 266.879624 85.878242 
L 272.127273 86.186016 
L 279.124138 86.21304 
L 286.121003 86.183529 
L 287.870219 86.470724 
L 319.356113 86.269983 
L 329.851411 86.279599 
L 333.349843 86.117584 
L 335.09906 85.652739 
L 336.848276 85.514674 
L 338.597492 85.6099 
L 342.095925 86.062126 
L 347.343574 86.128782 
L 364.835737 86.044933 
L 373.581818 85.993476 
L 373.581818 85.993476 
" style="fill:none;stroke:#000000;stroke-linecap:square;stroke-width:1.5;"/>
   </g>
   <g id="line2d_16">
    <path clip-path="url(#p0dd631d01a)" d="M 69.218182 206.636753 
L 70.967398 211.143414 
L 72.716614 213.562042 
L 74.465831 215.023724 
L 76.215047 215.945616 
L 77.964263 216.53231 
L 79.71348 216.898872 
L 83.211912 217.224049 
L 86.710345 217.230037 
L 91.957994 216.935548 
L 102.453292 215.977577 
L 111.199373 215.22438 
L 112.948589 215.414936 
L 118.196238 217.076369 
L 119.945455 217.812756 
L 121.694671 218.685749 
L 123.443887 219.42323 
L 125.193103 219.578579 
L 126.94232 219.017786 
L 128.691536 217.964676 
L 132.189969 215.246014 
L 135.688401 212.229274 
L 144.434483 204.452045 
L 146.183699 203.280441 
L 147.932915 202.422505 
L 149.682132 201.930326 
L 151.431348 201.819558 
L 153.180564 202.068085 
L 154.929781 202.621798 
L 156.678997 202.634443 
L 158.428213 201.496323 
L 160.177429 200.786581 
L 161.926646 200.555979 
L 163.675862 200.792459 
L 165.425078 201.438112 
L 167.174295 202.404793 
L 170.672727 204.89092 
L 174.17116 207.499074 
L 177.669592 209.749862 
L 179.418809 210.677804 
L 181.168025 211.469377 
L 184.666458 212.676056 
L 188.16489 213.463941 
L 191.663323 213.936133 
L 195.161755 214.180195 
L 200.409404 214.263501 
L 207.40627 214.090312 
L 224.898433 213.507077 
L 235.39373 213.414728 
L 242.390596 213.438352 
L 244.139812 213.038246 
L 245.889028 214.312923 
L 249.387461 218.238376 
L 251.136677 219.005024 
L 252.885893 218.563024 
L 254.63511 217.401317 
L 256.384326 215.357264 
L 258.133542 212.527299 
L 259.882759 209.473464 
L 261.631975 206.729675 
L 263.381191 204.5135 
L 265.130408 202.781722 
L 266.879624 201.36579 
L 272.127273 197.682727 
L 277.374922 194.146628 
L 279.124138 193.09279 
L 280.873354 192.173747 
L 282.622571 191.431722 
L 284.371787 190.899367 
L 286.121003 190.596349 
L 287.870219 186.949332 
L 289.619436 185.903863 
L 291.368652 185.152399 
L 293.117868 184.759987 
L 294.867085 184.760869 
L 296.616301 185.153152 
L 298.365517 185.902346 
L 300.114734 186.949776 
L 301.86395 188.223732 
L 305.362382 191.157533 
L 310.610031 195.633179 
L 314.108464 198.229495 
L 317.606897 200.361226 
L 321.105329 202.008011 
L 324.603762 203.207538 
L 328.102194 204.028045 
L 329.851411 204.321062 
L 331.600627 62.61156 
L 333.349843 58.191562 
L 335.09906 47.899979 
L 336.848276 44.443636 
L 338.597492 49.957948 
L 340.346708 99.698746 
L 342.095925 166.121131 
L 343.845141 168.558004 
L 347.343574 169.15878 
L 352.591223 170.067612 
L 361.337304 171.804381 
L 366.584953 172.493084 
L 373.581818 173.116635 
L 373.581818 173.116635 
" style="fill:none;stroke:#ff0000;stroke-linecap:square;stroke-width:1.5;"/>
   </g>
   <g id="line2d_17">
    <path clip-path="url(#p0dd631d01a)" d="M 69.218182 190.148628 
L 70.967398 204.814945 
L 72.716614 210.818717 
L 74.465831 213.466052 
L 76.215047 214.501675 
L 77.964263 214.662083 
L 79.71348 214.318632 
L 81.462696 213.684127 
L 84.961129 212.026709 
L 90.208777 209.483853 
L 93.70721 208.053252 
L 97.205643 206.889491 
L 100.704075 205.969697 
L 104.202508 205.251121 
L 109.450157 204.456204 
L 111.199373 204.248587 
L 112.948589 158.024425 
L 114.697806 154.106411 
L 116.447022 151.75967 
L 118.196238 150.488432 
L 119.945455 149.861707 
L 121.694671 149.676031 
L 123.443887 149.875453 
L 125.193103 150.440223 
L 126.94232 151.362062 
L 128.691536 152.643462 
L 130.440752 154.274352 
L 132.189969 156.20934 
L 139.186834 164.65663 
L 140.93605 166.156875 
L 142.685266 167.18746 
L 144.434483 167.749403 
L 146.183699 167.894841 
L 147.932915 167.704777 
L 149.682132 167.271818 
L 153.180564 166.039699 
L 154.929781 165.401187 
L 156.678997 211.417208 
L 158.428213 214.211641 
L 160.177429 216.085751 
L 161.926646 217.301233 
L 163.675862 218.013782 
L 165.425078 218.323649 
L 167.174295 218.301073 
L 168.923511 218.000721 
L 170.672727 217.470281 
L 172.421944 216.755042 
L 175.920376 214.94703 
L 184.666458 209.982789 
L 188.16489 208.334276 
L 191.663323 206.990759 
L 195.161755 205.944026 
L 198.660188 205.15923 
L 202.158621 204.5924 
L 207.40627 204.056674 
L 212.653918 203.786986 
L 219.650784 203.672229 
L 235.39373 203.753444 
L 242.390596 203.792958 
L 244.139812 143.352347 
L 245.889028 138.104611 
L 247.638245 133.586299 
L 249.387461 130.467854 
L 251.136677 129.059817 
L 252.885893 129.153258 
L 254.63511 130.444502 
L 256.384326 132.696459 
L 258.133542 135.680642 
L 259.882759 139.170857 
L 261.631975 143.100986 
L 263.381191 147.809403 
L 265.130408 153.861572 
L 268.62884 168.076936 
L 270.378056 174.233612 
L 272.127273 178.44696 
L 273.876489 180.652741 
L 275.625705 181.746738 
L 277.374922 182.407852 
L 280.873354 183.382264 
L 284.371787 184.205076 
L 286.121003 184.537345 
L 287.870219 232.31541 
L 289.619436 232.451252 
L 291.368652 232.269871 
L 293.117868 231.86847 
L 294.867085 231.302587 
L 298.365517 229.791259 
L 301.86395 227.904773 
L 310.610031 222.76963 
L 314.108464 221.021483 
L 317.606897 219.591464 
L 321.105329 218.480217 
L 324.603762 217.647213 
L 328.102194 217.03324 
L 329.851411 216.788947 
L 331.600627 219.149496 
L 333.349843 222.293365 
L 335.09906 225.17714 
L 336.848276 228.701103 
L 338.597492 231.895241 
L 340.346708 233.838156 
L 342.095925 234.956387 
L 343.845141 235.538416 
L 345.594357 235.74537 
L 347.343574 235.721168 
L 349.09279 235.528606 
L 350.842006 235.196004 
L 354.340439 234.175193 
L 357.838871 232.797099 
L 364.835737 229.782068 
L 368.334169 228.519876 
L 371.832602 227.521428 
L 373.581818 227.11267 
L 373.581818 227.11267 
" style="fill:none;stroke:#0000ff;stroke-linecap:square;stroke-width:1.5;"/>
   </g>
   <g id="line2d_18">
    <path clip-path="url(#p0dd631d01a)" d="M 69.218182 224.719834 
L 70.967398 228.024944 
L 72.716614 229.705296 
L 74.465831 230.650562 
L 76.215047 231.214717 
L 77.964263 231.564063 
L 81.462696 231.925122 
L 86.710345 232.095378 
L 95.456426 232.07718 
L 111.199373 231.932004 
L 112.948589 231.73142 
L 125.193103 232.141895 
L 137.437618 231.572099 
L 153.180564 231.561101 
L 154.929781 231.618725 
L 158.428213 231.111568 
L 161.926646 230.894814 
L 165.425078 230.929533 
L 184.666458 231.573667 
L 198.660188 231.537713 
L 226.647649 231.439465 
L 242.390596 231.482143 
L 244.139812 229.906368 
L 247.638245 230.202807 
L 251.136677 230.501789 
L 259.882759 230.614483 
L 261.631975 230.854372 
L 263.381191 231.278842 
L 266.879624 232.62575 
L 268.62884 233.332298 
L 270.378056 233.889583 
L 272.127273 234.20765 
L 273.876489 234.294686 
L 277.374922 234.06365 
L 286.121003 233.15693 
L 287.870219 233.221361 
L 291.368652 232.5288 
L 294.867085 232.048394 
L 298.365517 231.792639 
L 303.613166 231.670065 
L 329.851411 231.596533 
L 331.600627 232.921221 
L 335.09906 234.136969 
L 336.848276 235.37778 
L 338.597492 237.286611 
L 340.346708 239.491645 
L 342.095925 241.003023 
L 343.845141 241.613023 
L 345.594357 241.888263 
L 349.09279 242.095332 
L 352.591223 242.094821 
L 356.089655 241.925753 
L 361.337304 241.39607 
L 373.581818 239.900296 
L 373.581818 239.900296 
" style="fill:none;stroke:#008000;stroke-linecap:square;stroke-width:1.5;"/>
   </g>
   <g id="line2d_19">
    <path clip-path="url(#p0dd631d01a)" d="M 69.218182 184.375004 
L 70.967398 185.414427 
L 72.716614 185.657154 
L 74.465831 185.503464 
L 77.964263 184.74304 
L 83.211912 183.475711 
L 88.459561 182.466505 
L 93.70721 181.734808 
L 98.954859 181.219822 
L 105.951724 180.774926 
L 112.948589 180.365646 
L 126.94232 182.98671 
L 132.189969 183.942908 
L 139.186834 185.327626 
L 144.434483 186.06731 
L 149.682132 186.594693 
L 154.929781 186.913967 
L 158.428213 185.017271 
L 160.177429 184.253719 
L 163.675862 183.139966 
L 167.174295 182.391246 
L 172.421944 181.639046 
L 177.669592 181.125385 
L 184.666458 180.652246 
L 193.412539 180.286406 
L 203.907837 180.072863 
L 219.650784 180.01263 
L 244.139812 179.97315 
L 247.638245 180.672957 
L 252.885893 182.145973 
L 254.63511 182.912667 
L 256.384326 183.99582 
L 258.133542 185.50818 
L 259.882759 187.570325 
L 261.631975 190.274106 
L 263.381191 193.610513 
L 266.879624 201.185062 
L 268.62884 204.51123 
L 270.378056 206.981382 
L 272.127273 208.483961 
L 273.876489 209.139658 
L 275.625705 209.153442 
L 277.374922 208.709467 
L 279.124138 207.945392 
L 280.873354 206.960864 
L 284.371787 204.612529 
L 286.121003 203.354196 
L 287.870219 201.441061 
L 289.619436 198.517583 
L 291.368652 196.037092 
L 293.117868 193.957997 
L 294.867085 192.222399 
L 296.616301 190.771412 
L 298.365517 189.552374 
L 300.114734 188.521109 
L 303.613166 186.886197 
L 307.111599 185.661188 
L 310.610031 184.719663 
L 314.108464 183.983621 
L 319.356113 183.161104 
L 324.603762 182.58724 
L 329.851411 182.194804 
L 331.600627 184.05805 
L 333.349843 185.658288 
L 335.09906 188.323284 
L 336.848276 194.099387 
L 338.597492 205.794608 
L 340.346708 221.103602 
L 342.095925 231.929719 
L 343.845141 237.063771 
L 345.594357 239.241927 
L 347.343574 240.108031 
L 349.09279 240.328756 
L 350.842006 240.141532 
L 352.591223 239.622327 
L 354.340439 238.794231 
L 356.089655 237.674577 
L 357.838871 236.295335 
L 361.337304 232.976188 
L 368.334169 225.869622 
L 371.832602 222.760809 
L 373.581818 221.364226 
L 373.581818 221.364226 
" style="fill:none;stroke:#00bfbf;stroke-linecap:square;stroke-width:1.5;"/>
   </g>
   <g id="patch_3">
    <path d="M 54 252 
L 54 34.56 
" style="fill:none;stroke:#000000;stroke-linecap:square;stroke-linejoin:miter;stroke-width:0.8;"/>
   </g>
   <g id="patch_4">
    <path d="M 388.8 252 
L 388.8 34.56 
" style="fill:none;stroke:#000000;stroke-linecap:square;stroke-linejoin:miter;stroke-width:0.8;"/>
   </g>
   <g id="patch_5">
    <path d="M 54 252 
L 388.8 252 
" style="fill:none;stroke:#000000;stroke-linecap:square;stroke-linejoin:miter;stroke-width:0.8;"/>
   </g>
   <g id="patch_6">
    <path d="M 54 34.56 
L 388.8 34.56 
" style="fill:none;stroke:#000000;stroke-linecap:square;stroke-linejoin:miter;stroke-width:0.8;"/>
   </g>
   <g id="text_15">
    <!-- l2w0001 : contextdelaydm2 -->
    <defs>
     <path d="M 9.421875 75.984375 
L 18.40625 75.984375 
L 18.40625 0 
L 9.421875 0 
z
" id="DejaVuSans-6c"/>
     <path d="M 4.203125 54.6875 
L 13.1875 54.6875 
L 24.421875 12.015625 
L 35.59375 54.6875 
L 46.1875 54.6875 
L 57.421875 12.015625 
L 68.609375 54.6875 
L 77.59375 54.6875 
L 63.28125 0 
L 52.6875 0 
L 40.921875 44.828125 
L 29.109375 0 
L 18.5 0 
z
" id="DejaVuSans-77"/>
     <path id="DejaVuSans-20"/>
     <path d="M 11.71875 12.40625 
L 22.015625 12.40625 
L 22.015625 0 
L 11.71875 0 
z
M 11.71875 51.703125 
L 22.015625 51.703125 
L 22.015625 39.3125 
L 11.71875 39.3125 
z
" id="DejaVuSans-3a"/>
     <path d="M 48.78125 52.59375 
L 48.78125 44.1875 
Q 44.96875 46.296875 41.140625 47.34375 
Q 37.3125 48.390625 33.40625 48.390625 
Q 24.65625 48.390625 19.8125 42.84375 
Q 14.984375 37.3125 14.984375 27.296875 
Q 14.984375 17.28125 19.8125 11.734375 
Q 24.65625 6.203125 33.40625 6.203125 
Q 37.3125 6.203125 41.140625 7.25 
Q 44.96875 8.296875 48.78125 10.40625 
L 48.78125 2.09375 
Q 45.015625 0.34375 40.984375 -0.53125 
Q 36.96875 -1.421875 32.421875 -1.421875 
Q 20.0625 -1.421875 12.78125 6.34375 
Q 5.515625 14.109375 5.515625 27.296875 
Q 5.515625 40.671875 12.859375 48.328125 
Q 20.21875 56 33.015625 56 
Q 37.15625 56 41.109375 55.140625 
Q 45.0625 54.296875 48.78125 52.59375 
z
" id="DejaVuSans-63"/>
     <path d="M 30.609375 48.390625 
Q 23.390625 48.390625 19.1875 42.75 
Q 14.984375 37.109375 14.984375 27.296875 
Q 14.984375 17.484375 19.15625 11.84375 
Q 23.34375 6.203125 30.609375 6.203125 
Q 37.796875 6.203125 41.984375 11.859375 
Q 46.1875 17.53125 46.1875 27.296875 
Q 46.1875 37.015625 41.984375 42.703125 
Q 37.796875 48.390625 30.609375 48.390625 
z
M 30.609375 56 
Q 42.328125 56 49.015625 48.375 
Q 55.71875 40.765625 55.71875 27.296875 
Q 55.71875 13.875 49.015625 6.21875 
Q 42.328125 -1.421875 30.609375 -1.421875 
Q 18.84375 -1.421875 12.171875 6.21875 
Q 5.515625 13.875 5.515625 27.296875 
Q 5.515625 40.765625 12.171875 48.375 
Q 18.84375 56 30.609375 56 
z
" id="DejaVuSans-6f"/>
     <path d="M 54.890625 33.015625 
L 54.890625 0 
L 45.90625 0 
L 45.90625 32.71875 
Q 45.90625 40.484375 42.875 44.328125 
Q 39.84375 48.1875 33.796875 48.1875 
Q 26.515625 48.1875 22.3125 43.546875 
Q 18.109375 38.921875 18.109375 30.90625 
L 18.109375 0 
L 9.078125 0 
L 9.078125 54.6875 
L 18.109375 54.6875 
L 18.109375 46.1875 
Q 21.34375 51.125 25.703125 53.5625 
Q 30.078125 56 35.796875 56 
Q 45.21875 56 50.046875 50.171875 
Q 54.890625 44.34375 54.890625 33.015625 
z
" id="DejaVuSans-6e"/>
     <path d="M 18.3125 70.21875 
L 18.3125 54.6875 
L 36.8125 54.6875 
L 36.8125 47.703125 
L 18.3125 47.703125 
L 18.3125 18.015625 
Q 18.3125 11.328125 20.140625 9.421875 
Q 21.96875 7.515625 27.59375 7.515625 
L 36.8125 7.515625 
L 36.8125 0 
L 27.59375 0 
Q 17.1875 0 13.234375 3.875 
Q 9.28125 7.765625 9.28125 18.015625 
L 9.28125 47.703125 
L 2.6875 47.703125 
L 2.6875 54.6875 
L 9.28125 54.6875 
L 9.28125 70.21875 
z
" id="DejaVuSans-74"/>
     <path d="M 56.203125 29.59375 
L 56.203125 25.203125 
L 14.890625 25.203125 
Q 15.484375 15.921875 20.484375 11.0625 
Q 25.484375 6.203125 34.421875 6.203125 
Q 39.59375 6.203125 44.453125 7.46875 
Q 49.3125 8.734375 54.109375 11.28125 
L 54.109375 2.78125 
Q 49.265625 0.734375 44.1875 -0.34375 
Q 39.109375 -1.421875 33.890625 -1.421875 
Q 20.796875 -1.421875 13.15625 6.1875 
Q 5.515625 13.8125 5.515625 26.8125 
Q 5.515625 40.234375 12.765625 48.109375 
Q 20.015625 56 32.328125 56 
Q 43.359375 56 49.78125 48.890625 
Q 56.203125 41.796875 56.203125 29.59375 
z
M 47.21875 32.234375 
Q 47.125 39.59375 43.09375 43.984375 
Q 39.0625 48.390625 32.421875 48.390625 
Q 24.90625 48.390625 20.390625 44.140625 
Q 15.875 39.890625 15.1875 32.171875 
z
" id="DejaVuSans-65"/>
     <path d="M 54.890625 54.6875 
L 35.109375 28.078125 
L 55.90625 0 
L 45.3125 0 
L 29.390625 21.484375 
L 13.484375 0 
L 2.875 0 
L 24.125 28.609375 
L 4.6875 54.6875 
L 15.28125 54.6875 
L 29.78125 35.203125 
L 44.28125 54.6875 
z
" id="DejaVuSans-78"/>
     <path d="M 45.40625 46.390625 
L 45.40625 75.984375 
L 54.390625 75.984375 
L 54.390625 0 
L 45.40625 0 
L 45.40625 8.203125 
Q 42.578125 3.328125 38.25 0.953125 
Q 33.9375 -1.421875 27.875 -1.421875 
Q 17.96875 -1.421875 11.734375 6.484375 
Q 5.515625 14.40625 5.515625 27.296875 
Q 5.515625 40.1875 11.734375 48.09375 
Q 17.96875 56 27.875 56 
Q 33.9375 56 38.25 53.625 
Q 42.578125 51.265625 45.40625 46.390625 
z
M 14.796875 27.296875 
Q 14.796875 17.390625 18.875 11.75 
Q 22.953125 6.109375 30.078125 6.109375 
Q 37.203125 6.109375 41.296875 11.75 
Q 45.40625 17.390625 45.40625 27.296875 
Q 45.40625 37.203125 41.296875 42.84375 
Q 37.203125 48.484375 30.078125 48.484375 
Q 22.953125 48.484375 18.875 42.84375 
Q 14.796875 37.203125 14.796875 27.296875 
z
" id="DejaVuSans-64"/>
     <path d="M 34.28125 27.484375 
Q 23.390625 27.484375 19.1875 25 
Q 14.984375 22.515625 14.984375 16.5 
Q 14.984375 11.71875 18.140625 8.90625 
Q 21.296875 6.109375 26.703125 6.109375 
Q 34.1875 6.109375 38.703125 11.40625 
Q 43.21875 16.703125 43.21875 25.484375 
L 43.21875 27.484375 
z
M 52.203125 31.203125 
L 52.203125 0 
L 43.21875 0 
L 43.21875 8.296875 
Q 40.140625 3.328125 35.546875 0.953125 
Q 30.953125 -1.421875 24.3125 -1.421875 
Q 15.921875 -1.421875 10.953125 3.296875 
Q 6 8.015625 6 15.921875 
Q 6 25.140625 12.171875 29.828125 
Q 18.359375 34.515625 30.609375 34.515625 
L 43.21875 34.515625 
L 43.21875 35.40625 
Q 43.21875 41.609375 39.140625 45 
Q 35.0625 48.390625 27.6875 48.390625 
Q 23 48.390625 18.546875 47.265625 
Q 14.109375 46.140625 10.015625 43.890625 
L 10.015625 52.203125 
Q 14.9375 54.109375 19.578125 55.046875 
Q 24.21875 56 28.609375 56 
Q 40.484375 56 46.34375 49.84375 
Q 52.203125 43.703125 52.203125 31.203125 
z
" id="DejaVuSans-61"/>
     <path d="M 32.171875 -5.078125 
Q 28.375 -14.84375 24.75 -17.8125 
Q 21.140625 -20.796875 15.09375 -20.796875 
L 7.90625 -20.796875 
L 7.90625 -13.28125 
L 13.1875 -13.28125 
Q 16.890625 -13.28125 18.9375 -11.515625 
Q 21 -9.765625 23.484375 -3.21875 
L 25.09375 0.875 
L 2.984375 54.6875 
L 12.5 54.6875 
L 29.59375 11.921875 
L 46.6875 54.6875 
L 56.203125 54.6875 
z
" id="DejaVuSans-79"/>
     <path d="M 52 44.1875 
Q 55.375 50.25 60.0625 53.125 
Q 64.75 56 71.09375 56 
Q 79.640625 56 84.28125 50.015625 
Q 88.921875 44.046875 88.921875 33.015625 
L 88.921875 0 
L 79.890625 0 
L 79.890625 32.71875 
Q 79.890625 40.578125 77.09375 44.375 
Q 74.3125 48.1875 68.609375 48.1875 
Q 61.625 48.1875 57.5625 43.546875 
Q 53.515625 38.921875 53.515625 30.90625 
L 53.515625 0 
L 44.484375 0 
L 44.484375 32.71875 
Q 44.484375 40.625 41.703125 44.40625 
Q 38.921875 48.1875 33.109375 48.1875 
Q 26.21875 48.1875 22.15625 43.53125 
Q 18.109375 38.875 18.109375 30.90625 
L 18.109375 0 
L 9.078125 0 
L 9.078125 54.6875 
L 18.109375 54.6875 
L 18.109375 46.1875 
Q 21.1875 51.21875 25.484375 53.609375 
Q 29.78125 56 35.6875 56 
Q 41.65625 56 45.828125 52.96875 
Q 50 49.953125 52 44.1875 
z
" id="DejaVuSans-6d"/>
    </defs>
    <g transform="translate(137.3175 28.56)scale(0.12 -0.12)">
     <use xlink:href="#DejaVuSans-6c"/>
     <use x="27.783203" xlink:href="#DejaVuSans-32"/>
     <use x="91.40625" xlink:href="#DejaVuSans-77"/>
     <use x="173.193359" xlink:href="#DejaVuSans-30"/>
     <use x="236.816406" xlink:href="#DejaVuSans-30"/>
     <use x="300.439453" xlink:href="#DejaVuSans-30"/>
     <use x="364.0625" xlink:href="#DejaVuSans-31"/>
     <use x="427.685547" xlink:href="#DejaVuSans-20"/>
     <use x="459.472656" xlink:href="#DejaVuSans-3a"/>
     <use x="493.164062" xlink:href="#DejaVuSans-20"/>
     <use x="524.951172" xlink:href="#DejaVuSans-63"/>
     <use x="579.931641" xlink:href="#DejaVuSans-6f"/>
     <use x="641.113281" xlink:href="#DejaVuSans-6e"/>
     <use x="704.492188" xlink:href="#DejaVuSans-74"/>
     <use x="743.701172" xlink:href="#DejaVuSans-65"/>
     <use x="805.208984" xlink:href="#DejaVuSans-78"/>
     <use x="864.388672" xlink:href="#DejaVuSans-74"/>
     <use x="903.597656" xlink:href="#DejaVuSans-64"/>
     <use x="967.074219" xlink:href="#DejaVuSans-65"/>
     <use x="1028.597656" xlink:href="#DejaVuSans-6c"/>
     <use x="1056.380859" xlink:href="#DejaVuSans-61"/>
     <use x="1117.660156" xlink:href="#DejaVuSans-79"/>
     <use x="1176.839844" xlink:href="#DejaVuSans-64"/>
     <use x="1240.316406" xlink:href="#DejaVuSans-6d"/>
     <use x="1337.728516" xlink:href="#DejaVuSans-32"/>
    </g>
   </g>
   <g id="legend_1">
    <g id="patch_7">
     <path d="M 230.014063 181.753438 
L 381.8 181.753438 
Q 383.8 181.753438 383.8 179.753438 
L 383.8 106.806562 
Q 383.8 104.806562 381.8 104.806562 
L 230.014063 104.806562 
Q 228.014063 104.806562 228.014063 106.806562 
L 228.014063 179.753438 
Q 228.014063 181.753438 230.014063 181.753438 
z
" style="fill:#ffffff;opacity:0.8;stroke:#cccccc;stroke-linejoin:miter;"/>
    </g>
    <g id="line2d_20">
     <path d="M 232.014063 112.905 
L 252.014063 112.905 
" style="fill:none;stroke:#000000;stroke-linecap:square;stroke-width:1.5;"/>
    </g>
    <g id="line2d_21"/>
    <g id="text_16">
     <!-- dF/dx -->
     <defs>
      <path d="M 9.8125 72.90625 
L 51.703125 72.90625 
L 51.703125 64.59375 
L 19.671875 64.59375 
L 19.671875 43.109375 
L 48.578125 43.109375 
L 48.578125 34.8125 
L 19.671875 34.8125 
L 19.671875 0 
L 9.8125 0 
z
" id="DejaVuSans-46"/>
      <path d="M 25.390625 72.90625 
L 33.6875 72.90625 
L 8.296875 -9.28125 
L 0 -9.28125 
z
" id="DejaVuSans-2f"/>
     </defs>
     <g transform="translate(260.014063 116.405)scale(0.1 -0.1)">
      <use xlink:href="#DejaVuSans-64"/>
      <use x="63.476562" xlink:href="#DejaVuSans-46"/>
      <use x="120.996094" xlink:href="#DejaVuSans-2f"/>
      <use x="154.6875" xlink:href="#DejaVuSans-64"/>
      <use x="218.164062" xlink:href="#DejaVuSans-78"/>
     </g>
    </g>
    <g id="line2d_22">
     <path d="M 232.014063 127.583125 
L 252.014063 127.583125 
" style="fill:none;stroke:#ff0000;stroke-linecap:square;stroke-width:1.5;"/>
    </g>
    <g id="line2d_23"/>
    <g id="text_17">
     <!-- dF/du [fixation] -->
     <defs>
      <path d="M 8.5 21.578125 
L 8.5 54.6875 
L 17.484375 54.6875 
L 17.484375 21.921875 
Q 17.484375 14.15625 20.5 10.265625 
Q 23.53125 6.390625 29.59375 6.390625 
Q 36.859375 6.390625 41.078125 11.03125 
Q 45.3125 15.671875 45.3125 23.6875 
L 45.3125 54.6875 
L 54.296875 54.6875 
L 54.296875 0 
L 45.3125 0 
L 45.3125 8.40625 
Q 42.046875 3.421875 37.71875 1 
Q 33.40625 -1.421875 27.6875 -1.421875 
Q 18.265625 -1.421875 13.375 4.4375 
Q 8.5 10.296875 8.5 21.578125 
z
M 31.109375 56 
z
" id="DejaVuSans-75"/>
      <path d="M 8.59375 75.984375 
L 29.296875 75.984375 
L 29.296875 69 
L 17.578125 69 
L 17.578125 -6.203125 
L 29.296875 -6.203125 
L 29.296875 -13.1875 
L 8.59375 -13.1875 
z
" id="DejaVuSans-5b"/>
      <path d="M 37.109375 75.984375 
L 37.109375 68.5 
L 28.515625 68.5 
Q 23.6875 68.5 21.796875 66.546875 
Q 19.921875 64.59375 19.921875 59.515625 
L 19.921875 54.6875 
L 34.71875 54.6875 
L 34.71875 47.703125 
L 19.921875 47.703125 
L 19.921875 0 
L 10.890625 0 
L 10.890625 47.703125 
L 2.296875 47.703125 
L 2.296875 54.6875 
L 10.890625 54.6875 
L 10.890625 58.5 
Q 10.890625 67.625 15.140625 71.796875 
Q 19.390625 75.984375 28.609375 75.984375 
z
" id="DejaVuSans-66"/>
      <path d="M 9.421875 54.6875 
L 18.40625 54.6875 
L 18.40625 0 
L 9.421875 0 
z
M 9.421875 75.984375 
L 18.40625 75.984375 
L 18.40625 64.59375 
L 9.421875 64.59375 
z
" id="DejaVuSans-69"/>
      <path d="M 30.421875 75.984375 
L 30.421875 -13.1875 
L 9.71875 -13.1875 
L 9.71875 -6.203125 
L 21.390625 -6.203125 
L 21.390625 69 
L 9.71875 69 
L 9.71875 75.984375 
z
" id="DejaVuSans-5d"/>
     </defs>
     <g transform="translate(260.014063 131.083125)scale(0.1 -0.1)">
      <use xlink:href="#DejaVuSans-64"/>
      <use x="63.476562" xlink:href="#DejaVuSans-46"/>
      <use x="120.996094" xlink:href="#DejaVuSans-2f"/>
      <use x="154.6875" xlink:href="#DejaVuSans-64"/>
      <use x="218.164062" xlink:href="#DejaVuSans-75"/>
      <use x="281.542969" xlink:href="#DejaVuSans-20"/>
      <use x="313.330078" xlink:href="#DejaVuSans-5b"/>
      <use x="352.34375" xlink:href="#DejaVuSans-66"/>
      <use x="387.548828" xlink:href="#DejaVuSans-69"/>
      <use x="415.332031" xlink:href="#DejaVuSans-78"/>
      <use x="474.511719" xlink:href="#DejaVuSans-61"/>
      <use x="535.791016" xlink:href="#DejaVuSans-74"/>
      <use x="575" xlink:href="#DejaVuSans-69"/>
      <use x="602.783203" xlink:href="#DejaVuSans-6f"/>
      <use x="663.964844" xlink:href="#DejaVuSans-6e"/>
      <use x="727.34375" xlink:href="#DejaVuSans-5d"/>
     </g>
    </g>
    <g id="line2d_24">
     <path d="M 232.014063 142.26125 
L 252.014063 142.26125 
" style="fill:none;stroke:#0000ff;stroke-linecap:square;stroke-width:1.5;"/>
    </g>
    <g id="line2d_25"/>
    <g id="text_18">
     <!-- dF/du [stimulus] -->
     <defs>
      <path d="M 44.28125 53.078125 
L 44.28125 44.578125 
Q 40.484375 46.53125 36.375 47.5 
Q 32.28125 48.484375 27.875 48.484375 
Q 21.1875 48.484375 17.84375 46.4375 
Q 14.5 44.390625 14.5 40.28125 
Q 14.5 37.15625 16.890625 35.375 
Q 19.28125 33.59375 26.515625 31.984375 
L 29.59375 31.296875 
Q 39.15625 29.25 43.1875 25.515625 
Q 47.21875 21.78125 47.21875 15.09375 
Q 47.21875 7.46875 41.1875 3.015625 
Q 35.15625 -1.421875 24.609375 -1.421875 
Q 20.21875 -1.421875 15.453125 -0.5625 
Q 10.6875 0.296875 5.421875 2 
L 5.421875 11.28125 
Q 10.40625 8.6875 15.234375 7.390625 
Q 20.0625 6.109375 24.8125 6.109375 
Q 31.15625 6.109375 34.5625 8.28125 
Q 37.984375 10.453125 37.984375 14.40625 
Q 37.984375 18.0625 35.515625 20.015625 
Q 33.0625 21.96875 24.703125 23.78125 
L 21.578125 24.515625 
Q 13.234375 26.265625 9.515625 29.90625 
Q 5.8125 33.546875 5.8125 39.890625 
Q 5.8125 47.609375 11.28125 51.796875 
Q 16.75 56 26.8125 56 
Q 31.78125 56 36.171875 55.265625 
Q 40.578125 54.546875 44.28125 53.078125 
z
" id="DejaVuSans-73"/>
     </defs>
     <g transform="translate(260.014063 145.76125)scale(0.1 -0.1)">
      <use xlink:href="#DejaVuSans-64"/>
      <use x="63.476562" xlink:href="#DejaVuSans-46"/>
      <use x="120.996094" xlink:href="#DejaVuSans-2f"/>
      <use x="154.6875" xlink:href="#DejaVuSans-64"/>
      <use x="218.164062" xlink:href="#DejaVuSans-75"/>
      <use x="281.542969" xlink:href="#DejaVuSans-20"/>
      <use x="313.330078" xlink:href="#DejaVuSans-5b"/>
      <use x="352.34375" xlink:href="#DejaVuSans-73"/>
      <use x="404.443359" xlink:href="#DejaVuSans-74"/>
      <use x="443.652344" xlink:href="#DejaVuSans-69"/>
      <use x="471.435547" xlink:href="#DejaVuSans-6d"/>
      <use x="568.847656" xlink:href="#DejaVuSans-75"/>
      <use x="632.226562" xlink:href="#DejaVuSans-6c"/>
      <use x="660.009766" xlink:href="#DejaVuSans-75"/>
      <use x="723.388672" xlink:href="#DejaVuSans-73"/>
      <use x="775.488281" xlink:href="#DejaVuSans-5d"/>
     </g>
    </g>
    <g id="line2d_26">
     <path d="M 232.014063 156.939375 
L 252.014063 156.939375 
" style="fill:none;stroke:#008000;stroke-linecap:square;stroke-width:1.5;"/>
    </g>
    <g id="line2d_27"/>
    <g id="text_19">
     <!-- dF/du [context_all] -->
     <defs>
      <path d="M 50.984375 -16.609375 
L 50.984375 -23.578125 
L -0.984375 -23.578125 
L -0.984375 -16.609375 
z
" id="DejaVuSans-5f"/>
     </defs>
     <g transform="translate(260.014063 160.439375)scale(0.1 -0.1)">
      <use xlink:href="#DejaVuSans-64"/>
      <use x="63.476562" xlink:href="#DejaVuSans-46"/>
      <use x="120.996094" xlink:href="#DejaVuSans-2f"/>
      <use x="154.6875" xlink:href="#DejaVuSans-64"/>
      <use x="218.164062" xlink:href="#DejaVuSans-75"/>
      <use x="281.542969" xlink:href="#DejaVuSans-20"/>
      <use x="313.330078" xlink:href="#DejaVuSans-5b"/>
      <use x="352.34375" xlink:href="#DejaVuSans-63"/>
      <use x="407.324219" xlink:href="#DejaVuSans-6f"/>
      <use x="468.505859" xlink:href="#DejaVuSans-6e"/>
      <use x="531.884766" xlink:href="#DejaVuSans-74"/>
      <use x="571.09375" xlink:href="#DejaVuSans-65"/>
      <use x="632.601562" xlink:href="#DejaVuSans-78"/>
      <use x="691.78125" xlink:href="#DejaVuSans-74"/>
      <use x="730.990234" xlink:href="#DejaVuSans-5f"/>
      <use x="780.990234" xlink:href="#DejaVuSans-61"/>
      <use x="842.269531" xlink:href="#DejaVuSans-6c"/>
      <use x="870.052734" xlink:href="#DejaVuSans-6c"/>
      <use x="897.835938" xlink:href="#DejaVuSans-5d"/>
     </g>
    </g>
    <g id="line2d_28">
     <path d="M 232.014063 171.895625 
L 252.014063 171.895625 
" style="fill:none;stroke:#00bfbf;stroke-linecap:square;stroke-width:1.5;"/>
    </g>
    <g id="line2d_29"/>
    <g id="text_20">
     <!-- dF/du [context_specific] -->
     <defs>
      <path d="M 18.109375 8.203125 
L 18.109375 -20.796875 
L 9.078125 -20.796875 
L 9.078125 54.6875 
L 18.109375 54.6875 
L 18.109375 46.390625 
Q 20.953125 51.265625 25.265625 53.625 
Q 29.59375 56 35.59375 56 
Q 45.5625 56 51.78125 48.09375 
Q 58.015625 40.1875 58.015625 27.296875 
Q 58.015625 14.40625 51.78125 6.484375 
Q 45.5625 -1.421875 35.59375 -1.421875 
Q 29.59375 -1.421875 25.265625 0.953125 
Q 20.953125 3.328125 18.109375 8.203125 
z
M 48.6875 27.296875 
Q 48.6875 37.203125 44.609375 42.84375 
Q 40.53125 48.484375 33.40625 48.484375 
Q 26.265625 48.484375 22.1875 42.84375 
Q 18.109375 37.203125 18.109375 27.296875 
Q 18.109375 17.390625 22.1875 11.75 
Q 26.265625 6.109375 33.40625 6.109375 
Q 40.53125 6.109375 44.609375 11.75 
Q 48.6875 17.390625 48.6875 27.296875 
z
" id="DejaVuSans-70"/>
     </defs>
     <g transform="translate(260.014063 175.395625)scale(0.1 -0.1)">
      <use xlink:href="#DejaVuSans-64"/>
      <use x="63.476562" xlink:href="#DejaVuSans-46"/>
      <use x="120.996094" xlink:href="#DejaVuSans-2f"/>
      <use x="154.6875" xlink:href="#DejaVuSans-64"/>
      <use x="218.164062" xlink:href="#DejaVuSans-75"/>
      <use x="281.542969" xlink:href="#DejaVuSans-20"/>
      <use x="313.330078" xlink:href="#DejaVuSans-5b"/>
      <use x="352.34375" xlink:href="#DejaVuSans-63"/>
      <use x="407.324219" xlink:href="#DejaVuSans-6f"/>
      <use x="468.505859" xlink:href="#DejaVuSans-6e"/>
      <use x="531.884766" xlink:href="#DejaVuSans-74"/>
      <use x="571.09375" xlink:href="#DejaVuSans-65"/>
      <use x="632.601562" xlink:href="#DejaVuSans-78"/>
      <use x="691.78125" xlink:href="#DejaVuSans-74"/>
      <use x="730.990234" xlink:href="#DejaVuSans-5f"/>
      <use x="780.990234" xlink:href="#DejaVuSans-73"/>
      <use x="833.089844" xlink:href="#DejaVuSans-70"/>
      <use x="896.566406" xlink:href="#DejaVuSans-65"/>
      <use x="958.089844" xlink:href="#DejaVuSans-63"/>
      <use x="1013.070312" xlink:href="#DejaVuSans-69"/>
      <use x="1040.853516" xlink:href="#DejaVuSans-66"/>
      <use x="1076.058594" xlink:href="#DejaVuSans-69"/>
      <use x="1103.841797" xlink:href="#DejaVuSans-63"/>
      <use x="1158.822266" xlink:href="#DejaVuSans-5d"/>
     </g>
    </g>
   </g>
  </g>
 </g>
 <defs>
  <clipPath id="p0dd631d01a">
   <rect height="217.44" width="334.8" x="54" y="34.56"/>
  </clipPath>
 </defs>
</svg>
