<?xml version="1.0" encoding="utf-8" standalone="no"?>
<!DOCTYPE svg PUBLIC "-//W3C//DTD SVG 1.1//EN"
  "http://www.w3.org/Graphics/SVG/1.1/DTD/svg11.dtd">
<!-- Created with matplotlib (http://matplotlib.org/) -->
<svg height="288pt" version="1.1" viewBox="0 0 288 288" width="288pt" xmlns="http://www.w3.org/2000/svg" xmlns:xlink="http://www.w3.org/1999/xlink">
 <defs>
  <style type="text/css">
*{stroke-linecap:butt;stroke-linejoin:round;}
  </style>
 </defs>
 <g id="figure_1">
  <g id="patch_1">
   <path d="M 0 288 
L 288 288 
L 288 0 
L 0 0 
z
" style="fill:#ffffff;"/>
  </g>
  <g id="axes_1">
   <g id="patch_2">
    <path d="M 36 256.32 
L 259.2 256.32 
L 259.2 34.56 
L 36 34.56 
z
" style="fill:#ffffff;"/>
   </g>
   <g id="PathCollection_1">
    <path clip-path="url(#p876829ff6a)" d="M 52.582116 122.52647 
C 53.847021 122.52647 55.060288 122.023918 55.95471 121.129496 
C 56.849133 120.235074 57.351685 119.021806 57.351685 117.756902 
C 57.351685 116.491997 56.849133 115.27873 55.95471 114.384308 
C 55.060288 113.489885 53.847021 112.987333 52.582116 112.987333 
C 51.317212 112.987333 50.103944 113.489885 49.209522 114.384308 
C 48.3151 115.27873 47.812548 116.491997 47.812548 117.756902 
C 47.812548 119.021806 48.3151 120.235074 49.209522 121.129496 
C 50.103944 122.023918 51.317212 122.52647 52.582116 122.52647 
z
" style="fill:#008000;fill-opacity:0.5;stroke:#008000;stroke-opacity:0.5;"/>
    <path clip-path="url(#p876829ff6a)" d="M 52.582116 122.52647 
C 53.847021 122.52647 55.060288 122.023918 55.95471 121.129496 
C 56.849133 120.235074 57.351685 119.021806 57.351685 117.756902 
C 57.351685 116.491997 56.849133 115.27873 55.95471 114.384308 
C 55.060288 113.489885 53.847021 112.987333 52.582116 112.987333 
C 51.317212 112.987333 50.103944 113.489885 49.209522 114.384308 
C 48.3151 115.27873 47.812548 116.491997 47.812548 117.756902 
C 47.812548 119.021806 48.3151 120.235074 49.209522 121.129496 
C 50.103944 122.023918 51.317212 122.52647 52.582116 122.52647 
z
" style="fill:#008000;fill-opacity:0.5;stroke:#008000;stroke-opacity:0.5;"/>
    <path clip-path="url(#p876829ff6a)" d="M 89.123943 195.792717 
C 90.292633 195.792717 91.413613 195.328391 92.240002 194.502003 
C 93.06639 193.675614 93.530716 192.554634 93.530716 191.385944 
C 93.530716 190.217254 93.06639 189.096273 92.240002 188.269885 
C 91.413613 187.443496 90.292633 186.979171 89.123943 186.979171 
C 87.955253 186.979171 86.834272 187.443496 86.007884 188.269885 
C 85.181495 189.096273 84.71717 190.217254 84.71717 191.385944 
C 84.71717 192.554634 85.181495 193.675614 86.007884 194.502003 
C 86.834272 195.328391 87.955253 195.792717 89.123943 195.792717 
z
" style="fill:#008000;fill-opacity:0.5;stroke:#008000;stroke-opacity:0.5;"/>
    <path clip-path="url(#p876829ff6a)" d="M 195.91548 181.16309 
C 197.083841 181.16309 198.204505 180.698896 199.030661 179.87274 
C 199.856817 179.046585 200.321011 177.92592 200.321011 176.757559 
C 200.321011 175.589199 199.856817 174.468534 199.030661 173.642379 
C 198.204505 172.816223 197.083841 172.352028 195.91548 172.352028 
C 194.74712 172.352028 193.626455 172.816223 192.800299 173.642379 
C 191.974144 174.468534 191.509949 175.589199 191.509949 176.757559 
C 191.509949 177.92592 191.974144 179.046585 192.800299 179.87274 
C 193.626455 180.698896 194.74712 181.16309 195.91548 181.16309 
z
" style="fill:#008000;fill-opacity:0.5;stroke:#008000;stroke-opacity:0.5;"/>
    <path clip-path="url(#p876829ff6a)" d="M 236.931753 171.740558 
C 238.009987 171.740558 239.044204 171.312171 239.80663 170.549745 
C 240.569056 169.787319 240.997443 168.753102 240.997443 167.674869 
C 240.997443 166.596635 240.569056 165.562418 239.80663 164.799992 
C 239.044204 164.037566 238.009987 163.609179 236.931753 163.609179 
C 235.85352 163.609179 234.819303 164.037566 234.056877 164.799992 
C 233.29445 165.562418 232.866064 166.596635 232.866064 167.674869 
C 232.866064 168.753102 233.29445 169.787319 234.056877 170.549745 
C 234.819303 171.312171 235.85352 171.740558 236.931753 171.740558 
z
" style="fill:#008000;fill-opacity:0.5;stroke:#008000;stroke-opacity:0.5;"/>
    <path clip-path="url(#p876829ff6a)" d="M 240.453905 117.65862 
C 241.893914 117.65862 243.275138 117.086498 244.293378 116.068258 
C 245.311618 115.050018 245.88374 113.668794 245.88374 112.228785 
C 245.88374 110.788776 245.311618 109.407553 244.293378 108.389313 
C 243.275138 107.371072 241.893914 106.798951 240.453905 106.798951 
C 239.013896 106.798951 237.632673 107.371072 236.614433 108.389313 
C 235.596193 109.407553 235.024071 110.788776 235.024071 112.228785 
C 235.024071 113.668794 235.596193 115.050018 236.614433 116.068258 
C 237.632673 117.086498 239.013896 117.65862 240.453905 117.65862 
z
" style="fill:#008000;fill-opacity:0.5;stroke:#008000;stroke-opacity:0.5;"/>
    <path clip-path="url(#p876829ff6a)" d="M 221.460041 139.051293 
C 222.647193 139.051293 223.785883 138.579633 224.625327 137.740189 
C 225.46477 136.900745 225.936431 135.762056 225.936431 134.574903 
C 225.936431 133.38775 225.46477 132.249061 224.625327 131.409617 
C 223.785883 130.570173 222.647193 130.098513 221.460041 130.098513 
C 220.272888 130.098513 219.134199 130.570173 218.294755 131.409617 
C 217.455311 132.249061 216.98365 133.38775 216.98365 134.574903 
C 216.98365 135.762056 217.455311 136.900745 218.294755 137.740189 
C 219.134199 138.579633 220.272888 139.051293 221.460041 139.051293 
z
" style="fill:#008000;fill-opacity:0.5;stroke:#008000;stroke-opacity:0.5;"/>
    <path clip-path="url(#p876829ff6a)" d="M 240.022759 127.140013 
C 241.451399 127.140013 242.821719 126.572408 243.83192 125.562207 
C 244.842121 124.552006 245.409726 123.181686 245.409726 121.753046 
C 245.409726 120.324406 244.842121 118.954087 243.83192 117.943886 
C 242.821719 116.933684 241.451399 116.366079 240.022759 116.366079 
C 238.594119 116.366079 237.2238 116.933684 236.213598 117.943886 
C 235.203397 118.954087 234.635792 120.324406 234.635792 121.753046 
C 234.635792 123.181686 235.203397 124.552006 236.213598 125.562207 
C 237.2238 126.572408 238.594119 127.140013 240.022759 127.140013 
z
" style="fill:#008000;fill-opacity:0.5;stroke:#008000;stroke-opacity:0.5;"/>
    <path clip-path="url(#p876829ff6a)" d="M 230.807305 149.85651 
C 231.881382 149.85651 232.911613 149.429774 233.6711 148.670287 
C 234.430588 147.910799 234.857323 146.880568 234.857323 145.806491 
C 234.857323 144.732413 234.430588 143.702183 233.6711 142.942695 
C 232.911613 142.183208 231.881382 141.756472 230.807305 141.756472 
C 229.733227 141.756472 228.702996 142.183208 227.943509 142.942695 
C 227.184021 143.702183 226.757286 144.732413 226.757286 145.806491 
C 226.757286 146.880568 227.184021 147.910799 227.943509 148.670287 
C 228.702996 149.429774 229.733227 149.85651 230.807305 149.85651 
z
" style="fill:#008000;fill-opacity:0.5;stroke:#008000;stroke-opacity:0.5;"/>
    <path clip-path="url(#p876829ff6a)" d="M 239.619578 127.141538 
C 241.224684 127.141538 242.764264 126.503823 243.899245 125.368842 
C 245.034226 124.233861 245.671941 122.69428 245.671941 121.089175 
C 245.671941 119.48407 245.034226 117.944489 243.899245 116.809509 
C 242.764264 115.674528 241.224684 115.036813 239.619578 115.036813 
C 238.014473 115.036813 236.474893 115.674528 235.339912 116.809509 
C 234.204931 117.944489 233.567216 119.48407 233.567216 121.089175 
C 233.567216 122.69428 234.204931 124.233861 235.339912 125.368842 
C 236.474893 126.503823 238.014473 127.141538 239.619578 127.141538 
z
" style="fill:#008000;fill-opacity:0.5;stroke:#008000;stroke-opacity:0.5;"/>
    <path clip-path="url(#p876829ff6a)" d="M 215.303656 167.397944 
C 216.61463 167.397944 217.872087 166.877089 218.799085 165.95009 
C 219.726084 165.023091 220.246939 163.765635 220.246939 162.454661 
C 220.246939 161.143687 219.726084 159.886231 218.799085 158.959232 
C 217.872087 158.032234 216.61463 157.511378 215.303656 157.511378 
C 213.992682 157.511378 212.735226 158.032234 211.808227 158.959232 
C 210.881229 159.886231 210.360373 161.143687 210.360373 162.454661 
C 210.360373 163.765635 210.881229 165.023091 211.808227 165.95009 
C 212.735226 166.877089 213.992682 167.397944 215.303656 167.397944 
z
" style="fill:#008000;fill-opacity:0.5;stroke:#008000;stroke-opacity:0.5;"/>
    <path clip-path="url(#p876829ff6a)" d="M 241.119557 130.218391 
C 242.678906 130.218391 244.174598 129.598855 245.277224 128.496228 
C 246.37985 127.393602 246.999386 125.89791 246.999386 124.338561 
C 246.999386 122.779212 246.37985 121.28352 245.277224 120.180894 
C 244.174598 119.078268 242.678906 118.458732 241.119557 118.458732 
C 239.560208 118.458732 238.064516 119.078268 236.961889 120.180894 
C 235.859263 121.28352 235.239727 122.779212 235.239727 124.338561 
C 235.239727 125.89791 235.859263 127.393602 236.961889 128.496228 
C 238.064516 129.598855 239.560208 130.218391 241.119557 130.218391 
z
" style="fill:#008000;fill-opacity:0.5;stroke:#008000;stroke-opacity:0.5;"/>
    <path clip-path="url(#p876829ff6a)" d="M 218.410538 166.864571 
C 219.651994 166.864571 220.84277 166.371335 221.720612 165.493493 
C 222.598454 164.615651 223.09169 163.424874 223.09169 162.183418 
C 223.09169 160.941962 222.598454 159.751186 221.720612 158.873344 
C 220.84277 157.995502 219.651994 157.502266 218.410538 157.502266 
C 217.169081 157.502266 215.978305 157.995502 215.100463 158.873344 
C 214.222621 159.751186 213.729385 160.941962 213.729385 162.183418 
C 213.729385 163.424874 214.222621 164.615651 215.100463 165.493493 
C 215.978305 166.371335 217.169081 166.864571 218.410538 166.864571 
z
" style="fill:#008000;fill-opacity:0.5;stroke:#008000;stroke-opacity:0.5;"/>
    <path clip-path="url(#p876829ff6a)" d="M 216.783445 131.526198 
C 218.351619 131.526198 219.855775 130.903156 220.964641 129.79429 
C 222.073507 128.685424 222.696549 127.181268 222.696549 125.613094 
C 222.696549 124.044921 222.073507 122.540765 220.964641 121.431898 
C 219.855775 120.323032 218.351619 119.69999 216.783445 119.69999 
C 215.215272 119.69999 213.711115 120.323032 212.602249 121.431898 
C 211.493383 122.540765 210.870341 124.044921 210.870341 125.613094 
C 210.870341 127.181268 211.493383 128.685424 212.602249 129.79429 
C 213.711115 130.903156 215.215272 131.526198 216.783445 131.526198 
z
" style="fill:#008000;fill-opacity:0.5;stroke:#008000;stroke-opacity:0.5;"/>
    <path clip-path="url(#p876829ff6a)" d="M 216.698704 159.798561 
C 217.938343 159.798561 219.127376 159.306048 220.003933 158.429491 
C 220.88049 157.552934 221.373004 156.3639 221.373004 155.124262 
C 221.373004 153.884623 220.88049 152.69559 220.003933 151.819033 
C 219.127376 150.942476 217.938343 150.449962 216.698704 150.449962 
C 215.459065 150.449962 214.270032 150.942476 213.393475 151.819033 
C 212.516918 152.69559 212.024404 153.884623 212.024404 155.124262 
C 212.024404 156.3639 212.516918 157.552934 213.393475 158.429491 
C 214.270032 159.306048 215.459065 159.798561 216.698704 159.798561 
z
" style="fill:#008000;fill-opacity:0.5;stroke:#008000;stroke-opacity:0.5;"/>
   </g>
   <g id="PathCollection_2">
    <path clip-path="url(#p876829ff6a)" d="M 52.582116 151.749706 
C 53.847021 151.749706 55.060288 151.247154 55.95471 150.352732 
C 56.849133 149.458309 57.351685 148.245042 57.351685 146.980137 
C 57.351685 145.715233 56.849133 144.501966 55.95471 143.607543 
C 55.060288 142.713121 53.847021 142.210569 52.582116 142.210569 
C 51.317212 142.210569 50.103944 142.713121 49.209522 143.607543 
C 48.3151 144.501966 47.812548 145.715233 47.812548 146.980137 
C 47.812548 148.245042 48.3151 149.458309 49.209522 150.352732 
C 50.103944 151.247154 51.317212 151.749706 52.582116 151.749706 
z
" style="fill-opacity:0.5;stroke:#000000;stroke-opacity:0.5;"/>
    <path clip-path="url(#p876829ff6a)" d="M 52.582116 151.749706 
C 53.847021 151.749706 55.060288 151.247154 55.95471 150.352732 
C 56.849133 149.458309 57.351685 148.245042 57.351685 146.980137 
C 57.351685 145.715233 56.849133 144.501966 55.95471 143.607543 
C 55.060288 142.713121 53.847021 142.210569 52.582116 142.210569 
C 51.317212 142.210569 50.103944 142.713121 49.209522 143.607543 
C 48.3151 144.501966 47.812548 145.715233 47.812548 146.980137 
C 47.812548 148.245042 48.3151 149.458309 49.209522 150.352732 
C 50.103944 151.247154 51.317212 151.749706 52.582116 151.749706 
z
" style="fill-opacity:0.5;stroke:#000000;stroke-opacity:0.5;"/>
    <path clip-path="url(#p876829ff6a)" d="M 89.123943 155.385297 
C 90.292633 155.385297 91.413613 154.920972 92.240002 154.094583 
C 93.06639 153.268195 93.530716 152.147214 93.530716 150.978524 
C 93.530716 149.809834 93.06639 148.688854 92.240002 147.862465 
C 91.413613 147.036076 90.292633 146.571751 89.123943 146.571751 
C 87.955253 146.571751 86.834272 147.036076 86.007884 147.862465 
C 85.181495 148.688854 84.71717 149.809834 84.71717 150.978524 
C 84.71717 152.147214 85.181495 153.268195 86.007884 154.094583 
C 86.834272 154.920972 87.955253 155.385297 89.123943 155.385297 
z
" style="fill-opacity:0.5;stroke:#000000;stroke-opacity:0.5;"/>
    <path clip-path="url(#p876829ff6a)" d="M 195.91548 155.18552 
C 197.083841 155.18552 198.204505 154.721326 199.030661 153.89517 
C 199.856817 153.069014 200.321011 151.94835 200.321011 150.779989 
C 200.321011 149.611629 199.856817 148.490964 199.030661 147.664808 
C 198.204505 146.838653 197.083841 146.374458 195.91548 146.374458 
C 194.74712 146.374458 193.626455 146.838653 192.800299 147.664808 
C 191.974144 148.490964 191.509949 149.611629 191.509949 150.779989 
C 191.509949 151.94835 191.974144 153.069014 192.800299 153.89517 
C 193.626455 154.721326 194.74712 155.18552 195.91548 155.18552 
z
" style="fill-opacity:0.5;stroke:#000000;stroke-opacity:0.5;"/>
    <path clip-path="url(#p876829ff6a)" d="M 236.931753 161.707896 
C 238.009987 161.707896 239.044204 161.27951 239.80663 160.517084 
C 240.569056 159.754657 240.997443 158.72044 240.997443 157.642207 
C 240.997443 156.563973 240.569056 155.529756 239.80663 154.76733 
C 239.044204 154.004904 238.009987 153.576517 236.931753 153.576517 
C 235.85352 153.576517 234.819303 154.004904 234.056877 154.76733 
C 233.29445 155.529756 232.866064 156.563973 232.866064 157.642207 
C 232.866064 158.72044 233.29445 159.754657 234.056877 160.517084 
C 234.819303 161.27951 235.85352 161.707896 236.931753 161.707896 
z
" style="fill-opacity:0.5;stroke:#000000;stroke-opacity:0.5;"/>
    <path clip-path="url(#p876829ff6a)" d="M 240.453905 179.126806 
C 241.893914 179.126806 243.275138 178.554684 244.293378 177.536444 
C 245.311618 176.518204 245.88374 175.13698 245.88374 173.696971 
C 245.88374 172.256963 245.311618 170.875739 244.293378 169.857499 
C 243.275138 168.839259 241.893914 168.267137 240.453905 168.267137 
C 239.013896 168.267137 237.632673 168.839259 236.614433 169.857499 
C 235.596193 170.875739 235.024071 172.256963 235.024071 173.696971 
C 235.024071 175.13698 235.596193 176.518204 236.614433 177.536444 
C 237.632673 178.554684 239.013896 179.126806 240.453905 179.126806 
z
" style="fill-opacity:0.5;stroke:#000000;stroke-opacity:0.5;"/>
    <path clip-path="url(#p876829ff6a)" d="M 221.460041 128.242916 
C 222.647193 128.242916 223.785883 127.771255 224.625327 126.931811 
C 225.46477 126.092368 225.936431 124.953678 225.936431 123.766525 
C 225.936431 122.579373 225.46477 121.440683 224.625327 120.601239 
C 223.785883 119.761796 222.647193 119.290135 221.460041 119.290135 
C 220.272888 119.290135 219.134199 119.761796 218.294755 120.601239 
C 217.455311 121.440683 216.98365 122.579373 216.98365 123.766525 
C 216.98365 124.953678 217.455311 126.092368 218.294755 126.931811 
C 219.134199 127.771255 220.272888 128.242916 221.460041 128.242916 
z
" style="fill-opacity:0.5;stroke:#000000;stroke-opacity:0.5;"/>
    <path clip-path="url(#p876829ff6a)" d="M 240.022759 179.276335 
C 241.451399 179.276335 242.821719 178.708731 243.83192 177.698529 
C 244.842121 176.688328 245.409726 175.318009 245.409726 173.889369 
C 245.409726 172.460728 244.842121 171.090409 243.83192 170.080208 
C 242.821719 169.070007 241.451399 168.502402 240.022759 168.502402 
C 238.594119 168.502402 237.2238 169.070007 236.213598 170.080208 
C 235.203397 171.090409 234.635792 172.460728 234.635792 173.889369 
C 234.635792 175.318009 235.203397 176.688328 236.213598 177.698529 
C 237.2238 178.708731 238.594119 179.276335 240.022759 179.276335 
z
" style="fill-opacity:0.5;stroke:#000000;stroke-opacity:0.5;"/>
    <path clip-path="url(#p876829ff6a)" d="M 230.807305 141.654971 
C 231.881382 141.654971 232.911613 141.228235 233.6711 140.468748 
C 234.430588 139.70926 234.857323 138.679029 234.857323 137.604952 
C 234.857323 136.530874 234.430588 135.500644 233.6711 134.741156 
C 232.911613 133.981669 231.881382 133.554933 230.807305 133.554933 
C 229.733227 133.554933 228.702996 133.981669 227.943509 134.741156 
C 227.184021 135.500644 226.757286 136.530874 226.757286 137.604952 
C 226.757286 138.679029 227.184021 139.70926 227.943509 140.468748 
C 228.702996 141.228235 229.733227 141.654971 230.807305 141.654971 
z
" style="fill-opacity:0.5;stroke:#000000;stroke-opacity:0.5;"/>
    <path clip-path="url(#p876829ff6a)" d="M 239.619578 181.735709 
C 241.224684 181.735709 242.764264 181.097994 243.899245 179.963013 
C 245.034226 178.828032 245.671941 177.288452 245.671941 175.683346 
C 245.671941 174.078241 245.034226 172.538661 243.899245 171.40368 
C 242.764264 170.268699 241.224684 169.630984 239.619578 169.630984 
C 238.014473 169.630984 236.474893 170.268699 235.339912 171.40368 
C 234.204931 172.538661 233.567216 174.078241 233.567216 175.683346 
C 233.567216 177.288452 234.204931 178.828032 235.339912 179.963013 
C 236.474893 181.097994 238.014473 181.735709 239.619578 181.735709 
z
" style="fill-opacity:0.5;stroke:#000000;stroke-opacity:0.5;"/>
    <path clip-path="url(#p876829ff6a)" d="M 215.303656 176.483233 
C 216.61463 176.483233 217.872087 175.962377 218.799085 175.035378 
C 219.726084 174.10838 220.246939 172.850923 220.246939 171.539949 
C 220.246939 170.228975 219.726084 168.971519 218.799085 168.04452 
C 217.872087 167.117522 216.61463 166.596666 215.303656 166.596666 
C 213.992682 166.596666 212.735226 167.117522 211.808227 168.04452 
C 210.881229 168.971519 210.360373 170.228975 210.360373 171.539949 
C 210.360373 172.850923 210.881229 174.10838 211.808227 175.035378 
C 212.735226 175.962377 213.992682 176.483233 215.303656 176.483233 
z
" style="fill-opacity:0.5;stroke:#000000;stroke-opacity:0.5;"/>
    <path clip-path="url(#p876829ff6a)" d="M 241.119557 184.663315 
C 242.678906 184.663315 244.174598 184.043779 245.277224 182.941153 
C 246.37985 181.838527 246.999386 180.342835 246.999386 178.783486 
C 246.999386 177.224137 246.37985 175.728445 245.277224 174.625818 
C 244.174598 173.523192 242.678906 172.903656 241.119557 172.903656 
C 239.560208 172.903656 238.064516 173.523192 236.961889 174.625818 
C 235.859263 175.728445 235.239727 177.224137 235.239727 178.783486 
C 235.239727 180.342835 235.859263 181.838527 236.961889 182.941153 
C 238.064516 184.043779 239.560208 184.663315 241.119557 184.663315 
z
" style="fill-opacity:0.5;stroke:#000000;stroke-opacity:0.5;"/>
    <path clip-path="url(#p876829ff6a)" d="M 218.410538 181.014016 
C 219.651994 181.014016 220.84277 180.52078 221.720612 179.642938 
C 222.598454 178.765096 223.09169 177.57432 223.09169 176.332864 
C 223.09169 175.091408 222.598454 173.900631 221.720612 173.022789 
C 220.84277 172.144947 219.651994 171.651711 218.410538 171.651711 
C 217.169081 171.651711 215.978305 172.144947 215.100463 173.022789 
C 214.222621 173.900631 213.729385 175.091408 213.729385 176.332864 
C 213.729385 177.57432 214.222621 178.765096 215.100463 179.642938 
C 215.978305 180.52078 217.169081 181.014016 218.410538 181.014016 
z
" style="fill-opacity:0.5;stroke:#000000;stroke-opacity:0.5;"/>
    <path clip-path="url(#p876829ff6a)" d="M 216.783445 186.53538 
C 218.351619 186.53538 219.855775 185.912338 220.964641 184.803472 
C 222.073507 183.694606 222.696549 182.19045 222.696549 180.622276 
C 222.696549 179.054102 222.073507 177.549946 220.964641 176.44108 
C 219.855775 175.332214 218.351619 174.709172 216.783445 174.709172 
C 215.215272 174.709172 213.711115 175.332214 212.602249 176.44108 
C 211.493383 177.549946 210.870341 179.054102 210.870341 180.622276 
C 210.870341 182.19045 211.493383 183.694606 212.602249 184.803472 
C 213.711115 185.912338 215.215272 186.53538 216.783445 186.53538 
z
" style="fill-opacity:0.5;stroke:#000000;stroke-opacity:0.5;"/>
    <path clip-path="url(#p876829ff6a)" d="M 216.698704 176.723393 
C 217.938343 176.723393 219.127376 176.230879 220.003933 175.354322 
C 220.88049 174.477765 221.373004 173.288732 221.373004 172.049093 
C 221.373004 170.809454 220.88049 169.620421 220.003933 168.743864 
C 219.127376 167.867307 217.938343 167.374793 216.698704 167.374793 
C 215.459065 167.374793 214.270032 167.867307 213.393475 168.743864 
C 212.516918 169.620421 212.024404 170.809454 212.024404 172.049093 
C 212.024404 173.288732 212.516918 174.477765 213.393475 175.354322 
C 214.270032 176.230879 215.459065 176.723393 216.698704 176.723393 
z
" style="fill-opacity:0.5;stroke:#000000;stroke-opacity:0.5;"/>
   </g>
   <g id="matplotlib.axis_1">
    <g id="xtick_1">
     <g id="line2d_1">
      <defs>
       <path d="M 0 0 
L 0 3.5 
" id="m9eba914058" style="stroke:#000000;stroke-width:0.8;"/>
      </defs>
      <g>
       <use style="stroke:#000000;stroke-width:0.8;" x="61.498589" xlink:href="#m9eba914058" y="256.32"/>
      </g>
     </g>
     <g id="text_1">
      <!-- −0.4 -->
      <defs>
       <path d="M 10.59375 35.5 
L 73.1875 35.5 
L 73.1875 27.203125 
L 10.59375 27.203125 
z
" id="DejaVuSans-2212"/>
       <path d="M 31.78125 66.40625 
Q 24.171875 66.40625 20.328125 58.90625 
Q 16.5 51.421875 16.5 36.375 
Q 16.5 21.390625 20.328125 13.890625 
Q 24.171875 6.390625 31.78125 6.390625 
Q 39.453125 6.390625 43.28125 13.890625 
Q 47.125 21.390625 47.125 36.375 
Q 47.125 51.421875 43.28125 58.90625 
Q 39.453125 66.40625 31.78125 66.40625 
z
M 31.78125 74.21875 
Q 44.046875 74.21875 50.515625 64.515625 
Q 56.984375 54.828125 56.984375 36.375 
Q 56.984375 17.96875 50.515625 8.265625 
Q 44.046875 -1.421875 31.78125 -1.421875 
Q 19.53125 -1.421875 13.0625 8.265625 
Q 6.59375 17.96875 6.59375 36.375 
Q 6.59375 54.828125 13.0625 64.515625 
Q 19.53125 74.21875 31.78125 74.21875 
z
" id="DejaVuSans-30"/>
       <path d="M 10.6875 12.40625 
L 21 12.40625 
L 21 0 
L 10.6875 0 
z
" id="DejaVuSans-2e"/>
       <path d="M 37.796875 64.3125 
L 12.890625 25.390625 
L 37.796875 25.390625 
z
M 35.203125 72.90625 
L 47.609375 72.90625 
L 47.609375 25.390625 
L 58.015625 25.390625 
L 58.015625 17.1875 
L 47.609375 17.1875 
L 47.609375 0 
L 37.796875 0 
L 37.796875 17.1875 
L 4.890625 17.1875 
L 4.890625 26.703125 
z
" id="DejaVuSans-34"/>
      </defs>
      <g transform="translate(49.357183 270.918437)scale(0.1 -0.1)">
       <use xlink:href="#DejaVuSans-2212"/>
       <use x="83.789062" xlink:href="#DejaVuSans-30"/>
       <use x="147.412109" xlink:href="#DejaVuSans-2e"/>
       <use x="179.199219" xlink:href="#DejaVuSans-34"/>
      </g>
     </g>
    </g>
    <g id="xtick_2">
     <g id="line2d_2">
      <g>
       <use style="stroke:#000000;stroke-width:0.8;" x="103.333928" xlink:href="#m9eba914058" y="256.32"/>
      </g>
     </g>
     <g id="text_2">
      <!-- −0.3 -->
      <defs>
       <path d="M 40.578125 39.3125 
Q 47.65625 37.796875 51.625 33 
Q 55.609375 28.21875 55.609375 21.1875 
Q 55.609375 10.40625 48.1875 4.484375 
Q 40.765625 -1.421875 27.09375 -1.421875 
Q 22.515625 -1.421875 17.65625 -0.515625 
Q 12.796875 0.390625 7.625 2.203125 
L 7.625 11.71875 
Q 11.71875 9.328125 16.59375 8.109375 
Q 21.484375 6.890625 26.8125 6.890625 
Q 36.078125 6.890625 40.9375 10.546875 
Q 45.796875 14.203125 45.796875 21.1875 
Q 45.796875 27.640625 41.28125 31.265625 
Q 36.765625 34.90625 28.71875 34.90625 
L 20.21875 34.90625 
L 20.21875 43.015625 
L 29.109375 43.015625 
Q 36.375 43.015625 40.234375 45.921875 
Q 44.09375 48.828125 44.09375 54.296875 
Q 44.09375 59.90625 40.109375 62.90625 
Q 36.140625 65.921875 28.71875 65.921875 
Q 24.65625 65.921875 20.015625 65.03125 
Q 15.375 64.15625 9.8125 62.3125 
L 9.8125 71.09375 
Q 15.4375 72.65625 20.34375 73.4375 
Q 25.25 74.21875 29.59375 74.21875 
Q 40.828125 74.21875 47.359375 69.109375 
Q 53.90625 64.015625 53.90625 55.328125 
Q 53.90625 49.265625 50.4375 45.09375 
Q 46.96875 40.921875 40.578125 39.3125 
z
" id="DejaVuSans-33"/>
      </defs>
      <g transform="translate(91.192522 270.918437)scale(0.1 -0.1)">
       <use xlink:href="#DejaVuSans-2212"/>
       <use x="83.789062" xlink:href="#DejaVuSans-30"/>
       <use x="147.412109" xlink:href="#DejaVuSans-2e"/>
       <use x="179.199219" xlink:href="#DejaVuSans-33"/>
      </g>
     </g>
    </g>
    <g id="xtick_3">
     <g id="line2d_3">
      <g>
       <use style="stroke:#000000;stroke-width:0.8;" x="145.169267" xlink:href="#m9eba914058" y="256.32"/>
      </g>
     </g>
     <g id="text_3">
      <!-- −0.2 -->
      <defs>
       <path d="M 19.1875 8.296875 
L 53.609375 8.296875 
L 53.609375 0 
L 7.328125 0 
L 7.328125 8.296875 
Q 12.9375 14.109375 22.625 23.890625 
Q 32.328125 33.6875 34.8125 36.53125 
Q 39.546875 41.84375 41.421875 45.53125 
Q 43.3125 49.21875 43.3125 52.78125 
Q 43.3125 58.59375 39.234375 62.25 
Q 35.15625 65.921875 28.609375 65.921875 
Q 23.96875 65.921875 18.8125 64.3125 
Q 13.671875 62.703125 7.8125 59.421875 
L 7.8125 69.390625 
Q 13.765625 71.78125 18.9375 73 
Q 24.125 74.21875 28.421875 74.21875 
Q 39.75 74.21875 46.484375 68.546875 
Q 53.21875 62.890625 53.21875 53.421875 
Q 53.21875 48.921875 51.53125 44.890625 
Q 49.859375 40.875 45.40625 35.40625 
Q 44.1875 33.984375 37.640625 27.21875 
Q 31.109375 20.453125 19.1875 8.296875 
z
" id="DejaVuSans-32"/>
      </defs>
      <g transform="translate(133.02786 270.918437)scale(0.1 -0.1)">
       <use xlink:href="#DejaVuSans-2212"/>
       <use x="83.789062" xlink:href="#DejaVuSans-30"/>
       <use x="147.412109" xlink:href="#DejaVuSans-2e"/>
       <use x="179.199219" xlink:href="#DejaVuSans-32"/>
      </g>
     </g>
    </g>
    <g id="xtick_4">
     <g id="line2d_4">
      <g>
       <use style="stroke:#000000;stroke-width:0.8;" x="187.004605" xlink:href="#m9eba914058" y="256.32"/>
      </g>
     </g>
     <g id="text_4">
      <!-- −0.1 -->
      <defs>
       <path d="M 12.40625 8.296875 
L 28.515625 8.296875 
L 28.515625 63.921875 
L 10.984375 60.40625 
L 10.984375 69.390625 
L 28.421875 72.90625 
L 38.28125 72.90625 
L 38.28125 8.296875 
L 54.390625 8.296875 
L 54.390625 0 
L 12.40625 0 
z
" id="DejaVuSans-31"/>
      </defs>
      <g transform="translate(174.863199 270.918437)scale(0.1 -0.1)">
       <use xlink:href="#DejaVuSans-2212"/>
       <use x="83.789062" xlink:href="#DejaVuSans-30"/>
       <use x="147.412109" xlink:href="#DejaVuSans-2e"/>
       <use x="179.199219" xlink:href="#DejaVuSans-31"/>
      </g>
     </g>
    </g>
    <g id="xtick_5">
     <g id="line2d_5">
      <g>
       <use style="stroke:#000000;stroke-width:0.8;" x="228.839944" xlink:href="#m9eba914058" y="256.32"/>
      </g>
     </g>
     <g id="text_5">
      <!-- 0.0 -->
      <g transform="translate(220.888382 270.918437)scale(0.1 -0.1)">
       <use xlink:href="#DejaVuSans-30"/>
       <use x="63.623047" xlink:href="#DejaVuSans-2e"/>
       <use x="95.410156" xlink:href="#DejaVuSans-30"/>
      </g>
     </g>
    </g>
    <g id="text_6">
     <!-- r0 dFdh . W_out(cos@) -->
     <defs>
      <path d="M 41.109375 46.296875 
Q 39.59375 47.171875 37.8125 47.578125 
Q 36.03125 48 33.890625 48 
Q 26.265625 48 22.1875 43.046875 
Q 18.109375 38.09375 18.109375 28.8125 
L 18.109375 0 
L 9.078125 0 
L 9.078125 54.6875 
L 18.109375 54.6875 
L 18.109375 46.1875 
Q 20.953125 51.171875 25.484375 53.578125 
Q 30.03125 56 36.53125 56 
Q 37.453125 56 38.578125 55.875 
Q 39.703125 55.765625 41.0625 55.515625 
z
" id="DejaVuSans-72"/>
      <path id="DejaVuSans-20"/>
      <path d="M 45.40625 46.390625 
L 45.40625 75.984375 
L 54.390625 75.984375 
L 54.390625 0 
L 45.40625 0 
L 45.40625 8.203125 
Q 42.578125 3.328125 38.25 0.953125 
Q 33.9375 -1.421875 27.875 -1.421875 
Q 17.96875 -1.421875 11.734375 6.484375 
Q 5.515625 14.40625 5.515625 27.296875 
Q 5.515625 40.1875 11.734375 48.09375 
Q 17.96875 56 27.875 56 
Q 33.9375 56 38.25 53.625 
Q 42.578125 51.265625 45.40625 46.390625 
z
M 14.796875 27.296875 
Q 14.796875 17.390625 18.875 11.75 
Q 22.953125 6.109375 30.078125 6.109375 
Q 37.203125 6.109375 41.296875 11.75 
Q 45.40625 17.390625 45.40625 27.296875 
Q 45.40625 37.203125 41.296875 42.84375 
Q 37.203125 48.484375 30.078125 48.484375 
Q 22.953125 48.484375 18.875 42.84375 
Q 14.796875 37.203125 14.796875 27.296875 
z
" id="DejaVuSans-64"/>
      <path d="M 9.8125 72.90625 
L 51.703125 72.90625 
L 51.703125 64.59375 
L 19.671875 64.59375 
L 19.671875 43.109375 
L 48.578125 43.109375 
L 48.578125 34.8125 
L 19.671875 34.8125 
L 19.671875 0 
L 9.8125 0 
z
" id="DejaVuSans-46"/>
      <path d="M 54.890625 33.015625 
L 54.890625 0 
L 45.90625 0 
L 45.90625 32.71875 
Q 45.90625 40.484375 42.875 44.328125 
Q 39.84375 48.1875 33.796875 48.1875 
Q 26.515625 48.1875 22.3125 43.546875 
Q 18.109375 38.921875 18.109375 30.90625 
L 18.109375 0 
L 9.078125 0 
L 9.078125 75.984375 
L 18.109375 75.984375 
L 18.109375 46.1875 
Q 21.34375 51.125 25.703125 53.5625 
Q 30.078125 56 35.796875 56 
Q 45.21875 56 50.046875 50.171875 
Q 54.890625 44.34375 54.890625 33.015625 
z
" id="DejaVuSans-68"/>
      <path d="M 3.328125 72.90625 
L 13.28125 72.90625 
L 28.609375 11.28125 
L 43.890625 72.90625 
L 54.984375 72.90625 
L 70.3125 11.28125 
L 85.59375 72.90625 
L 95.609375 72.90625 
L 77.296875 0 
L 64.890625 0 
L 49.515625 63.28125 
L 33.984375 0 
L 21.578125 0 
z
" id="DejaVuSans-57"/>
      <path d="M 50.984375 -16.609375 
L 50.984375 -23.578125 
L -0.984375 -23.578125 
L -0.984375 -16.609375 
z
" id="DejaVuSans-5f"/>
      <path d="M 30.609375 48.390625 
Q 23.390625 48.390625 19.1875 42.75 
Q 14.984375 37.109375 14.984375 27.296875 
Q 14.984375 17.484375 19.15625 11.84375 
Q 23.34375 6.203125 30.609375 6.203125 
Q 37.796875 6.203125 41.984375 11.859375 
Q 46.1875 17.53125 46.1875 27.296875 
Q 46.1875 37.015625 41.984375 42.703125 
Q 37.796875 48.390625 30.609375 48.390625 
z
M 30.609375 56 
Q 42.328125 56 49.015625 48.375 
Q 55.71875 40.765625 55.71875 27.296875 
Q 55.71875 13.875 49.015625 6.21875 
Q 42.328125 -1.421875 30.609375 -1.421875 
Q 18.84375 -1.421875 12.171875 6.21875 
Q 5.515625 13.875 5.515625 27.296875 
Q 5.515625 40.765625 12.171875 48.375 
Q 18.84375 56 30.609375 56 
z
" id="DejaVuSans-6f"/>
      <path d="M 8.5 21.578125 
L 8.5 54.6875 
L 17.484375 54.6875 
L 17.484375 21.921875 
Q 17.484375 14.15625 20.5 10.265625 
Q 23.53125 6.390625 29.59375 6.390625 
Q 36.859375 6.390625 41.078125 11.03125 
Q 45.3125 15.671875 45.3125 23.6875 
L 45.3125 54.6875 
L 54.296875 54.6875 
L 54.296875 0 
L 45.3125 0 
L 45.3125 8.40625 
Q 42.046875 3.421875 37.71875 1 
Q 33.40625 -1.421875 27.6875 -1.421875 
Q 18.265625 -1.421875 13.375 4.4375 
Q 8.5 10.296875 8.5 21.578125 
z
M 31.109375 56 
z
" id="DejaVuSans-75"/>
      <path d="M 18.3125 70.21875 
L 18.3125 54.6875 
L 36.8125 54.6875 
L 36.8125 47.703125 
L 18.3125 47.703125 
L 18.3125 18.015625 
Q 18.3125 11.328125 20.140625 9.421875 
Q 21.96875 7.515625 27.59375 7.515625 
L 36.8125 7.515625 
L 36.8125 0 
L 27.59375 0 
Q 17.1875 0 13.234375 3.875 
Q 9.28125 7.765625 9.28125 18.015625 
L 9.28125 47.703125 
L 2.6875 47.703125 
L 2.6875 54.6875 
L 9.28125 54.6875 
L 9.28125 70.21875 
z
" id="DejaVuSans-74"/>
      <path d="M 31 75.875 
Q 24.46875 64.65625 21.28125 53.65625 
Q 18.109375 42.671875 18.109375 31.390625 
Q 18.109375 20.125 21.3125 9.0625 
Q 24.515625 -2 31 -13.1875 
L 23.1875 -13.1875 
Q 15.875 -1.703125 12.234375 9.375 
Q 8.59375 20.453125 8.59375 31.390625 
Q 8.59375 42.28125 12.203125 53.3125 
Q 15.828125 64.359375 23.1875 75.875 
z
" id="DejaVuSans-28"/>
      <path d="M 48.78125 52.59375 
L 48.78125 44.1875 
Q 44.96875 46.296875 41.140625 47.34375 
Q 37.3125 48.390625 33.40625 48.390625 
Q 24.65625 48.390625 19.8125 42.84375 
Q 14.984375 37.3125 14.984375 27.296875 
Q 14.984375 17.28125 19.8125 11.734375 
Q 24.65625 6.203125 33.40625 6.203125 
Q 37.3125 6.203125 41.140625 7.25 
Q 44.96875 8.296875 48.78125 10.40625 
L 48.78125 2.09375 
Q 45.015625 0.34375 40.984375 -0.53125 
Q 36.96875 -1.421875 32.421875 -1.421875 
Q 20.0625 -1.421875 12.78125 6.34375 
Q 5.515625 14.109375 5.515625 27.296875 
Q 5.515625 40.671875 12.859375 48.328125 
Q 20.21875 56 33.015625 56 
Q 37.15625 56 41.109375 55.140625 
Q 45.0625 54.296875 48.78125 52.59375 
z
" id="DejaVuSans-63"/>
      <path d="M 44.28125 53.078125 
L 44.28125 44.578125 
Q 40.484375 46.53125 36.375 47.5 
Q 32.28125 48.484375 27.875 48.484375 
Q 21.1875 48.484375 17.84375 46.4375 
Q 14.5 44.390625 14.5 40.28125 
Q 14.5 37.15625 16.890625 35.375 
Q 19.28125 33.59375 26.515625 31.984375 
L 29.59375 31.296875 
Q 39.15625 29.25 43.1875 25.515625 
Q 47.21875 21.78125 47.21875 15.09375 
Q 47.21875 7.46875 41.1875 3.015625 
Q 35.15625 -1.421875 24.609375 -1.421875 
Q 20.21875 -1.421875 15.453125 -0.5625 
Q 10.6875 0.296875 5.421875 2 
L 5.421875 11.28125 
Q 10.40625 8.6875 15.234375 7.390625 
Q 20.0625 6.109375 24.8125 6.109375 
Q 31.15625 6.109375 34.5625 8.28125 
Q 37.984375 10.453125 37.984375 14.40625 
Q 37.984375 18.0625 35.515625 20.015625 
Q 33.0625 21.96875 24.703125 23.78125 
L 21.578125 24.515625 
Q 13.234375 26.265625 9.515625 29.90625 
Q 5.8125 33.546875 5.8125 39.890625 
Q 5.8125 47.609375 11.28125 51.796875 
Q 16.75 56 26.8125 56 
Q 31.78125 56 36.171875 55.265625 
Q 40.578125 54.546875 44.28125 53.078125 
z
" id="DejaVuSans-73"/>
      <path d="M 37.203125 26.21875 
Q 37.203125 19.234375 40.671875 15.25 
Q 44.140625 11.28125 50.203125 11.28125 
Q 56.203125 11.28125 59.640625 15.28125 
Q 63.09375 19.28125 63.09375 26.21875 
Q 63.09375 33.0625 59.578125 37.078125 
Q 56.0625 41.109375 50.09375 41.109375 
Q 44.1875 41.109375 40.6875 37.109375 
Q 37.203125 33.109375 37.203125 26.21875 
z
M 63.8125 11.625 
Q 60.890625 7.859375 57.109375 6.078125 
Q 53.328125 4.296875 48.296875 4.296875 
Q 39.890625 4.296875 34.640625 10.375 
Q 29.390625 16.453125 29.390625 26.21875 
Q 29.390625 35.984375 34.65625 42.078125 
Q 39.9375 48.1875 48.296875 48.1875 
Q 53.328125 48.1875 57.125 46.359375 
Q 60.9375 44.53125 63.8125 40.828125 
L 63.8125 47.21875 
L 70.796875 47.21875 
L 70.796875 11.28125 
Q 77.9375 12.359375 81.953125 17.796875 
Q 85.984375 23.25 85.984375 31.890625 
Q 85.984375 37.109375 84.4375 41.703125 
Q 82.90625 46.296875 79.78125 50.203125 
Q 74.703125 56.59375 67.40625 59.984375 
Q 60.109375 63.375 51.515625 63.375 
Q 45.515625 63.375 39.984375 61.78125 
Q 34.46875 60.203125 29.78125 57.078125 
Q 22.125 52.09375 17.796875 44.015625 
Q 13.484375 35.9375 13.484375 26.515625 
Q 13.484375 18.75 16.28125 11.953125 
Q 19.09375 5.171875 24.421875 0 
Q 29.546875 -5.078125 36.28125 -7.734375 
Q 43.015625 -10.40625 50.6875 -10.40625 
Q 56.984375 -10.40625 63.0625 -8.28125 
Q 69.140625 -6.15625 74.21875 -2.203125 
L 78.609375 -7.625 
Q 72.515625 -12.359375 65.3125 -14.875 
Q 58.109375 -17.390625 50.6875 -17.390625 
Q 41.65625 -17.390625 33.640625 -14.1875 
Q 25.640625 -10.984375 19.390625 -4.890625 
Q 13.140625 1.21875 9.859375 9.25 
Q 6.59375 17.28125 6.59375 26.515625 
Q 6.59375 35.40625 9.90625 43.453125 
Q 13.234375 51.515625 19.390625 57.625 
Q 25.6875 63.8125 33.9375 67.109375 
Q 42.1875 70.40625 51.421875 70.40625 
Q 61.765625 70.40625 70.625 66.15625 
Q 79.5 61.921875 85.5 54.109375 
Q 89.15625 49.3125 91.078125 43.703125 
Q 93.015625 38.09375 93.015625 32.078125 
Q 93.015625 19.234375 85.25 11.8125 
Q 77.484375 4.390625 63.8125 4.109375 
z
" id="DejaVuSans-40"/>
      <path d="M 8.015625 75.875 
L 15.828125 75.875 
Q 23.140625 64.359375 26.78125 53.3125 
Q 30.421875 42.28125 30.421875 31.390625 
Q 30.421875 20.453125 26.78125 9.375 
Q 23.140625 -1.703125 15.828125 -13.1875 
L 8.015625 -13.1875 
Q 14.5 -2 17.703125 9.0625 
Q 20.90625 20.125 20.90625 31.390625 
Q 20.90625 42.671875 17.703125 53.65625 
Q 14.5 64.65625 8.015625 75.875 
z
" id="DejaVuSans-29"/>
     </defs>
     <g transform="translate(90.667187 284.596563)scale(0.1 -0.1)">
      <use xlink:href="#DejaVuSans-72"/>
      <use x="41.113281" xlink:href="#DejaVuSans-30"/>
      <use x="104.736328" xlink:href="#DejaVuSans-20"/>
      <use x="136.523438" xlink:href="#DejaVuSans-64"/>
      <use x="200" xlink:href="#DejaVuSans-46"/>
      <use x="257.519531" xlink:href="#DejaVuSans-64"/>
      <use x="320.996094" xlink:href="#DejaVuSans-68"/>
      <use x="384.375" xlink:href="#DejaVuSans-20"/>
      <use x="416.162109" xlink:href="#DejaVuSans-2e"/>
      <use x="447.949219" xlink:href="#DejaVuSans-20"/>
      <use x="479.736328" xlink:href="#DejaVuSans-57"/>
      <use x="578.613281" xlink:href="#DejaVuSans-5f"/>
      <use x="628.613281" xlink:href="#DejaVuSans-6f"/>
      <use x="689.794922" xlink:href="#DejaVuSans-75"/>
      <use x="753.173828" xlink:href="#DejaVuSans-74"/>
      <use x="792.382812" xlink:href="#DejaVuSans-28"/>
      <use x="831.396484" xlink:href="#DejaVuSans-63"/>
      <use x="886.376953" xlink:href="#DejaVuSans-6f"/>
      <use x="947.558594" xlink:href="#DejaVuSans-73"/>
      <use x="999.658203" xlink:href="#DejaVuSans-40"/>
      <use x="1099.658203" xlink:href="#DejaVuSans-29"/>
     </g>
    </g>
   </g>
   <g id="matplotlib.axis_2">
    <g id="ytick_1">
     <g id="line2d_6">
      <defs>
       <path d="M 0 0 
L -3.5 0 
" id="m1acd8a7e40" style="stroke:#000000;stroke-width:0.8;"/>
      </defs>
      <g>
       <use style="stroke:#000000;stroke-width:0.8;" x="36" xlink:href="#m1acd8a7e40" y="235.244175"/>
      </g>
     </g>
     <g id="text_7">
      <!-- −0.01 -->
      <g transform="translate(-1.645313 239.043394)scale(0.1 -0.1)">
       <use xlink:href="#DejaVuSans-2212"/>
       <use x="83.789062" xlink:href="#DejaVuSans-30"/>
       <use x="147.412109" xlink:href="#DejaVuSans-2e"/>
       <use x="179.199219" xlink:href="#DejaVuSans-30"/>
       <use x="242.822266" xlink:href="#DejaVuSans-31"/>
      </g>
     </g>
    </g>
    <g id="ytick_2">
     <g id="line2d_7">
      <g>
       <use style="stroke:#000000;stroke-width:0.8;" x="36" xlink:href="#m1acd8a7e40" y="196.905352"/>
      </g>
     </g>
     <g id="text_8">
      <!-- 0.00 -->
      <g transform="translate(6.734375 200.704571)scale(0.1 -0.1)">
       <use xlink:href="#DejaVuSans-30"/>
       <use x="63.623047" xlink:href="#DejaVuSans-2e"/>
       <use x="95.410156" xlink:href="#DejaVuSans-30"/>
       <use x="159.033203" xlink:href="#DejaVuSans-30"/>
      </g>
     </g>
    </g>
    <g id="ytick_3">
     <g id="line2d_8">
      <g>
       <use style="stroke:#000000;stroke-width:0.8;" x="36" xlink:href="#m1acd8a7e40" y="158.566529"/>
      </g>
     </g>
     <g id="text_9">
      <!-- 0.01 -->
      <g transform="translate(6.734375 162.365748)scale(0.1 -0.1)">
       <use xlink:href="#DejaVuSans-30"/>
       <use x="63.623047" xlink:href="#DejaVuSans-2e"/>
       <use x="95.410156" xlink:href="#DejaVuSans-30"/>
       <use x="159.033203" xlink:href="#DejaVuSans-31"/>
      </g>
     </g>
    </g>
    <g id="ytick_4">
     <g id="line2d_9">
      <g>
       <use style="stroke:#000000;stroke-width:0.8;" x="36" xlink:href="#m1acd8a7e40" y="120.227707"/>
      </g>
     </g>
     <g id="text_10">
      <!-- 0.02 -->
      <g transform="translate(6.734375 124.026925)scale(0.1 -0.1)">
       <use xlink:href="#DejaVuSans-30"/>
       <use x="63.623047" xlink:href="#DejaVuSans-2e"/>
       <use x="95.410156" xlink:href="#DejaVuSans-30"/>
       <use x="159.033203" xlink:href="#DejaVuSans-32"/>
      </g>
     </g>
    </g>
    <g id="ytick_5">
     <g id="line2d_10">
      <g>
       <use style="stroke:#000000;stroke-width:0.8;" x="36" xlink:href="#m1acd8a7e40" y="81.888884"/>
      </g>
     </g>
     <g id="text_11">
      <!-- 0.03 -->
      <g transform="translate(6.734375 85.688102)scale(0.1 -0.1)">
       <use xlink:href="#DejaVuSans-30"/>
       <use x="63.623047" xlink:href="#DejaVuSans-2e"/>
       <use x="95.410156" xlink:href="#DejaVuSans-30"/>
       <use x="159.033203" xlink:href="#DejaVuSans-33"/>
      </g>
     </g>
    </g>
    <g id="ytick_6">
     <g id="line2d_11">
      <g>
       <use style="stroke:#000000;stroke-width:0.8;" x="36" xlink:href="#m1acd8a7e40" y="43.550061"/>
      </g>
     </g>
     <g id="text_12">
      <!-- 0.04 -->
      <g transform="translate(6.734375 47.349279)scale(0.1 -0.1)">
       <use xlink:href="#DejaVuSans-30"/>
       <use x="63.623047" xlink:href="#DejaVuSans-2e"/>
       <use x="95.410156" xlink:href="#DejaVuSans-30"/>
       <use x="159.033203" xlink:href="#DejaVuSans-34"/>
      </g>
     </g>
    </g>
    <g id="text_13">
     <!-- l0 dFdh . dfdx(cos@) -->
     <defs>
      <path d="M 9.421875 75.984375 
L 18.40625 75.984375 
L 18.40625 0 
L 9.421875 0 
z
" id="DejaVuSans-6c"/>
      <path d="M 37.109375 75.984375 
L 37.109375 68.5 
L 28.515625 68.5 
Q 23.6875 68.5 21.796875 66.546875 
Q 19.921875 64.59375 19.921875 59.515625 
L 19.921875 54.6875 
L 34.71875 54.6875 
L 34.71875 47.703125 
L 19.921875 47.703125 
L 19.921875 0 
L 10.890625 0 
L 10.890625 47.703125 
L 2.296875 47.703125 
L 2.296875 54.6875 
L 10.890625 54.6875 
L 10.890625 58.5 
Q 10.890625 67.625 15.140625 71.796875 
Q 19.390625 75.984375 28.609375 75.984375 
z
" id="DejaVuSans-66"/>
      <path d="M 54.890625 54.6875 
L 35.109375 28.078125 
L 55.90625 0 
L 45.3125 0 
L 29.390625 21.484375 
L 13.484375 0 
L 2.875 0 
L 24.125 28.609375 
L 4.6875 54.6875 
L 15.28125 54.6875 
L 29.78125 35.203125 
L 44.28125 54.6875 
z
" id="DejaVuSans-78"/>
     </defs>
     <g transform="translate(-7.725 197.142344)rotate(-90)scale(0.1 -0.1)">
      <use xlink:href="#DejaVuSans-6c"/>
      <use x="27.783203" xlink:href="#DejaVuSans-30"/>
      <use x="91.40625" xlink:href="#DejaVuSans-20"/>
      <use x="123.193359" xlink:href="#DejaVuSans-64"/>
      <use x="186.669922" xlink:href="#DejaVuSans-46"/>
      <use x="244.189453" xlink:href="#DejaVuSans-64"/>
      <use x="307.666016" xlink:href="#DejaVuSans-68"/>
      <use x="371.044922" xlink:href="#DejaVuSans-20"/>
      <use x="402.832031" xlink:href="#DejaVuSans-2e"/>
      <use x="434.619141" xlink:href="#DejaVuSans-20"/>
      <use x="466.40625" xlink:href="#DejaVuSans-64"/>
      <use x="529.882812" xlink:href="#DejaVuSans-66"/>
      <use x="565.087891" xlink:href="#DejaVuSans-64"/>
      <use x="628.564453" xlink:href="#DejaVuSans-78"/>
      <use x="687.744141" xlink:href="#DejaVuSans-28"/>
      <use x="726.757812" xlink:href="#DejaVuSans-63"/>
      <use x="781.738281" xlink:href="#DejaVuSans-6f"/>
      <use x="842.919922" xlink:href="#DejaVuSans-73"/>
      <use x="895.019531" xlink:href="#DejaVuSans-40"/>
      <use x="995.019531" xlink:href="#DejaVuSans-29"/>
     </g>
    </g>
   </g>
   <g id="patch_3">
    <path d="M 36 256.32 
L 36 34.56 
" style="fill:none;stroke:#000000;stroke-linecap:square;stroke-linejoin:miter;stroke-width:0.8;"/>
   </g>
   <g id="patch_4">
    <path d="M 259.2 256.32 
L 259.2 34.56 
" style="fill:none;stroke:#000000;stroke-linecap:square;stroke-linejoin:miter;stroke-width:0.8;"/>
   </g>
   <g id="patch_5">
    <path d="M 36 256.32 
L 259.2 256.32 
" style="fill:none;stroke:#000000;stroke-linecap:square;stroke-linejoin:miter;stroke-width:0.8;"/>
   </g>
   <g id="patch_6">
    <path d="M 36 34.56 
L 259.2 34.56 
" style="fill:none;stroke:#000000;stroke-linecap:square;stroke-linejoin:miter;stroke-width:0.8;"/>
   </g>
   <g id="text_14">
    <!-- delaydm1 -->
    <defs>
     <path d="M 56.203125 29.59375 
L 56.203125 25.203125 
L 14.890625 25.203125 
Q 15.484375 15.921875 20.484375 11.0625 
Q 25.484375 6.203125 34.421875 6.203125 
Q 39.59375 6.203125 44.453125 7.46875 
Q 49.3125 8.734375 54.109375 11.28125 
L 54.109375 2.78125 
Q 49.265625 0.734375 44.1875 -0.34375 
Q 39.109375 -1.421875 33.890625 -1.421875 
Q 20.796875 -1.421875 13.15625 6.1875 
Q 5.515625 13.8125 5.515625 26.8125 
Q 5.515625 40.234375 12.765625 48.109375 
Q 20.015625 56 32.328125 56 
Q 43.359375 56 49.78125 48.890625 
Q 56.203125 41.796875 56.203125 29.59375 
z
M 47.21875 32.234375 
Q 47.125 39.59375 43.09375 43.984375 
Q 39.0625 48.390625 32.421875 48.390625 
Q 24.90625 48.390625 20.390625 44.140625 
Q 15.875 39.890625 15.1875 32.171875 
z
" id="DejaVuSans-65"/>
     <path d="M 34.28125 27.484375 
Q 23.390625 27.484375 19.1875 25 
Q 14.984375 22.515625 14.984375 16.5 
Q 14.984375 11.71875 18.140625 8.90625 
Q 21.296875 6.109375 26.703125 6.109375 
Q 34.1875 6.109375 38.703125 11.40625 
Q 43.21875 16.703125 43.21875 25.484375 
L 43.21875 27.484375 
z
M 52.203125 31.203125 
L 52.203125 0 
L 43.21875 0 
L 43.21875 8.296875 
Q 40.140625 3.328125 35.546875 0.953125 
Q 30.953125 -1.421875 24.3125 -1.421875 
Q 15.921875 -1.421875 10.953125 3.296875 
Q 6 8.015625 6 15.921875 
Q 6 25.140625 12.171875 29.828125 
Q 18.359375 34.515625 30.609375 34.515625 
L 43.21875 34.515625 
L 43.21875 35.40625 
Q 43.21875 41.609375 39.140625 45 
Q 35.0625 48.390625 27.6875 48.390625 
Q 23 48.390625 18.546875 47.265625 
Q 14.109375 46.140625 10.015625 43.890625 
L 10.015625 52.203125 
Q 14.9375 54.109375 19.578125 55.046875 
Q 24.21875 56 28.609375 56 
Q 40.484375 56 46.34375 49.84375 
Q 52.203125 43.703125 52.203125 31.203125 
z
" id="DejaVuSans-61"/>
     <path d="M 32.171875 -5.078125 
Q 28.375 -14.84375 24.75 -17.8125 
Q 21.140625 -20.796875 15.09375 -20.796875 
L 7.90625 -20.796875 
L 7.90625 -13.28125 
L 13.1875 -13.28125 
Q 16.890625 -13.28125 18.9375 -11.515625 
Q 21 -9.765625 23.484375 -3.21875 
L 25.09375 0.875 
L 2.984375 54.6875 
L 12.5 54.6875 
L 29.59375 11.921875 
L 46.6875 54.6875 
L 56.203125 54.6875 
z
" id="DejaVuSans-79"/>
     <path d="M 52 44.1875 
Q 55.375 50.25 60.0625 53.125 
Q 64.75 56 71.09375 56 
Q 79.640625 56 84.28125 50.015625 
Q 88.921875 44.046875 88.921875 33.015625 
L 88.921875 0 
L 79.890625 0 
L 79.890625 32.71875 
Q 79.890625 40.578125 77.09375 44.375 
Q 74.3125 48.1875 68.609375 48.1875 
Q 61.625 48.1875 57.5625 43.546875 
Q 53.515625 38.921875 53.515625 30.90625 
L 53.515625 0 
L 44.484375 0 
L 44.484375 32.71875 
Q 44.484375 40.625 41.703125 44.40625 
Q 38.921875 48.1875 33.109375 48.1875 
Q 26.21875 48.1875 22.15625 43.53125 
Q 18.109375 38.875 18.109375 30.90625 
L 18.109375 0 
L 9.078125 0 
L 9.078125 54.6875 
L 18.109375 54.6875 
L 18.109375 46.1875 
Q 21.1875 51.21875 25.484375 53.609375 
Q 29.78125 56 35.6875 56 
Q 41.65625 56 45.828125 52.96875 
Q 50 49.953125 52 44.1875 
z
" id="DejaVuSans-6d"/>
    </defs>
    <g transform="translate(117.733125 28.56)scale(0.12 -0.12)">
     <use xlink:href="#DejaVuSans-64"/>
     <use x="63.476562" xlink:href="#DejaVuSans-65"/>
     <use x="125" xlink:href="#DejaVuSans-6c"/>
     <use x="152.783203" xlink:href="#DejaVuSans-61"/>
     <use x="214.0625" xlink:href="#DejaVuSans-79"/>
     <use x="273.242188" xlink:href="#DejaVuSans-64"/>
     <use x="336.71875" xlink:href="#DejaVuSans-6d"/>
     <use x="434.130859" xlink:href="#DejaVuSans-31"/>
    </g>
   </g>
   <g id="legend_1">
    <g id="patch_7">
     <path d="M 191.629687 71.91625 
L 252.2 71.91625 
Q 254.2 71.91625 254.2 69.91625 
L 254.2 41.56 
Q 254.2 39.56 252.2 39.56 
L 191.629687 39.56 
Q 189.629687 39.56 189.629687 41.56 
L 189.629687 69.91625 
Q 189.629687 71.91625 191.629687 71.91625 
z
" style="fill:#ffffff;opacity:0.8;stroke:#cccccc;stroke-linejoin:miter;"/>
    </g>
    <g id="PathCollection_3">
     <defs>
      <path d="M 0 5.149454 
C 1.365651 5.149454 2.675552 4.606875 3.641214 3.641214 
C 4.606875 2.675552 5.149454 1.365651 5.149454 0 
C 5.149454 -1.365651 4.606875 -2.675552 3.641214 -3.641214 
C 2.675552 -4.606875 1.365651 -5.149454 0 -5.149454 
C -1.365651 -5.149454 -2.675552 -4.606875 -3.641214 -3.641214 
C -4.606875 -2.675552 -5.149454 -1.365651 -5.149454 0 
C -5.149454 1.365651 -4.606875 2.675552 -3.641214 3.641214 
C -2.675552 4.606875 -1.365651 5.149454 0 5.149454 
z
" id="mb4836ef10d" style="stroke:#008000;stroke-opacity:0.5;"/>
     </defs>
     <g>
      <use style="fill:#008000;fill-opacity:0.5;stroke:#008000;stroke-opacity:0.5;" x="203.629687" xlink:href="#mb4836ef10d" y="48.533437"/>
     </g>
    </g>
    <g id="text_15">
     <!-- mod1 -->
     <g transform="translate(221.629687 51.158437)scale(0.1 -0.1)">
      <use xlink:href="#DejaVuSans-6d"/>
      <use x="97.412109" xlink:href="#DejaVuSans-6f"/>
      <use x="158.59375" xlink:href="#DejaVuSans-64"/>
      <use x="222.070312" xlink:href="#DejaVuSans-31"/>
     </g>
    </g>
    <g id="PathCollection_4">
     <defs>
      <path d="M 0 5.149454 
C 1.365651 5.149454 2.675552 4.606875 3.641214 3.641214 
C 4.606875 2.675552 5.149454 1.365651 5.149454 0 
C 5.149454 -1.365651 4.606875 -2.675552 3.641214 -3.641214 
C 2.675552 -4.606875 1.365651 -5.149454 0 -5.149454 
C -1.365651 -5.149454 -2.675552 -4.606875 -3.641214 -3.641214 
C -4.606875 -2.675552 -5.149454 -1.365651 -5.149454 0 
C -5.149454 1.365651 -4.606875 2.675552 -3.641214 3.641214 
C -2.675552 4.606875 -1.365651 5.149454 0 5.149454 
z
" id="m103a77a692" style="stroke:#000000;stroke-opacity:0.5;"/>
     </defs>
     <g>
      <use style="fill-opacity:0.5;stroke:#000000;stroke-opacity:0.5;" x="203.629687" xlink:href="#m103a77a692" y="63.211562"/>
     </g>
    </g>
    <g id="text_16">
     <!-- mod2 -->
     <g transform="translate(221.629687 65.836562)scale(0.1 -0.1)">
      <use xlink:href="#DejaVuSans-6d"/>
      <use x="97.412109" xlink:href="#DejaVuSans-6f"/>
      <use x="158.59375" xlink:href="#DejaVuSans-64"/>
      <use x="222.070312" xlink:href="#DejaVuSans-32"/>
     </g>
    </g>
   </g>
  </g>
 </g>
 <defs>
  <clipPath id="p876829ff6a">
   <rect height="221.76" width="223.2" x="36" y="34.56"/>
  </clipPath>
 </defs>
</svg>
