<?xml version="1.0" encoding="utf-8" standalone="no"?>
<!DOCTYPE svg PUBLIC "-//W3C//DTD SVG 1.1//EN"
  "http://www.w3.org/Graphics/SVG/1.1/DTD/svg11.dtd">
<!-- Created with matplotlib (http://matplotlib.org/) -->
<svg height="288pt" version="1.1" viewBox="0 0 288 288" width="288pt" xmlns="http://www.w3.org/2000/svg" xmlns:xlink="http://www.w3.org/1999/xlink">
 <defs>
  <style type="text/css">
*{stroke-linecap:butt;stroke-linejoin:round;}
  </style>
 </defs>
 <g id="figure_1">
  <g id="patch_1">
   <path d="M 0 288 
L 288 288 
L 288 0 
L 0 0 
z
" style="fill:#ffffff;"/>
  </g>
  <g id="axes_1">
   <g id="patch_2">
    <path d="M 36 256.32 
L 259.2 256.32 
L 259.2 34.56 
L 36 34.56 
z
" style="fill:#ffffff;"/>
   </g>
   <g id="PathCollection_1">
    <path clip-path="url(#pfb22df24de)" d="M 178.907436 183.393306 
C 180.245859 183.393306 181.529643 182.861545 182.476051 181.915137 
C 183.422459 180.968729 183.95422 179.684945 183.95422 178.346522 
C 183.95422 177.008099 183.422459 175.724314 182.476051 174.777906 
C 181.529643 173.831498 180.245859 173.299737 178.907436 173.299737 
C 177.569013 173.299737 176.285228 173.831498 175.33882 174.777906 
C 174.392412 175.724314 173.860651 177.008099 173.860651 178.346522 
C 173.860651 179.684945 174.392412 180.968729 175.33882 181.915137 
C 176.285228 182.861545 177.569013 183.393306 178.907436 183.393306 
z
" style="fill:#008000;fill-opacity:0.5;stroke:#008000;stroke-opacity:0.5;"/>
    <path clip-path="url(#pfb22df24de)" d="M 90.142692 193.90421 
C 91.428273 193.90421 92.661374 193.393443 93.570418 192.484399 
C 94.479462 191.575356 94.990229 190.342255 94.990229 189.056673 
C 94.990229 187.771091 94.479462 186.53799 93.570418 185.628947 
C 92.661374 184.719903 91.428273 184.209136 90.142692 184.209136 
C 88.85711 184.209136 87.624009 184.719903 86.714965 185.628947 
C 85.805922 186.53799 85.295155 187.771091 85.295155 189.056673 
C 85.295155 190.342255 85.805922 191.575356 86.714965 192.484399 
C 87.624009 193.393443 88.85711 193.90421 90.142692 193.90421 
z
" style="fill:#008000;fill-opacity:0.5;stroke:#008000;stroke-opacity:0.5;"/>
    <path clip-path="url(#pfb22df24de)" d="M 134.614336 75.924458 
C 135.677644 75.924458 136.697545 75.502001 137.449418 74.750129 
C 138.20129 73.998256 138.623747 72.978355 138.623747 71.915047 
C 138.623747 70.851739 138.20129 69.831838 137.449418 69.079966 
C 136.697545 68.328094 135.677644 67.905637 134.614336 67.905637 
C 133.551028 67.905637 132.531127 68.328094 131.779255 69.079966 
C 131.027383 69.831838 130.604926 70.851739 130.604926 71.915047 
C 130.604926 72.978355 131.027383 73.998256 131.779255 74.750129 
C 132.531127 75.502001 133.551028 75.924458 134.614336 75.924458 
z
" style="fill:#008000;fill-opacity:0.5;stroke:#008000;stroke-opacity:0.5;"/>
    <path clip-path="url(#pfb22df24de)" d="M 182.390985 128.449563 
C 183.779139 128.449563 185.110624 127.898044 186.092196 126.916471 
C 187.073769 125.934898 187.625288 124.603413 187.625288 123.21526 
C 187.625288 121.827107 187.073769 120.495622 186.092196 119.514049 
C 185.110624 118.532477 183.779139 117.980958 182.390985 117.980958 
C 181.002832 117.980958 179.671347 118.532477 178.689775 119.514049 
C 177.708202 120.495622 177.156683 121.827107 177.156683 123.21526 
C 177.156683 124.603413 177.708202 125.934898 178.689775 126.916471 
C 179.671347 127.898044 181.002832 128.449563 182.390985 128.449563 
z
" style="fill:#008000;fill-opacity:0.5;stroke:#008000;stroke-opacity:0.5;"/>
    <path clip-path="url(#pfb22df24de)" d="M 205.779088 187.711141 
C 207.072863 187.711141 208.313823 187.197119 209.22866 186.282282 
C 210.143497 185.367445 210.65752 184.126485 210.65752 182.83271 
C 210.65752 181.538934 210.143497 180.297975 209.22866 179.383137 
C 208.313823 178.4683 207.072863 177.954278 205.779088 177.954278 
C 204.485313 177.954278 203.244353 178.4683 202.329516 179.383137 
C 201.414679 180.297975 200.900656 181.538934 200.900656 182.83271 
C 200.900656 184.126485 201.414679 185.367445 202.329516 186.282282 
C 203.244353 187.197119 204.485313 187.711141 205.779088 187.711141 
z
" style="fill:#008000;fill-opacity:0.5;stroke:#008000;stroke-opacity:0.5;"/>
    <path clip-path="url(#pfb22df24de)" d="M 174.024427 219.090861 
C 175.091838 219.090861 176.115675 218.666774 176.870449 217.912 
C 177.625223 217.157226 178.04931 216.13339 178.04931 215.065978 
C 178.04931 213.998567 177.625223 212.97473 176.870449 212.219956 
C 176.115675 211.465182 175.091838 211.041095 174.024427 211.041095 
C 172.957015 211.041095 171.933178 211.465182 171.178404 212.219956 
C 170.423631 212.97473 169.999543 213.998567 169.999543 215.065978 
C 169.999543 216.13339 170.423631 217.157226 171.178404 217.912 
C 171.933178 218.666774 172.957015 219.090861 174.024427 219.090861 
z
" style="fill:#008000;fill-opacity:0.5;stroke:#008000;stroke-opacity:0.5;"/>
    <path clip-path="url(#pfb22df24de)" d="M 123.388031 120.114588 
C 124.767852 120.114588 126.091344 119.56638 127.067024 118.5907 
C 128.042705 117.615019 128.590913 116.291527 128.590913 114.911707 
C 128.590913 113.531886 128.042705 112.208394 127.067024 111.232714 
C 126.091344 110.257033 124.767852 109.708825 123.388031 109.708825 
C 122.008211 109.708825 120.684719 110.257033 119.709038 111.232714 
C 118.733358 112.208394 118.18515 113.531886 118.18515 114.911707 
C 118.18515 116.291527 118.733358 117.615019 119.709038 118.5907 
C 120.684719 119.56638 122.008211 120.114588 123.388031 120.114588 
z
" style="fill:#008000;fill-opacity:0.5;stroke:#008000;stroke-opacity:0.5;"/>
    <path clip-path="url(#pfb22df24de)" d="M 231.06218 207.889662 
C 232.361515 207.889662 233.607808 207.373431 234.526577 206.454662 
C 235.445346 205.535893 235.961578 204.2896 235.961578 202.990265 
C 235.961578 201.690929 235.445346 200.444636 234.526577 199.525867 
C 233.607808 198.607098 232.361515 198.090867 231.06218 198.090867 
C 229.762844 198.090867 228.516551 198.607098 227.597783 199.525867 
C 226.679014 200.444636 226.162782 201.690929 226.162782 202.990265 
C 226.162782 204.2896 226.679014 205.535893 227.597783 206.454662 
C 228.516551 207.373431 229.762844 207.889662 231.06218 207.889662 
z
" style="fill:#008000;fill-opacity:0.5;stroke:#008000;stroke-opacity:0.5;"/>
    <path clip-path="url(#pfb22df24de)" d="M 173.934427 210.616344 
C 175.021398 210.616344 176.063995 210.184486 176.8326 209.415882 
C 177.601204 208.647277 178.033062 207.60468 178.033062 206.517709 
C 178.033062 205.430738 177.601204 204.38814 176.8326 203.619536 
C 176.063995 202.850931 175.021398 202.419073 173.934427 202.419073 
C 172.847456 202.419073 171.804858 202.850931 171.036254 203.619536 
C 170.267649 204.38814 169.835791 205.430738 169.835791 206.517709 
C 169.835791 207.60468 170.267649 208.647277 171.036254 209.415882 
C 171.804858 210.184486 172.847456 210.616344 173.934427 210.616344 
z
" style="fill:#008000;fill-opacity:0.5;stroke:#008000;stroke-opacity:0.5;"/>
    <path clip-path="url(#pfb22df24de)" d="M 128.900979 107.166984 
C 130.300265 107.166984 131.642429 106.611042 132.631874 105.621597 
C 133.621319 104.632152 134.177261 103.289989 134.177261 101.890702 
C 134.177261 100.491416 133.621319 99.149253 132.631874 98.159808 
C 131.642429 97.170363 130.300265 96.614421 128.900979 96.614421 
C 127.501693 96.614421 126.159529 97.170363 125.170084 98.159808 
C 124.18064 99.149253 123.624697 100.491416 123.624697 101.890702 
C 123.624697 103.289989 124.18064 104.632152 125.170084 105.621597 
C 126.159529 106.611042 127.501693 107.166984 128.900979 107.166984 
z
" style="fill:#008000;fill-opacity:0.5;stroke:#008000;stroke-opacity:0.5;"/>
    <path clip-path="url(#pfb22df24de)" d="M 63.484102 217.710644 
C 64.787978 217.710644 66.038625 217.192609 66.960605 216.27063 
C 67.882584 215.348651 68.400619 214.098003 68.400619 212.794128 
C 68.400619 211.490252 67.882584 210.239604 66.960605 209.317625 
C 66.038625 208.395646 64.787978 207.877611 63.484102 207.877611 
C 62.180227 207.877611 60.929579 208.395646 60.0076 209.317625 
C 59.085621 210.239604 58.567586 211.490252 58.567586 212.794128 
C 58.567586 214.098003 59.085621 215.348651 60.0076 216.27063 
C 60.929579 217.192609 62.180227 217.710644 63.484102 217.710644 
z
" style="fill:#008000;fill-opacity:0.5;stroke:#008000;stroke-opacity:0.5;"/>
    <path clip-path="url(#pfb22df24de)" d="M 122.365781 149.696483 
C 123.452604 149.696483 124.495061 149.264684 125.263561 148.496184 
C 126.032061 147.727683 126.46386 146.685227 126.46386 145.598404 
C 126.46386 144.51158 126.032061 143.469124 125.263561 142.700624 
C 124.495061 141.932123 123.452604 141.500324 122.365781 141.500324 
C 121.278957 141.500324 120.236501 141.932123 119.468001 142.700624 
C 118.699501 143.469124 118.267701 144.51158 118.267701 145.598404 
C 118.267701 146.685227 118.699501 147.727683 119.468001 148.496184 
C 120.236501 149.264684 121.278957 149.696483 122.365781 149.696483 
z
" style="fill:#008000;fill-opacity:0.5;stroke:#008000;stroke-opacity:0.5;"/>
    <path clip-path="url(#pfb22df24de)" d="M 117.108274 105.194362 
C 118.535497 105.194362 119.904457 104.62732 120.913657 103.618121 
C 121.922856 102.608921 122.489898 101.239961 122.489898 99.812738 
C 122.489898 98.385514 121.922856 97.016554 120.913657 96.007355 
C 119.904457 94.998156 118.535497 94.431114 117.108274 94.431114 
C 115.68105 94.431114 114.31209 94.998156 113.302891 96.007355 
C 112.293692 97.016554 111.72665 98.385514 111.72665 99.812738 
C 111.72665 101.239961 112.293692 102.608921 113.302891 103.618121 
C 114.31209 104.62732 115.68105 105.194362 117.108274 105.194362 
z
" style="fill:#008000;fill-opacity:0.5;stroke:#008000;stroke-opacity:0.5;"/>
    <path clip-path="url(#pfb22df24de)" d="M 49.671864 204.766219 
C 50.988715 204.766219 52.251808 204.243028 53.182962 203.311874 
C 54.114116 202.38072 54.637307 201.117627 54.637307 199.800776 
C 54.637307 198.483925 54.114116 197.220832 53.182962 196.289678 
C 52.251808 195.358524 50.988715 194.835333 49.671864 194.835333 
C 48.355013 194.835333 47.09192 195.358524 46.160766 196.289678 
C 45.229612 197.220832 44.706421 198.483925 44.706421 199.800776 
C 44.706421 201.117627 45.229612 202.38072 46.160766 203.311874 
C 47.09192 204.243028 48.355013 204.766219 49.671864 204.766219 
z
" style="fill:#008000;fill-opacity:0.5;stroke:#008000;stroke-opacity:0.5;"/>
    <path clip-path="url(#pfb22df24de)" d="M 121.420609 117.099389 
C 122.837743 117.099389 124.197027 116.536356 125.199092 115.53429 
C 126.201158 114.532225 126.764191 113.172941 126.764191 111.755807 
C 126.764191 110.338672 126.201158 108.979389 125.199092 107.977323 
C 124.197027 106.975258 122.837743 106.412224 121.420609 106.412224 
C 120.003474 106.412224 118.644191 106.975258 117.642125 107.977323 
C 116.64006 108.979389 116.077026 110.338672 116.077026 111.755807 
C 116.077026 113.172941 116.64006 114.532225 117.642125 115.53429 
C 118.644191 116.536356 120.003474 117.099389 121.420609 117.099389 
z
" style="fill:#008000;fill-opacity:0.5;stroke:#008000;stroke-opacity:0.5;"/>
    <path clip-path="url(#pfb22df24de)" d="M 245.538373 213.999086 
C 246.851401 213.999086 248.110828 213.477415 249.039279 212.548964 
C 249.96773 211.620512 250.489401 210.361086 250.489401 209.048058 
C 250.489401 207.735029 249.96773 206.475603 249.039279 205.547152 
C 248.110828 204.6187 246.851401 204.097029 245.538373 204.097029 
C 244.225344 204.097029 242.965918 204.6187 242.037467 205.547152 
C 241.109015 206.475603 240.587344 207.735029 240.587344 209.048058 
C 240.587344 210.361086 241.109015 211.620512 242.037467 212.548964 
C 242.965918 213.477415 244.225344 213.999086 245.538373 213.999086 
z
" style="fill:#008000;fill-opacity:0.5;stroke:#008000;stroke-opacity:0.5;"/>
    <path clip-path="url(#pfb22df24de)" d="M 128.228878 145.521877 
C 129.638731 145.521877 130.991029 144.961737 131.987945 143.964821 
C 132.984861 142.967904 133.545002 141.615606 133.545002 140.205754 
C 133.545002 138.795901 132.984861 137.443603 131.987945 136.446687 
C 130.991029 135.44977 129.638731 134.88963 128.228878 134.88963 
C 126.819026 134.88963 125.466727 135.44977 124.469811 136.446687 
C 123.472895 137.443603 122.912755 138.795901 122.912755 140.205754 
C 122.912755 141.615606 123.472895 142.967904 124.469811 143.964821 
C 125.466727 144.961737 126.819026 145.521877 128.228878 145.521877 
z
" style="fill:#008000;fill-opacity:0.5;stroke:#008000;stroke-opacity:0.5;"/>
    <path clip-path="url(#pfb22df24de)" d="M 62.604556 212.552397 
C 63.909452 212.552397 65.161078 212.033956 66.083778 211.111256 
C 67.006479 210.188555 67.524919 208.936929 67.524919 207.632034 
C 67.524919 206.327138 67.006479 205.075512 66.083778 204.152812 
C 65.161078 203.230111 63.909452 202.711671 62.604556 202.711671 
C 61.299661 202.711671 60.048034 203.230111 59.125334 204.152812 
C 58.202634 205.075512 57.684193 206.327138 57.684193 207.632034 
C 57.684193 208.936929 58.202634 210.188555 59.125334 211.111256 
C 60.048034 212.033956 61.299661 212.552397 62.604556 212.552397 
z
" style="fill:#008000;fill-opacity:0.5;stroke:#008000;stroke-opacity:0.5;"/>
   </g>
   <g id="PathCollection_2">
    <path clip-path="url(#pfb22df24de)" d="M 178.907436 147.326468 
C 180.245859 147.326468 181.529643 146.794707 182.476051 145.848299 
C 183.422459 144.901891 183.95422 143.618106 183.95422 142.279683 
C 183.95422 140.94126 183.422459 139.657475 182.476051 138.711067 
C 181.529643 137.764659 180.245859 137.232898 178.907436 137.232898 
C 177.569013 137.232898 176.285228 137.764659 175.33882 138.711067 
C 174.392412 139.657475 173.860651 140.94126 173.860651 142.279683 
C 173.860651 143.618106 174.392412 144.901891 175.33882 145.848299 
C 176.285228 146.794707 177.569013 147.326468 178.907436 147.326468 
z
" style="fill-opacity:0.5;stroke:#000000;stroke-opacity:0.5;"/>
    <path clip-path="url(#pfb22df24de)" d="M 90.142692 200.2955 
C 91.428273 200.2955 92.661374 199.784733 93.570418 198.875689 
C 94.479462 197.966646 94.990229 196.733545 94.990229 195.447963 
C 94.990229 194.162381 94.479462 192.92928 93.570418 192.020237 
C 92.661374 191.111193 91.428273 190.600426 90.142692 190.600426 
C 88.85711 190.600426 87.624009 191.111193 86.714965 192.020237 
C 85.805922 192.92928 85.295155 194.162381 85.295155 195.447963 
C 85.295155 196.733545 85.805922 197.966646 86.714965 198.875689 
C 87.624009 199.784733 88.85711 200.2955 90.142692 200.2955 
z
" style="fill-opacity:0.5;stroke:#000000;stroke-opacity:0.5;"/>
    <path clip-path="url(#pfb22df24de)" d="M 134.614336 111.777377 
C 135.677644 111.777377 136.697545 111.354921 137.449418 110.603048 
C 138.20129 109.851176 138.623747 108.831275 138.623747 107.767967 
C 138.623747 106.704659 138.20129 105.684758 137.449418 104.932886 
C 136.697545 104.181013 135.677644 103.758557 134.614336 103.758557 
C 133.551028 103.758557 132.531127 104.181013 131.779255 104.932886 
C 131.027383 105.684758 130.604926 106.704659 130.604926 107.767967 
C 130.604926 108.831275 131.027383 109.851176 131.779255 110.603048 
C 132.531127 111.354921 133.551028 111.777377 134.614336 111.777377 
z
" style="fill-opacity:0.5;stroke:#000000;stroke-opacity:0.5;"/>
    <path clip-path="url(#pfb22df24de)" d="M 182.390985 101.369216 
C 183.779139 101.369216 185.110624 100.817697 186.092196 99.836124 
C 187.073769 98.854552 187.625288 97.523067 187.625288 96.134913 
C 187.625288 94.74676 187.073769 93.415275 186.092196 92.433703 
C 185.110624 91.45213 183.779139 90.900611 182.390985 90.900611 
C 181.002832 90.900611 179.671347 91.45213 178.689775 92.433703 
C 177.708202 93.415275 177.156683 94.74676 177.156683 96.134913 
C 177.156683 97.523067 177.708202 98.854552 178.689775 99.836124 
C 179.671347 100.817697 181.002832 101.369216 182.390985 101.369216 
z
" style="fill-opacity:0.5;stroke:#000000;stroke-opacity:0.5;"/>
    <path clip-path="url(#pfb22df24de)" d="M 205.779088 196.350388 
C 207.072863 196.350388 208.313823 195.836366 209.22866 194.921529 
C 210.143497 194.006691 210.65752 192.765732 210.65752 191.471956 
C 210.65752 190.178181 210.143497 188.937221 209.22866 188.022384 
C 208.313823 187.107547 207.072863 186.593525 205.779088 186.593525 
C 204.485313 186.593525 203.244353 187.107547 202.329516 188.022384 
C 201.414679 188.937221 200.900656 190.178181 200.900656 191.471956 
C 200.900656 192.765732 201.414679 194.006691 202.329516 194.921529 
C 203.244353 195.836366 204.485313 196.350388 205.779088 196.350388 
z
" style="fill-opacity:0.5;stroke:#000000;stroke-opacity:0.5;"/>
    <path clip-path="url(#pfb22df24de)" d="M 174.024427 183.740287 
C 175.091838 183.740287 176.115675 183.3162 176.870449 182.561426 
C 177.625223 181.806652 178.04931 180.782815 178.04931 179.715404 
C 178.04931 178.647992 177.625223 177.624155 176.870449 176.869381 
C 176.115675 176.114607 175.091838 175.69052 174.024427 175.69052 
C 172.957015 175.69052 171.933178 176.114607 171.178404 176.869381 
C 170.423631 177.624155 169.999543 178.647992 169.999543 179.715404 
C 169.999543 180.782815 170.423631 181.806652 171.178404 182.561426 
C 171.933178 183.3162 172.957015 183.740287 174.024427 183.740287 
z
" style="fill-opacity:0.5;stroke:#000000;stroke-opacity:0.5;"/>
    <path clip-path="url(#pfb22df24de)" d="M 123.388031 96.5573 
C 124.767852 96.5573 126.091344 96.009092 127.067024 95.033412 
C 128.042705 94.057731 128.590913 92.734239 128.590913 91.354419 
C 128.590913 89.974598 128.042705 88.651106 127.067024 87.675426 
C 126.091344 86.699745 124.767852 86.151537 123.388031 86.151537 
C 122.008211 86.151537 120.684719 86.699745 119.709038 87.675426 
C 118.733358 88.651106 118.18515 89.974598 118.18515 91.354419 
C 118.18515 92.734239 118.733358 94.057731 119.709038 95.033412 
C 120.684719 96.009092 122.008211 96.5573 123.388031 96.5573 
z
" style="fill-opacity:0.5;stroke:#000000;stroke-opacity:0.5;"/>
    <path clip-path="url(#pfb22df24de)" d="M 231.06218 215.666427 
C 232.361515 215.666427 233.607808 215.150195 234.526577 214.231426 
C 235.445346 213.312657 235.961578 212.066364 235.961578 210.767029 
C 235.961578 209.467693 235.445346 208.2214 234.526577 207.302631 
C 233.607808 206.383862 232.361515 205.867631 231.06218 205.867631 
C 229.762844 205.867631 228.516551 206.383862 227.597783 207.302631 
C 226.679014 208.2214 226.162782 209.467693 226.162782 210.767029 
C 226.162782 212.066364 226.679014 213.312657 227.597783 214.231426 
C 228.516551 215.150195 229.762844 215.666427 231.06218 215.666427 
z
" style="fill-opacity:0.5;stroke:#000000;stroke-opacity:0.5;"/>
    <path clip-path="url(#pfb22df24de)" d="M 173.934427 162.578732 
C 175.021398 162.578732 176.063995 162.146874 176.8326 161.37827 
C 177.601204 160.609665 178.033062 159.567068 178.033062 158.480097 
C 178.033062 157.393126 177.601204 156.350528 176.8326 155.581924 
C 176.063995 154.813319 175.021398 154.381461 173.934427 154.381461 
C 172.847456 154.381461 171.804858 154.813319 171.036254 155.581924 
C 170.267649 156.350528 169.835791 157.393126 169.835791 158.480097 
C 169.835791 159.567068 170.267649 160.609665 171.036254 161.37827 
C 171.804858 162.146874 172.847456 162.578732 173.934427 162.578732 
z
" style="fill-opacity:0.5;stroke:#000000;stroke-opacity:0.5;"/>
    <path clip-path="url(#pfb22df24de)" d="M 128.900979 89.238077 
C 130.300265 89.238077 131.642429 88.682135 132.631874 87.69269 
C 133.621319 86.703245 134.177261 85.361082 134.177261 83.961796 
C 134.177261 82.562509 133.621319 81.220346 132.631874 80.230901 
C 131.642429 79.241456 130.300265 78.685514 128.900979 78.685514 
C 127.501693 78.685514 126.159529 79.241456 125.170084 80.230901 
C 124.18064 81.220346 123.624697 82.562509 123.624697 83.961796 
C 123.624697 85.361082 124.18064 86.703245 125.170084 87.69269 
C 126.159529 88.682135 127.501693 89.238077 128.900979 89.238077 
z
" style="fill-opacity:0.5;stroke:#000000;stroke-opacity:0.5;"/>
    <path clip-path="url(#pfb22df24de)" d="M 63.484102 223.469085 
C 64.787978 223.469085 66.038625 222.95105 66.960605 222.02907 
C 67.882584 221.107091 68.400619 219.856443 68.400619 218.552568 
C 68.400619 217.248692 67.882584 215.998045 66.960605 215.076066 
C 66.038625 214.154086 64.787978 213.636051 63.484102 213.636051 
C 62.180227 213.636051 60.929579 214.154086 60.0076 215.076066 
C 59.085621 215.998045 58.567586 217.248692 58.567586 218.552568 
C 58.567586 219.856443 59.085621 221.107091 60.0076 222.02907 
C 60.929579 222.95105 62.180227 223.469085 63.484102 223.469085 
z
" style="fill-opacity:0.5;stroke:#000000;stroke-opacity:0.5;"/>
    <path clip-path="url(#pfb22df24de)" d="M 122.365781 93.84321 
C 123.452604 93.84321 124.495061 93.41141 125.263561 92.64291 
C 126.032061 91.87441 126.46386 90.831953 126.46386 89.74513 
C 126.46386 88.658306 126.032061 87.61585 125.263561 86.84735 
C 124.495061 86.07885 123.452604 85.64705 122.365781 85.64705 
C 121.278957 85.64705 120.236501 86.07885 119.468001 86.84735 
C 118.699501 87.61585 118.267701 88.658306 118.267701 89.74513 
C 118.267701 90.831953 118.699501 91.87441 119.468001 92.64291 
C 120.236501 93.41141 121.278957 93.84321 122.365781 93.84321 
z
" style="fill-opacity:0.5;stroke:#000000;stroke-opacity:0.5;"/>
    <path clip-path="url(#pfb22df24de)" d="M 117.108274 79.798103 
C 118.535497 79.798103 119.904457 79.231061 120.913657 78.221862 
C 121.922856 77.212663 122.489898 75.843702 122.489898 74.416479 
C 122.489898 72.989256 121.922856 71.620295 120.913657 70.611096 
C 119.904457 69.601897 118.535497 69.034855 117.108274 69.034855 
C 115.68105 69.034855 114.31209 69.601897 113.302891 70.611096 
C 112.293692 71.620295 111.72665 72.989256 111.72665 74.416479 
C 111.72665 75.843702 112.293692 77.212663 113.302891 78.221862 
C 114.31209 79.231061 115.68105 79.798103 117.108274 79.798103 
z
" style="fill-opacity:0.5;stroke:#000000;stroke-opacity:0.5;"/>
    <path clip-path="url(#pfb22df24de)" d="M 49.671864 208.499649 
C 50.988715 208.499649 52.251808 207.976458 53.182962 207.045304 
C 54.114116 206.11415 54.637307 204.851057 54.637307 203.534206 
C 54.637307 202.217355 54.114116 200.954262 53.182962 200.023108 
C 52.251808 199.091954 50.988715 198.568763 49.671864 198.568763 
C 48.355013 198.568763 47.09192 199.091954 46.160766 200.023108 
C 45.229612 200.954262 44.706421 202.217355 44.706421 203.534206 
C 44.706421 204.851057 45.229612 206.11415 46.160766 207.045304 
C 47.09192 207.976458 48.355013 208.499649 49.671864 208.499649 
z
" style="fill-opacity:0.5;stroke:#000000;stroke-opacity:0.5;"/>
    <path clip-path="url(#pfb22df24de)" d="M 121.420609 93.836779 
C 122.837743 93.836779 124.197027 93.273745 125.199092 92.27168 
C 126.201158 91.269614 126.764191 89.910331 126.764191 88.493196 
C 126.764191 87.076062 126.201158 85.716778 125.199092 84.714713 
C 124.197027 83.712647 122.837743 83.149614 121.420609 83.149614 
C 120.003474 83.149614 118.644191 83.712647 117.642125 84.714713 
C 116.64006 85.716778 116.077026 87.076062 116.077026 88.493196 
C 116.077026 89.910331 116.64006 91.269614 117.642125 92.27168 
C 118.644191 93.273745 120.003474 93.836779 121.420609 93.836779 
z
" style="fill-opacity:0.5;stroke:#000000;stroke-opacity:0.5;"/>
    <path clip-path="url(#pfb22df24de)" d="M 245.538373 219.690573 
C 246.851401 219.690573 248.110828 219.168901 249.039279 218.24045 
C 249.96773 217.311999 250.489401 216.052572 250.489401 214.739544 
C 250.489401 213.426516 249.96773 212.167089 249.039279 211.238638 
C 248.110828 210.310187 246.851401 209.788515 245.538373 209.788515 
C 244.225344 209.788515 242.965918 210.310187 242.037467 211.238638 
C 241.109015 212.167089 240.587344 213.426516 240.587344 214.739544 
C 240.587344 216.052572 241.109015 217.311999 242.037467 218.24045 
C 242.965918 219.168901 244.225344 219.690573 245.538373 219.690573 
z
" style="fill-opacity:0.5;stroke:#000000;stroke-opacity:0.5;"/>
    <path clip-path="url(#pfb22df24de)" d="M 128.228878 127.511638 
C 129.638731 127.511638 130.991029 126.951498 131.987945 125.954581 
C 132.984861 124.957665 133.545002 123.605367 133.545002 122.195514 
C 133.545002 120.785662 132.984861 119.433364 131.987945 118.436447 
C 130.991029 117.439531 129.638731 116.879391 128.228878 116.879391 
C 126.819026 116.879391 125.466727 117.439531 124.469811 118.436447 
C 123.472895 119.433364 122.912755 120.785662 122.912755 122.195514 
C 122.912755 123.605367 123.472895 124.957665 124.469811 125.954581 
C 125.466727 126.951498 126.819026 127.511638 128.228878 127.511638 
z
" style="fill-opacity:0.5;stroke:#000000;stroke-opacity:0.5;"/>
    <path clip-path="url(#pfb22df24de)" d="M 62.604556 203.400321 
C 63.909452 203.400321 65.161078 202.88188 66.083778 201.95918 
C 67.006479 201.036479 67.524919 199.784853 67.524919 198.479958 
C 67.524919 197.175062 67.006479 195.923436 66.083778 195.000736 
C 65.161078 194.078035 63.909452 193.559595 62.604556 193.559595 
C 61.299661 193.559595 60.048034 194.078035 59.125334 195.000736 
C 58.202634 195.923436 57.684193 197.175062 57.684193 198.479958 
C 57.684193 199.784853 58.202634 201.036479 59.125334 201.95918 
C 60.048034 202.88188 61.299661 203.400321 62.604556 203.400321 
z
" style="fill-opacity:0.5;stroke:#000000;stroke-opacity:0.5;"/>
   </g>
   <g id="matplotlib.axis_1">
    <g id="xtick_1">
     <g id="line2d_1">
      <defs>
       <path d="M 0 0 
L 0 3.5 
" id="m9cc5be0b9e" style="stroke:#000000;stroke-width:0.8;"/>
      </defs>
      <g>
       <use style="stroke:#000000;stroke-width:0.8;" x="49.629767" xlink:href="#m9cc5be0b9e" y="256.32"/>
      </g>
     </g>
     <g id="text_1">
      <!-- −0.75 -->
      <defs>
       <path d="M 10.59375 35.5 
L 73.1875 35.5 
L 73.1875 27.203125 
L 10.59375 27.203125 
z
" id="DejaVuSans-2212"/>
       <path d="M 31.78125 66.40625 
Q 24.171875 66.40625 20.328125 58.90625 
Q 16.5 51.421875 16.5 36.375 
Q 16.5 21.390625 20.328125 13.890625 
Q 24.171875 6.390625 31.78125 6.390625 
Q 39.453125 6.390625 43.28125 13.890625 
Q 47.125 21.390625 47.125 36.375 
Q 47.125 51.421875 43.28125 58.90625 
Q 39.453125 66.40625 31.78125 66.40625 
z
M 31.78125 74.21875 
Q 44.046875 74.21875 50.515625 64.515625 
Q 56.984375 54.828125 56.984375 36.375 
Q 56.984375 17.96875 50.515625 8.265625 
Q 44.046875 -1.421875 31.78125 -1.421875 
Q 19.53125 -1.421875 13.0625 8.265625 
Q 6.59375 17.96875 6.59375 36.375 
Q 6.59375 54.828125 13.0625 64.515625 
Q 19.53125 74.21875 31.78125 74.21875 
z
" id="DejaVuSans-30"/>
       <path d="M 10.6875 12.40625 
L 21 12.40625 
L 21 0 
L 10.6875 0 
z
" id="DejaVuSans-2e"/>
       <path d="M 8.203125 72.90625 
L 55.078125 72.90625 
L 55.078125 68.703125 
L 28.609375 0 
L 18.3125 0 
L 43.21875 64.59375 
L 8.203125 64.59375 
z
" id="DejaVuSans-37"/>
       <path d="M 10.796875 72.90625 
L 49.515625 72.90625 
L 49.515625 64.59375 
L 19.828125 64.59375 
L 19.828125 46.734375 
Q 21.96875 47.46875 24.109375 47.828125 
Q 26.265625 48.1875 28.421875 48.1875 
Q 40.625 48.1875 47.75 41.5 
Q 54.890625 34.8125 54.890625 23.390625 
Q 54.890625 11.625 47.5625 5.09375 
Q 40.234375 -1.421875 26.90625 -1.421875 
Q 22.3125 -1.421875 17.546875 -0.640625 
Q 12.796875 0.140625 7.71875 1.703125 
L 7.71875 11.625 
Q 12.109375 9.234375 16.796875 8.0625 
Q 21.484375 6.890625 26.703125 6.890625 
Q 35.15625 6.890625 40.078125 11.328125 
Q 45.015625 15.765625 45.015625 23.390625 
Q 45.015625 31 40.078125 35.4375 
Q 35.15625 39.890625 26.703125 39.890625 
Q 22.75 39.890625 18.8125 39.015625 
Q 14.890625 38.140625 10.796875 36.28125 
z
" id="DejaVuSans-35"/>
      </defs>
      <g transform="translate(34.307111 270.918437)scale(0.1 -0.1)">
       <use xlink:href="#DejaVuSans-2212"/>
       <use x="83.789062" xlink:href="#DejaVuSans-30"/>
       <use x="147.412109" xlink:href="#DejaVuSans-2e"/>
       <use x="179.199219" xlink:href="#DejaVuSans-37"/>
       <use x="242.822266" xlink:href="#DejaVuSans-35"/>
      </g>
     </g>
    </g>
    <g id="xtick_2">
     <g id="line2d_2">
      <g>
       <use style="stroke:#000000;stroke-width:0.8;" x="83.063862" xlink:href="#m9cc5be0b9e" y="256.32"/>
      </g>
     </g>
     <g id="text_2">
      <!-- −0.50 -->
      <g transform="translate(67.741206 270.918437)scale(0.1 -0.1)">
       <use xlink:href="#DejaVuSans-2212"/>
       <use x="83.789062" xlink:href="#DejaVuSans-30"/>
       <use x="147.412109" xlink:href="#DejaVuSans-2e"/>
       <use x="179.199219" xlink:href="#DejaVuSans-35"/>
       <use x="242.822266" xlink:href="#DejaVuSans-30"/>
      </g>
     </g>
    </g>
    <g id="xtick_3">
     <g id="line2d_3">
      <g>
       <use style="stroke:#000000;stroke-width:0.8;" x="116.497957" xlink:href="#m9cc5be0b9e" y="256.32"/>
      </g>
     </g>
     <g id="text_3">
      <!-- −0.25 -->
      <defs>
       <path d="M 19.1875 8.296875 
L 53.609375 8.296875 
L 53.609375 0 
L 7.328125 0 
L 7.328125 8.296875 
Q 12.9375 14.109375 22.625 23.890625 
Q 32.328125 33.6875 34.8125 36.53125 
Q 39.546875 41.84375 41.421875 45.53125 
Q 43.3125 49.21875 43.3125 52.78125 
Q 43.3125 58.59375 39.234375 62.25 
Q 35.15625 65.921875 28.609375 65.921875 
Q 23.96875 65.921875 18.8125 64.3125 
Q 13.671875 62.703125 7.8125 59.421875 
L 7.8125 69.390625 
Q 13.765625 71.78125 18.9375 73 
Q 24.125 74.21875 28.421875 74.21875 
Q 39.75 74.21875 46.484375 68.546875 
Q 53.21875 62.890625 53.21875 53.421875 
Q 53.21875 48.921875 51.53125 44.890625 
Q 49.859375 40.875 45.40625 35.40625 
Q 44.1875 33.984375 37.640625 27.21875 
Q 31.109375 20.453125 19.1875 8.296875 
z
" id="DejaVuSans-32"/>
      </defs>
      <g transform="translate(101.1753 270.918437)scale(0.1 -0.1)">
       <use xlink:href="#DejaVuSans-2212"/>
       <use x="83.789062" xlink:href="#DejaVuSans-30"/>
       <use x="147.412109" xlink:href="#DejaVuSans-2e"/>
       <use x="179.199219" xlink:href="#DejaVuSans-32"/>
       <use x="242.822266" xlink:href="#DejaVuSans-35"/>
      </g>
     </g>
    </g>
    <g id="xtick_4">
     <g id="line2d_4">
      <g>
       <use style="stroke:#000000;stroke-width:0.8;" x="149.932051" xlink:href="#m9cc5be0b9e" y="256.32"/>
      </g>
     </g>
     <g id="text_4">
      <!-- 0.00 -->
      <g transform="translate(138.799239 270.918437)scale(0.1 -0.1)">
       <use xlink:href="#DejaVuSans-30"/>
       <use x="63.623047" xlink:href="#DejaVuSans-2e"/>
       <use x="95.410156" xlink:href="#DejaVuSans-30"/>
       <use x="159.033203" xlink:href="#DejaVuSans-30"/>
      </g>
     </g>
    </g>
    <g id="xtick_5">
     <g id="line2d_5">
      <g>
       <use style="stroke:#000000;stroke-width:0.8;" x="183.366146" xlink:href="#m9cc5be0b9e" y="256.32"/>
      </g>
     </g>
     <g id="text_5">
      <!-- 0.25 -->
      <g transform="translate(172.233333 270.918437)scale(0.1 -0.1)">
       <use xlink:href="#DejaVuSans-30"/>
       <use x="63.623047" xlink:href="#DejaVuSans-2e"/>
       <use x="95.410156" xlink:href="#DejaVuSans-32"/>
       <use x="159.033203" xlink:href="#DejaVuSans-35"/>
      </g>
     </g>
    </g>
    <g id="xtick_6">
     <g id="line2d_6">
      <g>
       <use style="stroke:#000000;stroke-width:0.8;" x="216.80024" xlink:href="#m9cc5be0b9e" y="256.32"/>
      </g>
     </g>
     <g id="text_6">
      <!-- 0.50 -->
      <g transform="translate(205.667428 270.918437)scale(0.1 -0.1)">
       <use xlink:href="#DejaVuSans-30"/>
       <use x="63.623047" xlink:href="#DejaVuSans-2e"/>
       <use x="95.410156" xlink:href="#DejaVuSans-35"/>
       <use x="159.033203" xlink:href="#DejaVuSans-30"/>
      </g>
     </g>
    </g>
    <g id="xtick_7">
     <g id="line2d_7">
      <g>
       <use style="stroke:#000000;stroke-width:0.8;" x="250.234335" xlink:href="#m9cc5be0b9e" y="256.32"/>
      </g>
     </g>
     <g id="text_7">
      <!-- 0.75 -->
      <g transform="translate(239.101522 270.918437)scale(0.1 -0.1)">
       <use xlink:href="#DejaVuSans-30"/>
       <use x="63.623047" xlink:href="#DejaVuSans-2e"/>
       <use x="95.410156" xlink:href="#DejaVuSans-37"/>
       <use x="159.033203" xlink:href="#DejaVuSans-35"/>
      </g>
     </g>
    </g>
    <g id="text_8">
     <!-- r0 dFdh . W_out(cos@) -->
     <defs>
      <path d="M 41.109375 46.296875 
Q 39.59375 47.171875 37.8125 47.578125 
Q 36.03125 48 33.890625 48 
Q 26.265625 48 22.1875 43.046875 
Q 18.109375 38.09375 18.109375 28.8125 
L 18.109375 0 
L 9.078125 0 
L 9.078125 54.6875 
L 18.109375 54.6875 
L 18.109375 46.1875 
Q 20.953125 51.171875 25.484375 53.578125 
Q 30.03125 56 36.53125 56 
Q 37.453125 56 38.578125 55.875 
Q 39.703125 55.765625 41.0625 55.515625 
z
" id="DejaVuSans-72"/>
      <path id="DejaVuSans-20"/>
      <path d="M 45.40625 46.390625 
L 45.40625 75.984375 
L 54.390625 75.984375 
L 54.390625 0 
L 45.40625 0 
L 45.40625 8.203125 
Q 42.578125 3.328125 38.25 0.953125 
Q 33.9375 -1.421875 27.875 -1.421875 
Q 17.96875 -1.421875 11.734375 6.484375 
Q 5.515625 14.40625 5.515625 27.296875 
Q 5.515625 40.1875 11.734375 48.09375 
Q 17.96875 56 27.875 56 
Q 33.9375 56 38.25 53.625 
Q 42.578125 51.265625 45.40625 46.390625 
z
M 14.796875 27.296875 
Q 14.796875 17.390625 18.875 11.75 
Q 22.953125 6.109375 30.078125 6.109375 
Q 37.203125 6.109375 41.296875 11.75 
Q 45.40625 17.390625 45.40625 27.296875 
Q 45.40625 37.203125 41.296875 42.84375 
Q 37.203125 48.484375 30.078125 48.484375 
Q 22.953125 48.484375 18.875 42.84375 
Q 14.796875 37.203125 14.796875 27.296875 
z
" id="DejaVuSans-64"/>
      <path d="M 9.8125 72.90625 
L 51.703125 72.90625 
L 51.703125 64.59375 
L 19.671875 64.59375 
L 19.671875 43.109375 
L 48.578125 43.109375 
L 48.578125 34.8125 
L 19.671875 34.8125 
L 19.671875 0 
L 9.8125 0 
z
" id="DejaVuSans-46"/>
      <path d="M 54.890625 33.015625 
L 54.890625 0 
L 45.90625 0 
L 45.90625 32.71875 
Q 45.90625 40.484375 42.875 44.328125 
Q 39.84375 48.1875 33.796875 48.1875 
Q 26.515625 48.1875 22.3125 43.546875 
Q 18.109375 38.921875 18.109375 30.90625 
L 18.109375 0 
L 9.078125 0 
L 9.078125 75.984375 
L 18.109375 75.984375 
L 18.109375 46.1875 
Q 21.34375 51.125 25.703125 53.5625 
Q 30.078125 56 35.796875 56 
Q 45.21875 56 50.046875 50.171875 
Q 54.890625 44.34375 54.890625 33.015625 
z
" id="DejaVuSans-68"/>
      <path d="M 3.328125 72.90625 
L 13.28125 72.90625 
L 28.609375 11.28125 
L 43.890625 72.90625 
L 54.984375 72.90625 
L 70.3125 11.28125 
L 85.59375 72.90625 
L 95.609375 72.90625 
L 77.296875 0 
L 64.890625 0 
L 49.515625 63.28125 
L 33.984375 0 
L 21.578125 0 
z
" id="DejaVuSans-57"/>
      <path d="M 50.984375 -16.609375 
L 50.984375 -23.578125 
L -0.984375 -23.578125 
L -0.984375 -16.609375 
z
" id="DejaVuSans-5f"/>
      <path d="M 30.609375 48.390625 
Q 23.390625 48.390625 19.1875 42.75 
Q 14.984375 37.109375 14.984375 27.296875 
Q 14.984375 17.484375 19.15625 11.84375 
Q 23.34375 6.203125 30.609375 6.203125 
Q 37.796875 6.203125 41.984375 11.859375 
Q 46.1875 17.53125 46.1875 27.296875 
Q 46.1875 37.015625 41.984375 42.703125 
Q 37.796875 48.390625 30.609375 48.390625 
z
M 30.609375 56 
Q 42.328125 56 49.015625 48.375 
Q 55.71875 40.765625 55.71875 27.296875 
Q 55.71875 13.875 49.015625 6.21875 
Q 42.328125 -1.421875 30.609375 -1.421875 
Q 18.84375 -1.421875 12.171875 6.21875 
Q 5.515625 13.875 5.515625 27.296875 
Q 5.515625 40.765625 12.171875 48.375 
Q 18.84375 56 30.609375 56 
z
" id="DejaVuSans-6f"/>
      <path d="M 8.5 21.578125 
L 8.5 54.6875 
L 17.484375 54.6875 
L 17.484375 21.921875 
Q 17.484375 14.15625 20.5 10.265625 
Q 23.53125 6.390625 29.59375 6.390625 
Q 36.859375 6.390625 41.078125 11.03125 
Q 45.3125 15.671875 45.3125 23.6875 
L 45.3125 54.6875 
L 54.296875 54.6875 
L 54.296875 0 
L 45.3125 0 
L 45.3125 8.40625 
Q 42.046875 3.421875 37.71875 1 
Q 33.40625 -1.421875 27.6875 -1.421875 
Q 18.265625 -1.421875 13.375 4.4375 
Q 8.5 10.296875 8.5 21.578125 
z
M 31.109375 56 
z
" id="DejaVuSans-75"/>
      <path d="M 18.3125 70.21875 
L 18.3125 54.6875 
L 36.8125 54.6875 
L 36.8125 47.703125 
L 18.3125 47.703125 
L 18.3125 18.015625 
Q 18.3125 11.328125 20.140625 9.421875 
Q 21.96875 7.515625 27.59375 7.515625 
L 36.8125 7.515625 
L 36.8125 0 
L 27.59375 0 
Q 17.1875 0 13.234375 3.875 
Q 9.28125 7.765625 9.28125 18.015625 
L 9.28125 47.703125 
L 2.6875 47.703125 
L 2.6875 54.6875 
L 9.28125 54.6875 
L 9.28125 70.21875 
z
" id="DejaVuSans-74"/>
      <path d="M 31 75.875 
Q 24.46875 64.65625 21.28125 53.65625 
Q 18.109375 42.671875 18.109375 31.390625 
Q 18.109375 20.125 21.3125 9.0625 
Q 24.515625 -2 31 -13.1875 
L 23.1875 -13.1875 
Q 15.875 -1.703125 12.234375 9.375 
Q 8.59375 20.453125 8.59375 31.390625 
Q 8.59375 42.28125 12.203125 53.3125 
Q 15.828125 64.359375 23.1875 75.875 
z
" id="DejaVuSans-28"/>
      <path d="M 48.78125 52.59375 
L 48.78125 44.1875 
Q 44.96875 46.296875 41.140625 47.34375 
Q 37.3125 48.390625 33.40625 48.390625 
Q 24.65625 48.390625 19.8125 42.84375 
Q 14.984375 37.3125 14.984375 27.296875 
Q 14.984375 17.28125 19.8125 11.734375 
Q 24.65625 6.203125 33.40625 6.203125 
Q 37.3125 6.203125 41.140625 7.25 
Q 44.96875 8.296875 48.78125 10.40625 
L 48.78125 2.09375 
Q 45.015625 0.34375 40.984375 -0.53125 
Q 36.96875 -1.421875 32.421875 -1.421875 
Q 20.0625 -1.421875 12.78125 6.34375 
Q 5.515625 14.109375 5.515625 27.296875 
Q 5.515625 40.671875 12.859375 48.328125 
Q 20.21875 56 33.015625 56 
Q 37.15625 56 41.109375 55.140625 
Q 45.0625 54.296875 48.78125 52.59375 
z
" id="DejaVuSans-63"/>
      <path d="M 44.28125 53.078125 
L 44.28125 44.578125 
Q 40.484375 46.53125 36.375 47.5 
Q 32.28125 48.484375 27.875 48.484375 
Q 21.1875 48.484375 17.84375 46.4375 
Q 14.5 44.390625 14.5 40.28125 
Q 14.5 37.15625 16.890625 35.375 
Q 19.28125 33.59375 26.515625 31.984375 
L 29.59375 31.296875 
Q 39.15625 29.25 43.1875 25.515625 
Q 47.21875 21.78125 47.21875 15.09375 
Q 47.21875 7.46875 41.1875 3.015625 
Q 35.15625 -1.421875 24.609375 -1.421875 
Q 20.21875 -1.421875 15.453125 -0.5625 
Q 10.6875 0.296875 5.421875 2 
L 5.421875 11.28125 
Q 10.40625 8.6875 15.234375 7.390625 
Q 20.0625 6.109375 24.8125 6.109375 
Q 31.15625 6.109375 34.5625 8.28125 
Q 37.984375 10.453125 37.984375 14.40625 
Q 37.984375 18.0625 35.515625 20.015625 
Q 33.0625 21.96875 24.703125 23.78125 
L 21.578125 24.515625 
Q 13.234375 26.265625 9.515625 29.90625 
Q 5.8125 33.546875 5.8125 39.890625 
Q 5.8125 47.609375 11.28125 51.796875 
Q 16.75 56 26.8125 56 
Q 31.78125 56 36.171875 55.265625 
Q 40.578125 54.546875 44.28125 53.078125 
z
" id="DejaVuSans-73"/>
      <path d="M 37.203125 26.21875 
Q 37.203125 19.234375 40.671875 15.25 
Q 44.140625 11.28125 50.203125 11.28125 
Q 56.203125 11.28125 59.640625 15.28125 
Q 63.09375 19.28125 63.09375 26.21875 
Q 63.09375 33.0625 59.578125 37.078125 
Q 56.0625 41.109375 50.09375 41.109375 
Q 44.1875 41.109375 40.6875 37.109375 
Q 37.203125 33.109375 37.203125 26.21875 
z
M 63.8125 11.625 
Q 60.890625 7.859375 57.109375 6.078125 
Q 53.328125 4.296875 48.296875 4.296875 
Q 39.890625 4.296875 34.640625 10.375 
Q 29.390625 16.453125 29.390625 26.21875 
Q 29.390625 35.984375 34.65625 42.078125 
Q 39.9375 48.1875 48.296875 48.1875 
Q 53.328125 48.1875 57.125 46.359375 
Q 60.9375 44.53125 63.8125 40.828125 
L 63.8125 47.21875 
L 70.796875 47.21875 
L 70.796875 11.28125 
Q 77.9375 12.359375 81.953125 17.796875 
Q 85.984375 23.25 85.984375 31.890625 
Q 85.984375 37.109375 84.4375 41.703125 
Q 82.90625 46.296875 79.78125 50.203125 
Q 74.703125 56.59375 67.40625 59.984375 
Q 60.109375 63.375 51.515625 63.375 
Q 45.515625 63.375 39.984375 61.78125 
Q 34.46875 60.203125 29.78125 57.078125 
Q 22.125 52.09375 17.796875 44.015625 
Q 13.484375 35.9375 13.484375 26.515625 
Q 13.484375 18.75 16.28125 11.953125 
Q 19.09375 5.171875 24.421875 0 
Q 29.546875 -5.078125 36.28125 -7.734375 
Q 43.015625 -10.40625 50.6875 -10.40625 
Q 56.984375 -10.40625 63.0625 -8.28125 
Q 69.140625 -6.15625 74.21875 -2.203125 
L 78.609375 -7.625 
Q 72.515625 -12.359375 65.3125 -14.875 
Q 58.109375 -17.390625 50.6875 -17.390625 
Q 41.65625 -17.390625 33.640625 -14.1875 
Q 25.640625 -10.984375 19.390625 -4.890625 
Q 13.140625 1.21875 9.859375 9.25 
Q 6.59375 17.28125 6.59375 26.515625 
Q 6.59375 35.40625 9.90625 43.453125 
Q 13.234375 51.515625 19.390625 57.625 
Q 25.6875 63.8125 33.9375 67.109375 
Q 42.1875 70.40625 51.421875 70.40625 
Q 61.765625 70.40625 70.625 66.15625 
Q 79.5 61.921875 85.5 54.109375 
Q 89.15625 49.3125 91.078125 43.703125 
Q 93.015625 38.09375 93.015625 32.078125 
Q 93.015625 19.234375 85.25 11.8125 
Q 77.484375 4.390625 63.8125 4.109375 
z
" id="DejaVuSans-40"/>
      <path d="M 8.015625 75.875 
L 15.828125 75.875 
Q 23.140625 64.359375 26.78125 53.3125 
Q 30.421875 42.28125 30.421875 31.390625 
Q 30.421875 20.453125 26.78125 9.375 
Q 23.140625 -1.703125 15.828125 -13.1875 
L 8.015625 -13.1875 
Q 14.5 -2 17.703125 9.0625 
Q 20.90625 20.125 20.90625 31.390625 
Q 20.90625 42.671875 17.703125 53.65625 
Q 14.5 64.65625 8.015625 75.875 
z
" id="DejaVuSans-29"/>
     </defs>
     <g transform="translate(90.667187 284.596563)scale(0.1 -0.1)">
      <use xlink:href="#DejaVuSans-72"/>
      <use x="41.113281" xlink:href="#DejaVuSans-30"/>
      <use x="104.736328" xlink:href="#DejaVuSans-20"/>
      <use x="136.523438" xlink:href="#DejaVuSans-64"/>
      <use x="200" xlink:href="#DejaVuSans-46"/>
      <use x="257.519531" xlink:href="#DejaVuSans-64"/>
      <use x="320.996094" xlink:href="#DejaVuSans-68"/>
      <use x="384.375" xlink:href="#DejaVuSans-20"/>
      <use x="416.162109" xlink:href="#DejaVuSans-2e"/>
      <use x="447.949219" xlink:href="#DejaVuSans-20"/>
      <use x="479.736328" xlink:href="#DejaVuSans-57"/>
      <use x="578.613281" xlink:href="#DejaVuSans-5f"/>
      <use x="628.613281" xlink:href="#DejaVuSans-6f"/>
      <use x="689.794922" xlink:href="#DejaVuSans-75"/>
      <use x="753.173828" xlink:href="#DejaVuSans-74"/>
      <use x="792.382812" xlink:href="#DejaVuSans-28"/>
      <use x="831.396484" xlink:href="#DejaVuSans-63"/>
      <use x="886.376953" xlink:href="#DejaVuSans-6f"/>
      <use x="947.558594" xlink:href="#DejaVuSans-73"/>
      <use x="999.658203" xlink:href="#DejaVuSans-40"/>
      <use x="1099.658203" xlink:href="#DejaVuSans-29"/>
     </g>
    </g>
   </g>
   <g id="matplotlib.axis_2">
    <g id="ytick_1">
     <g id="line2d_8">
      <defs>
       <path d="M 0 0 
L -3.5 0 
" id="mc2f10c8e06" style="stroke:#000000;stroke-width:0.8;"/>
      </defs>
      <g>
       <use style="stroke:#000000;stroke-width:0.8;" x="36" xlink:href="#mc2f10c8e06" y="219.259998"/>
      </g>
     </g>
     <g id="text_9">
      <!-- 0.00 -->
      <g transform="translate(6.734375 223.059217)scale(0.1 -0.1)">
       <use xlink:href="#DejaVuSans-30"/>
       <use x="63.623047" xlink:href="#DejaVuSans-2e"/>
       <use x="95.410156" xlink:href="#DejaVuSans-30"/>
       <use x="159.033203" xlink:href="#DejaVuSans-30"/>
      </g>
     </g>
    </g>
    <g id="ytick_2">
     <g id="line2d_9">
      <g>
       <use style="stroke:#000000;stroke-width:0.8;" x="36" xlink:href="#mc2f10c8e06" y="177.355011"/>
      </g>
     </g>
     <g id="text_10">
      <!-- 0.02 -->
      <g transform="translate(6.734375 181.15423)scale(0.1 -0.1)">
       <use xlink:href="#DejaVuSans-30"/>
       <use x="63.623047" xlink:href="#DejaVuSans-2e"/>
       <use x="95.410156" xlink:href="#DejaVuSans-30"/>
       <use x="159.033203" xlink:href="#DejaVuSans-32"/>
      </g>
     </g>
    </g>
    <g id="ytick_3">
     <g id="line2d_10">
      <g>
       <use style="stroke:#000000;stroke-width:0.8;" x="36" xlink:href="#mc2f10c8e06" y="135.450023"/>
      </g>
     </g>
     <g id="text_11">
      <!-- 0.04 -->
      <defs>
       <path d="M 37.796875 64.3125 
L 12.890625 25.390625 
L 37.796875 25.390625 
z
M 35.203125 72.90625 
L 47.609375 72.90625 
L 47.609375 25.390625 
L 58.015625 25.390625 
L 58.015625 17.1875 
L 47.609375 17.1875 
L 47.609375 0 
L 37.796875 0 
L 37.796875 17.1875 
L 4.890625 17.1875 
L 4.890625 26.703125 
z
" id="DejaVuSans-34"/>
      </defs>
      <g transform="translate(6.734375 139.249242)scale(0.1 -0.1)">
       <use xlink:href="#DejaVuSans-30"/>
       <use x="63.623047" xlink:href="#DejaVuSans-2e"/>
       <use x="95.410156" xlink:href="#DejaVuSans-30"/>
       <use x="159.033203" xlink:href="#DejaVuSans-34"/>
      </g>
     </g>
    </g>
    <g id="ytick_4">
     <g id="line2d_11">
      <g>
       <use style="stroke:#000000;stroke-width:0.8;" x="36" xlink:href="#mc2f10c8e06" y="93.545036"/>
      </g>
     </g>
     <g id="text_12">
      <!-- 0.06 -->
      <defs>
       <path d="M 33.015625 40.375 
Q 26.375 40.375 22.484375 35.828125 
Q 18.609375 31.296875 18.609375 23.390625 
Q 18.609375 15.53125 22.484375 10.953125 
Q 26.375 6.390625 33.015625 6.390625 
Q 39.65625 6.390625 43.53125 10.953125 
Q 47.40625 15.53125 47.40625 23.390625 
Q 47.40625 31.296875 43.53125 35.828125 
Q 39.65625 40.375 33.015625 40.375 
z
M 52.59375 71.296875 
L 52.59375 62.3125 
Q 48.875 64.0625 45.09375 64.984375 
Q 41.3125 65.921875 37.59375 65.921875 
Q 27.828125 65.921875 22.671875 59.328125 
Q 17.53125 52.734375 16.796875 39.40625 
Q 19.671875 43.65625 24.015625 45.921875 
Q 28.375 48.1875 33.59375 48.1875 
Q 44.578125 48.1875 50.953125 41.515625 
Q 57.328125 34.859375 57.328125 23.390625 
Q 57.328125 12.15625 50.6875 5.359375 
Q 44.046875 -1.421875 33.015625 -1.421875 
Q 20.359375 -1.421875 13.671875 8.265625 
Q 6.984375 17.96875 6.984375 36.375 
Q 6.984375 53.65625 15.1875 63.9375 
Q 23.390625 74.21875 37.203125 74.21875 
Q 40.921875 74.21875 44.703125 73.484375 
Q 48.484375 72.75 52.59375 71.296875 
z
" id="DejaVuSans-36"/>
      </defs>
      <g transform="translate(6.734375 97.344255)scale(0.1 -0.1)">
       <use xlink:href="#DejaVuSans-30"/>
       <use x="63.623047" xlink:href="#DejaVuSans-2e"/>
       <use x="95.410156" xlink:href="#DejaVuSans-30"/>
       <use x="159.033203" xlink:href="#DejaVuSans-36"/>
      </g>
     </g>
    </g>
    <g id="ytick_5">
     <g id="line2d_12">
      <g>
       <use style="stroke:#000000;stroke-width:0.8;" x="36" xlink:href="#mc2f10c8e06" y="51.640048"/>
      </g>
     </g>
     <g id="text_13">
      <!-- 0.08 -->
      <defs>
       <path d="M 31.78125 34.625 
Q 24.75 34.625 20.71875 30.859375 
Q 16.703125 27.09375 16.703125 20.515625 
Q 16.703125 13.921875 20.71875 10.15625 
Q 24.75 6.390625 31.78125 6.390625 
Q 38.8125 6.390625 42.859375 10.171875 
Q 46.921875 13.96875 46.921875 20.515625 
Q 46.921875 27.09375 42.890625 30.859375 
Q 38.875 34.625 31.78125 34.625 
z
M 21.921875 38.8125 
Q 15.578125 40.375 12.03125 44.71875 
Q 8.5 49.078125 8.5 55.328125 
Q 8.5 64.0625 14.71875 69.140625 
Q 20.953125 74.21875 31.78125 74.21875 
Q 42.671875 74.21875 48.875 69.140625 
Q 55.078125 64.0625 55.078125 55.328125 
Q 55.078125 49.078125 51.53125 44.71875 
Q 48 40.375 41.703125 38.8125 
Q 48.828125 37.15625 52.796875 32.3125 
Q 56.78125 27.484375 56.78125 20.515625 
Q 56.78125 9.90625 50.3125 4.234375 
Q 43.84375 -1.421875 31.78125 -1.421875 
Q 19.734375 -1.421875 13.25 4.234375 
Q 6.78125 9.90625 6.78125 20.515625 
Q 6.78125 27.484375 10.78125 32.3125 
Q 14.796875 37.15625 21.921875 38.8125 
z
M 18.3125 54.390625 
Q 18.3125 48.734375 21.84375 45.5625 
Q 25.390625 42.390625 31.78125 42.390625 
Q 38.140625 42.390625 41.71875 45.5625 
Q 45.3125 48.734375 45.3125 54.390625 
Q 45.3125 60.0625 41.71875 63.234375 
Q 38.140625 66.40625 31.78125 66.40625 
Q 25.390625 66.40625 21.84375 63.234375 
Q 18.3125 60.0625 18.3125 54.390625 
z
" id="DejaVuSans-38"/>
      </defs>
      <g transform="translate(6.734375 55.439267)scale(0.1 -0.1)">
       <use xlink:href="#DejaVuSans-30"/>
       <use x="63.623047" xlink:href="#DejaVuSans-2e"/>
       <use x="95.410156" xlink:href="#DejaVuSans-30"/>
       <use x="159.033203" xlink:href="#DejaVuSans-38"/>
      </g>
     </g>
    </g>
    <g id="text_14">
     <!-- l0 dFdh . dfdx(cos@) -->
     <defs>
      <path d="M 9.421875 75.984375 
L 18.40625 75.984375 
L 18.40625 0 
L 9.421875 0 
z
" id="DejaVuSans-6c"/>
      <path d="M 37.109375 75.984375 
L 37.109375 68.5 
L 28.515625 68.5 
Q 23.6875 68.5 21.796875 66.546875 
Q 19.921875 64.59375 19.921875 59.515625 
L 19.921875 54.6875 
L 34.71875 54.6875 
L 34.71875 47.703125 
L 19.921875 47.703125 
L 19.921875 0 
L 10.890625 0 
L 10.890625 47.703125 
L 2.296875 47.703125 
L 2.296875 54.6875 
L 10.890625 54.6875 
L 10.890625 58.5 
Q 10.890625 67.625 15.140625 71.796875 
Q 19.390625 75.984375 28.609375 75.984375 
z
" id="DejaVuSans-66"/>
      <path d="M 54.890625 54.6875 
L 35.109375 28.078125 
L 55.90625 0 
L 45.3125 0 
L 29.390625 21.484375 
L 13.484375 0 
L 2.875 0 
L 24.125 28.609375 
L 4.6875 54.6875 
L 15.28125 54.6875 
L 29.78125 35.203125 
L 44.28125 54.6875 
z
" id="DejaVuSans-78"/>
     </defs>
     <g transform="translate(0.654687 197.142344)rotate(-90)scale(0.1 -0.1)">
      <use xlink:href="#DejaVuSans-6c"/>
      <use x="27.783203" xlink:href="#DejaVuSans-30"/>
      <use x="91.40625" xlink:href="#DejaVuSans-20"/>
      <use x="123.193359" xlink:href="#DejaVuSans-64"/>
      <use x="186.669922" xlink:href="#DejaVuSans-46"/>
      <use x="244.189453" xlink:href="#DejaVuSans-64"/>
      <use x="307.666016" xlink:href="#DejaVuSans-68"/>
      <use x="371.044922" xlink:href="#DejaVuSans-20"/>
      <use x="402.832031" xlink:href="#DejaVuSans-2e"/>
      <use x="434.619141" xlink:href="#DejaVuSans-20"/>
      <use x="466.40625" xlink:href="#DejaVuSans-64"/>
      <use x="529.882812" xlink:href="#DejaVuSans-66"/>
      <use x="565.087891" xlink:href="#DejaVuSans-64"/>
      <use x="628.564453" xlink:href="#DejaVuSans-78"/>
      <use x="687.744141" xlink:href="#DejaVuSans-28"/>
      <use x="726.757812" xlink:href="#DejaVuSans-63"/>
      <use x="781.738281" xlink:href="#DejaVuSans-6f"/>
      <use x="842.919922" xlink:href="#DejaVuSans-73"/>
      <use x="895.019531" xlink:href="#DejaVuSans-40"/>
      <use x="995.019531" xlink:href="#DejaVuSans-29"/>
     </g>
    </g>
   </g>
   <g id="patch_3">
    <path d="M 36 256.32 
L 36 34.56 
" style="fill:none;stroke:#000000;stroke-linecap:square;stroke-linejoin:miter;stroke-width:0.8;"/>
   </g>
   <g id="patch_4">
    <path d="M 259.2 256.32 
L 259.2 34.56 
" style="fill:none;stroke:#000000;stroke-linecap:square;stroke-linejoin:miter;stroke-width:0.8;"/>
   </g>
   <g id="patch_5">
    <path d="M 36 256.32 
L 259.2 256.32 
" style="fill:none;stroke:#000000;stroke-linecap:square;stroke-linejoin:miter;stroke-width:0.8;"/>
   </g>
   <g id="patch_6">
    <path d="M 36 34.56 
L 259.2 34.56 
" style="fill:none;stroke:#000000;stroke-linecap:square;stroke-linejoin:miter;stroke-width:0.8;"/>
   </g>
   <g id="text_15">
    <!-- multidelaydm -->
    <defs>
     <path d="M 52 44.1875 
Q 55.375 50.25 60.0625 53.125 
Q 64.75 56 71.09375 56 
Q 79.640625 56 84.28125 50.015625 
Q 88.921875 44.046875 88.921875 33.015625 
L 88.921875 0 
L 79.890625 0 
L 79.890625 32.71875 
Q 79.890625 40.578125 77.09375 44.375 
Q 74.3125 48.1875 68.609375 48.1875 
Q 61.625 48.1875 57.5625 43.546875 
Q 53.515625 38.921875 53.515625 30.90625 
L 53.515625 0 
L 44.484375 0 
L 44.484375 32.71875 
Q 44.484375 40.625 41.703125 44.40625 
Q 38.921875 48.1875 33.109375 48.1875 
Q 26.21875 48.1875 22.15625 43.53125 
Q 18.109375 38.875 18.109375 30.90625 
L 18.109375 0 
L 9.078125 0 
L 9.078125 54.6875 
L 18.109375 54.6875 
L 18.109375 46.1875 
Q 21.1875 51.21875 25.484375 53.609375 
Q 29.78125 56 35.6875 56 
Q 41.65625 56 45.828125 52.96875 
Q 50 49.953125 52 44.1875 
z
" id="DejaVuSans-6d"/>
     <path d="M 9.421875 54.6875 
L 18.40625 54.6875 
L 18.40625 0 
L 9.421875 0 
z
M 9.421875 75.984375 
L 18.40625 75.984375 
L 18.40625 64.59375 
L 9.421875 64.59375 
z
" id="DejaVuSans-69"/>
     <path d="M 56.203125 29.59375 
L 56.203125 25.203125 
L 14.890625 25.203125 
Q 15.484375 15.921875 20.484375 11.0625 
Q 25.484375 6.203125 34.421875 6.203125 
Q 39.59375 6.203125 44.453125 7.46875 
Q 49.3125 8.734375 54.109375 11.28125 
L 54.109375 2.78125 
Q 49.265625 0.734375 44.1875 -0.34375 
Q 39.109375 -1.421875 33.890625 -1.421875 
Q 20.796875 -1.421875 13.15625 6.1875 
Q 5.515625 13.8125 5.515625 26.8125 
Q 5.515625 40.234375 12.765625 48.109375 
Q 20.015625 56 32.328125 56 
Q 43.359375 56 49.78125 48.890625 
Q 56.203125 41.796875 56.203125 29.59375 
z
M 47.21875 32.234375 
Q 47.125 39.59375 43.09375 43.984375 
Q 39.0625 48.390625 32.421875 48.390625 
Q 24.90625 48.390625 20.390625 44.140625 
Q 15.875 39.890625 15.1875 32.171875 
z
" id="DejaVuSans-65"/>
     <path d="M 34.28125 27.484375 
Q 23.390625 27.484375 19.1875 25 
Q 14.984375 22.515625 14.984375 16.5 
Q 14.984375 11.71875 18.140625 8.90625 
Q 21.296875 6.109375 26.703125 6.109375 
Q 34.1875 6.109375 38.703125 11.40625 
Q 43.21875 16.703125 43.21875 25.484375 
L 43.21875 27.484375 
z
M 52.203125 31.203125 
L 52.203125 0 
L 43.21875 0 
L 43.21875 8.296875 
Q 40.140625 3.328125 35.546875 0.953125 
Q 30.953125 -1.421875 24.3125 -1.421875 
Q 15.921875 -1.421875 10.953125 3.296875 
Q 6 8.015625 6 15.921875 
Q 6 25.140625 12.171875 29.828125 
Q 18.359375 34.515625 30.609375 34.515625 
L 43.21875 34.515625 
L 43.21875 35.40625 
Q 43.21875 41.609375 39.140625 45 
Q 35.0625 48.390625 27.6875 48.390625 
Q 23 48.390625 18.546875 47.265625 
Q 14.109375 46.140625 10.015625 43.890625 
L 10.015625 52.203125 
Q 14.9375 54.109375 19.578125 55.046875 
Q 24.21875 56 28.609375 56 
Q 40.484375 56 46.34375 49.84375 
Q 52.203125 43.703125 52.203125 31.203125 
z
" id="DejaVuSans-61"/>
     <path d="M 32.171875 -5.078125 
Q 28.375 -14.84375 24.75 -17.8125 
Q 21.140625 -20.796875 15.09375 -20.796875 
L 7.90625 -20.796875 
L 7.90625 -13.28125 
L 13.1875 -13.28125 
Q 16.890625 -13.28125 18.9375 -11.515625 
Q 21 -9.765625 23.484375 -3.21875 
L 25.09375 0.875 
L 2.984375 54.6875 
L 12.5 54.6875 
L 29.59375 11.921875 
L 46.6875 54.6875 
L 56.203125 54.6875 
z
" id="DejaVuSans-79"/>
    </defs>
    <g transform="translate(106.217812 28.56)scale(0.12 -0.12)">
     <use xlink:href="#DejaVuSans-6d"/>
     <use x="97.412109" xlink:href="#DejaVuSans-75"/>
     <use x="160.791016" xlink:href="#DejaVuSans-6c"/>
     <use x="188.574219" xlink:href="#DejaVuSans-74"/>
     <use x="227.783203" xlink:href="#DejaVuSans-69"/>
     <use x="255.566406" xlink:href="#DejaVuSans-64"/>
     <use x="319.042969" xlink:href="#DejaVuSans-65"/>
     <use x="380.566406" xlink:href="#DejaVuSans-6c"/>
     <use x="408.349609" xlink:href="#DejaVuSans-61"/>
     <use x="469.628906" xlink:href="#DejaVuSans-79"/>
     <use x="528.808594" xlink:href="#DejaVuSans-64"/>
     <use x="592.285156" xlink:href="#DejaVuSans-6d"/>
    </g>
   </g>
   <g id="legend_1">
    <g id="patch_7">
     <path d="M 191.629687 71.91625 
L 252.2 71.91625 
Q 254.2 71.91625 254.2 69.91625 
L 254.2 41.56 
Q 254.2 39.56 252.2 39.56 
L 191.629687 39.56 
Q 189.629687 39.56 189.629687 41.56 
L 189.629687 69.91625 
Q 189.629687 71.91625 191.629687 71.91625 
z
" style="fill:#ffffff;opacity:0.8;stroke:#cccccc;stroke-linejoin:miter;"/>
    </g>
    <g id="PathCollection_3">
     <defs>
      <path d="M 0 4.745379 
C 1.258489 4.745379 2.465604 4.245376 3.35549 3.35549 
C 4.245376 2.465604 4.745379 1.258489 4.745379 0 
C 4.745379 -1.258489 4.245376 -2.465604 3.35549 -3.35549 
C 2.465604 -4.245376 1.258489 -4.745379 0 -4.745379 
C -1.258489 -4.745379 -2.465604 -4.245376 -3.35549 -3.35549 
C -4.245376 -2.465604 -4.745379 -1.258489 -4.745379 0 
C -4.745379 1.258489 -4.245376 2.465604 -3.35549 3.35549 
C -2.465604 4.245376 -1.258489 4.745379 0 4.745379 
z
" id="m7dd087d1ae" style="stroke:#008000;stroke-opacity:0.5;"/>
     </defs>
     <g>
      <use style="fill:#008000;fill-opacity:0.5;stroke:#008000;stroke-opacity:0.5;" x="203.629687" xlink:href="#m7dd087d1ae" y="48.533437"/>
     </g>
    </g>
    <g id="text_16">
     <!-- mod1 -->
     <defs>
      <path d="M 12.40625 8.296875 
L 28.515625 8.296875 
L 28.515625 63.921875 
L 10.984375 60.40625 
L 10.984375 69.390625 
L 28.421875 72.90625 
L 38.28125 72.90625 
L 38.28125 8.296875 
L 54.390625 8.296875 
L 54.390625 0 
L 12.40625 0 
z
" id="DejaVuSans-31"/>
     </defs>
     <g transform="translate(221.629687 51.158437)scale(0.1 -0.1)">
      <use xlink:href="#DejaVuSans-6d"/>
      <use x="97.412109" xlink:href="#DejaVuSans-6f"/>
      <use x="158.59375" xlink:href="#DejaVuSans-64"/>
      <use x="222.070312" xlink:href="#DejaVuSans-31"/>
     </g>
    </g>
    <g id="PathCollection_4">
     <defs>
      <path d="M 0 4.745379 
C 1.258489 4.745379 2.465604 4.245376 3.35549 3.35549 
C 4.245376 2.465604 4.745379 1.258489 4.745379 0 
C 4.745379 -1.258489 4.245376 -2.465604 3.35549 -3.35549 
C 2.465604 -4.245376 1.258489 -4.745379 0 -4.745379 
C -1.258489 -4.745379 -2.465604 -4.245376 -3.35549 -3.35549 
C -4.245376 -2.465604 -4.745379 -1.258489 -4.745379 0 
C -4.745379 1.258489 -4.245376 2.465604 -3.35549 3.35549 
C -2.465604 4.245376 -1.258489 4.745379 0 4.745379 
z
" id="me5b8e3e59e" style="stroke:#000000;stroke-opacity:0.5;"/>
     </defs>
     <g>
      <use style="fill-opacity:0.5;stroke:#000000;stroke-opacity:0.5;" x="203.629687" xlink:href="#me5b8e3e59e" y="63.211562"/>
     </g>
    </g>
    <g id="text_17">
     <!-- mod2 -->
     <g transform="translate(221.629687 65.836562)scale(0.1 -0.1)">
      <use xlink:href="#DejaVuSans-6d"/>
      <use x="97.412109" xlink:href="#DejaVuSans-6f"/>
      <use x="158.59375" xlink:href="#DejaVuSans-64"/>
      <use x="222.070312" xlink:href="#DejaVuSans-32"/>
     </g>
    </g>
   </g>
  </g>
 </g>
 <defs>
  <clipPath id="pfb22df24de">
   <rect height="221.76" width="223.2" x="36" y="34.56"/>
  </clipPath>
 </defs>
</svg>
