<?xml version="1.0" encoding="utf-8" standalone="no"?>
<!DOCTYPE svg PUBLIC "-//W3C//DTD SVG 1.1//EN"
  "http://www.w3.org/Graphics/SVG/1.1/DTD/svg11.dtd">
<!-- Created with matplotlib (http://matplotlib.org/) -->
<svg height="432pt" version="1.1" viewBox="0 0 864 432" width="864pt" xmlns="http://www.w3.org/2000/svg" xmlns:xlink="http://www.w3.org/1999/xlink">
 <defs>
  <style type="text/css">
*{stroke-linecap:butt;stroke-linejoin:round;}
  </style>
 </defs>
 <g id="figure_1">
  <g id="patch_1">
   <path d="M 0 432 
L 864 432 
L 864 0 
L 0 0 
z
" style="fill:#ffffff;"/>
  </g>
  <g id="axes_1">
   <g id="patch_2">
    <path d="M 63.1325 383.648182 
L 410.1175 383.648182 
L 410.1175 26.970818 
L 63.1325 26.970818 
z
" style="fill:#ffffff;"/>
   </g>
   <g id="matplotlib.axis_1">
    <g id="xtick_1">
     <g id="line2d_1">
      <defs>
       <path d="M 0 0 
L 0 3.5 
" id="m3b70f48643" style="stroke:#000000;stroke-width:0.8;"/>
      </defs>
      <g>
       <use style="stroke:#000000;stroke-width:0.8;" x="69.786604" xlink:href="#m3b70f48643" y="383.648182"/>
      </g>
     </g>
     <g id="text_1">
      <!-- −0.75 -->
      <defs>
       <path d="M 10.59375 35.5 
L 73.1875 35.5 
L 73.1875 27.203125 
L 10.59375 27.203125 
z
" id="DejaVuSans-2212"/>
       <path d="M 31.78125 66.40625 
Q 24.171875 66.40625 20.328125 58.90625 
Q 16.5 51.421875 16.5 36.375 
Q 16.5 21.390625 20.328125 13.890625 
Q 24.171875 6.390625 31.78125 6.390625 
Q 39.453125 6.390625 43.28125 13.890625 
Q 47.125 21.390625 47.125 36.375 
Q 47.125 51.421875 43.28125 58.90625 
Q 39.453125 66.40625 31.78125 66.40625 
z
M 31.78125 74.21875 
Q 44.046875 74.21875 50.515625 64.515625 
Q 56.984375 54.828125 56.984375 36.375 
Q 56.984375 17.96875 50.515625 8.265625 
Q 44.046875 -1.421875 31.78125 -1.421875 
Q 19.53125 -1.421875 13.0625 8.265625 
Q 6.59375 17.96875 6.59375 36.375 
Q 6.59375 54.828125 13.0625 64.515625 
Q 19.53125 74.21875 31.78125 74.21875 
z
" id="DejaVuSans-30"/>
       <path d="M 10.6875 12.40625 
L 21 12.40625 
L 21 0 
L 10.6875 0 
z
" id="DejaVuSans-2e"/>
       <path d="M 8.203125 72.90625 
L 55.078125 72.90625 
L 55.078125 68.703125 
L 28.609375 0 
L 18.3125 0 
L 43.21875 64.59375 
L 8.203125 64.59375 
z
" id="DejaVuSans-37"/>
       <path d="M 10.796875 72.90625 
L 49.515625 72.90625 
L 49.515625 64.59375 
L 19.828125 64.59375 
L 19.828125 46.734375 
Q 21.96875 47.46875 24.109375 47.828125 
Q 26.265625 48.1875 28.421875 48.1875 
Q 40.625 48.1875 47.75 41.5 
Q 54.890625 34.8125 54.890625 23.390625 
Q 54.890625 11.625 47.5625 5.09375 
Q 40.234375 -1.421875 26.90625 -1.421875 
Q 22.3125 -1.421875 17.546875 -0.640625 
Q 12.796875 0.140625 7.71875 1.703125 
L 7.71875 11.625 
Q 12.109375 9.234375 16.796875 8.0625 
Q 21.484375 6.890625 26.703125 6.890625 
Q 35.15625 6.890625 40.078125 11.328125 
Q 45.015625 15.765625 45.015625 23.390625 
Q 45.015625 31 40.078125 35.4375 
Q 35.15625 39.890625 26.703125 39.890625 
Q 22.75 39.890625 18.8125 39.015625 
Q 14.890625 38.140625 10.796875 36.28125 
z
" id="DejaVuSans-35"/>
      </defs>
      <g transform="translate(45.270354 402.805682)scale(0.16 -0.16)">
       <use xlink:href="#DejaVuSans-2212"/>
       <use x="83.789062" xlink:href="#DejaVuSans-30"/>
       <use x="147.412109" xlink:href="#DejaVuSans-2e"/>
       <use x="179.199219" xlink:href="#DejaVuSans-37"/>
       <use x="242.822266" xlink:href="#DejaVuSans-35"/>
      </g>
     </g>
    </g>
    <g id="xtick_2">
     <g id="line2d_2">
      <g>
       <use style="stroke:#000000;stroke-width:0.8;" x="128.547561" xlink:href="#m3b70f48643" y="383.648182"/>
      </g>
     </g>
     <g id="text_2">
      <!-- −0.50 -->
      <g transform="translate(104.031311 402.805682)scale(0.16 -0.16)">
       <use xlink:href="#DejaVuSans-2212"/>
       <use x="83.789062" xlink:href="#DejaVuSans-30"/>
       <use x="147.412109" xlink:href="#DejaVuSans-2e"/>
       <use x="179.199219" xlink:href="#DejaVuSans-35"/>
       <use x="242.822266" xlink:href="#DejaVuSans-30"/>
      </g>
     </g>
    </g>
    <g id="xtick_3">
     <g id="line2d_3">
      <g>
       <use style="stroke:#000000;stroke-width:0.8;" x="187.308517" xlink:href="#m3b70f48643" y="383.648182"/>
      </g>
     </g>
     <g id="text_3">
      <!-- −0.25 -->
      <defs>
       <path d="M 19.1875 8.296875 
L 53.609375 8.296875 
L 53.609375 0 
L 7.328125 0 
L 7.328125 8.296875 
Q 12.9375 14.109375 22.625 23.890625 
Q 32.328125 33.6875 34.8125 36.53125 
Q 39.546875 41.84375 41.421875 45.53125 
Q 43.3125 49.21875 43.3125 52.78125 
Q 43.3125 58.59375 39.234375 62.25 
Q 35.15625 65.921875 28.609375 65.921875 
Q 23.96875 65.921875 18.8125 64.3125 
Q 13.671875 62.703125 7.8125 59.421875 
L 7.8125 69.390625 
Q 13.765625 71.78125 18.9375 73 
Q 24.125 74.21875 28.421875 74.21875 
Q 39.75 74.21875 46.484375 68.546875 
Q 53.21875 62.890625 53.21875 53.421875 
Q 53.21875 48.921875 51.53125 44.890625 
Q 49.859375 40.875 45.40625 35.40625 
Q 44.1875 33.984375 37.640625 27.21875 
Q 31.109375 20.453125 19.1875 8.296875 
z
" id="DejaVuSans-32"/>
      </defs>
      <g transform="translate(162.792267 402.805682)scale(0.16 -0.16)">
       <use xlink:href="#DejaVuSans-2212"/>
       <use x="83.789062" xlink:href="#DejaVuSans-30"/>
       <use x="147.412109" xlink:href="#DejaVuSans-2e"/>
       <use x="179.199219" xlink:href="#DejaVuSans-32"/>
       <use x="242.822266" xlink:href="#DejaVuSans-35"/>
      </g>
     </g>
    </g>
    <g id="xtick_4">
     <g id="line2d_4">
      <g>
       <use style="stroke:#000000;stroke-width:0.8;" x="246.069474" xlink:href="#m3b70f48643" y="383.648182"/>
      </g>
     </g>
     <g id="text_4">
      <!-- 0.00 -->
      <g transform="translate(228.256974 402.805682)scale(0.16 -0.16)">
       <use xlink:href="#DejaVuSans-30"/>
       <use x="63.623047" xlink:href="#DejaVuSans-2e"/>
       <use x="95.410156" xlink:href="#DejaVuSans-30"/>
       <use x="159.033203" xlink:href="#DejaVuSans-30"/>
      </g>
     </g>
    </g>
    <g id="xtick_5">
     <g id="line2d_5">
      <g>
       <use style="stroke:#000000;stroke-width:0.8;" x="304.83043" xlink:href="#m3b70f48643" y="383.648182"/>
      </g>
     </g>
     <g id="text_5">
      <!-- 0.25 -->
      <g transform="translate(287.01793 402.805682)scale(0.16 -0.16)">
       <use xlink:href="#DejaVuSans-30"/>
       <use x="63.623047" xlink:href="#DejaVuSans-2e"/>
       <use x="95.410156" xlink:href="#DejaVuSans-32"/>
       <use x="159.033203" xlink:href="#DejaVuSans-35"/>
      </g>
     </g>
    </g>
    <g id="xtick_6">
     <g id="line2d_6">
      <g>
       <use style="stroke:#000000;stroke-width:0.8;" x="363.591387" xlink:href="#m3b70f48643" y="383.648182"/>
      </g>
     </g>
     <g id="text_6">
      <!-- 0.50 -->
      <g transform="translate(345.778887 402.805682)scale(0.16 -0.16)">
       <use xlink:href="#DejaVuSans-30"/>
       <use x="63.623047" xlink:href="#DejaVuSans-2e"/>
       <use x="95.410156" xlink:href="#DejaVuSans-35"/>
       <use x="159.033203" xlink:href="#DejaVuSans-30"/>
      </g>
     </g>
    </g>
   </g>
   <g id="matplotlib.axis_2">
    <g id="ytick_1">
     <g id="line2d_7">
      <defs>
       <path d="M 0 0 
L -3.5 0 
" id="mfccdde9404" style="stroke:#000000;stroke-width:0.8;"/>
      </defs>
      <g>
       <use style="stroke:#000000;stroke-width:0.8;" x="63.1325" xlink:href="#mfccdde9404" y="381.116076"/>
      </g>
     </g>
     <g id="text_7">
      <!-- −0.6 -->
      <defs>
       <path d="M 33.015625 40.375 
Q 26.375 40.375 22.484375 35.828125 
Q 18.609375 31.296875 18.609375 23.390625 
Q 18.609375 15.53125 22.484375 10.953125 
Q 26.375 6.390625 33.015625 6.390625 
Q 39.65625 6.390625 43.53125 10.953125 
Q 47.40625 15.53125 47.40625 23.390625 
Q 47.40625 31.296875 43.53125 35.828125 
Q 39.65625 40.375 33.015625 40.375 
z
M 52.59375 71.296875 
L 52.59375 62.3125 
Q 48.875 64.0625 45.09375 64.984375 
Q 41.3125 65.921875 37.59375 65.921875 
Q 27.828125 65.921875 22.671875 59.328125 
Q 17.53125 52.734375 16.796875 39.40625 
Q 19.671875 43.65625 24.015625 45.921875 
Q 28.375 48.1875 33.59375 48.1875 
Q 44.578125 48.1875 50.953125 41.515625 
Q 57.328125 34.859375 57.328125 23.390625 
Q 57.328125 12.15625 50.6875 5.359375 
Q 44.046875 -1.421875 33.015625 -1.421875 
Q 20.359375 -1.421875 13.671875 8.265625 
Q 6.984375 17.96875 6.984375 36.375 
Q 6.984375 53.65625 15.1875 63.9375 
Q 23.390625 74.21875 37.203125 74.21875 
Q 40.921875 74.21875 44.703125 73.484375 
Q 48.484375 72.75 52.59375 71.296875 
z
" id="DejaVuSans-36"/>
      </defs>
      <g transform="translate(17.28 387.194826)scale(0.16 -0.16)">
       <use xlink:href="#DejaVuSans-2212"/>
       <use x="83.789062" xlink:href="#DejaVuSans-30"/>
       <use x="147.412109" xlink:href="#DejaVuSans-2e"/>
       <use x="179.199219" xlink:href="#DejaVuSans-36"/>
      </g>
     </g>
    </g>
    <g id="ytick_2">
     <g id="line2d_8">
      <g>
       <use style="stroke:#000000;stroke-width:0.8;" x="63.1325" xlink:href="#mfccdde9404" y="322.231891"/>
      </g>
     </g>
     <g id="text_8">
      <!-- −0.4 -->
      <defs>
       <path d="M 37.796875 64.3125 
L 12.890625 25.390625 
L 37.796875 25.390625 
z
M 35.203125 72.90625 
L 47.609375 72.90625 
L 47.609375 25.390625 
L 58.015625 25.390625 
L 58.015625 17.1875 
L 47.609375 17.1875 
L 47.609375 0 
L 37.796875 0 
L 37.796875 17.1875 
L 4.890625 17.1875 
L 4.890625 26.703125 
z
" id="DejaVuSans-34"/>
      </defs>
      <g transform="translate(17.28 328.310641)scale(0.16 -0.16)">
       <use xlink:href="#DejaVuSans-2212"/>
       <use x="83.789062" xlink:href="#DejaVuSans-30"/>
       <use x="147.412109" xlink:href="#DejaVuSans-2e"/>
       <use x="179.199219" xlink:href="#DejaVuSans-34"/>
      </g>
     </g>
    </g>
    <g id="ytick_3">
     <g id="line2d_9">
      <g>
       <use style="stroke:#000000;stroke-width:0.8;" x="63.1325" xlink:href="#mfccdde9404" y="263.347706"/>
      </g>
     </g>
     <g id="text_9">
      <!-- −0.2 -->
      <g transform="translate(17.28 269.426456)scale(0.16 -0.16)">
       <use xlink:href="#DejaVuSans-2212"/>
       <use x="83.789062" xlink:href="#DejaVuSans-30"/>
       <use x="147.412109" xlink:href="#DejaVuSans-2e"/>
       <use x="179.199219" xlink:href="#DejaVuSans-32"/>
      </g>
     </g>
    </g>
    <g id="ytick_4">
     <g id="line2d_10">
      <g>
       <use style="stroke:#000000;stroke-width:0.8;" x="63.1325" xlink:href="#mfccdde9404" y="204.463521"/>
      </g>
     </g>
     <g id="text_10">
      <!-- 0.0 -->
      <g transform="translate(30.6875 210.542271)scale(0.16 -0.16)">
       <use xlink:href="#DejaVuSans-30"/>
       <use x="63.623047" xlink:href="#DejaVuSans-2e"/>
       <use x="95.410156" xlink:href="#DejaVuSans-30"/>
      </g>
     </g>
    </g>
    <g id="ytick_5">
     <g id="line2d_11">
      <g>
       <use style="stroke:#000000;stroke-width:0.8;" x="63.1325" xlink:href="#mfccdde9404" y="145.579336"/>
      </g>
     </g>
     <g id="text_11">
      <!-- 0.2 -->
      <g transform="translate(30.6875 151.658086)scale(0.16 -0.16)">
       <use xlink:href="#DejaVuSans-30"/>
       <use x="63.623047" xlink:href="#DejaVuSans-2e"/>
       <use x="95.410156" xlink:href="#DejaVuSans-32"/>
      </g>
     </g>
    </g>
    <g id="ytick_6">
     <g id="line2d_12">
      <g>
       <use style="stroke:#000000;stroke-width:0.8;" x="63.1325" xlink:href="#mfccdde9404" y="86.695151"/>
      </g>
     </g>
     <g id="text_12">
      <!-- 0.4 -->
      <g transform="translate(30.6875 92.773901)scale(0.16 -0.16)">
       <use xlink:href="#DejaVuSans-30"/>
       <use x="63.623047" xlink:href="#DejaVuSans-2e"/>
       <use x="95.410156" xlink:href="#DejaVuSans-34"/>
      </g>
     </g>
    </g>
    <g id="ytick_7">
     <g id="line2d_13">
      <g>
       <use style="stroke:#000000;stroke-width:0.8;" x="63.1325" xlink:href="#mfccdde9404" y="27.810966"/>
      </g>
     </g>
     <g id="text_13">
      <!-- 0.6 -->
      <g transform="translate(30.6875 33.889716)scale(0.16 -0.16)">
       <use xlink:href="#DejaVuSans-30"/>
       <use x="63.623047" xlink:href="#DejaVuSans-2e"/>
       <use x="95.410156" xlink:href="#DejaVuSans-36"/>
      </g>
     </g>
    </g>
   </g>
   <g id="line2d_14">
    <defs>
     <path d="M 0 3 
C 0.795609 3 1.55874 2.683901 2.12132 2.12132 
C 2.683901 1.55874 3 0.795609 3 0 
C 3 -0.795609 2.683901 -1.55874 2.12132 -2.12132 
C 1.55874 -2.683901 0.795609 -3 0 -3 
C -0.795609 -3 -1.55874 -2.683901 -2.12132 -2.12132 
C -2.683901 -1.55874 -3 -0.795609 -3 0 
C -3 0.795609 -2.683901 1.55874 -2.12132 2.12132 
C -1.55874 2.683901 -0.795609 3 0 3 
z
" id="mce911d4456" style="stroke:#1f77b4;"/>
    </defs>
    <g clip-path="url(#p8d6e4194dd)">
     <use style="fill:#1f77b4;stroke:#1f77b4;" x="394.345455" xlink:href="#mce911d4456" y="261.108611"/>
    </g>
   </g>
   <g id="line2d_15">
    <defs>
     <path d="M 0 3 
C 0.795609 3 1.55874 2.683901 2.12132 2.12132 
C 2.683901 1.55874 3 0.795609 3 0 
C 3 -0.795609 2.683901 -1.55874 2.12132 -2.12132 
C 1.55874 -2.683901 0.795609 -3 0 -3 
C -0.795609 -3 -1.55874 -2.683901 -2.12132 -2.12132 
C -2.683901 -1.55874 -3 -0.795609 -3 0 
C -3 0.795609 -2.683901 1.55874 -2.12132 2.12132 
C -1.55874 2.683901 -0.795609 3 0 3 
z
" id="m4ede6e5504" style="stroke:#8c564b;"/>
    </defs>
    <g clip-path="url(#p8d6e4194dd)">
     <use style="fill:#8c564b;stroke:#8c564b;" x="97.450137" xlink:href="#m4ede6e5504" y="324.531669"/>
    </g>
   </g>
   <g id="line2d_16">
    <defs>
     <path d="M 0 3 
C 0.795609 3 1.55874 2.683901 2.12132 2.12132 
C 2.683901 1.55874 3 0.795609 3 0 
C 3 -0.795609 2.683901 -1.55874 2.12132 -2.12132 
C 1.55874 -2.683901 0.795609 -3 0 -3 
C -0.795609 -3 -1.55874 -2.683901 -2.12132 -2.12132 
C -2.683901 -1.55874 -3 -0.795609 -3 0 
C -3 0.795609 -2.683901 1.55874 -2.12132 2.12132 
C -1.55874 2.683901 -0.795609 3 0 3 
z
" id="ma27b1759aa" style="stroke:#ff7f0e;"/>
    </defs>
    <g clip-path="url(#p8d6e4194dd)">
     <use style="fill:#ff7f0e;stroke:#ff7f0e;" x="247.444799" xlink:href="#ma27b1759aa" y="43.183426"/>
    </g>
   </g>
   <g id="line2d_17">
    <g clip-path="url(#p8d6e4194dd)">
     <use style="fill:#1f77b4;stroke:#1f77b4;" x="315.929383" xlink:href="#mce911d4456" y="367.435574"/>
    </g>
   </g>
   <g id="line2d_18">
    <g clip-path="url(#p8d6e4194dd)">
     <use style="fill:#8c564b;stroke:#8c564b;" x="78.904545" xlink:href="#m4ede6e5504" y="194.762724"/>
    </g>
   </g>
   <g id="line2d_19">
    <g clip-path="url(#p8d6e4194dd)">
     <use style="fill:#ff7f0e;stroke:#ff7f0e;" x="279.513267" xlink:href="#ma27b1759aa" y="167.41665"/>
    </g>
   </g>
   <g id="line2d_20">
    <defs>
     <path d="M 0 3 
C 0.795609 3 1.55874 2.683901 2.12132 2.12132 
C 2.683901 1.55874 3 0.795609 3 0 
C 3 -0.795609 2.683901 -1.55874 2.12132 -2.12132 
C 1.55874 -2.683901 0.795609 -3 0 -3 
C -0.795609 -3 -1.55874 -2.683901 -2.12132 -2.12132 
C -2.683901 -1.55874 -3 -0.795609 -3 0 
C -3 0.795609 -2.683901 1.55874 -2.12132 2.12132 
C -1.55874 2.683901 -0.795609 3 0 3 
z
" id="m088856f7c1" style="stroke:#9467bd;"/>
    </defs>
    <g clip-path="url(#p8d6e4194dd)">
     <use style="fill:#9467bd;stroke:#9467bd;" x="201.327725" xlink:href="#m088856f7c1" y="92.846071"/>
    </g>
   </g>
   <g id="line2d_21">
    <g clip-path="url(#p8d6e4194dd)">
     <use style="fill:#9467bd;stroke:#9467bd;" x="205.076764" xlink:href="#m088856f7c1" y="103.163719"/>
    </g>
   </g>
   <g id="line2d_22">
    <defs>
     <path d="M 0 3 
C 0.795609 3 1.55874 2.683901 2.12132 2.12132 
C 2.683901 1.55874 3 0.795609 3 0 
C 3 -0.795609 2.683901 -1.55874 2.12132 -2.12132 
C 1.55874 -2.683901 0.795609 -3 0 -3 
C -0.795609 -3 -1.55874 -2.683901 -2.12132 -2.12132 
C -2.683901 -1.55874 -3 -0.795609 -3 0 
C -3 0.795609 -2.683901 1.55874 -2.12132 2.12132 
C -1.55874 2.683901 -0.795609 3 0 3 
z
" id="ma2a136fb80" style="stroke:#2ca02c;"/>
    </defs>
    <g clip-path="url(#p8d6e4194dd)">
     <use style="fill:#2ca02c;stroke:#2ca02c;" x="341.365116" xlink:href="#ma2a136fb80" y="110.134826"/>
    </g>
   </g>
   <g id="line2d_23">
    <g clip-path="url(#p8d6e4194dd)">
     <use style="fill:#2ca02c;stroke:#2ca02c;" x="328.650102" xlink:href="#ma2a136fb80" y="153.443763"/>
    </g>
   </g>
   <g id="line2d_24">
    <defs>
     <path d="M 0 3 
C 0.795609 3 1.55874 2.683901 2.12132 2.12132 
C 2.683901 1.55874 3 0.795609 3 0 
C 3 -0.795609 2.683901 -1.55874 2.12132 -2.12132 
C 1.55874 -2.683901 0.795609 -3 0 -3 
C -0.795609 -3 -1.55874 -2.683901 -2.12132 -2.12132 
C -2.683901 -1.55874 -3 -0.795609 -3 0 
C -3 0.795609 -2.683901 1.55874 -2.12132 2.12132 
C -1.55874 2.683901 -0.795609 3 0 3 
z
" id="m96374df489" style="stroke:#d62728;"/>
    </defs>
    <g clip-path="url(#p8d6e4194dd)">
     <use style="fill:#d62728;stroke:#d62728;" x="228.64107" xlink:href="#m96374df489" y="339.407701"/>
    </g>
   </g>
   <g id="line2d_25">
    <g clip-path="url(#p8d6e4194dd)">
     <use style="fill:#d62728;stroke:#d62728;" x="234.185324" xlink:href="#m96374df489" y="296.127522"/>
    </g>
   </g>
   <g id="patch_3">
    <path d="M 63.1325 383.648182 
L 63.1325 26.970818 
" style="fill:none;stroke:#000000;stroke-linecap:square;stroke-linejoin:miter;stroke-width:0.8;"/>
   </g>
   <g id="patch_4">
    <path d="M 410.1175 383.648182 
L 410.1175 26.970818 
" style="fill:none;stroke:#000000;stroke-linecap:square;stroke-linejoin:miter;stroke-width:0.8;"/>
   </g>
   <g id="patch_5">
    <path d="M 63.1325 383.648182 
L 410.1175 383.648182 
" style="fill:none;stroke:#000000;stroke-linecap:square;stroke-linejoin:miter;stroke-width:0.8;"/>
   </g>
   <g id="patch_6">
    <path d="M 63.1325 26.970818 
L 410.1175 26.970818 
" style="fill:none;stroke:#000000;stroke-linecap:square;stroke-linejoin:miter;stroke-width:0.8;"/>
   </g>
   <g id="text_14">
    <g id="patch_7">
     <path d="M 392.425455 266.481111 
L 471.230455 266.481111 
L 471.230455 247.031111 
L 392.425455 247.031111 
z
" style="fill:#1f77b4;opacity:0.5;"/>
    </g>
    <!-- DelayGo -->
    <defs>
     <path d="M 27.984375 58.6875 
L 27.984375 14.203125 
L 34.71875 14.203125 
Q 46.234375 14.203125 52.3125 19.921875 
Q 58.40625 25.640625 58.40625 36.53125 
Q 58.40625 47.359375 52.34375 53.015625 
Q 46.296875 58.6875 34.71875 58.6875 
z
M 9.1875 72.90625 
L 29 72.90625 
Q 45.609375 72.90625 53.734375 70.53125 
Q 61.859375 68.171875 67.671875 62.5 
Q 72.796875 57.5625 75.28125 51.109375 
Q 77.78125 44.671875 77.78125 36.53125 
Q 77.78125 28.265625 75.28125 21.796875 
Q 72.796875 15.328125 67.671875 10.40625 
Q 61.8125 4.734375 53.609375 2.359375 
Q 45.40625 0 29 0 
L 9.1875 0 
z
" id="DejaVuSans-Bold-44"/>
     <path d="M 62.984375 27.484375 
L 62.984375 22.515625 
L 22.125 22.515625 
Q 22.75 16.359375 26.5625 13.28125 
Q 30.375 10.203125 37.203125 10.203125 
Q 42.71875 10.203125 48.5 11.84375 
Q 54.296875 13.484375 60.40625 16.796875 
L 60.40625 3.328125 
Q 54.203125 0.984375 48 -0.21875 
Q 41.796875 -1.421875 35.59375 -1.421875 
Q 20.75 -1.421875 12.515625 6.125 
Q 4.296875 13.671875 4.296875 27.296875 
Q 4.296875 40.671875 12.375 48.328125 
Q 20.453125 56 34.625 56 
Q 47.515625 56 55.25 48.234375 
Q 62.984375 40.484375 62.984375 27.484375 
z
M 45.015625 33.296875 
Q 45.015625 38.28125 42.109375 41.328125 
Q 39.203125 44.390625 34.515625 44.390625 
Q 29.4375 44.390625 26.265625 41.53125 
Q 23.09375 38.671875 22.3125 33.296875 
z
" id="DejaVuSans-Bold-65"/>
     <path d="M 8.40625 75.984375 
L 25.875 75.984375 
L 25.875 0 
L 8.40625 0 
z
" id="DejaVuSans-Bold-6c"/>
     <path d="M 32.90625 24.609375 
Q 27.4375 24.609375 24.671875 22.75 
Q 21.921875 20.90625 21.921875 17.28125 
Q 21.921875 13.96875 24.140625 12.078125 
Q 26.375 10.203125 30.328125 10.203125 
Q 35.25 10.203125 38.625 13.734375 
Q 42 17.28125 42 22.609375 
L 42 24.609375 
z
M 59.625 31.203125 
L 59.625 0 
L 42 0 
L 42 8.109375 
Q 38.484375 3.125 34.078125 0.84375 
Q 29.6875 -1.421875 23.390625 -1.421875 
Q 14.890625 -1.421875 9.59375 3.53125 
Q 4.296875 8.5 4.296875 16.40625 
Q 4.296875 26.03125 10.90625 30.515625 
Q 17.53125 35.015625 31.6875 35.015625 
L 42 35.015625 
L 42 36.375 
Q 42 40.53125 38.71875 42.453125 
Q 35.453125 44.390625 28.515625 44.390625 
Q 22.90625 44.390625 18.0625 43.265625 
Q 13.234375 42.140625 9.078125 39.890625 
L 9.078125 53.21875 
Q 14.703125 54.59375 20.359375 55.296875 
Q 26.03125 56 31.6875 56 
Q 46.484375 56 53.046875 50.171875 
Q 59.625 44.34375 59.625 31.203125 
z
" id="DejaVuSans-Bold-61"/>
     <path d="M 1.21875 54.6875 
L 18.703125 54.6875 
L 33.40625 17.578125 
L 45.90625 54.6875 
L 63.375 54.6875 
L 40.375 -5.171875 
Q 36.921875 -14.3125 32.296875 -17.9375 
Q 27.6875 -21.578125 20.125 -21.578125 
L 10.015625 -21.578125 
L 10.015625 -10.109375 
L 15.484375 -10.109375 
Q 19.921875 -10.109375 21.9375 -8.6875 
Q 23.96875 -7.28125 25.09375 -3.609375 
L 25.59375 -2.09375 
z
" id="DejaVuSans-Bold-79"/>
     <path d="M 74.703125 5.421875 
Q 67.671875 2 60.109375 0.28125 
Q 52.546875 -1.421875 44.484375 -1.421875 
Q 26.265625 -1.421875 15.625 8.765625 
Q 4.984375 18.953125 4.984375 36.375 
Q 4.984375 54 15.8125 64.109375 
Q 26.65625 74.21875 45.515625 74.21875 
Q 52.78125 74.21875 59.4375 72.84375 
Q 66.109375 71.484375 72.015625 68.796875 
L 72.015625 53.71875 
Q 65.921875 57.171875 59.890625 58.875 
Q 53.859375 60.59375 47.796875 60.59375 
Q 36.578125 60.59375 30.5 54.3125 
Q 24.421875 48.046875 24.421875 36.375 
Q 24.421875 24.8125 30.28125 18.5 
Q 36.140625 12.203125 46.921875 12.203125 
Q 49.859375 12.203125 52.375 12.5625 
Q 54.890625 12.9375 56.890625 13.71875 
L 56.890625 27.875 
L 45.40625 27.875 
L 45.40625 40.484375 
L 74.703125 40.484375 
z
" id="DejaVuSans-Bold-47"/>
     <path d="M 34.421875 43.5 
Q 28.609375 43.5 25.5625 39.328125 
Q 22.515625 35.15625 22.515625 27.296875 
Q 22.515625 19.4375 25.5625 15.25 
Q 28.609375 11.078125 34.421875 11.078125 
Q 40.140625 11.078125 43.15625 15.25 
Q 46.1875 19.4375 46.1875 27.296875 
Q 46.1875 35.15625 43.15625 39.328125 
Q 40.140625 43.5 34.421875 43.5 
z
M 34.421875 56 
Q 48.53125 56 56.46875 48.375 
Q 64.40625 40.765625 64.40625 27.296875 
Q 64.40625 13.8125 56.46875 6.1875 
Q 48.53125 -1.421875 34.421875 -1.421875 
Q 20.265625 -1.421875 12.28125 6.1875 
Q 4.296875 13.8125 4.296875 27.296875 
Q 4.296875 40.765625 12.28125 48.375 
Q 20.265625 56 34.421875 56 
z
" id="DejaVuSans-Bold-6f"/>
    </defs>
    <g transform="translate(394.345455 261.108611)scale(0.16 -0.16)">
     <use xlink:href="#DejaVuSans-Bold-44"/>
     <use x="83.007812" xlink:href="#DejaVuSans-Bold-65"/>
     <use x="150.830078" xlink:href="#DejaVuSans-Bold-6c"/>
     <use x="185.107422" xlink:href="#DejaVuSans-Bold-61"/>
     <use x="252.541016" xlink:href="#DejaVuSans-Bold-79"/>
     <use x="317.726562" xlink:href="#DejaVuSans-Bold-47"/>
     <use x="399.806641" xlink:href="#DejaVuSans-Bold-6f"/>
    </g>
   </g>
   <g id="text_15">
    <g id="patch_8">
     <path d="M 95.530137 329.779169 
L 174.597637 329.779169 
L 174.597637 310.454169 
L 95.530137 310.454169 
z
" style="fill:#8c564b;opacity:0.5;"/>
    </g>
    <!-- ReactGo -->
    <defs>
     <path d="M 35.890625 40.578125 
Q 41.796875 40.578125 44.359375 42.765625 
Q 46.921875 44.96875 46.921875 50 
Q 46.921875 54.984375 44.359375 57.125 
Q 41.796875 59.28125 35.890625 59.28125 
L 27.984375 59.28125 
L 27.984375 40.578125 
z
M 27.984375 27.59375 
L 27.984375 0 
L 9.1875 0 
L 9.1875 72.90625 
L 37.890625 72.90625 
Q 52.296875 72.90625 59 68.0625 
Q 65.71875 63.234375 65.71875 52.78125 
Q 65.71875 45.5625 62.21875 40.921875 
Q 58.734375 36.28125 51.703125 34.078125 
Q 55.5625 33.203125 58.609375 30.09375 
Q 61.671875 27 64.796875 20.703125 
L 75 0 
L 54.984375 0 
L 46.09375 18.109375 
Q 43.40625 23.578125 40.640625 25.578125 
Q 37.890625 27.59375 33.296875 27.59375 
z
" id="DejaVuSans-Bold-52"/>
     <path d="M 52.59375 52.984375 
L 52.59375 38.71875 
Q 49.03125 41.15625 45.4375 42.328125 
Q 41.84375 43.5 37.984375 43.5 
Q 30.671875 43.5 26.59375 39.234375 
Q 22.515625 34.96875 22.515625 27.296875 
Q 22.515625 19.625 26.59375 15.34375 
Q 30.671875 11.078125 37.984375 11.078125 
Q 42.09375 11.078125 45.78125 12.296875 
Q 49.46875 13.53125 52.59375 15.921875 
L 52.59375 1.609375 
Q 48.484375 0.09375 44.265625 -0.65625 
Q 40.046875 -1.421875 35.796875 -1.421875 
Q 21 -1.421875 12.640625 6.171875 
Q 4.296875 13.765625 4.296875 27.296875 
Q 4.296875 40.828125 12.640625 48.40625 
Q 21 56 35.796875 56 
Q 40.09375 56 44.265625 55.25 
Q 48.4375 54.5 52.59375 52.984375 
z
" id="DejaVuSans-Bold-63"/>
     <path d="M 27.484375 70.21875 
L 27.484375 54.6875 
L 45.515625 54.6875 
L 45.515625 42.1875 
L 27.484375 42.1875 
L 27.484375 19 
Q 27.484375 15.1875 29 13.84375 
Q 30.515625 12.5 35.015625 12.5 
L 44 12.5 
L 44 0 
L 29 0 
Q 18.65625 0 14.328125 4.3125 
Q 10.015625 8.640625 10.015625 19 
L 10.015625 42.1875 
L 1.3125 42.1875 
L 1.3125 54.6875 
L 10.015625 54.6875 
L 10.015625 70.21875 
z
" id="DejaVuSans-Bold-74"/>
    </defs>
    <g transform="translate(97.450137 324.531669)scale(0.16 -0.16)">
     <use xlink:href="#DejaVuSans-Bold-52"/>
     <use x="77.001953" xlink:href="#DejaVuSans-Bold-65"/>
     <use x="144.824219" xlink:href="#DejaVuSans-Bold-61"/>
     <use x="212.304688" xlink:href="#DejaVuSans-Bold-63"/>
     <use x="271.582031" xlink:href="#DejaVuSans-Bold-74"/>
     <use x="319.384766" xlink:href="#DejaVuSans-Bold-47"/>
     <use x="401.464844" xlink:href="#DejaVuSans-Bold-6f"/>
    </g>
   </g>
   <g id="text_16">
    <g id="patch_9">
     <path d="M 245.524799 48.555926 
L 346.249799 48.555926 
L 346.249799 29.230926 
L 245.524799 29.230926 
z
" style="fill:#ff7f0e;opacity:0.5;"/>
    </g>
    <!-- MemoryGo -->
    <defs>
     <path d="M 9.1875 72.90625 
L 33.109375 72.90625 
L 49.703125 33.890625 
L 66.40625 72.90625 
L 90.28125 72.90625 
L 90.28125 0 
L 72.515625 0 
L 72.515625 53.328125 
L 55.71875 14.015625 
L 43.796875 14.015625 
L 27 53.328125 
L 27 0 
L 9.1875 0 
z
" id="DejaVuSans-Bold-4d"/>
     <path d="M 59.078125 45.609375 
Q 62.40625 50.6875 66.96875 53.34375 
Q 71.53125 56 77 56 
Q 86.421875 56 91.359375 50.1875 
Q 96.296875 44.390625 96.296875 33.296875 
L 96.296875 0 
L 78.71875 0 
L 78.71875 28.515625 
Q 78.765625 29.15625 78.78125 29.828125 
Q 78.8125 30.515625 78.8125 31.78125 
Q 78.8125 37.59375 77.09375 40.203125 
Q 75.390625 42.828125 71.578125 42.828125 
Q 66.609375 42.828125 63.890625 38.71875 
Q 61.1875 34.625 61.078125 26.859375 
L 61.078125 0 
L 43.5 0 
L 43.5 28.515625 
Q 43.5 37.59375 41.9375 40.203125 
Q 40.375 42.828125 36.375 42.828125 
Q 31.34375 42.828125 28.609375 38.703125 
Q 25.875 34.578125 25.875 26.90625 
L 25.875 0 
L 8.296875 0 
L 8.296875 54.6875 
L 25.875 54.6875 
L 25.875 46.6875 
Q 29.109375 51.3125 33.28125 53.65625 
Q 37.453125 56 42.484375 56 
Q 48.140625 56 52.484375 53.265625 
Q 56.84375 50.53125 59.078125 45.609375 
z
" id="DejaVuSans-Bold-6d"/>
     <path d="M 49.03125 39.796875 
Q 46.734375 40.875 44.453125 41.375 
Q 42.1875 41.890625 39.890625 41.890625 
Q 33.15625 41.890625 29.515625 37.5625 
Q 25.875 33.25 25.875 25.203125 
L 25.875 0 
L 8.40625 0 
L 8.40625 54.6875 
L 25.875 54.6875 
L 25.875 45.703125 
Q 29.25 51.078125 33.609375 53.53125 
Q 37.984375 56 44.09375 56 
Q 44.96875 56 45.984375 55.921875 
Q 47.015625 55.859375 48.96875 55.609375 
z
" id="DejaVuSans-Bold-72"/>
    </defs>
    <g transform="translate(247.444799 43.183426)scale(0.16 -0.16)">
     <use xlink:href="#DejaVuSans-Bold-4d"/>
     <use x="99.511719" xlink:href="#DejaVuSans-Bold-65"/>
     <use x="167.333984" xlink:href="#DejaVuSans-Bold-6d"/>
     <use x="271.533203" xlink:href="#DejaVuSans-Bold-6f"/>
     <use x="340.234375" xlink:href="#DejaVuSans-Bold-72"/>
     <use x="389.550781" xlink:href="#DejaVuSans-Bold-79"/>
     <use x="454.736328" xlink:href="#DejaVuSans-Bold-47"/>
     <use x="536.816406" xlink:href="#DejaVuSans-Bold-6f"/>
    </g>
   </g>
   <g id="text_17">
    <g id="patch_10">
     <path d="M 314.009383 372.808074 
L 405.594383 372.808074 
L 405.594383 353.358074 
L 314.009383 353.358074 
z
" style="fill:#1f77b4;opacity:0.5;"/>
    </g>
    <!-- DelayAnti -->
    <defs>
     <path d="M 53.421875 13.28125 
L 24.03125 13.28125 
L 19.390625 0 
L 0.484375 0 
L 27.484375 72.90625 
L 49.90625 72.90625 
L 76.90625 0 
L 58.015625 0 
z
M 28.71875 26.8125 
L 48.6875 26.8125 
L 38.71875 55.8125 
z
" id="DejaVuSans-Bold-41"/>
     <path d="M 63.375 33.296875 
L 63.375 0 
L 45.796875 0 
L 45.796875 5.421875 
L 45.796875 25.484375 
Q 45.796875 32.5625 45.484375 35.25 
Q 45.171875 37.9375 44.390625 39.203125 
Q 43.359375 40.921875 41.59375 41.875 
Q 39.84375 42.828125 37.59375 42.828125 
Q 32.125 42.828125 29 38.59375 
Q 25.875 34.375 25.875 26.90625 
L 25.875 0 
L 8.40625 0 
L 8.40625 54.6875 
L 25.875 54.6875 
L 25.875 46.6875 
Q 29.828125 51.46875 34.265625 53.734375 
Q 38.71875 56 44.09375 56 
Q 53.5625 56 58.46875 50.1875 
Q 63.375 44.390625 63.375 33.296875 
z
" id="DejaVuSans-Bold-6e"/>
     <path d="M 8.40625 54.6875 
L 25.875 54.6875 
L 25.875 0 
L 8.40625 0 
z
M 8.40625 75.984375 
L 25.875 75.984375 
L 25.875 61.71875 
L 8.40625 61.71875 
z
" id="DejaVuSans-Bold-69"/>
    </defs>
    <g transform="translate(315.929383 367.435574)scale(0.16 -0.16)">
     <use xlink:href="#DejaVuSans-Bold-44"/>
     <use x="83.007812" xlink:href="#DejaVuSans-Bold-65"/>
     <use x="150.830078" xlink:href="#DejaVuSans-Bold-6c"/>
     <use x="185.107422" xlink:href="#DejaVuSans-Bold-61"/>
     <use x="252.541016" xlink:href="#DejaVuSans-Bold-79"/>
     <use x="317.726562" xlink:href="#DejaVuSans-Bold-41"/>
     <use x="395.119141" xlink:href="#DejaVuSans-Bold-6e"/>
     <use x="466.310547" xlink:href="#DejaVuSans-Bold-74"/>
     <use x="514.113281" xlink:href="#DejaVuSans-Bold-69"/>
    </g>
   </g>
   <g id="text_18">
    <g id="patch_11">
     <path d="M 76.984545 200.010224 
L 168.832045 200.010224 
L 168.832045 180.685224 
L 76.984545 180.685224 
z
" style="fill:#8c564b;opacity:0.5;"/>
    </g>
    <!-- ReactAnti -->
    <g transform="translate(78.904545 194.762724)scale(0.16 -0.16)">
     <use xlink:href="#DejaVuSans-Bold-52"/>
     <use x="77.001953" xlink:href="#DejaVuSans-Bold-65"/>
     <use x="144.824219" xlink:href="#DejaVuSans-Bold-61"/>
     <use x="212.304688" xlink:href="#DejaVuSans-Bold-63"/>
     <use x="271.582031" xlink:href="#DejaVuSans-Bold-74"/>
     <use x="319.384766" xlink:href="#DejaVuSans-Bold-41"/>
     <use x="396.777344" xlink:href="#DejaVuSans-Bold-6e"/>
     <use x="467.96875" xlink:href="#DejaVuSans-Bold-74"/>
     <use x="515.771484" xlink:href="#DejaVuSans-Bold-69"/>
    </g>
   </g>
   <g id="text_19">
    <g id="patch_12">
     <path d="M 277.593267 172.78915 
L 391.098267 172.78915 
L 391.098267 153.33915 
L 277.593267 153.33915 
z
" style="fill:#ff7f0e;opacity:0.5;"/>
    </g>
    <!-- MemoryAnti -->
    <g transform="translate(279.513267 167.41665)scale(0.16 -0.16)">
     <use xlink:href="#DejaVuSans-Bold-4d"/>
     <use x="99.511719" xlink:href="#DejaVuSans-Bold-65"/>
     <use x="167.333984" xlink:href="#DejaVuSans-Bold-6d"/>
     <use x="271.533203" xlink:href="#DejaVuSans-Bold-6f"/>
     <use x="340.234375" xlink:href="#DejaVuSans-Bold-72"/>
     <use x="389.550781" xlink:href="#DejaVuSans-Bold-79"/>
     <use x="454.736328" xlink:href="#DejaVuSans-Bold-41"/>
     <use x="532.128906" xlink:href="#DejaVuSans-Bold-6e"/>
     <use x="603.320312" xlink:href="#DejaVuSans-Bold-74"/>
     <use x="651.123047" xlink:href="#DejaVuSans-Bold-69"/>
    </g>
   </g>
   <g id="text_20">
    <g id="patch_13">
     <path d="M 199.407725 98.218571 
L 388.637725 98.218571 
L 388.637725 78.768571 
L 199.407725 78.768571 
z
" style="fill:#9467bd;opacity:0.5;"/>
    </g>
    <!-- MemoryIntegration1 -->
    <defs>
     <path d="M 9.1875 72.90625 
L 27.984375 72.90625 
L 27.984375 0 
L 9.1875 0 
z
" id="DejaVuSans-Bold-49"/>
     <path d="M 45.609375 9.28125 
Q 42 4.5 37.640625 2.25 
Q 33.296875 0 27.59375 0 
Q 17.578125 0 11.03125 7.875 
Q 4.5 15.765625 4.5 27.984375 
Q 4.5 40.234375 11.03125 48.0625 
Q 17.578125 55.90625 27.59375 55.90625 
Q 33.296875 55.90625 37.640625 53.65625 
Q 42 51.421875 45.609375 46.578125 
L 45.609375 54.6875 
L 63.1875 54.6875 
L 63.1875 5.515625 
Q 63.1875 -7.671875 54.859375 -14.625 
Q 46.53125 -21.578125 30.71875 -21.578125 
Q 25.59375 -21.578125 20.796875 -20.796875 
Q 16.015625 -20.015625 11.1875 -18.40625 
L 11.1875 -4.78125 
Q 15.765625 -7.421875 20.15625 -8.71875 
Q 24.5625 -10.015625 29 -10.015625 
Q 37.59375 -10.015625 41.59375 -6.25 
Q 45.609375 -2.484375 45.609375 5.515625 
z
M 34.078125 43.3125 
Q 28.65625 43.3125 25.625 39.296875 
Q 22.609375 35.296875 22.609375 27.984375 
Q 22.609375 20.453125 25.53125 16.578125 
Q 28.46875 12.703125 34.078125 12.703125 
Q 39.546875 12.703125 42.578125 16.703125 
Q 45.609375 20.703125 45.609375 27.984375 
Q 45.609375 35.296875 42.578125 39.296875 
Q 39.546875 43.3125 34.078125 43.3125 
z
" id="DejaVuSans-Bold-67"/>
     <path d="M 11.71875 12.984375 
L 28.328125 12.984375 
L 28.328125 60.109375 
L 11.28125 56.59375 
L 11.28125 69.390625 
L 28.21875 72.90625 
L 46.09375 72.90625 
L 46.09375 12.984375 
L 62.703125 12.984375 
L 62.703125 0 
L 11.71875 0 
z
" id="DejaVuSans-Bold-31"/>
    </defs>
    <g transform="translate(201.327725 92.846071)scale(0.16 -0.16)">
     <use xlink:href="#DejaVuSans-Bold-4d"/>
     <use x="99.511719" xlink:href="#DejaVuSans-Bold-65"/>
     <use x="167.333984" xlink:href="#DejaVuSans-Bold-6d"/>
     <use x="271.533203" xlink:href="#DejaVuSans-Bold-6f"/>
     <use x="340.234375" xlink:href="#DejaVuSans-Bold-72"/>
     <use x="389.550781" xlink:href="#DejaVuSans-Bold-79"/>
     <use x="454.736328" xlink:href="#DejaVuSans-Bold-49"/>
     <use x="491.943359" xlink:href="#DejaVuSans-Bold-6e"/>
     <use x="563.134766" xlink:href="#DejaVuSans-Bold-74"/>
     <use x="610.9375" xlink:href="#DejaVuSans-Bold-65"/>
     <use x="678.759766" xlink:href="#DejaVuSans-Bold-67"/>
     <use x="750.341797" xlink:href="#DejaVuSans-Bold-72"/>
     <use x="799.658203" xlink:href="#DejaVuSans-Bold-61"/>
     <use x="867.138672" xlink:href="#DejaVuSans-Bold-74"/>
     <use x="914.941406" xlink:href="#DejaVuSans-Bold-69"/>
     <use x="949.21875" xlink:href="#DejaVuSans-Bold-6f"/>
     <use x="1017.919922" xlink:href="#DejaVuSans-Bold-6e"/>
     <use x="1089.111328" xlink:href="#DejaVuSans-Bold-31"/>
    </g>
   </g>
   <g id="text_21">
    <g id="patch_14">
     <path d="M 203.156764 108.536219 
L 392.386764 108.536219 
L 392.386764 89.086219 
L 203.156764 89.086219 
z
" style="fill:#9467bd;opacity:0.5;"/>
    </g>
    <!-- MemoryIntegration2 -->
    <defs>
     <path d="M 28.8125 13.8125 
L 60.890625 13.8125 
L 60.890625 0 
L 7.90625 0 
L 7.90625 13.8125 
L 34.515625 37.3125 
Q 38.09375 40.53125 39.796875 43.609375 
Q 41.5 46.6875 41.5 50 
Q 41.5 55.125 38.0625 58.25 
Q 34.625 61.375 28.90625 61.375 
Q 24.515625 61.375 19.28125 59.5 
Q 14.0625 57.625 8.109375 53.90625 
L 8.109375 69.921875 
Q 14.453125 72.015625 20.65625 73.109375 
Q 26.859375 74.21875 32.8125 74.21875 
Q 45.90625 74.21875 53.15625 68.453125 
Q 60.40625 62.703125 60.40625 52.390625 
Q 60.40625 46.4375 57.328125 41.28125 
Q 54.25 36.140625 44.390625 27.484375 
z
" id="DejaVuSans-Bold-32"/>
    </defs>
    <g transform="translate(205.076764 103.163719)scale(0.16 -0.16)">
     <use xlink:href="#DejaVuSans-Bold-4d"/>
     <use x="99.511719" xlink:href="#DejaVuSans-Bold-65"/>
     <use x="167.333984" xlink:href="#DejaVuSans-Bold-6d"/>
     <use x="271.533203" xlink:href="#DejaVuSans-Bold-6f"/>
     <use x="340.234375" xlink:href="#DejaVuSans-Bold-72"/>
     <use x="389.550781" xlink:href="#DejaVuSans-Bold-79"/>
     <use x="454.736328" xlink:href="#DejaVuSans-Bold-49"/>
     <use x="491.943359" xlink:href="#DejaVuSans-Bold-6e"/>
     <use x="563.134766" xlink:href="#DejaVuSans-Bold-74"/>
     <use x="610.9375" xlink:href="#DejaVuSans-Bold-65"/>
     <use x="678.759766" xlink:href="#DejaVuSans-Bold-67"/>
     <use x="750.341797" xlink:href="#DejaVuSans-Bold-72"/>
     <use x="799.658203" xlink:href="#DejaVuSans-Bold-61"/>
     <use x="867.138672" xlink:href="#DejaVuSans-Bold-74"/>
     <use x="914.941406" xlink:href="#DejaVuSans-Bold-69"/>
     <use x="949.21875" xlink:href="#DejaVuSans-Bold-6f"/>
     <use x="1017.919922" xlink:href="#DejaVuSans-Bold-6e"/>
     <use x="1089.111328" xlink:href="#DejaVuSans-Bold-32"/>
    </g>
   </g>
   <g id="text_22">
    <g id="patch_15">
     <path d="M 339.445116 115.507326 
L 538.070116 115.507326 
L 538.070116 96.057326 
L 339.445116 96.057326 
z
" style="fill:#2ca02c;opacity:0.5;"/>
    </g>
    <!-- MemoryMatchSample -->
    <defs>
     <path d="M 63.375 33.296875 
L 63.375 0 
L 45.796875 0 
L 45.796875 5.421875 
L 45.796875 25.390625 
Q 45.796875 32.5625 45.484375 35.25 
Q 45.171875 37.9375 44.390625 39.203125 
Q 43.359375 40.921875 41.59375 41.875 
Q 39.84375 42.828125 37.59375 42.828125 
Q 32.125 42.828125 29 38.59375 
Q 25.875 34.375 25.875 26.90625 
L 25.875 0 
L 8.40625 0 
L 8.40625 75.984375 
L 25.875 75.984375 
L 25.875 46.6875 
Q 29.828125 51.46875 34.265625 53.734375 
Q 38.71875 56 44.09375 56 
Q 53.5625 56 58.46875 50.1875 
Q 63.375 44.390625 63.375 33.296875 
z
" id="DejaVuSans-Bold-68"/>
     <path d="M 59.90625 70.609375 
L 59.90625 55.171875 
Q 53.90625 57.859375 48.1875 59.21875 
Q 42.484375 60.59375 37.40625 60.59375 
Q 30.671875 60.59375 27.4375 58.734375 
Q 24.21875 56.890625 24.21875 52.984375 
Q 24.21875 50.046875 26.390625 48.40625 
Q 28.5625 46.78125 34.28125 45.609375 
L 42.28125 44 
Q 54.4375 41.546875 59.5625 36.5625 
Q 64.703125 31.59375 64.703125 22.40625 
Q 64.703125 10.359375 57.546875 4.46875 
Q 50.390625 -1.421875 35.6875 -1.421875 
Q 28.765625 -1.421875 21.78125 -0.09375 
Q 14.796875 1.21875 7.8125 3.8125 
L 7.8125 19.671875 
Q 14.796875 15.96875 21.3125 14.078125 
Q 27.828125 12.203125 33.890625 12.203125 
Q 40.046875 12.203125 43.3125 14.25 
Q 46.578125 16.3125 46.578125 20.125 
Q 46.578125 23.53125 44.359375 25.390625 
Q 42.140625 27.25 35.5 28.71875 
L 28.21875 30.328125 
Q 17.28125 32.671875 12.21875 37.796875 
Q 7.171875 42.921875 7.171875 51.609375 
Q 7.171875 62.5 14.203125 68.359375 
Q 21.234375 74.21875 34.421875 74.21875 
Q 40.4375 74.21875 46.78125 73.3125 
Q 53.125 72.40625 59.90625 70.609375 
z
" id="DejaVuSans-Bold-53"/>
     <path d="M 25.875 7.90625 
L 25.875 -20.796875 
L 8.40625 -20.796875 
L 8.40625 54.6875 
L 25.875 54.6875 
L 25.875 46.6875 
Q 29.5 51.46875 33.890625 53.734375 
Q 38.28125 56 44 56 
Q 54.109375 56 60.59375 47.96875 
Q 67.09375 39.9375 67.09375 27.296875 
Q 67.09375 14.65625 60.59375 6.609375 
Q 54.109375 -1.421875 44 -1.421875 
Q 38.28125 -1.421875 33.890625 0.84375 
Q 29.5 3.125 25.875 7.90625 
z
M 37.5 43.3125 
Q 31.890625 43.3125 28.875 39.1875 
Q 25.875 35.0625 25.875 27.296875 
Q 25.875 19.53125 28.875 15.40625 
Q 31.890625 11.28125 37.5 11.28125 
Q 43.109375 11.28125 46.0625 15.375 
Q 49.03125 19.484375 49.03125 27.296875 
Q 49.03125 35.109375 46.0625 39.203125 
Q 43.109375 43.3125 37.5 43.3125 
z
" id="DejaVuSans-Bold-70"/>
    </defs>
    <g transform="translate(341.365116 110.134826)scale(0.16 -0.16)">
     <use xlink:href="#DejaVuSans-Bold-4d"/>
     <use x="99.511719" xlink:href="#DejaVuSans-Bold-65"/>
     <use x="167.333984" xlink:href="#DejaVuSans-Bold-6d"/>
     <use x="271.533203" xlink:href="#DejaVuSans-Bold-6f"/>
     <use x="340.234375" xlink:href="#DejaVuSans-Bold-72"/>
     <use x="389.550781" xlink:href="#DejaVuSans-Bold-79"/>
     <use x="454.736328" xlink:href="#DejaVuSans-Bold-4d"/>
     <use x="554.248047" xlink:href="#DejaVuSans-Bold-61"/>
     <use x="621.728516" xlink:href="#DejaVuSans-Bold-74"/>
     <use x="669.53125" xlink:href="#DejaVuSans-Bold-63"/>
     <use x="728.808594" xlink:href="#DejaVuSans-Bold-68"/>
     <use x="800" xlink:href="#DejaVuSans-Bold-53"/>
     <use x="872.021484" xlink:href="#DejaVuSans-Bold-61"/>
     <use x="939.501953" xlink:href="#DejaVuSans-Bold-6d"/>
     <use x="1043.701172" xlink:href="#DejaVuSans-Bold-70"/>
     <use x="1115.283203" xlink:href="#DejaVuSans-Bold-6c"/>
     <use x="1149.560547" xlink:href="#DejaVuSans-Bold-65"/>
    </g>
   </g>
   <g id="text_23">
    <g id="patch_16">
     <path d="M 326.730102 158.816263 
L 572.182602 158.816263 
L 572.182602 139.366263 
L 326.730102 139.366263 
z
" style="fill:#2ca02c;opacity:0.5;"/>
    </g>
    <!-- MemoryMatchSampleNogo -->
    <defs>
     <path d="M 9.1875 72.90625 
L 30.171875 72.90625 
L 56.6875 22.90625 
L 56.6875 72.90625 
L 74.515625 72.90625 
L 74.515625 0 
L 53.515625 0 
L 27 50 
L 27 0 
L 9.1875 0 
z
" id="DejaVuSans-Bold-4e"/>
    </defs>
    <g transform="translate(328.650102 153.443763)scale(0.16 -0.16)">
     <use xlink:href="#DejaVuSans-Bold-4d"/>
     <use x="99.511719" xlink:href="#DejaVuSans-Bold-65"/>
     <use x="167.333984" xlink:href="#DejaVuSans-Bold-6d"/>
     <use x="271.533203" xlink:href="#DejaVuSans-Bold-6f"/>
     <use x="340.234375" xlink:href="#DejaVuSans-Bold-72"/>
     <use x="389.550781" xlink:href="#DejaVuSans-Bold-79"/>
     <use x="454.736328" xlink:href="#DejaVuSans-Bold-4d"/>
     <use x="554.248047" xlink:href="#DejaVuSans-Bold-61"/>
     <use x="621.728516" xlink:href="#DejaVuSans-Bold-74"/>
     <use x="669.53125" xlink:href="#DejaVuSans-Bold-63"/>
     <use x="728.808594" xlink:href="#DejaVuSans-Bold-68"/>
     <use x="800" xlink:href="#DejaVuSans-Bold-53"/>
     <use x="872.021484" xlink:href="#DejaVuSans-Bold-61"/>
     <use x="939.501953" xlink:href="#DejaVuSans-Bold-6d"/>
     <use x="1043.701172" xlink:href="#DejaVuSans-Bold-70"/>
     <use x="1115.283203" xlink:href="#DejaVuSans-Bold-6c"/>
     <use x="1149.560547" xlink:href="#DejaVuSans-Bold-65"/>
     <use x="1217.382812" xlink:href="#DejaVuSans-Bold-4e"/>
     <use x="1301.074219" xlink:href="#DejaVuSans-Bold-6f"/>
     <use x="1369.775391" xlink:href="#DejaVuSans-Bold-67"/>
     <use x="1441.357422" xlink:href="#DejaVuSans-Bold-6f"/>
    </g>
   </g>
   <g id="text_24">
    <g id="patch_17">
     <path d="M 226.72107 344.780201 
L 409.25107 344.780201 
L 409.25107 325.455201 
L 226.72107 325.455201 
z
" style="fill:#d62728;opacity:0.5;"/>
    </g>
    <!-- MemoryCategoryGo -->
    <defs>
     <path d="M 67 4 
Q 61.8125 1.3125 56.203125 -0.046875 
Q 50.59375 -1.421875 44.484375 -1.421875 
Q 26.265625 -1.421875 15.625 8.765625 
Q 4.984375 18.953125 4.984375 36.375 
Q 4.984375 53.859375 15.625 64.03125 
Q 26.265625 74.21875 44.484375 74.21875 
Q 50.59375 74.21875 56.203125 72.84375 
Q 61.8125 71.484375 67 68.796875 
L 67 53.71875 
Q 61.765625 57.28125 56.6875 58.9375 
Q 51.609375 60.59375 46 60.59375 
Q 35.9375 60.59375 30.171875 54.140625 
Q 24.421875 47.703125 24.421875 36.375 
Q 24.421875 25.09375 30.171875 18.640625 
Q 35.9375 12.203125 46 12.203125 
Q 51.609375 12.203125 56.6875 13.859375 
Q 61.765625 15.53125 67 19.09375 
z
" id="DejaVuSans-Bold-43"/>
    </defs>
    <g transform="translate(228.64107 339.407701)scale(0.16 -0.16)">
     <use xlink:href="#DejaVuSans-Bold-4d"/>
     <use x="99.511719" xlink:href="#DejaVuSans-Bold-65"/>
     <use x="167.333984" xlink:href="#DejaVuSans-Bold-6d"/>
     <use x="271.533203" xlink:href="#DejaVuSans-Bold-6f"/>
     <use x="340.234375" xlink:href="#DejaVuSans-Bold-72"/>
     <use x="389.550781" xlink:href="#DejaVuSans-Bold-79"/>
     <use x="454.736328" xlink:href="#DejaVuSans-Bold-43"/>
     <use x="528.125" xlink:href="#DejaVuSans-Bold-61"/>
     <use x="595.605469" xlink:href="#DejaVuSans-Bold-74"/>
     <use x="643.408203" xlink:href="#DejaVuSans-Bold-65"/>
     <use x="711.230469" xlink:href="#DejaVuSans-Bold-67"/>
     <use x="782.8125" xlink:href="#DejaVuSans-Bold-6f"/>
     <use x="851.513672" xlink:href="#DejaVuSans-Bold-72"/>
     <use x="900.830078" xlink:href="#DejaVuSans-Bold-79"/>
     <use x="966.015625" xlink:href="#DejaVuSans-Bold-47"/>
     <use x="1048.095703" xlink:href="#DejaVuSans-Bold-6f"/>
    </g>
   </g>
   <g id="text_25">
    <g id="patch_18">
     <path d="M 232.265324 301.500022 
L 439.177824 301.500022 
L 439.177824 282.175022 
L 232.265324 282.175022 
z
" style="fill:#d62728;opacity:0.5;"/>
    </g>
    <!-- MemoryCategoryNoGo -->
    <g transform="translate(234.185324 296.127522)scale(0.16 -0.16)">
     <use xlink:href="#DejaVuSans-Bold-4d"/>
     <use x="99.511719" xlink:href="#DejaVuSans-Bold-65"/>
     <use x="167.333984" xlink:href="#DejaVuSans-Bold-6d"/>
     <use x="271.533203" xlink:href="#DejaVuSans-Bold-6f"/>
     <use x="340.234375" xlink:href="#DejaVuSans-Bold-72"/>
     <use x="389.550781" xlink:href="#DejaVuSans-Bold-79"/>
     <use x="454.736328" xlink:href="#DejaVuSans-Bold-43"/>
     <use x="528.125" xlink:href="#DejaVuSans-Bold-61"/>
     <use x="595.605469" xlink:href="#DejaVuSans-Bold-74"/>
     <use x="643.408203" xlink:href="#DejaVuSans-Bold-65"/>
     <use x="711.230469" xlink:href="#DejaVuSans-Bold-67"/>
     <use x="782.8125" xlink:href="#DejaVuSans-Bold-6f"/>
     <use x="851.513672" xlink:href="#DejaVuSans-Bold-72"/>
     <use x="900.830078" xlink:href="#DejaVuSans-Bold-79"/>
     <use x="966.015625" xlink:href="#DejaVuSans-Bold-4e"/>
     <use x="1049.707031" xlink:href="#DejaVuSans-Bold-6f"/>
     <use x="1118.408203" xlink:href="#DejaVuSans-Bold-47"/>
     <use x="1200.488281" xlink:href="#DejaVuSans-Bold-6f"/>
    </g>
   </g>
  </g>
  <g id="axes_2">
   <g id="patch_19">
    <path d="M 496.235 378.802 
L 843.22 378.802 
L 843.22 31.817 
L 496.235 31.817 
z
" style="fill:#ffffff;"/>
   </g>
   <g id="matplotlib.axis_3">
    <g id="xtick_7">
     <g id="line2d_26">
      <g>
       <use style="stroke:#000000;stroke-width:0.8;" x="588.230881" xlink:href="#m3b70f48643" y="378.802"/>
      </g>
     </g>
     <g id="text_26">
      <!-- 0.0 -->
      <g transform="translate(575.508381 397.9595)scale(0.16 -0.16)">
       <use xlink:href="#DejaVuSans-30"/>
       <use x="63.623047" xlink:href="#DejaVuSans-2e"/>
       <use x="95.410156" xlink:href="#DejaVuSans-30"/>
      </g>
     </g>
    </g>
    <g id="xtick_8">
     <g id="line2d_27">
      <g>
       <use style="stroke:#000000;stroke-width:0.8;" x="683.29499" xlink:href="#m3b70f48643" y="378.802"/>
      </g>
     </g>
     <g id="text_27">
      <!-- 0.2 -->
      <g transform="translate(670.57249 397.9595)scale(0.16 -0.16)">
       <use xlink:href="#DejaVuSans-30"/>
       <use x="63.623047" xlink:href="#DejaVuSans-2e"/>
       <use x="95.410156" xlink:href="#DejaVuSans-32"/>
      </g>
     </g>
    </g>
    <g id="xtick_9">
     <g id="line2d_28">
      <g>
       <use style="stroke:#000000;stroke-width:0.8;" x="778.359099" xlink:href="#m3b70f48643" y="378.802"/>
      </g>
     </g>
     <g id="text_28">
      <!-- 0.4 -->
      <g transform="translate(765.636599 397.9595)scale(0.16 -0.16)">
       <use xlink:href="#DejaVuSans-30"/>
       <use x="63.623047" xlink:href="#DejaVuSans-2e"/>
       <use x="95.410156" xlink:href="#DejaVuSans-34"/>
      </g>
     </g>
    </g>
    <g id="text_29">
     <!-- MDS1 -->
     <defs>
      <path d="M 9.8125 72.90625 
L 24.515625 72.90625 
L 43.109375 23.296875 
L 61.8125 72.90625 
L 76.515625 72.90625 
L 76.515625 0 
L 66.890625 0 
L 66.890625 64.015625 
L 48.09375 14.015625 
L 38.1875 14.015625 
L 19.390625 64.015625 
L 19.390625 0 
L 9.8125 0 
z
" id="DejaVuSans-4d"/>
      <path d="M 19.671875 64.796875 
L 19.671875 8.109375 
L 31.59375 8.109375 
Q 46.6875 8.109375 53.6875 14.9375 
Q 60.6875 21.78125 60.6875 36.53125 
Q 60.6875 51.171875 53.6875 57.984375 
Q 46.6875 64.796875 31.59375 64.796875 
z
M 9.8125 72.90625 
L 30.078125 72.90625 
Q 51.265625 72.90625 61.171875 64.09375 
Q 71.09375 55.28125 71.09375 36.53125 
Q 71.09375 17.671875 61.125 8.828125 
Q 51.171875 0 30.078125 0 
L 9.8125 0 
z
" id="DejaVuSans-44"/>
      <path d="M 53.515625 70.515625 
L 53.515625 60.890625 
Q 47.90625 63.578125 42.921875 64.890625 
Q 37.9375 66.21875 33.296875 66.21875 
Q 25.25 66.21875 20.875 63.09375 
Q 16.5 59.96875 16.5 54.203125 
Q 16.5 49.359375 19.40625 46.890625 
Q 22.3125 44.4375 30.421875 42.921875 
L 36.375 41.703125 
Q 47.40625 39.59375 52.65625 34.296875 
Q 57.90625 29 57.90625 20.125 
Q 57.90625 9.515625 50.796875 4.046875 
Q 43.703125 -1.421875 29.984375 -1.421875 
Q 24.8125 -1.421875 18.96875 -0.25 
Q 13.140625 0.921875 6.890625 3.21875 
L 6.890625 13.375 
Q 12.890625 10.015625 18.65625 8.296875 
Q 24.421875 6.59375 29.984375 6.59375 
Q 38.421875 6.59375 43.015625 9.90625 
Q 47.609375 13.234375 47.609375 19.390625 
Q 47.609375 24.75 44.3125 27.78125 
Q 41.015625 30.8125 33.5 32.328125 
L 27.484375 33.5 
Q 16.453125 35.6875 11.515625 40.375 
Q 6.59375 45.0625 6.59375 53.421875 
Q 6.59375 63.09375 13.40625 68.65625 
Q 20.21875 74.21875 32.171875 74.21875 
Q 37.3125 74.21875 42.625 73.28125 
Q 47.953125 72.359375 53.515625 70.515625 
z
" id="DejaVuSans-53"/>
      <path d="M 12.40625 8.296875 
L 28.515625 8.296875 
L 28.515625 63.921875 
L 10.984375 60.40625 
L 10.984375 69.390625 
L 28.421875 72.90625 
L 38.28125 72.90625 
L 38.28125 8.296875 
L 54.390625 8.296875 
L 54.390625 0 
L 12.40625 0 
z
" id="DejaVuSans-31"/>
     </defs>
     <g transform="translate(646.49625 417.4445)scale(0.16 -0.16)">
      <use xlink:href="#DejaVuSans-4d"/>
      <use x="86.279297" xlink:href="#DejaVuSans-44"/>
      <use x="163.28125" xlink:href="#DejaVuSans-53"/>
      <use x="226.757812" xlink:href="#DejaVuSans-31"/>
     </g>
    </g>
   </g>
   <g id="matplotlib.axis_4">
    <g id="ytick_8">
     <g id="line2d_29">
      <g>
       <use style="stroke:#000000;stroke-width:0.8;" x="496.235" xlink:href="#mfccdde9404" y="362.556674"/>
      </g>
     </g>
     <g id="text_30">
      <!-- −0.4 -->
      <g transform="translate(450.3825 368.635424)scale(0.16 -0.16)">
       <use xlink:href="#DejaVuSans-2212"/>
       <use x="83.789062" xlink:href="#DejaVuSans-30"/>
       <use x="147.412109" xlink:href="#DejaVuSans-2e"/>
       <use x="179.199219" xlink:href="#DejaVuSans-34"/>
      </g>
     </g>
    </g>
    <g id="ytick_9">
     <g id="line2d_30">
      <g>
       <use style="stroke:#000000;stroke-width:0.8;" x="496.235" xlink:href="#mfccdde9404" y="315.024619"/>
      </g>
     </g>
     <g id="text_31">
      <!-- −0.3 -->
      <defs>
       <path d="M 40.578125 39.3125 
Q 47.65625 37.796875 51.625 33 
Q 55.609375 28.21875 55.609375 21.1875 
Q 55.609375 10.40625 48.1875 4.484375 
Q 40.765625 -1.421875 27.09375 -1.421875 
Q 22.515625 -1.421875 17.65625 -0.515625 
Q 12.796875 0.390625 7.625 2.203125 
L 7.625 11.71875 
Q 11.71875 9.328125 16.59375 8.109375 
Q 21.484375 6.890625 26.8125 6.890625 
Q 36.078125 6.890625 40.9375 10.546875 
Q 45.796875 14.203125 45.796875 21.1875 
Q 45.796875 27.640625 41.28125 31.265625 
Q 36.765625 34.90625 28.71875 34.90625 
L 20.21875 34.90625 
L 20.21875 43.015625 
L 29.109375 43.015625 
Q 36.375 43.015625 40.234375 45.921875 
Q 44.09375 48.828125 44.09375 54.296875 
Q 44.09375 59.90625 40.109375 62.90625 
Q 36.140625 65.921875 28.71875 65.921875 
Q 24.65625 65.921875 20.015625 65.03125 
Q 15.375 64.15625 9.8125 62.3125 
L 9.8125 71.09375 
Q 15.4375 72.65625 20.34375 73.4375 
Q 25.25 74.21875 29.59375 74.21875 
Q 40.828125 74.21875 47.359375 69.109375 
Q 53.90625 64.015625 53.90625 55.328125 
Q 53.90625 49.265625 50.4375 45.09375 
Q 46.96875 40.921875 40.578125 39.3125 
z
" id="DejaVuSans-33"/>
      </defs>
      <g transform="translate(450.3825 321.103369)scale(0.16 -0.16)">
       <use xlink:href="#DejaVuSans-2212"/>
       <use x="83.789062" xlink:href="#DejaVuSans-30"/>
       <use x="147.412109" xlink:href="#DejaVuSans-2e"/>
       <use x="179.199219" xlink:href="#DejaVuSans-33"/>
      </g>
     </g>
    </g>
    <g id="ytick_10">
     <g id="line2d_31">
      <g>
       <use style="stroke:#000000;stroke-width:0.8;" x="496.235" xlink:href="#mfccdde9404" y="267.492565"/>
      </g>
     </g>
     <g id="text_32">
      <!-- −0.2 -->
      <g transform="translate(450.3825 273.571315)scale(0.16 -0.16)">
       <use xlink:href="#DejaVuSans-2212"/>
       <use x="83.789062" xlink:href="#DejaVuSans-30"/>
       <use x="147.412109" xlink:href="#DejaVuSans-2e"/>
       <use x="179.199219" xlink:href="#DejaVuSans-32"/>
      </g>
     </g>
    </g>
    <g id="ytick_11">
     <g id="line2d_32">
      <g>
       <use style="stroke:#000000;stroke-width:0.8;" x="496.235" xlink:href="#mfccdde9404" y="219.96051"/>
      </g>
     </g>
     <g id="text_33">
      <!-- −0.1 -->
      <g transform="translate(450.3825 226.03926)scale(0.16 -0.16)">
       <use xlink:href="#DejaVuSans-2212"/>
       <use x="83.789062" xlink:href="#DejaVuSans-30"/>
       <use x="147.412109" xlink:href="#DejaVuSans-2e"/>
       <use x="179.199219" xlink:href="#DejaVuSans-31"/>
      </g>
     </g>
    </g>
    <g id="ytick_12">
     <g id="line2d_33">
      <g>
       <use style="stroke:#000000;stroke-width:0.8;" x="496.235" xlink:href="#mfccdde9404" y="172.428455"/>
      </g>
     </g>
     <g id="text_34">
      <!-- 0.0 -->
      <g transform="translate(463.79 178.507205)scale(0.16 -0.16)">
       <use xlink:href="#DejaVuSans-30"/>
       <use x="63.623047" xlink:href="#DejaVuSans-2e"/>
       <use x="95.410156" xlink:href="#DejaVuSans-30"/>
      </g>
     </g>
    </g>
    <g id="ytick_13">
     <g id="line2d_34">
      <g>
       <use style="stroke:#000000;stroke-width:0.8;" x="496.235" xlink:href="#mfccdde9404" y="124.896401"/>
      </g>
     </g>
     <g id="text_35">
      <!-- 0.1 -->
      <g transform="translate(463.79 130.975151)scale(0.16 -0.16)">
       <use xlink:href="#DejaVuSans-30"/>
       <use x="63.623047" xlink:href="#DejaVuSans-2e"/>
       <use x="95.410156" xlink:href="#DejaVuSans-31"/>
      </g>
     </g>
    </g>
    <g id="ytick_14">
     <g id="line2d_35">
      <g>
       <use style="stroke:#000000;stroke-width:0.8;" x="496.235" xlink:href="#mfccdde9404" y="77.364346"/>
      </g>
     </g>
     <g id="text_36">
      <!-- 0.2 -->
      <g transform="translate(463.79 83.443096)scale(0.16 -0.16)">
       <use xlink:href="#DejaVuSans-30"/>
       <use x="63.623047" xlink:href="#DejaVuSans-2e"/>
       <use x="95.410156" xlink:href="#DejaVuSans-32"/>
      </g>
     </g>
    </g>
    <g id="text_37">
     <!-- MDS2 -->
     <g transform="translate(443.055 228.54075)rotate(-90)scale(0.16 -0.16)">
      <use xlink:href="#DejaVuSans-4d"/>
      <use x="86.279297" xlink:href="#DejaVuSans-44"/>
      <use x="163.28125" xlink:href="#DejaVuSans-53"/>
      <use x="226.757812" xlink:href="#DejaVuSans-32"/>
     </g>
    </g>
   </g>
   <g id="line2d_36">
    <g clip-path="url(#p0349d4859e)">
     <use style="fill:#1f77b4;stroke:#1f77b4;" x="704.407553" xlink:href="#mce911d4456" y="299.775431"/>
    </g>
   </g>
   <g id="line2d_37">
    <g clip-path="url(#p0349d4859e)">
     <use style="fill:#8c564b;stroke:#8c564b;" x="626.299026" xlink:href="#m4ede6e5504" y="205.456019"/>
    </g>
   </g>
   <g id="line2d_38">
    <g clip-path="url(#p0349d4859e)">
     <use style="fill:#ff7f0e;stroke:#ff7f0e;" x="556.500802" xlink:href="#ma27b1759aa" y="68.757007"/>
    </g>
   </g>
   <g id="line2d_39">
    <g clip-path="url(#p0349d4859e)">
     <use style="fill:#1f77b4;stroke:#1f77b4;" x="630.138953" xlink:href="#mce911d4456" y="267.948837"/>
    </g>
   </g>
   <g id="line2d_40">
    <g clip-path="url(#p0349d4859e)">
     <use style="fill:#8c564b;stroke:#8c564b;" x="582.743171" xlink:href="#m4ede6e5504" y="209.72347"/>
    </g>
   </g>
   <g id="line2d_41">
    <g clip-path="url(#p0349d4859e)">
     <use style="fill:#ff7f0e;stroke:#ff7f0e;" x="517.364748" xlink:href="#ma27b1759aa" y="47.589045"/>
    </g>
   </g>
   <g id="line2d_42">
    <g clip-path="url(#p0349d4859e)">
     <use style="fill:#9467bd;stroke:#9467bd;" x="600.876852" xlink:href="#m088856f7c1" y="86.219633"/>
    </g>
   </g>
   <g id="line2d_43">
    <g clip-path="url(#p0349d4859e)">
     <use style="fill:#9467bd;stroke:#9467bd;" x="701.241789" xlink:href="#m088856f7c1" y="73.650116"/>
    </g>
   </g>
   <g id="line2d_44">
    <g clip-path="url(#p0349d4859e)">
     <use style="fill:#2ca02c;stroke:#2ca02c;" x="517.084802" xlink:href="#ma2a136fb80" y="53.860059"/>
    </g>
   </g>
   <g id="line2d_45">
    <g clip-path="url(#p0349d4859e)">
     <use style="fill:#2ca02c;stroke:#2ca02c;" x="506.147979" xlink:href="#ma2a136fb80" y="50.666238"/>
    </g>
   </g>
   <g id="line2d_46">
    <g clip-path="url(#p0349d4859e)">
     <use style="fill:#d62728;stroke:#d62728;" x="535.938222" xlink:href="#m96374df489" y="342.465648"/>
    </g>
   </g>
   <g id="line2d_47">
    <g clip-path="url(#p0349d4859e)">
     <use style="fill:#d62728;stroke:#d62728;" x="580.02668" xlink:href="#m96374df489" y="363.029955"/>
    </g>
   </g>
   <g id="patch_20">
    <path d="M 496.235 378.802 
L 496.235 31.817 
" style="fill:none;stroke:#000000;stroke-linecap:square;stroke-linejoin:miter;stroke-width:0.8;"/>
   </g>
   <g id="patch_21">
    <path d="M 843.22 378.802 
L 843.22 31.817 
" style="fill:none;stroke:#000000;stroke-linecap:square;stroke-linejoin:miter;stroke-width:0.8;"/>
   </g>
   <g id="patch_22">
    <path d="M 496.235 378.802 
L 843.22 378.802 
" style="fill:none;stroke:#000000;stroke-linecap:square;stroke-linejoin:miter;stroke-width:0.8;"/>
   </g>
   <g id="patch_23">
    <path d="M 496.235 31.817 
L 843.22 31.817 
" style="fill:none;stroke:#000000;stroke-linecap:square;stroke-linejoin:miter;stroke-width:0.8;"/>
   </g>
   <g id="text_38">
    <g id="patch_24">
     <path d="M 702.487553 305.147931 
L 781.292553 305.147931 
L 781.292553 285.697931 
L 702.487553 285.697931 
z
" style="fill:#1f77b4;opacity:0.5;"/>
    </g>
    <!-- DelayGo -->
    <g transform="translate(704.407553 299.775431)scale(0.16 -0.16)">
     <use xlink:href="#DejaVuSans-Bold-44"/>
     <use x="83.007812" xlink:href="#DejaVuSans-Bold-65"/>
     <use x="150.830078" xlink:href="#DejaVuSans-Bold-6c"/>
     <use x="185.107422" xlink:href="#DejaVuSans-Bold-61"/>
     <use x="252.541016" xlink:href="#DejaVuSans-Bold-79"/>
     <use x="317.726562" xlink:href="#DejaVuSans-Bold-47"/>
     <use x="399.806641" xlink:href="#DejaVuSans-Bold-6f"/>
    </g>
   </g>
   <g id="text_39">
    <g id="patch_25">
     <path d="M 624.379026 210.703519 
L 703.446526 210.703519 
L 703.446526 191.378519 
L 624.379026 191.378519 
z
" style="fill:#8c564b;opacity:0.5;"/>
    </g>
    <!-- ReactGo -->
    <g transform="translate(626.299026 205.456019)scale(0.16 -0.16)">
     <use xlink:href="#DejaVuSans-Bold-52"/>
     <use x="77.001953" xlink:href="#DejaVuSans-Bold-65"/>
     <use x="144.824219" xlink:href="#DejaVuSans-Bold-61"/>
     <use x="212.304688" xlink:href="#DejaVuSans-Bold-63"/>
     <use x="271.582031" xlink:href="#DejaVuSans-Bold-74"/>
     <use x="319.384766" xlink:href="#DejaVuSans-Bold-47"/>
     <use x="401.464844" xlink:href="#DejaVuSans-Bold-6f"/>
    </g>
   </g>
   <g id="text_40">
    <g id="patch_26">
     <path d="M 554.580802 74.129507 
L 655.305802 74.129507 
L 655.305802 54.804507 
L 554.580802 54.804507 
z
" style="fill:#ff7f0e;opacity:0.5;"/>
    </g>
    <!-- MemoryGo -->
    <g transform="translate(556.500802 68.757007)scale(0.16 -0.16)">
     <use xlink:href="#DejaVuSans-Bold-4d"/>
     <use x="99.511719" xlink:href="#DejaVuSans-Bold-65"/>
     <use x="167.333984" xlink:href="#DejaVuSans-Bold-6d"/>
     <use x="271.533203" xlink:href="#DejaVuSans-Bold-6f"/>
     <use x="340.234375" xlink:href="#DejaVuSans-Bold-72"/>
     <use x="389.550781" xlink:href="#DejaVuSans-Bold-79"/>
     <use x="454.736328" xlink:href="#DejaVuSans-Bold-47"/>
     <use x="536.816406" xlink:href="#DejaVuSans-Bold-6f"/>
    </g>
   </g>
   <g id="text_41">
    <g id="patch_27">
     <path d="M 628.218953 273.321337 
L 719.803953 273.321337 
L 719.803953 253.871337 
L 628.218953 253.871337 
z
" style="fill:#1f77b4;opacity:0.5;"/>
    </g>
    <!-- DelayAnti -->
    <g transform="translate(630.138953 267.948837)scale(0.16 -0.16)">
     <use xlink:href="#DejaVuSans-Bold-44"/>
     <use x="83.007812" xlink:href="#DejaVuSans-Bold-65"/>
     <use x="150.830078" xlink:href="#DejaVuSans-Bold-6c"/>
     <use x="185.107422" xlink:href="#DejaVuSans-Bold-61"/>
     <use x="252.541016" xlink:href="#DejaVuSans-Bold-79"/>
     <use x="317.726562" xlink:href="#DejaVuSans-Bold-41"/>
     <use x="395.119141" xlink:href="#DejaVuSans-Bold-6e"/>
     <use x="466.310547" xlink:href="#DejaVuSans-Bold-74"/>
     <use x="514.113281" xlink:href="#DejaVuSans-Bold-69"/>
    </g>
   </g>
   <g id="text_42">
    <g id="patch_28">
     <path d="M 580.823171 214.97097 
L 672.670671 214.97097 
L 672.670671 195.64597 
L 580.823171 195.64597 
z
" style="fill:#8c564b;opacity:0.5;"/>
    </g>
    <!-- ReactAnti -->
    <g transform="translate(582.743171 209.72347)scale(0.16 -0.16)">
     <use xlink:href="#DejaVuSans-Bold-52"/>
     <use x="77.001953" xlink:href="#DejaVuSans-Bold-65"/>
     <use x="144.824219" xlink:href="#DejaVuSans-Bold-61"/>
     <use x="212.304688" xlink:href="#DejaVuSans-Bold-63"/>
     <use x="271.582031" xlink:href="#DejaVuSans-Bold-74"/>
     <use x="319.384766" xlink:href="#DejaVuSans-Bold-41"/>
     <use x="396.777344" xlink:href="#DejaVuSans-Bold-6e"/>
     <use x="467.96875" xlink:href="#DejaVuSans-Bold-74"/>
     <use x="515.771484" xlink:href="#DejaVuSans-Bold-69"/>
    </g>
   </g>
   <g id="text_43">
    <g id="patch_29">
     <path d="M 515.444748 52.961545 
L 628.949748 52.961545 
L 628.949748 33.511545 
L 515.444748 33.511545 
z
" style="fill:#ff7f0e;opacity:0.5;"/>
    </g>
    <!-- MemoryAnti -->
    <g transform="translate(517.364748 47.589045)scale(0.16 -0.16)">
     <use xlink:href="#DejaVuSans-Bold-4d"/>
     <use x="99.511719" xlink:href="#DejaVuSans-Bold-65"/>
     <use x="167.333984" xlink:href="#DejaVuSans-Bold-6d"/>
     <use x="271.533203" xlink:href="#DejaVuSans-Bold-6f"/>
     <use x="340.234375" xlink:href="#DejaVuSans-Bold-72"/>
     <use x="389.550781" xlink:href="#DejaVuSans-Bold-79"/>
     <use x="454.736328" xlink:href="#DejaVuSans-Bold-41"/>
     <use x="532.128906" xlink:href="#DejaVuSans-Bold-6e"/>
     <use x="603.320312" xlink:href="#DejaVuSans-Bold-74"/>
     <use x="651.123047" xlink:href="#DejaVuSans-Bold-69"/>
    </g>
   </g>
   <g id="text_44">
    <g id="patch_30">
     <path d="M 598.956852 91.592133 
L 788.186852 91.592133 
L 788.186852 72.142133 
L 598.956852 72.142133 
z
" style="fill:#9467bd;opacity:0.5;"/>
    </g>
    <!-- MemoryIntegration1 -->
    <g transform="translate(600.876852 86.219633)scale(0.16 -0.16)">
     <use xlink:href="#DejaVuSans-Bold-4d"/>
     <use x="99.511719" xlink:href="#DejaVuSans-Bold-65"/>
     <use x="167.333984" xlink:href="#DejaVuSans-Bold-6d"/>
     <use x="271.533203" xlink:href="#DejaVuSans-Bold-6f"/>
     <use x="340.234375" xlink:href="#DejaVuSans-Bold-72"/>
     <use x="389.550781" xlink:href="#DejaVuSans-Bold-79"/>
     <use x="454.736328" xlink:href="#DejaVuSans-Bold-49"/>
     <use x="491.943359" xlink:href="#DejaVuSans-Bold-6e"/>
     <use x="563.134766" xlink:href="#DejaVuSans-Bold-74"/>
     <use x="610.9375" xlink:href="#DejaVuSans-Bold-65"/>
     <use x="678.759766" xlink:href="#DejaVuSans-Bold-67"/>
     <use x="750.341797" xlink:href="#DejaVuSans-Bold-72"/>
     <use x="799.658203" xlink:href="#DejaVuSans-Bold-61"/>
     <use x="867.138672" xlink:href="#DejaVuSans-Bold-74"/>
     <use x="914.941406" xlink:href="#DejaVuSans-Bold-69"/>
     <use x="949.21875" xlink:href="#DejaVuSans-Bold-6f"/>
     <use x="1017.919922" xlink:href="#DejaVuSans-Bold-6e"/>
     <use x="1089.111328" xlink:href="#DejaVuSans-Bold-31"/>
    </g>
   </g>
   <g id="text_45">
    <g id="patch_31">
     <path d="M 699.321789 79.022616 
L 888.551789 79.022616 
L 888.551789 59.572616 
L 699.321789 59.572616 
z
" style="fill:#9467bd;opacity:0.5;"/>
    </g>
    <!-- MemoryIntegration2 -->
    <g transform="translate(701.241789 73.650116)scale(0.16 -0.16)">
     <use xlink:href="#DejaVuSans-Bold-4d"/>
     <use x="99.511719" xlink:href="#DejaVuSans-Bold-65"/>
     <use x="167.333984" xlink:href="#DejaVuSans-Bold-6d"/>
     <use x="271.533203" xlink:href="#DejaVuSans-Bold-6f"/>
     <use x="340.234375" xlink:href="#DejaVuSans-Bold-72"/>
     <use x="389.550781" xlink:href="#DejaVuSans-Bold-79"/>
     <use x="454.736328" xlink:href="#DejaVuSans-Bold-49"/>
     <use x="491.943359" xlink:href="#DejaVuSans-Bold-6e"/>
     <use x="563.134766" xlink:href="#DejaVuSans-Bold-74"/>
     <use x="610.9375" xlink:href="#DejaVuSans-Bold-65"/>
     <use x="678.759766" xlink:href="#DejaVuSans-Bold-67"/>
     <use x="750.341797" xlink:href="#DejaVuSans-Bold-72"/>
     <use x="799.658203" xlink:href="#DejaVuSans-Bold-61"/>
     <use x="867.138672" xlink:href="#DejaVuSans-Bold-74"/>
     <use x="914.941406" xlink:href="#DejaVuSans-Bold-69"/>
     <use x="949.21875" xlink:href="#DejaVuSans-Bold-6f"/>
     <use x="1017.919922" xlink:href="#DejaVuSans-Bold-6e"/>
     <use x="1089.111328" xlink:href="#DejaVuSans-Bold-32"/>
    </g>
   </g>
   <g id="text_46">
    <g id="patch_32">
     <path d="M 515.164802 59.232559 
L 713.789802 59.232559 
L 713.789802 39.782559 
L 515.164802 39.782559 
z
" style="fill:#2ca02c;opacity:0.5;"/>
    </g>
    <!-- MemoryMatchSample -->
    <g transform="translate(517.084802 53.860059)scale(0.16 -0.16)">
     <use xlink:href="#DejaVuSans-Bold-4d"/>
     <use x="99.511719" xlink:href="#DejaVuSans-Bold-65"/>
     <use x="167.333984" xlink:href="#DejaVuSans-Bold-6d"/>
     <use x="271.533203" xlink:href="#DejaVuSans-Bold-6f"/>
     <use x="340.234375" xlink:href="#DejaVuSans-Bold-72"/>
     <use x="389.550781" xlink:href="#DejaVuSans-Bold-79"/>
     <use x="454.736328" xlink:href="#DejaVuSans-Bold-4d"/>
     <use x="554.248047" xlink:href="#DejaVuSans-Bold-61"/>
     <use x="621.728516" xlink:href="#DejaVuSans-Bold-74"/>
     <use x="669.53125" xlink:href="#DejaVuSans-Bold-63"/>
     <use x="728.808594" xlink:href="#DejaVuSans-Bold-68"/>
     <use x="800" xlink:href="#DejaVuSans-Bold-53"/>
     <use x="872.021484" xlink:href="#DejaVuSans-Bold-61"/>
     <use x="939.501953" xlink:href="#DejaVuSans-Bold-6d"/>
     <use x="1043.701172" xlink:href="#DejaVuSans-Bold-70"/>
     <use x="1115.283203" xlink:href="#DejaVuSans-Bold-6c"/>
     <use x="1149.560547" xlink:href="#DejaVuSans-Bold-65"/>
    </g>
   </g>
   <g id="text_47">
    <g id="patch_33">
     <path d="M 504.227979 56.038738 
L 749.680479 56.038738 
L 749.680479 36.588738 
L 504.227979 36.588738 
z
" style="fill:#2ca02c;opacity:0.5;"/>
    </g>
    <!-- MemoryMatchSampleNogo -->
    <g transform="translate(506.147979 50.666238)scale(0.16 -0.16)">
     <use xlink:href="#DejaVuSans-Bold-4d"/>
     <use x="99.511719" xlink:href="#DejaVuSans-Bold-65"/>
     <use x="167.333984" xlink:href="#DejaVuSans-Bold-6d"/>
     <use x="271.533203" xlink:href="#DejaVuSans-Bold-6f"/>
     <use x="340.234375" xlink:href="#DejaVuSans-Bold-72"/>
     <use x="389.550781" xlink:href="#DejaVuSans-Bold-79"/>
     <use x="454.736328" xlink:href="#DejaVuSans-Bold-4d"/>
     <use x="554.248047" xlink:href="#DejaVuSans-Bold-61"/>
     <use x="621.728516" xlink:href="#DejaVuSans-Bold-74"/>
     <use x="669.53125" xlink:href="#DejaVuSans-Bold-63"/>
     <use x="728.808594" xlink:href="#DejaVuSans-Bold-68"/>
     <use x="800" xlink:href="#DejaVuSans-Bold-53"/>
     <use x="872.021484" xlink:href="#DejaVuSans-Bold-61"/>
     <use x="939.501953" xlink:href="#DejaVuSans-Bold-6d"/>
     <use x="1043.701172" xlink:href="#DejaVuSans-Bold-70"/>
     <use x="1115.283203" xlink:href="#DejaVuSans-Bold-6c"/>
     <use x="1149.560547" xlink:href="#DejaVuSans-Bold-65"/>
     <use x="1217.382812" xlink:href="#DejaVuSans-Bold-4e"/>
     <use x="1301.074219" xlink:href="#DejaVuSans-Bold-6f"/>
     <use x="1369.775391" xlink:href="#DejaVuSans-Bold-67"/>
     <use x="1441.357422" xlink:href="#DejaVuSans-Bold-6f"/>
    </g>
   </g>
   <g id="text_48">
    <g id="patch_34">
     <path d="M 534.018222 347.838148 
L 716.548222 347.838148 
L 716.548222 328.513148 
L 534.018222 328.513148 
z
" style="fill:#d62728;opacity:0.5;"/>
    </g>
    <!-- MemoryCategoryGo -->
    <g transform="translate(535.938222 342.465648)scale(0.16 -0.16)">
     <use xlink:href="#DejaVuSans-Bold-4d"/>
     <use x="99.511719" xlink:href="#DejaVuSans-Bold-65"/>
     <use x="167.333984" xlink:href="#DejaVuSans-Bold-6d"/>
     <use x="271.533203" xlink:href="#DejaVuSans-Bold-6f"/>
     <use x="340.234375" xlink:href="#DejaVuSans-Bold-72"/>
     <use x="389.550781" xlink:href="#DejaVuSans-Bold-79"/>
     <use x="454.736328" xlink:href="#DejaVuSans-Bold-43"/>
     <use x="528.125" xlink:href="#DejaVuSans-Bold-61"/>
     <use x="595.605469" xlink:href="#DejaVuSans-Bold-74"/>
     <use x="643.408203" xlink:href="#DejaVuSans-Bold-65"/>
     <use x="711.230469" xlink:href="#DejaVuSans-Bold-67"/>
     <use x="782.8125" xlink:href="#DejaVuSans-Bold-6f"/>
     <use x="851.513672" xlink:href="#DejaVuSans-Bold-72"/>
     <use x="900.830078" xlink:href="#DejaVuSans-Bold-79"/>
     <use x="966.015625" xlink:href="#DejaVuSans-Bold-47"/>
     <use x="1048.095703" xlink:href="#DejaVuSans-Bold-6f"/>
    </g>
   </g>
   <g id="text_49">
    <g id="patch_35">
     <path d="M 578.10668 368.402455 
L 785.01918 368.402455 
L 785.01918 349.077455 
L 578.10668 349.077455 
z
" style="fill:#d62728;opacity:0.5;"/>
    </g>
    <!-- MemoryCategoryNoGo -->
    <g transform="translate(580.02668 363.029955)scale(0.16 -0.16)">
     <use xlink:href="#DejaVuSans-Bold-4d"/>
     <use x="99.511719" xlink:href="#DejaVuSans-Bold-65"/>
     <use x="167.333984" xlink:href="#DejaVuSans-Bold-6d"/>
     <use x="271.533203" xlink:href="#DejaVuSans-Bold-6f"/>
     <use x="340.234375" xlink:href="#DejaVuSans-Bold-72"/>
     <use x="389.550781" xlink:href="#DejaVuSans-Bold-79"/>
     <use x="454.736328" xlink:href="#DejaVuSans-Bold-43"/>
     <use x="528.125" xlink:href="#DejaVuSans-Bold-61"/>
     <use x="595.605469" xlink:href="#DejaVuSans-Bold-74"/>
     <use x="643.408203" xlink:href="#DejaVuSans-Bold-65"/>
     <use x="711.230469" xlink:href="#DejaVuSans-Bold-67"/>
     <use x="782.8125" xlink:href="#DejaVuSans-Bold-6f"/>
     <use x="851.513672" xlink:href="#DejaVuSans-Bold-72"/>
     <use x="900.830078" xlink:href="#DejaVuSans-Bold-79"/>
     <use x="966.015625" xlink:href="#DejaVuSans-Bold-4e"/>
     <use x="1049.707031" xlink:href="#DejaVuSans-Bold-6f"/>
     <use x="1118.408203" xlink:href="#DejaVuSans-Bold-47"/>
     <use x="1200.488281" xlink:href="#DejaVuSans-Bold-6f"/>
    </g>
   </g>
   <g id="text_50">
    <!-- lowD/combos/most_model_0 -->
    <defs>
     <path d="M 9.421875 75.984375 
L 18.40625 75.984375 
L 18.40625 0 
L 9.421875 0 
z
" id="DejaVuSans-6c"/>
     <path d="M 30.609375 48.390625 
Q 23.390625 48.390625 19.1875 42.75 
Q 14.984375 37.109375 14.984375 27.296875 
Q 14.984375 17.484375 19.15625 11.84375 
Q 23.34375 6.203125 30.609375 6.203125 
Q 37.796875 6.203125 41.984375 11.859375 
Q 46.1875 17.53125 46.1875 27.296875 
Q 46.1875 37.015625 41.984375 42.703125 
Q 37.796875 48.390625 30.609375 48.390625 
z
M 30.609375 56 
Q 42.328125 56 49.015625 48.375 
Q 55.71875 40.765625 55.71875 27.296875 
Q 55.71875 13.875 49.015625 6.21875 
Q 42.328125 -1.421875 30.609375 -1.421875 
Q 18.84375 -1.421875 12.171875 6.21875 
Q 5.515625 13.875 5.515625 27.296875 
Q 5.515625 40.765625 12.171875 48.375 
Q 18.84375 56 30.609375 56 
z
" id="DejaVuSans-6f"/>
     <path d="M 4.203125 54.6875 
L 13.1875 54.6875 
L 24.421875 12.015625 
L 35.59375 54.6875 
L 46.1875 54.6875 
L 57.421875 12.015625 
L 68.609375 54.6875 
L 77.59375 54.6875 
L 63.28125 0 
L 52.6875 0 
L 40.921875 44.828125 
L 29.109375 0 
L 18.5 0 
z
" id="DejaVuSans-77"/>
     <path d="M 25.390625 72.90625 
L 33.6875 72.90625 
L 8.296875 -9.28125 
L 0 -9.28125 
z
" id="DejaVuSans-2f"/>
     <path d="M 48.78125 52.59375 
L 48.78125 44.1875 
Q 44.96875 46.296875 41.140625 47.34375 
Q 37.3125 48.390625 33.40625 48.390625 
Q 24.65625 48.390625 19.8125 42.84375 
Q 14.984375 37.3125 14.984375 27.296875 
Q 14.984375 17.28125 19.8125 11.734375 
Q 24.65625 6.203125 33.40625 6.203125 
Q 37.3125 6.203125 41.140625 7.25 
Q 44.96875 8.296875 48.78125 10.40625 
L 48.78125 2.09375 
Q 45.015625 0.34375 40.984375 -0.53125 
Q 36.96875 -1.421875 32.421875 -1.421875 
Q 20.0625 -1.421875 12.78125 6.34375 
Q 5.515625 14.109375 5.515625 27.296875 
Q 5.515625 40.671875 12.859375 48.328125 
Q 20.21875 56 33.015625 56 
Q 37.15625 56 41.109375 55.140625 
Q 45.0625 54.296875 48.78125 52.59375 
z
" id="DejaVuSans-63"/>
     <path d="M 52 44.1875 
Q 55.375 50.25 60.0625 53.125 
Q 64.75 56 71.09375 56 
Q 79.640625 56 84.28125 50.015625 
Q 88.921875 44.046875 88.921875 33.015625 
L 88.921875 0 
L 79.890625 0 
L 79.890625 32.71875 
Q 79.890625 40.578125 77.09375 44.375 
Q 74.3125 48.1875 68.609375 48.1875 
Q 61.625 48.1875 57.5625 43.546875 
Q 53.515625 38.921875 53.515625 30.90625 
L 53.515625 0 
L 44.484375 0 
L 44.484375 32.71875 
Q 44.484375 40.625 41.703125 44.40625 
Q 38.921875 48.1875 33.109375 48.1875 
Q 26.21875 48.1875 22.15625 43.53125 
Q 18.109375 38.875 18.109375 30.90625 
L 18.109375 0 
L 9.078125 0 
L 9.078125 54.6875 
L 18.109375 54.6875 
L 18.109375 46.1875 
Q 21.1875 51.21875 25.484375 53.609375 
Q 29.78125 56 35.6875 56 
Q 41.65625 56 45.828125 52.96875 
Q 50 49.953125 52 44.1875 
z
" id="DejaVuSans-6d"/>
     <path d="M 48.6875 27.296875 
Q 48.6875 37.203125 44.609375 42.84375 
Q 40.53125 48.484375 33.40625 48.484375 
Q 26.265625 48.484375 22.1875 42.84375 
Q 18.109375 37.203125 18.109375 27.296875 
Q 18.109375 17.390625 22.1875 11.75 
Q 26.265625 6.109375 33.40625 6.109375 
Q 40.53125 6.109375 44.609375 11.75 
Q 48.6875 17.390625 48.6875 27.296875 
z
M 18.109375 46.390625 
Q 20.953125 51.265625 25.265625 53.625 
Q 29.59375 56 35.59375 56 
Q 45.5625 56 51.78125 48.09375 
Q 58.015625 40.1875 58.015625 27.296875 
Q 58.015625 14.40625 51.78125 6.484375 
Q 45.5625 -1.421875 35.59375 -1.421875 
Q 29.59375 -1.421875 25.265625 0.953125 
Q 20.953125 3.328125 18.109375 8.203125 
L 18.109375 0 
L 9.078125 0 
L 9.078125 75.984375 
L 18.109375 75.984375 
z
" id="DejaVuSans-62"/>
     <path d="M 44.28125 53.078125 
L 44.28125 44.578125 
Q 40.484375 46.53125 36.375 47.5 
Q 32.28125 48.484375 27.875 48.484375 
Q 21.1875 48.484375 17.84375 46.4375 
Q 14.5 44.390625 14.5 40.28125 
Q 14.5 37.15625 16.890625 35.375 
Q 19.28125 33.59375 26.515625 31.984375 
L 29.59375 31.296875 
Q 39.15625 29.25 43.1875 25.515625 
Q 47.21875 21.78125 47.21875 15.09375 
Q 47.21875 7.46875 41.1875 3.015625 
Q 35.15625 -1.421875 24.609375 -1.421875 
Q 20.21875 -1.421875 15.453125 -0.5625 
Q 10.6875 0.296875 5.421875 2 
L 5.421875 11.28125 
Q 10.40625 8.6875 15.234375 7.390625 
Q 20.0625 6.109375 24.8125 6.109375 
Q 31.15625 6.109375 34.5625 8.28125 
Q 37.984375 10.453125 37.984375 14.40625 
Q 37.984375 18.0625 35.515625 20.015625 
Q 33.0625 21.96875 24.703125 23.78125 
L 21.578125 24.515625 
Q 13.234375 26.265625 9.515625 29.90625 
Q 5.8125 33.546875 5.8125 39.890625 
Q 5.8125 47.609375 11.28125 51.796875 
Q 16.75 56 26.8125 56 
Q 31.78125 56 36.171875 55.265625 
Q 40.578125 54.546875 44.28125 53.078125 
z
" id="DejaVuSans-73"/>
     <path d="M 18.3125 70.21875 
L 18.3125 54.6875 
L 36.8125 54.6875 
L 36.8125 47.703125 
L 18.3125 47.703125 
L 18.3125 18.015625 
Q 18.3125 11.328125 20.140625 9.421875 
Q 21.96875 7.515625 27.59375 7.515625 
L 36.8125 7.515625 
L 36.8125 0 
L 27.59375 0 
Q 17.1875 0 13.234375 3.875 
Q 9.28125 7.765625 9.28125 18.015625 
L 9.28125 47.703125 
L 2.6875 47.703125 
L 2.6875 54.6875 
L 9.28125 54.6875 
L 9.28125 70.21875 
z
" id="DejaVuSans-74"/>
     <path d="M 50.984375 -16.609375 
L 50.984375 -23.578125 
L -0.984375 -23.578125 
L -0.984375 -16.609375 
z
" id="DejaVuSans-5f"/>
     <path d="M 45.40625 46.390625 
L 45.40625 75.984375 
L 54.390625 75.984375 
L 54.390625 0 
L 45.40625 0 
L 45.40625 8.203125 
Q 42.578125 3.328125 38.25 0.953125 
Q 33.9375 -1.421875 27.875 -1.421875 
Q 17.96875 -1.421875 11.734375 6.484375 
Q 5.515625 14.40625 5.515625 27.296875 
Q 5.515625 40.1875 11.734375 48.09375 
Q 17.96875 56 27.875 56 
Q 33.9375 56 38.25 53.625 
Q 42.578125 51.265625 45.40625 46.390625 
z
M 14.796875 27.296875 
Q 14.796875 17.390625 18.875 11.75 
Q 22.953125 6.109375 30.078125 6.109375 
Q 37.203125 6.109375 41.296875 11.75 
Q 45.40625 17.390625 45.40625 27.296875 
Q 45.40625 37.203125 41.296875 42.84375 
Q 37.203125 48.484375 30.078125 48.484375 
Q 22.953125 48.484375 18.875 42.84375 
Q 14.796875 37.203125 14.796875 27.296875 
z
" id="DejaVuSans-64"/>
     <path d="M 56.203125 29.59375 
L 56.203125 25.203125 
L 14.890625 25.203125 
Q 15.484375 15.921875 20.484375 11.0625 
Q 25.484375 6.203125 34.421875 6.203125 
Q 39.59375 6.203125 44.453125 7.46875 
Q 49.3125 8.734375 54.109375 11.28125 
L 54.109375 2.78125 
Q 49.265625 0.734375 44.1875 -0.34375 
Q 39.109375 -1.421875 33.890625 -1.421875 
Q 20.796875 -1.421875 13.15625 6.1875 
Q 5.515625 13.8125 5.515625 26.8125 
Q 5.515625 40.234375 12.765625 48.109375 
Q 20.015625 56 32.328125 56 
Q 43.359375 56 49.78125 48.890625 
Q 56.203125 41.796875 56.203125 29.59375 
z
M 47.21875 32.234375 
Q 47.125 39.59375 43.09375 43.984375 
Q 39.0625 48.390625 32.421875 48.390625 
Q 24.90625 48.390625 20.390625 44.140625 
Q 15.875 39.890625 15.1875 32.171875 
z
" id="DejaVuSans-65"/>
    </defs>
    <g transform="translate(532.4115 25.817)scale(0.192 -0.192)">
     <use xlink:href="#DejaVuSans-6c"/>
     <use x="27.783203" xlink:href="#DejaVuSans-6f"/>
     <use x="88.964844" xlink:href="#DejaVuSans-77"/>
     <use x="170.751953" xlink:href="#DejaVuSans-44"/>
     <use x="247.753906" xlink:href="#DejaVuSans-2f"/>
     <use x="281.445312" xlink:href="#DejaVuSans-63"/>
     <use x="336.425781" xlink:href="#DejaVuSans-6f"/>
     <use x="397.607422" xlink:href="#DejaVuSans-6d"/>
     <use x="495.019531" xlink:href="#DejaVuSans-62"/>
     <use x="558.496094" xlink:href="#DejaVuSans-6f"/>
     <use x="619.677734" xlink:href="#DejaVuSans-73"/>
     <use x="671.777344" xlink:href="#DejaVuSans-2f"/>
     <use x="705.46875" xlink:href="#DejaVuSans-6d"/>
     <use x="802.880859" xlink:href="#DejaVuSans-6f"/>
     <use x="864.0625" xlink:href="#DejaVuSans-73"/>
     <use x="916.162109" xlink:href="#DejaVuSans-74"/>
     <use x="955.371094" xlink:href="#DejaVuSans-5f"/>
     <use x="1005.371094" xlink:href="#DejaVuSans-6d"/>
     <use x="1102.783203" xlink:href="#DejaVuSans-6f"/>
     <use x="1163.964844" xlink:href="#DejaVuSans-64"/>
     <use x="1227.441406" xlink:href="#DejaVuSans-65"/>
     <use x="1288.964844" xlink:href="#DejaVuSans-6c"/>
     <use x="1316.748047" xlink:href="#DejaVuSans-5f"/>
     <use x="1366.748047" xlink:href="#DejaVuSans-30"/>
    </g>
   </g>
  </g>
 </g>
 <defs>
  <clipPath id="p8d6e4194dd">
   <rect height="356.677364" width="346.985" x="63.1325" y="26.970818"/>
  </clipPath>
  <clipPath id="p0349d4859e">
   <rect height="346.985" width="346.985" x="496.235" y="31.817"/>
  </clipPath>
 </defs>
</svg>
