<?xml version="1.0" encoding="utf-8" standalone="no"?>
<!DOCTYPE svg PUBLIC "-//W3C//DTD SVG 1.1//EN"
  "http://www.w3.org/Graphics/SVG/1.1/DTD/svg11.dtd">
<!-- Created with matplotlib (http://matplotlib.org/) -->
<svg height="288pt" version="1.1" viewBox="0 0 432 288" width="432pt" xmlns="http://www.w3.org/2000/svg" xmlns:xlink="http://www.w3.org/1999/xlink">
 <defs>
  <style type="text/css">
*{stroke-linecap:butt;stroke-linejoin:round;}
  </style>
 </defs>
 <g id="figure_1">
  <g id="patch_1">
   <path d="M 0 288 
L 432 288 
L 432 0 
L 0 0 
z
" style="fill:#ffffff;"/>
  </g>
  <g id="axes_1">
   <g id="patch_2">
    <path d="M 112.68 252 
L 330.12 252 
L 330.12 34.56 
L 112.68 34.56 
z
" style="fill:#ffffff;"/>
   </g>
   <g id="matplotlib.axis_1">
    <g id="xtick_1">
     <g id="line2d_1">
      <defs>
       <path d="M 0 0 
L 0 3.5 
" id="mc630747f3f" style="stroke:#000000;stroke-width:0.8;"/>
      </defs>
      <g>
       <use style="stroke:#000000;stroke-width:0.8;" x="122.563636" xlink:href="#mc630747f3f" y="252"/>
      </g>
     </g>
     <g id="text_1">
      <!-- 0.0 -->
      <defs>
       <path d="M 31.78125 66.40625 
Q 24.171875 66.40625 20.328125 58.90625 
Q 16.5 51.421875 16.5 36.375 
Q 16.5 21.390625 20.328125 13.890625 
Q 24.171875 6.390625 31.78125 6.390625 
Q 39.453125 6.390625 43.28125 13.890625 
Q 47.125 21.390625 47.125 36.375 
Q 47.125 51.421875 43.28125 58.90625 
Q 39.453125 66.40625 31.78125 66.40625 
z
M 31.78125 74.21875 
Q 44.046875 74.21875 50.515625 64.515625 
Q 56.984375 54.828125 56.984375 36.375 
Q 56.984375 17.96875 50.515625 8.265625 
Q 44.046875 -1.421875 31.78125 -1.421875 
Q 19.53125 -1.421875 13.0625 8.265625 
Q 6.59375 17.96875 6.59375 36.375 
Q 6.59375 54.828125 13.0625 64.515625 
Q 19.53125 74.21875 31.78125 74.21875 
z
" id="DejaVuSans-30"/>
       <path d="M 10.6875 12.40625 
L 21 12.40625 
L 21 0 
L 10.6875 0 
z
" id="DejaVuSans-2e"/>
      </defs>
      <g transform="translate(109.841136 271.1575)scale(0.16 -0.16)">
       <use xlink:href="#DejaVuSans-30"/>
       <use x="63.623047" xlink:href="#DejaVuSans-2e"/>
       <use x="95.410156" xlink:href="#DejaVuSans-30"/>
      </g>
     </g>
    </g>
    <g id="xtick_2">
     <g id="line2d_2">
      <g>
       <use style="stroke:#000000;stroke-width:0.8;" x="221.4" xlink:href="#mc630747f3f" y="252"/>
      </g>
     </g>
     <g id="text_2">
      <!-- 0.5 -->
      <defs>
       <path d="M 10.796875 72.90625 
L 49.515625 72.90625 
L 49.515625 64.59375 
L 19.828125 64.59375 
L 19.828125 46.734375 
Q 21.96875 47.46875 24.109375 47.828125 
Q 26.265625 48.1875 28.421875 48.1875 
Q 40.625 48.1875 47.75 41.5 
Q 54.890625 34.8125 54.890625 23.390625 
Q 54.890625 11.625 47.5625 5.09375 
Q 40.234375 -1.421875 26.90625 -1.421875 
Q 22.3125 -1.421875 17.546875 -0.640625 
Q 12.796875 0.140625 7.71875 1.703125 
L 7.71875 11.625 
Q 12.109375 9.234375 16.796875 8.0625 
Q 21.484375 6.890625 26.703125 6.890625 
Q 35.15625 6.890625 40.078125 11.328125 
Q 45.015625 15.765625 45.015625 23.390625 
Q 45.015625 31 40.078125 35.4375 
Q 35.15625 39.890625 26.703125 39.890625 
Q 22.75 39.890625 18.8125 39.015625 
Q 14.890625 38.140625 10.796875 36.28125 
z
" id="DejaVuSans-35"/>
      </defs>
      <g transform="translate(208.6775 271.1575)scale(0.16 -0.16)">
       <use xlink:href="#DejaVuSans-30"/>
       <use x="63.623047" xlink:href="#DejaVuSans-2e"/>
       <use x="95.410156" xlink:href="#DejaVuSans-35"/>
      </g>
     </g>
    </g>
    <g id="xtick_3">
     <g id="line2d_3">
      <g>
       <use style="stroke:#000000;stroke-width:0.8;" x="320.236364" xlink:href="#mc630747f3f" y="252"/>
      </g>
     </g>
     <g id="text_3">
      <!-- 1.0 -->
      <defs>
       <path d="M 12.40625 8.296875 
L 28.515625 8.296875 
L 28.515625 63.921875 
L 10.984375 60.40625 
L 10.984375 69.390625 
L 28.421875 72.90625 
L 38.28125 72.90625 
L 38.28125 8.296875 
L 54.390625 8.296875 
L 54.390625 0 
L 12.40625 0 
z
" id="DejaVuSans-31"/>
      </defs>
      <g transform="translate(307.513864 271.1575)scale(0.16 -0.16)">
       <use xlink:href="#DejaVuSans-31"/>
       <use x="63.623047" xlink:href="#DejaVuSans-2e"/>
       <use x="95.410156" xlink:href="#DejaVuSans-30"/>
      </g>
     </g>
    </g>
    <g id="text_4">
     <!-- fix disparity -->
     <defs>
      <path d="M 37.109375 75.984375 
L 37.109375 68.5 
L 28.515625 68.5 
Q 23.6875 68.5 21.796875 66.546875 
Q 19.921875 64.59375 19.921875 59.515625 
L 19.921875 54.6875 
L 34.71875 54.6875 
L 34.71875 47.703125 
L 19.921875 47.703125 
L 19.921875 0 
L 10.890625 0 
L 10.890625 47.703125 
L 2.296875 47.703125 
L 2.296875 54.6875 
L 10.890625 54.6875 
L 10.890625 58.5 
Q 10.890625 67.625 15.140625 71.796875 
Q 19.390625 75.984375 28.609375 75.984375 
z
" id="DejaVuSans-66"/>
      <path d="M 9.421875 54.6875 
L 18.40625 54.6875 
L 18.40625 0 
L 9.421875 0 
z
M 9.421875 75.984375 
L 18.40625 75.984375 
L 18.40625 64.59375 
L 9.421875 64.59375 
z
" id="DejaVuSans-69"/>
      <path d="M 54.890625 54.6875 
L 35.109375 28.078125 
L 55.90625 0 
L 45.3125 0 
L 29.390625 21.484375 
L 13.484375 0 
L 2.875 0 
L 24.125 28.609375 
L 4.6875 54.6875 
L 15.28125 54.6875 
L 29.78125 35.203125 
L 44.28125 54.6875 
z
" id="DejaVuSans-78"/>
      <path id="DejaVuSans-20"/>
      <path d="M 45.40625 46.390625 
L 45.40625 75.984375 
L 54.390625 75.984375 
L 54.390625 0 
L 45.40625 0 
L 45.40625 8.203125 
Q 42.578125 3.328125 38.25 0.953125 
Q 33.9375 -1.421875 27.875 -1.421875 
Q 17.96875 -1.421875 11.734375 6.484375 
Q 5.515625 14.40625 5.515625 27.296875 
Q 5.515625 40.1875 11.734375 48.09375 
Q 17.96875 56 27.875 56 
Q 33.9375 56 38.25 53.625 
Q 42.578125 51.265625 45.40625 46.390625 
z
M 14.796875 27.296875 
Q 14.796875 17.390625 18.875 11.75 
Q 22.953125 6.109375 30.078125 6.109375 
Q 37.203125 6.109375 41.296875 11.75 
Q 45.40625 17.390625 45.40625 27.296875 
Q 45.40625 37.203125 41.296875 42.84375 
Q 37.203125 48.484375 30.078125 48.484375 
Q 22.953125 48.484375 18.875 42.84375 
Q 14.796875 37.203125 14.796875 27.296875 
z
" id="DejaVuSans-64"/>
      <path d="M 44.28125 53.078125 
L 44.28125 44.578125 
Q 40.484375 46.53125 36.375 47.5 
Q 32.28125 48.484375 27.875 48.484375 
Q 21.1875 48.484375 17.84375 46.4375 
Q 14.5 44.390625 14.5 40.28125 
Q 14.5 37.15625 16.890625 35.375 
Q 19.28125 33.59375 26.515625 31.984375 
L 29.59375 31.296875 
Q 39.15625 29.25 43.1875 25.515625 
Q 47.21875 21.78125 47.21875 15.09375 
Q 47.21875 7.46875 41.1875 3.015625 
Q 35.15625 -1.421875 24.609375 -1.421875 
Q 20.21875 -1.421875 15.453125 -0.5625 
Q 10.6875 0.296875 5.421875 2 
L 5.421875 11.28125 
Q 10.40625 8.6875 15.234375 7.390625 
Q 20.0625 6.109375 24.8125 6.109375 
Q 31.15625 6.109375 34.5625 8.28125 
Q 37.984375 10.453125 37.984375 14.40625 
Q 37.984375 18.0625 35.515625 20.015625 
Q 33.0625 21.96875 24.703125 23.78125 
L 21.578125 24.515625 
Q 13.234375 26.265625 9.515625 29.90625 
Q 5.8125 33.546875 5.8125 39.890625 
Q 5.8125 47.609375 11.28125 51.796875 
Q 16.75 56 26.8125 56 
Q 31.78125 56 36.171875 55.265625 
Q 40.578125 54.546875 44.28125 53.078125 
z
" id="DejaVuSans-73"/>
      <path d="M 18.109375 8.203125 
L 18.109375 -20.796875 
L 9.078125 -20.796875 
L 9.078125 54.6875 
L 18.109375 54.6875 
L 18.109375 46.390625 
Q 20.953125 51.265625 25.265625 53.625 
Q 29.59375 56 35.59375 56 
Q 45.5625 56 51.78125 48.09375 
Q 58.015625 40.1875 58.015625 27.296875 
Q 58.015625 14.40625 51.78125 6.484375 
Q 45.5625 -1.421875 35.59375 -1.421875 
Q 29.59375 -1.421875 25.265625 0.953125 
Q 20.953125 3.328125 18.109375 8.203125 
z
M 48.6875 27.296875 
Q 48.6875 37.203125 44.609375 42.84375 
Q 40.53125 48.484375 33.40625 48.484375 
Q 26.265625 48.484375 22.1875 42.84375 
Q 18.109375 37.203125 18.109375 27.296875 
Q 18.109375 17.390625 22.1875 11.75 
Q 26.265625 6.109375 33.40625 6.109375 
Q 40.53125 6.109375 44.609375 11.75 
Q 48.6875 17.390625 48.6875 27.296875 
z
" id="DejaVuSans-70"/>
      <path d="M 34.28125 27.484375 
Q 23.390625 27.484375 19.1875 25 
Q 14.984375 22.515625 14.984375 16.5 
Q 14.984375 11.71875 18.140625 8.90625 
Q 21.296875 6.109375 26.703125 6.109375 
Q 34.1875 6.109375 38.703125 11.40625 
Q 43.21875 16.703125 43.21875 25.484375 
L 43.21875 27.484375 
z
M 52.203125 31.203125 
L 52.203125 0 
L 43.21875 0 
L 43.21875 8.296875 
Q 40.140625 3.328125 35.546875 0.953125 
Q 30.953125 -1.421875 24.3125 -1.421875 
Q 15.921875 -1.421875 10.953125 3.296875 
Q 6 8.015625 6 15.921875 
Q 6 25.140625 12.171875 29.828125 
Q 18.359375 34.515625 30.609375 34.515625 
L 43.21875 34.515625 
L 43.21875 35.40625 
Q 43.21875 41.609375 39.140625 45 
Q 35.0625 48.390625 27.6875 48.390625 
Q 23 48.390625 18.546875 47.265625 
Q 14.109375 46.140625 10.015625 43.890625 
L 10.015625 52.203125 
Q 14.9375 54.109375 19.578125 55.046875 
Q 24.21875 56 28.609375 56 
Q 40.484375 56 46.34375 49.84375 
Q 52.203125 43.703125 52.203125 31.203125 
z
" id="DejaVuSans-61"/>
      <path d="M 41.109375 46.296875 
Q 39.59375 47.171875 37.8125 47.578125 
Q 36.03125 48 33.890625 48 
Q 26.265625 48 22.1875 43.046875 
Q 18.109375 38.09375 18.109375 28.8125 
L 18.109375 0 
L 9.078125 0 
L 9.078125 54.6875 
L 18.109375 54.6875 
L 18.109375 46.1875 
Q 20.953125 51.171875 25.484375 53.578125 
Q 30.03125 56 36.53125 56 
Q 37.453125 56 38.578125 55.875 
Q 39.703125 55.765625 41.0625 55.515625 
z
" id="DejaVuSans-72"/>
      <path d="M 18.3125 70.21875 
L 18.3125 54.6875 
L 36.8125 54.6875 
L 36.8125 47.703125 
L 18.3125 47.703125 
L 18.3125 18.015625 
Q 18.3125 11.328125 20.140625 9.421875 
Q 21.96875 7.515625 27.59375 7.515625 
L 36.8125 7.515625 
L 36.8125 0 
L 27.59375 0 
Q 17.1875 0 13.234375 3.875 
Q 9.28125 7.765625 9.28125 18.015625 
L 9.28125 47.703125 
L 2.6875 47.703125 
L 2.6875 54.6875 
L 9.28125 54.6875 
L 9.28125 70.21875 
z
" id="DejaVuSans-74"/>
      <path d="M 32.171875 -5.078125 
Q 28.375 -14.84375 24.75 -17.8125 
Q 21.140625 -20.796875 15.09375 -20.796875 
L 7.90625 -20.796875 
L 7.90625 -13.28125 
L 13.1875 -13.28125 
Q 16.890625 -13.28125 18.9375 -11.515625 
Q 21 -9.765625 23.484375 -3.21875 
L 25.09375 0.875 
L 2.984375 54.6875 
L 12.5 54.6875 
L 29.59375 11.921875 
L 46.6875 54.6875 
L 56.203125 54.6875 
z
" id="DejaVuSans-79"/>
     </defs>
     <g transform="translate(174.25125 290.6425)scale(0.16 -0.16)">
      <use xlink:href="#DejaVuSans-66"/>
      <use x="35.205078" xlink:href="#DejaVuSans-69"/>
      <use x="62.988281" xlink:href="#DejaVuSans-78"/>
      <use x="122.167969" xlink:href="#DejaVuSans-20"/>
      <use x="153.955078" xlink:href="#DejaVuSans-64"/>
      <use x="217.431641" xlink:href="#DejaVuSans-69"/>
      <use x="245.214844" xlink:href="#DejaVuSans-73"/>
      <use x="297.314453" xlink:href="#DejaVuSans-70"/>
      <use x="360.791016" xlink:href="#DejaVuSans-61"/>
      <use x="422.070312" xlink:href="#DejaVuSans-72"/>
      <use x="463.183594" xlink:href="#DejaVuSans-69"/>
      <use x="490.966797" xlink:href="#DejaVuSans-74"/>
      <use x="530.175781" xlink:href="#DejaVuSans-79"/>
     </g>
    </g>
   </g>
   <g id="matplotlib.axis_2">
    <g id="ytick_1">
     <g id="line2d_4">
      <defs>
       <path d="M 0 0 
L -3.5 0 
" id="m19bab30518" style="stroke:#000000;stroke-width:0.8;"/>
      </defs>
      <g>
       <use style="stroke:#000000;stroke-width:0.8;" x="112.68" xlink:href="#m19bab30518" y="242.116364"/>
      </g>
     </g>
     <g id="text_5">
      <!-- 0.0 -->
      <g transform="translate(80.235 248.195114)scale(0.16 -0.16)">
       <use xlink:href="#DejaVuSans-30"/>
       <use x="63.623047" xlink:href="#DejaVuSans-2e"/>
       <use x="95.410156" xlink:href="#DejaVuSans-30"/>
      </g>
     </g>
    </g>
    <g id="ytick_2">
     <g id="line2d_5">
      <g>
       <use style="stroke:#000000;stroke-width:0.8;" x="112.68" xlink:href="#m19bab30518" y="202.581818"/>
      </g>
     </g>
     <g id="text_6">
      <!-- 0.2 -->
      <defs>
       <path d="M 19.1875 8.296875 
L 53.609375 8.296875 
L 53.609375 0 
L 7.328125 0 
L 7.328125 8.296875 
Q 12.9375 14.109375 22.625 23.890625 
Q 32.328125 33.6875 34.8125 36.53125 
Q 39.546875 41.84375 41.421875 45.53125 
Q 43.3125 49.21875 43.3125 52.78125 
Q 43.3125 58.59375 39.234375 62.25 
Q 35.15625 65.921875 28.609375 65.921875 
Q 23.96875 65.921875 18.8125 64.3125 
Q 13.671875 62.703125 7.8125 59.421875 
L 7.8125 69.390625 
Q 13.765625 71.78125 18.9375 73 
Q 24.125 74.21875 28.421875 74.21875 
Q 39.75 74.21875 46.484375 68.546875 
Q 53.21875 62.890625 53.21875 53.421875 
Q 53.21875 48.921875 51.53125 44.890625 
Q 49.859375 40.875 45.40625 35.40625 
Q 44.1875 33.984375 37.640625 27.21875 
Q 31.109375 20.453125 19.1875 8.296875 
z
" id="DejaVuSans-32"/>
      </defs>
      <g transform="translate(80.235 208.660568)scale(0.16 -0.16)">
       <use xlink:href="#DejaVuSans-30"/>
       <use x="63.623047" xlink:href="#DejaVuSans-2e"/>
       <use x="95.410156" xlink:href="#DejaVuSans-32"/>
      </g>
     </g>
    </g>
    <g id="ytick_3">
     <g id="line2d_6">
      <g>
       <use style="stroke:#000000;stroke-width:0.8;" x="112.68" xlink:href="#m19bab30518" y="163.047273"/>
      </g>
     </g>
     <g id="text_7">
      <!-- 0.4 -->
      <defs>
       <path d="M 37.796875 64.3125 
L 12.890625 25.390625 
L 37.796875 25.390625 
z
M 35.203125 72.90625 
L 47.609375 72.90625 
L 47.609375 25.390625 
L 58.015625 25.390625 
L 58.015625 17.1875 
L 47.609375 17.1875 
L 47.609375 0 
L 37.796875 0 
L 37.796875 17.1875 
L 4.890625 17.1875 
L 4.890625 26.703125 
z
" id="DejaVuSans-34"/>
      </defs>
      <g transform="translate(80.235 169.126023)scale(0.16 -0.16)">
       <use xlink:href="#DejaVuSans-30"/>
       <use x="63.623047" xlink:href="#DejaVuSans-2e"/>
       <use x="95.410156" xlink:href="#DejaVuSans-34"/>
      </g>
     </g>
    </g>
    <g id="ytick_4">
     <g id="line2d_7">
      <g>
       <use style="stroke:#000000;stroke-width:0.8;" x="112.68" xlink:href="#m19bab30518" y="123.512727"/>
      </g>
     </g>
     <g id="text_8">
      <!-- 0.6 -->
      <defs>
       <path d="M 33.015625 40.375 
Q 26.375 40.375 22.484375 35.828125 
Q 18.609375 31.296875 18.609375 23.390625 
Q 18.609375 15.53125 22.484375 10.953125 
Q 26.375 6.390625 33.015625 6.390625 
Q 39.65625 6.390625 43.53125 10.953125 
Q 47.40625 15.53125 47.40625 23.390625 
Q 47.40625 31.296875 43.53125 35.828125 
Q 39.65625 40.375 33.015625 40.375 
z
M 52.59375 71.296875 
L 52.59375 62.3125 
Q 48.875 64.0625 45.09375 64.984375 
Q 41.3125 65.921875 37.59375 65.921875 
Q 27.828125 65.921875 22.671875 59.328125 
Q 17.53125 52.734375 16.796875 39.40625 
Q 19.671875 43.65625 24.015625 45.921875 
Q 28.375 48.1875 33.59375 48.1875 
Q 44.578125 48.1875 50.953125 41.515625 
Q 57.328125 34.859375 57.328125 23.390625 
Q 57.328125 12.15625 50.6875 5.359375 
Q 44.046875 -1.421875 33.015625 -1.421875 
Q 20.359375 -1.421875 13.671875 8.265625 
Q 6.984375 17.96875 6.984375 36.375 
Q 6.984375 53.65625 15.1875 63.9375 
Q 23.390625 74.21875 37.203125 74.21875 
Q 40.921875 74.21875 44.703125 73.484375 
Q 48.484375 72.75 52.59375 71.296875 
z
" id="DejaVuSans-36"/>
      </defs>
      <g transform="translate(80.235 129.591477)scale(0.16 -0.16)">
       <use xlink:href="#DejaVuSans-30"/>
       <use x="63.623047" xlink:href="#DejaVuSans-2e"/>
       <use x="95.410156" xlink:href="#DejaVuSans-36"/>
      </g>
     </g>
    </g>
    <g id="ytick_5">
     <g id="line2d_8">
      <g>
       <use style="stroke:#000000;stroke-width:0.8;" x="112.68" xlink:href="#m19bab30518" y="83.978182"/>
      </g>
     </g>
     <g id="text_9">
      <!-- 0.8 -->
      <defs>
       <path d="M 31.78125 34.625 
Q 24.75 34.625 20.71875 30.859375 
Q 16.703125 27.09375 16.703125 20.515625 
Q 16.703125 13.921875 20.71875 10.15625 
Q 24.75 6.390625 31.78125 6.390625 
Q 38.8125 6.390625 42.859375 10.171875 
Q 46.921875 13.96875 46.921875 20.515625 
Q 46.921875 27.09375 42.890625 30.859375 
Q 38.875 34.625 31.78125 34.625 
z
M 21.921875 38.8125 
Q 15.578125 40.375 12.03125 44.71875 
Q 8.5 49.078125 8.5 55.328125 
Q 8.5 64.0625 14.71875 69.140625 
Q 20.953125 74.21875 31.78125 74.21875 
Q 42.671875 74.21875 48.875 69.140625 
Q 55.078125 64.0625 55.078125 55.328125 
Q 55.078125 49.078125 51.53125 44.71875 
Q 48 40.375 41.703125 38.8125 
Q 48.828125 37.15625 52.796875 32.3125 
Q 56.78125 27.484375 56.78125 20.515625 
Q 56.78125 9.90625 50.3125 4.234375 
Q 43.84375 -1.421875 31.78125 -1.421875 
Q 19.734375 -1.421875 13.25 4.234375 
Q 6.78125 9.90625 6.78125 20.515625 
Q 6.78125 27.484375 10.78125 32.3125 
Q 14.796875 37.15625 21.921875 38.8125 
z
M 18.3125 54.390625 
Q 18.3125 48.734375 21.84375 45.5625 
Q 25.390625 42.390625 31.78125 42.390625 
Q 38.140625 42.390625 41.71875 45.5625 
Q 45.3125 48.734375 45.3125 54.390625 
Q 45.3125 60.0625 41.71875 63.234375 
Q 38.140625 66.40625 31.78125 66.40625 
Q 25.390625 66.40625 21.84375 63.234375 
Q 18.3125 60.0625 18.3125 54.390625 
z
" id="DejaVuSans-38"/>
      </defs>
      <g transform="translate(80.235 90.056932)scale(0.16 -0.16)">
       <use xlink:href="#DejaVuSans-30"/>
       <use x="63.623047" xlink:href="#DejaVuSans-2e"/>
       <use x="95.410156" xlink:href="#DejaVuSans-38"/>
      </g>
     </g>
    </g>
    <g id="ytick_6">
     <g id="line2d_9">
      <g>
       <use style="stroke:#000000;stroke-width:0.8;" x="112.68" xlink:href="#m19bab30518" y="44.443636"/>
      </g>
     </g>
     <g id="text_10">
      <!-- 1.0 -->
      <g transform="translate(80.235 50.522386)scale(0.16 -0.16)">
       <use xlink:href="#DejaVuSans-31"/>
       <use x="63.623047" xlink:href="#DejaVuSans-2e"/>
       <use x="95.410156" xlink:href="#DejaVuSans-30"/>
      </g>
     </g>
    </g>
    <g id="text_11">
     <!-- stim disparity -->
     <defs>
      <path d="M 52 44.1875 
Q 55.375 50.25 60.0625 53.125 
Q 64.75 56 71.09375 56 
Q 79.640625 56 84.28125 50.015625 
Q 88.921875 44.046875 88.921875 33.015625 
L 88.921875 0 
L 79.890625 0 
L 79.890625 32.71875 
Q 79.890625 40.578125 77.09375 44.375 
Q 74.3125 48.1875 68.609375 48.1875 
Q 61.625 48.1875 57.5625 43.546875 
Q 53.515625 38.921875 53.515625 30.90625 
L 53.515625 0 
L 44.484375 0 
L 44.484375 32.71875 
Q 44.484375 40.625 41.703125 44.40625 
Q 38.921875 48.1875 33.109375 48.1875 
Q 26.21875 48.1875 22.15625 43.53125 
Q 18.109375 38.875 18.109375 30.90625 
L 18.109375 0 
L 9.078125 0 
L 9.078125 54.6875 
L 18.109375 54.6875 
L 18.109375 46.1875 
Q 21.1875 51.21875 25.484375 53.609375 
Q 29.78125 56 35.6875 56 
Q 41.65625 56 45.828125 52.96875 
Q 50 49.953125 52 44.1875 
z
" id="DejaVuSans-6d"/>
     </defs>
     <g transform="translate(72.9075 197.97375)rotate(-90)scale(0.16 -0.16)">
      <use xlink:href="#DejaVuSans-73"/>
      <use x="52.099609" xlink:href="#DejaVuSans-74"/>
      <use x="91.308594" xlink:href="#DejaVuSans-69"/>
      <use x="119.091797" xlink:href="#DejaVuSans-6d"/>
      <use x="216.503906" xlink:href="#DejaVuSans-20"/>
      <use x="248.291016" xlink:href="#DejaVuSans-64"/>
      <use x="311.767578" xlink:href="#DejaVuSans-69"/>
      <use x="339.550781" xlink:href="#DejaVuSans-73"/>
      <use x="391.650391" xlink:href="#DejaVuSans-70"/>
      <use x="455.126953" xlink:href="#DejaVuSans-61"/>
      <use x="516.40625" xlink:href="#DejaVuSans-72"/>
      <use x="557.519531" xlink:href="#DejaVuSans-69"/>
      <use x="585.302734" xlink:href="#DejaVuSans-74"/>
      <use x="624.511719" xlink:href="#DejaVuSans-79"/>
     </g>
    </g>
   </g>
   <g id="line2d_10">
    <defs>
     <path d="M 0 1.5 
C 0.397805 1.5 0.77937 1.341951 1.06066 1.06066 
C 1.341951 0.77937 1.5 0.397805 1.5 0 
C 1.5 -0.397805 1.341951 -0.77937 1.06066 -1.06066 
C 0.77937 -1.341951 0.397805 -1.5 0 -1.5 
C -0.397805 -1.5 -0.77937 -1.341951 -1.06066 -1.06066 
C -1.341951 -0.77937 -1.5 -0.397805 -1.5 0 
C -1.5 0.397805 -1.341951 0.77937 -1.06066 1.06066 
C -0.77937 1.341951 -0.397805 1.5 0 1.5 
z
" id="md439059452" style="stroke:#1f77b4;"/>
    </defs>
    <g clip-path="url(#pdb9010ecb0)">
     <use style="fill:#1f77b4;stroke:#1f77b4;" x="122.563636" xlink:href="#md439059452" y="242.116364"/>
     <use style="fill:#1f77b4;stroke:#1f77b4;" x="312.891659" xlink:href="#md439059452" y="182.832608"/>
     <use style="fill:#1f77b4;stroke:#1f77b4;" x="299.459565" xlink:href="#md439059452" y="115.468301"/>
     <use style="fill:#1f77b4;stroke:#1f77b4;" x="305.00601" xlink:href="#md439059452" y="199.430015"/>
     <use style="fill:#1f77b4;stroke:#1f77b4;" x="316.897594" xlink:href="#md439059452" y="176.432657"/>
     <use style="fill:#1f77b4;stroke:#1f77b4;" x="280.952295" xlink:href="#md439059452" y="119.459182"/>
     <use style="fill:#1f77b4;stroke:#1f77b4;" x="277.829223" xlink:href="#md439059452" y="142.167778"/>
     <use style="fill:#1f77b4;stroke:#1f77b4;" x="280.874161" xlink:href="#md439059452" y="144.356806"/>
     <use style="fill:#1f77b4;stroke:#1f77b4;" x="290.596607" xlink:href="#md439059452" y="126.376794"/>
     <use style="fill:#1f77b4;stroke:#1f77b4;" x="291.16125" xlink:href="#md439059452" y="121.318322"/>
     <use style="fill:#1f77b4;stroke:#1f77b4;" x="286.30754" xlink:href="#md439059452" y="177.942447"/>
     <use style="fill:#1f77b4;stroke:#1f77b4;" x="284.494163" xlink:href="#md439059452" y="178.600685"/>
     <use style="fill:#1f77b4;stroke:#1f77b4;" x="312.89166" xlink:href="#md439059452" y="182.832587"/>
     <use style="fill:#1f77b4;stroke:#1f77b4;" x="122.563636" xlink:href="#md439059452" y="242.116364"/>
     <use style="fill:#1f77b4;stroke:#1f77b4;" x="315.242375" xlink:href="#md439059452" y="181.789434"/>
     <use style="fill:#1f77b4;stroke:#1f77b4;" x="312.301954" xlink:href="#md439059452" y="193.886822"/>
     <use style="fill:#1f77b4;stroke:#1f77b4;" x="279.782538" xlink:href="#md439059452" y="231.942447"/>
     <use style="fill:#1f77b4;stroke:#1f77b4;" x="310.483311" xlink:href="#md439059452" y="157.216324"/>
     <use style="fill:#1f77b4;stroke:#1f77b4;" x="309.226837" xlink:href="#md439059452" y="175.754796"/>
     <use style="fill:#1f77b4;stroke:#1f77b4;" x="311.425995" xlink:href="#md439059452" y="147.076198"/>
     <use style="fill:#1f77b4;stroke:#1f77b4;" x="314.924445" xlink:href="#md439059452" y="158.335406"/>
     <use style="fill:#1f77b4;stroke:#1f77b4;" x="314.708432" xlink:href="#md439059452" y="155.56189"/>
     <use style="fill:#1f77b4;stroke:#1f77b4;" x="313.479552" xlink:href="#md439059452" y="155.408439"/>
     <use style="fill:#1f77b4;stroke:#1f77b4;" x="311.669687" xlink:href="#md439059452" y="165.906897"/>
     <use style="fill:#1f77b4;stroke:#1f77b4;" x="299.459202" xlink:href="#md439059452" y="115.46831"/>
     <use style="fill:#1f77b4;stroke:#1f77b4;" x="315.242375" xlink:href="#md439059452" y="181.789432"/>
     <use style="fill:#1f77b4;stroke:#1f77b4;" x="122.563636" xlink:href="#md439059452" y="242.116364"/>
     <use style="fill:#1f77b4;stroke:#1f77b4;" x="291.720017" xlink:href="#md439059452" y="147.928341"/>
     <use style="fill:#1f77b4;stroke:#1f77b4;" x="307.725957" xlink:href="#md439059452" y="188.015633"/>
     <use style="fill:#1f77b4;stroke:#1f77b4;" x="238.120043" xlink:href="#md439059452" y="220.435528"/>
     <use style="fill:#1f77b4;stroke:#1f77b4;" x="217.782279" xlink:href="#md439059452" y="218.808729"/>
     <use style="fill:#1f77b4;stroke:#1f77b4;" x="211.228096" xlink:href="#md439059452" y="178.825867"/>
     <use style="fill:#1f77b4;stroke:#1f77b4;" x="260.083685" xlink:href="#md439059452" y="219.490902"/>
     <use style="fill:#1f77b4;stroke:#1f77b4;" x="261.87873" xlink:href="#md439059452" y="215.818309"/>
     <use style="fill:#1f77b4;stroke:#1f77b4;" x="289.874565" xlink:href="#md439059452" y="129.907797"/>
     <use style="fill:#1f77b4;stroke:#1f77b4;" x="279.520644" xlink:href="#md439059452" y="123.918743"/>
     <use style="fill:#1f77b4;stroke:#1f77b4;" x="305.006015" xlink:href="#md439059452" y="199.430008"/>
     <use style="fill:#1f77b4;stroke:#1f77b4;" x="312.30194" xlink:href="#md439059452" y="193.886798"/>
     <use style="fill:#1f77b4;stroke:#1f77b4;" x="291.720846" xlink:href="#md439059452" y="147.928359"/>
     <use style="fill:#1f77b4;stroke:#1f77b4;" x="122.563636" xlink:href="#md439059452" y="242.116364"/>
     <use style="fill:#1f77b4;stroke:#1f77b4;" x="287.817418" xlink:href="#md439059452" y="196.397604"/>
     <use style="fill:#1f77b4;stroke:#1f77b4;" x="285.423404" xlink:href="#md439059452" y="147.333816"/>
     <use style="fill:#1f77b4;stroke:#1f77b4;" x="281.753446" xlink:href="#md439059452" y="159.706148"/>
     <use style="fill:#1f77b4;stroke:#1f77b4;" x="278.249615" xlink:href="#md439059452" y="152.004145"/>
     <use style="fill:#1f77b4;stroke:#1f77b4;" x="295.559879" xlink:href="#md439059452" y="150.224523"/>
     <use style="fill:#1f77b4;stroke:#1f77b4;" x="286.153484" xlink:href="#md439059452" y="145.971478"/>
     <use style="fill:#1f77b4;stroke:#1f77b4;" x="290.773632" xlink:href="#md439059452" y="173.716635"/>
     <use style="fill:#1f77b4;stroke:#1f77b4;" x="287.186273" xlink:href="#md439059452" y="182.775813"/>
     <use style="fill:#1f77b4;stroke:#1f77b4;" x="316.897596" xlink:href="#md439059452" y="176.432664"/>
     <use style="fill:#1f77b4;stroke:#1f77b4;" x="279.782539" xlink:href="#md439059452" y="231.942443"/>
     <use style="fill:#1f77b4;stroke:#1f77b4;" x="307.72597" xlink:href="#md439059452" y="188.015635"/>
     <use style="fill:#1f77b4;stroke:#1f77b4;" x="287.817426" xlink:href="#md439059452" y="196.397604"/>
     <use style="fill:#1f77b4;stroke:#1f77b4;" x="122.563636" xlink:href="#md439059452" y="242.116364"/>
     <use style="fill:#1f77b4;stroke:#1f77b4;" x="308.358762" xlink:href="#md439059452" y="164.455048"/>
     <use style="fill:#1f77b4;stroke:#1f77b4;" x="307.433439" xlink:href="#md439059452" y="179.45166"/>
     <use style="fill:#1f77b4;stroke:#1f77b4;" x="305.496072" xlink:href="#md439059452" y="157.856005"/>
     <use style="fill:#1f77b4;stroke:#1f77b4;" x="309.4406" xlink:href="#md439059452" y="166.285811"/>
     <use style="fill:#1f77b4;stroke:#1f77b4;" x="309.506455" xlink:href="#md439059452" y="163.189028"/>
     <use style="fill:#1f77b4;stroke:#1f77b4;" x="310.285413" xlink:href="#md439059452" y="175.098108"/>
     <use style="fill:#1f77b4;stroke:#1f77b4;" x="306.486" xlink:href="#md439059452" y="175.654715"/>
     <use style="fill:#1f77b4;stroke:#1f77b4;" x="280.95265" xlink:href="#md439059452" y="119.459162"/>
     <use style="fill:#1f77b4;stroke:#1f77b4;" x="310.483316" xlink:href="#md439059452" y="157.216322"/>
     <use style="fill:#1f77b4;stroke:#1f77b4;" x="238.12047" xlink:href="#md439059452" y="220.435527"/>
     <use style="fill:#1f77b4;stroke:#1f77b4;" x="285.423431" xlink:href="#md439059452" y="147.333792"/>
     <use style="fill:#1f77b4;stroke:#1f77b4;" x="308.358766" xlink:href="#md439059452" y="164.455051"/>
     <use style="fill:#1f77b4;stroke:#1f77b4;" x="122.563636" xlink:href="#md439059452" y="242.116364"/>
     <use style="fill:#1f77b4;stroke:#1f77b4;" x="249.779386" xlink:href="#md439059452" y="198.770126"/>
     <use style="fill:#1f77b4;stroke:#1f77b4;" x="243.068894" xlink:href="#md439059452" y="173.88291"/>
     <use style="fill:#1f77b4;stroke:#1f77b4;" x="209.886268" xlink:href="#md439059452" y="239.082129"/>
     <use style="fill:#1f77b4;stroke:#1f77b4;" x="218.032878" xlink:href="#md439059452" y="239.072583"/>
     <use style="fill:#1f77b4;stroke:#1f77b4;" x="270.130226" xlink:href="#md439059452" y="117.865224"/>
     <use style="fill:#1f77b4;stroke:#1f77b4;" x="257.361967" xlink:href="#md439059452" y="105.364231"/>
     <use style="fill:#1f77b4;stroke:#1f77b4;" x="277.829223" xlink:href="#md439059452" y="142.167768"/>
     <use style="fill:#1f77b4;stroke:#1f77b4;" x="309.226834" xlink:href="#md439059452" y="175.75479"/>
     <use style="fill:#1f77b4;stroke:#1f77b4;" x="217.782263" xlink:href="#md439059452" y="218.808734"/>
     <use style="fill:#1f77b4;stroke:#1f77b4;" x="281.753437" xlink:href="#md439059452" y="159.706123"/>
     <use style="fill:#1f77b4;stroke:#1f77b4;" x="307.433434" xlink:href="#md439059452" y="179.451659"/>
     <use style="fill:#1f77b4;stroke:#1f77b4;" x="249.779108" xlink:href="#md439059452" y="198.770125"/>
     <use style="fill:#1f77b4;stroke:#1f77b4;" x="122.563636" xlink:href="#md439059452" y="242.116364"/>
     <use style="fill:#1f77b4;stroke:#1f77b4;" x="136.360845" xlink:href="#md439059452" y="190.30328"/>
     <use style="fill:#1f77b4;stroke:#1f77b4;" x="266.155224" xlink:href="#md439059452" y="200.675521"/>
     <use style="fill:#1f77b4;stroke:#1f77b4;" x="253.373981" xlink:href="#md439059452" y="193.795926"/>
     <use style="fill:#1f77b4;stroke:#1f77b4;" x="283.156604" xlink:href="#md439059452" y="145.188703"/>
     <use style="fill:#1f77b4;stroke:#1f77b4;" x="277.020907" xlink:href="#md439059452" y="140.749378"/>
     <use style="fill:#1f77b4;stroke:#1f77b4;" x="280.874143" xlink:href="#md439059452" y="144.356809"/>
     <use style="fill:#1f77b4;stroke:#1f77b4;" x="311.425996" xlink:href="#md439059452" y="147.076182"/>
     <use style="fill:#1f77b4;stroke:#1f77b4;" x="211.228091" xlink:href="#md439059452" y="178.825861"/>
     <use style="fill:#1f77b4;stroke:#1f77b4;" x="278.249636" xlink:href="#md439059452" y="152.004143"/>
     <use style="fill:#1f77b4;stroke:#1f77b4;" x="305.496074" xlink:href="#md439059452" y="157.856002"/>
     <use style="fill:#1f77b4;stroke:#1f77b4;" x="243.068892" xlink:href="#md439059452" y="173.882906"/>
     <use style="fill:#1f77b4;stroke:#1f77b4;" x="136.360844" xlink:href="#md439059452" y="190.303275"/>
     <use style="fill:#1f77b4;stroke:#1f77b4;" x="122.563636" xlink:href="#md439059452" y="242.116364"/>
     <use style="fill:#1f77b4;stroke:#1f77b4;" x="266.449151" xlink:href="#md439059452" y="172.563089"/>
     <use style="fill:#1f77b4;stroke:#1f77b4;" x="253.060085" xlink:href="#md439059452" y="161.38127"/>
     <use style="fill:#1f77b4;stroke:#1f77b4;" x="276.496246" xlink:href="#md439059452" y="141.150513"/>
     <use style="fill:#1f77b4;stroke:#1f77b4;" x="268.672817" xlink:href="#md439059452" y="127.97538"/>
     <use style="fill:#1f77b4;stroke:#1f77b4;" x="290.596249" xlink:href="#md439059452" y="126.376785"/>
     <use style="fill:#1f77b4;stroke:#1f77b4;" x="314.924318" xlink:href="#md439059452" y="158.335417"/>
     <use style="fill:#1f77b4;stroke:#1f77b4;" x="260.084786" xlink:href="#md439059452" y="219.490904"/>
     <use style="fill:#1f77b4;stroke:#1f77b4;" x="295.559961" xlink:href="#md439059452" y="150.224466"/>
     <use style="fill:#1f77b4;stroke:#1f77b4;" x="309.440602" xlink:href="#md439059452" y="166.285803"/>
     <use style="fill:#1f77b4;stroke:#1f77b4;" x="209.886267" xlink:href="#md439059452" y="239.082129"/>
     <use style="fill:#1f77b4;stroke:#1f77b4;" x="266.154865" xlink:href="#md439059452" y="200.675522"/>
     <use style="fill:#1f77b4;stroke:#1f77b4;" x="266.444363" xlink:href="#md439059452" y="172.563089"/>
     <use style="fill:#1f77b4;stroke:#1f77b4;" x="122.563636" xlink:href="#md439059452" y="242.116364"/>
     <use style="fill:#1f77b4;stroke:#1f77b4;" x="199.527299" xlink:href="#md439059452" y="238.935784"/>
     <use style="fill:#1f77b4;stroke:#1f77b4;" x="277.202622" xlink:href="#md439059452" y="119.035487"/>
     <use style="fill:#1f77b4;stroke:#1f77b4;" x="267.287957" xlink:href="#md439059452" y="106.33061"/>
     <use style="fill:#1f77b4;stroke:#1f77b4;" x="291.161291" xlink:href="#md439059452" y="121.318313"/>
     <use style="fill:#1f77b4;stroke:#1f77b4;" x="314.708412" xlink:href="#md439059452" y="155.561903"/>
     <use style="fill:#1f77b4;stroke:#1f77b4;" x="261.878916" xlink:href="#md439059452" y="215.818309"/>
     <use style="fill:#1f77b4;stroke:#1f77b4;" x="286.153508" xlink:href="#md439059452" y="145.971516"/>
     <use style="fill:#1f77b4;stroke:#1f77b4;" x="309.506462" xlink:href="#md439059452" y="163.189013"/>
     <use style="fill:#1f77b4;stroke:#1f77b4;" x="218.032866" xlink:href="#md439059452" y="239.072583"/>
     <use style="fill:#1f77b4;stroke:#1f77b4;" x="253.374114" xlink:href="#md439059452" y="193.795924"/>
     <use style="fill:#1f77b4;stroke:#1f77b4;" x="253.059957" xlink:href="#md439059452" y="161.381274"/>
     <use style="fill:#1f77b4;stroke:#1f77b4;" x="199.527328" xlink:href="#md439059452" y="238.935784"/>
     <use style="fill:#1f77b4;stroke:#1f77b4;" x="122.563636" xlink:href="#md439059452" y="242.116364"/>
     <use style="fill:#1f77b4;stroke:#1f77b4;" x="277.476909" xlink:href="#md439059452" y="116.993359"/>
     <use style="fill:#1f77b4;stroke:#1f77b4;" x="262.710793" xlink:href="#md439059452" y="109.256284"/>
     <use style="fill:#1f77b4;stroke:#1f77b4;" x="286.307494" xlink:href="#md439059452" y="177.942483"/>
     <use style="fill:#1f77b4;stroke:#1f77b4;" x="313.479551" xlink:href="#md439059452" y="155.40849"/>
     <use style="fill:#1f77b4;stroke:#1f77b4;" x="289.87393" xlink:href="#md439059452" y="129.90783"/>
     <use style="fill:#1f77b4;stroke:#1f77b4;" x="290.773649" xlink:href="#md439059452" y="173.716627"/>
     <use style="fill:#1f77b4;stroke:#1f77b4;" x="310.285422" xlink:href="#md439059452" y="175.098114"/>
     <use style="fill:#1f77b4;stroke:#1f77b4;" x="270.130252" xlink:href="#md439059452" y="117.865168"/>
     <use style="fill:#1f77b4;stroke:#1f77b4;" x="283.156592" xlink:href="#md439059452" y="145.188786"/>
     <use style="fill:#1f77b4;stroke:#1f77b4;" x="276.496233" xlink:href="#md439059452" y="141.150523"/>
     <use style="fill:#1f77b4;stroke:#1f77b4;" x="277.202686" xlink:href="#md439059452" y="119.035501"/>
     <use style="fill:#1f77b4;stroke:#1f77b4;" x="277.476255" xlink:href="#md439059452" y="116.993358"/>
     <use style="fill:#1f77b4;stroke:#1f77b4;" x="122.563636" xlink:href="#md439059452" y="242.116364"/>
     <use style="fill:#1f77b4;stroke:#1f77b4;" x="179.133166" xlink:href="#md439059452" y="220.549656"/>
     <use style="fill:#1f77b4;stroke:#1f77b4;" x="284.494056" xlink:href="#md439059452" y="178.600688"/>
     <use style="fill:#1f77b4;stroke:#1f77b4;" x="311.669684" xlink:href="#md439059452" y="165.90689"/>
     <use style="fill:#1f77b4;stroke:#1f77b4;" x="279.520372" xlink:href="#md439059452" y="123.918748"/>
     <use style="fill:#1f77b4;stroke:#1f77b4;" x="287.186299" xlink:href="#md439059452" y="182.775838"/>
     <use style="fill:#1f77b4;stroke:#1f77b4;" x="306.486" xlink:href="#md439059452" y="175.654646"/>
     <use style="fill:#1f77b4;stroke:#1f77b4;" x="257.362371" xlink:href="#md439059452" y="105.364237"/>
     <use style="fill:#1f77b4;stroke:#1f77b4;" x="277.020851" xlink:href="#md439059452" y="140.749329"/>
     <use style="fill:#1f77b4;stroke:#1f77b4;" x="268.672793" xlink:href="#md439059452" y="127.975332"/>
     <use style="fill:#1f77b4;stroke:#1f77b4;" x="267.287712" xlink:href="#md439059452" y="106.330579"/>
     <use style="fill:#1f77b4;stroke:#1f77b4;" x="262.710868" xlink:href="#md439059452" y="109.256205"/>
     <use style="fill:#1f77b4;stroke:#1f77b4;" x="179.133167" xlink:href="#md439059452" y="220.549661"/>
     <use style="fill:#1f77b4;stroke:#1f77b4;" x="122.563636" xlink:href="#md439059452" y="242.116364"/>
    </g>
   </g>
   <g id="line2d_11">
    <path clip-path="url(#pdb9010ecb0)" d="M 122.563636 242.116364 
L 320.236364 44.443636 
" style="fill:none;stroke:#000000;stroke-linecap:square;stroke-opacity:0.5;stroke-width:1.5;"/>
   </g>
   <g id="patch_3">
    <path d="M 112.68 252 
L 112.68 34.56 
" style="fill:none;stroke:#000000;stroke-linecap:square;stroke-linejoin:miter;stroke-width:0.8;"/>
   </g>
   <g id="patch_4">
    <path d="M 330.12 252 
L 330.12 34.56 
" style="fill:none;stroke:#000000;stroke-linecap:square;stroke-linejoin:miter;stroke-width:0.8;"/>
   </g>
   <g id="patch_5">
    <path d="M 112.68 252 
L 330.12 252 
" style="fill:none;stroke:#000000;stroke-linecap:square;stroke-linejoin:miter;stroke-width:0.8;"/>
   </g>
   <g id="patch_6">
    <path d="M 112.68 34.56 
L 330.12 34.56 
" style="fill:none;stroke:#000000;stroke-linecap:square;stroke-linejoin:miter;stroke-width:0.8;"/>
   </g>
   <g id="text_12">
    <!-- lowD/combos/most_model_0 -->
    <defs>
     <path d="M 9.421875 75.984375 
L 18.40625 75.984375 
L 18.40625 0 
L 9.421875 0 
z
" id="DejaVuSans-6c"/>
     <path d="M 30.609375 48.390625 
Q 23.390625 48.390625 19.1875 42.75 
Q 14.984375 37.109375 14.984375 27.296875 
Q 14.984375 17.484375 19.15625 11.84375 
Q 23.34375 6.203125 30.609375 6.203125 
Q 37.796875 6.203125 41.984375 11.859375 
Q 46.1875 17.53125 46.1875 27.296875 
Q 46.1875 37.015625 41.984375 42.703125 
Q 37.796875 48.390625 30.609375 48.390625 
z
M 30.609375 56 
Q 42.328125 56 49.015625 48.375 
Q 55.71875 40.765625 55.71875 27.296875 
Q 55.71875 13.875 49.015625 6.21875 
Q 42.328125 -1.421875 30.609375 -1.421875 
Q 18.84375 -1.421875 12.171875 6.21875 
Q 5.515625 13.875 5.515625 27.296875 
Q 5.515625 40.765625 12.171875 48.375 
Q 18.84375 56 30.609375 56 
z
" id="DejaVuSans-6f"/>
     <path d="M 4.203125 54.6875 
L 13.1875 54.6875 
L 24.421875 12.015625 
L 35.59375 54.6875 
L 46.1875 54.6875 
L 57.421875 12.015625 
L 68.609375 54.6875 
L 77.59375 54.6875 
L 63.28125 0 
L 52.6875 0 
L 40.921875 44.828125 
L 29.109375 0 
L 18.5 0 
z
" id="DejaVuSans-77"/>
     <path d="M 19.671875 64.796875 
L 19.671875 8.109375 
L 31.59375 8.109375 
Q 46.6875 8.109375 53.6875 14.9375 
Q 60.6875 21.78125 60.6875 36.53125 
Q 60.6875 51.171875 53.6875 57.984375 
Q 46.6875 64.796875 31.59375 64.796875 
z
M 9.8125 72.90625 
L 30.078125 72.90625 
Q 51.265625 72.90625 61.171875 64.09375 
Q 71.09375 55.28125 71.09375 36.53125 
Q 71.09375 17.671875 61.125 8.828125 
Q 51.171875 0 30.078125 0 
L 9.8125 0 
z
" id="DejaVuSans-44"/>
     <path d="M 25.390625 72.90625 
L 33.6875 72.90625 
L 8.296875 -9.28125 
L 0 -9.28125 
z
" id="DejaVuSans-2f"/>
     <path d="M 48.78125 52.59375 
L 48.78125 44.1875 
Q 44.96875 46.296875 41.140625 47.34375 
Q 37.3125 48.390625 33.40625 48.390625 
Q 24.65625 48.390625 19.8125 42.84375 
Q 14.984375 37.3125 14.984375 27.296875 
Q 14.984375 17.28125 19.8125 11.734375 
Q 24.65625 6.203125 33.40625 6.203125 
Q 37.3125 6.203125 41.140625 7.25 
Q 44.96875 8.296875 48.78125 10.40625 
L 48.78125 2.09375 
Q 45.015625 0.34375 40.984375 -0.53125 
Q 36.96875 -1.421875 32.421875 -1.421875 
Q 20.0625 -1.421875 12.78125 6.34375 
Q 5.515625 14.109375 5.515625 27.296875 
Q 5.515625 40.671875 12.859375 48.328125 
Q 20.21875 56 33.015625 56 
Q 37.15625 56 41.109375 55.140625 
Q 45.0625 54.296875 48.78125 52.59375 
z
" id="DejaVuSans-63"/>
     <path d="M 48.6875 27.296875 
Q 48.6875 37.203125 44.609375 42.84375 
Q 40.53125 48.484375 33.40625 48.484375 
Q 26.265625 48.484375 22.1875 42.84375 
Q 18.109375 37.203125 18.109375 27.296875 
Q 18.109375 17.390625 22.1875 11.75 
Q 26.265625 6.109375 33.40625 6.109375 
Q 40.53125 6.109375 44.609375 11.75 
Q 48.6875 17.390625 48.6875 27.296875 
z
M 18.109375 46.390625 
Q 20.953125 51.265625 25.265625 53.625 
Q 29.59375 56 35.59375 56 
Q 45.5625 56 51.78125 48.09375 
Q 58.015625 40.1875 58.015625 27.296875 
Q 58.015625 14.40625 51.78125 6.484375 
Q 45.5625 -1.421875 35.59375 -1.421875 
Q 29.59375 -1.421875 25.265625 0.953125 
Q 20.953125 3.328125 18.109375 8.203125 
L 18.109375 0 
L 9.078125 0 
L 9.078125 75.984375 
L 18.109375 75.984375 
z
" id="DejaVuSans-62"/>
     <path d="M 50.984375 -16.609375 
L 50.984375 -23.578125 
L -0.984375 -23.578125 
L -0.984375 -16.609375 
z
" id="DejaVuSans-5f"/>
     <path d="M 56.203125 29.59375 
L 56.203125 25.203125 
L 14.890625 25.203125 
Q 15.484375 15.921875 20.484375 11.0625 
Q 25.484375 6.203125 34.421875 6.203125 
Q 39.59375 6.203125 44.453125 7.46875 
Q 49.3125 8.734375 54.109375 11.28125 
L 54.109375 2.78125 
Q 49.265625 0.734375 44.1875 -0.34375 
Q 39.109375 -1.421875 33.890625 -1.421875 
Q 20.796875 -1.421875 13.15625 6.1875 
Q 5.515625 13.8125 5.515625 26.8125 
Q 5.515625 40.234375 12.765625 48.109375 
Q 20.015625 56 32.328125 56 
Q 43.359375 56 49.78125 48.890625 
Q 56.203125 41.796875 56.203125 29.59375 
z
M 47.21875 32.234375 
Q 47.125 39.59375 43.09375 43.984375 
Q 39.0625 48.390625 32.421875 48.390625 
Q 24.90625 48.390625 20.390625 44.140625 
Q 15.875 39.890625 15.1875 32.171875 
z
" id="DejaVuSans-65"/>
    </defs>
    <g transform="translate(84.084 28.56)scale(0.192 -0.192)">
     <use xlink:href="#DejaVuSans-6c"/>
     <use x="27.783203" xlink:href="#DejaVuSans-6f"/>
     <use x="88.964844" xlink:href="#DejaVuSans-77"/>
     <use x="170.751953" xlink:href="#DejaVuSans-44"/>
     <use x="247.753906" xlink:href="#DejaVuSans-2f"/>
     <use x="281.445312" xlink:href="#DejaVuSans-63"/>
     <use x="336.425781" xlink:href="#DejaVuSans-6f"/>
     <use x="397.607422" xlink:href="#DejaVuSans-6d"/>
     <use x="495.019531" xlink:href="#DejaVuSans-62"/>
     <use x="558.496094" xlink:href="#DejaVuSans-6f"/>
     <use x="619.677734" xlink:href="#DejaVuSans-73"/>
     <use x="671.777344" xlink:href="#DejaVuSans-2f"/>
     <use x="705.46875" xlink:href="#DejaVuSans-6d"/>
     <use x="802.880859" xlink:href="#DejaVuSans-6f"/>
     <use x="864.0625" xlink:href="#DejaVuSans-73"/>
     <use x="916.162109" xlink:href="#DejaVuSans-74"/>
     <use x="955.371094" xlink:href="#DejaVuSans-5f"/>
     <use x="1005.371094" xlink:href="#DejaVuSans-6d"/>
     <use x="1102.783203" xlink:href="#DejaVuSans-6f"/>
     <use x="1163.964844" xlink:href="#DejaVuSans-64"/>
     <use x="1227.441406" xlink:href="#DejaVuSans-65"/>
     <use x="1288.964844" xlink:href="#DejaVuSans-6c"/>
     <use x="1316.748047" xlink:href="#DejaVuSans-5f"/>
     <use x="1366.748047" xlink:href="#DejaVuSans-30"/>
    </g>
   </g>
  </g>
 </g>
 <defs>
  <clipPath id="pdb9010ecb0">
   <rect height="217.44" width="217.44" x="112.68" y="34.56"/>
  </clipPath>
 </defs>
</svg>
