<?xml version="1.0" encoding="utf-8" standalone="no"?>
<!DOCTYPE svg PUBLIC "-//W3C//DTD SVG 1.1//EN"
  "http://www.w3.org/Graphics/SVG/1.1/DTD/svg11.dtd">
<!-- Created with matplotlib (http://matplotlib.org/) -->
<svg height="576pt" version="1.1" viewBox="0 0 1152 576" width="1152pt" xmlns="http://www.w3.org/2000/svg" xmlns:xlink="http://www.w3.org/1999/xlink">
 <defs>
  <style type="text/css">
*{stroke-linecap:butt;stroke-linejoin:round;}
  </style>
 </defs>
 <g id="figure_1">
  <g id="patch_1">
   <path d="M 0 576 
L 1152 576 
L 1152 0 
L 0 0 
z
" style="fill:#ffffff;"/>
  </g>
  <g id="axes_1">
   <g id="patch_2">
    <path d="M 144 504 
L 549.818182 504 
L 549.818182 69.12 
L 144 69.12 
z
" style="fill:#ffffff;"/>
   </g>
   <g id="matplotlib.axis_1">
    <g id="xtick_1">
     <g id="line2d_1">
      <defs>
       <path d="M 0 0 
L 0 3.5 
" id="m5a3a668dd5" style="stroke:#000000;stroke-width:0.8;"/>
      </defs>
      <g>
       <use style="stroke:#000000;stroke-width:0.8;" x="162.446281" xlink:href="#m5a3a668dd5" y="504"/>
      </g>
     </g>
     <g id="text_1">
      <!-- 0 -->
      <defs>
       <path d="M 31.78125 66.40625 
Q 24.171875 66.40625 20.328125 58.90625 
Q 16.5 51.421875 16.5 36.375 
Q 16.5 21.390625 20.328125 13.890625 
Q 24.171875 6.390625 31.78125 6.390625 
Q 39.453125 6.390625 43.28125 13.890625 
Q 47.125 21.390625 47.125 36.375 
Q 47.125 51.421875 43.28125 58.90625 
Q 39.453125 66.40625 31.78125 66.40625 
z
M 31.78125 74.21875 
Q 44.046875 74.21875 50.515625 64.515625 
Q 56.984375 54.828125 56.984375 36.375 
Q 56.984375 17.96875 50.515625 8.265625 
Q 44.046875 -1.421875 31.78125 -1.421875 
Q 19.53125 -1.421875 13.0625 8.265625 
Q 6.59375 17.96875 6.59375 36.375 
Q 6.59375 54.828125 13.0625 64.515625 
Q 19.53125 74.21875 31.78125 74.21875 
z
" id="DejaVuSans-30"/>
      </defs>
      <g transform="translate(159.265031 518.598438)scale(0.1 -0.1)">
       <use xlink:href="#DejaVuSans-30"/>
      </g>
     </g>
    </g>
    <g id="xtick_2">
     <g id="line2d_2">
      <g>
       <use style="stroke:#000000;stroke-width:0.8;" x="226.054146" xlink:href="#m5a3a668dd5" y="504"/>
      </g>
     </g>
     <g id="text_2">
      <!-- 5 -->
      <defs>
       <path d="M 10.796875 72.90625 
L 49.515625 72.90625 
L 49.515625 64.59375 
L 19.828125 64.59375 
L 19.828125 46.734375 
Q 21.96875 47.46875 24.109375 47.828125 
Q 26.265625 48.1875 28.421875 48.1875 
Q 40.625 48.1875 47.75 41.5 
Q 54.890625 34.8125 54.890625 23.390625 
Q 54.890625 11.625 47.5625 5.09375 
Q 40.234375 -1.421875 26.90625 -1.421875 
Q 22.3125 -1.421875 17.546875 -0.640625 
Q 12.796875 0.140625 7.71875 1.703125 
L 7.71875 11.625 
Q 12.109375 9.234375 16.796875 8.0625 
Q 21.484375 6.890625 26.703125 6.890625 
Q 35.15625 6.890625 40.078125 11.328125 
Q 45.015625 15.765625 45.015625 23.390625 
Q 45.015625 31 40.078125 35.4375 
Q 35.15625 39.890625 26.703125 39.890625 
Q 22.75 39.890625 18.8125 39.015625 
Q 14.890625 38.140625 10.796875 36.28125 
z
" id="DejaVuSans-35"/>
      </defs>
      <g transform="translate(222.872896 518.598438)scale(0.1 -0.1)">
       <use xlink:href="#DejaVuSans-35"/>
      </g>
     </g>
    </g>
    <g id="xtick_3">
     <g id="line2d_3">
      <g>
       <use style="stroke:#000000;stroke-width:0.8;" x="289.662012" xlink:href="#m5a3a668dd5" y="504"/>
      </g>
     </g>
     <g id="text_3">
      <!-- 10 -->
      <defs>
       <path d="M 12.40625 8.296875 
L 28.515625 8.296875 
L 28.515625 63.921875 
L 10.984375 60.40625 
L 10.984375 69.390625 
L 28.421875 72.90625 
L 38.28125 72.90625 
L 38.28125 8.296875 
L 54.390625 8.296875 
L 54.390625 0 
L 12.40625 0 
z
" id="DejaVuSans-31"/>
      </defs>
      <g transform="translate(283.299512 518.598438)scale(0.1 -0.1)">
       <use xlink:href="#DejaVuSans-31"/>
       <use x="63.623047" xlink:href="#DejaVuSans-30"/>
      </g>
     </g>
    </g>
    <g id="xtick_4">
     <g id="line2d_4">
      <g>
       <use style="stroke:#000000;stroke-width:0.8;" x="353.269877" xlink:href="#m5a3a668dd5" y="504"/>
      </g>
     </g>
     <g id="text_4">
      <!-- 15 -->
      <g transform="translate(346.907377 518.598438)scale(0.1 -0.1)">
       <use xlink:href="#DejaVuSans-31"/>
       <use x="63.623047" xlink:href="#DejaVuSans-35"/>
      </g>
     </g>
    </g>
    <g id="xtick_5">
     <g id="line2d_5">
      <g>
       <use style="stroke:#000000;stroke-width:0.8;" x="416.877743" xlink:href="#m5a3a668dd5" y="504"/>
      </g>
     </g>
     <g id="text_5">
      <!-- 20 -->
      <defs>
       <path d="M 19.1875 8.296875 
L 53.609375 8.296875 
L 53.609375 0 
L 7.328125 0 
L 7.328125 8.296875 
Q 12.9375 14.109375 22.625 23.890625 
Q 32.328125 33.6875 34.8125 36.53125 
Q 39.546875 41.84375 41.421875 45.53125 
Q 43.3125 49.21875 43.3125 52.78125 
Q 43.3125 58.59375 39.234375 62.25 
Q 35.15625 65.921875 28.609375 65.921875 
Q 23.96875 65.921875 18.8125 64.3125 
Q 13.671875 62.703125 7.8125 59.421875 
L 7.8125 69.390625 
Q 13.765625 71.78125 18.9375 73 
Q 24.125 74.21875 28.421875 74.21875 
Q 39.75 74.21875 46.484375 68.546875 
Q 53.21875 62.890625 53.21875 53.421875 
Q 53.21875 48.921875 51.53125 44.890625 
Q 49.859375 40.875 45.40625 35.40625 
Q 44.1875 33.984375 37.640625 27.21875 
Q 31.109375 20.453125 19.1875 8.296875 
z
" id="DejaVuSans-32"/>
      </defs>
      <g transform="translate(410.515243 518.598438)scale(0.1 -0.1)">
       <use xlink:href="#DejaVuSans-32"/>
       <use x="63.623047" xlink:href="#DejaVuSans-30"/>
      </g>
     </g>
    </g>
    <g id="xtick_6">
     <g id="line2d_6">
      <g>
       <use style="stroke:#000000;stroke-width:0.8;" x="480.485608" xlink:href="#m5a3a668dd5" y="504"/>
      </g>
     </g>
     <g id="text_6">
      <!-- 25 -->
      <g transform="translate(474.123108 518.598438)scale(0.1 -0.1)">
       <use xlink:href="#DejaVuSans-32"/>
       <use x="63.623047" xlink:href="#DejaVuSans-35"/>
      </g>
     </g>
    </g>
    <g id="xtick_7">
     <g id="line2d_7">
      <g>
       <use style="stroke:#000000;stroke-width:0.8;" x="544.093474" xlink:href="#m5a3a668dd5" y="504"/>
      </g>
     </g>
     <g id="text_7">
      <!-- 30 -->
      <defs>
       <path d="M 40.578125 39.3125 
Q 47.65625 37.796875 51.625 33 
Q 55.609375 28.21875 55.609375 21.1875 
Q 55.609375 10.40625 48.1875 4.484375 
Q 40.765625 -1.421875 27.09375 -1.421875 
Q 22.515625 -1.421875 17.65625 -0.515625 
Q 12.796875 0.390625 7.625 2.203125 
L 7.625 11.71875 
Q 11.71875 9.328125 16.59375 8.109375 
Q 21.484375 6.890625 26.8125 6.890625 
Q 36.078125 6.890625 40.9375 10.546875 
Q 45.796875 14.203125 45.796875 21.1875 
Q 45.796875 27.640625 41.28125 31.265625 
Q 36.765625 34.90625 28.71875 34.90625 
L 20.21875 34.90625 
L 20.21875 43.015625 
L 29.109375 43.015625 
Q 36.375 43.015625 40.234375 45.921875 
Q 44.09375 48.828125 44.09375 54.296875 
Q 44.09375 59.90625 40.109375 62.90625 
Q 36.140625 65.921875 28.71875 65.921875 
Q 24.65625 65.921875 20.015625 65.03125 
Q 15.375 64.15625 9.8125 62.3125 
L 9.8125 71.09375 
Q 15.4375 72.65625 20.34375 73.4375 
Q 25.25 74.21875 29.59375 74.21875 
Q 40.828125 74.21875 47.359375 69.109375 
Q 53.90625 64.015625 53.90625 55.328125 
Q 53.90625 49.265625 50.4375 45.09375 
Q 46.96875 40.921875 40.578125 39.3125 
z
" id="DejaVuSans-33"/>
      </defs>
      <g transform="translate(537.730974 518.598438)scale(0.1 -0.1)">
       <use xlink:href="#DejaVuSans-33"/>
       <use x="63.623047" xlink:href="#DejaVuSans-30"/>
      </g>
     </g>
    </g>
    <g id="text_8">
     <!-- # Components -->
     <defs>
      <path d="M 51.125 44 
L 36.921875 44 
L 32.8125 27.6875 
L 47.125 27.6875 
z
M 43.796875 71.78125 
L 38.71875 51.515625 
L 52.984375 51.515625 
L 58.109375 71.78125 
L 65.921875 71.78125 
L 60.890625 51.515625 
L 76.125 51.515625 
L 76.125 44 
L 58.984375 44 
L 54.984375 27.6875 
L 70.515625 27.6875 
L 70.515625 20.21875 
L 53.078125 20.21875 
L 48 0 
L 40.1875 0 
L 45.21875 20.21875 
L 30.90625 20.21875 
L 25.875 0 
L 18.015625 0 
L 23.09375 20.21875 
L 7.71875 20.21875 
L 7.71875 27.6875 
L 24.90625 27.6875 
L 29 44 
L 13.28125 44 
L 13.28125 51.515625 
L 30.90625 51.515625 
L 35.890625 71.78125 
z
" id="DejaVuSans-23"/>
      <path id="DejaVuSans-20"/>
      <path d="M 64.40625 67.28125 
L 64.40625 56.890625 
Q 59.421875 61.53125 53.78125 63.8125 
Q 48.140625 66.109375 41.796875 66.109375 
Q 29.296875 66.109375 22.65625 58.46875 
Q 16.015625 50.828125 16.015625 36.375 
Q 16.015625 21.96875 22.65625 14.328125 
Q 29.296875 6.6875 41.796875 6.6875 
Q 48.140625 6.6875 53.78125 8.984375 
Q 59.421875 11.28125 64.40625 15.921875 
L 64.40625 5.609375 
Q 59.234375 2.09375 53.4375 0.328125 
Q 47.65625 -1.421875 41.21875 -1.421875 
Q 24.65625 -1.421875 15.125 8.703125 
Q 5.609375 18.84375 5.609375 36.375 
Q 5.609375 53.953125 15.125 64.078125 
Q 24.65625 74.21875 41.21875 74.21875 
Q 47.75 74.21875 53.53125 72.484375 
Q 59.328125 70.75 64.40625 67.28125 
z
" id="DejaVuSans-43"/>
      <path d="M 30.609375 48.390625 
Q 23.390625 48.390625 19.1875 42.75 
Q 14.984375 37.109375 14.984375 27.296875 
Q 14.984375 17.484375 19.15625 11.84375 
Q 23.34375 6.203125 30.609375 6.203125 
Q 37.796875 6.203125 41.984375 11.859375 
Q 46.1875 17.53125 46.1875 27.296875 
Q 46.1875 37.015625 41.984375 42.703125 
Q 37.796875 48.390625 30.609375 48.390625 
z
M 30.609375 56 
Q 42.328125 56 49.015625 48.375 
Q 55.71875 40.765625 55.71875 27.296875 
Q 55.71875 13.875 49.015625 6.21875 
Q 42.328125 -1.421875 30.609375 -1.421875 
Q 18.84375 -1.421875 12.171875 6.21875 
Q 5.515625 13.875 5.515625 27.296875 
Q 5.515625 40.765625 12.171875 48.375 
Q 18.84375 56 30.609375 56 
z
" id="DejaVuSans-6f"/>
      <path d="M 52 44.1875 
Q 55.375 50.25 60.0625 53.125 
Q 64.75 56 71.09375 56 
Q 79.640625 56 84.28125 50.015625 
Q 88.921875 44.046875 88.921875 33.015625 
L 88.921875 0 
L 79.890625 0 
L 79.890625 32.71875 
Q 79.890625 40.578125 77.09375 44.375 
Q 74.3125 48.1875 68.609375 48.1875 
Q 61.625 48.1875 57.5625 43.546875 
Q 53.515625 38.921875 53.515625 30.90625 
L 53.515625 0 
L 44.484375 0 
L 44.484375 32.71875 
Q 44.484375 40.625 41.703125 44.40625 
Q 38.921875 48.1875 33.109375 48.1875 
Q 26.21875 48.1875 22.15625 43.53125 
Q 18.109375 38.875 18.109375 30.90625 
L 18.109375 0 
L 9.078125 0 
L 9.078125 54.6875 
L 18.109375 54.6875 
L 18.109375 46.1875 
Q 21.1875 51.21875 25.484375 53.609375 
Q 29.78125 56 35.6875 56 
Q 41.65625 56 45.828125 52.96875 
Q 50 49.953125 52 44.1875 
z
" id="DejaVuSans-6d"/>
      <path d="M 18.109375 8.203125 
L 18.109375 -20.796875 
L 9.078125 -20.796875 
L 9.078125 54.6875 
L 18.109375 54.6875 
L 18.109375 46.390625 
Q 20.953125 51.265625 25.265625 53.625 
Q 29.59375 56 35.59375 56 
Q 45.5625 56 51.78125 48.09375 
Q 58.015625 40.1875 58.015625 27.296875 
Q 58.015625 14.40625 51.78125 6.484375 
Q 45.5625 -1.421875 35.59375 -1.421875 
Q 29.59375 -1.421875 25.265625 0.953125 
Q 20.953125 3.328125 18.109375 8.203125 
z
M 48.6875 27.296875 
Q 48.6875 37.203125 44.609375 42.84375 
Q 40.53125 48.484375 33.40625 48.484375 
Q 26.265625 48.484375 22.1875 42.84375 
Q 18.109375 37.203125 18.109375 27.296875 
Q 18.109375 17.390625 22.1875 11.75 
Q 26.265625 6.109375 33.40625 6.109375 
Q 40.53125 6.109375 44.609375 11.75 
Q 48.6875 17.390625 48.6875 27.296875 
z
" id="DejaVuSans-70"/>
      <path d="M 54.890625 33.015625 
L 54.890625 0 
L 45.90625 0 
L 45.90625 32.71875 
Q 45.90625 40.484375 42.875 44.328125 
Q 39.84375 48.1875 33.796875 48.1875 
Q 26.515625 48.1875 22.3125 43.546875 
Q 18.109375 38.921875 18.109375 30.90625 
L 18.109375 0 
L 9.078125 0 
L 9.078125 54.6875 
L 18.109375 54.6875 
L 18.109375 46.1875 
Q 21.34375 51.125 25.703125 53.5625 
Q 30.078125 56 35.796875 56 
Q 45.21875 56 50.046875 50.171875 
Q 54.890625 44.34375 54.890625 33.015625 
z
" id="DejaVuSans-6e"/>
      <path d="M 56.203125 29.59375 
L 56.203125 25.203125 
L 14.890625 25.203125 
Q 15.484375 15.921875 20.484375 11.0625 
Q 25.484375 6.203125 34.421875 6.203125 
Q 39.59375 6.203125 44.453125 7.46875 
Q 49.3125 8.734375 54.109375 11.28125 
L 54.109375 2.78125 
Q 49.265625 0.734375 44.1875 -0.34375 
Q 39.109375 -1.421875 33.890625 -1.421875 
Q 20.796875 -1.421875 13.15625 6.1875 
Q 5.515625 13.8125 5.515625 26.8125 
Q 5.515625 40.234375 12.765625 48.109375 
Q 20.015625 56 32.328125 56 
Q 43.359375 56 49.78125 48.890625 
Q 56.203125 41.796875 56.203125 29.59375 
z
M 47.21875 32.234375 
Q 47.125 39.59375 43.09375 43.984375 
Q 39.0625 48.390625 32.421875 48.390625 
Q 24.90625 48.390625 20.390625 44.140625 
Q 15.875 39.890625 15.1875 32.171875 
z
" id="DejaVuSans-65"/>
      <path d="M 18.3125 70.21875 
L 18.3125 54.6875 
L 36.8125 54.6875 
L 36.8125 47.703125 
L 18.3125 47.703125 
L 18.3125 18.015625 
Q 18.3125 11.328125 20.140625 9.421875 
Q 21.96875 7.515625 27.59375 7.515625 
L 36.8125 7.515625 
L 36.8125 0 
L 27.59375 0 
Q 17.1875 0 13.234375 3.875 
Q 9.28125 7.765625 9.28125 18.015625 
L 9.28125 47.703125 
L 2.6875 47.703125 
L 2.6875 54.6875 
L 9.28125 54.6875 
L 9.28125 70.21875 
z
" id="DejaVuSans-74"/>
      <path d="M 44.28125 53.078125 
L 44.28125 44.578125 
Q 40.484375 46.53125 36.375 47.5 
Q 32.28125 48.484375 27.875 48.484375 
Q 21.1875 48.484375 17.84375 46.4375 
Q 14.5 44.390625 14.5 40.28125 
Q 14.5 37.15625 16.890625 35.375 
Q 19.28125 33.59375 26.515625 31.984375 
L 29.59375 31.296875 
Q 39.15625 29.25 43.1875 25.515625 
Q 47.21875 21.78125 47.21875 15.09375 
Q 47.21875 7.46875 41.1875 3.015625 
Q 35.15625 -1.421875 24.609375 -1.421875 
Q 20.21875 -1.421875 15.453125 -0.5625 
Q 10.6875 0.296875 5.421875 2 
L 5.421875 11.28125 
Q 10.40625 8.6875 15.234375 7.390625 
Q 20.0625 6.109375 24.8125 6.109375 
Q 31.15625 6.109375 34.5625 8.28125 
Q 37.984375 10.453125 37.984375 14.40625 
Q 37.984375 18.0625 35.515625 20.015625 
Q 33.0625 21.96875 24.703125 23.78125 
L 21.578125 24.515625 
Q 13.234375 26.265625 9.515625 29.90625 
Q 5.8125 33.546875 5.8125 39.890625 
Q 5.8125 47.609375 11.28125 51.796875 
Q 16.75 56 26.8125 56 
Q 31.78125 56 36.171875 55.265625 
Q 40.578125 54.546875 44.28125 53.078125 
z
" id="DejaVuSans-73"/>
     </defs>
     <g transform="translate(309.496591 532.276562)scale(0.1 -0.1)">
      <use xlink:href="#DejaVuSans-23"/>
      <use x="83.789062" xlink:href="#DejaVuSans-20"/>
      <use x="115.576172" xlink:href="#DejaVuSans-43"/>
      <use x="185.400391" xlink:href="#DejaVuSans-6f"/>
      <use x="246.582031" xlink:href="#DejaVuSans-6d"/>
      <use x="343.994141" xlink:href="#DejaVuSans-70"/>
      <use x="407.470703" xlink:href="#DejaVuSans-6f"/>
      <use x="468.652344" xlink:href="#DejaVuSans-6e"/>
      <use x="532.03125" xlink:href="#DejaVuSans-65"/>
      <use x="593.554688" xlink:href="#DejaVuSans-6e"/>
      <use x="656.933594" xlink:href="#DejaVuSans-74"/>
      <use x="696.142578" xlink:href="#DejaVuSans-73"/>
     </g>
    </g>
   </g>
   <g id="matplotlib.axis_2">
    <g id="ytick_1">
     <g id="line2d_8">
      <defs>
       <path d="M 0 0 
L -3.5 0 
" id="me966192c76" style="stroke:#000000;stroke-width:0.8;"/>
      </defs>
      <g>
       <use style="stroke:#000000;stroke-width:0.8;" x="144" xlink:href="#me966192c76" y="494.465011"/>
      </g>
     </g>
     <g id="text_9">
      <!-- 0.0 -->
      <defs>
       <path d="M 10.6875 12.40625 
L 21 12.40625 
L 21 0 
L 10.6875 0 
z
" id="DejaVuSans-2e"/>
      </defs>
      <g transform="translate(121.096875 498.26423)scale(0.1 -0.1)">
       <use xlink:href="#DejaVuSans-30"/>
       <use x="63.623047" xlink:href="#DejaVuSans-2e"/>
       <use x="95.410156" xlink:href="#DejaVuSans-30"/>
      </g>
     </g>
    </g>
    <g id="ytick_2">
     <g id="line2d_9">
      <g>
       <use style="stroke:#000000;stroke-width:0.8;" x="144" xlink:href="#me966192c76" y="413.349463"/>
      </g>
     </g>
     <g id="text_10">
      <!-- 0.2 -->
      <g transform="translate(121.096875 417.148682)scale(0.1 -0.1)">
       <use xlink:href="#DejaVuSans-30"/>
       <use x="63.623047" xlink:href="#DejaVuSans-2e"/>
       <use x="95.410156" xlink:href="#DejaVuSans-32"/>
      </g>
     </g>
    </g>
    <g id="ytick_3">
     <g id="line2d_10">
      <g>
       <use style="stroke:#000000;stroke-width:0.8;" x="144" xlink:href="#me966192c76" y="332.233916"/>
      </g>
     </g>
     <g id="text_11">
      <!-- 0.4 -->
      <defs>
       <path d="M 37.796875 64.3125 
L 12.890625 25.390625 
L 37.796875 25.390625 
z
M 35.203125 72.90625 
L 47.609375 72.90625 
L 47.609375 25.390625 
L 58.015625 25.390625 
L 58.015625 17.1875 
L 47.609375 17.1875 
L 47.609375 0 
L 37.796875 0 
L 37.796875 17.1875 
L 4.890625 17.1875 
L 4.890625 26.703125 
z
" id="DejaVuSans-34"/>
      </defs>
      <g transform="translate(121.096875 336.033134)scale(0.1 -0.1)">
       <use xlink:href="#DejaVuSans-30"/>
       <use x="63.623047" xlink:href="#DejaVuSans-2e"/>
       <use x="95.410156" xlink:href="#DejaVuSans-34"/>
      </g>
     </g>
    </g>
    <g id="ytick_4">
     <g id="line2d_11">
      <g>
       <use style="stroke:#000000;stroke-width:0.8;" x="144" xlink:href="#me966192c76" y="251.118368"/>
      </g>
     </g>
     <g id="text_12">
      <!-- 0.6 -->
      <defs>
       <path d="M 33.015625 40.375 
Q 26.375 40.375 22.484375 35.828125 
Q 18.609375 31.296875 18.609375 23.390625 
Q 18.609375 15.53125 22.484375 10.953125 
Q 26.375 6.390625 33.015625 6.390625 
Q 39.65625 6.390625 43.53125 10.953125 
Q 47.40625 15.53125 47.40625 23.390625 
Q 47.40625 31.296875 43.53125 35.828125 
Q 39.65625 40.375 33.015625 40.375 
z
M 52.59375 71.296875 
L 52.59375 62.3125 
Q 48.875 64.0625 45.09375 64.984375 
Q 41.3125 65.921875 37.59375 65.921875 
Q 27.828125 65.921875 22.671875 59.328125 
Q 17.53125 52.734375 16.796875 39.40625 
Q 19.671875 43.65625 24.015625 45.921875 
Q 28.375 48.1875 33.59375 48.1875 
Q 44.578125 48.1875 50.953125 41.515625 
Q 57.328125 34.859375 57.328125 23.390625 
Q 57.328125 12.15625 50.6875 5.359375 
Q 44.046875 -1.421875 33.015625 -1.421875 
Q 20.359375 -1.421875 13.671875 8.265625 
Q 6.984375 17.96875 6.984375 36.375 
Q 6.984375 53.65625 15.1875 63.9375 
Q 23.390625 74.21875 37.203125 74.21875 
Q 40.921875 74.21875 44.703125 73.484375 
Q 48.484375 72.75 52.59375 71.296875 
z
" id="DejaVuSans-36"/>
      </defs>
      <g transform="translate(121.096875 254.917587)scale(0.1 -0.1)">
       <use xlink:href="#DejaVuSans-30"/>
       <use x="63.623047" xlink:href="#DejaVuSans-2e"/>
       <use x="95.410156" xlink:href="#DejaVuSans-36"/>
      </g>
     </g>
    </g>
    <g id="ytick_5">
     <g id="line2d_12">
      <g>
       <use style="stroke:#000000;stroke-width:0.8;" x="144" xlink:href="#me966192c76" y="170.00282"/>
      </g>
     </g>
     <g id="text_13">
      <!-- 0.8 -->
      <defs>
       <path d="M 31.78125 34.625 
Q 24.75 34.625 20.71875 30.859375 
Q 16.703125 27.09375 16.703125 20.515625 
Q 16.703125 13.921875 20.71875 10.15625 
Q 24.75 6.390625 31.78125 6.390625 
Q 38.8125 6.390625 42.859375 10.171875 
Q 46.921875 13.96875 46.921875 20.515625 
Q 46.921875 27.09375 42.890625 30.859375 
Q 38.875 34.625 31.78125 34.625 
z
M 21.921875 38.8125 
Q 15.578125 40.375 12.03125 44.71875 
Q 8.5 49.078125 8.5 55.328125 
Q 8.5 64.0625 14.71875 69.140625 
Q 20.953125 74.21875 31.78125 74.21875 
Q 42.671875 74.21875 48.875 69.140625 
Q 55.078125 64.0625 55.078125 55.328125 
Q 55.078125 49.078125 51.53125 44.71875 
Q 48 40.375 41.703125 38.8125 
Q 48.828125 37.15625 52.796875 32.3125 
Q 56.78125 27.484375 56.78125 20.515625 
Q 56.78125 9.90625 50.3125 4.234375 
Q 43.84375 -1.421875 31.78125 -1.421875 
Q 19.734375 -1.421875 13.25 4.234375 
Q 6.78125 9.90625 6.78125 20.515625 
Q 6.78125 27.484375 10.78125 32.3125 
Q 14.796875 37.15625 21.921875 38.8125 
z
M 18.3125 54.390625 
Q 18.3125 48.734375 21.84375 45.5625 
Q 25.390625 42.390625 31.78125 42.390625 
Q 38.140625 42.390625 41.71875 45.5625 
Q 45.3125 48.734375 45.3125 54.390625 
Q 45.3125 60.0625 41.71875 63.234375 
Q 38.140625 66.40625 31.78125 66.40625 
Q 25.390625 66.40625 21.84375 63.234375 
Q 18.3125 60.0625 18.3125 54.390625 
z
" id="DejaVuSans-38"/>
      </defs>
      <g transform="translate(121.096875 173.802039)scale(0.1 -0.1)">
       <use xlink:href="#DejaVuSans-30"/>
       <use x="63.623047" xlink:href="#DejaVuSans-2e"/>
       <use x="95.410156" xlink:href="#DejaVuSans-38"/>
      </g>
     </g>
    </g>
    <g id="ytick_6">
     <g id="line2d_13">
      <g>
       <use style="stroke:#000000;stroke-width:0.8;" x="144" xlink:href="#me966192c76" y="88.887273"/>
      </g>
     </g>
     <g id="text_14">
      <!-- 1.0 -->
      <g transform="translate(121.096875 92.686491)scale(0.1 -0.1)">
       <use xlink:href="#DejaVuSans-31"/>
       <use x="63.623047" xlink:href="#DejaVuSans-2e"/>
       <use x="95.410156" xlink:href="#DejaVuSans-30"/>
      </g>
     </g>
    </g>
    <g id="text_15">
     <!-- Cumulative Variance Explained -->
     <defs>
      <path d="M 8.5 21.578125 
L 8.5 54.6875 
L 17.484375 54.6875 
L 17.484375 21.921875 
Q 17.484375 14.15625 20.5 10.265625 
Q 23.53125 6.390625 29.59375 6.390625 
Q 36.859375 6.390625 41.078125 11.03125 
Q 45.3125 15.671875 45.3125 23.6875 
L 45.3125 54.6875 
L 54.296875 54.6875 
L 54.296875 0 
L 45.3125 0 
L 45.3125 8.40625 
Q 42.046875 3.421875 37.71875 1 
Q 33.40625 -1.421875 27.6875 -1.421875 
Q 18.265625 -1.421875 13.375 4.4375 
Q 8.5 10.296875 8.5 21.578125 
z
M 31.109375 56 
z
" id="DejaVuSans-75"/>
      <path d="M 9.421875 75.984375 
L 18.40625 75.984375 
L 18.40625 0 
L 9.421875 0 
z
" id="DejaVuSans-6c"/>
      <path d="M 34.28125 27.484375 
Q 23.390625 27.484375 19.1875 25 
Q 14.984375 22.515625 14.984375 16.5 
Q 14.984375 11.71875 18.140625 8.90625 
Q 21.296875 6.109375 26.703125 6.109375 
Q 34.1875 6.109375 38.703125 11.40625 
Q 43.21875 16.703125 43.21875 25.484375 
L 43.21875 27.484375 
z
M 52.203125 31.203125 
L 52.203125 0 
L 43.21875 0 
L 43.21875 8.296875 
Q 40.140625 3.328125 35.546875 0.953125 
Q 30.953125 -1.421875 24.3125 -1.421875 
Q 15.921875 -1.421875 10.953125 3.296875 
Q 6 8.015625 6 15.921875 
Q 6 25.140625 12.171875 29.828125 
Q 18.359375 34.515625 30.609375 34.515625 
L 43.21875 34.515625 
L 43.21875 35.40625 
Q 43.21875 41.609375 39.140625 45 
Q 35.0625 48.390625 27.6875 48.390625 
Q 23 48.390625 18.546875 47.265625 
Q 14.109375 46.140625 10.015625 43.890625 
L 10.015625 52.203125 
Q 14.9375 54.109375 19.578125 55.046875 
Q 24.21875 56 28.609375 56 
Q 40.484375 56 46.34375 49.84375 
Q 52.203125 43.703125 52.203125 31.203125 
z
" id="DejaVuSans-61"/>
      <path d="M 9.421875 54.6875 
L 18.40625 54.6875 
L 18.40625 0 
L 9.421875 0 
z
M 9.421875 75.984375 
L 18.40625 75.984375 
L 18.40625 64.59375 
L 9.421875 64.59375 
z
" id="DejaVuSans-69"/>
      <path d="M 2.984375 54.6875 
L 12.5 54.6875 
L 29.59375 8.796875 
L 46.6875 54.6875 
L 56.203125 54.6875 
L 35.6875 0 
L 23.484375 0 
z
" id="DejaVuSans-76"/>
      <path d="M 28.609375 0 
L 0.78125 72.90625 
L 11.078125 72.90625 
L 34.1875 11.53125 
L 57.328125 72.90625 
L 67.578125 72.90625 
L 39.796875 0 
z
" id="DejaVuSans-56"/>
      <path d="M 41.109375 46.296875 
Q 39.59375 47.171875 37.8125 47.578125 
Q 36.03125 48 33.890625 48 
Q 26.265625 48 22.1875 43.046875 
Q 18.109375 38.09375 18.109375 28.8125 
L 18.109375 0 
L 9.078125 0 
L 9.078125 54.6875 
L 18.109375 54.6875 
L 18.109375 46.1875 
Q 20.953125 51.171875 25.484375 53.578125 
Q 30.03125 56 36.53125 56 
Q 37.453125 56 38.578125 55.875 
Q 39.703125 55.765625 41.0625 55.515625 
z
" id="DejaVuSans-72"/>
      <path d="M 48.78125 52.59375 
L 48.78125 44.1875 
Q 44.96875 46.296875 41.140625 47.34375 
Q 37.3125 48.390625 33.40625 48.390625 
Q 24.65625 48.390625 19.8125 42.84375 
Q 14.984375 37.3125 14.984375 27.296875 
Q 14.984375 17.28125 19.8125 11.734375 
Q 24.65625 6.203125 33.40625 6.203125 
Q 37.3125 6.203125 41.140625 7.25 
Q 44.96875 8.296875 48.78125 10.40625 
L 48.78125 2.09375 
Q 45.015625 0.34375 40.984375 -0.53125 
Q 36.96875 -1.421875 32.421875 -1.421875 
Q 20.0625 -1.421875 12.78125 6.34375 
Q 5.515625 14.109375 5.515625 27.296875 
Q 5.515625 40.671875 12.859375 48.328125 
Q 20.21875 56 33.015625 56 
Q 37.15625 56 41.109375 55.140625 
Q 45.0625 54.296875 48.78125 52.59375 
z
" id="DejaVuSans-63"/>
      <path d="M 9.8125 72.90625 
L 55.90625 72.90625 
L 55.90625 64.59375 
L 19.671875 64.59375 
L 19.671875 43.015625 
L 54.390625 43.015625 
L 54.390625 34.71875 
L 19.671875 34.71875 
L 19.671875 8.296875 
L 56.78125 8.296875 
L 56.78125 0 
L 9.8125 0 
z
" id="DejaVuSans-45"/>
      <path d="M 54.890625 54.6875 
L 35.109375 28.078125 
L 55.90625 0 
L 45.3125 0 
L 29.390625 21.484375 
L 13.484375 0 
L 2.875 0 
L 24.125 28.609375 
L 4.6875 54.6875 
L 15.28125 54.6875 
L 29.78125 35.203125 
L 44.28125 54.6875 
z
" id="DejaVuSans-78"/>
      <path d="M 45.40625 46.390625 
L 45.40625 75.984375 
L 54.390625 75.984375 
L 54.390625 0 
L 45.40625 0 
L 45.40625 8.203125 
Q 42.578125 3.328125 38.25 0.953125 
Q 33.9375 -1.421875 27.875 -1.421875 
Q 17.96875 -1.421875 11.734375 6.484375 
Q 5.515625 14.40625 5.515625 27.296875 
Q 5.515625 40.1875 11.734375 48.09375 
Q 17.96875 56 27.875 56 
Q 33.9375 56 38.25 53.625 
Q 42.578125 51.265625 45.40625 46.390625 
z
M 14.796875 27.296875 
Q 14.796875 17.390625 18.875 11.75 
Q 22.953125 6.109375 30.078125 6.109375 
Q 37.203125 6.109375 41.296875 11.75 
Q 45.40625 17.390625 45.40625 27.296875 
Q 45.40625 37.203125 41.296875 42.84375 
Q 37.203125 48.484375 30.078125 48.484375 
Q 22.953125 48.484375 18.875 42.84375 
Q 14.796875 37.203125 14.796875 27.296875 
z
" id="DejaVuSans-64"/>
     </defs>
     <g transform="translate(115.017187 364.812344)rotate(-90)scale(0.1 -0.1)">
      <use xlink:href="#DejaVuSans-43"/>
      <use x="69.824219" xlink:href="#DejaVuSans-75"/>
      <use x="133.203125" xlink:href="#DejaVuSans-6d"/>
      <use x="230.615234" xlink:href="#DejaVuSans-75"/>
      <use x="293.994141" xlink:href="#DejaVuSans-6c"/>
      <use x="321.777344" xlink:href="#DejaVuSans-61"/>
      <use x="383.056641" xlink:href="#DejaVuSans-74"/>
      <use x="422.265625" xlink:href="#DejaVuSans-69"/>
      <use x="450.048828" xlink:href="#DejaVuSans-76"/>
      <use x="509.228516" xlink:href="#DejaVuSans-65"/>
      <use x="570.751953" xlink:href="#DejaVuSans-20"/>
      <use x="602.539062" xlink:href="#DejaVuSans-56"/>
      <use x="670.837891" xlink:href="#DejaVuSans-61"/>
      <use x="732.117188" xlink:href="#DejaVuSans-72"/>
      <use x="773.230469" xlink:href="#DejaVuSans-69"/>
      <use x="801.013672" xlink:href="#DejaVuSans-61"/>
      <use x="862.292969" xlink:href="#DejaVuSans-6e"/>
      <use x="925.671875" xlink:href="#DejaVuSans-63"/>
      <use x="980.652344" xlink:href="#DejaVuSans-65"/>
      <use x="1042.175781" xlink:href="#DejaVuSans-20"/>
      <use x="1073.962891" xlink:href="#DejaVuSans-45"/>
      <use x="1137.146484" xlink:href="#DejaVuSans-78"/>
      <use x="1196.326172" xlink:href="#DejaVuSans-70"/>
      <use x="1259.802734" xlink:href="#DejaVuSans-6c"/>
      <use x="1287.585938" xlink:href="#DejaVuSans-61"/>
      <use x="1348.865234" xlink:href="#DejaVuSans-69"/>
      <use x="1376.648438" xlink:href="#DejaVuSans-6e"/>
      <use x="1440.027344" xlink:href="#DejaVuSans-65"/>
      <use x="1501.550781" xlink:href="#DejaVuSans-64"/>
     </g>
    </g>
   </g>
   <g id="line2d_14">
    <path clip-path="url(#p38fb3df9e9)" d="M 162.446281 304.697094 
L 175.167854 168.766178 
L 187.889427 119.334922 
L 200.611 93.64004 
L 213.332573 91.711945 
L 226.054146 90.541594 
L 238.77572 89.753052 
L 251.497293 89.441687 
L 264.218866 89.157251 
L 276.940439 89.061545 
L 289.662012 89.002028 
L 302.383585 88.969755 
L 315.105158 88.945799 
L 327.826731 88.924864 
L 340.548304 88.915073 
L 353.269877 88.906419 
L 365.991451 88.90185 
L 378.713024 88.898175 
L 391.434597 88.895492 
L 404.15617 88.893413 
L 416.877743 88.891503 
L 429.599316 88.890053 
L 442.320889 88.889255 
L 455.042462 88.888723 
L 467.764035 88.888336 
L 480.485608 88.888046 
L 493.207182 88.887756 
L 505.928755 88.887539 
L 518.650328 88.887394 
L 531.371901 88.887297 
" style="fill:none;stroke:#000000;stroke-linecap:square;stroke-width:1.5;"/>
    <defs>
     <path d="M 0 3 
C 0.795609 3 1.55874 2.683901 2.12132 2.12132 
C 2.683901 1.55874 3 0.795609 3 0 
C 3 -0.795609 2.683901 -1.55874 2.12132 -2.12132 
C 1.55874 -2.683901 0.795609 -3 0 -3 
C -0.795609 -3 -1.55874 -2.683901 -2.12132 -2.12132 
C -2.683901 -1.55874 -3 -0.795609 -3 0 
C -3 0.795609 -2.683901 1.55874 -2.12132 2.12132 
C -1.55874 2.683901 -0.795609 3 0 3 
z
" id="m17efcf794a" style="stroke:#000000;"/>
    </defs>
    <g clip-path="url(#p38fb3df9e9)">
     <use style="stroke:#000000;" x="162.446281" xlink:href="#m17efcf794a" y="304.697094"/>
     <use style="stroke:#000000;" x="175.167854" xlink:href="#m17efcf794a" y="168.766178"/>
     <use style="stroke:#000000;" x="187.889427" xlink:href="#m17efcf794a" y="119.334922"/>
     <use style="stroke:#000000;" x="200.611" xlink:href="#m17efcf794a" y="93.64004"/>
     <use style="stroke:#000000;" x="213.332573" xlink:href="#m17efcf794a" y="91.711945"/>
     <use style="stroke:#000000;" x="226.054146" xlink:href="#m17efcf794a" y="90.541594"/>
     <use style="stroke:#000000;" x="238.77572" xlink:href="#m17efcf794a" y="89.753052"/>
     <use style="stroke:#000000;" x="251.497293" xlink:href="#m17efcf794a" y="89.441687"/>
     <use style="stroke:#000000;" x="264.218866" xlink:href="#m17efcf794a" y="89.157251"/>
     <use style="stroke:#000000;" x="276.940439" xlink:href="#m17efcf794a" y="89.061545"/>
     <use style="stroke:#000000;" x="289.662012" xlink:href="#m17efcf794a" y="89.002028"/>
     <use style="stroke:#000000;" x="302.383585" xlink:href="#m17efcf794a" y="88.969755"/>
     <use style="stroke:#000000;" x="315.105158" xlink:href="#m17efcf794a" y="88.945799"/>
     <use style="stroke:#000000;" x="327.826731" xlink:href="#m17efcf794a" y="88.924864"/>
     <use style="stroke:#000000;" x="340.548304" xlink:href="#m17efcf794a" y="88.915073"/>
     <use style="stroke:#000000;" x="353.269877" xlink:href="#m17efcf794a" y="88.906419"/>
     <use style="stroke:#000000;" x="365.991451" xlink:href="#m17efcf794a" y="88.90185"/>
     <use style="stroke:#000000;" x="378.713024" xlink:href="#m17efcf794a" y="88.898175"/>
     <use style="stroke:#000000;" x="391.434597" xlink:href="#m17efcf794a" y="88.895492"/>
     <use style="stroke:#000000;" x="404.15617" xlink:href="#m17efcf794a" y="88.893413"/>
     <use style="stroke:#000000;" x="416.877743" xlink:href="#m17efcf794a" y="88.891503"/>
     <use style="stroke:#000000;" x="429.599316" xlink:href="#m17efcf794a" y="88.890053"/>
     <use style="stroke:#000000;" x="442.320889" xlink:href="#m17efcf794a" y="88.889255"/>
     <use style="stroke:#000000;" x="455.042462" xlink:href="#m17efcf794a" y="88.888723"/>
     <use style="stroke:#000000;" x="467.764035" xlink:href="#m17efcf794a" y="88.888336"/>
     <use style="stroke:#000000;" x="480.485608" xlink:href="#m17efcf794a" y="88.888046"/>
     <use style="stroke:#000000;" x="493.207182" xlink:href="#m17efcf794a" y="88.887756"/>
     <use style="stroke:#000000;" x="505.928755" xlink:href="#m17efcf794a" y="88.887539"/>
     <use style="stroke:#000000;" x="518.650328" xlink:href="#m17efcf794a" y="88.887394"/>
     <use style="stroke:#000000;" x="531.371901" xlink:href="#m17efcf794a" y="88.887297"/>
    </g>
   </g>
   <g id="line2d_15">
    <path clip-path="url(#p38fb3df9e9)" d="M 162.446281 471.825369 
L 175.167854 409.254961 
L 187.889427 399.255986 
L 200.611 374.121804 
L 213.332573 333.282752 
L 226.054146 318.669474 
L 238.77572 277.567164 
L 251.497293 257.260496 
L 264.218866 216.951732 
L 276.940439 205.527845 
L 289.662012 200.083909 
L 302.383585 195.778899 
L 315.105158 171.192748 
L 327.826731 158.751025 
L 340.548304 156.543112 
L 353.269877 146.908099 
L 365.991451 141.865023 
L 378.713024 136.065821 
L 391.434597 117.437721 
L 404.15617 115.698379 
L 416.877743 106.99166 
L 429.599316 105.984728 
L 442.320889 103.44188 
L 455.042462 100.441533 
L 467.764035 99.597075 
L 480.485608 97.511339 
L 493.207182 94.812543 
L 505.928755 90.298666 
L 518.650328 89.814769 
L 531.371901 88.887273 
" style="fill:none;stroke:#0000ff;stroke-linecap:square;stroke-width:1.5;"/>
    <defs>
     <path d="M 0 3 
C 0.795609 3 1.55874 2.683901 2.12132 2.12132 
C 2.683901 1.55874 3 0.795609 3 0 
C 3 -0.795609 2.683901 -1.55874 2.12132 -2.12132 
C 1.55874 -2.683901 0.795609 -3 0 -3 
C -0.795609 -3 -1.55874 -2.683901 -2.12132 -2.12132 
C -2.683901 -1.55874 -3 -0.795609 -3 0 
C -3 0.795609 -2.683901 1.55874 -2.12132 2.12132 
C -1.55874 2.683901 -0.795609 3 0 3 
z
" id="m6941558e03" style="stroke:#0000ff;"/>
    </defs>
    <g clip-path="url(#p38fb3df9e9)">
     <use style="fill:#0000ff;stroke:#0000ff;" x="162.446281" xlink:href="#m6941558e03" y="471.825369"/>
     <use style="fill:#0000ff;stroke:#0000ff;" x="175.167854" xlink:href="#m6941558e03" y="409.254961"/>
     <use style="fill:#0000ff;stroke:#0000ff;" x="187.889427" xlink:href="#m6941558e03" y="399.255986"/>
     <use style="fill:#0000ff;stroke:#0000ff;" x="200.611" xlink:href="#m6941558e03" y="374.121804"/>
     <use style="fill:#0000ff;stroke:#0000ff;" x="213.332573" xlink:href="#m6941558e03" y="333.282752"/>
     <use style="fill:#0000ff;stroke:#0000ff;" x="226.054146" xlink:href="#m6941558e03" y="318.669474"/>
     <use style="fill:#0000ff;stroke:#0000ff;" x="238.77572" xlink:href="#m6941558e03" y="277.567164"/>
     <use style="fill:#0000ff;stroke:#0000ff;" x="251.497293" xlink:href="#m6941558e03" y="257.260496"/>
     <use style="fill:#0000ff;stroke:#0000ff;" x="264.218866" xlink:href="#m6941558e03" y="216.951732"/>
     <use style="fill:#0000ff;stroke:#0000ff;" x="276.940439" xlink:href="#m6941558e03" y="205.527845"/>
     <use style="fill:#0000ff;stroke:#0000ff;" x="289.662012" xlink:href="#m6941558e03" y="200.083909"/>
     <use style="fill:#0000ff;stroke:#0000ff;" x="302.383585" xlink:href="#m6941558e03" y="195.778899"/>
     <use style="fill:#0000ff;stroke:#0000ff;" x="315.105158" xlink:href="#m6941558e03" y="171.192748"/>
     <use style="fill:#0000ff;stroke:#0000ff;" x="327.826731" xlink:href="#m6941558e03" y="158.751025"/>
     <use style="fill:#0000ff;stroke:#0000ff;" x="340.548304" xlink:href="#m6941558e03" y="156.543112"/>
     <use style="fill:#0000ff;stroke:#0000ff;" x="353.269877" xlink:href="#m6941558e03" y="146.908099"/>
     <use style="fill:#0000ff;stroke:#0000ff;" x="365.991451" xlink:href="#m6941558e03" y="141.865023"/>
     <use style="fill:#0000ff;stroke:#0000ff;" x="378.713024" xlink:href="#m6941558e03" y="136.065821"/>
     <use style="fill:#0000ff;stroke:#0000ff;" x="391.434597" xlink:href="#m6941558e03" y="117.437721"/>
     <use style="fill:#0000ff;stroke:#0000ff;" x="404.15617" xlink:href="#m6941558e03" y="115.698379"/>
     <use style="fill:#0000ff;stroke:#0000ff;" x="416.877743" xlink:href="#m6941558e03" y="106.99166"/>
     <use style="fill:#0000ff;stroke:#0000ff;" x="429.599316" xlink:href="#m6941558e03" y="105.984728"/>
     <use style="fill:#0000ff;stroke:#0000ff;" x="442.320889" xlink:href="#m6941558e03" y="103.44188"/>
     <use style="fill:#0000ff;stroke:#0000ff;" x="455.042462" xlink:href="#m6941558e03" y="100.441533"/>
     <use style="fill:#0000ff;stroke:#0000ff;" x="467.764035" xlink:href="#m6941558e03" y="99.597075"/>
     <use style="fill:#0000ff;stroke:#0000ff;" x="480.485608" xlink:href="#m6941558e03" y="97.511339"/>
     <use style="fill:#0000ff;stroke:#0000ff;" x="493.207182" xlink:href="#m6941558e03" y="94.812543"/>
     <use style="fill:#0000ff;stroke:#0000ff;" x="505.928755" xlink:href="#m6941558e03" y="90.298666"/>
     <use style="fill:#0000ff;stroke:#0000ff;" x="518.650328" xlink:href="#m6941558e03" y="89.814769"/>
     <use style="fill:#0000ff;stroke:#0000ff;" x="531.371901" xlink:href="#m6941558e03" y="88.887273"/>
    </g>
   </g>
   <g id="line2d_16">
    <path clip-path="url(#p38fb3df9e9)" d="M 162.446281 346.422581 
L 175.167854 289.703663 
L 187.889427 231.306925 
L 200.611 221.309757 
L 213.332573 215.538889 
L 226.054146 208.593245 
L 238.77572 178.127876 
L 251.497293 176.7782 
L 264.218866 157.712303 
L 276.940439 151.239097 
L 289.662012 143.238825 
L 302.383585 141.937449 
L 315.105158 137.332193 
L 327.826731 133.467614 
L 340.548304 127.668413 
L 353.269877 124.515913 
L 365.991451 123.03966 
L 378.713024 122.284527 
L 391.434597 118.363453 
L 404.15617 113.813387 
L 416.877743 111.8704 
L 429.599316 110.108286 
L 442.320889 100.921804 
L 455.042462 99.058665 
L 467.764035 98.169824 
L 480.485608 97.303126 
L 493.207182 93.378402 
L 505.928755 92.397335 
L 518.650328 90.700951 
L 531.371901 88.887273 
" style="fill:none;stroke:#008000;stroke-linecap:square;stroke-width:1.5;"/>
    <defs>
     <path d="M 0 3 
C 0.795609 3 1.55874 2.683901 2.12132 2.12132 
C 2.683901 1.55874 3 0.795609 3 0 
C 3 -0.795609 2.683901 -1.55874 2.12132 -2.12132 
C 1.55874 -2.683901 0.795609 -3 0 -3 
C -0.795609 -3 -1.55874 -2.683901 -2.12132 -2.12132 
C -2.683901 -1.55874 -3 -0.795609 -3 0 
C -3 0.795609 -2.683901 1.55874 -2.12132 2.12132 
C -1.55874 2.683901 -0.795609 3 0 3 
z
" id="mf54accbbdb" style="stroke:#008000;"/>
    </defs>
    <g clip-path="url(#p38fb3df9e9)">
     <use style="fill:#008000;stroke:#008000;" x="162.446281" xlink:href="#mf54accbbdb" y="346.422581"/>
     <use style="fill:#008000;stroke:#008000;" x="175.167854" xlink:href="#mf54accbbdb" y="289.703663"/>
     <use style="fill:#008000;stroke:#008000;" x="187.889427" xlink:href="#mf54accbbdb" y="231.306925"/>
     <use style="fill:#008000;stroke:#008000;" x="200.611" xlink:href="#mf54accbbdb" y="221.309757"/>
     <use style="fill:#008000;stroke:#008000;" x="213.332573" xlink:href="#mf54accbbdb" y="215.538889"/>
     <use style="fill:#008000;stroke:#008000;" x="226.054146" xlink:href="#mf54accbbdb" y="208.593245"/>
     <use style="fill:#008000;stroke:#008000;" x="238.77572" xlink:href="#mf54accbbdb" y="178.127876"/>
     <use style="fill:#008000;stroke:#008000;" x="251.497293" xlink:href="#mf54accbbdb" y="176.7782"/>
     <use style="fill:#008000;stroke:#008000;" x="264.218866" xlink:href="#mf54accbbdb" y="157.712303"/>
     <use style="fill:#008000;stroke:#008000;" x="276.940439" xlink:href="#mf54accbbdb" y="151.239097"/>
     <use style="fill:#008000;stroke:#008000;" x="289.662012" xlink:href="#mf54accbbdb" y="143.238825"/>
     <use style="fill:#008000;stroke:#008000;" x="302.383585" xlink:href="#mf54accbbdb" y="141.937449"/>
     <use style="fill:#008000;stroke:#008000;" x="315.105158" xlink:href="#mf54accbbdb" y="137.332193"/>
     <use style="fill:#008000;stroke:#008000;" x="327.826731" xlink:href="#mf54accbbdb" y="133.467614"/>
     <use style="fill:#008000;stroke:#008000;" x="340.548304" xlink:href="#mf54accbbdb" y="127.668413"/>
     <use style="fill:#008000;stroke:#008000;" x="353.269877" xlink:href="#mf54accbbdb" y="124.515913"/>
     <use style="fill:#008000;stroke:#008000;" x="365.991451" xlink:href="#mf54accbbdb" y="123.03966"/>
     <use style="fill:#008000;stroke:#008000;" x="378.713024" xlink:href="#mf54accbbdb" y="122.284527"/>
     <use style="fill:#008000;stroke:#008000;" x="391.434597" xlink:href="#mf54accbbdb" y="118.363453"/>
     <use style="fill:#008000;stroke:#008000;" x="404.15617" xlink:href="#mf54accbbdb" y="113.813387"/>
     <use style="fill:#008000;stroke:#008000;" x="416.877743" xlink:href="#mf54accbbdb" y="111.8704"/>
     <use style="fill:#008000;stroke:#008000;" x="429.599316" xlink:href="#mf54accbbdb" y="110.108286"/>
     <use style="fill:#008000;stroke:#008000;" x="442.320889" xlink:href="#mf54accbbdb" y="100.921804"/>
     <use style="fill:#008000;stroke:#008000;" x="455.042462" xlink:href="#mf54accbbdb" y="99.058665"/>
     <use style="fill:#008000;stroke:#008000;" x="467.764035" xlink:href="#mf54accbbdb" y="98.169824"/>
     <use style="fill:#008000;stroke:#008000;" x="480.485608" xlink:href="#mf54accbbdb" y="97.303126"/>
     <use style="fill:#008000;stroke:#008000;" x="493.207182" xlink:href="#mf54accbbdb" y="93.378402"/>
     <use style="fill:#008000;stroke:#008000;" x="505.928755" xlink:href="#mf54accbbdb" y="92.397335"/>
     <use style="fill:#008000;stroke:#008000;" x="518.650328" xlink:href="#mf54accbbdb" y="90.700951"/>
     <use style="fill:#008000;stroke:#008000;" x="531.371901" xlink:href="#mf54accbbdb" y="88.887273"/>
    </g>
   </g>
   <g id="line2d_17">
    <path clip-path="url(#p38fb3df9e9)" d="M 162.446281 484.232727 
L 175.167854 452.754478 
L 187.889427 444.525211 
L 200.611 427.853502 
L 213.332573 403.187244 
L 226.054146 398.361809 
L 238.77572 381.284763 
L 251.497293 358.98462 
L 264.218866 294.659857 
L 276.940439 262.826705 
L 289.662012 258.346092 
L 302.383585 252.764653 
L 315.105158 208.245497 
L 327.826731 201.641654 
L 340.548304 159.67765 
L 353.269877 156.979458 
L 365.991451 156.494666 
L 378.713024 149.077382 
L 391.434597 136.107595 
L 404.15617 121.382825 
L 416.877743 117.664162 
L 429.599316 117.368607 
L 442.320889 115.620369 
L 455.042462 108.90206 
L 467.764035 101.181315 
L 480.485608 100.643122 
L 493.207182 99.419273 
L 505.928755 95.329849 
L 518.650328 94.270265 
L 531.371901 88.887321 
" style="fill:none;stroke:#ff0000;stroke-linecap:square;stroke-width:1.5;"/>
    <defs>
     <path d="M 0 3 
C 0.795609 3 1.55874 2.683901 2.12132 2.12132 
C 2.683901 1.55874 3 0.795609 3 0 
C 3 -0.795609 2.683901 -1.55874 2.12132 -2.12132 
C 1.55874 -2.683901 0.795609 -3 0 -3 
C -0.795609 -3 -1.55874 -2.683901 -2.12132 -2.12132 
C -2.683901 -1.55874 -3 -0.795609 -3 0 
C -3 0.795609 -2.683901 1.55874 -2.12132 2.12132 
C -1.55874 2.683901 -0.795609 3 0 3 
z
" id="mb680a08e83" style="stroke:#ff0000;"/>
    </defs>
    <g clip-path="url(#p38fb3df9e9)">
     <use style="fill:#ff0000;stroke:#ff0000;" x="162.446281" xlink:href="#mb680a08e83" y="484.232727"/>
     <use style="fill:#ff0000;stroke:#ff0000;" x="175.167854" xlink:href="#mb680a08e83" y="452.754478"/>
     <use style="fill:#ff0000;stroke:#ff0000;" x="187.889427" xlink:href="#mb680a08e83" y="444.525211"/>
     <use style="fill:#ff0000;stroke:#ff0000;" x="200.611" xlink:href="#mb680a08e83" y="427.853502"/>
     <use style="fill:#ff0000;stroke:#ff0000;" x="213.332573" xlink:href="#mb680a08e83" y="403.187244"/>
     <use style="fill:#ff0000;stroke:#ff0000;" x="226.054146" xlink:href="#mb680a08e83" y="398.361809"/>
     <use style="fill:#ff0000;stroke:#ff0000;" x="238.77572" xlink:href="#mb680a08e83" y="381.284763"/>
     <use style="fill:#ff0000;stroke:#ff0000;" x="251.497293" xlink:href="#mb680a08e83" y="358.98462"/>
     <use style="fill:#ff0000;stroke:#ff0000;" x="264.218866" xlink:href="#mb680a08e83" y="294.659857"/>
     <use style="fill:#ff0000;stroke:#ff0000;" x="276.940439" xlink:href="#mb680a08e83" y="262.826705"/>
     <use style="fill:#ff0000;stroke:#ff0000;" x="289.662012" xlink:href="#mb680a08e83" y="258.346092"/>
     <use style="fill:#ff0000;stroke:#ff0000;" x="302.383585" xlink:href="#mb680a08e83" y="252.764653"/>
     <use style="fill:#ff0000;stroke:#ff0000;" x="315.105158" xlink:href="#mb680a08e83" y="208.245497"/>
     <use style="fill:#ff0000;stroke:#ff0000;" x="327.826731" xlink:href="#mb680a08e83" y="201.641654"/>
     <use style="fill:#ff0000;stroke:#ff0000;" x="340.548304" xlink:href="#mb680a08e83" y="159.67765"/>
     <use style="fill:#ff0000;stroke:#ff0000;" x="353.269877" xlink:href="#mb680a08e83" y="156.979458"/>
     <use style="fill:#ff0000;stroke:#ff0000;" x="365.991451" xlink:href="#mb680a08e83" y="156.494666"/>
     <use style="fill:#ff0000;stroke:#ff0000;" x="378.713024" xlink:href="#mb680a08e83" y="149.077382"/>
     <use style="fill:#ff0000;stroke:#ff0000;" x="391.434597" xlink:href="#mb680a08e83" y="136.107595"/>
     <use style="fill:#ff0000;stroke:#ff0000;" x="404.15617" xlink:href="#mb680a08e83" y="121.382825"/>
     <use style="fill:#ff0000;stroke:#ff0000;" x="416.877743" xlink:href="#mb680a08e83" y="117.664162"/>
     <use style="fill:#ff0000;stroke:#ff0000;" x="429.599316" xlink:href="#mb680a08e83" y="117.368607"/>
     <use style="fill:#ff0000;stroke:#ff0000;" x="442.320889" xlink:href="#mb680a08e83" y="115.620369"/>
     <use style="fill:#ff0000;stroke:#ff0000;" x="455.042462" xlink:href="#mb680a08e83" y="108.90206"/>
     <use style="fill:#ff0000;stroke:#ff0000;" x="467.764035" xlink:href="#mb680a08e83" y="101.181315"/>
     <use style="fill:#ff0000;stroke:#ff0000;" x="480.485608" xlink:href="#mb680a08e83" y="100.643122"/>
     <use style="fill:#ff0000;stroke:#ff0000;" x="493.207182" xlink:href="#mb680a08e83" y="99.419273"/>
     <use style="fill:#ff0000;stroke:#ff0000;" x="505.928755" xlink:href="#mb680a08e83" y="95.329849"/>
     <use style="fill:#ff0000;stroke:#ff0000;" x="518.650328" xlink:href="#mb680a08e83" y="94.270265"/>
     <use style="fill:#ff0000;stroke:#ff0000;" x="531.371901" xlink:href="#mb680a08e83" y="88.887321"/>
    </g>
   </g>
   <g id="patch_3">
    <path d="M 144 504 
L 144 69.12 
" style="fill:none;stroke:#000000;stroke-linecap:square;stroke-linejoin:miter;stroke-width:0.8;"/>
   </g>
   <g id="patch_4">
    <path d="M 549.818182 504 
L 549.818182 69.12 
" style="fill:none;stroke:#000000;stroke-linecap:square;stroke-linejoin:miter;stroke-width:0.8;"/>
   </g>
   <g id="patch_5">
    <path d="M 144 504 
L 549.818182 504 
" style="fill:none;stroke:#000000;stroke-linecap:square;stroke-linejoin:miter;stroke-width:0.8;"/>
   </g>
   <g id="patch_6">
    <path d="M 144 69.12 
L 549.818182 69.12 
" style="fill:none;stroke:#000000;stroke-linecap:square;stroke-linejoin:miter;stroke-width:0.8;"/>
   </g>
   <g id="text_16">
    <!-- lowD/grad_norm_l2001_delaygo -->
    <defs>
     <path d="M 4.203125 54.6875 
L 13.1875 54.6875 
L 24.421875 12.015625 
L 35.59375 54.6875 
L 46.1875 54.6875 
L 57.421875 12.015625 
L 68.609375 54.6875 
L 77.59375 54.6875 
L 63.28125 0 
L 52.6875 0 
L 40.921875 44.828125 
L 29.109375 0 
L 18.5 0 
z
" id="DejaVuSans-77"/>
     <path d="M 19.671875 64.796875 
L 19.671875 8.109375 
L 31.59375 8.109375 
Q 46.6875 8.109375 53.6875 14.9375 
Q 60.6875 21.78125 60.6875 36.53125 
Q 60.6875 51.171875 53.6875 57.984375 
Q 46.6875 64.796875 31.59375 64.796875 
z
M 9.8125 72.90625 
L 30.078125 72.90625 
Q 51.265625 72.90625 61.171875 64.09375 
Q 71.09375 55.28125 71.09375 36.53125 
Q 71.09375 17.671875 61.125 8.828125 
Q 51.171875 0 30.078125 0 
L 9.8125 0 
z
" id="DejaVuSans-44"/>
     <path d="M 25.390625 72.90625 
L 33.6875 72.90625 
L 8.296875 -9.28125 
L 0 -9.28125 
z
" id="DejaVuSans-2f"/>
     <path d="M 45.40625 27.984375 
Q 45.40625 37.75 41.375 43.109375 
Q 37.359375 48.484375 30.078125 48.484375 
Q 22.859375 48.484375 18.828125 43.109375 
Q 14.796875 37.75 14.796875 27.984375 
Q 14.796875 18.265625 18.828125 12.890625 
Q 22.859375 7.515625 30.078125 7.515625 
Q 37.359375 7.515625 41.375 12.890625 
Q 45.40625 18.265625 45.40625 27.984375 
z
M 54.390625 6.78125 
Q 54.390625 -7.171875 48.1875 -13.984375 
Q 42 -20.796875 29.203125 -20.796875 
Q 24.46875 -20.796875 20.265625 -20.09375 
Q 16.0625 -19.390625 12.109375 -17.921875 
L 12.109375 -9.1875 
Q 16.0625 -11.328125 19.921875 -12.34375 
Q 23.78125 -13.375 27.78125 -13.375 
Q 36.625 -13.375 41.015625 -8.765625 
Q 45.40625 -4.15625 45.40625 5.171875 
L 45.40625 9.625 
Q 42.625 4.78125 38.28125 2.390625 
Q 33.9375 0 27.875 0 
Q 17.828125 0 11.671875 7.65625 
Q 5.515625 15.328125 5.515625 27.984375 
Q 5.515625 40.671875 11.671875 48.328125 
Q 17.828125 56 27.875 56 
Q 33.9375 56 38.28125 53.609375 
Q 42.625 51.21875 45.40625 46.390625 
L 45.40625 54.6875 
L 54.390625 54.6875 
z
" id="DejaVuSans-67"/>
     <path d="M 50.984375 -16.609375 
L 50.984375 -23.578125 
L -0.984375 -23.578125 
L -0.984375 -16.609375 
z
" id="DejaVuSans-5f"/>
     <path d="M 32.171875 -5.078125 
Q 28.375 -14.84375 24.75 -17.8125 
Q 21.140625 -20.796875 15.09375 -20.796875 
L 7.90625 -20.796875 
L 7.90625 -13.28125 
L 13.1875 -13.28125 
Q 16.890625 -13.28125 18.9375 -11.515625 
Q 21 -9.765625 23.484375 -3.21875 
L 25.09375 0.875 
L 2.984375 54.6875 
L 12.5 54.6875 
L 29.59375 11.921875 
L 46.6875 54.6875 
L 56.203125 54.6875 
z
" id="DejaVuSans-79"/>
    </defs>
    <g transform="translate(250.664403 63.12)scale(0.12 -0.12)">
     <use xlink:href="#DejaVuSans-6c"/>
     <use x="27.783203" xlink:href="#DejaVuSans-6f"/>
     <use x="88.964844" xlink:href="#DejaVuSans-77"/>
     <use x="170.751953" xlink:href="#DejaVuSans-44"/>
     <use x="247.753906" xlink:href="#DejaVuSans-2f"/>
     <use x="281.445312" xlink:href="#DejaVuSans-67"/>
     <use x="344.921875" xlink:href="#DejaVuSans-72"/>
     <use x="386.035156" xlink:href="#DejaVuSans-61"/>
     <use x="447.314453" xlink:href="#DejaVuSans-64"/>
     <use x="510.791016" xlink:href="#DejaVuSans-5f"/>
     <use x="560.791016" xlink:href="#DejaVuSans-6e"/>
     <use x="624.169922" xlink:href="#DejaVuSans-6f"/>
     <use x="685.351562" xlink:href="#DejaVuSans-72"/>
     <use x="726.449219" xlink:href="#DejaVuSans-6d"/>
     <use x="823.861328" xlink:href="#DejaVuSans-5f"/>
     <use x="873.861328" xlink:href="#DejaVuSans-6c"/>
     <use x="901.644531" xlink:href="#DejaVuSans-32"/>
     <use x="965.267578" xlink:href="#DejaVuSans-30"/>
     <use x="1028.890625" xlink:href="#DejaVuSans-30"/>
     <use x="1092.513672" xlink:href="#DejaVuSans-31"/>
     <use x="1156.136719" xlink:href="#DejaVuSans-5f"/>
     <use x="1206.136719" xlink:href="#DejaVuSans-64"/>
     <use x="1269.613281" xlink:href="#DejaVuSans-65"/>
     <use x="1331.136719" xlink:href="#DejaVuSans-6c"/>
     <use x="1358.919922" xlink:href="#DejaVuSans-61"/>
     <use x="1420.199219" xlink:href="#DejaVuSans-79"/>
     <use x="1479.378906" xlink:href="#DejaVuSans-67"/>
     <use x="1542.855469" xlink:href="#DejaVuSans-6f"/>
    </g>
   </g>
   <g id="legend_1">
    <g id="patch_7">
     <path d="M 446.902557 499 
L 542.818182 499 
Q 544.818182 499 544.818182 497 
L 544.818182 439.2875 
Q 544.818182 437.2875 542.818182 437.2875 
L 446.902557 437.2875 
Q 444.902557 437.2875 444.902557 439.2875 
L 444.902557 497 
Q 444.902557 499 446.902557 499 
z
" style="fill:#ffffff;opacity:0.8;stroke:#cccccc;stroke-linejoin:miter;"/>
    </g>
    <g id="line2d_18">
     <path d="M 448.902557 445.385938 
L 468.902557 445.385938 
" style="fill:none;stroke:#000000;stroke-linecap:square;stroke-width:1.5;"/>
    </g>
    <g id="line2d_19">
     <g>
      <use style="stroke:#000000;" x="458.902557" xlink:href="#m17efcf794a" y="445.385938"/>
     </g>
    </g>
    <g id="text_17">
     <!-- Same Task -->
     <defs>
      <path d="M 53.515625 70.515625 
L 53.515625 60.890625 
Q 47.90625 63.578125 42.921875 64.890625 
Q 37.9375 66.21875 33.296875 66.21875 
Q 25.25 66.21875 20.875 63.09375 
Q 16.5 59.96875 16.5 54.203125 
Q 16.5 49.359375 19.40625 46.890625 
Q 22.3125 44.4375 30.421875 42.921875 
L 36.375 41.703125 
Q 47.40625 39.59375 52.65625 34.296875 
Q 57.90625 29 57.90625 20.125 
Q 57.90625 9.515625 50.796875 4.046875 
Q 43.703125 -1.421875 29.984375 -1.421875 
Q 24.8125 -1.421875 18.96875 -0.25 
Q 13.140625 0.921875 6.890625 3.21875 
L 6.890625 13.375 
Q 12.890625 10.015625 18.65625 8.296875 
Q 24.421875 6.59375 29.984375 6.59375 
Q 38.421875 6.59375 43.015625 9.90625 
Q 47.609375 13.234375 47.609375 19.390625 
Q 47.609375 24.75 44.3125 27.78125 
Q 41.015625 30.8125 33.5 32.328125 
L 27.484375 33.5 
Q 16.453125 35.6875 11.515625 40.375 
Q 6.59375 45.0625 6.59375 53.421875 
Q 6.59375 63.09375 13.40625 68.65625 
Q 20.21875 74.21875 32.171875 74.21875 
Q 37.3125 74.21875 42.625 73.28125 
Q 47.953125 72.359375 53.515625 70.515625 
z
" id="DejaVuSans-53"/>
      <path d="M -0.296875 72.90625 
L 61.375 72.90625 
L 61.375 64.59375 
L 35.5 64.59375 
L 35.5 0 
L 25.59375 0 
L 25.59375 64.59375 
L -0.296875 64.59375 
z
" id="DejaVuSans-54"/>
      <path d="M 9.078125 75.984375 
L 18.109375 75.984375 
L 18.109375 31.109375 
L 44.921875 54.6875 
L 56.390625 54.6875 
L 27.390625 29.109375 
L 57.625 0 
L 45.90625 0 
L 18.109375 26.703125 
L 18.109375 0 
L 9.078125 0 
z
" id="DejaVuSans-6b"/>
     </defs>
     <g transform="translate(476.902557 448.885938)scale(0.1 -0.1)">
      <use xlink:href="#DejaVuSans-53"/>
      <use x="63.476562" xlink:href="#DejaVuSans-61"/>
      <use x="124.755859" xlink:href="#DejaVuSans-6d"/>
      <use x="222.167969" xlink:href="#DejaVuSans-65"/>
      <use x="283.691406" xlink:href="#DejaVuSans-20"/>
      <use x="315.478516" xlink:href="#DejaVuSans-54"/>
      <use x="376.3125" xlink:href="#DejaVuSans-61"/>
      <use x="437.591797" xlink:href="#DejaVuSans-73"/>
      <use x="489.691406" xlink:href="#DejaVuSans-6b"/>
     </g>
    </g>
    <g id="line2d_20">
     <path d="M 448.902557 460.064062 
L 468.902557 460.064062 
" style="fill:none;stroke:#0000ff;stroke-linecap:square;stroke-width:1.5;"/>
    </g>
    <g id="line2d_21">
     <g>
      <use style="fill:#0000ff;stroke:#0000ff;" x="458.902557" xlink:href="#m6941558e03" y="460.064062"/>
     </g>
    </g>
    <g id="text_18">
     <!-- Anti -->
     <defs>
      <path d="M 34.1875 63.1875 
L 20.796875 26.90625 
L 47.609375 26.90625 
z
M 28.609375 72.90625 
L 39.796875 72.90625 
L 67.578125 0 
L 57.328125 0 
L 50.6875 18.703125 
L 17.828125 18.703125 
L 11.1875 0 
L 0.78125 0 
z
" id="DejaVuSans-41"/>
     </defs>
     <g transform="translate(476.902557 463.564062)scale(0.1 -0.1)">
      <use xlink:href="#DejaVuSans-41"/>
      <use x="68.408203" xlink:href="#DejaVuSans-6e"/>
      <use x="131.787109" xlink:href="#DejaVuSans-74"/>
      <use x="170.996094" xlink:href="#DejaVuSans-69"/>
     </g>
    </g>
    <g id="line2d_22">
     <path d="M 448.902557 474.742188 
L 468.902557 474.742188 
" style="fill:none;stroke:#008000;stroke-linecap:square;stroke-width:1.5;"/>
    </g>
    <g id="line2d_23">
     <g>
      <use style="fill:#008000;stroke:#008000;" x="458.902557" xlink:href="#mf54accbbdb" y="474.742188"/>
     </g>
    </g>
    <g id="text_19">
     <!-- Memory -->
     <defs>
      <path d="M 9.8125 72.90625 
L 24.515625 72.90625 
L 43.109375 23.296875 
L 61.8125 72.90625 
L 76.515625 72.90625 
L 76.515625 0 
L 66.890625 0 
L 66.890625 64.015625 
L 48.09375 14.015625 
L 38.1875 14.015625 
L 19.390625 64.015625 
L 19.390625 0 
L 9.8125 0 
z
" id="DejaVuSans-4d"/>
     </defs>
     <g transform="translate(476.902557 478.242188)scale(0.1 -0.1)">
      <use xlink:href="#DejaVuSans-4d"/>
      <use x="86.279297" xlink:href="#DejaVuSans-65"/>
      <use x="147.802734" xlink:href="#DejaVuSans-6d"/>
      <use x="245.214844" xlink:href="#DejaVuSans-6f"/>
      <use x="306.396484" xlink:href="#DejaVuSans-72"/>
      <use x="347.509766" xlink:href="#DejaVuSans-79"/>
     </g>
    </g>
    <g id="line2d_24">
     <path d="M 448.902557 489.420313 
L 468.902557 489.420313 
" style="fill:none;stroke:#ff0000;stroke-linecap:square;stroke-width:1.5;"/>
    </g>
    <g id="line2d_25">
     <g>
      <use style="fill:#ff0000;stroke:#ff0000;" x="458.902557" xlink:href="#mb680a08e83" y="489.420313"/>
     </g>
    </g>
    <g id="text_20">
     <!-- Memory/Anti -->
     <g transform="translate(476.902557 492.920313)scale(0.1 -0.1)">
      <use xlink:href="#DejaVuSans-4d"/>
      <use x="86.279297" xlink:href="#DejaVuSans-65"/>
      <use x="147.802734" xlink:href="#DejaVuSans-6d"/>
      <use x="245.214844" xlink:href="#DejaVuSans-6f"/>
      <use x="306.396484" xlink:href="#DejaVuSans-72"/>
      <use x="347.509766" xlink:href="#DejaVuSans-79"/>
      <use x="406.689453" xlink:href="#DejaVuSans-2f"/>
      <use x="440.380859" xlink:href="#DejaVuSans-41"/>
      <use x="508.789062" xlink:href="#DejaVuSans-6e"/>
      <use x="572.167969" xlink:href="#DejaVuSans-74"/>
      <use x="611.376953" xlink:href="#DejaVuSans-69"/>
     </g>
    </g>
   </g>
  </g>
  <g id="axes_2">
   <g id="patch_8">
    <path d="M 630.981818 504 
L 1036.8 504 
L 1036.8 69.12 
L 630.981818 69.12 
z
" style="fill:#ffffff;"/>
   </g>
   <g id="matplotlib.axis_3">
    <g id="xtick_8">
     <g id="line2d_26">
      <g>
       <use style="stroke:#000000;stroke-width:0.8;" x="644.072727" xlink:href="#m5a3a668dd5" y="504"/>
      </g>
     </g>
     <g id="text_21">
      <!-- 0 -->
      <g transform="translate(640.891477 518.598438)scale(0.1 -0.1)">
       <use xlink:href="#DejaVuSans-30"/>
      </g>
     </g>
    </g>
    <g id="xtick_9">
     <g id="line2d_27">
      <g>
       <use style="stroke:#000000;stroke-width:0.8;" x="709.527273" xlink:href="#m5a3a668dd5" y="504"/>
      </g>
     </g>
     <g id="text_22">
      <!-- 5 -->
      <g transform="translate(706.346023 518.598438)scale(0.1 -0.1)">
       <use xlink:href="#DejaVuSans-35"/>
      </g>
     </g>
    </g>
    <g id="xtick_10">
     <g id="line2d_28">
      <g>
       <use style="stroke:#000000;stroke-width:0.8;" x="774.981818" xlink:href="#m5a3a668dd5" y="504"/>
      </g>
     </g>
     <g id="text_23">
      <!-- 10 -->
      <g transform="translate(768.619318 518.598438)scale(0.1 -0.1)">
       <use xlink:href="#DejaVuSans-31"/>
       <use x="63.623047" xlink:href="#DejaVuSans-30"/>
      </g>
     </g>
    </g>
    <g id="xtick_11">
     <g id="line2d_29">
      <g>
       <use style="stroke:#000000;stroke-width:0.8;" x="840.436364" xlink:href="#m5a3a668dd5" y="504"/>
      </g>
     </g>
     <g id="text_24">
      <!-- 15 -->
      <g transform="translate(834.073864 518.598438)scale(0.1 -0.1)">
       <use xlink:href="#DejaVuSans-31"/>
       <use x="63.623047" xlink:href="#DejaVuSans-35"/>
      </g>
     </g>
    </g>
    <g id="xtick_12">
     <g id="line2d_30">
      <g>
       <use style="stroke:#000000;stroke-width:0.8;" x="905.890909" xlink:href="#m5a3a668dd5" y="504"/>
      </g>
     </g>
     <g id="text_25">
      <!-- 20 -->
      <g transform="translate(899.528409 518.598438)scale(0.1 -0.1)">
       <use xlink:href="#DejaVuSans-32"/>
       <use x="63.623047" xlink:href="#DejaVuSans-30"/>
      </g>
     </g>
    </g>
    <g id="xtick_13">
     <g id="line2d_31">
      <g>
       <use style="stroke:#000000;stroke-width:0.8;" x="971.345455" xlink:href="#m5a3a668dd5" y="504"/>
      </g>
     </g>
     <g id="text_26">
      <!-- 25 -->
      <g transform="translate(964.982955 518.598438)scale(0.1 -0.1)">
       <use xlink:href="#DejaVuSans-32"/>
       <use x="63.623047" xlink:href="#DejaVuSans-35"/>
      </g>
     </g>
    </g>
    <g id="xtick_14">
     <g id="line2d_32">
      <g>
       <use style="stroke:#000000;stroke-width:0.8;" x="1036.8" xlink:href="#m5a3a668dd5" y="504"/>
      </g>
     </g>
     <g id="text_27">
      <!-- 30 -->
      <g transform="translate(1030.4375 518.598438)scale(0.1 -0.1)">
       <use xlink:href="#DejaVuSans-33"/>
       <use x="63.623047" xlink:href="#DejaVuSans-30"/>
      </g>
     </g>
    </g>
    <g id="text_28">
     <!-- # Components -->
     <g transform="translate(796.478409 532.276562)scale(0.1 -0.1)">
      <use xlink:href="#DejaVuSans-23"/>
      <use x="83.789062" xlink:href="#DejaVuSans-20"/>
      <use x="115.576172" xlink:href="#DejaVuSans-43"/>
      <use x="185.400391" xlink:href="#DejaVuSans-6f"/>
      <use x="246.582031" xlink:href="#DejaVuSans-6d"/>
      <use x="343.994141" xlink:href="#DejaVuSans-70"/>
      <use x="407.470703" xlink:href="#DejaVuSans-6f"/>
      <use x="468.652344" xlink:href="#DejaVuSans-6e"/>
      <use x="532.03125" xlink:href="#DejaVuSans-65"/>
      <use x="593.554688" xlink:href="#DejaVuSans-6e"/>
      <use x="656.933594" xlink:href="#DejaVuSans-74"/>
      <use x="696.142578" xlink:href="#DejaVuSans-73"/>
     </g>
    </g>
   </g>
   <g id="matplotlib.axis_4">
    <g id="ytick_7">
     <g id="line2d_33">
      <g>
       <use style="stroke:#000000;stroke-width:0.8;" x="630.981818" xlink:href="#me966192c76" y="490.243334"/>
      </g>
     </g>
     <g id="text_29">
      <!-- 0.0 -->
      <g transform="translate(608.078693 494.042553)scale(0.1 -0.1)">
       <use xlink:href="#DejaVuSans-30"/>
       <use x="63.623047" xlink:href="#DejaVuSans-2e"/>
       <use x="95.410156" xlink:href="#DejaVuSans-30"/>
      </g>
     </g>
    </g>
    <g id="ytick_8">
     <g id="line2d_34">
      <g>
       <use style="stroke:#000000;stroke-width:0.8;" x="630.981818" xlink:href="#me966192c76" y="409.972122"/>
      </g>
     </g>
     <g id="text_30">
      <!-- 0.2 -->
      <g transform="translate(608.078693 413.77134)scale(0.1 -0.1)">
       <use xlink:href="#DejaVuSans-30"/>
       <use x="63.623047" xlink:href="#DejaVuSans-2e"/>
       <use x="95.410156" xlink:href="#DejaVuSans-32"/>
      </g>
     </g>
    </g>
    <g id="ytick_9">
     <g id="line2d_35">
      <g>
       <use style="stroke:#000000;stroke-width:0.8;" x="630.981818" xlink:href="#me966192c76" y="329.700909"/>
      </g>
     </g>
     <g id="text_31">
      <!-- 0.4 -->
      <g transform="translate(608.078693 333.500128)scale(0.1 -0.1)">
       <use xlink:href="#DejaVuSans-30"/>
       <use x="63.623047" xlink:href="#DejaVuSans-2e"/>
       <use x="95.410156" xlink:href="#DejaVuSans-34"/>
      </g>
     </g>
    </g>
    <g id="ytick_10">
     <g id="line2d_36">
      <g>
       <use style="stroke:#000000;stroke-width:0.8;" x="630.981818" xlink:href="#me966192c76" y="249.429697"/>
      </g>
     </g>
     <g id="text_32">
      <!-- 0.6 -->
      <g transform="translate(608.078693 253.228916)scale(0.1 -0.1)">
       <use xlink:href="#DejaVuSans-30"/>
       <use x="63.623047" xlink:href="#DejaVuSans-2e"/>
       <use x="95.410156" xlink:href="#DejaVuSans-36"/>
      </g>
     </g>
    </g>
    <g id="ytick_11">
     <g id="line2d_37">
      <g>
       <use style="stroke:#000000;stroke-width:0.8;" x="630.981818" xlink:href="#me966192c76" y="169.158485"/>
      </g>
     </g>
     <g id="text_33">
      <!-- 0.8 -->
      <g transform="translate(608.078693 172.957704)scale(0.1 -0.1)">
       <use xlink:href="#DejaVuSans-30"/>
       <use x="63.623047" xlink:href="#DejaVuSans-2e"/>
       <use x="95.410156" xlink:href="#DejaVuSans-38"/>
      </g>
     </g>
    </g>
    <g id="ytick_12">
     <g id="line2d_38">
      <g>
       <use style="stroke:#000000;stroke-width:0.8;" x="630.981818" xlink:href="#me966192c76" y="88.887273"/>
      </g>
     </g>
     <g id="text_34">
      <!-- 1.0 -->
      <g transform="translate(608.078693 92.686491)scale(0.1 -0.1)">
       <use xlink:href="#DejaVuSans-31"/>
       <use x="63.623047" xlink:href="#DejaVuSans-2e"/>
       <use x="95.410156" xlink:href="#DejaVuSans-30"/>
      </g>
     </g>
    </g>
    <g id="text_35">
     <!-- Cumulative Variance Explained -->
     <g transform="translate(601.999006 364.812344)rotate(-90)scale(0.1 -0.1)">
      <use xlink:href="#DejaVuSans-43"/>
      <use x="69.824219" xlink:href="#DejaVuSans-75"/>
      <use x="133.203125" xlink:href="#DejaVuSans-6d"/>
      <use x="230.615234" xlink:href="#DejaVuSans-75"/>
      <use x="293.994141" xlink:href="#DejaVuSans-6c"/>
      <use x="321.777344" xlink:href="#DejaVuSans-61"/>
      <use x="383.056641" xlink:href="#DejaVuSans-74"/>
      <use x="422.265625" xlink:href="#DejaVuSans-69"/>
      <use x="450.048828" xlink:href="#DejaVuSans-76"/>
      <use x="509.228516" xlink:href="#DejaVuSans-65"/>
      <use x="570.751953" xlink:href="#DejaVuSans-20"/>
      <use x="602.539062" xlink:href="#DejaVuSans-56"/>
      <use x="670.837891" xlink:href="#DejaVuSans-61"/>
      <use x="732.117188" xlink:href="#DejaVuSans-72"/>
      <use x="773.230469" xlink:href="#DejaVuSans-69"/>
      <use x="801.013672" xlink:href="#DejaVuSans-61"/>
      <use x="862.292969" xlink:href="#DejaVuSans-6e"/>
      <use x="925.671875" xlink:href="#DejaVuSans-63"/>
      <use x="980.652344" xlink:href="#DejaVuSans-65"/>
      <use x="1042.175781" xlink:href="#DejaVuSans-20"/>
      <use x="1073.962891" xlink:href="#DejaVuSans-45"/>
      <use x="1137.146484" xlink:href="#DejaVuSans-78"/>
      <use x="1196.326172" xlink:href="#DejaVuSans-70"/>
      <use x="1259.802734" xlink:href="#DejaVuSans-6c"/>
      <use x="1287.585938" xlink:href="#DejaVuSans-61"/>
      <use x="1348.865234" xlink:href="#DejaVuSans-69"/>
      <use x="1376.648438" xlink:href="#DejaVuSans-6e"/>
      <use x="1440.027344" xlink:href="#DejaVuSans-65"/>
      <use x="1501.550781" xlink:href="#DejaVuSans-64"/>
     </g>
    </g>
   </g>
   <g id="line2d_39">
    <path clip-path="url(#p0095a2d5ad)" d="M 644.072727 290.54215 
L 657.163636 158.269328 
L 670.254545 110.491204 
L 683.345455 97.874595 
L 696.436364 92.78069 
L 709.527273 90.426195 
L 722.618182 89.862912 
L 735.709091 89.497373 
L 748.8 89.290083 
L 761.890909 89.167862 
L 774.981818 89.08973 
L 788.072727 89.026718 
L 801.163636 88.988466 
L 814.254545 88.956888 
L 827.345455 88.940214 
L 840.436364 88.929042 
L 853.527273 88.919257 
L 866.618182 88.912009 
L 879.709091 88.905287 
L 892.8 88.899808 
L 905.890909 88.896603 
L 918.981818 88.893732 
L 932.072727 88.892249 
L 945.163636 88.891053 
L 958.254545 88.890167 
L 971.345455 88.889354 
L 984.436364 88.888588 
L 997.527273 88.88799 
L 1010.618182 88.887608 
L 1023.709091 88.887273 
" style="fill:none;stroke:#000000;stroke-linecap:square;stroke-width:1.5;"/>
    <g clip-path="url(#p0095a2d5ad)">
     <use style="stroke:#000000;" x="644.072727" xlink:href="#m17efcf794a" y="290.54215"/>
     <use style="stroke:#000000;" x="657.163636" xlink:href="#m17efcf794a" y="158.269328"/>
     <use style="stroke:#000000;" x="670.254545" xlink:href="#m17efcf794a" y="110.491204"/>
     <use style="stroke:#000000;" x="683.345455" xlink:href="#m17efcf794a" y="97.874595"/>
     <use style="stroke:#000000;" x="696.436364" xlink:href="#m17efcf794a" y="92.78069"/>
     <use style="stroke:#000000;" x="709.527273" xlink:href="#m17efcf794a" y="90.426195"/>
     <use style="stroke:#000000;" x="722.618182" xlink:href="#m17efcf794a" y="89.862912"/>
     <use style="stroke:#000000;" x="735.709091" xlink:href="#m17efcf794a" y="89.497373"/>
     <use style="stroke:#000000;" x="748.8" xlink:href="#m17efcf794a" y="89.290083"/>
     <use style="stroke:#000000;" x="761.890909" xlink:href="#m17efcf794a" y="89.167862"/>
     <use style="stroke:#000000;" x="774.981818" xlink:href="#m17efcf794a" y="89.08973"/>
     <use style="stroke:#000000;" x="788.072727" xlink:href="#m17efcf794a" y="89.026718"/>
     <use style="stroke:#000000;" x="801.163636" xlink:href="#m17efcf794a" y="88.988466"/>
     <use style="stroke:#000000;" x="814.254545" xlink:href="#m17efcf794a" y="88.956888"/>
     <use style="stroke:#000000;" x="827.345455" xlink:href="#m17efcf794a" y="88.940214"/>
     <use style="stroke:#000000;" x="840.436364" xlink:href="#m17efcf794a" y="88.929042"/>
     <use style="stroke:#000000;" x="853.527273" xlink:href="#m17efcf794a" y="88.919257"/>
     <use style="stroke:#000000;" x="866.618182" xlink:href="#m17efcf794a" y="88.912009"/>
     <use style="stroke:#000000;" x="879.709091" xlink:href="#m17efcf794a" y="88.905287"/>
     <use style="stroke:#000000;" x="892.8" xlink:href="#m17efcf794a" y="88.899808"/>
     <use style="stroke:#000000;" x="905.890909" xlink:href="#m17efcf794a" y="88.896603"/>
     <use style="stroke:#000000;" x="918.981818" xlink:href="#m17efcf794a" y="88.893732"/>
     <use style="stroke:#000000;" x="932.072727" xlink:href="#m17efcf794a" y="88.892249"/>
     <use style="stroke:#000000;" x="945.163636" xlink:href="#m17efcf794a" y="88.891053"/>
     <use style="stroke:#000000;" x="958.254545" xlink:href="#m17efcf794a" y="88.890167"/>
     <use style="stroke:#000000;" x="971.345455" xlink:href="#m17efcf794a" y="88.889354"/>
     <use style="stroke:#000000;" x="984.436364" xlink:href="#m17efcf794a" y="88.888588"/>
     <use style="stroke:#000000;" x="997.527273" xlink:href="#m17efcf794a" y="88.88799"/>
     <use style="stroke:#000000;" x="1010.618182" xlink:href="#m17efcf794a" y="88.887608"/>
     <use style="stroke:#000000;" x="1023.709091" xlink:href="#m17efcf794a" y="88.887273"/>
    </g>
   </g>
   <g id="line2d_40">
    <path clip-path="url(#p0095a2d5ad)" d="M 644.072727 458.336667 
L 657.163636 457.259369 
L 670.254545 395.105116 
L 683.345455 272.959682 
L 696.436364 267.75389 
L 709.527273 261.788051 
L 722.618182 239.024324 
L 735.709091 234.530424 
L 748.8 219.355523 
L 761.890909 207.475996 
L 774.981818 202.14516 
L 788.072727 189.084642 
L 801.163636 184.916042 
L 814.254545 181.093436 
L 827.345455 177.914087 
L 840.436364 167.914261 
L 853.527273 156.54546 
L 866.618182 142.111301 
L 879.709091 140.179257 
L 892.8 121.609057 
L 905.890909 120.192212 
L 918.981818 115.076298 
L 932.072727 111.94678 
L 945.163636 109.152706 
L 958.254545 106.660249 
L 971.345455 100.679099 
L 984.436364 93.560139 
L 997.527273 90.444041 
L 1010.618182 89.622656 
L 1023.709091 88.887273 
" style="fill:none;stroke:#0000ff;stroke-linecap:square;stroke-width:1.5;"/>
    <g clip-path="url(#p0095a2d5ad)">
     <use style="fill:#0000ff;stroke:#0000ff;" x="644.072727" xlink:href="#m6941558e03" y="458.336667"/>
     <use style="fill:#0000ff;stroke:#0000ff;" x="657.163636" xlink:href="#m6941558e03" y="457.259369"/>
     <use style="fill:#0000ff;stroke:#0000ff;" x="670.254545" xlink:href="#m6941558e03" y="395.105116"/>
     <use style="fill:#0000ff;stroke:#0000ff;" x="683.345455" xlink:href="#m6941558e03" y="272.959682"/>
     <use style="fill:#0000ff;stroke:#0000ff;" x="696.436364" xlink:href="#m6941558e03" y="267.75389"/>
     <use style="fill:#0000ff;stroke:#0000ff;" x="709.527273" xlink:href="#m6941558e03" y="261.788051"/>
     <use style="fill:#0000ff;stroke:#0000ff;" x="722.618182" xlink:href="#m6941558e03" y="239.024324"/>
     <use style="fill:#0000ff;stroke:#0000ff;" x="735.709091" xlink:href="#m6941558e03" y="234.530424"/>
     <use style="fill:#0000ff;stroke:#0000ff;" x="748.8" xlink:href="#m6941558e03" y="219.355523"/>
     <use style="fill:#0000ff;stroke:#0000ff;" x="761.890909" xlink:href="#m6941558e03" y="207.475996"/>
     <use style="fill:#0000ff;stroke:#0000ff;" x="774.981818" xlink:href="#m6941558e03" y="202.14516"/>
     <use style="fill:#0000ff;stroke:#0000ff;" x="788.072727" xlink:href="#m6941558e03" y="189.084642"/>
     <use style="fill:#0000ff;stroke:#0000ff;" x="801.163636" xlink:href="#m6941558e03" y="184.916042"/>
     <use style="fill:#0000ff;stroke:#0000ff;" x="814.254545" xlink:href="#m6941558e03" y="181.093436"/>
     <use style="fill:#0000ff;stroke:#0000ff;" x="827.345455" xlink:href="#m6941558e03" y="177.914087"/>
     <use style="fill:#0000ff;stroke:#0000ff;" x="840.436364" xlink:href="#m6941558e03" y="167.914261"/>
     <use style="fill:#0000ff;stroke:#0000ff;" x="853.527273" xlink:href="#m6941558e03" y="156.54546"/>
     <use style="fill:#0000ff;stroke:#0000ff;" x="866.618182" xlink:href="#m6941558e03" y="142.111301"/>
     <use style="fill:#0000ff;stroke:#0000ff;" x="879.709091" xlink:href="#m6941558e03" y="140.179257"/>
     <use style="fill:#0000ff;stroke:#0000ff;" x="892.8" xlink:href="#m6941558e03" y="121.609057"/>
     <use style="fill:#0000ff;stroke:#0000ff;" x="905.890909" xlink:href="#m6941558e03" y="120.192212"/>
     <use style="fill:#0000ff;stroke:#0000ff;" x="918.981818" xlink:href="#m6941558e03" y="115.076298"/>
     <use style="fill:#0000ff;stroke:#0000ff;" x="932.072727" xlink:href="#m6941558e03" y="111.94678"/>
     <use style="fill:#0000ff;stroke:#0000ff;" x="945.163636" xlink:href="#m6941558e03" y="109.152706"/>
     <use style="fill:#0000ff;stroke:#0000ff;" x="958.254545" xlink:href="#m6941558e03" y="106.660249"/>
     <use style="fill:#0000ff;stroke:#0000ff;" x="971.345455" xlink:href="#m6941558e03" y="100.679099"/>
     <use style="fill:#0000ff;stroke:#0000ff;" x="984.436364" xlink:href="#m6941558e03" y="93.560139"/>
     <use style="fill:#0000ff;stroke:#0000ff;" x="997.527273" xlink:href="#m6941558e03" y="90.444041"/>
     <use style="fill:#0000ff;stroke:#0000ff;" x="1010.618182" xlink:href="#m6941558e03" y="89.622656"/>
     <use style="fill:#0000ff;stroke:#0000ff;" x="1023.709091" xlink:href="#m6941558e03" y="88.887273"/>
    </g>
   </g>
   <g id="line2d_41">
    <path clip-path="url(#p0095a2d5ad)" d="M 644.072727 484.232727 
L 657.163636 482.211796 
L 670.254545 460.626032 
L 683.345455 441.885078 
L 696.436364 430.937902 
L 709.527273 410.772173 
L 722.618182 409.372857 
L 735.709091 394.078349 
L 748.8 389.91119 
L 761.890909 383.829475 
L 774.981818 380.798914 
L 788.072727 369.226111 
L 801.163636 360.613586 
L 814.254545 345.004895 
L 827.345455 324.123464 
L 840.436364 309.904777 
L 853.527273 309.504885 
L 866.618182 293.872056 
L 879.709091 258.636979 
L 892.8 258.323472 
L 905.890909 242.780281 
L 918.981818 204.319038 
L 932.072727 188.044603 
L 945.163636 182.572839 
L 958.254545 176.181128 
L 971.345455 169.340316 
L 984.436364 167.586209 
L 997.527273 128.36712 
L 1010.618182 107.145497 
L 1023.709091 88.887273 
" style="fill:none;stroke:#008000;stroke-linecap:square;stroke-width:1.5;"/>
    <g clip-path="url(#p0095a2d5ad)">
     <use style="fill:#008000;stroke:#008000;" x="644.072727" xlink:href="#mf54accbbdb" y="484.232727"/>
     <use style="fill:#008000;stroke:#008000;" x="657.163636" xlink:href="#mf54accbbdb" y="482.211796"/>
     <use style="fill:#008000;stroke:#008000;" x="670.254545" xlink:href="#mf54accbbdb" y="460.626032"/>
     <use style="fill:#008000;stroke:#008000;" x="683.345455" xlink:href="#mf54accbbdb" y="441.885078"/>
     <use style="fill:#008000;stroke:#008000;" x="696.436364" xlink:href="#mf54accbbdb" y="430.937902"/>
     <use style="fill:#008000;stroke:#008000;" x="709.527273" xlink:href="#mf54accbbdb" y="410.772173"/>
     <use style="fill:#008000;stroke:#008000;" x="722.618182" xlink:href="#mf54accbbdb" y="409.372857"/>
     <use style="fill:#008000;stroke:#008000;" x="735.709091" xlink:href="#mf54accbbdb" y="394.078349"/>
     <use style="fill:#008000;stroke:#008000;" x="748.8" xlink:href="#mf54accbbdb" y="389.91119"/>
     <use style="fill:#008000;stroke:#008000;" x="761.890909" xlink:href="#mf54accbbdb" y="383.829475"/>
     <use style="fill:#008000;stroke:#008000;" x="774.981818" xlink:href="#mf54accbbdb" y="380.798914"/>
     <use style="fill:#008000;stroke:#008000;" x="788.072727" xlink:href="#mf54accbbdb" y="369.226111"/>
     <use style="fill:#008000;stroke:#008000;" x="801.163636" xlink:href="#mf54accbbdb" y="360.613586"/>
     <use style="fill:#008000;stroke:#008000;" x="814.254545" xlink:href="#mf54accbbdb" y="345.004895"/>
     <use style="fill:#008000;stroke:#008000;" x="827.345455" xlink:href="#mf54accbbdb" y="324.123464"/>
     <use style="fill:#008000;stroke:#008000;" x="840.436364" xlink:href="#mf54accbbdb" y="309.904777"/>
     <use style="fill:#008000;stroke:#008000;" x="853.527273" xlink:href="#mf54accbbdb" y="309.504885"/>
     <use style="fill:#008000;stroke:#008000;" x="866.618182" xlink:href="#mf54accbbdb" y="293.872056"/>
     <use style="fill:#008000;stroke:#008000;" x="879.709091" xlink:href="#mf54accbbdb" y="258.636979"/>
     <use style="fill:#008000;stroke:#008000;" x="892.8" xlink:href="#mf54accbbdb" y="258.323472"/>
     <use style="fill:#008000;stroke:#008000;" x="905.890909" xlink:href="#mf54accbbdb" y="242.780281"/>
     <use style="fill:#008000;stroke:#008000;" x="918.981818" xlink:href="#mf54accbbdb" y="204.319038"/>
     <use style="fill:#008000;stroke:#008000;" x="932.072727" xlink:href="#mf54accbbdb" y="188.044603"/>
     <use style="fill:#008000;stroke:#008000;" x="945.163636" xlink:href="#mf54accbbdb" y="182.572839"/>
     <use style="fill:#008000;stroke:#008000;" x="958.254545" xlink:href="#mf54accbbdb" y="176.181128"/>
     <use style="fill:#008000;stroke:#008000;" x="971.345455" xlink:href="#mf54accbbdb" y="169.340316"/>
     <use style="fill:#008000;stroke:#008000;" x="984.436364" xlink:href="#mf54accbbdb" y="167.586209"/>
     <use style="fill:#008000;stroke:#008000;" x="997.527273" xlink:href="#mf54accbbdb" y="128.36712"/>
     <use style="fill:#008000;stroke:#008000;" x="1010.618182" xlink:href="#mf54accbbdb" y="107.145497"/>
     <use style="fill:#008000;stroke:#008000;" x="1023.709091" xlink:href="#mf54accbbdb" y="88.887273"/>
    </g>
   </g>
   <g id="line2d_42">
    <path clip-path="url(#p0095a2d5ad)" d="M 644.072727 455.406635 
L 657.163636 451.418074 
L 670.254545 435.32979 
L 683.345455 372.438701 
L 696.436364 369.640345 
L 709.527273 358.709089 
L 722.618182 355.018536 
L 735.709091 354.63423 
L 748.8 344.004173 
L 761.890909 313.976897 
L 774.981818 308.514749 
L 788.072727 296.358724 
L 801.163636 286.335478 
L 814.254545 268.408176 
L 827.345455 264.072548 
L 840.436364 248.490722 
L 853.527273 240.366698 
L 866.618182 227.006476 
L 879.709091 226.368984 
L 892.8 167.63238 
L 905.890909 155.474656 
L 918.981818 150.631054 
L 932.072727 145.725923 
L 945.163636 141.592537 
L 958.254545 138.50675 
L 971.345455 104.156429 
L 984.436364 97.673094 
L 997.527273 95.707583 
L 1010.618182 94.455182 
L 1023.709091 88.887273 
" style="fill:none;stroke:#ff0000;stroke-linecap:square;stroke-width:1.5;"/>
    <g clip-path="url(#p0095a2d5ad)">
     <use style="fill:#ff0000;stroke:#ff0000;" x="644.072727" xlink:href="#mb680a08e83" y="455.406635"/>
     <use style="fill:#ff0000;stroke:#ff0000;" x="657.163636" xlink:href="#mb680a08e83" y="451.418074"/>
     <use style="fill:#ff0000;stroke:#ff0000;" x="670.254545" xlink:href="#mb680a08e83" y="435.32979"/>
     <use style="fill:#ff0000;stroke:#ff0000;" x="683.345455" xlink:href="#mb680a08e83" y="372.438701"/>
     <use style="fill:#ff0000;stroke:#ff0000;" x="696.436364" xlink:href="#mb680a08e83" y="369.640345"/>
     <use style="fill:#ff0000;stroke:#ff0000;" x="709.527273" xlink:href="#mb680a08e83" y="358.709089"/>
     <use style="fill:#ff0000;stroke:#ff0000;" x="722.618182" xlink:href="#mb680a08e83" y="355.018536"/>
     <use style="fill:#ff0000;stroke:#ff0000;" x="735.709091" xlink:href="#mb680a08e83" y="354.63423"/>
     <use style="fill:#ff0000;stroke:#ff0000;" x="748.8" xlink:href="#mb680a08e83" y="344.004173"/>
     <use style="fill:#ff0000;stroke:#ff0000;" x="761.890909" xlink:href="#mb680a08e83" y="313.976897"/>
     <use style="fill:#ff0000;stroke:#ff0000;" x="774.981818" xlink:href="#mb680a08e83" y="308.514749"/>
     <use style="fill:#ff0000;stroke:#ff0000;" x="788.072727" xlink:href="#mb680a08e83" y="296.358724"/>
     <use style="fill:#ff0000;stroke:#ff0000;" x="801.163636" xlink:href="#mb680a08e83" y="286.335478"/>
     <use style="fill:#ff0000;stroke:#ff0000;" x="814.254545" xlink:href="#mb680a08e83" y="268.408176"/>
     <use style="fill:#ff0000;stroke:#ff0000;" x="827.345455" xlink:href="#mb680a08e83" y="264.072548"/>
     <use style="fill:#ff0000;stroke:#ff0000;" x="840.436364" xlink:href="#mb680a08e83" y="248.490722"/>
     <use style="fill:#ff0000;stroke:#ff0000;" x="853.527273" xlink:href="#mb680a08e83" y="240.366698"/>
     <use style="fill:#ff0000;stroke:#ff0000;" x="866.618182" xlink:href="#mb680a08e83" y="227.006476"/>
     <use style="fill:#ff0000;stroke:#ff0000;" x="879.709091" xlink:href="#mb680a08e83" y="226.368984"/>
     <use style="fill:#ff0000;stroke:#ff0000;" x="892.8" xlink:href="#mb680a08e83" y="167.63238"/>
     <use style="fill:#ff0000;stroke:#ff0000;" x="905.890909" xlink:href="#mb680a08e83" y="155.474656"/>
     <use style="fill:#ff0000;stroke:#ff0000;" x="918.981818" xlink:href="#mb680a08e83" y="150.631054"/>
     <use style="fill:#ff0000;stroke:#ff0000;" x="932.072727" xlink:href="#mb680a08e83" y="145.725923"/>
     <use style="fill:#ff0000;stroke:#ff0000;" x="945.163636" xlink:href="#mb680a08e83" y="141.592537"/>
     <use style="fill:#ff0000;stroke:#ff0000;" x="958.254545" xlink:href="#mb680a08e83" y="138.50675"/>
     <use style="fill:#ff0000;stroke:#ff0000;" x="971.345455" xlink:href="#mb680a08e83" y="104.156429"/>
     <use style="fill:#ff0000;stroke:#ff0000;" x="984.436364" xlink:href="#mb680a08e83" y="97.673094"/>
     <use style="fill:#ff0000;stroke:#ff0000;" x="997.527273" xlink:href="#mb680a08e83" y="95.707583"/>
     <use style="fill:#ff0000;stroke:#ff0000;" x="1010.618182" xlink:href="#mb680a08e83" y="94.455182"/>
     <use style="fill:#ff0000;stroke:#ff0000;" x="1023.709091" xlink:href="#mb680a08e83" y="88.887273"/>
    </g>
   </g>
   <g id="patch_9">
    <path d="M 630.981818 504 
L 630.981818 69.12 
" style="fill:none;stroke:#000000;stroke-linecap:square;stroke-linejoin:miter;stroke-width:0.8;"/>
   </g>
   <g id="patch_10">
    <path d="M 1036.8 504 
L 1036.8 69.12 
" style="fill:none;stroke:#000000;stroke-linecap:square;stroke-linejoin:miter;stroke-width:0.8;"/>
   </g>
   <g id="patch_11">
    <path d="M 630.981818 504 
L 1036.8 504 
" style="fill:none;stroke:#000000;stroke-linecap:square;stroke-linejoin:miter;stroke-width:0.8;"/>
   </g>
   <g id="patch_12">
    <path d="M 630.981818 69.12 
L 1036.8 69.12 
" style="fill:none;stroke:#000000;stroke-linecap:square;stroke-linejoin:miter;stroke-width:0.8;"/>
   </g>
   <g id="text_36">
    <!-- lowD/grad_norm_l2001_delayanti -->
    <g transform="translate(733.628097 63.12)scale(0.12 -0.12)">
     <use xlink:href="#DejaVuSans-6c"/>
     <use x="27.783203" xlink:href="#DejaVuSans-6f"/>
     <use x="88.964844" xlink:href="#DejaVuSans-77"/>
     <use x="170.751953" xlink:href="#DejaVuSans-44"/>
     <use x="247.753906" xlink:href="#DejaVuSans-2f"/>
     <use x="281.445312" xlink:href="#DejaVuSans-67"/>
     <use x="344.921875" xlink:href="#DejaVuSans-72"/>
     <use x="386.035156" xlink:href="#DejaVuSans-61"/>
     <use x="447.314453" xlink:href="#DejaVuSans-64"/>
     <use x="510.791016" xlink:href="#DejaVuSans-5f"/>
     <use x="560.791016" xlink:href="#DejaVuSans-6e"/>
     <use x="624.169922" xlink:href="#DejaVuSans-6f"/>
     <use x="685.351562" xlink:href="#DejaVuSans-72"/>
     <use x="726.449219" xlink:href="#DejaVuSans-6d"/>
     <use x="823.861328" xlink:href="#DejaVuSans-5f"/>
     <use x="873.861328" xlink:href="#DejaVuSans-6c"/>
     <use x="901.644531" xlink:href="#DejaVuSans-32"/>
     <use x="965.267578" xlink:href="#DejaVuSans-30"/>
     <use x="1028.890625" xlink:href="#DejaVuSans-30"/>
     <use x="1092.513672" xlink:href="#DejaVuSans-31"/>
     <use x="1156.136719" xlink:href="#DejaVuSans-5f"/>
     <use x="1206.136719" xlink:href="#DejaVuSans-64"/>
     <use x="1269.613281" xlink:href="#DejaVuSans-65"/>
     <use x="1331.136719" xlink:href="#DejaVuSans-6c"/>
     <use x="1358.919922" xlink:href="#DejaVuSans-61"/>
     <use x="1420.199219" xlink:href="#DejaVuSans-79"/>
     <use x="1479.378906" xlink:href="#DejaVuSans-61"/>
     <use x="1540.658203" xlink:href="#DejaVuSans-6e"/>
     <use x="1604.037109" xlink:href="#DejaVuSans-74"/>
     <use x="1643.246094" xlink:href="#DejaVuSans-69"/>
    </g>
   </g>
  </g>
 </g>
 <defs>
  <clipPath id="p38fb3df9e9">
   <rect height="434.88" width="405.818182" x="144" y="69.12"/>
  </clipPath>
  <clipPath id="p0095a2d5ad">
   <rect height="434.88" width="405.818182" x="630.981818" y="69.12"/>
  </clipPath>
 </defs>
</svg>
