<?xml version="1.0" encoding="utf-8" standalone="no"?>
<!DOCTYPE svg PUBLIC "-//W3C//DTD SVG 1.1//EN"
  "http://www.w3.org/Graphics/SVG/1.1/DTD/svg11.dtd">
<!-- Created with matplotlib (http://matplotlib.org/) -->
<svg height="360pt" version="1.1" viewBox="0 0 1296 360" width="1296pt" xmlns="http://www.w3.org/2000/svg" xmlns:xlink="http://www.w3.org/1999/xlink">
 <defs>
  <style type="text/css">
*{stroke-linecap:butt;stroke-linejoin:round;}
  </style>
 </defs>
 <g id="figure_1">
  <g id="patch_1">
   <path d="M 0 360 
L 1296 360 
L 1296 0 
L 0 0 
z
" style="fill:#ffffff;"/>
  </g>
  <g id="axes_1">
   <g id="patch_2">
    <path d="M 101.591083 300.75 
L 364.472083 300.75 
L 364.472083 37.869 
L 101.591083 37.869 
z
" style="fill:#ffffff;"/>
   </g>
   <g id="matplotlib.axis_1">
    <g id="xtick_1">
     <g id="line2d_1">
      <defs>
       <path d="M 0 0 
L 0 3.5 
" id="mab9c68dc8b" style="stroke:#000000;stroke-width:0.8;"/>
      </defs>
      <g>
       <use style="stroke:#000000;stroke-width:0.8;" x="160.958179" xlink:href="#mab9c68dc8b" y="300.75"/>
      </g>
     </g>
     <g id="text_1">
      <!-- 0.0 -->
      <defs>
       <path d="M 31.78125 66.40625 
Q 24.171875 66.40625 20.328125 58.90625 
Q 16.5 51.421875 16.5 36.375 
Q 16.5 21.390625 20.328125 13.890625 
Q 24.171875 6.390625 31.78125 6.390625 
Q 39.453125 6.390625 43.28125 13.890625 
Q 47.125 21.390625 47.125 36.375 
Q 47.125 51.421875 43.28125 58.90625 
Q 39.453125 66.40625 31.78125 66.40625 
z
M 31.78125 74.21875 
Q 44.046875 74.21875 50.515625 64.515625 
Q 56.984375 54.828125 56.984375 36.375 
Q 56.984375 17.96875 50.515625 8.265625 
Q 44.046875 -1.421875 31.78125 -1.421875 
Q 19.53125 -1.421875 13.0625 8.265625 
Q 6.59375 17.96875 6.59375 36.375 
Q 6.59375 54.828125 13.0625 64.515625 
Q 19.53125 74.21875 31.78125 74.21875 
z
" id="DejaVuSans-30"/>
       <path d="M 10.6875 12.40625 
L 21 12.40625 
L 21 0 
L 10.6875 0 
z
" id="DejaVuSans-2e"/>
      </defs>
      <g transform="translate(148.235679 319.9075)scale(0.16 -0.16)">
       <use xlink:href="#DejaVuSans-30"/>
       <use x="63.623047" xlink:href="#DejaVuSans-2e"/>
       <use x="95.410156" xlink:href="#DejaVuSans-30"/>
      </g>
     </g>
    </g>
    <g id="xtick_2">
     <g id="line2d_2">
      <g>
       <use style="stroke:#000000;stroke-width:0.8;" x="232.197989" xlink:href="#mab9c68dc8b" y="300.75"/>
      </g>
     </g>
     <g id="text_2">
      <!-- 0.2 -->
      <defs>
       <path d="M 19.1875 8.296875 
L 53.609375 8.296875 
L 53.609375 0 
L 7.328125 0 
L 7.328125 8.296875 
Q 12.9375 14.109375 22.625 23.890625 
Q 32.328125 33.6875 34.8125 36.53125 
Q 39.546875 41.84375 41.421875 45.53125 
Q 43.3125 49.21875 43.3125 52.78125 
Q 43.3125 58.59375 39.234375 62.25 
Q 35.15625 65.921875 28.609375 65.921875 
Q 23.96875 65.921875 18.8125 64.3125 
Q 13.671875 62.703125 7.8125 59.421875 
L 7.8125 69.390625 
Q 13.765625 71.78125 18.9375 73 
Q 24.125 74.21875 28.421875 74.21875 
Q 39.75 74.21875 46.484375 68.546875 
Q 53.21875 62.890625 53.21875 53.421875 
Q 53.21875 48.921875 51.53125 44.890625 
Q 49.859375 40.875 45.40625 35.40625 
Q 44.1875 33.984375 37.640625 27.21875 
Q 31.109375 20.453125 19.1875 8.296875 
z
" id="DejaVuSans-32"/>
      </defs>
      <g transform="translate(219.475489 319.9075)scale(0.16 -0.16)">
       <use xlink:href="#DejaVuSans-30"/>
       <use x="63.623047" xlink:href="#DejaVuSans-2e"/>
       <use x="95.410156" xlink:href="#DejaVuSans-32"/>
      </g>
     </g>
    </g>
    <g id="xtick_3">
     <g id="line2d_3">
      <g>
       <use style="stroke:#000000;stroke-width:0.8;" x="303.437799" xlink:href="#mab9c68dc8b" y="300.75"/>
      </g>
     </g>
     <g id="text_3">
      <!-- 0.4 -->
      <defs>
       <path d="M 37.796875 64.3125 
L 12.890625 25.390625 
L 37.796875 25.390625 
z
M 35.203125 72.90625 
L 47.609375 72.90625 
L 47.609375 25.390625 
L 58.015625 25.390625 
L 58.015625 17.1875 
L 47.609375 17.1875 
L 47.609375 0 
L 37.796875 0 
L 37.796875 17.1875 
L 4.890625 17.1875 
L 4.890625 26.703125 
z
" id="DejaVuSans-34"/>
      </defs>
      <g transform="translate(290.715299 319.9075)scale(0.16 -0.16)">
       <use xlink:href="#DejaVuSans-30"/>
       <use x="63.623047" xlink:href="#DejaVuSans-2e"/>
       <use x="95.410156" xlink:href="#DejaVuSans-34"/>
      </g>
     </g>
    </g>
   </g>
   <g id="matplotlib.axis_2">
    <g id="ytick_1">
     <g id="line2d_4">
      <defs>
       <path d="M 0 0 
L -3.5 0 
" id="m06f4aec977" style="stroke:#000000;stroke-width:0.8;"/>
      </defs>
      <g>
       <use style="stroke:#000000;stroke-width:0.8;" x="101.591083" xlink:href="#m06f4aec977" y="272.473429"/>
      </g>
     </g>
     <g id="text_4">
      <!-- −0.3 -->
      <defs>
       <path d="M 10.59375 35.5 
L 73.1875 35.5 
L 73.1875 27.203125 
L 10.59375 27.203125 
z
" id="DejaVuSans-2212"/>
       <path d="M 40.578125 39.3125 
Q 47.65625 37.796875 51.625 33 
Q 55.609375 28.21875 55.609375 21.1875 
Q 55.609375 10.40625 48.1875 4.484375 
Q 40.765625 -1.421875 27.09375 -1.421875 
Q 22.515625 -1.421875 17.65625 -0.515625 
Q 12.796875 0.390625 7.625 2.203125 
L 7.625 11.71875 
Q 11.71875 9.328125 16.59375 8.109375 
Q 21.484375 6.890625 26.8125 6.890625 
Q 36.078125 6.890625 40.9375 10.546875 
Q 45.796875 14.203125 45.796875 21.1875 
Q 45.796875 27.640625 41.28125 31.265625 
Q 36.765625 34.90625 28.71875 34.90625 
L 20.21875 34.90625 
L 20.21875 43.015625 
L 29.109375 43.015625 
Q 36.375 43.015625 40.234375 45.921875 
Q 44.09375 48.828125 44.09375 54.296875 
Q 44.09375 59.90625 40.109375 62.90625 
Q 36.140625 65.921875 28.71875 65.921875 
Q 24.65625 65.921875 20.015625 65.03125 
Q 15.375 64.15625 9.8125 62.3125 
L 9.8125 71.09375 
Q 15.4375 72.65625 20.34375 73.4375 
Q 25.25 74.21875 29.59375 74.21875 
Q 40.828125 74.21875 47.359375 69.109375 
Q 53.90625 64.015625 53.90625 55.328125 
Q 53.90625 49.265625 50.4375 45.09375 
Q 46.96875 40.921875 40.578125 39.3125 
z
" id="DejaVuSans-33"/>
      </defs>
      <g transform="translate(55.738583 278.552179)scale(0.16 -0.16)">
       <use xlink:href="#DejaVuSans-2212"/>
       <use x="83.789062" xlink:href="#DejaVuSans-30"/>
       <use x="147.412109" xlink:href="#DejaVuSans-2e"/>
       <use x="179.199219" xlink:href="#DejaVuSans-33"/>
      </g>
     </g>
    </g>
    <g id="ytick_2">
     <g id="line2d_5">
      <g>
       <use style="stroke:#000000;stroke-width:0.8;" x="101.591083" xlink:href="#m06f4aec977" y="236.853524"/>
      </g>
     </g>
     <g id="text_5">
      <!-- −0.2 -->
      <g transform="translate(55.738583 242.932274)scale(0.16 -0.16)">
       <use xlink:href="#DejaVuSans-2212"/>
       <use x="83.789062" xlink:href="#DejaVuSans-30"/>
       <use x="147.412109" xlink:href="#DejaVuSans-2e"/>
       <use x="179.199219" xlink:href="#DejaVuSans-32"/>
      </g>
     </g>
    </g>
    <g id="ytick_3">
     <g id="line2d_6">
      <g>
       <use style="stroke:#000000;stroke-width:0.8;" x="101.591083" xlink:href="#m06f4aec977" y="201.233619"/>
      </g>
     </g>
     <g id="text_6">
      <!-- −0.1 -->
      <defs>
       <path d="M 12.40625 8.296875 
L 28.515625 8.296875 
L 28.515625 63.921875 
L 10.984375 60.40625 
L 10.984375 69.390625 
L 28.421875 72.90625 
L 38.28125 72.90625 
L 38.28125 8.296875 
L 54.390625 8.296875 
L 54.390625 0 
L 12.40625 0 
z
" id="DejaVuSans-31"/>
      </defs>
      <g transform="translate(55.738583 207.312369)scale(0.16 -0.16)">
       <use xlink:href="#DejaVuSans-2212"/>
       <use x="83.789062" xlink:href="#DejaVuSans-30"/>
       <use x="147.412109" xlink:href="#DejaVuSans-2e"/>
       <use x="179.199219" xlink:href="#DejaVuSans-31"/>
      </g>
     </g>
    </g>
    <g id="ytick_4">
     <g id="line2d_7">
      <g>
       <use style="stroke:#000000;stroke-width:0.8;" x="101.591083" xlink:href="#m06f4aec977" y="165.613714"/>
      </g>
     </g>
     <g id="text_7">
      <!-- 0.0 -->
      <g transform="translate(69.146083 171.692464)scale(0.16 -0.16)">
       <use xlink:href="#DejaVuSans-30"/>
       <use x="63.623047" xlink:href="#DejaVuSans-2e"/>
       <use x="95.410156" xlink:href="#DejaVuSans-30"/>
      </g>
     </g>
    </g>
    <g id="ytick_5">
     <g id="line2d_8">
      <g>
       <use style="stroke:#000000;stroke-width:0.8;" x="101.591083" xlink:href="#m06f4aec977" y="129.993809"/>
      </g>
     </g>
     <g id="text_8">
      <!-- 0.1 -->
      <g transform="translate(69.146083 136.072559)scale(0.16 -0.16)">
       <use xlink:href="#DejaVuSans-30"/>
       <use x="63.623047" xlink:href="#DejaVuSans-2e"/>
       <use x="95.410156" xlink:href="#DejaVuSans-31"/>
      </g>
     </g>
    </g>
    <g id="ytick_6">
     <g id="line2d_9">
      <g>
       <use style="stroke:#000000;stroke-width:0.8;" x="101.591083" xlink:href="#m06f4aec977" y="94.373904"/>
      </g>
     </g>
     <g id="text_9">
      <!-- 0.2 -->
      <g transform="translate(69.146083 100.452654)scale(0.16 -0.16)">
       <use xlink:href="#DejaVuSans-30"/>
       <use x="63.623047" xlink:href="#DejaVuSans-2e"/>
       <use x="95.410156" xlink:href="#DejaVuSans-32"/>
      </g>
     </g>
    </g>
    <g id="ytick_7">
     <g id="line2d_10">
      <g>
       <use style="stroke:#000000;stroke-width:0.8;" x="101.591083" xlink:href="#m06f4aec977" y="58.753999"/>
      </g>
     </g>
     <g id="text_10">
      <!-- 0.3 -->
      <g transform="translate(69.146083 64.832749)scale(0.16 -0.16)">
       <use xlink:href="#DejaVuSans-30"/>
       <use x="63.623047" xlink:href="#DejaVuSans-2e"/>
       <use x="95.410156" xlink:href="#DejaVuSans-33"/>
      </g>
     </g>
    </g>
   </g>
   <g id="line2d_11">
    <defs>
     <path d="M 0 3 
C 0.795609 3 1.55874 2.683901 2.12132 2.12132 
C 2.683901 1.55874 3 0.795609 3 0 
C 3 -0.795609 2.683901 -1.55874 2.12132 -2.12132 
C 1.55874 -2.683901 0.795609 -3 0 -3 
C -0.795609 -3 -1.55874 -2.683901 -2.12132 -2.12132 
C -2.683901 -1.55874 -3 -0.795609 -3 0 
C -3 0.795609 -2.683901 1.55874 -2.12132 2.12132 
C -1.55874 2.683901 -0.795609 3 0 3 
z
" id="m2b52d85189" style="stroke:#1f77b4;"/>
    </defs>
    <g clip-path="url(#p780f0b039b)">
     <use style="fill:#1f77b4;stroke:#1f77b4;" x="116.198679" xlink:href="#m2b52d85189" y="288.800864"/>
    </g>
   </g>
   <g id="line2d_12">
    <defs>
     <path d="M 0 3 
C 0.795609 3 1.55874 2.683901 2.12132 2.12132 
C 2.683901 1.55874 3 0.795609 3 0 
C 3 -0.795609 2.683901 -1.55874 2.12132 -2.12132 
C 1.55874 -2.683901 0.795609 -3 0 -3 
C -0.795609 -3 -1.55874 -2.683901 -2.12132 -2.12132 
C -2.683901 -1.55874 -3 -0.795609 -3 0 
C -3 0.795609 -2.683901 1.55874 -2.12132 2.12132 
C -1.55874 2.683901 -0.795609 3 0 3 
z
" id="m4b44fb226d" style="stroke:#8c564b;"/>
    </defs>
    <g clip-path="url(#p780f0b039b)">
     <use style="fill:#8c564b;stroke:#8c564b;" x="108.491253" xlink:href="#m4b44fb226d" y="183.164857"/>
    </g>
   </g>
   <g id="line2d_13">
    <defs>
     <path d="M 0 3 
C 0.795609 3 1.55874 2.683901 2.12132 2.12132 
C 2.683901 1.55874 3 0.795609 3 0 
C 3 -0.795609 2.683901 -1.55874 2.12132 -2.12132 
C 1.55874 -2.683901 0.795609 -3 0 -3 
C -0.795609 -3 -1.55874 -2.683901 -2.12132 -2.12132 
C -2.683901 -1.55874 -3 -0.795609 -3 0 
C -3 0.795609 -2.683901 1.55874 -2.12132 2.12132 
C -1.55874 2.683901 -0.795609 3 0 3 
z
" id="m94516ee8bc" style="stroke:#ff7f0e;"/>
    </defs>
    <g clip-path="url(#p780f0b039b)">
     <use style="fill:#ff7f0e;stroke:#ff7f0e;" x="142.038264" xlink:href="#m94516ee8bc" y="78.188958"/>
    </g>
   </g>
   <g id="line2d_14">
    <g clip-path="url(#p780f0b039b)">
     <use style="fill:#1f77b4;stroke:#1f77b4;" x="140.697338" xlink:href="#m2b52d85189" y="230.488336"/>
    </g>
   </g>
   <g id="line2d_15">
    <g clip-path="url(#p780f0b039b)">
     <use style="fill:#8c564b;stroke:#8c564b;" x="150.238152" xlink:href="#m4b44fb226d" y="179.609557"/>
    </g>
   </g>
   <g id="line2d_16">
    <g clip-path="url(#p780f0b039b)">
     <use style="fill:#ff7f0e;stroke:#ff7f0e;" x="153.54211" xlink:href="#m94516ee8bc" y="49.818136"/>
    </g>
   </g>
   <g id="line2d_17">
    <defs>
     <path d="M 0 3 
C 0.795609 3 1.55874 2.683901 2.12132 2.12132 
C 2.683901 1.55874 3 0.795609 3 0 
C 3 -0.795609 2.683901 -1.55874 2.12132 -2.12132 
C 1.55874 -2.683901 0.795609 -3 0 -3 
C -0.795609 -3 -1.55874 -2.683901 -2.12132 -2.12132 
C -2.683901 -1.55874 -3 -0.795609 -3 0 
C -3 0.795609 -2.683901 1.55874 -2.12132 2.12132 
C -1.55874 2.683901 -0.795609 3 0 3 
z
" id="m16ac5e111a" style="stroke:#2ca02c;"/>
    </defs>
    <g clip-path="url(#p780f0b039b)">
     <use style="fill:#2ca02c;stroke:#2ca02c;" x="164.670332" xlink:href="#m16ac5e111a" y="55.062206"/>
    </g>
   </g>
   <g id="line2d_18">
    <g clip-path="url(#p780f0b039b)">
     <use style="fill:#2ca02c;stroke:#2ca02c;" x="164.228962" xlink:href="#m16ac5e111a" y="50.444846"/>
    </g>
   </g>
   <g id="line2d_19">
    <defs>
     <path d="M 0 3 
C 0.795609 3 1.55874 2.683901 2.12132 2.12132 
C 2.683901 1.55874 3 0.795609 3 0 
C 3 -0.795609 2.683901 -1.55874 2.12132 -2.12132 
C 1.55874 -2.683901 0.795609 -3 0 -3 
C -0.795609 -3 -1.55874 -2.683901 -2.12132 -2.12132 
C -2.683901 -1.55874 -3 -0.795609 -3 0 
C -3 0.795609 -2.683901 1.55874 -2.12132 2.12132 
C -1.55874 2.683901 -0.795609 3 0 3 
z
" id="me5db7534fe" style="stroke:#d62728;"/>
    </defs>
    <g clip-path="url(#p780f0b039b)">
     <use style="fill:#d62728;stroke:#d62728;" x="246.494641" xlink:href="#me5db7534fe" y="260.457127"/>
    </g>
   </g>
   <g id="line2d_20">
    <g clip-path="url(#p780f0b039b)">
     <use style="fill:#d62728;stroke:#d62728;" x="222.98206" xlink:href="#me5db7534fe" y="280.102253"/>
    </g>
   </g>
   <g id="patch_3">
    <path d="M 101.591083 300.75 
L 101.591083 37.869 
" style="fill:none;stroke:#000000;stroke-linecap:square;stroke-linejoin:miter;stroke-width:0.8;"/>
   </g>
   <g id="patch_4">
    <path d="M 364.472083 300.75 
L 364.472083 37.869 
" style="fill:none;stroke:#000000;stroke-linecap:square;stroke-linejoin:miter;stroke-width:0.8;"/>
   </g>
   <g id="patch_5">
    <path d="M 101.591083 300.75 
L 364.472083 300.75 
" style="fill:none;stroke:#000000;stroke-linecap:square;stroke-linejoin:miter;stroke-width:0.8;"/>
   </g>
   <g id="patch_6">
    <path d="M 101.591083 37.869 
L 364.472083 37.869 
" style="fill:none;stroke:#000000;stroke-linecap:square;stroke-linejoin:miter;stroke-width:0.8;"/>
   </g>
   <g id="text_11">
    <g id="patch_7">
     <path d="M 114.278679 294.173364 
L 193.083679 294.173364 
L 193.083679 274.723364 
L 114.278679 274.723364 
z
" style="fill:#1f77b4;opacity:0.5;"/>
    </g>
    <!-- DelayGo -->
    <defs>
     <path d="M 27.984375 58.6875 
L 27.984375 14.203125 
L 34.71875 14.203125 
Q 46.234375 14.203125 52.3125 19.921875 
Q 58.40625 25.640625 58.40625 36.53125 
Q 58.40625 47.359375 52.34375 53.015625 
Q 46.296875 58.6875 34.71875 58.6875 
z
M 9.1875 72.90625 
L 29 72.90625 
Q 45.609375 72.90625 53.734375 70.53125 
Q 61.859375 68.171875 67.671875 62.5 
Q 72.796875 57.5625 75.28125 51.109375 
Q 77.78125 44.671875 77.78125 36.53125 
Q 77.78125 28.265625 75.28125 21.796875 
Q 72.796875 15.328125 67.671875 10.40625 
Q 61.8125 4.734375 53.609375 2.359375 
Q 45.40625 0 29 0 
L 9.1875 0 
z
" id="DejaVuSans-Bold-44"/>
     <path d="M 62.984375 27.484375 
L 62.984375 22.515625 
L 22.125 22.515625 
Q 22.75 16.359375 26.5625 13.28125 
Q 30.375 10.203125 37.203125 10.203125 
Q 42.71875 10.203125 48.5 11.84375 
Q 54.296875 13.484375 60.40625 16.796875 
L 60.40625 3.328125 
Q 54.203125 0.984375 48 -0.21875 
Q 41.796875 -1.421875 35.59375 -1.421875 
Q 20.75 -1.421875 12.515625 6.125 
Q 4.296875 13.671875 4.296875 27.296875 
Q 4.296875 40.671875 12.375 48.328125 
Q 20.453125 56 34.625 56 
Q 47.515625 56 55.25 48.234375 
Q 62.984375 40.484375 62.984375 27.484375 
z
M 45.015625 33.296875 
Q 45.015625 38.28125 42.109375 41.328125 
Q 39.203125 44.390625 34.515625 44.390625 
Q 29.4375 44.390625 26.265625 41.53125 
Q 23.09375 38.671875 22.3125 33.296875 
z
" id="DejaVuSans-Bold-65"/>
     <path d="M 8.40625 75.984375 
L 25.875 75.984375 
L 25.875 0 
L 8.40625 0 
z
" id="DejaVuSans-Bold-6c"/>
     <path d="M 32.90625 24.609375 
Q 27.4375 24.609375 24.671875 22.75 
Q 21.921875 20.90625 21.921875 17.28125 
Q 21.921875 13.96875 24.140625 12.078125 
Q 26.375 10.203125 30.328125 10.203125 
Q 35.25 10.203125 38.625 13.734375 
Q 42 17.28125 42 22.609375 
L 42 24.609375 
z
M 59.625 31.203125 
L 59.625 0 
L 42 0 
L 42 8.109375 
Q 38.484375 3.125 34.078125 0.84375 
Q 29.6875 -1.421875 23.390625 -1.421875 
Q 14.890625 -1.421875 9.59375 3.53125 
Q 4.296875 8.5 4.296875 16.40625 
Q 4.296875 26.03125 10.90625 30.515625 
Q 17.53125 35.015625 31.6875 35.015625 
L 42 35.015625 
L 42 36.375 
Q 42 40.53125 38.71875 42.453125 
Q 35.453125 44.390625 28.515625 44.390625 
Q 22.90625 44.390625 18.0625 43.265625 
Q 13.234375 42.140625 9.078125 39.890625 
L 9.078125 53.21875 
Q 14.703125 54.59375 20.359375 55.296875 
Q 26.03125 56 31.6875 56 
Q 46.484375 56 53.046875 50.171875 
Q 59.625 44.34375 59.625 31.203125 
z
" id="DejaVuSans-Bold-61"/>
     <path d="M 1.21875 54.6875 
L 18.703125 54.6875 
L 33.40625 17.578125 
L 45.90625 54.6875 
L 63.375 54.6875 
L 40.375 -5.171875 
Q 36.921875 -14.3125 32.296875 -17.9375 
Q 27.6875 -21.578125 20.125 -21.578125 
L 10.015625 -21.578125 
L 10.015625 -10.109375 
L 15.484375 -10.109375 
Q 19.921875 -10.109375 21.9375 -8.6875 
Q 23.96875 -7.28125 25.09375 -3.609375 
L 25.59375 -2.09375 
z
" id="DejaVuSans-Bold-79"/>
     <path d="M 74.703125 5.421875 
Q 67.671875 2 60.109375 0.28125 
Q 52.546875 -1.421875 44.484375 -1.421875 
Q 26.265625 -1.421875 15.625 8.765625 
Q 4.984375 18.953125 4.984375 36.375 
Q 4.984375 54 15.8125 64.109375 
Q 26.65625 74.21875 45.515625 74.21875 
Q 52.78125 74.21875 59.4375 72.84375 
Q 66.109375 71.484375 72.015625 68.796875 
L 72.015625 53.71875 
Q 65.921875 57.171875 59.890625 58.875 
Q 53.859375 60.59375 47.796875 60.59375 
Q 36.578125 60.59375 30.5 54.3125 
Q 24.421875 48.046875 24.421875 36.375 
Q 24.421875 24.8125 30.28125 18.5 
Q 36.140625 12.203125 46.921875 12.203125 
Q 49.859375 12.203125 52.375 12.5625 
Q 54.890625 12.9375 56.890625 13.71875 
L 56.890625 27.875 
L 45.40625 27.875 
L 45.40625 40.484375 
L 74.703125 40.484375 
z
" id="DejaVuSans-Bold-47"/>
     <path d="M 34.421875 43.5 
Q 28.609375 43.5 25.5625 39.328125 
Q 22.515625 35.15625 22.515625 27.296875 
Q 22.515625 19.4375 25.5625 15.25 
Q 28.609375 11.078125 34.421875 11.078125 
Q 40.140625 11.078125 43.15625 15.25 
Q 46.1875 19.4375 46.1875 27.296875 
Q 46.1875 35.15625 43.15625 39.328125 
Q 40.140625 43.5 34.421875 43.5 
z
M 34.421875 56 
Q 48.53125 56 56.46875 48.375 
Q 64.40625 40.765625 64.40625 27.296875 
Q 64.40625 13.8125 56.46875 6.1875 
Q 48.53125 -1.421875 34.421875 -1.421875 
Q 20.265625 -1.421875 12.28125 6.1875 
Q 4.296875 13.8125 4.296875 27.296875 
Q 4.296875 40.765625 12.28125 48.375 
Q 20.265625 56 34.421875 56 
z
" id="DejaVuSans-Bold-6f"/>
    </defs>
    <g transform="translate(116.198679 288.800864)scale(0.16 -0.16)">
     <use xlink:href="#DejaVuSans-Bold-44"/>
     <use x="83.007812" xlink:href="#DejaVuSans-Bold-65"/>
     <use x="150.830078" xlink:href="#DejaVuSans-Bold-6c"/>
     <use x="185.107422" xlink:href="#DejaVuSans-Bold-61"/>
     <use x="252.541016" xlink:href="#DejaVuSans-Bold-79"/>
     <use x="317.726562" xlink:href="#DejaVuSans-Bold-47"/>
     <use x="399.806641" xlink:href="#DejaVuSans-Bold-6f"/>
    </g>
   </g>
   <g id="text_12">
    <g id="patch_8">
     <path d="M 106.571253 188.412357 
L 185.638753 188.412357 
L 185.638753 169.087357 
L 106.571253 169.087357 
z
" style="fill:#8c564b;opacity:0.5;"/>
    </g>
    <!-- ReactGo -->
    <defs>
     <path d="M 35.890625 40.578125 
Q 41.796875 40.578125 44.359375 42.765625 
Q 46.921875 44.96875 46.921875 50 
Q 46.921875 54.984375 44.359375 57.125 
Q 41.796875 59.28125 35.890625 59.28125 
L 27.984375 59.28125 
L 27.984375 40.578125 
z
M 27.984375 27.59375 
L 27.984375 0 
L 9.1875 0 
L 9.1875 72.90625 
L 37.890625 72.90625 
Q 52.296875 72.90625 59 68.0625 
Q 65.71875 63.234375 65.71875 52.78125 
Q 65.71875 45.5625 62.21875 40.921875 
Q 58.734375 36.28125 51.703125 34.078125 
Q 55.5625 33.203125 58.609375 30.09375 
Q 61.671875 27 64.796875 20.703125 
L 75 0 
L 54.984375 0 
L 46.09375 18.109375 
Q 43.40625 23.578125 40.640625 25.578125 
Q 37.890625 27.59375 33.296875 27.59375 
z
" id="DejaVuSans-Bold-52"/>
     <path d="M 52.59375 52.984375 
L 52.59375 38.71875 
Q 49.03125 41.15625 45.4375 42.328125 
Q 41.84375 43.5 37.984375 43.5 
Q 30.671875 43.5 26.59375 39.234375 
Q 22.515625 34.96875 22.515625 27.296875 
Q 22.515625 19.625 26.59375 15.34375 
Q 30.671875 11.078125 37.984375 11.078125 
Q 42.09375 11.078125 45.78125 12.296875 
Q 49.46875 13.53125 52.59375 15.921875 
L 52.59375 1.609375 
Q 48.484375 0.09375 44.265625 -0.65625 
Q 40.046875 -1.421875 35.796875 -1.421875 
Q 21 -1.421875 12.640625 6.171875 
Q 4.296875 13.765625 4.296875 27.296875 
Q 4.296875 40.828125 12.640625 48.40625 
Q 21 56 35.796875 56 
Q 40.09375 56 44.265625 55.25 
Q 48.4375 54.5 52.59375 52.984375 
z
" id="DejaVuSans-Bold-63"/>
     <path d="M 27.484375 70.21875 
L 27.484375 54.6875 
L 45.515625 54.6875 
L 45.515625 42.1875 
L 27.484375 42.1875 
L 27.484375 19 
Q 27.484375 15.1875 29 13.84375 
Q 30.515625 12.5 35.015625 12.5 
L 44 12.5 
L 44 0 
L 29 0 
Q 18.65625 0 14.328125 4.3125 
Q 10.015625 8.640625 10.015625 19 
L 10.015625 42.1875 
L 1.3125 42.1875 
L 1.3125 54.6875 
L 10.015625 54.6875 
L 10.015625 70.21875 
z
" id="DejaVuSans-Bold-74"/>
    </defs>
    <g transform="translate(108.491253 183.164857)scale(0.16 -0.16)">
     <use xlink:href="#DejaVuSans-Bold-52"/>
     <use x="77.001953" xlink:href="#DejaVuSans-Bold-65"/>
     <use x="144.824219" xlink:href="#DejaVuSans-Bold-61"/>
     <use x="212.304688" xlink:href="#DejaVuSans-Bold-63"/>
     <use x="271.582031" xlink:href="#DejaVuSans-Bold-74"/>
     <use x="319.384766" xlink:href="#DejaVuSans-Bold-47"/>
     <use x="401.464844" xlink:href="#DejaVuSans-Bold-6f"/>
    </g>
   </g>
   <g id="text_13">
    <g id="patch_9">
     <path d="M 140.118264 83.561458 
L 240.843264 83.561458 
L 240.843264 64.236458 
L 140.118264 64.236458 
z
" style="fill:#ff7f0e;opacity:0.5;"/>
    </g>
    <!-- MemoryGo -->
    <defs>
     <path d="M 9.1875 72.90625 
L 33.109375 72.90625 
L 49.703125 33.890625 
L 66.40625 72.90625 
L 90.28125 72.90625 
L 90.28125 0 
L 72.515625 0 
L 72.515625 53.328125 
L 55.71875 14.015625 
L 43.796875 14.015625 
L 27 53.328125 
L 27 0 
L 9.1875 0 
z
" id="DejaVuSans-Bold-4d"/>
     <path d="M 59.078125 45.609375 
Q 62.40625 50.6875 66.96875 53.34375 
Q 71.53125 56 77 56 
Q 86.421875 56 91.359375 50.1875 
Q 96.296875 44.390625 96.296875 33.296875 
L 96.296875 0 
L 78.71875 0 
L 78.71875 28.515625 
Q 78.765625 29.15625 78.78125 29.828125 
Q 78.8125 30.515625 78.8125 31.78125 
Q 78.8125 37.59375 77.09375 40.203125 
Q 75.390625 42.828125 71.578125 42.828125 
Q 66.609375 42.828125 63.890625 38.71875 
Q 61.1875 34.625 61.078125 26.859375 
L 61.078125 0 
L 43.5 0 
L 43.5 28.515625 
Q 43.5 37.59375 41.9375 40.203125 
Q 40.375 42.828125 36.375 42.828125 
Q 31.34375 42.828125 28.609375 38.703125 
Q 25.875 34.578125 25.875 26.90625 
L 25.875 0 
L 8.296875 0 
L 8.296875 54.6875 
L 25.875 54.6875 
L 25.875 46.6875 
Q 29.109375 51.3125 33.28125 53.65625 
Q 37.453125 56 42.484375 56 
Q 48.140625 56 52.484375 53.265625 
Q 56.84375 50.53125 59.078125 45.609375 
z
" id="DejaVuSans-Bold-6d"/>
     <path d="M 49.03125 39.796875 
Q 46.734375 40.875 44.453125 41.375 
Q 42.1875 41.890625 39.890625 41.890625 
Q 33.15625 41.890625 29.515625 37.5625 
Q 25.875 33.25 25.875 25.203125 
L 25.875 0 
L 8.40625 0 
L 8.40625 54.6875 
L 25.875 54.6875 
L 25.875 45.703125 
Q 29.25 51.078125 33.609375 53.53125 
Q 37.984375 56 44.09375 56 
Q 44.96875 56 45.984375 55.921875 
Q 47.015625 55.859375 48.96875 55.609375 
z
" id="DejaVuSans-Bold-72"/>
    </defs>
    <g transform="translate(142.038264 78.188958)scale(0.16 -0.16)">
     <use xlink:href="#DejaVuSans-Bold-4d"/>
     <use x="99.511719" xlink:href="#DejaVuSans-Bold-65"/>
     <use x="167.333984" xlink:href="#DejaVuSans-Bold-6d"/>
     <use x="271.533203" xlink:href="#DejaVuSans-Bold-6f"/>
     <use x="340.234375" xlink:href="#DejaVuSans-Bold-72"/>
     <use x="389.550781" xlink:href="#DejaVuSans-Bold-79"/>
     <use x="454.736328" xlink:href="#DejaVuSans-Bold-47"/>
     <use x="536.816406" xlink:href="#DejaVuSans-Bold-6f"/>
    </g>
   </g>
   <g id="text_14">
    <g id="patch_10">
     <path d="M 138.777338 235.860836 
L 230.362338 235.860836 
L 230.362338 216.410836 
L 138.777338 216.410836 
z
" style="fill:#1f77b4;opacity:0.5;"/>
    </g>
    <!-- DelayAnti -->
    <defs>
     <path d="M 53.421875 13.28125 
L 24.03125 13.28125 
L 19.390625 0 
L 0.484375 0 
L 27.484375 72.90625 
L 49.90625 72.90625 
L 76.90625 0 
L 58.015625 0 
z
M 28.71875 26.8125 
L 48.6875 26.8125 
L 38.71875 55.8125 
z
" id="DejaVuSans-Bold-41"/>
     <path d="M 63.375 33.296875 
L 63.375 0 
L 45.796875 0 
L 45.796875 5.421875 
L 45.796875 25.484375 
Q 45.796875 32.5625 45.484375 35.25 
Q 45.171875 37.9375 44.390625 39.203125 
Q 43.359375 40.921875 41.59375 41.875 
Q 39.84375 42.828125 37.59375 42.828125 
Q 32.125 42.828125 29 38.59375 
Q 25.875 34.375 25.875 26.90625 
L 25.875 0 
L 8.40625 0 
L 8.40625 54.6875 
L 25.875 54.6875 
L 25.875 46.6875 
Q 29.828125 51.46875 34.265625 53.734375 
Q 38.71875 56 44.09375 56 
Q 53.5625 56 58.46875 50.1875 
Q 63.375 44.390625 63.375 33.296875 
z
" id="DejaVuSans-Bold-6e"/>
     <path d="M 8.40625 54.6875 
L 25.875 54.6875 
L 25.875 0 
L 8.40625 0 
z
M 8.40625 75.984375 
L 25.875 75.984375 
L 25.875 61.71875 
L 8.40625 61.71875 
z
" id="DejaVuSans-Bold-69"/>
    </defs>
    <g transform="translate(140.697338 230.488336)scale(0.16 -0.16)">
     <use xlink:href="#DejaVuSans-Bold-44"/>
     <use x="83.007812" xlink:href="#DejaVuSans-Bold-65"/>
     <use x="150.830078" xlink:href="#DejaVuSans-Bold-6c"/>
     <use x="185.107422" xlink:href="#DejaVuSans-Bold-61"/>
     <use x="252.541016" xlink:href="#DejaVuSans-Bold-79"/>
     <use x="317.726562" xlink:href="#DejaVuSans-Bold-41"/>
     <use x="395.119141" xlink:href="#DejaVuSans-Bold-6e"/>
     <use x="466.310547" xlink:href="#DejaVuSans-Bold-74"/>
     <use x="514.113281" xlink:href="#DejaVuSans-Bold-69"/>
    </g>
   </g>
   <g id="text_15">
    <g id="patch_11">
     <path d="M 148.318152 184.857057 
L 240.165652 184.857057 
L 240.165652 165.532057 
L 148.318152 165.532057 
z
" style="fill:#8c564b;opacity:0.5;"/>
    </g>
    <!-- ReactAnti -->
    <g transform="translate(150.238152 179.609557)scale(0.16 -0.16)">
     <use xlink:href="#DejaVuSans-Bold-52"/>
     <use x="77.001953" xlink:href="#DejaVuSans-Bold-65"/>
     <use x="144.824219" xlink:href="#DejaVuSans-Bold-61"/>
     <use x="212.304688" xlink:href="#DejaVuSans-Bold-63"/>
     <use x="271.582031" xlink:href="#DejaVuSans-Bold-74"/>
     <use x="319.384766" xlink:href="#DejaVuSans-Bold-41"/>
     <use x="396.777344" xlink:href="#DejaVuSans-Bold-6e"/>
     <use x="467.96875" xlink:href="#DejaVuSans-Bold-74"/>
     <use x="515.771484" xlink:href="#DejaVuSans-Bold-69"/>
    </g>
   </g>
   <g id="text_16">
    <g id="patch_12">
     <path d="M 151.62211 55.190636 
L 265.12711 55.190636 
L 265.12711 35.740636 
L 151.62211 35.740636 
z
" style="fill:#ff7f0e;opacity:0.5;"/>
    </g>
    <!-- MemoryAnti -->
    <g transform="translate(153.54211 49.818136)scale(0.16 -0.16)">
     <use xlink:href="#DejaVuSans-Bold-4d"/>
     <use x="99.511719" xlink:href="#DejaVuSans-Bold-65"/>
     <use x="167.333984" xlink:href="#DejaVuSans-Bold-6d"/>
     <use x="271.533203" xlink:href="#DejaVuSans-Bold-6f"/>
     <use x="340.234375" xlink:href="#DejaVuSans-Bold-72"/>
     <use x="389.550781" xlink:href="#DejaVuSans-Bold-79"/>
     <use x="454.736328" xlink:href="#DejaVuSans-Bold-41"/>
     <use x="532.128906" xlink:href="#DejaVuSans-Bold-6e"/>
     <use x="603.320312" xlink:href="#DejaVuSans-Bold-74"/>
     <use x="651.123047" xlink:href="#DejaVuSans-Bold-69"/>
    </g>
   </g>
   <g id="text_17">
    <g id="patch_13">
     <path d="M 162.750332 60.434706 
L 361.375332 60.434706 
L 361.375332 40.984706 
L 162.750332 40.984706 
z
" style="fill:#2ca02c;opacity:0.5;"/>
    </g>
    <!-- MemoryMatchSample -->
    <defs>
     <path d="M 63.375 33.296875 
L 63.375 0 
L 45.796875 0 
L 45.796875 5.421875 
L 45.796875 25.390625 
Q 45.796875 32.5625 45.484375 35.25 
Q 45.171875 37.9375 44.390625 39.203125 
Q 43.359375 40.921875 41.59375 41.875 
Q 39.84375 42.828125 37.59375 42.828125 
Q 32.125 42.828125 29 38.59375 
Q 25.875 34.375 25.875 26.90625 
L 25.875 0 
L 8.40625 0 
L 8.40625 75.984375 
L 25.875 75.984375 
L 25.875 46.6875 
Q 29.828125 51.46875 34.265625 53.734375 
Q 38.71875 56 44.09375 56 
Q 53.5625 56 58.46875 50.1875 
Q 63.375 44.390625 63.375 33.296875 
z
" id="DejaVuSans-Bold-68"/>
     <path d="M 59.90625 70.609375 
L 59.90625 55.171875 
Q 53.90625 57.859375 48.1875 59.21875 
Q 42.484375 60.59375 37.40625 60.59375 
Q 30.671875 60.59375 27.4375 58.734375 
Q 24.21875 56.890625 24.21875 52.984375 
Q 24.21875 50.046875 26.390625 48.40625 
Q 28.5625 46.78125 34.28125 45.609375 
L 42.28125 44 
Q 54.4375 41.546875 59.5625 36.5625 
Q 64.703125 31.59375 64.703125 22.40625 
Q 64.703125 10.359375 57.546875 4.46875 
Q 50.390625 -1.421875 35.6875 -1.421875 
Q 28.765625 -1.421875 21.78125 -0.09375 
Q 14.796875 1.21875 7.8125 3.8125 
L 7.8125 19.671875 
Q 14.796875 15.96875 21.3125 14.078125 
Q 27.828125 12.203125 33.890625 12.203125 
Q 40.046875 12.203125 43.3125 14.25 
Q 46.578125 16.3125 46.578125 20.125 
Q 46.578125 23.53125 44.359375 25.390625 
Q 42.140625 27.25 35.5 28.71875 
L 28.21875 30.328125 
Q 17.28125 32.671875 12.21875 37.796875 
Q 7.171875 42.921875 7.171875 51.609375 
Q 7.171875 62.5 14.203125 68.359375 
Q 21.234375 74.21875 34.421875 74.21875 
Q 40.4375 74.21875 46.78125 73.3125 
Q 53.125 72.40625 59.90625 70.609375 
z
" id="DejaVuSans-Bold-53"/>
     <path d="M 25.875 7.90625 
L 25.875 -20.796875 
L 8.40625 -20.796875 
L 8.40625 54.6875 
L 25.875 54.6875 
L 25.875 46.6875 
Q 29.5 51.46875 33.890625 53.734375 
Q 38.28125 56 44 56 
Q 54.109375 56 60.59375 47.96875 
Q 67.09375 39.9375 67.09375 27.296875 
Q 67.09375 14.65625 60.59375 6.609375 
Q 54.109375 -1.421875 44 -1.421875 
Q 38.28125 -1.421875 33.890625 0.84375 
Q 29.5 3.125 25.875 7.90625 
z
M 37.5 43.3125 
Q 31.890625 43.3125 28.875 39.1875 
Q 25.875 35.0625 25.875 27.296875 
Q 25.875 19.53125 28.875 15.40625 
Q 31.890625 11.28125 37.5 11.28125 
Q 43.109375 11.28125 46.0625 15.375 
Q 49.03125 19.484375 49.03125 27.296875 
Q 49.03125 35.109375 46.0625 39.203125 
Q 43.109375 43.3125 37.5 43.3125 
z
" id="DejaVuSans-Bold-70"/>
    </defs>
    <g transform="translate(164.670332 55.062206)scale(0.16 -0.16)">
     <use xlink:href="#DejaVuSans-Bold-4d"/>
     <use x="99.511719" xlink:href="#DejaVuSans-Bold-65"/>
     <use x="167.333984" xlink:href="#DejaVuSans-Bold-6d"/>
     <use x="271.533203" xlink:href="#DejaVuSans-Bold-6f"/>
     <use x="340.234375" xlink:href="#DejaVuSans-Bold-72"/>
     <use x="389.550781" xlink:href="#DejaVuSans-Bold-79"/>
     <use x="454.736328" xlink:href="#DejaVuSans-Bold-4d"/>
     <use x="554.248047" xlink:href="#DejaVuSans-Bold-61"/>
     <use x="621.728516" xlink:href="#DejaVuSans-Bold-74"/>
     <use x="669.53125" xlink:href="#DejaVuSans-Bold-63"/>
     <use x="728.808594" xlink:href="#DejaVuSans-Bold-68"/>
     <use x="800" xlink:href="#DejaVuSans-Bold-53"/>
     <use x="872.021484" xlink:href="#DejaVuSans-Bold-61"/>
     <use x="939.501953" xlink:href="#DejaVuSans-Bold-6d"/>
     <use x="1043.701172" xlink:href="#DejaVuSans-Bold-70"/>
     <use x="1115.283203" xlink:href="#DejaVuSans-Bold-6c"/>
     <use x="1149.560547" xlink:href="#DejaVuSans-Bold-65"/>
    </g>
   </g>
   <g id="text_18">
    <g id="patch_14">
     <path d="M 162.308962 55.817346 
L 407.761462 55.817346 
L 407.761462 36.367346 
L 162.308962 36.367346 
z
" style="fill:#2ca02c;opacity:0.5;"/>
    </g>
    <!-- MemoryMatchSampleNogo -->
    <defs>
     <path d="M 9.1875 72.90625 
L 30.171875 72.90625 
L 56.6875 22.90625 
L 56.6875 72.90625 
L 74.515625 72.90625 
L 74.515625 0 
L 53.515625 0 
L 27 50 
L 27 0 
L 9.1875 0 
z
" id="DejaVuSans-Bold-4e"/>
     <path d="M 45.609375 9.28125 
Q 42 4.5 37.640625 2.25 
Q 33.296875 0 27.59375 0 
Q 17.578125 0 11.03125 7.875 
Q 4.5 15.765625 4.5 27.984375 
Q 4.5 40.234375 11.03125 48.0625 
Q 17.578125 55.90625 27.59375 55.90625 
Q 33.296875 55.90625 37.640625 53.65625 
Q 42 51.421875 45.609375 46.578125 
L 45.609375 54.6875 
L 63.1875 54.6875 
L 63.1875 5.515625 
Q 63.1875 -7.671875 54.859375 -14.625 
Q 46.53125 -21.578125 30.71875 -21.578125 
Q 25.59375 -21.578125 20.796875 -20.796875 
Q 16.015625 -20.015625 11.1875 -18.40625 
L 11.1875 -4.78125 
Q 15.765625 -7.421875 20.15625 -8.71875 
Q 24.5625 -10.015625 29 -10.015625 
Q 37.59375 -10.015625 41.59375 -6.25 
Q 45.609375 -2.484375 45.609375 5.515625 
z
M 34.078125 43.3125 
Q 28.65625 43.3125 25.625 39.296875 
Q 22.609375 35.296875 22.609375 27.984375 
Q 22.609375 20.453125 25.53125 16.578125 
Q 28.46875 12.703125 34.078125 12.703125 
Q 39.546875 12.703125 42.578125 16.703125 
Q 45.609375 20.703125 45.609375 27.984375 
Q 45.609375 35.296875 42.578125 39.296875 
Q 39.546875 43.3125 34.078125 43.3125 
z
" id="DejaVuSans-Bold-67"/>
    </defs>
    <g transform="translate(164.228962 50.444846)scale(0.16 -0.16)">
     <use xlink:href="#DejaVuSans-Bold-4d"/>
     <use x="99.511719" xlink:href="#DejaVuSans-Bold-65"/>
     <use x="167.333984" xlink:href="#DejaVuSans-Bold-6d"/>
     <use x="271.533203" xlink:href="#DejaVuSans-Bold-6f"/>
     <use x="340.234375" xlink:href="#DejaVuSans-Bold-72"/>
     <use x="389.550781" xlink:href="#DejaVuSans-Bold-79"/>
     <use x="454.736328" xlink:href="#DejaVuSans-Bold-4d"/>
     <use x="554.248047" xlink:href="#DejaVuSans-Bold-61"/>
     <use x="621.728516" xlink:href="#DejaVuSans-Bold-74"/>
     <use x="669.53125" xlink:href="#DejaVuSans-Bold-63"/>
     <use x="728.808594" xlink:href="#DejaVuSans-Bold-68"/>
     <use x="800" xlink:href="#DejaVuSans-Bold-53"/>
     <use x="872.021484" xlink:href="#DejaVuSans-Bold-61"/>
     <use x="939.501953" xlink:href="#DejaVuSans-Bold-6d"/>
     <use x="1043.701172" xlink:href="#DejaVuSans-Bold-70"/>
     <use x="1115.283203" xlink:href="#DejaVuSans-Bold-6c"/>
     <use x="1149.560547" xlink:href="#DejaVuSans-Bold-65"/>
     <use x="1217.382812" xlink:href="#DejaVuSans-Bold-4e"/>
     <use x="1301.074219" xlink:href="#DejaVuSans-Bold-6f"/>
     <use x="1369.775391" xlink:href="#DejaVuSans-Bold-67"/>
     <use x="1441.357422" xlink:href="#DejaVuSans-Bold-6f"/>
    </g>
   </g>
   <g id="text_19">
    <g id="patch_15">
     <path d="M 244.574641 265.829627 
L 427.104641 265.829627 
L 427.104641 246.504627 
L 244.574641 246.504627 
z
" style="fill:#d62728;opacity:0.5;"/>
    </g>
    <!-- MemoryCategoryGo -->
    <defs>
     <path d="M 67 4 
Q 61.8125 1.3125 56.203125 -0.046875 
Q 50.59375 -1.421875 44.484375 -1.421875 
Q 26.265625 -1.421875 15.625 8.765625 
Q 4.984375 18.953125 4.984375 36.375 
Q 4.984375 53.859375 15.625 64.03125 
Q 26.265625 74.21875 44.484375 74.21875 
Q 50.59375 74.21875 56.203125 72.84375 
Q 61.8125 71.484375 67 68.796875 
L 67 53.71875 
Q 61.765625 57.28125 56.6875 58.9375 
Q 51.609375 60.59375 46 60.59375 
Q 35.9375 60.59375 30.171875 54.140625 
Q 24.421875 47.703125 24.421875 36.375 
Q 24.421875 25.09375 30.171875 18.640625 
Q 35.9375 12.203125 46 12.203125 
Q 51.609375 12.203125 56.6875 13.859375 
Q 61.765625 15.53125 67 19.09375 
z
" id="DejaVuSans-Bold-43"/>
    </defs>
    <g transform="translate(246.494641 260.457127)scale(0.16 -0.16)">
     <use xlink:href="#DejaVuSans-Bold-4d"/>
     <use x="99.511719" xlink:href="#DejaVuSans-Bold-65"/>
     <use x="167.333984" xlink:href="#DejaVuSans-Bold-6d"/>
     <use x="271.533203" xlink:href="#DejaVuSans-Bold-6f"/>
     <use x="340.234375" xlink:href="#DejaVuSans-Bold-72"/>
     <use x="389.550781" xlink:href="#DejaVuSans-Bold-79"/>
     <use x="454.736328" xlink:href="#DejaVuSans-Bold-43"/>
     <use x="528.125" xlink:href="#DejaVuSans-Bold-61"/>
     <use x="595.605469" xlink:href="#DejaVuSans-Bold-74"/>
     <use x="643.408203" xlink:href="#DejaVuSans-Bold-65"/>
     <use x="711.230469" xlink:href="#DejaVuSans-Bold-67"/>
     <use x="782.8125" xlink:href="#DejaVuSans-Bold-6f"/>
     <use x="851.513672" xlink:href="#DejaVuSans-Bold-72"/>
     <use x="900.830078" xlink:href="#DejaVuSans-Bold-79"/>
     <use x="966.015625" xlink:href="#DejaVuSans-Bold-47"/>
     <use x="1048.095703" xlink:href="#DejaVuSans-Bold-6f"/>
    </g>
   </g>
   <g id="text_20">
    <g id="patch_16">
     <path d="M 221.06206 285.474753 
L 427.97456 285.474753 
L 427.97456 266.149753 
L 221.06206 266.149753 
z
" style="fill:#d62728;opacity:0.5;"/>
    </g>
    <!-- MemoryCategoryNoGo -->
    <g transform="translate(222.98206 280.102253)scale(0.16 -0.16)">
     <use xlink:href="#DejaVuSans-Bold-4d"/>
     <use x="99.511719" xlink:href="#DejaVuSans-Bold-65"/>
     <use x="167.333984" xlink:href="#DejaVuSans-Bold-6d"/>
     <use x="271.533203" xlink:href="#DejaVuSans-Bold-6f"/>
     <use x="340.234375" xlink:href="#DejaVuSans-Bold-72"/>
     <use x="389.550781" xlink:href="#DejaVuSans-Bold-79"/>
     <use x="454.736328" xlink:href="#DejaVuSans-Bold-43"/>
     <use x="528.125" xlink:href="#DejaVuSans-Bold-61"/>
     <use x="595.605469" xlink:href="#DejaVuSans-Bold-74"/>
     <use x="643.408203" xlink:href="#DejaVuSans-Bold-65"/>
     <use x="711.230469" xlink:href="#DejaVuSans-Bold-67"/>
     <use x="782.8125" xlink:href="#DejaVuSans-Bold-6f"/>
     <use x="851.513672" xlink:href="#DejaVuSans-Bold-72"/>
     <use x="900.830078" xlink:href="#DejaVuSans-Bold-79"/>
     <use x="966.015625" xlink:href="#DejaVuSans-Bold-4e"/>
     <use x="1049.707031" xlink:href="#DejaVuSans-Bold-6f"/>
     <use x="1118.408203" xlink:href="#DejaVuSans-Bold-47"/>
     <use x="1200.488281" xlink:href="#DejaVuSans-Bold-6f"/>
    </g>
   </g>
  </g>
  <g id="axes_2">
   <g id="patch_17">
    <path d="M 527.50675 300.75 
L 790.38775 300.75 
L 790.38775 37.869 
L 527.50675 37.869 
z
" style="fill:#ffffff;"/>
   </g>
   <g id="matplotlib.axis_3">
    <g id="xtick_4">
     <g id="line2d_21">
      <g>
       <use style="stroke:#000000;stroke-width:0.8;" x="528.954449" xlink:href="#mab9c68dc8b" y="300.75"/>
      </g>
     </g>
     <g id="text_21">
      <!-- −0.3 -->
      <g transform="translate(509.528199 319.9075)scale(0.16 -0.16)">
       <use xlink:href="#DejaVuSans-2212"/>
       <use x="83.789062" xlink:href="#DejaVuSans-30"/>
       <use x="147.412109" xlink:href="#DejaVuSans-2e"/>
       <use x="179.199219" xlink:href="#DejaVuSans-33"/>
      </g>
     </g>
    </g>
    <g id="xtick_5">
     <g id="line2d_22">
      <g>
       <use style="stroke:#000000;stroke-width:0.8;" x="587.347405" xlink:href="#mab9c68dc8b" y="300.75"/>
      </g>
     </g>
     <g id="text_22">
      <!-- −0.2 -->
      <g transform="translate(567.921155 319.9075)scale(0.16 -0.16)">
       <use xlink:href="#DejaVuSans-2212"/>
       <use x="83.789062" xlink:href="#DejaVuSans-30"/>
       <use x="147.412109" xlink:href="#DejaVuSans-2e"/>
       <use x="179.199219" xlink:href="#DejaVuSans-32"/>
      </g>
     </g>
    </g>
    <g id="xtick_6">
     <g id="line2d_23">
      <g>
       <use style="stroke:#000000;stroke-width:0.8;" x="645.740361" xlink:href="#mab9c68dc8b" y="300.75"/>
      </g>
     </g>
     <g id="text_23">
      <!-- −0.1 -->
      <g transform="translate(626.314111 319.9075)scale(0.16 -0.16)">
       <use xlink:href="#DejaVuSans-2212"/>
       <use x="83.789062" xlink:href="#DejaVuSans-30"/>
       <use x="147.412109" xlink:href="#DejaVuSans-2e"/>
       <use x="179.199219" xlink:href="#DejaVuSans-31"/>
      </g>
     </g>
    </g>
    <g id="xtick_7">
     <g id="line2d_24">
      <g>
       <use style="stroke:#000000;stroke-width:0.8;" x="704.133317" xlink:href="#mab9c68dc8b" y="300.75"/>
      </g>
     </g>
     <g id="text_24">
      <!-- 0.0 -->
      <g transform="translate(691.410817 319.9075)scale(0.16 -0.16)">
       <use xlink:href="#DejaVuSans-30"/>
       <use x="63.623047" xlink:href="#DejaVuSans-2e"/>
       <use x="95.410156" xlink:href="#DejaVuSans-30"/>
      </g>
     </g>
    </g>
    <g id="xtick_8">
     <g id="line2d_25">
      <g>
       <use style="stroke:#000000;stroke-width:0.8;" x="762.526273" xlink:href="#mab9c68dc8b" y="300.75"/>
      </g>
     </g>
     <g id="text_25">
      <!-- 0.1 -->
      <g transform="translate(749.803773 319.9075)scale(0.16 -0.16)">
       <use xlink:href="#DejaVuSans-30"/>
       <use x="63.623047" xlink:href="#DejaVuSans-2e"/>
       <use x="95.410156" xlink:href="#DejaVuSans-31"/>
      </g>
     </g>
    </g>
   </g>
   <g id="matplotlib.axis_4">
    <g id="ytick_8">
     <g id="line2d_26">
      <g>
       <use style="stroke:#000000;stroke-width:0.8;" x="527.50675" xlink:href="#m06f4aec977" y="271.546171"/>
      </g>
     </g>
     <g id="text_26">
      <!-- −0.1 -->
      <g transform="translate(481.65425 277.624921)scale(0.16 -0.16)">
       <use xlink:href="#DejaVuSans-2212"/>
       <use x="83.789062" xlink:href="#DejaVuSans-30"/>
       <use x="147.412109" xlink:href="#DejaVuSans-2e"/>
       <use x="179.199219" xlink:href="#DejaVuSans-31"/>
      </g>
     </g>
    </g>
    <g id="ytick_9">
     <g id="line2d_27">
      <g>
       <use style="stroke:#000000;stroke-width:0.8;" x="527.50675" xlink:href="#m06f4aec977" y="213.153215"/>
      </g>
     </g>
     <g id="text_27">
      <!-- 0.0 -->
      <g transform="translate(495.06175 219.231965)scale(0.16 -0.16)">
       <use xlink:href="#DejaVuSans-30"/>
       <use x="63.623047" xlink:href="#DejaVuSans-2e"/>
       <use x="95.410156" xlink:href="#DejaVuSans-30"/>
      </g>
     </g>
    </g>
    <g id="ytick_10">
     <g id="line2d_28">
      <g>
       <use style="stroke:#000000;stroke-width:0.8;" x="527.50675" xlink:href="#m06f4aec977" y="154.760259"/>
      </g>
     </g>
     <g id="text_28">
      <!-- 0.1 -->
      <g transform="translate(495.06175 160.839009)scale(0.16 -0.16)">
       <use xlink:href="#DejaVuSans-30"/>
       <use x="63.623047" xlink:href="#DejaVuSans-2e"/>
       <use x="95.410156" xlink:href="#DejaVuSans-31"/>
      </g>
     </g>
    </g>
    <g id="ytick_11">
     <g id="line2d_29">
      <g>
       <use style="stroke:#000000;stroke-width:0.8;" x="527.50675" xlink:href="#m06f4aec977" y="96.367304"/>
      </g>
     </g>
     <g id="text_29">
      <!-- 0.2 -->
      <g transform="translate(495.06175 102.446054)scale(0.16 -0.16)">
       <use xlink:href="#DejaVuSans-30"/>
       <use x="63.623047" xlink:href="#DejaVuSans-2e"/>
       <use x="95.410156" xlink:href="#DejaVuSans-32"/>
      </g>
     </g>
    </g>
    <g id="ytick_12">
     <g id="line2d_30">
      <g>
       <use style="stroke:#000000;stroke-width:0.8;" x="527.50675" xlink:href="#m06f4aec977" y="37.974348"/>
      </g>
     </g>
     <g id="text_30">
      <!-- 0.3 -->
      <g transform="translate(495.06175 44.053098)scale(0.16 -0.16)">
       <use xlink:href="#DejaVuSans-30"/>
       <use x="63.623047" xlink:href="#DejaVuSans-2e"/>
       <use x="95.410156" xlink:href="#DejaVuSans-33"/>
      </g>
     </g>
    </g>
   </g>
   <g id="line2d_31">
    <g clip-path="url(#p32cc0b976c)">
     <use style="fill:#1f77b4;stroke:#1f77b4;" x="741.778229" xlink:href="#m2b52d85189" y="272.847076"/>
    </g>
   </g>
   <g id="line2d_32">
    <g clip-path="url(#p32cc0b976c)">
     <use style="fill:#8c564b;stroke:#8c564b;" x="539.455886" xlink:href="#m4b44fb226d" y="135.689102"/>
    </g>
   </g>
   <g id="line2d_33">
    <g clip-path="url(#p32cc0b976c)">
     <use style="fill:#ff7f0e;stroke:#ff7f0e;" x="742.323749" xlink:href="#m94516ee8bc" y="284.544056"/>
    </g>
   </g>
   <g id="line2d_34">
    <g clip-path="url(#p32cc0b976c)">
     <use style="fill:#1f77b4;stroke:#1f77b4;" x="778.438614" xlink:href="#m2b52d85189" y="114.552809"/>
    </g>
   </g>
   <g id="line2d_35">
    <g clip-path="url(#p32cc0b976c)">
     <use style="fill:#8c564b;stroke:#8c564b;" x="555.517358" xlink:href="#m4b44fb226d" y="150.400583"/>
    </g>
   </g>
   <g id="line2d_36">
    <g clip-path="url(#p32cc0b976c)">
     <use style="fill:#ff7f0e;stroke:#ff7f0e;" x="771.298282" xlink:href="#m94516ee8bc" y="286.279453"/>
    </g>
   </g>
   <g id="line2d_37">
    <g clip-path="url(#p32cc0b976c)">
     <use style="fill:#2ca02c;stroke:#2ca02c;" x="747.145196" xlink:href="#m16ac5e111a" y="288.627946"/>
    </g>
   </g>
   <g id="line2d_38">
    <g clip-path="url(#p32cc0b976c)">
     <use style="fill:#2ca02c;stroke:#2ca02c;" x="765.541708" xlink:href="#m16ac5e111a" y="291.883467"/>
    </g>
   </g>
   <g id="line2d_39">
    <g clip-path="url(#p32cc0b976c)">
     <use style="fill:#d62728;stroke:#d62728;" x="708.864848" xlink:href="#me5db7534fe" y="167.187718"/>
    </g>
   </g>
   <g id="line2d_40">
    <g clip-path="url(#p32cc0b976c)">
     <use style="fill:#d62728;stroke:#d62728;" x="690.969296" xlink:href="#me5db7534fe" y="139.519941"/>
    </g>
   </g>
   <g id="patch_18">
    <path d="M 527.50675 300.75 
L 527.50675 37.869 
" style="fill:none;stroke:#000000;stroke-linecap:square;stroke-linejoin:miter;stroke-width:0.8;"/>
   </g>
   <g id="patch_19">
    <path d="M 790.38775 300.75 
L 790.38775 37.869 
" style="fill:none;stroke:#000000;stroke-linecap:square;stroke-linejoin:miter;stroke-width:0.8;"/>
   </g>
   <g id="patch_20">
    <path d="M 527.50675 300.75 
L 790.38775 300.75 
" style="fill:none;stroke:#000000;stroke-linecap:square;stroke-linejoin:miter;stroke-width:0.8;"/>
   </g>
   <g id="patch_21">
    <path d="M 527.50675 37.869 
L 790.38775 37.869 
" style="fill:none;stroke:#000000;stroke-linecap:square;stroke-linejoin:miter;stroke-width:0.8;"/>
   </g>
   <g id="text_31">
    <g id="patch_22">
     <path d="M 739.858229 278.219576 
L 818.663229 278.219576 
L 818.663229 258.769576 
L 739.858229 258.769576 
z
" style="fill:#1f77b4;opacity:0.5;"/>
    </g>
    <!-- DelayGo -->
    <g transform="translate(741.778229 272.847076)scale(0.16 -0.16)">
     <use xlink:href="#DejaVuSans-Bold-44"/>
     <use x="83.007812" xlink:href="#DejaVuSans-Bold-65"/>
     <use x="150.830078" xlink:href="#DejaVuSans-Bold-6c"/>
     <use x="185.107422" xlink:href="#DejaVuSans-Bold-61"/>
     <use x="252.541016" xlink:href="#DejaVuSans-Bold-79"/>
     <use x="317.726562" xlink:href="#DejaVuSans-Bold-47"/>
     <use x="399.806641" xlink:href="#DejaVuSans-Bold-6f"/>
    </g>
   </g>
   <g id="text_32">
    <g id="patch_23">
     <path d="M 537.535886 140.936602 
L 616.603386 140.936602 
L 616.603386 121.611602 
L 537.535886 121.611602 
z
" style="fill:#8c564b;opacity:0.5;"/>
    </g>
    <!-- ReactGo -->
    <g transform="translate(539.455886 135.689102)scale(0.16 -0.16)">
     <use xlink:href="#DejaVuSans-Bold-52"/>
     <use x="77.001953" xlink:href="#DejaVuSans-Bold-65"/>
     <use x="144.824219" xlink:href="#DejaVuSans-Bold-61"/>
     <use x="212.304688" xlink:href="#DejaVuSans-Bold-63"/>
     <use x="271.582031" xlink:href="#DejaVuSans-Bold-74"/>
     <use x="319.384766" xlink:href="#DejaVuSans-Bold-47"/>
     <use x="401.464844" xlink:href="#DejaVuSans-Bold-6f"/>
    </g>
   </g>
   <g id="text_33">
    <g id="patch_24">
     <path d="M 740.403749 289.916556 
L 841.128749 289.916556 
L 841.128749 270.591556 
L 740.403749 270.591556 
z
" style="fill:#ff7f0e;opacity:0.5;"/>
    </g>
    <!-- MemoryGo -->
    <g transform="translate(742.323749 284.544056)scale(0.16 -0.16)">
     <use xlink:href="#DejaVuSans-Bold-4d"/>
     <use x="99.511719" xlink:href="#DejaVuSans-Bold-65"/>
     <use x="167.333984" xlink:href="#DejaVuSans-Bold-6d"/>
     <use x="271.533203" xlink:href="#DejaVuSans-Bold-6f"/>
     <use x="340.234375" xlink:href="#DejaVuSans-Bold-72"/>
     <use x="389.550781" xlink:href="#DejaVuSans-Bold-79"/>
     <use x="454.736328" xlink:href="#DejaVuSans-Bold-47"/>
     <use x="536.816406" xlink:href="#DejaVuSans-Bold-6f"/>
    </g>
   </g>
   <g id="text_34">
    <g id="patch_25">
     <path d="M 776.518614 119.925309 
L 868.103614 119.925309 
L 868.103614 100.475309 
L 776.518614 100.475309 
z
" style="fill:#1f77b4;opacity:0.5;"/>
    </g>
    <!-- DelayAnti -->
    <g transform="translate(778.438614 114.552809)scale(0.16 -0.16)">
     <use xlink:href="#DejaVuSans-Bold-44"/>
     <use x="83.007812" xlink:href="#DejaVuSans-Bold-65"/>
     <use x="150.830078" xlink:href="#DejaVuSans-Bold-6c"/>
     <use x="185.107422" xlink:href="#DejaVuSans-Bold-61"/>
     <use x="252.541016" xlink:href="#DejaVuSans-Bold-79"/>
     <use x="317.726562" xlink:href="#DejaVuSans-Bold-41"/>
     <use x="395.119141" xlink:href="#DejaVuSans-Bold-6e"/>
     <use x="466.310547" xlink:href="#DejaVuSans-Bold-74"/>
     <use x="514.113281" xlink:href="#DejaVuSans-Bold-69"/>
    </g>
   </g>
   <g id="text_35">
    <g id="patch_26">
     <path d="M 553.597358 155.648083 
L 645.444858 155.648083 
L 645.444858 136.323083 
L 553.597358 136.323083 
z
" style="fill:#8c564b;opacity:0.5;"/>
    </g>
    <!-- ReactAnti -->
    <g transform="translate(555.517358 150.400583)scale(0.16 -0.16)">
     <use xlink:href="#DejaVuSans-Bold-52"/>
     <use x="77.001953" xlink:href="#DejaVuSans-Bold-65"/>
     <use x="144.824219" xlink:href="#DejaVuSans-Bold-61"/>
     <use x="212.304688" xlink:href="#DejaVuSans-Bold-63"/>
     <use x="271.582031" xlink:href="#DejaVuSans-Bold-74"/>
     <use x="319.384766" xlink:href="#DejaVuSans-Bold-41"/>
     <use x="396.777344" xlink:href="#DejaVuSans-Bold-6e"/>
     <use x="467.96875" xlink:href="#DejaVuSans-Bold-74"/>
     <use x="515.771484" xlink:href="#DejaVuSans-Bold-69"/>
    </g>
   </g>
   <g id="text_36">
    <g id="patch_27">
     <path d="M 769.378282 291.651953 
L 882.883282 291.651953 
L 882.883282 272.201953 
L 769.378282 272.201953 
z
" style="fill:#ff7f0e;opacity:0.5;"/>
    </g>
    <!-- MemoryAnti -->
    <g transform="translate(771.298282 286.279453)scale(0.16 -0.16)">
     <use xlink:href="#DejaVuSans-Bold-4d"/>
     <use x="99.511719" xlink:href="#DejaVuSans-Bold-65"/>
     <use x="167.333984" xlink:href="#DejaVuSans-Bold-6d"/>
     <use x="271.533203" xlink:href="#DejaVuSans-Bold-6f"/>
     <use x="340.234375" xlink:href="#DejaVuSans-Bold-72"/>
     <use x="389.550781" xlink:href="#DejaVuSans-Bold-79"/>
     <use x="454.736328" xlink:href="#DejaVuSans-Bold-41"/>
     <use x="532.128906" xlink:href="#DejaVuSans-Bold-6e"/>
     <use x="603.320312" xlink:href="#DejaVuSans-Bold-74"/>
     <use x="651.123047" xlink:href="#DejaVuSans-Bold-69"/>
    </g>
   </g>
   <g id="text_37">
    <g id="patch_28">
     <path d="M 745.225196 294.000446 
L 943.850196 294.000446 
L 943.850196 274.550446 
L 745.225196 274.550446 
z
" style="fill:#2ca02c;opacity:0.5;"/>
    </g>
    <!-- MemoryMatchSample -->
    <g transform="translate(747.145196 288.627946)scale(0.16 -0.16)">
     <use xlink:href="#DejaVuSans-Bold-4d"/>
     <use x="99.511719" xlink:href="#DejaVuSans-Bold-65"/>
     <use x="167.333984" xlink:href="#DejaVuSans-Bold-6d"/>
     <use x="271.533203" xlink:href="#DejaVuSans-Bold-6f"/>
     <use x="340.234375" xlink:href="#DejaVuSans-Bold-72"/>
     <use x="389.550781" xlink:href="#DejaVuSans-Bold-79"/>
     <use x="454.736328" xlink:href="#DejaVuSans-Bold-4d"/>
     <use x="554.248047" xlink:href="#DejaVuSans-Bold-61"/>
     <use x="621.728516" xlink:href="#DejaVuSans-Bold-74"/>
     <use x="669.53125" xlink:href="#DejaVuSans-Bold-63"/>
     <use x="728.808594" xlink:href="#DejaVuSans-Bold-68"/>
     <use x="800" xlink:href="#DejaVuSans-Bold-53"/>
     <use x="872.021484" xlink:href="#DejaVuSans-Bold-61"/>
     <use x="939.501953" xlink:href="#DejaVuSans-Bold-6d"/>
     <use x="1043.701172" xlink:href="#DejaVuSans-Bold-70"/>
     <use x="1115.283203" xlink:href="#DejaVuSans-Bold-6c"/>
     <use x="1149.560547" xlink:href="#DejaVuSans-Bold-65"/>
    </g>
   </g>
   <g id="text_38">
    <g id="patch_29">
     <path d="M 763.621708 297.255967 
L 1009.074208 297.255967 
L 1009.074208 277.805967 
L 763.621708 277.805967 
z
" style="fill:#2ca02c;opacity:0.5;"/>
    </g>
    <!-- MemoryMatchSampleNogo -->
    <g transform="translate(765.541708 291.883467)scale(0.16 -0.16)">
     <use xlink:href="#DejaVuSans-Bold-4d"/>
     <use x="99.511719" xlink:href="#DejaVuSans-Bold-65"/>
     <use x="167.333984" xlink:href="#DejaVuSans-Bold-6d"/>
     <use x="271.533203" xlink:href="#DejaVuSans-Bold-6f"/>
     <use x="340.234375" xlink:href="#DejaVuSans-Bold-72"/>
     <use x="389.550781" xlink:href="#DejaVuSans-Bold-79"/>
     <use x="454.736328" xlink:href="#DejaVuSans-Bold-4d"/>
     <use x="554.248047" xlink:href="#DejaVuSans-Bold-61"/>
     <use x="621.728516" xlink:href="#DejaVuSans-Bold-74"/>
     <use x="669.53125" xlink:href="#DejaVuSans-Bold-63"/>
     <use x="728.808594" xlink:href="#DejaVuSans-Bold-68"/>
     <use x="800" xlink:href="#DejaVuSans-Bold-53"/>
     <use x="872.021484" xlink:href="#DejaVuSans-Bold-61"/>
     <use x="939.501953" xlink:href="#DejaVuSans-Bold-6d"/>
     <use x="1043.701172" xlink:href="#DejaVuSans-Bold-70"/>
     <use x="1115.283203" xlink:href="#DejaVuSans-Bold-6c"/>
     <use x="1149.560547" xlink:href="#DejaVuSans-Bold-65"/>
     <use x="1217.382812" xlink:href="#DejaVuSans-Bold-4e"/>
     <use x="1301.074219" xlink:href="#DejaVuSans-Bold-6f"/>
     <use x="1369.775391" xlink:href="#DejaVuSans-Bold-67"/>
     <use x="1441.357422" xlink:href="#DejaVuSans-Bold-6f"/>
    </g>
   </g>
   <g id="text_39">
    <g id="patch_30">
     <path d="M 706.944848 172.560218 
L 889.474848 172.560218 
L 889.474848 153.235218 
L 706.944848 153.235218 
z
" style="fill:#d62728;opacity:0.5;"/>
    </g>
    <!-- MemoryCategoryGo -->
    <g transform="translate(708.864848 167.187718)scale(0.16 -0.16)">
     <use xlink:href="#DejaVuSans-Bold-4d"/>
     <use x="99.511719" xlink:href="#DejaVuSans-Bold-65"/>
     <use x="167.333984" xlink:href="#DejaVuSans-Bold-6d"/>
     <use x="271.533203" xlink:href="#DejaVuSans-Bold-6f"/>
     <use x="340.234375" xlink:href="#DejaVuSans-Bold-72"/>
     <use x="389.550781" xlink:href="#DejaVuSans-Bold-79"/>
     <use x="454.736328" xlink:href="#DejaVuSans-Bold-43"/>
     <use x="528.125" xlink:href="#DejaVuSans-Bold-61"/>
     <use x="595.605469" xlink:href="#DejaVuSans-Bold-74"/>
     <use x="643.408203" xlink:href="#DejaVuSans-Bold-65"/>
     <use x="711.230469" xlink:href="#DejaVuSans-Bold-67"/>
     <use x="782.8125" xlink:href="#DejaVuSans-Bold-6f"/>
     <use x="851.513672" xlink:href="#DejaVuSans-Bold-72"/>
     <use x="900.830078" xlink:href="#DejaVuSans-Bold-79"/>
     <use x="966.015625" xlink:href="#DejaVuSans-Bold-47"/>
     <use x="1048.095703" xlink:href="#DejaVuSans-Bold-6f"/>
    </g>
   </g>
   <g id="text_40">
    <g id="patch_31">
     <path d="M 689.049296 144.892441 
L 895.961796 144.892441 
L 895.961796 125.567441 
L 689.049296 125.567441 
z
" style="fill:#d62728;opacity:0.5;"/>
    </g>
    <!-- MemoryCategoryNoGo -->
    <g transform="translate(690.969296 139.519941)scale(0.16 -0.16)">
     <use xlink:href="#DejaVuSans-Bold-4d"/>
     <use x="99.511719" xlink:href="#DejaVuSans-Bold-65"/>
     <use x="167.333984" xlink:href="#DejaVuSans-Bold-6d"/>
     <use x="271.533203" xlink:href="#DejaVuSans-Bold-6f"/>
     <use x="340.234375" xlink:href="#DejaVuSans-Bold-72"/>
     <use x="389.550781" xlink:href="#DejaVuSans-Bold-79"/>
     <use x="454.736328" xlink:href="#DejaVuSans-Bold-43"/>
     <use x="528.125" xlink:href="#DejaVuSans-Bold-61"/>
     <use x="595.605469" xlink:href="#DejaVuSans-Bold-74"/>
     <use x="643.408203" xlink:href="#DejaVuSans-Bold-65"/>
     <use x="711.230469" xlink:href="#DejaVuSans-Bold-67"/>
     <use x="782.8125" xlink:href="#DejaVuSans-Bold-6f"/>
     <use x="851.513672" xlink:href="#DejaVuSans-Bold-72"/>
     <use x="900.830078" xlink:href="#DejaVuSans-Bold-79"/>
     <use x="966.015625" xlink:href="#DejaVuSans-Bold-4e"/>
     <use x="1049.707031" xlink:href="#DejaVuSans-Bold-6f"/>
     <use x="1118.408203" xlink:href="#DejaVuSans-Bold-47"/>
     <use x="1200.488281" xlink:href="#DejaVuSans-Bold-6f"/>
    </g>
   </g>
  </g>
  <g id="axes_3">
   <g id="patch_32">
    <path d="M 953.422417 300.75 
L 1216.303417 300.75 
L 1216.303417 37.869 
L 953.422417 37.869 
z
" style="fill:#ffffff;"/>
   </g>
   <g id="matplotlib.axis_5">
    <g id="xtick_9">
     <g id="line2d_41">
      <g>
       <use style="stroke:#000000;stroke-width:0.8;" x="1000.754128" xlink:href="#mab9c68dc8b" y="300.75"/>
      </g>
     </g>
     <g id="text_41">
      <!-- −0.2 -->
      <g transform="translate(981.327878 319.9075)scale(0.16 -0.16)">
       <use xlink:href="#DejaVuSans-2212"/>
       <use x="83.789062" xlink:href="#DejaVuSans-30"/>
       <use x="147.412109" xlink:href="#DejaVuSans-2e"/>
       <use x="179.199219" xlink:href="#DejaVuSans-32"/>
      </g>
     </g>
    </g>
    <g id="xtick_10">
     <g id="line2d_42">
      <g>
       <use style="stroke:#000000;stroke-width:0.8;" x="1077.08916" xlink:href="#mab9c68dc8b" y="300.75"/>
      </g>
     </g>
     <g id="text_42">
      <!-- 0.0 -->
      <g transform="translate(1064.36666 319.9075)scale(0.16 -0.16)">
       <use xlink:href="#DejaVuSans-30"/>
       <use x="63.623047" xlink:href="#DejaVuSans-2e"/>
       <use x="95.410156" xlink:href="#DejaVuSans-30"/>
      </g>
     </g>
    </g>
    <g id="xtick_11">
     <g id="line2d_43">
      <g>
       <use style="stroke:#000000;stroke-width:0.8;" x="1153.424192" xlink:href="#mab9c68dc8b" y="300.75"/>
      </g>
     </g>
     <g id="text_43">
      <!-- 0.2 -->
      <g transform="translate(1140.701692 319.9075)scale(0.16 -0.16)">
       <use xlink:href="#DejaVuSans-30"/>
       <use x="63.623047" xlink:href="#DejaVuSans-2e"/>
       <use x="95.410156" xlink:href="#DejaVuSans-32"/>
      </g>
     </g>
    </g>
    <g id="text_44">
     <!-- MDS1 -->
     <defs>
      <path d="M 9.8125 72.90625 
L 24.515625 72.90625 
L 43.109375 23.296875 
L 61.8125 72.90625 
L 76.515625 72.90625 
L 76.515625 0 
L 66.890625 0 
L 66.890625 64.015625 
L 48.09375 14.015625 
L 38.1875 14.015625 
L 19.390625 64.015625 
L 19.390625 0 
L 9.8125 0 
z
" id="DejaVuSans-4d"/>
      <path d="M 19.671875 64.796875 
L 19.671875 8.109375 
L 31.59375 8.109375 
Q 46.6875 8.109375 53.6875 14.9375 
Q 60.6875 21.78125 60.6875 36.53125 
Q 60.6875 51.171875 53.6875 57.984375 
Q 46.6875 64.796875 31.59375 64.796875 
z
M 9.8125 72.90625 
L 30.078125 72.90625 
Q 51.265625 72.90625 61.171875 64.09375 
Q 71.09375 55.28125 71.09375 36.53125 
Q 71.09375 17.671875 61.125 8.828125 
Q 51.171875 0 30.078125 0 
L 9.8125 0 
z
" id="DejaVuSans-44"/>
      <path d="M 53.515625 70.515625 
L 53.515625 60.890625 
Q 47.90625 63.578125 42.921875 64.890625 
Q 37.9375 66.21875 33.296875 66.21875 
Q 25.25 66.21875 20.875 63.09375 
Q 16.5 59.96875 16.5 54.203125 
Q 16.5 49.359375 19.40625 46.890625 
Q 22.3125 44.4375 30.421875 42.921875 
L 36.375 41.703125 
Q 47.40625 39.59375 52.65625 34.296875 
Q 57.90625 29 57.90625 20.125 
Q 57.90625 9.515625 50.796875 4.046875 
Q 43.703125 -1.421875 29.984375 -1.421875 
Q 24.8125 -1.421875 18.96875 -0.25 
Q 13.140625 0.921875 6.890625 3.21875 
L 6.890625 13.375 
Q 12.890625 10.015625 18.65625 8.296875 
Q 24.421875 6.59375 29.984375 6.59375 
Q 38.421875 6.59375 43.015625 9.90625 
Q 47.609375 13.234375 47.609375 19.390625 
Q 47.609375 24.75 44.3125 27.78125 
Q 41.015625 30.8125 33.5 32.328125 
L 27.484375 33.5 
Q 16.453125 35.6875 11.515625 40.375 
Q 6.59375 45.0625 6.59375 53.421875 
Q 6.59375 63.09375 13.40625 68.65625 
Q 20.21875 74.21875 32.171875 74.21875 
Q 37.3125 74.21875 42.625 73.28125 
Q 47.953125 72.359375 53.515625 70.515625 
z
" id="DejaVuSans-53"/>
     </defs>
     <g transform="translate(1061.631667 339.3925)scale(0.16 -0.16)">
      <use xlink:href="#DejaVuSans-4d"/>
      <use x="86.279297" xlink:href="#DejaVuSans-44"/>
      <use x="163.28125" xlink:href="#DejaVuSans-53"/>
      <use x="226.757812" xlink:href="#DejaVuSans-31"/>
     </g>
    </g>
   </g>
   <g id="matplotlib.axis_6">
    <g id="ytick_13">
     <g id="line2d_44">
      <g>
       <use style="stroke:#000000;stroke-width:0.8;" x="953.422417" xlink:href="#m06f4aec977" y="295.397131"/>
      </g>
     </g>
     <g id="text_45">
      <!-- −0.3 -->
      <g transform="translate(907.569917 301.475881)scale(0.16 -0.16)">
       <use xlink:href="#DejaVuSans-2212"/>
       <use x="83.789062" xlink:href="#DejaVuSans-30"/>
       <use x="147.412109" xlink:href="#DejaVuSans-2e"/>
       <use x="179.199219" xlink:href="#DejaVuSans-33"/>
      </g>
     </g>
    </g>
    <g id="ytick_14">
     <g id="line2d_45">
      <g>
       <use style="stroke:#000000;stroke-width:0.8;" x="953.422417" xlink:href="#m06f4aec977" y="257.229615"/>
      </g>
     </g>
     <g id="text_46">
      <!-- −0.2 -->
      <g transform="translate(907.569917 263.308365)scale(0.16 -0.16)">
       <use xlink:href="#DejaVuSans-2212"/>
       <use x="83.789062" xlink:href="#DejaVuSans-30"/>
       <use x="147.412109" xlink:href="#DejaVuSans-2e"/>
       <use x="179.199219" xlink:href="#DejaVuSans-32"/>
      </g>
     </g>
    </g>
    <g id="ytick_15">
     <g id="line2d_46">
      <g>
       <use style="stroke:#000000;stroke-width:0.8;" x="953.422417" xlink:href="#m06f4aec977" y="219.062099"/>
      </g>
     </g>
     <g id="text_47">
      <!-- −0.1 -->
      <g transform="translate(907.569917 225.140849)scale(0.16 -0.16)">
       <use xlink:href="#DejaVuSans-2212"/>
       <use x="83.789062" xlink:href="#DejaVuSans-30"/>
       <use x="147.412109" xlink:href="#DejaVuSans-2e"/>
       <use x="179.199219" xlink:href="#DejaVuSans-31"/>
      </g>
     </g>
    </g>
    <g id="ytick_16">
     <g id="line2d_47">
      <g>
       <use style="stroke:#000000;stroke-width:0.8;" x="953.422417" xlink:href="#m06f4aec977" y="180.894583"/>
      </g>
     </g>
     <g id="text_48">
      <!-- 0.0 -->
      <g transform="translate(920.977417 186.973333)scale(0.16 -0.16)">
       <use xlink:href="#DejaVuSans-30"/>
       <use x="63.623047" xlink:href="#DejaVuSans-2e"/>
       <use x="95.410156" xlink:href="#DejaVuSans-30"/>
      </g>
     </g>
    </g>
    <g id="ytick_17">
     <g id="line2d_48">
      <g>
       <use style="stroke:#000000;stroke-width:0.8;" x="953.422417" xlink:href="#m06f4aec977" y="142.727067"/>
      </g>
     </g>
     <g id="text_49">
      <!-- 0.1 -->
      <g transform="translate(920.977417 148.805817)scale(0.16 -0.16)">
       <use xlink:href="#DejaVuSans-30"/>
       <use x="63.623047" xlink:href="#DejaVuSans-2e"/>
       <use x="95.410156" xlink:href="#DejaVuSans-31"/>
      </g>
     </g>
    </g>
    <g id="ytick_18">
     <g id="line2d_49">
      <g>
       <use style="stroke:#000000;stroke-width:0.8;" x="953.422417" xlink:href="#m06f4aec977" y="104.559551"/>
      </g>
     </g>
     <g id="text_50">
      <!-- 0.2 -->
      <g transform="translate(920.977417 110.638301)scale(0.16 -0.16)">
       <use xlink:href="#DejaVuSans-30"/>
       <use x="63.623047" xlink:href="#DejaVuSans-2e"/>
       <use x="95.410156" xlink:href="#DejaVuSans-32"/>
      </g>
     </g>
    </g>
    <g id="ytick_19">
     <g id="line2d_50">
      <g>
       <use style="stroke:#000000;stroke-width:0.8;" x="953.422417" xlink:href="#m06f4aec977" y="66.392035"/>
      </g>
     </g>
     <g id="text_51">
      <!-- 0.3 -->
      <g transform="translate(920.977417 72.470785)scale(0.16 -0.16)">
       <use xlink:href="#DejaVuSans-30"/>
       <use x="63.623047" xlink:href="#DejaVuSans-2e"/>
       <use x="95.410156" xlink:href="#DejaVuSans-33"/>
      </g>
     </g>
    </g>
    <g id="text_52">
     <!-- MDS2 -->
     <g transform="translate(900.242417 192.54075)rotate(-90)scale(0.16 -0.16)">
      <use xlink:href="#DejaVuSans-4d"/>
      <use x="86.279297" xlink:href="#DejaVuSans-44"/>
      <use x="163.28125" xlink:href="#DejaVuSans-53"/>
      <use x="226.757812" xlink:href="#DejaVuSans-32"/>
     </g>
    </g>
   </g>
   <g id="line2d_51">
    <g clip-path="url(#pd5794eec2e)">
     <use style="fill:#1f77b4;stroke:#1f77b4;" x="1043.565312" xlink:href="#m2b52d85189" y="142.974533"/>
    </g>
   </g>
   <g id="line2d_52">
    <g clip-path="url(#pd5794eec2e)">
     <use style="fill:#8c564b;stroke:#8c564b;" x="1204.35428" xlink:href="#m4b44fb226d" y="168.278128"/>
    </g>
   </g>
   <g id="line2d_53">
    <g clip-path="url(#pd5794eec2e)">
     <use style="fill:#ff7f0e;stroke:#ff7f0e;" x="1028.574078" xlink:href="#m94516ee8bc" y="149.13116"/>
    </g>
   </g>
   <g id="line2d_54">
    <g clip-path="url(#pd5794eec2e)">
     <use style="fill:#1f77b4;stroke:#1f77b4;" x="1134.848981" xlink:href="#m2b52d85189" y="109.788506"/>
    </g>
   </g>
   <g id="line2d_55">
    <g clip-path="url(#pd5794eec2e)">
     <use style="fill:#8c564b;stroke:#8c564b;" x="1180.020131" xlink:href="#m4b44fb226d" y="211.61494"/>
    </g>
   </g>
   <g id="line2d_56">
    <g clip-path="url(#pd5794eec2e)">
     <use style="fill:#ff7f0e;stroke:#ff7f0e;" x="1025.414411" xlink:href="#m94516ee8bc" y="91.456333"/>
    </g>
   </g>
   <g id="line2d_57">
    <g clip-path="url(#pd5794eec2e)">
     <use style="fill:#2ca02c;stroke:#2ca02c;" x="965.371553" xlink:href="#m16ac5e111a" y="170.730895"/>
    </g>
   </g>
   <g id="line2d_58">
    <g clip-path="url(#pd5794eec2e)">
     <use style="fill:#2ca02c;stroke:#2ca02c;" x="979.328731" xlink:href="#m16ac5e111a" y="202.556555"/>
    </g>
   </g>
   <g id="line2d_59">
    <g clip-path="url(#pd5794eec2e)">
     <use style="fill:#d62728;stroke:#d62728;" x="1076.293532" xlink:href="#me5db7534fe" y="271.63115"/>
    </g>
   </g>
   <g id="line2d_60">
    <g clip-path="url(#pd5794eec2e)">
     <use style="fill:#d62728;stroke:#d62728;" x="1133.120592" xlink:href="#me5db7534fe" y="290.783635"/>
    </g>
   </g>
   <g id="patch_33">
    <path d="M 953.422417 300.75 
L 953.422417 37.869 
" style="fill:none;stroke:#000000;stroke-linecap:square;stroke-linejoin:miter;stroke-width:0.8;"/>
   </g>
   <g id="patch_34">
    <path d="M 1216.303417 300.75 
L 1216.303417 37.869 
" style="fill:none;stroke:#000000;stroke-linecap:square;stroke-linejoin:miter;stroke-width:0.8;"/>
   </g>
   <g id="patch_35">
    <path d="M 953.422417 300.75 
L 1216.303417 300.75 
" style="fill:none;stroke:#000000;stroke-linecap:square;stroke-linejoin:miter;stroke-width:0.8;"/>
   </g>
   <g id="patch_36">
    <path d="M 953.422417 37.869 
L 1216.303417 37.869 
" style="fill:none;stroke:#000000;stroke-linecap:square;stroke-linejoin:miter;stroke-width:0.8;"/>
   </g>
   <g id="text_53">
    <g id="patch_37">
     <path d="M 1041.645312 148.347033 
L 1120.450312 148.347033 
L 1120.450312 128.897033 
L 1041.645312 128.897033 
z
" style="fill:#1f77b4;opacity:0.5;"/>
    </g>
    <!-- DelayGo -->
    <g transform="translate(1043.565312 142.974533)scale(0.16 -0.16)">
     <use xlink:href="#DejaVuSans-Bold-44"/>
     <use x="83.007812" xlink:href="#DejaVuSans-Bold-65"/>
     <use x="150.830078" xlink:href="#DejaVuSans-Bold-6c"/>
     <use x="185.107422" xlink:href="#DejaVuSans-Bold-61"/>
     <use x="252.541016" xlink:href="#DejaVuSans-Bold-79"/>
     <use x="317.726562" xlink:href="#DejaVuSans-Bold-47"/>
     <use x="399.806641" xlink:href="#DejaVuSans-Bold-6f"/>
    </g>
   </g>
   <g id="text_54">
    <g id="patch_38">
     <path d="M 1202.43428 173.525628 
L 1281.50178 173.525628 
L 1281.50178 154.200628 
L 1202.43428 154.200628 
z
" style="fill:#8c564b;opacity:0.5;"/>
    </g>
    <!-- ReactGo -->
    <g transform="translate(1204.35428 168.278128)scale(0.16 -0.16)">
     <use xlink:href="#DejaVuSans-Bold-52"/>
     <use x="77.001953" xlink:href="#DejaVuSans-Bold-65"/>
     <use x="144.824219" xlink:href="#DejaVuSans-Bold-61"/>
     <use x="212.304688" xlink:href="#DejaVuSans-Bold-63"/>
     <use x="271.582031" xlink:href="#DejaVuSans-Bold-74"/>
     <use x="319.384766" xlink:href="#DejaVuSans-Bold-47"/>
     <use x="401.464844" xlink:href="#DejaVuSans-Bold-6f"/>
    </g>
   </g>
   <g id="text_55">
    <g id="patch_39">
     <path d="M 1026.654078 154.50366 
L 1127.379078 154.50366 
L 1127.379078 135.17866 
L 1026.654078 135.17866 
z
" style="fill:#ff7f0e;opacity:0.5;"/>
    </g>
    <!-- MemoryGo -->
    <g transform="translate(1028.574078 149.13116)scale(0.16 -0.16)">
     <use xlink:href="#DejaVuSans-Bold-4d"/>
     <use x="99.511719" xlink:href="#DejaVuSans-Bold-65"/>
     <use x="167.333984" xlink:href="#DejaVuSans-Bold-6d"/>
     <use x="271.533203" xlink:href="#DejaVuSans-Bold-6f"/>
     <use x="340.234375" xlink:href="#DejaVuSans-Bold-72"/>
     <use x="389.550781" xlink:href="#DejaVuSans-Bold-79"/>
     <use x="454.736328" xlink:href="#DejaVuSans-Bold-47"/>
     <use x="536.816406" xlink:href="#DejaVuSans-Bold-6f"/>
    </g>
   </g>
   <g id="text_56">
    <g id="patch_40">
     <path d="M 1132.928981 115.161006 
L 1224.513981 115.161006 
L 1224.513981 95.711006 
L 1132.928981 95.711006 
z
" style="fill:#1f77b4;opacity:0.5;"/>
    </g>
    <!-- DelayAnti -->
    <g transform="translate(1134.848981 109.788506)scale(0.16 -0.16)">
     <use xlink:href="#DejaVuSans-Bold-44"/>
     <use x="83.007812" xlink:href="#DejaVuSans-Bold-65"/>
     <use x="150.830078" xlink:href="#DejaVuSans-Bold-6c"/>
     <use x="185.107422" xlink:href="#DejaVuSans-Bold-61"/>
     <use x="252.541016" xlink:href="#DejaVuSans-Bold-79"/>
     <use x="317.726562" xlink:href="#DejaVuSans-Bold-41"/>
     <use x="395.119141" xlink:href="#DejaVuSans-Bold-6e"/>
     <use x="466.310547" xlink:href="#DejaVuSans-Bold-74"/>
     <use x="514.113281" xlink:href="#DejaVuSans-Bold-69"/>
    </g>
   </g>
   <g id="text_57">
    <g id="patch_41">
     <path d="M 1178.100131 216.86244 
L 1269.947631 216.86244 
L 1269.947631 197.53744 
L 1178.100131 197.53744 
z
" style="fill:#8c564b;opacity:0.5;"/>
    </g>
    <!-- ReactAnti -->
    <g transform="translate(1180.020131 211.61494)scale(0.16 -0.16)">
     <use xlink:href="#DejaVuSans-Bold-52"/>
     <use x="77.001953" xlink:href="#DejaVuSans-Bold-65"/>
     <use x="144.824219" xlink:href="#DejaVuSans-Bold-61"/>
     <use x="212.304688" xlink:href="#DejaVuSans-Bold-63"/>
     <use x="271.582031" xlink:href="#DejaVuSans-Bold-74"/>
     <use x="319.384766" xlink:href="#DejaVuSans-Bold-41"/>
     <use x="396.777344" xlink:href="#DejaVuSans-Bold-6e"/>
     <use x="467.96875" xlink:href="#DejaVuSans-Bold-74"/>
     <use x="515.771484" xlink:href="#DejaVuSans-Bold-69"/>
    </g>
   </g>
   <g id="text_58">
    <g id="patch_42">
     <path d="M 1023.494411 96.828833 
L 1136.999411 96.828833 
L 1136.999411 77.378833 
L 1023.494411 77.378833 
z
" style="fill:#ff7f0e;opacity:0.5;"/>
    </g>
    <!-- MemoryAnti -->
    <g transform="translate(1025.414411 91.456333)scale(0.16 -0.16)">
     <use xlink:href="#DejaVuSans-Bold-4d"/>
     <use x="99.511719" xlink:href="#DejaVuSans-Bold-65"/>
     <use x="167.333984" xlink:href="#DejaVuSans-Bold-6d"/>
     <use x="271.533203" xlink:href="#DejaVuSans-Bold-6f"/>
     <use x="340.234375" xlink:href="#DejaVuSans-Bold-72"/>
     <use x="389.550781" xlink:href="#DejaVuSans-Bold-79"/>
     <use x="454.736328" xlink:href="#DejaVuSans-Bold-41"/>
     <use x="532.128906" xlink:href="#DejaVuSans-Bold-6e"/>
     <use x="603.320312" xlink:href="#DejaVuSans-Bold-74"/>
     <use x="651.123047" xlink:href="#DejaVuSans-Bold-69"/>
    </g>
   </g>
   <g id="text_59">
    <g id="patch_43">
     <path d="M 963.451553 176.103395 
L 1162.076553 176.103395 
L 1162.076553 156.653395 
L 963.451553 156.653395 
z
" style="fill:#2ca02c;opacity:0.5;"/>
    </g>
    <!-- MemoryMatchSample -->
    <g transform="translate(965.371553 170.730895)scale(0.16 -0.16)">
     <use xlink:href="#DejaVuSans-Bold-4d"/>
     <use x="99.511719" xlink:href="#DejaVuSans-Bold-65"/>
     <use x="167.333984" xlink:href="#DejaVuSans-Bold-6d"/>
     <use x="271.533203" xlink:href="#DejaVuSans-Bold-6f"/>
     <use x="340.234375" xlink:href="#DejaVuSans-Bold-72"/>
     <use x="389.550781" xlink:href="#DejaVuSans-Bold-79"/>
     <use x="454.736328" xlink:href="#DejaVuSans-Bold-4d"/>
     <use x="554.248047" xlink:href="#DejaVuSans-Bold-61"/>
     <use x="621.728516" xlink:href="#DejaVuSans-Bold-74"/>
     <use x="669.53125" xlink:href="#DejaVuSans-Bold-63"/>
     <use x="728.808594" xlink:href="#DejaVuSans-Bold-68"/>
     <use x="800" xlink:href="#DejaVuSans-Bold-53"/>
     <use x="872.021484" xlink:href="#DejaVuSans-Bold-61"/>
     <use x="939.501953" xlink:href="#DejaVuSans-Bold-6d"/>
     <use x="1043.701172" xlink:href="#DejaVuSans-Bold-70"/>
     <use x="1115.283203" xlink:href="#DejaVuSans-Bold-6c"/>
     <use x="1149.560547" xlink:href="#DejaVuSans-Bold-65"/>
    </g>
   </g>
   <g id="text_60">
    <g id="patch_44">
     <path d="M 977.408731 207.929055 
L 1222.861231 207.929055 
L 1222.861231 188.479055 
L 977.408731 188.479055 
z
" style="fill:#2ca02c;opacity:0.5;"/>
    </g>
    <!-- MemoryMatchSampleNogo -->
    <g transform="translate(979.328731 202.556555)scale(0.16 -0.16)">
     <use xlink:href="#DejaVuSans-Bold-4d"/>
     <use x="99.511719" xlink:href="#DejaVuSans-Bold-65"/>
     <use x="167.333984" xlink:href="#DejaVuSans-Bold-6d"/>
     <use x="271.533203" xlink:href="#DejaVuSans-Bold-6f"/>
     <use x="340.234375" xlink:href="#DejaVuSans-Bold-72"/>
     <use x="389.550781" xlink:href="#DejaVuSans-Bold-79"/>
     <use x="454.736328" xlink:href="#DejaVuSans-Bold-4d"/>
     <use x="554.248047" xlink:href="#DejaVuSans-Bold-61"/>
     <use x="621.728516" xlink:href="#DejaVuSans-Bold-74"/>
     <use x="669.53125" xlink:href="#DejaVuSans-Bold-63"/>
     <use x="728.808594" xlink:href="#DejaVuSans-Bold-68"/>
     <use x="800" xlink:href="#DejaVuSans-Bold-53"/>
     <use x="872.021484" xlink:href="#DejaVuSans-Bold-61"/>
     <use x="939.501953" xlink:href="#DejaVuSans-Bold-6d"/>
     <use x="1043.701172" xlink:href="#DejaVuSans-Bold-70"/>
     <use x="1115.283203" xlink:href="#DejaVuSans-Bold-6c"/>
     <use x="1149.560547" xlink:href="#DejaVuSans-Bold-65"/>
     <use x="1217.382812" xlink:href="#DejaVuSans-Bold-4e"/>
     <use x="1301.074219" xlink:href="#DejaVuSans-Bold-6f"/>
     <use x="1369.775391" xlink:href="#DejaVuSans-Bold-67"/>
     <use x="1441.357422" xlink:href="#DejaVuSans-Bold-6f"/>
    </g>
   </g>
   <g id="text_61">
    <g id="patch_45">
     <path d="M 1074.373532 277.00365 
L 1256.903532 277.00365 
L 1256.903532 257.67865 
L 1074.373532 257.67865 
z
" style="fill:#d62728;opacity:0.5;"/>
    </g>
    <!-- MemoryCategoryGo -->
    <g transform="translate(1076.293532 271.63115)scale(0.16 -0.16)">
     <use xlink:href="#DejaVuSans-Bold-4d"/>
     <use x="99.511719" xlink:href="#DejaVuSans-Bold-65"/>
     <use x="167.333984" xlink:href="#DejaVuSans-Bold-6d"/>
     <use x="271.533203" xlink:href="#DejaVuSans-Bold-6f"/>
     <use x="340.234375" xlink:href="#DejaVuSans-Bold-72"/>
     <use x="389.550781" xlink:href="#DejaVuSans-Bold-79"/>
     <use x="454.736328" xlink:href="#DejaVuSans-Bold-43"/>
     <use x="528.125" xlink:href="#DejaVuSans-Bold-61"/>
     <use x="595.605469" xlink:href="#DejaVuSans-Bold-74"/>
     <use x="643.408203" xlink:href="#DejaVuSans-Bold-65"/>
     <use x="711.230469" xlink:href="#DejaVuSans-Bold-67"/>
     <use x="782.8125" xlink:href="#DejaVuSans-Bold-6f"/>
     <use x="851.513672" xlink:href="#DejaVuSans-Bold-72"/>
     <use x="900.830078" xlink:href="#DejaVuSans-Bold-79"/>
     <use x="966.015625" xlink:href="#DejaVuSans-Bold-47"/>
     <use x="1048.095703" xlink:href="#DejaVuSans-Bold-6f"/>
    </g>
   </g>
   <g id="text_62">
    <g id="patch_46">
     <path d="M 1131.200592 296.156135 
L 1338.113092 296.156135 
L 1338.113092 276.831135 
L 1131.200592 276.831135 
z
" style="fill:#d62728;opacity:0.5;"/>
    </g>
    <!-- MemoryCategoryNoGo -->
    <g transform="translate(1133.120592 290.783635)scale(0.16 -0.16)">
     <use xlink:href="#DejaVuSans-Bold-4d"/>
     <use x="99.511719" xlink:href="#DejaVuSans-Bold-65"/>
     <use x="167.333984" xlink:href="#DejaVuSans-Bold-6d"/>
     <use x="271.533203" xlink:href="#DejaVuSans-Bold-6f"/>
     <use x="340.234375" xlink:href="#DejaVuSans-Bold-72"/>
     <use x="389.550781" xlink:href="#DejaVuSans-Bold-79"/>
     <use x="454.736328" xlink:href="#DejaVuSans-Bold-43"/>
     <use x="528.125" xlink:href="#DejaVuSans-Bold-61"/>
     <use x="595.605469" xlink:href="#DejaVuSans-Bold-74"/>
     <use x="643.408203" xlink:href="#DejaVuSans-Bold-65"/>
     <use x="711.230469" xlink:href="#DejaVuSans-Bold-67"/>
     <use x="782.8125" xlink:href="#DejaVuSans-Bold-6f"/>
     <use x="851.513672" xlink:href="#DejaVuSans-Bold-72"/>
     <use x="900.830078" xlink:href="#DejaVuSans-Bold-79"/>
     <use x="966.015625" xlink:href="#DejaVuSans-Bold-4e"/>
     <use x="1049.707031" xlink:href="#DejaVuSans-Bold-6f"/>
     <use x="1118.408203" xlink:href="#DejaVuSans-Bold-47"/>
     <use x="1200.488281" xlink:href="#DejaVuSans-Bold-6f"/>
    </g>
   </g>
   <g id="text_63">
    <!-- crystals/softplus/no_reg_model_0 -->
    <defs>
     <path d="M 48.78125 52.59375 
L 48.78125 44.1875 
Q 44.96875 46.296875 41.140625 47.34375 
Q 37.3125 48.390625 33.40625 48.390625 
Q 24.65625 48.390625 19.8125 42.84375 
Q 14.984375 37.3125 14.984375 27.296875 
Q 14.984375 17.28125 19.8125 11.734375 
Q 24.65625 6.203125 33.40625 6.203125 
Q 37.3125 6.203125 41.140625 7.25 
Q 44.96875 8.296875 48.78125 10.40625 
L 48.78125 2.09375 
Q 45.015625 0.34375 40.984375 -0.53125 
Q 36.96875 -1.421875 32.421875 -1.421875 
Q 20.0625 -1.421875 12.78125 6.34375 
Q 5.515625 14.109375 5.515625 27.296875 
Q 5.515625 40.671875 12.859375 48.328125 
Q 20.21875 56 33.015625 56 
Q 37.15625 56 41.109375 55.140625 
Q 45.0625 54.296875 48.78125 52.59375 
z
" id="DejaVuSans-63"/>
     <path d="M 41.109375 46.296875 
Q 39.59375 47.171875 37.8125 47.578125 
Q 36.03125 48 33.890625 48 
Q 26.265625 48 22.1875 43.046875 
Q 18.109375 38.09375 18.109375 28.8125 
L 18.109375 0 
L 9.078125 0 
L 9.078125 54.6875 
L 18.109375 54.6875 
L 18.109375 46.1875 
Q 20.953125 51.171875 25.484375 53.578125 
Q 30.03125 56 36.53125 56 
Q 37.453125 56 38.578125 55.875 
Q 39.703125 55.765625 41.0625 55.515625 
z
" id="DejaVuSans-72"/>
     <path d="M 32.171875 -5.078125 
Q 28.375 -14.84375 24.75 -17.8125 
Q 21.140625 -20.796875 15.09375 -20.796875 
L 7.90625 -20.796875 
L 7.90625 -13.28125 
L 13.1875 -13.28125 
Q 16.890625 -13.28125 18.9375 -11.515625 
Q 21 -9.765625 23.484375 -3.21875 
L 25.09375 0.875 
L 2.984375 54.6875 
L 12.5 54.6875 
L 29.59375 11.921875 
L 46.6875 54.6875 
L 56.203125 54.6875 
z
" id="DejaVuSans-79"/>
     <path d="M 44.28125 53.078125 
L 44.28125 44.578125 
Q 40.484375 46.53125 36.375 47.5 
Q 32.28125 48.484375 27.875 48.484375 
Q 21.1875 48.484375 17.84375 46.4375 
Q 14.5 44.390625 14.5 40.28125 
Q 14.5 37.15625 16.890625 35.375 
Q 19.28125 33.59375 26.515625 31.984375 
L 29.59375 31.296875 
Q 39.15625 29.25 43.1875 25.515625 
Q 47.21875 21.78125 47.21875 15.09375 
Q 47.21875 7.46875 41.1875 3.015625 
Q 35.15625 -1.421875 24.609375 -1.421875 
Q 20.21875 -1.421875 15.453125 -0.5625 
Q 10.6875 0.296875 5.421875 2 
L 5.421875 11.28125 
Q 10.40625 8.6875 15.234375 7.390625 
Q 20.0625 6.109375 24.8125 6.109375 
Q 31.15625 6.109375 34.5625 8.28125 
Q 37.984375 10.453125 37.984375 14.40625 
Q 37.984375 18.0625 35.515625 20.015625 
Q 33.0625 21.96875 24.703125 23.78125 
L 21.578125 24.515625 
Q 13.234375 26.265625 9.515625 29.90625 
Q 5.8125 33.546875 5.8125 39.890625 
Q 5.8125 47.609375 11.28125 51.796875 
Q 16.75 56 26.8125 56 
Q 31.78125 56 36.171875 55.265625 
Q 40.578125 54.546875 44.28125 53.078125 
z
" id="DejaVuSans-73"/>
     <path d="M 18.3125 70.21875 
L 18.3125 54.6875 
L 36.8125 54.6875 
L 36.8125 47.703125 
L 18.3125 47.703125 
L 18.3125 18.015625 
Q 18.3125 11.328125 20.140625 9.421875 
Q 21.96875 7.515625 27.59375 7.515625 
L 36.8125 7.515625 
L 36.8125 0 
L 27.59375 0 
Q 17.1875 0 13.234375 3.875 
Q 9.28125 7.765625 9.28125 18.015625 
L 9.28125 47.703125 
L 2.6875 47.703125 
L 2.6875 54.6875 
L 9.28125 54.6875 
L 9.28125 70.21875 
z
" id="DejaVuSans-74"/>
     <path d="M 34.28125 27.484375 
Q 23.390625 27.484375 19.1875 25 
Q 14.984375 22.515625 14.984375 16.5 
Q 14.984375 11.71875 18.140625 8.90625 
Q 21.296875 6.109375 26.703125 6.109375 
Q 34.1875 6.109375 38.703125 11.40625 
Q 43.21875 16.703125 43.21875 25.484375 
L 43.21875 27.484375 
z
M 52.203125 31.203125 
L 52.203125 0 
L 43.21875 0 
L 43.21875 8.296875 
Q 40.140625 3.328125 35.546875 0.953125 
Q 30.953125 -1.421875 24.3125 -1.421875 
Q 15.921875 -1.421875 10.953125 3.296875 
Q 6 8.015625 6 15.921875 
Q 6 25.140625 12.171875 29.828125 
Q 18.359375 34.515625 30.609375 34.515625 
L 43.21875 34.515625 
L 43.21875 35.40625 
Q 43.21875 41.609375 39.140625 45 
Q 35.0625 48.390625 27.6875 48.390625 
Q 23 48.390625 18.546875 47.265625 
Q 14.109375 46.140625 10.015625 43.890625 
L 10.015625 52.203125 
Q 14.9375 54.109375 19.578125 55.046875 
Q 24.21875 56 28.609375 56 
Q 40.484375 56 46.34375 49.84375 
Q 52.203125 43.703125 52.203125 31.203125 
z
" id="DejaVuSans-61"/>
     <path d="M 9.421875 75.984375 
L 18.40625 75.984375 
L 18.40625 0 
L 9.421875 0 
z
" id="DejaVuSans-6c"/>
     <path d="M 25.390625 72.90625 
L 33.6875 72.90625 
L 8.296875 -9.28125 
L 0 -9.28125 
z
" id="DejaVuSans-2f"/>
     <path d="M 30.609375 48.390625 
Q 23.390625 48.390625 19.1875 42.75 
Q 14.984375 37.109375 14.984375 27.296875 
Q 14.984375 17.484375 19.15625 11.84375 
Q 23.34375 6.203125 30.609375 6.203125 
Q 37.796875 6.203125 41.984375 11.859375 
Q 46.1875 17.53125 46.1875 27.296875 
Q 46.1875 37.015625 41.984375 42.703125 
Q 37.796875 48.390625 30.609375 48.390625 
z
M 30.609375 56 
Q 42.328125 56 49.015625 48.375 
Q 55.71875 40.765625 55.71875 27.296875 
Q 55.71875 13.875 49.015625 6.21875 
Q 42.328125 -1.421875 30.609375 -1.421875 
Q 18.84375 -1.421875 12.171875 6.21875 
Q 5.515625 13.875 5.515625 27.296875 
Q 5.515625 40.765625 12.171875 48.375 
Q 18.84375 56 30.609375 56 
z
" id="DejaVuSans-6f"/>
     <path d="M 37.109375 75.984375 
L 37.109375 68.5 
L 28.515625 68.5 
Q 23.6875 68.5 21.796875 66.546875 
Q 19.921875 64.59375 19.921875 59.515625 
L 19.921875 54.6875 
L 34.71875 54.6875 
L 34.71875 47.703125 
L 19.921875 47.703125 
L 19.921875 0 
L 10.890625 0 
L 10.890625 47.703125 
L 2.296875 47.703125 
L 2.296875 54.6875 
L 10.890625 54.6875 
L 10.890625 58.5 
Q 10.890625 67.625 15.140625 71.796875 
Q 19.390625 75.984375 28.609375 75.984375 
z
" id="DejaVuSans-66"/>
     <path d="M 18.109375 8.203125 
L 18.109375 -20.796875 
L 9.078125 -20.796875 
L 9.078125 54.6875 
L 18.109375 54.6875 
L 18.109375 46.390625 
Q 20.953125 51.265625 25.265625 53.625 
Q 29.59375 56 35.59375 56 
Q 45.5625 56 51.78125 48.09375 
Q 58.015625 40.1875 58.015625 27.296875 
Q 58.015625 14.40625 51.78125 6.484375 
Q 45.5625 -1.421875 35.59375 -1.421875 
Q 29.59375 -1.421875 25.265625 0.953125 
Q 20.953125 3.328125 18.109375 8.203125 
z
M 48.6875 27.296875 
Q 48.6875 37.203125 44.609375 42.84375 
Q 40.53125 48.484375 33.40625 48.484375 
Q 26.265625 48.484375 22.1875 42.84375 
Q 18.109375 37.203125 18.109375 27.296875 
Q 18.109375 17.390625 22.1875 11.75 
Q 26.265625 6.109375 33.40625 6.109375 
Q 40.53125 6.109375 44.609375 11.75 
Q 48.6875 17.390625 48.6875 27.296875 
z
" id="DejaVuSans-70"/>
     <path d="M 8.5 21.578125 
L 8.5 54.6875 
L 17.484375 54.6875 
L 17.484375 21.921875 
Q 17.484375 14.15625 20.5 10.265625 
Q 23.53125 6.390625 29.59375 6.390625 
Q 36.859375 6.390625 41.078125 11.03125 
Q 45.3125 15.671875 45.3125 23.6875 
L 45.3125 54.6875 
L 54.296875 54.6875 
L 54.296875 0 
L 45.3125 0 
L 45.3125 8.40625 
Q 42.046875 3.421875 37.71875 1 
Q 33.40625 -1.421875 27.6875 -1.421875 
Q 18.265625 -1.421875 13.375 4.4375 
Q 8.5 10.296875 8.5 21.578125 
z
M 31.109375 56 
z
" id="DejaVuSans-75"/>
     <path d="M 54.890625 33.015625 
L 54.890625 0 
L 45.90625 0 
L 45.90625 32.71875 
Q 45.90625 40.484375 42.875 44.328125 
Q 39.84375 48.1875 33.796875 48.1875 
Q 26.515625 48.1875 22.3125 43.546875 
Q 18.109375 38.921875 18.109375 30.90625 
L 18.109375 0 
L 9.078125 0 
L 9.078125 54.6875 
L 18.109375 54.6875 
L 18.109375 46.1875 
Q 21.34375 51.125 25.703125 53.5625 
Q 30.078125 56 35.796875 56 
Q 45.21875 56 50.046875 50.171875 
Q 54.890625 44.34375 54.890625 33.015625 
z
" id="DejaVuSans-6e"/>
     <path d="M 50.984375 -16.609375 
L 50.984375 -23.578125 
L -0.984375 -23.578125 
L -0.984375 -16.609375 
z
" id="DejaVuSans-5f"/>
     <path d="M 56.203125 29.59375 
L 56.203125 25.203125 
L 14.890625 25.203125 
Q 15.484375 15.921875 20.484375 11.0625 
Q 25.484375 6.203125 34.421875 6.203125 
Q 39.59375 6.203125 44.453125 7.46875 
Q 49.3125 8.734375 54.109375 11.28125 
L 54.109375 2.78125 
Q 49.265625 0.734375 44.1875 -0.34375 
Q 39.109375 -1.421875 33.890625 -1.421875 
Q 20.796875 -1.421875 13.15625 6.1875 
Q 5.515625 13.8125 5.515625 26.8125 
Q 5.515625 40.234375 12.765625 48.109375 
Q 20.015625 56 32.328125 56 
Q 43.359375 56 49.78125 48.890625 
Q 56.203125 41.796875 56.203125 29.59375 
z
M 47.21875 32.234375 
Q 47.125 39.59375 43.09375 43.984375 
Q 39.0625 48.390625 32.421875 48.390625 
Q 24.90625 48.390625 20.390625 44.140625 
Q 15.875 39.890625 15.1875 32.171875 
z
" id="DejaVuSans-65"/>
     <path d="M 45.40625 27.984375 
Q 45.40625 37.75 41.375 43.109375 
Q 37.359375 48.484375 30.078125 48.484375 
Q 22.859375 48.484375 18.828125 43.109375 
Q 14.796875 37.75 14.796875 27.984375 
Q 14.796875 18.265625 18.828125 12.890625 
Q 22.859375 7.515625 30.078125 7.515625 
Q 37.359375 7.515625 41.375 12.890625 
Q 45.40625 18.265625 45.40625 27.984375 
z
M 54.390625 6.78125 
Q 54.390625 -7.171875 48.1875 -13.984375 
Q 42 -20.796875 29.203125 -20.796875 
Q 24.46875 -20.796875 20.265625 -20.09375 
Q 16.0625 -19.390625 12.109375 -17.921875 
L 12.109375 -9.1875 
Q 16.0625 -11.328125 19.921875 -12.34375 
Q 23.78125 -13.375 27.78125 -13.375 
Q 36.625 -13.375 41.015625 -8.765625 
Q 45.40625 -4.15625 45.40625 5.171875 
L 45.40625 9.625 
Q 42.625 4.78125 38.28125 2.390625 
Q 33.9375 0 27.875 0 
Q 17.828125 0 11.671875 7.65625 
Q 5.515625 15.328125 5.515625 27.984375 
Q 5.515625 40.671875 11.671875 48.328125 
Q 17.828125 56 27.875 56 
Q 33.9375 56 38.28125 53.609375 
Q 42.625 51.21875 45.40625 46.390625 
L 45.40625 54.6875 
L 54.390625 54.6875 
z
" id="DejaVuSans-67"/>
     <path d="M 52 44.1875 
Q 55.375 50.25 60.0625 53.125 
Q 64.75 56 71.09375 56 
Q 79.640625 56 84.28125 50.015625 
Q 88.921875 44.046875 88.921875 33.015625 
L 88.921875 0 
L 79.890625 0 
L 79.890625 32.71875 
Q 79.890625 40.578125 77.09375 44.375 
Q 74.3125 48.1875 68.609375 48.1875 
Q 61.625 48.1875 57.5625 43.546875 
Q 53.515625 38.921875 53.515625 30.90625 
L 53.515625 0 
L 44.484375 0 
L 44.484375 32.71875 
Q 44.484375 40.625 41.703125 44.40625 
Q 38.921875 48.1875 33.109375 48.1875 
Q 26.21875 48.1875 22.15625 43.53125 
Q 18.109375 38.875 18.109375 30.90625 
L 18.109375 0 
L 9.078125 0 
L 9.078125 54.6875 
L 18.109375 54.6875 
L 18.109375 46.1875 
Q 21.1875 51.21875 25.484375 53.609375 
Q 29.78125 56 35.6875 56 
Q 41.65625 56 45.828125 52.96875 
Q 50 49.953125 52 44.1875 
z
" id="DejaVuSans-6d"/>
     <path d="M 45.40625 46.390625 
L 45.40625 75.984375 
L 54.390625 75.984375 
L 54.390625 0 
L 45.40625 0 
L 45.40625 8.203125 
Q 42.578125 3.328125 38.25 0.953125 
Q 33.9375 -1.421875 27.875 -1.421875 
Q 17.96875 -1.421875 11.734375 6.484375 
Q 5.515625 14.40625 5.515625 27.296875 
Q 5.515625 40.1875 11.734375 48.09375 
Q 17.96875 56 27.875 56 
Q 33.9375 56 38.25 53.625 
Q 42.578125 51.265625 45.40625 46.390625 
z
M 14.796875 27.296875 
Q 14.796875 17.390625 18.875 11.75 
Q 22.953125 6.109375 30.078125 6.109375 
Q 37.203125 6.109375 41.296875 11.75 
Q 45.40625 17.390625 45.40625 27.296875 
Q 45.40625 37.203125 41.296875 42.84375 
Q 37.203125 48.484375 30.078125 48.484375 
Q 22.953125 48.484375 18.875 42.84375 
Q 14.796875 37.203125 14.796875 27.296875 
z
" id="DejaVuSans-64"/>
    </defs>
    <g transform="translate(925.004917 31.869)scale(0.192 -0.192)">
     <use xlink:href="#DejaVuSans-63"/>
     <use x="54.980469" xlink:href="#DejaVuSans-72"/>
     <use x="96.09375" xlink:href="#DejaVuSans-79"/>
     <use x="155.273438" xlink:href="#DejaVuSans-73"/>
     <use x="207.373047" xlink:href="#DejaVuSans-74"/>
     <use x="246.582031" xlink:href="#DejaVuSans-61"/>
     <use x="307.861328" xlink:href="#DejaVuSans-6c"/>
     <use x="335.644531" xlink:href="#DejaVuSans-73"/>
     <use x="387.744141" xlink:href="#DejaVuSans-2f"/>
     <use x="421.435547" xlink:href="#DejaVuSans-73"/>
     <use x="473.535156" xlink:href="#DejaVuSans-6f"/>
     <use x="534.716797" xlink:href="#DejaVuSans-66"/>
     <use x="569.90625" xlink:href="#DejaVuSans-74"/>
     <use x="609.115234" xlink:href="#DejaVuSans-70"/>
     <use x="672.591797" xlink:href="#DejaVuSans-6c"/>
     <use x="700.375" xlink:href="#DejaVuSans-75"/>
     <use x="763.753906" xlink:href="#DejaVuSans-73"/>
     <use x="815.853516" xlink:href="#DejaVuSans-2f"/>
     <use x="849.544922" xlink:href="#DejaVuSans-6e"/>
     <use x="912.923828" xlink:href="#DejaVuSans-6f"/>
     <use x="974.105469" xlink:href="#DejaVuSans-5f"/>
     <use x="1024.105469" xlink:href="#DejaVuSans-72"/>
     <use x="1065.1875" xlink:href="#DejaVuSans-65"/>
     <use x="1126.710938" xlink:href="#DejaVuSans-67"/>
     <use x="1190.1875" xlink:href="#DejaVuSans-5f"/>
     <use x="1240.1875" xlink:href="#DejaVuSans-6d"/>
     <use x="1337.599609" xlink:href="#DejaVuSans-6f"/>
     <use x="1398.78125" xlink:href="#DejaVuSans-64"/>
     <use x="1462.257812" xlink:href="#DejaVuSans-65"/>
     <use x="1523.78125" xlink:href="#DejaVuSans-6c"/>
     <use x="1551.564453" xlink:href="#DejaVuSans-5f"/>
     <use x="1601.564453" xlink:href="#DejaVuSans-30"/>
    </g>
   </g>
  </g>
 </g>
 <defs>
  <clipPath id="p780f0b039b">
   <rect height="262.881" width="262.881" x="101.591083" y="37.869"/>
  </clipPath>
  <clipPath id="p32cc0b976c">
   <rect height="262.881" width="262.881" x="527.50675" y="37.869"/>
  </clipPath>
  <clipPath id="pd5794eec2e">
   <rect height="262.881" width="262.881" x="953.422417" y="37.869"/>
  </clipPath>
 </defs>
</svg>
