<?xml version="1.0" encoding="utf-8" standalone="no"?>
<!DOCTYPE svg PUBLIC "-//W3C//DTD SVG 1.1//EN"
  "http://www.w3.org/Graphics/SVG/1.1/DTD/svg11.dtd">
<!-- Created with matplotlib (http://matplotlib.org/) -->
<svg height="288pt" version="1.1" viewBox="0 0 432 288" width="432pt" xmlns="http://www.w3.org/2000/svg" xmlns:xlink="http://www.w3.org/1999/xlink">
 <defs>
  <style type="text/css">
*{stroke-linecap:butt;stroke-linejoin:round;}
  </style>
 </defs>
 <g id="figure_1">
  <g id="patch_1">
   <path d="M 0 288 
L 432 288 
L 432 0 
L 0 0 
z
" style="fill:#ffffff;"/>
  </g>
  <g id="axes_1">
   <g id="patch_2">
    <path d="M 54 252 
L 388.8 252 
L 388.8 34.56 
L 54 34.56 
z
" style="fill:#ffffff;"/>
   </g>
   <g id="matplotlib.axis_1">
    <g id="xtick_1">
     <g id="line2d_1">
      <defs>
       <path d="M 0 0 
L 0 3.5 
" id="m7c6b865823" style="stroke:#000000;stroke-width:0.8;"/>
      </defs>
      <g>
       <use style="stroke:#000000;stroke-width:0.8;" x="69.218182" xlink:href="#m7c6b865823" y="252"/>
      </g>
     </g>
     <g id="text_1">
      <!-- 0 -->
      <defs>
       <path d="M 31.78125 66.40625 
Q 24.171875 66.40625 20.328125 58.90625 
Q 16.5 51.421875 16.5 36.375 
Q 16.5 21.390625 20.328125 13.890625 
Q 24.171875 6.390625 31.78125 6.390625 
Q 39.453125 6.390625 43.28125 13.890625 
Q 47.125 21.390625 47.125 36.375 
Q 47.125 51.421875 43.28125 58.90625 
Q 39.453125 66.40625 31.78125 66.40625 
z
M 31.78125 74.21875 
Q 44.046875 74.21875 50.515625 64.515625 
Q 56.984375 54.828125 56.984375 36.375 
Q 56.984375 17.96875 50.515625 8.265625 
Q 44.046875 -1.421875 31.78125 -1.421875 
Q 19.53125 -1.421875 13.0625 8.265625 
Q 6.59375 17.96875 6.59375 36.375 
Q 6.59375 54.828125 13.0625 64.515625 
Q 19.53125 74.21875 31.78125 74.21875 
z
" id="DejaVuSans-30"/>
      </defs>
      <g transform="translate(66.036932 266.598437)scale(0.1 -0.1)">
       <use xlink:href="#DejaVuSans-30"/>
      </g>
     </g>
    </g>
    <g id="xtick_2">
     <g id="line2d_2">
      <g>
       <use style="stroke:#000000;stroke-width:0.8;" x="118.309091" xlink:href="#m7c6b865823" y="252"/>
      </g>
     </g>
     <g id="text_2">
      <!-- 20 -->
      <defs>
       <path d="M 19.1875 8.296875 
L 53.609375 8.296875 
L 53.609375 0 
L 7.328125 0 
L 7.328125 8.296875 
Q 12.9375 14.109375 22.625 23.890625 
Q 32.328125 33.6875 34.8125 36.53125 
Q 39.546875 41.84375 41.421875 45.53125 
Q 43.3125 49.21875 43.3125 52.78125 
Q 43.3125 58.59375 39.234375 62.25 
Q 35.15625 65.921875 28.609375 65.921875 
Q 23.96875 65.921875 18.8125 64.3125 
Q 13.671875 62.703125 7.8125 59.421875 
L 7.8125 69.390625 
Q 13.765625 71.78125 18.9375 73 
Q 24.125 74.21875 28.421875 74.21875 
Q 39.75 74.21875 46.484375 68.546875 
Q 53.21875 62.890625 53.21875 53.421875 
Q 53.21875 48.921875 51.53125 44.890625 
Q 49.859375 40.875 45.40625 35.40625 
Q 44.1875 33.984375 37.640625 27.21875 
Q 31.109375 20.453125 19.1875 8.296875 
z
" id="DejaVuSans-32"/>
      </defs>
      <g transform="translate(111.946591 266.598437)scale(0.1 -0.1)">
       <use xlink:href="#DejaVuSans-32"/>
       <use x="63.623047" xlink:href="#DejaVuSans-30"/>
      </g>
     </g>
    </g>
    <g id="xtick_3">
     <g id="line2d_3">
      <g>
       <use style="stroke:#000000;stroke-width:0.8;" x="167.4" xlink:href="#m7c6b865823" y="252"/>
      </g>
     </g>
     <g id="text_3">
      <!-- 40 -->
      <defs>
       <path d="M 37.796875 64.3125 
L 12.890625 25.390625 
L 37.796875 25.390625 
z
M 35.203125 72.90625 
L 47.609375 72.90625 
L 47.609375 25.390625 
L 58.015625 25.390625 
L 58.015625 17.1875 
L 47.609375 17.1875 
L 47.609375 0 
L 37.796875 0 
L 37.796875 17.1875 
L 4.890625 17.1875 
L 4.890625 26.703125 
z
" id="DejaVuSans-34"/>
      </defs>
      <g transform="translate(161.0375 266.598437)scale(0.1 -0.1)">
       <use xlink:href="#DejaVuSans-34"/>
       <use x="63.623047" xlink:href="#DejaVuSans-30"/>
      </g>
     </g>
    </g>
    <g id="xtick_4">
     <g id="line2d_4">
      <g>
       <use style="stroke:#000000;stroke-width:0.8;" x="216.490909" xlink:href="#m7c6b865823" y="252"/>
      </g>
     </g>
     <g id="text_4">
      <!-- 60 -->
      <defs>
       <path d="M 33.015625 40.375 
Q 26.375 40.375 22.484375 35.828125 
Q 18.609375 31.296875 18.609375 23.390625 
Q 18.609375 15.53125 22.484375 10.953125 
Q 26.375 6.390625 33.015625 6.390625 
Q 39.65625 6.390625 43.53125 10.953125 
Q 47.40625 15.53125 47.40625 23.390625 
Q 47.40625 31.296875 43.53125 35.828125 
Q 39.65625 40.375 33.015625 40.375 
z
M 52.59375 71.296875 
L 52.59375 62.3125 
Q 48.875 64.0625 45.09375 64.984375 
Q 41.3125 65.921875 37.59375 65.921875 
Q 27.828125 65.921875 22.671875 59.328125 
Q 17.53125 52.734375 16.796875 39.40625 
Q 19.671875 43.65625 24.015625 45.921875 
Q 28.375 48.1875 33.59375 48.1875 
Q 44.578125 48.1875 50.953125 41.515625 
Q 57.328125 34.859375 57.328125 23.390625 
Q 57.328125 12.15625 50.6875 5.359375 
Q 44.046875 -1.421875 33.015625 -1.421875 
Q 20.359375 -1.421875 13.671875 8.265625 
Q 6.984375 17.96875 6.984375 36.375 
Q 6.984375 53.65625 15.1875 63.9375 
Q 23.390625 74.21875 37.203125 74.21875 
Q 40.921875 74.21875 44.703125 73.484375 
Q 48.484375 72.75 52.59375 71.296875 
z
" id="DejaVuSans-36"/>
      </defs>
      <g transform="translate(210.128409 266.598437)scale(0.1 -0.1)">
       <use xlink:href="#DejaVuSans-36"/>
       <use x="63.623047" xlink:href="#DejaVuSans-30"/>
      </g>
     </g>
    </g>
    <g id="xtick_5">
     <g id="line2d_5">
      <g>
       <use style="stroke:#000000;stroke-width:0.8;" x="265.581818" xlink:href="#m7c6b865823" y="252"/>
      </g>
     </g>
     <g id="text_5">
      <!-- 80 -->
      <defs>
       <path d="M 31.78125 34.625 
Q 24.75 34.625 20.71875 30.859375 
Q 16.703125 27.09375 16.703125 20.515625 
Q 16.703125 13.921875 20.71875 10.15625 
Q 24.75 6.390625 31.78125 6.390625 
Q 38.8125 6.390625 42.859375 10.171875 
Q 46.921875 13.96875 46.921875 20.515625 
Q 46.921875 27.09375 42.890625 30.859375 
Q 38.875 34.625 31.78125 34.625 
z
M 21.921875 38.8125 
Q 15.578125 40.375 12.03125 44.71875 
Q 8.5 49.078125 8.5 55.328125 
Q 8.5 64.0625 14.71875 69.140625 
Q 20.953125 74.21875 31.78125 74.21875 
Q 42.671875 74.21875 48.875 69.140625 
Q 55.078125 64.0625 55.078125 55.328125 
Q 55.078125 49.078125 51.53125 44.71875 
Q 48 40.375 41.703125 38.8125 
Q 48.828125 37.15625 52.796875 32.3125 
Q 56.78125 27.484375 56.78125 20.515625 
Q 56.78125 9.90625 50.3125 4.234375 
Q 43.84375 -1.421875 31.78125 -1.421875 
Q 19.734375 -1.421875 13.25 4.234375 
Q 6.78125 9.90625 6.78125 20.515625 
Q 6.78125 27.484375 10.78125 32.3125 
Q 14.796875 37.15625 21.921875 38.8125 
z
M 18.3125 54.390625 
Q 18.3125 48.734375 21.84375 45.5625 
Q 25.390625 42.390625 31.78125 42.390625 
Q 38.140625 42.390625 41.71875 45.5625 
Q 45.3125 48.734375 45.3125 54.390625 
Q 45.3125 60.0625 41.71875 63.234375 
Q 38.140625 66.40625 31.78125 66.40625 
Q 25.390625 66.40625 21.84375 63.234375 
Q 18.3125 60.0625 18.3125 54.390625 
z
" id="DejaVuSans-38"/>
      </defs>
      <g transform="translate(259.219318 266.598437)scale(0.1 -0.1)">
       <use xlink:href="#DejaVuSans-38"/>
       <use x="63.623047" xlink:href="#DejaVuSans-30"/>
      </g>
     </g>
    </g>
    <g id="xtick_6">
     <g id="line2d_6">
      <g>
       <use style="stroke:#000000;stroke-width:0.8;" x="314.672727" xlink:href="#m7c6b865823" y="252"/>
      </g>
     </g>
     <g id="text_6">
      <!-- 100 -->
      <defs>
       <path d="M 12.40625 8.296875 
L 28.515625 8.296875 
L 28.515625 63.921875 
L 10.984375 60.40625 
L 10.984375 69.390625 
L 28.421875 72.90625 
L 38.28125 72.90625 
L 38.28125 8.296875 
L 54.390625 8.296875 
L 54.390625 0 
L 12.40625 0 
z
" id="DejaVuSans-31"/>
      </defs>
      <g transform="translate(305.128977 266.598437)scale(0.1 -0.1)">
       <use xlink:href="#DejaVuSans-31"/>
       <use x="63.623047" xlink:href="#DejaVuSans-30"/>
       <use x="127.246094" xlink:href="#DejaVuSans-30"/>
      </g>
     </g>
    </g>
    <g id="xtick_7">
     <g id="line2d_7">
      <g>
       <use style="stroke:#000000;stroke-width:0.8;" x="363.763636" xlink:href="#m7c6b865823" y="252"/>
      </g>
     </g>
     <g id="text_7">
      <!-- 120 -->
      <g transform="translate(354.219886 266.598437)scale(0.1 -0.1)">
       <use xlink:href="#DejaVuSans-31"/>
       <use x="63.623047" xlink:href="#DejaVuSans-32"/>
       <use x="127.246094" xlink:href="#DejaVuSans-30"/>
      </g>
     </g>
    </g>
   </g>
   <g id="matplotlib.axis_2">
    <g id="ytick_1">
     <g id="line2d_8">
      <defs>
       <path d="M 0 0 
L -3.5 0 
" id="m79745f6aaf" style="stroke:#000000;stroke-width:0.8;"/>
      </defs>
      <g>
       <use style="stroke:#000000;stroke-width:0.8;" x="54" xlink:href="#m79745f6aaf" y="250.313343"/>
      </g>
     </g>
     <g id="text_8">
      <!-- 0.0 -->
      <defs>
       <path d="M 10.6875 12.40625 
L 21 12.40625 
L 21 0 
L 10.6875 0 
z
" id="DejaVuSans-2e"/>
      </defs>
      <g transform="translate(31.096875 254.112562)scale(0.1 -0.1)">
       <use xlink:href="#DejaVuSans-30"/>
       <use x="63.623047" xlink:href="#DejaVuSans-2e"/>
       <use x="95.410156" xlink:href="#DejaVuSans-30"/>
      </g>
     </g>
    </g>
    <g id="ytick_2">
     <g id="line2d_9">
      <g>
       <use style="stroke:#000000;stroke-width:0.8;" x="54" xlink:href="#m79745f6aaf" y="209.772336"/>
      </g>
     </g>
     <g id="text_9">
      <!-- 0.2 -->
      <g transform="translate(31.096875 213.571554)scale(0.1 -0.1)">
       <use xlink:href="#DejaVuSans-30"/>
       <use x="63.623047" xlink:href="#DejaVuSans-2e"/>
       <use x="95.410156" xlink:href="#DejaVuSans-32"/>
      </g>
     </g>
    </g>
    <g id="ytick_3">
     <g id="line2d_10">
      <g>
       <use style="stroke:#000000;stroke-width:0.8;" x="54" xlink:href="#m79745f6aaf" y="169.231328"/>
      </g>
     </g>
     <g id="text_10">
      <!-- 0.4 -->
      <g transform="translate(31.096875 173.030547)scale(0.1 -0.1)">
       <use xlink:href="#DejaVuSans-30"/>
       <use x="63.623047" xlink:href="#DejaVuSans-2e"/>
       <use x="95.410156" xlink:href="#DejaVuSans-34"/>
      </g>
     </g>
    </g>
    <g id="ytick_4">
     <g id="line2d_11">
      <g>
       <use style="stroke:#000000;stroke-width:0.8;" x="54" xlink:href="#m79745f6aaf" y="128.69032"/>
      </g>
     </g>
     <g id="text_11">
      <!-- 0.6 -->
      <g transform="translate(31.096875 132.489539)scale(0.1 -0.1)">
       <use xlink:href="#DejaVuSans-30"/>
       <use x="63.623047" xlink:href="#DejaVuSans-2e"/>
       <use x="95.410156" xlink:href="#DejaVuSans-36"/>
      </g>
     </g>
    </g>
    <g id="ytick_5">
     <g id="line2d_12">
      <g>
       <use style="stroke:#000000;stroke-width:0.8;" x="54" xlink:href="#m79745f6aaf" y="88.149312"/>
      </g>
     </g>
     <g id="text_12">
      <!-- 0.8 -->
      <g transform="translate(31.096875 91.948531)scale(0.1 -0.1)">
       <use xlink:href="#DejaVuSans-30"/>
       <use x="63.623047" xlink:href="#DejaVuSans-2e"/>
       <use x="95.410156" xlink:href="#DejaVuSans-38"/>
      </g>
     </g>
    </g>
    <g id="ytick_6">
     <g id="line2d_13">
      <g>
       <use style="stroke:#000000;stroke-width:0.8;" x="54" xlink:href="#m79745f6aaf" y="47.608304"/>
      </g>
     </g>
     <g id="text_13">
      <!-- 1.0 -->
      <g transform="translate(31.096875 51.407523)scale(0.1 -0.1)">
       <use xlink:href="#DejaVuSans-31"/>
       <use x="63.623047" xlink:href="#DejaVuSans-2e"/>
       <use x="95.410156" xlink:href="#DejaVuSans-30"/>
      </g>
     </g>
    </g>
   </g>
   <g id="line2d_14">
    <path clip-path="url(#p5dae42193b)" d="M 69.218182 85.423953 
L 71.672727 86.006421 
L 74.127273 86.266898 
L 76.581818 86.406775 
L 79.036364 86.488054 
L 81.490909 86.536473 
L 83.945455 86.564815 
L 86.4 86.580185 
L 88.854545 86.586844 
L 91.309091 86.587485 
L 93.763636 86.583885 
L 96.218182 86.577258 
L 98.672727 86.568459 
L 101.127273 86.558104 
L 103.581818 86.54665 
L 106.036364 86.534443 
L 108.490909 86.521751 
L 110.945455 86.508785 
L 113.4 86.49572 
L 115.854545 86.482702 
L 118.309091 86.469857 
L 120.763636 86.457299 
L 123.218182 86.445127 
L 125.672727 86.433432 
L 128.127273 86.422293 
L 130.581818 85.974413 
L 133.036364 85.855921 
L 135.490909 85.761034 
L 137.945455 85.701535 
L 140.4 85.692635 
L 142.854545 85.7387 
L 145.309091 85.803418 
L 147.763636 85.846793 
L 150.218182 85.879161 
L 152.672727 85.915076 
L 155.127273 85.955998 
L 157.581818 85.998474 
L 160.036364 86.039451 
L 162.490909 86.07941 
L 164.945455 86.122557 
L 167.4 86.173711 
L 169.854545 86.235216 
L 172.309091 86.303601 
L 174.763636 86.362621 
L 177.218182 86.395626 
L 179.672727 86.40745 
L 182.127273 86.411826 
L 184.581818 86.417402 
L 187.036364 86.427545 
L 189.490909 86.442728 
L 191.945455 86.830142 
L 194.4 86.830088 
L 196.854545 86.81467 
L 199.309091 86.793524 
L 201.763636 86.771169 
L 204.218182 86.750074 
L 206.672727 86.73156 
L 209.127273 86.716163 
L 211.581818 86.703901 
L 214.036364 86.69448 
L 216.490909 86.687467 
L 218.945455 86.682393 
L 221.4 86.678826 
L 223.854545 86.676395 
L 226.309091 86.674803 
L 228.763636 86.673823 
L 231.218182 86.673293 
L 233.672727 86.673094 
L 236.127273 86.673147 
L 238.581818 86.673399 
L 241.036364 86.673812 
L 243.490909 86.674359 
L 245.945455 86.675021 
L 248.4 86.675778 
L 250.854545 86.676613 
L 253.309091 86.677512 
L 255.763636 86.678457 
L 258.218182 86.679433 
L 260.672727 86.680426 
L 263.127273 86.681423 
L 265.581818 86.68241 
L 268.036364 86.683377 
L 270.490909 86.684317 
L 272.945455 86.685221 
L 275.4 86.686082 
L 277.854545 86.686899 
L 280.309091 86.687666 
L 282.763636 86.688384 
L 285.218182 86.689052 
L 287.672727 86.68967 
L 290.127273 86.690241 
L 292.581818 86.690767 
L 295.036364 86.69125 
L 297.490909 86.691695 
L 299.945455 86.692104 
L 302.4 86.692482 
L 304.854545 86.692832 
L 307.309091 86.693159 
L 309.763636 86.693465 
L 312.218182 86.693754 
L 314.672727 86.503882 
L 317.127273 86.185544 
L 319.581818 85.870076 
L 322.036364 85.938996 
L 324.490909 86.09084 
L 326.945455 86.392379 
L 329.4 86.497694 
L 331.854545 86.53217 
L 334.309091 86.54482 
L 336.763636 86.543855 
L 339.218182 86.534022 
L 341.672727 86.51875 
L 344.127273 86.500514 
L 346.581818 86.48105 
L 349.036364 86.461553 
L 351.490909 86.442841 
L 353.945455 86.425458 
L 356.4 86.409749 
L 358.854545 86.395897 
L 361.309091 86.383946 
L 363.763636 86.373843 
L 366.218182 86.365446 
L 368.672727 86.35857 
L 371.127273 86.353002 
L 373.581818 86.348531 
" style="fill:none;stroke:#000000;stroke-linecap:square;stroke-width:1.5;"/>
   </g>
   <g id="line2d_15">
    <path clip-path="url(#p5dae42193b)" d="M 69.218182 205.041474 
L 71.672727 209.696332 
L 74.127273 212.509588 
L 76.581818 214.464851 
L 79.036364 215.900868 
L 81.490909 216.985125 
L 83.945455 217.817061 
L 86.4 218.461666 
L 88.854545 218.964239 
L 91.309091 219.357848 
L 93.763636 219.667393 
L 96.218182 219.911936 
L 98.672727 220.106132 
L 101.127273 220.261225 
L 103.581818 220.385801 
L 106.036364 220.486379 
L 108.490909 220.567917 
L 110.945455 220.634183 
L 113.4 220.688098 
L 115.854545 220.731945 
L 118.309091 220.767572 
L 120.763636 220.796502 
L 123.218182 220.820022 
L 125.672727 220.839249 
L 128.127273 220.855154 
L 130.581818 220.171305 
L 133.036364 220.092288 
L 135.490909 220.16986 
L 137.945455 220.740845 
L 140.4 222.304014 
L 142.854545 225.122134 
L 145.309091 227.951628 
L 147.763636 229.220358 
L 150.218182 229.484683 
L 152.672727 229.318083 
L 155.127273 228.676718 
L 157.581818 227.478161 
L 160.036364 225.799404 
L 162.490909 223.803436 
L 164.945455 221.664469 
L 167.4 219.540036 
L 169.854545 217.558328 
L 172.309091 215.776386 
L 174.763636 214.117258 
L 177.218182 212.489783 
L 179.672727 210.93431 
L 182.127273 209.513288 
L 184.581818 208.238732 
L 187.036364 207.091932 
L 189.490909 206.044838 
L 191.945455 205.237382 
L 194.4 203.522825 
L 196.854545 201.866173 
L 199.309091 200.275396 
L 201.763636 198.785619 
L 204.218182 197.442526 
L 206.672727 196.288296 
L 209.127273 195.352403 
L 211.581818 194.647711 
L 214.036364 194.171055 
L 216.490909 193.906295 
L 218.945455 193.828249 
L 221.4 193.90663 
L 223.854545 194.109494 
L 226.309091 194.405609 
L 228.763636 194.766181 
L 231.218182 195.165922 
L 233.672727 195.583334 
L 236.127273 196.000942 
L 238.581818 196.404842 
L 241.036364 196.784603 
L 243.490909 197.132767 
L 245.945455 197.444322 
L 248.4 197.716393 
L 250.854545 197.94789 
L 253.309091 198.138895 
L 255.763636 198.29069 
L 258.218182 198.405238 
L 260.672727 198.48502 
L 263.127273 198.532859 
L 265.581818 198.551734 
L 268.036364 198.544671 
L 270.490909 198.514675 
L 272.945455 198.464547 
L 275.4 198.39705 
L 277.854545 198.314624 
L 280.309091 198.219596 
L 282.763636 198.114034 
L 285.218182 197.999832 
L 287.672727 197.878622 
L 290.127273 197.751934 
L 292.581818 197.621038 
L 295.036364 197.487083 
L 297.490909 197.351094 
L 299.945455 197.21393 
L 302.4 197.076332 
L 304.854545 196.938877 
L 307.309091 196.802152 
L 309.763636 196.666566 
L 312.218182 196.532497 
L 314.672727 59.403776 
L 317.127273 51.248392 
L 319.581818 44.443636 
L 322.036364 46.729211 
L 324.490909 68.947422 
L 326.945455 158.79291 
L 329.4 169.690625 
L 331.854545 170.005362 
L 334.309091 170.141665 
L 336.763636 170.240501 
L 339.218182 170.338 
L 341.672727 170.444244 
L 344.127273 170.557484 
L 346.581818 170.670808 
L 349.036364 170.776438 
L 351.490909 170.868355 
L 353.945455 170.943352 
L 356.4 171.001052 
L 358.854545 171.043146 
L 361.309091 171.072476 
L 363.763636 171.092246 
L 366.218182 171.105497 
L 368.672727 171.114784 
L 371.127273 171.122107 
L 373.581818 171.128926 
" style="fill:none;stroke:#ff0000;stroke-linecap:square;stroke-width:1.5;"/>
   </g>
   <g id="line2d_16">
    <path clip-path="url(#p5dae42193b)" d="M 69.218182 186.010325 
L 71.672727 200.041307 
L 74.127273 206.002912 
L 76.581818 208.744554 
L 79.036364 209.885908 
L 81.490909 210.128051 
L 83.945455 209.832355 
L 86.4 209.20903 
L 88.854545 208.39044 
L 91.309091 207.463869 
L 93.763636 206.488054 
L 96.218182 205.502537 
L 98.672727 204.5335 
L 101.127273 203.597658 
L 103.581818 202.705015 
L 106.036364 201.860861 
L 108.490909 201.067245 
L 110.945455 200.324091 
L 113.4 199.630017 
L 115.854545 198.982945 
L 118.309091 198.38051 
L 120.763636 197.820344 
L 123.218182 197.300219 
L 125.672727 196.818121 
L 128.127273 196.372262 
L 130.581818 141.874625 
L 133.036364 137.347681 
L 135.490909 134.091816 
L 137.945455 131.926449 
L 140.4 130.729771 
L 142.854545 130.399224 
L 145.309091 130.784353 
L 147.763636 131.704871 
L 150.218182 133.013836 
L 152.672727 134.623567 
L 155.127273 136.446648 
L 157.581818 138.311915 
L 160.036364 139.995894 
L 162.490909 141.378345 
L 164.945455 142.511277 
L 167.4 143.532774 
L 169.854545 144.58234 
L 172.309091 145.746458 
L 174.763636 146.97005 
L 177.218182 148.182253 
L 179.672727 149.513192 
L 182.127273 151.142902 
L 184.581818 153.165029 
L 187.036364 155.599793 
L 189.490909 158.421714 
L 191.945455 217.17981 
L 194.4 221.147905 
L 196.854545 223.523666 
L 199.309091 225.021244 
L 201.763636 225.98249 
L 204.218182 226.595465 
L 206.672727 226.970162 
L 209.127273 227.171383 
L 211.581818 227.237382 
L 214.036364 227.19153 
L 216.490909 227.04954 
L 218.945455 226.823738 
L 221.4 226.525387 
L 223.854545 226.165814 
L 226.309091 225.756762 
L 228.763636 225.310308 
L 231.218182 224.838551 
L 233.672727 224.353193 
L 236.127273 223.865125 
L 238.581818 223.384106 
L 241.036364 222.918506 
L 243.490909 222.475184 
L 245.945455 222.059452 
L 248.4 221.675126 
L 250.854545 221.324639 
L 253.309091 221.009213 
L 255.763636 220.729002 
L 258.218182 220.483308 
L 260.672727 220.27076 
L 263.127273 220.089463 
L 265.581818 219.937173 
L 268.036364 219.811423 
L 270.490909 219.70962 
L 272.945455 219.629162 
L 275.4 219.567493 
L 277.854545 219.52216 
L 280.309091 219.490871 
L 282.763636 219.471496 
L 285.218182 219.462104 
L 287.672727 219.460952 
L 290.127273 219.466509 
L 292.581818 219.477437 
L 295.036364 219.492571 
L 297.490909 219.510927 
L 299.945455 219.531682 
L 302.4 219.554148 
L 304.854545 219.577765 
L 307.309091 219.602095 
L 309.763636 219.626785 
L 312.218182 219.651569 
L 314.672727 221.679907 
L 317.127273 224.729077 
L 319.581818 227.991948 
L 322.036364 232.086988 
L 324.490909 235.514909 
L 326.945455 237.641612 
L 329.4 238.576206 
L 331.854545 238.719236 
L 334.309091 238.365098 
L 336.763636 237.674582 
L 339.218182 236.757615 
L 341.672727 235.699229 
L 344.127273 234.567376 
L 346.581818 233.417116 
L 349.036364 232.292914 
L 351.490909 231.229631 
L 353.945455 230.252763 
L 356.4 229.378652 
L 358.854545 228.615052 
L 361.309091 227.962266 
L 363.763636 227.41472 
L 366.218182 226.962781 
L 368.672727 226.594478 
L 371.127273 226.297004 
L 373.581818 226.05784 
" style="fill:none;stroke:#0000ff;stroke-linecap:square;stroke-width:1.5;"/>
   </g>
   <g id="line2d_17">
    <path clip-path="url(#p5dae42193b)" d="M 69.218182 225.819159 
L 71.672727 229.379532 
L 74.127273 231.30182 
L 76.581818 232.429119 
L 79.036364 233.109941 
L 81.490909 233.520219 
L 83.945455 233.759483 
L 86.4 233.88816 
L 88.854545 233.944625 
L 91.309091 233.953958 
L 93.763636 233.93285 
L 96.218182 233.892514 
L 98.672727 233.840511 
L 101.127273 233.781913 
L 103.581818 233.720084 
L 106.036364 233.657224 
L 108.490909 233.594744 
L 110.945455 233.533533 
L 113.4 233.474147 
L 115.854545 233.416939 
L 118.309091 233.362149 
L 120.763636 233.309949 
L 123.218182 233.260478 
L 125.672727 233.213861 
L 128.127273 233.170207 
L 130.581818 232.281221 
L 133.036364 232.15366 
L 135.490909 232.072609 
L 137.945455 232.10186 
L 140.4 232.303144 
L 142.854545 232.684221 
L 145.309091 233.071047 
L 147.763636 233.326965 
L 150.218182 233.593241 
L 152.672727 233.918317 
L 155.127273 234.20265 
L 157.581818 234.375164 
L 160.036364 234.469953 
L 162.490909 234.547742 
L 164.945455 234.635621 
L 167.4 234.733858 
L 169.854545 234.835271 
L 172.309091 234.925285 
L 174.763636 234.95505 
L 177.218182 234.877949 
L 179.672727 234.721632 
L 182.127273 234.539799 
L 184.581818 234.364641 
L 187.036364 234.209836 
L 189.490909 234.079957 
L 191.945455 234.382949 
L 194.4 234.225597 
L 196.854545 234.073414 
L 199.309091 233.932195 
L 201.763636 233.807858 
L 204.218182 233.705857 
L 206.672727 233.62972 
L 209.127273 233.580317 
L 211.581818 233.556089 
L 214.036364 233.553804 
L 216.490909 233.569394 
L 218.945455 233.598639 
L 221.4 233.637616 
L 223.854545 233.682939 
L 226.309091 233.731848 
L 228.763636 233.782201 
L 231.218182 233.8324 
L 233.672727 233.881307 
L 236.127273 233.928145 
L 238.581818 233.972418 
L 241.036364 234.013832 
L 243.490909 234.052244 
L 245.945455 234.087615 
L 248.4 234.119982 
L 250.854545 234.149437 
L 253.309091 234.176103 
L 255.763636 234.200133 
L 258.218182 234.221692 
L 260.672727 234.240961 
L 263.127273 234.258118 
L 265.581818 234.273347 
L 268.036364 234.286823 
L 270.490909 234.298717 
L 272.945455 234.30919 
L 275.4 234.318394 
L 277.854545 234.32647 
L 280.309091 234.333546 
L 282.763636 234.339742 
L 285.218182 234.345165 
L 287.672727 234.349915 
L 290.127273 234.354079 
L 292.581818 234.357739 
L 295.036364 234.360966 
L 297.490909 234.363824 
L 299.945455 234.366372 
L 302.4 234.368662 
L 304.854545 234.370737 
L 307.309091 234.372641 
L 309.763636 234.374406 
L 312.218182 234.376062 
L 314.672727 235.752388 
L 317.127273 236.480478 
L 319.581818 237.47244 
L 322.036364 238.83204 
L 324.490909 239.948625 
L 326.945455 241.02033 
L 329.4 241.573729 
L 331.854545 241.903668 
L 334.309091 242.070842 
L 336.763636 242.116364 
L 339.218182 242.082759 
L 341.672727 242.004547 
L 344.127273 241.904869 
L 346.581818 241.797209 
L 349.036364 241.688553 
L 351.490909 241.582185 
L 353.945455 241.479643 
L 356.4 241.381873 
L 358.854545 241.289711 
L 361.309091 241.203962 
L 363.763636 241.125286 
L 366.218182 241.054066 
L 368.672727 240.990343 
L 371.127273 240.933844 
L 373.581818 240.884045 
" style="fill:none;stroke:#008000;stroke-linecap:square;stroke-width:1.5;"/>
   </g>
   <g id="line2d_18">
    <path clip-path="url(#p5dae42193b)" d="M 69.218182 226.25046 
L 71.672727 228.385983 
L 74.127273 229.449177 
L 76.581818 229.906718 
L 79.036364 229.988313 
L 81.490909 229.833668 
L 83.945455 229.534167 
L 86.4 229.151282 
L 88.854545 228.726716 
L 91.309091 228.288621 
L 93.763636 227.855683 
L 96.218182 227.439899 
L 98.672727 227.048525 
L 101.127273 226.685456 
L 103.581818 226.35223 
L 106.036364 226.048801 
L 108.490909 225.774078 
L 110.945455 225.526359 
L 113.4 225.303625 
L 115.854545 225.103749 
L 118.309091 224.92465 
L 120.763636 224.764368 
L 123.218182 224.621111 
L 125.672727 224.493282 
L 128.127273 224.379475 
L 130.581818 224.168971 
L 133.036364 224.065252 
L 135.490909 224.015902 
L 137.945455 224.051687 
L 140.4 224.205672 
L 142.854545 224.525462 
L 145.309091 225.109604 
L 147.763636 226.181199 
L 150.218182 227.932772 
L 152.672727 230.153739 
L 155.127273 232.231433 
L 157.581818 233.688747 
L 160.036364 234.547622 
L 162.490909 235.064417 
L 164.945455 235.433181 
L 167.4 235.738571 
L 169.854545 235.997102 
L 172.309091 236.19803 
L 174.763636 236.32718 
L 177.218182 236.383882 
L 179.672727 236.389694 
L 182.127273 236.368586 
L 184.581818 236.334919 
L 187.036364 236.295955 
L 189.490909 236.255479 
L 191.945455 236.174132 
L 194.4 236.127242 
L 196.854545 236.081926 
L 199.309091 236.040294 
L 201.763636 236.004736 
L 204.218182 235.977273 
L 206.672727 235.959109 
L 209.127273 235.950462 
L 211.581818 235.950656 
L 214.036364 235.958382 
L 216.490909 235.971988 
L 218.945455 235.989734 
L 221.4 236.00999 
L 223.854545 236.031334 
L 226.309091 236.052617 
L 228.763636 236.072961 
L 231.218182 236.091747 
L 233.672727 236.108573 
L 236.127273 236.123217 
L 238.581818 236.135594 
L 241.036364 236.145716 
L 243.490909 236.153673 
L 245.945455 236.159599 
L 248.4 236.163657 
L 250.854545 236.166031 
L 253.309091 236.166906 
L 255.763636 236.166468 
L 258.218182 236.164897 
L 260.672727 236.162364 
L 263.127273 236.159026 
L 265.581818 236.155028 
L 268.036364 236.150499 
L 270.490909 236.145555 
L 272.945455 236.140293 
L 275.4 236.134803 
L 277.854545 236.129159 
L 280.309091 236.123421 
L 282.763636 236.117644 
L 285.218182 236.11187 
L 287.672727 236.106133 
L 290.127273 236.100461 
L 292.581818 236.094878 
L 295.036364 236.089399 
L 297.490909 236.084037 
L 299.945455 236.078804 
L 302.4 236.073705 
L 304.854545 236.068742 
L 307.309091 236.063923 
L 309.763636 236.059244 
L 312.218182 236.054704 
L 314.672727 233.866157 
L 317.127273 234.090043 
L 319.581818 234.504679 
L 322.036364 235.082381 
L 324.490909 236.02498 
L 326.945455 238.326961 
L 329.4 238.579354 
L 331.854545 238.580474 
L 334.309091 238.536372 
L 336.763636 238.470511 
L 339.218182 238.39832 
L 341.672727 238.329739 
L 344.127273 238.269641 
L 346.581818 238.218754 
L 349.036364 238.175057 
L 351.490909 238.135233 
L 353.945455 238.095937 
L 356.4 238.054686 
L 358.854545 238.010245 
L 361.309091 237.962592 
L 363.763636 237.91258 
L 366.218182 237.861501 
L 368.672727 237.810701 
L 371.127273 237.761343 
L 373.581818 237.714263 
" style="fill:none;stroke:#00bfbf;stroke-linecap:square;stroke-width:1.5;"/>
   </g>
   <g id="patch_3">
    <path d="M 54 252 
L 54 34.56 
" style="fill:none;stroke:#000000;stroke-linecap:square;stroke-linejoin:miter;stroke-width:0.8;"/>
   </g>
   <g id="patch_4">
    <path d="M 388.8 252 
L 388.8 34.56 
" style="fill:none;stroke:#000000;stroke-linecap:square;stroke-linejoin:miter;stroke-width:0.8;"/>
   </g>
   <g id="patch_5">
    <path d="M 54 252 
L 388.8 252 
" style="fill:none;stroke:#000000;stroke-linecap:square;stroke-linejoin:miter;stroke-width:0.8;"/>
   </g>
   <g id="patch_6">
    <path d="M 54 34.56 
L 388.8 34.56 
" style="fill:none;stroke:#000000;stroke-linecap:square;stroke-linejoin:miter;stroke-width:0.8;"/>
   </g>
   <g id="text_14">
    <!-- l2w0001 : delaygo -->
    <defs>
     <path d="M 9.421875 75.984375 
L 18.40625 75.984375 
L 18.40625 0 
L 9.421875 0 
z
" id="DejaVuSans-6c"/>
     <path d="M 4.203125 54.6875 
L 13.1875 54.6875 
L 24.421875 12.015625 
L 35.59375 54.6875 
L 46.1875 54.6875 
L 57.421875 12.015625 
L 68.609375 54.6875 
L 77.59375 54.6875 
L 63.28125 0 
L 52.6875 0 
L 40.921875 44.828125 
L 29.109375 0 
L 18.5 0 
z
" id="DejaVuSans-77"/>
     <path id="DejaVuSans-20"/>
     <path d="M 11.71875 12.40625 
L 22.015625 12.40625 
L 22.015625 0 
L 11.71875 0 
z
M 11.71875 51.703125 
L 22.015625 51.703125 
L 22.015625 39.3125 
L 11.71875 39.3125 
z
" id="DejaVuSans-3a"/>
     <path d="M 45.40625 46.390625 
L 45.40625 75.984375 
L 54.390625 75.984375 
L 54.390625 0 
L 45.40625 0 
L 45.40625 8.203125 
Q 42.578125 3.328125 38.25 0.953125 
Q 33.9375 -1.421875 27.875 -1.421875 
Q 17.96875 -1.421875 11.734375 6.484375 
Q 5.515625 14.40625 5.515625 27.296875 
Q 5.515625 40.1875 11.734375 48.09375 
Q 17.96875 56 27.875 56 
Q 33.9375 56 38.25 53.625 
Q 42.578125 51.265625 45.40625 46.390625 
z
M 14.796875 27.296875 
Q 14.796875 17.390625 18.875 11.75 
Q 22.953125 6.109375 30.078125 6.109375 
Q 37.203125 6.109375 41.296875 11.75 
Q 45.40625 17.390625 45.40625 27.296875 
Q 45.40625 37.203125 41.296875 42.84375 
Q 37.203125 48.484375 30.078125 48.484375 
Q 22.953125 48.484375 18.875 42.84375 
Q 14.796875 37.203125 14.796875 27.296875 
z
" id="DejaVuSans-64"/>
     <path d="M 56.203125 29.59375 
L 56.203125 25.203125 
L 14.890625 25.203125 
Q 15.484375 15.921875 20.484375 11.0625 
Q 25.484375 6.203125 34.421875 6.203125 
Q 39.59375 6.203125 44.453125 7.46875 
Q 49.3125 8.734375 54.109375 11.28125 
L 54.109375 2.78125 
Q 49.265625 0.734375 44.1875 -0.34375 
Q 39.109375 -1.421875 33.890625 -1.421875 
Q 20.796875 -1.421875 13.15625 6.1875 
Q 5.515625 13.8125 5.515625 26.8125 
Q 5.515625 40.234375 12.765625 48.109375 
Q 20.015625 56 32.328125 56 
Q 43.359375 56 49.78125 48.890625 
Q 56.203125 41.796875 56.203125 29.59375 
z
M 47.21875 32.234375 
Q 47.125 39.59375 43.09375 43.984375 
Q 39.0625 48.390625 32.421875 48.390625 
Q 24.90625 48.390625 20.390625 44.140625 
Q 15.875 39.890625 15.1875 32.171875 
z
" id="DejaVuSans-65"/>
     <path d="M 34.28125 27.484375 
Q 23.390625 27.484375 19.1875 25 
Q 14.984375 22.515625 14.984375 16.5 
Q 14.984375 11.71875 18.140625 8.90625 
Q 21.296875 6.109375 26.703125 6.109375 
Q 34.1875 6.109375 38.703125 11.40625 
Q 43.21875 16.703125 43.21875 25.484375 
L 43.21875 27.484375 
z
M 52.203125 31.203125 
L 52.203125 0 
L 43.21875 0 
L 43.21875 8.296875 
Q 40.140625 3.328125 35.546875 0.953125 
Q 30.953125 -1.421875 24.3125 -1.421875 
Q 15.921875 -1.421875 10.953125 3.296875 
Q 6 8.015625 6 15.921875 
Q 6 25.140625 12.171875 29.828125 
Q 18.359375 34.515625 30.609375 34.515625 
L 43.21875 34.515625 
L 43.21875 35.40625 
Q 43.21875 41.609375 39.140625 45 
Q 35.0625 48.390625 27.6875 48.390625 
Q 23 48.390625 18.546875 47.265625 
Q 14.109375 46.140625 10.015625 43.890625 
L 10.015625 52.203125 
Q 14.9375 54.109375 19.578125 55.046875 
Q 24.21875 56 28.609375 56 
Q 40.484375 56 46.34375 49.84375 
Q 52.203125 43.703125 52.203125 31.203125 
z
" id="DejaVuSans-61"/>
     <path d="M 32.171875 -5.078125 
Q 28.375 -14.84375 24.75 -17.8125 
Q 21.140625 -20.796875 15.09375 -20.796875 
L 7.90625 -20.796875 
L 7.90625 -13.28125 
L 13.1875 -13.28125 
Q 16.890625 -13.28125 18.9375 -11.515625 
Q 21 -9.765625 23.484375 -3.21875 
L 25.09375 0.875 
L 2.984375 54.6875 
L 12.5 54.6875 
L 29.59375 11.921875 
L 46.6875 54.6875 
L 56.203125 54.6875 
z
" id="DejaVuSans-79"/>
     <path d="M 45.40625 27.984375 
Q 45.40625 37.75 41.375 43.109375 
Q 37.359375 48.484375 30.078125 48.484375 
Q 22.859375 48.484375 18.828125 43.109375 
Q 14.796875 37.75 14.796875 27.984375 
Q 14.796875 18.265625 18.828125 12.890625 
Q 22.859375 7.515625 30.078125 7.515625 
Q 37.359375 7.515625 41.375 12.890625 
Q 45.40625 18.265625 45.40625 27.984375 
z
M 54.390625 6.78125 
Q 54.390625 -7.171875 48.1875 -13.984375 
Q 42 -20.796875 29.203125 -20.796875 
Q 24.46875 -20.796875 20.265625 -20.09375 
Q 16.0625 -19.390625 12.109375 -17.921875 
L 12.109375 -9.1875 
Q 16.0625 -11.328125 19.921875 -12.34375 
Q 23.78125 -13.375 27.78125 -13.375 
Q 36.625 -13.375 41.015625 -8.765625 
Q 45.40625 -4.15625 45.40625 5.171875 
L 45.40625 9.625 
Q 42.625 4.78125 38.28125 2.390625 
Q 33.9375 0 27.875 0 
Q 17.828125 0 11.671875 7.65625 
Q 5.515625 15.328125 5.515625 27.984375 
Q 5.515625 40.671875 11.671875 48.328125 
Q 17.828125 56 27.875 56 
Q 33.9375 56 38.28125 53.609375 
Q 42.625 51.21875 45.40625 46.390625 
L 45.40625 54.6875 
L 54.390625 54.6875 
z
" id="DejaVuSans-67"/>
     <path d="M 30.609375 48.390625 
Q 23.390625 48.390625 19.1875 42.75 
Q 14.984375 37.109375 14.984375 27.296875 
Q 14.984375 17.484375 19.15625 11.84375 
Q 23.34375 6.203125 30.609375 6.203125 
Q 37.796875 6.203125 41.984375 11.859375 
Q 46.1875 17.53125 46.1875 27.296875 
Q 46.1875 37.015625 41.984375 42.703125 
Q 37.796875 48.390625 30.609375 48.390625 
z
M 30.609375 56 
Q 42.328125 56 49.015625 48.375 
Q 55.71875 40.765625 55.71875 27.296875 
Q 55.71875 13.875 49.015625 6.21875 
Q 42.328125 -1.421875 30.609375 -1.421875 
Q 18.84375 -1.421875 12.171875 6.21875 
Q 5.515625 13.875 5.515625 27.296875 
Q 5.515625 40.765625 12.171875 48.375 
Q 18.84375 56 30.609375 56 
z
" id="DejaVuSans-6f"/>
    </defs>
    <g transform="translate(166.0275 28.56)scale(0.12 -0.12)">
     <use xlink:href="#DejaVuSans-6c"/>
     <use x="27.783203" xlink:href="#DejaVuSans-32"/>
     <use x="91.40625" xlink:href="#DejaVuSans-77"/>
     <use x="173.193359" xlink:href="#DejaVuSans-30"/>
     <use x="236.816406" xlink:href="#DejaVuSans-30"/>
     <use x="300.439453" xlink:href="#DejaVuSans-30"/>
     <use x="364.0625" xlink:href="#DejaVuSans-31"/>
     <use x="427.685547" xlink:href="#DejaVuSans-20"/>
     <use x="459.472656" xlink:href="#DejaVuSans-3a"/>
     <use x="493.164062" xlink:href="#DejaVuSans-20"/>
     <use x="524.951172" xlink:href="#DejaVuSans-64"/>
     <use x="588.427734" xlink:href="#DejaVuSans-65"/>
     <use x="649.951172" xlink:href="#DejaVuSans-6c"/>
     <use x="677.734375" xlink:href="#DejaVuSans-61"/>
     <use x="739.013672" xlink:href="#DejaVuSans-79"/>
     <use x="798.193359" xlink:href="#DejaVuSans-67"/>
     <use x="861.669922" xlink:href="#DejaVuSans-6f"/>
    </g>
   </g>
   <g id="legend_1">
    <g id="patch_7">
     <path d="M 145.507031 181.753438 
L 297.292969 181.753438 
Q 299.292969 181.753438 299.292969 179.753438 
L 299.292969 106.806562 
Q 299.292969 104.806562 297.292969 104.806562 
L 145.507031 104.806562 
Q 143.507031 104.806562 143.507031 106.806562 
L 143.507031 179.753438 
Q 143.507031 181.753438 145.507031 181.753438 
z
" style="fill:#ffffff;opacity:0.8;stroke:#cccccc;stroke-linejoin:miter;"/>
    </g>
    <g id="line2d_19">
     <path d="M 147.507031 112.905 
L 167.507031 112.905 
" style="fill:none;stroke:#000000;stroke-linecap:square;stroke-width:1.5;"/>
    </g>
    <g id="line2d_20"/>
    <g id="text_15">
     <!-- dF/dx -->
     <defs>
      <path d="M 9.8125 72.90625 
L 51.703125 72.90625 
L 51.703125 64.59375 
L 19.671875 64.59375 
L 19.671875 43.109375 
L 48.578125 43.109375 
L 48.578125 34.8125 
L 19.671875 34.8125 
L 19.671875 0 
L 9.8125 0 
z
" id="DejaVuSans-46"/>
      <path d="M 25.390625 72.90625 
L 33.6875 72.90625 
L 8.296875 -9.28125 
L 0 -9.28125 
z
" id="DejaVuSans-2f"/>
      <path d="M 54.890625 54.6875 
L 35.109375 28.078125 
L 55.90625 0 
L 45.3125 0 
L 29.390625 21.484375 
L 13.484375 0 
L 2.875 0 
L 24.125 28.609375 
L 4.6875 54.6875 
L 15.28125 54.6875 
L 29.78125 35.203125 
L 44.28125 54.6875 
z
" id="DejaVuSans-78"/>
     </defs>
     <g transform="translate(175.507031 116.405)scale(0.1 -0.1)">
      <use xlink:href="#DejaVuSans-64"/>
      <use x="63.476562" xlink:href="#DejaVuSans-46"/>
      <use x="120.996094" xlink:href="#DejaVuSans-2f"/>
      <use x="154.6875" xlink:href="#DejaVuSans-64"/>
      <use x="218.164062" xlink:href="#DejaVuSans-78"/>
     </g>
    </g>
    <g id="line2d_21">
     <path d="M 147.507031 127.583125 
L 167.507031 127.583125 
" style="fill:none;stroke:#ff0000;stroke-linecap:square;stroke-width:1.5;"/>
    </g>
    <g id="line2d_22"/>
    <g id="text_16">
     <!-- dF/du [fixation] -->
     <defs>
      <path d="M 8.5 21.578125 
L 8.5 54.6875 
L 17.484375 54.6875 
L 17.484375 21.921875 
Q 17.484375 14.15625 20.5 10.265625 
Q 23.53125 6.390625 29.59375 6.390625 
Q 36.859375 6.390625 41.078125 11.03125 
Q 45.3125 15.671875 45.3125 23.6875 
L 45.3125 54.6875 
L 54.296875 54.6875 
L 54.296875 0 
L 45.3125 0 
L 45.3125 8.40625 
Q 42.046875 3.421875 37.71875 1 
Q 33.40625 -1.421875 27.6875 -1.421875 
Q 18.265625 -1.421875 13.375 4.4375 
Q 8.5 10.296875 8.5 21.578125 
z
M 31.109375 56 
z
" id="DejaVuSans-75"/>
      <path d="M 8.59375 75.984375 
L 29.296875 75.984375 
L 29.296875 69 
L 17.578125 69 
L 17.578125 -6.203125 
L 29.296875 -6.203125 
L 29.296875 -13.1875 
L 8.59375 -13.1875 
z
" id="DejaVuSans-5b"/>
      <path d="M 37.109375 75.984375 
L 37.109375 68.5 
L 28.515625 68.5 
Q 23.6875 68.5 21.796875 66.546875 
Q 19.921875 64.59375 19.921875 59.515625 
L 19.921875 54.6875 
L 34.71875 54.6875 
L 34.71875 47.703125 
L 19.921875 47.703125 
L 19.921875 0 
L 10.890625 0 
L 10.890625 47.703125 
L 2.296875 47.703125 
L 2.296875 54.6875 
L 10.890625 54.6875 
L 10.890625 58.5 
Q 10.890625 67.625 15.140625 71.796875 
Q 19.390625 75.984375 28.609375 75.984375 
z
" id="DejaVuSans-66"/>
      <path d="M 9.421875 54.6875 
L 18.40625 54.6875 
L 18.40625 0 
L 9.421875 0 
z
M 9.421875 75.984375 
L 18.40625 75.984375 
L 18.40625 64.59375 
L 9.421875 64.59375 
z
" id="DejaVuSans-69"/>
      <path d="M 18.3125 70.21875 
L 18.3125 54.6875 
L 36.8125 54.6875 
L 36.8125 47.703125 
L 18.3125 47.703125 
L 18.3125 18.015625 
Q 18.3125 11.328125 20.140625 9.421875 
Q 21.96875 7.515625 27.59375 7.515625 
L 36.8125 7.515625 
L 36.8125 0 
L 27.59375 0 
Q 17.1875 0 13.234375 3.875 
Q 9.28125 7.765625 9.28125 18.015625 
L 9.28125 47.703125 
L 2.6875 47.703125 
L 2.6875 54.6875 
L 9.28125 54.6875 
L 9.28125 70.21875 
z
" id="DejaVuSans-74"/>
      <path d="M 54.890625 33.015625 
L 54.890625 0 
L 45.90625 0 
L 45.90625 32.71875 
Q 45.90625 40.484375 42.875 44.328125 
Q 39.84375 48.1875 33.796875 48.1875 
Q 26.515625 48.1875 22.3125 43.546875 
Q 18.109375 38.921875 18.109375 30.90625 
L 18.109375 0 
L 9.078125 0 
L 9.078125 54.6875 
L 18.109375 54.6875 
L 18.109375 46.1875 
Q 21.34375 51.125 25.703125 53.5625 
Q 30.078125 56 35.796875 56 
Q 45.21875 56 50.046875 50.171875 
Q 54.890625 44.34375 54.890625 33.015625 
z
" id="DejaVuSans-6e"/>
      <path d="M 30.421875 75.984375 
L 30.421875 -13.1875 
L 9.71875 -13.1875 
L 9.71875 -6.203125 
L 21.390625 -6.203125 
L 21.390625 69 
L 9.71875 69 
L 9.71875 75.984375 
z
" id="DejaVuSans-5d"/>
     </defs>
     <g transform="translate(175.507031 131.083125)scale(0.1 -0.1)">
      <use xlink:href="#DejaVuSans-64"/>
      <use x="63.476562" xlink:href="#DejaVuSans-46"/>
      <use x="120.996094" xlink:href="#DejaVuSans-2f"/>
      <use x="154.6875" xlink:href="#DejaVuSans-64"/>
      <use x="218.164062" xlink:href="#DejaVuSans-75"/>
      <use x="281.542969" xlink:href="#DejaVuSans-20"/>
      <use x="313.330078" xlink:href="#DejaVuSans-5b"/>
      <use x="352.34375" xlink:href="#DejaVuSans-66"/>
      <use x="387.548828" xlink:href="#DejaVuSans-69"/>
      <use x="415.332031" xlink:href="#DejaVuSans-78"/>
      <use x="474.511719" xlink:href="#DejaVuSans-61"/>
      <use x="535.791016" xlink:href="#DejaVuSans-74"/>
      <use x="575" xlink:href="#DejaVuSans-69"/>
      <use x="602.783203" xlink:href="#DejaVuSans-6f"/>
      <use x="663.964844" xlink:href="#DejaVuSans-6e"/>
      <use x="727.34375" xlink:href="#DejaVuSans-5d"/>
     </g>
    </g>
    <g id="line2d_23">
     <path d="M 147.507031 142.26125 
L 167.507031 142.26125 
" style="fill:none;stroke:#0000ff;stroke-linecap:square;stroke-width:1.5;"/>
    </g>
    <g id="line2d_24"/>
    <g id="text_17">
     <!-- dF/du [stimulus] -->
     <defs>
      <path d="M 44.28125 53.078125 
L 44.28125 44.578125 
Q 40.484375 46.53125 36.375 47.5 
Q 32.28125 48.484375 27.875 48.484375 
Q 21.1875 48.484375 17.84375 46.4375 
Q 14.5 44.390625 14.5 40.28125 
Q 14.5 37.15625 16.890625 35.375 
Q 19.28125 33.59375 26.515625 31.984375 
L 29.59375 31.296875 
Q 39.15625 29.25 43.1875 25.515625 
Q 47.21875 21.78125 47.21875 15.09375 
Q 47.21875 7.46875 41.1875 3.015625 
Q 35.15625 -1.421875 24.609375 -1.421875 
Q 20.21875 -1.421875 15.453125 -0.5625 
Q 10.6875 0.296875 5.421875 2 
L 5.421875 11.28125 
Q 10.40625 8.6875 15.234375 7.390625 
Q 20.0625 6.109375 24.8125 6.109375 
Q 31.15625 6.109375 34.5625 8.28125 
Q 37.984375 10.453125 37.984375 14.40625 
Q 37.984375 18.0625 35.515625 20.015625 
Q 33.0625 21.96875 24.703125 23.78125 
L 21.578125 24.515625 
Q 13.234375 26.265625 9.515625 29.90625 
Q 5.8125 33.546875 5.8125 39.890625 
Q 5.8125 47.609375 11.28125 51.796875 
Q 16.75 56 26.8125 56 
Q 31.78125 56 36.171875 55.265625 
Q 40.578125 54.546875 44.28125 53.078125 
z
" id="DejaVuSans-73"/>
      <path d="M 52 44.1875 
Q 55.375 50.25 60.0625 53.125 
Q 64.75 56 71.09375 56 
Q 79.640625 56 84.28125 50.015625 
Q 88.921875 44.046875 88.921875 33.015625 
L 88.921875 0 
L 79.890625 0 
L 79.890625 32.71875 
Q 79.890625 40.578125 77.09375 44.375 
Q 74.3125 48.1875 68.609375 48.1875 
Q 61.625 48.1875 57.5625 43.546875 
Q 53.515625 38.921875 53.515625 30.90625 
L 53.515625 0 
L 44.484375 0 
L 44.484375 32.71875 
Q 44.484375 40.625 41.703125 44.40625 
Q 38.921875 48.1875 33.109375 48.1875 
Q 26.21875 48.1875 22.15625 43.53125 
Q 18.109375 38.875 18.109375 30.90625 
L 18.109375 0 
L 9.078125 0 
L 9.078125 54.6875 
L 18.109375 54.6875 
L 18.109375 46.1875 
Q 21.1875 51.21875 25.484375 53.609375 
Q 29.78125 56 35.6875 56 
Q 41.65625 56 45.828125 52.96875 
Q 50 49.953125 52 44.1875 
z
" id="DejaVuSans-6d"/>
     </defs>
     <g transform="translate(175.507031 145.76125)scale(0.1 -0.1)">
      <use xlink:href="#DejaVuSans-64"/>
      <use x="63.476562" xlink:href="#DejaVuSans-46"/>
      <use x="120.996094" xlink:href="#DejaVuSans-2f"/>
      <use x="154.6875" xlink:href="#DejaVuSans-64"/>
      <use x="218.164062" xlink:href="#DejaVuSans-75"/>
      <use x="281.542969" xlink:href="#DejaVuSans-20"/>
      <use x="313.330078" xlink:href="#DejaVuSans-5b"/>
      <use x="352.34375" xlink:href="#DejaVuSans-73"/>
      <use x="404.443359" xlink:href="#DejaVuSans-74"/>
      <use x="443.652344" xlink:href="#DejaVuSans-69"/>
      <use x="471.435547" xlink:href="#DejaVuSans-6d"/>
      <use x="568.847656" xlink:href="#DejaVuSans-75"/>
      <use x="632.226562" xlink:href="#DejaVuSans-6c"/>
      <use x="660.009766" xlink:href="#DejaVuSans-75"/>
      <use x="723.388672" xlink:href="#DejaVuSans-73"/>
      <use x="775.488281" xlink:href="#DejaVuSans-5d"/>
     </g>
    </g>
    <g id="line2d_25">
     <path d="M 147.507031 156.939375 
L 167.507031 156.939375 
" style="fill:none;stroke:#008000;stroke-linecap:square;stroke-width:1.5;"/>
    </g>
    <g id="line2d_26"/>
    <g id="text_18">
     <!-- dF/du [context_all] -->
     <defs>
      <path d="M 48.78125 52.59375 
L 48.78125 44.1875 
Q 44.96875 46.296875 41.140625 47.34375 
Q 37.3125 48.390625 33.40625 48.390625 
Q 24.65625 48.390625 19.8125 42.84375 
Q 14.984375 37.3125 14.984375 27.296875 
Q 14.984375 17.28125 19.8125 11.734375 
Q 24.65625 6.203125 33.40625 6.203125 
Q 37.3125 6.203125 41.140625 7.25 
Q 44.96875 8.296875 48.78125 10.40625 
L 48.78125 2.09375 
Q 45.015625 0.34375 40.984375 -0.53125 
Q 36.96875 -1.421875 32.421875 -1.421875 
Q 20.0625 -1.421875 12.78125 6.34375 
Q 5.515625 14.109375 5.515625 27.296875 
Q 5.515625 40.671875 12.859375 48.328125 
Q 20.21875 56 33.015625 56 
Q 37.15625 56 41.109375 55.140625 
Q 45.0625 54.296875 48.78125 52.59375 
z
" id="DejaVuSans-63"/>
      <path d="M 50.984375 -16.609375 
L 50.984375 -23.578125 
L -0.984375 -23.578125 
L -0.984375 -16.609375 
z
" id="DejaVuSans-5f"/>
     </defs>
     <g transform="translate(175.507031 160.439375)scale(0.1 -0.1)">
      <use xlink:href="#DejaVuSans-64"/>
      <use x="63.476562" xlink:href="#DejaVuSans-46"/>
      <use x="120.996094" xlink:href="#DejaVuSans-2f"/>
      <use x="154.6875" xlink:href="#DejaVuSans-64"/>
      <use x="218.164062" xlink:href="#DejaVuSans-75"/>
      <use x="281.542969" xlink:href="#DejaVuSans-20"/>
      <use x="313.330078" xlink:href="#DejaVuSans-5b"/>
      <use x="352.34375" xlink:href="#DejaVuSans-63"/>
      <use x="407.324219" xlink:href="#DejaVuSans-6f"/>
      <use x="468.505859" xlink:href="#DejaVuSans-6e"/>
      <use x="531.884766" xlink:href="#DejaVuSans-74"/>
      <use x="571.09375" xlink:href="#DejaVuSans-65"/>
      <use x="632.601562" xlink:href="#DejaVuSans-78"/>
      <use x="691.78125" xlink:href="#DejaVuSans-74"/>
      <use x="730.990234" xlink:href="#DejaVuSans-5f"/>
      <use x="780.990234" xlink:href="#DejaVuSans-61"/>
      <use x="842.269531" xlink:href="#DejaVuSans-6c"/>
      <use x="870.052734" xlink:href="#DejaVuSans-6c"/>
      <use x="897.835938" xlink:href="#DejaVuSans-5d"/>
     </g>
    </g>
    <g id="line2d_27">
     <path d="M 147.507031 171.895625 
L 167.507031 171.895625 
" style="fill:none;stroke:#00bfbf;stroke-linecap:square;stroke-width:1.5;"/>
    </g>
    <g id="line2d_28"/>
    <g id="text_19">
     <!-- dF/du [context_specific] -->
     <defs>
      <path d="M 18.109375 8.203125 
L 18.109375 -20.796875 
L 9.078125 -20.796875 
L 9.078125 54.6875 
L 18.109375 54.6875 
L 18.109375 46.390625 
Q 20.953125 51.265625 25.265625 53.625 
Q 29.59375 56 35.59375 56 
Q 45.5625 56 51.78125 48.09375 
Q 58.015625 40.1875 58.015625 27.296875 
Q 58.015625 14.40625 51.78125 6.484375 
Q 45.5625 -1.421875 35.59375 -1.421875 
Q 29.59375 -1.421875 25.265625 0.953125 
Q 20.953125 3.328125 18.109375 8.203125 
z
M 48.6875 27.296875 
Q 48.6875 37.203125 44.609375 42.84375 
Q 40.53125 48.484375 33.40625 48.484375 
Q 26.265625 48.484375 22.1875 42.84375 
Q 18.109375 37.203125 18.109375 27.296875 
Q 18.109375 17.390625 22.1875 11.75 
Q 26.265625 6.109375 33.40625 6.109375 
Q 40.53125 6.109375 44.609375 11.75 
Q 48.6875 17.390625 48.6875 27.296875 
z
" id="DejaVuSans-70"/>
     </defs>
     <g transform="translate(175.507031 175.395625)scale(0.1 -0.1)">
      <use xlink:href="#DejaVuSans-64"/>
      <use x="63.476562" xlink:href="#DejaVuSans-46"/>
      <use x="120.996094" xlink:href="#DejaVuSans-2f"/>
      <use x="154.6875" xlink:href="#DejaVuSans-64"/>
      <use x="218.164062" xlink:href="#DejaVuSans-75"/>
      <use x="281.542969" xlink:href="#DejaVuSans-20"/>
      <use x="313.330078" xlink:href="#DejaVuSans-5b"/>
      <use x="352.34375" xlink:href="#DejaVuSans-63"/>
      <use x="407.324219" xlink:href="#DejaVuSans-6f"/>
      <use x="468.505859" xlink:href="#DejaVuSans-6e"/>
      <use x="531.884766" xlink:href="#DejaVuSans-74"/>
      <use x="571.09375" xlink:href="#DejaVuSans-65"/>
      <use x="632.601562" xlink:href="#DejaVuSans-78"/>
      <use x="691.78125" xlink:href="#DejaVuSans-74"/>
      <use x="730.990234" xlink:href="#DejaVuSans-5f"/>
      <use x="780.990234" xlink:href="#DejaVuSans-73"/>
      <use x="833.089844" xlink:href="#DejaVuSans-70"/>
      <use x="896.566406" xlink:href="#DejaVuSans-65"/>
      <use x="958.089844" xlink:href="#DejaVuSans-63"/>
      <use x="1013.070312" xlink:href="#DejaVuSans-69"/>
      <use x="1040.853516" xlink:href="#DejaVuSans-66"/>
      <use x="1076.058594" xlink:href="#DejaVuSans-69"/>
      <use x="1103.841797" xlink:href="#DejaVuSans-63"/>
      <use x="1158.822266" xlink:href="#DejaVuSans-5d"/>
     </g>
    </g>
   </g>
  </g>
 </g>
 <defs>
  <clipPath id="p5dae42193b">
   <rect height="217.44" width="334.8" x="54" y="34.56"/>
  </clipPath>
 </defs>
</svg>
