<?xml version="1.0" encoding="utf-8" standalone="no"?>
<!DOCTYPE svg PUBLIC "-//W3C//DTD SVG 1.1//EN"
  "http://www.w3.org/Graphics/SVG/1.1/DTD/svg11.dtd">
<!-- Created with matplotlib (http://matplotlib.org/) -->
<svg height="288pt" version="1.1" viewBox="0 0 432 288" width="432pt" xmlns="http://www.w3.org/2000/svg" xmlns:xlink="http://www.w3.org/1999/xlink">
 <defs>
  <style type="text/css">
*{stroke-linecap:butt;stroke-linejoin:round;}
  </style>
 </defs>
 <g id="figure_1">
  <g id="patch_1">
   <path d="M 0 288 
L 432 288 
L 432 0 
L 0 0 
z
" style="fill:#ffffff;"/>
  </g>
  <g id="axes_1">
   <g id="patch_2">
    <path d="M 54 252 
L 388.8 252 
L 388.8 34.56 
L 54 34.56 
z
" style="fill:#ffffff;"/>
   </g>
   <g id="matplotlib.axis_1">
    <g id="xtick_1">
     <g id="line2d_1">
      <defs>
       <path d="M 0 0 
L 0 3.5 
" id="m9510ed029d" style="stroke:#000000;stroke-width:0.8;"/>
      </defs>
      <g>
       <use style="stroke:#000000;stroke-width:0.8;" x="69.218182" xlink:href="#m9510ed029d" y="252"/>
      </g>
     </g>
     <g id="text_1">
      <!-- 0 -->
      <defs>
       <path d="M 31.78125 66.40625 
Q 24.171875 66.40625 20.328125 58.90625 
Q 16.5 51.421875 16.5 36.375 
Q 16.5 21.390625 20.328125 13.890625 
Q 24.171875 6.390625 31.78125 6.390625 
Q 39.453125 6.390625 43.28125 13.890625 
Q 47.125 21.390625 47.125 36.375 
Q 47.125 51.421875 43.28125 58.90625 
Q 39.453125 66.40625 31.78125 66.40625 
z
M 31.78125 74.21875 
Q 44.046875 74.21875 50.515625 64.515625 
Q 56.984375 54.828125 56.984375 36.375 
Q 56.984375 17.96875 50.515625 8.265625 
Q 44.046875 -1.421875 31.78125 -1.421875 
Q 19.53125 -1.421875 13.0625 8.265625 
Q 6.59375 17.96875 6.59375 36.375 
Q 6.59375 54.828125 13.0625 64.515625 
Q 19.53125 74.21875 31.78125 74.21875 
z
" id="DejaVuSans-30"/>
      </defs>
      <g transform="translate(66.036932 266.598437)scale(0.1 -0.1)">
       <use xlink:href="#DejaVuSans-30"/>
      </g>
     </g>
    </g>
    <g id="xtick_2">
     <g id="line2d_2">
      <g>
       <use style="stroke:#000000;stroke-width:0.8;" x="118.309091" xlink:href="#m9510ed029d" y="252"/>
      </g>
     </g>
     <g id="text_2">
      <!-- 20 -->
      <defs>
       <path d="M 19.1875 8.296875 
L 53.609375 8.296875 
L 53.609375 0 
L 7.328125 0 
L 7.328125 8.296875 
Q 12.9375 14.109375 22.625 23.890625 
Q 32.328125 33.6875 34.8125 36.53125 
Q 39.546875 41.84375 41.421875 45.53125 
Q 43.3125 49.21875 43.3125 52.78125 
Q 43.3125 58.59375 39.234375 62.25 
Q 35.15625 65.921875 28.609375 65.921875 
Q 23.96875 65.921875 18.8125 64.3125 
Q 13.671875 62.703125 7.8125 59.421875 
L 7.8125 69.390625 
Q 13.765625 71.78125 18.9375 73 
Q 24.125 74.21875 28.421875 74.21875 
Q 39.75 74.21875 46.484375 68.546875 
Q 53.21875 62.890625 53.21875 53.421875 
Q 53.21875 48.921875 51.53125 44.890625 
Q 49.859375 40.875 45.40625 35.40625 
Q 44.1875 33.984375 37.640625 27.21875 
Q 31.109375 20.453125 19.1875 8.296875 
z
" id="DejaVuSans-32"/>
      </defs>
      <g transform="translate(111.946591 266.598437)scale(0.1 -0.1)">
       <use xlink:href="#DejaVuSans-32"/>
       <use x="63.623047" xlink:href="#DejaVuSans-30"/>
      </g>
     </g>
    </g>
    <g id="xtick_3">
     <g id="line2d_3">
      <g>
       <use style="stroke:#000000;stroke-width:0.8;" x="167.4" xlink:href="#m9510ed029d" y="252"/>
      </g>
     </g>
     <g id="text_3">
      <!-- 40 -->
      <defs>
       <path d="M 37.796875 64.3125 
L 12.890625 25.390625 
L 37.796875 25.390625 
z
M 35.203125 72.90625 
L 47.609375 72.90625 
L 47.609375 25.390625 
L 58.015625 25.390625 
L 58.015625 17.1875 
L 47.609375 17.1875 
L 47.609375 0 
L 37.796875 0 
L 37.796875 17.1875 
L 4.890625 17.1875 
L 4.890625 26.703125 
z
" id="DejaVuSans-34"/>
      </defs>
      <g transform="translate(161.0375 266.598437)scale(0.1 -0.1)">
       <use xlink:href="#DejaVuSans-34"/>
       <use x="63.623047" xlink:href="#DejaVuSans-30"/>
      </g>
     </g>
    </g>
    <g id="xtick_4">
     <g id="line2d_4">
      <g>
       <use style="stroke:#000000;stroke-width:0.8;" x="216.490909" xlink:href="#m9510ed029d" y="252"/>
      </g>
     </g>
     <g id="text_4">
      <!-- 60 -->
      <defs>
       <path d="M 33.015625 40.375 
Q 26.375 40.375 22.484375 35.828125 
Q 18.609375 31.296875 18.609375 23.390625 
Q 18.609375 15.53125 22.484375 10.953125 
Q 26.375 6.390625 33.015625 6.390625 
Q 39.65625 6.390625 43.53125 10.953125 
Q 47.40625 15.53125 47.40625 23.390625 
Q 47.40625 31.296875 43.53125 35.828125 
Q 39.65625 40.375 33.015625 40.375 
z
M 52.59375 71.296875 
L 52.59375 62.3125 
Q 48.875 64.0625 45.09375 64.984375 
Q 41.3125 65.921875 37.59375 65.921875 
Q 27.828125 65.921875 22.671875 59.328125 
Q 17.53125 52.734375 16.796875 39.40625 
Q 19.671875 43.65625 24.015625 45.921875 
Q 28.375 48.1875 33.59375 48.1875 
Q 44.578125 48.1875 50.953125 41.515625 
Q 57.328125 34.859375 57.328125 23.390625 
Q 57.328125 12.15625 50.6875 5.359375 
Q 44.046875 -1.421875 33.015625 -1.421875 
Q 20.359375 -1.421875 13.671875 8.265625 
Q 6.984375 17.96875 6.984375 36.375 
Q 6.984375 53.65625 15.1875 63.9375 
Q 23.390625 74.21875 37.203125 74.21875 
Q 40.921875 74.21875 44.703125 73.484375 
Q 48.484375 72.75 52.59375 71.296875 
z
" id="DejaVuSans-36"/>
      </defs>
      <g transform="translate(210.128409 266.598437)scale(0.1 -0.1)">
       <use xlink:href="#DejaVuSans-36"/>
       <use x="63.623047" xlink:href="#DejaVuSans-30"/>
      </g>
     </g>
    </g>
    <g id="xtick_5">
     <g id="line2d_5">
      <g>
       <use style="stroke:#000000;stroke-width:0.8;" x="265.581818" xlink:href="#m9510ed029d" y="252"/>
      </g>
     </g>
     <g id="text_5">
      <!-- 80 -->
      <defs>
       <path d="M 31.78125 34.625 
Q 24.75 34.625 20.71875 30.859375 
Q 16.703125 27.09375 16.703125 20.515625 
Q 16.703125 13.921875 20.71875 10.15625 
Q 24.75 6.390625 31.78125 6.390625 
Q 38.8125 6.390625 42.859375 10.171875 
Q 46.921875 13.96875 46.921875 20.515625 
Q 46.921875 27.09375 42.890625 30.859375 
Q 38.875 34.625 31.78125 34.625 
z
M 21.921875 38.8125 
Q 15.578125 40.375 12.03125 44.71875 
Q 8.5 49.078125 8.5 55.328125 
Q 8.5 64.0625 14.71875 69.140625 
Q 20.953125 74.21875 31.78125 74.21875 
Q 42.671875 74.21875 48.875 69.140625 
Q 55.078125 64.0625 55.078125 55.328125 
Q 55.078125 49.078125 51.53125 44.71875 
Q 48 40.375 41.703125 38.8125 
Q 48.828125 37.15625 52.796875 32.3125 
Q 56.78125 27.484375 56.78125 20.515625 
Q 56.78125 9.90625 50.3125 4.234375 
Q 43.84375 -1.421875 31.78125 -1.421875 
Q 19.734375 -1.421875 13.25 4.234375 
Q 6.78125 9.90625 6.78125 20.515625 
Q 6.78125 27.484375 10.78125 32.3125 
Q 14.796875 37.15625 21.921875 38.8125 
z
M 18.3125 54.390625 
Q 18.3125 48.734375 21.84375 45.5625 
Q 25.390625 42.390625 31.78125 42.390625 
Q 38.140625 42.390625 41.71875 45.5625 
Q 45.3125 48.734375 45.3125 54.390625 
Q 45.3125 60.0625 41.71875 63.234375 
Q 38.140625 66.40625 31.78125 66.40625 
Q 25.390625 66.40625 21.84375 63.234375 
Q 18.3125 60.0625 18.3125 54.390625 
z
" id="DejaVuSans-38"/>
      </defs>
      <g transform="translate(259.219318 266.598437)scale(0.1 -0.1)">
       <use xlink:href="#DejaVuSans-38"/>
       <use x="63.623047" xlink:href="#DejaVuSans-30"/>
      </g>
     </g>
    </g>
    <g id="xtick_6">
     <g id="line2d_6">
      <g>
       <use style="stroke:#000000;stroke-width:0.8;" x="314.672727" xlink:href="#m9510ed029d" y="252"/>
      </g>
     </g>
     <g id="text_6">
      <!-- 100 -->
      <defs>
       <path d="M 12.40625 8.296875 
L 28.515625 8.296875 
L 28.515625 63.921875 
L 10.984375 60.40625 
L 10.984375 69.390625 
L 28.421875 72.90625 
L 38.28125 72.90625 
L 38.28125 8.296875 
L 54.390625 8.296875 
L 54.390625 0 
L 12.40625 0 
z
" id="DejaVuSans-31"/>
      </defs>
      <g transform="translate(305.128977 266.598437)scale(0.1 -0.1)">
       <use xlink:href="#DejaVuSans-31"/>
       <use x="63.623047" xlink:href="#DejaVuSans-30"/>
       <use x="127.246094" xlink:href="#DejaVuSans-30"/>
      </g>
     </g>
    </g>
    <g id="xtick_7">
     <g id="line2d_7">
      <g>
       <use style="stroke:#000000;stroke-width:0.8;" x="363.763636" xlink:href="#m9510ed029d" y="252"/>
      </g>
     </g>
     <g id="text_7">
      <!-- 120 -->
      <g transform="translate(354.219886 266.598437)scale(0.1 -0.1)">
       <use xlink:href="#DejaVuSans-31"/>
       <use x="63.623047" xlink:href="#DejaVuSans-32"/>
       <use x="127.246094" xlink:href="#DejaVuSans-30"/>
      </g>
     </g>
    </g>
   </g>
   <g id="matplotlib.axis_2">
    <g id="ytick_1">
     <g id="line2d_8">
      <defs>
       <path d="M 0 0 
L -3.5 0 
" id="md0b1a07ea6" style="stroke:#000000;stroke-width:0.8;"/>
      </defs>
      <g>
       <use style="stroke:#000000;stroke-width:0.8;" x="54" xlink:href="#md0b1a07ea6" y="242.382516"/>
      </g>
     </g>
     <g id="text_8">
      <!-- 0.0 -->
      <defs>
       <path d="M 10.6875 12.40625 
L 21 12.40625 
L 21 0 
L 10.6875 0 
z
" id="DejaVuSans-2e"/>
      </defs>
      <g transform="translate(31.096875 246.181734)scale(0.1 -0.1)">
       <use xlink:href="#DejaVuSans-30"/>
       <use x="63.623047" xlink:href="#DejaVuSans-2e"/>
       <use x="95.410156" xlink:href="#DejaVuSans-30"/>
      </g>
     </g>
    </g>
    <g id="ytick_2">
     <g id="line2d_9">
      <g>
       <use style="stroke:#000000;stroke-width:0.8;" x="54" xlink:href="#md0b1a07ea6" y="202.159572"/>
      </g>
     </g>
     <g id="text_9">
      <!-- 0.2 -->
      <g transform="translate(31.096875 205.95879)scale(0.1 -0.1)">
       <use xlink:href="#DejaVuSans-30"/>
       <use x="63.623047" xlink:href="#DejaVuSans-2e"/>
       <use x="95.410156" xlink:href="#DejaVuSans-32"/>
      </g>
     </g>
    </g>
    <g id="ytick_3">
     <g id="line2d_10">
      <g>
       <use style="stroke:#000000;stroke-width:0.8;" x="54" xlink:href="#md0b1a07ea6" y="161.936627"/>
      </g>
     </g>
     <g id="text_10">
      <!-- 0.4 -->
      <g transform="translate(31.096875 165.735846)scale(0.1 -0.1)">
       <use xlink:href="#DejaVuSans-30"/>
       <use x="63.623047" xlink:href="#DejaVuSans-2e"/>
       <use x="95.410156" xlink:href="#DejaVuSans-34"/>
      </g>
     </g>
    </g>
    <g id="ytick_4">
     <g id="line2d_11">
      <g>
       <use style="stroke:#000000;stroke-width:0.8;" x="54" xlink:href="#md0b1a07ea6" y="121.713683"/>
      </g>
     </g>
     <g id="text_11">
      <!-- 0.6 -->
      <g transform="translate(31.096875 125.512902)scale(0.1 -0.1)">
       <use xlink:href="#DejaVuSans-30"/>
       <use x="63.623047" xlink:href="#DejaVuSans-2e"/>
       <use x="95.410156" xlink:href="#DejaVuSans-36"/>
      </g>
     </g>
    </g>
    <g id="ytick_5">
     <g id="line2d_12">
      <g>
       <use style="stroke:#000000;stroke-width:0.8;" x="54" xlink:href="#md0b1a07ea6" y="81.490739"/>
      </g>
     </g>
     <g id="text_12">
      <!-- 0.8 -->
      <g transform="translate(31.096875 85.289958)scale(0.1 -0.1)">
       <use xlink:href="#DejaVuSans-30"/>
       <use x="63.623047" xlink:href="#DejaVuSans-2e"/>
       <use x="95.410156" xlink:href="#DejaVuSans-38"/>
      </g>
     </g>
    </g>
    <g id="ytick_6">
     <g id="line2d_13">
      <g>
       <use style="stroke:#000000;stroke-width:0.8;" x="54" xlink:href="#md0b1a07ea6" y="41.267795"/>
      </g>
     </g>
     <g id="text_13">
      <!-- 1.0 -->
      <g transform="translate(31.096875 45.067013)scale(0.1 -0.1)">
       <use xlink:href="#DejaVuSans-31"/>
       <use x="63.623047" xlink:href="#DejaVuSans-2e"/>
       <use x="95.410156" xlink:href="#DejaVuSans-30"/>
      </g>
     </g>
    </g>
   </g>
   <g id="line2d_14">
    <path clip-path="url(#pec7d213ebe)" d="M 69.218182 81.475674 
L 71.672727 81.453883 
L 74.127273 81.394113 
L 76.581818 81.2549 
L 79.036364 81.006271 
L 81.490909 80.655384 
L 83.945455 80.279694 
L 86.4 80.01682 
L 88.854545 79.90561 
L 91.309091 79.876435 
L 93.763636 79.873172 
L 96.218182 79.874754 
L 98.672727 79.875116 
L 101.127273 79.872431 
L 103.581818 79.865927 
L 106.036364 79.855188 
L 108.490909 79.840056 
L 110.945455 79.820616 
L 113.4 79.797163 
L 115.854545 79.770152 
L 118.309091 79.74014 
L 120.763636 79.70774 
L 123.218182 79.673582 
L 125.672727 79.638279 
L 128.127273 79.602411 
L 130.581818 77.385126 
L 133.036364 76.837099 
L 135.490909 76.22039 
L 137.945455 75.671582 
L 140.4 75.253649 
L 142.854545 75.000785 
L 145.309091 74.948592 
L 147.763636 75.107488 
L 150.218182 75.432354 
L 152.672727 75.850001 
L 155.127273 76.292751 
L 157.581818 76.712589 
L 160.036364 77.084109 
L 162.490909 77.400071 
L 164.945455 77.6637 
L 167.4 77.882207 
L 169.854545 78.06308 
L 172.309091 78.212617 
L 174.763636 78.335706 
L 177.218182 78.436081 
L 179.672727 78.51669 
L 182.127273 78.579993 
L 184.581818 78.62814 
L 187.036364 78.663083 
L 189.490909 78.68662 
L 191.945455 78.782243 
L 194.4 78.890725 
L 196.854545 78.968768 
L 199.309091 79.018209 
L 201.763636 79.043856 
L 204.218182 79.052087 
L 206.672727 79.049292 
L 209.127273 79.040789 
L 211.581818 79.030377 
L 214.036364 79.020366 
L 216.490909 79.011887 
L 218.945455 79.005287 
L 221.4 79.000453 
L 223.854545 78.997068 
L 226.309091 78.994756 
L 228.763636 78.993174 
L 231.218182 78.992033 
L 233.672727 78.991126 
L 236.127273 78.990311 
L 238.581818 78.989501 
L 241.036364 78.988655 
L 243.490909 78.987762 
L 245.945455 78.986835 
L 248.4 78.985895 
L 250.854545 78.984976 
L 253.309091 78.984109 
L 255.763636 78.983328 
L 258.218182 78.982661 
L 260.672727 78.982133 
L 263.127273 78.981766 
L 265.581818 78.981574 
L 268.036364 78.981571 
L 270.490909 78.981761 
L 272.945455 78.982147 
L 275.4 78.982732 
L 277.854545 78.98351 
L 280.309091 78.984475 
L 282.763636 78.98562 
L 285.218182 78.986938 
L 287.672727 78.988417 
L 290.127273 78.990048 
L 292.581818 78.991819 
L 295.036364 78.99372 
L 297.490909 78.995739 
L 299.945455 78.997866 
L 302.4 79.000092 
L 304.854545 79.002407 
L 307.309091 79.0048 
L 309.763636 79.007262 
L 312.218182 79.009789 
L 314.672727 68.295848 
L 317.127273 63.247365 
L 319.581818 44.443636 
L 322.036364 57.233264 
L 324.490909 74.888175 
L 326.945455 75.789645 
L 329.4 75.788375 
L 331.854545 75.671061 
L 334.309091 75.604416 
L 336.763636 75.591861 
L 339.218182 75.598552 
L 341.672727 75.5991 
L 344.127273 75.584903 
L 346.581818 75.557436 
L 349.036364 75.521615 
L 351.490909 75.482108 
L 353.945455 75.442218 
L 356.4 75.403895 
L 358.854545 75.368159 
L 361.309091 75.33542 
L 363.763636 75.305797 
L 366.218182 75.279215 
L 368.672727 75.255528 
L 371.127273 75.234549 
L 373.581818 75.216083 
" style="fill:none;stroke:#000000;stroke-linecap:square;stroke-width:1.5;"/>
   </g>
   <g id="line2d_15">
    <path clip-path="url(#pec7d213ebe)" d="M 69.218182 242.101946 
L 71.672727 241.839041 
L 74.127273 241.392804 
L 76.581818 240.715649 
L 79.036364 239.772085 
L 81.490909 238.599802 
L 83.945455 237.450834 
L 86.4 236.655548 
L 88.854545 236.248375 
L 91.309091 236.048707 
L 93.763636 235.924175 
L 96.218182 235.822305 
L 98.672727 235.725833 
L 101.127273 235.628843 
L 103.581818 235.52901 
L 106.036364 235.425396 
L 108.490909 235.317816 
L 110.945455 235.206585 
L 113.4 235.092366 
L 115.854545 234.976029 
L 118.309091 234.858551 
L 120.763636 234.740933 
L 123.218182 234.624132 
L 125.672727 234.509027 
L 128.127273 234.396391 
L 130.581818 232.088336 
L 133.036364 231.688411 
L 135.490909 231.313672 
L 137.945455 230.96551 
L 140.4 230.507319 
L 142.854545 229.859968 
L 145.309091 229.1684 
L 147.763636 228.65209 
L 150.218182 228.390741 
L 152.672727 228.333646 
L 155.127273 228.394876 
L 157.581818 228.509254 
L 160.036364 228.642073 
L 162.490909 228.777214 
L 164.945455 228.904617 
L 167.4 229.014907 
L 169.854545 229.099193 
L 172.309091 229.150453 
L 174.763636 229.164479 
L 177.218182 229.140068 
L 179.672727 229.078677 
L 182.127273 228.983838 
L 184.581818 228.860497 
L 187.036364 228.714481 
L 189.490909 228.551973 
L 191.945455 228.317885 
L 194.4 227.869592 
L 196.854545 227.467466 
L 199.309091 227.124498 
L 201.763636 226.846507 
L 204.218182 226.635239 
L 206.672727 226.488652 
L 209.127273 226.400816 
L 211.581818 226.362538 
L 214.036364 226.362677 
L 216.490909 226.38968 
L 218.945455 226.432895 
L 221.4 226.483382 
L 223.854545 226.534263 
L 226.309091 226.580631 
L 228.763636 226.619352 
L 231.218182 226.648648 
L 233.672727 226.667805 
L 236.127273 226.676857 
L 238.581818 226.676324 
L 241.036364 226.667041 
L 243.490909 226.650022 
L 245.945455 226.626361 
L 248.4 226.597158 
L 250.854545 226.563484 
L 253.309091 226.526352 
L 255.763636 226.486685 
L 258.218182 226.445322 
L 260.672727 226.403015 
L 263.127273 226.360393 
L 265.581818 226.318025 
L 268.036364 226.27637 
L 270.490909 226.235819 
L 272.945455 226.196662 
L 275.4 226.159144 
L 277.854545 226.12344 
L 280.309091 226.089665 
L 282.763636 226.057891 
L 285.218182 226.028159 
L 287.672727 226.000465 
L 290.127273 225.974781 
L 292.581818 225.951062 
L 295.036364 225.929241 
L 297.490909 225.909246 
L 299.945455 225.890987 
L 302.4 225.874378 
L 304.854545 225.859334 
L 307.309091 225.845751 
L 309.763636 225.833546 
L 312.218182 225.822628 
L 314.672727 72.713768 
L 317.127273 61.749037 
L 319.581818 74.326989 
L 322.036364 195.70708 
L 324.490909 220.82668 
L 326.945455 223.050431 
L 329.4 223.287298 
L 331.854545 223.123656 
L 334.309091 222.972039 
L 336.763636 222.889354 
L 339.218182 222.83551 
L 341.672727 222.774064 
L 344.127273 222.692834 
L 346.581818 222.595445 
L 349.036364 222.490777 
L 351.490909 222.386782 
L 353.945455 222.288664 
L 356.4 222.199051 
L 358.854545 222.118865 
L 361.309091 222.047982 
L 363.763636 221.985836 
L 366.218182 221.931617 
L 368.672727 221.884493 
L 371.127273 221.843654 
L 373.581818 221.808376 
" style="fill:none;stroke:#ff0000;stroke-linecap:square;stroke-width:1.5;"/>
   </g>
   <g id="line2d_16">
    <path clip-path="url(#pec7d213ebe)" d="M 69.218182 242.116364 
L 71.672727 241.886973 
L 74.127273 241.443872 
L 76.581818 240.530179 
L 79.036364 238.764499 
L 81.490909 236.071397 
L 83.945455 233.16814 
L 86.4 231.054466 
L 88.854545 229.907215 
L 91.309091 229.292935 
L 93.763636 228.882154 
L 96.218182 228.545021 
L 98.672727 228.240476 
L 101.127273 227.955847 
L 103.581818 227.68665 
L 106.036364 227.43063 
L 108.490909 227.186091 
L 110.945455 226.951472 
L 113.4 226.725309 
L 115.854545 226.506299 
L 118.309091 226.29338 
L 120.763636 226.08579 
L 123.218182 225.883079 
L 125.672727 225.685102 
L 128.127273 225.491986 
L 130.581818 188.088094 
L 133.036364 184.569858 
L 135.490909 181.901286 
L 137.945455 180.394123 
L 140.4 180.10687 
L 142.854545 180.999264 
L 145.309091 182.939146 
L 147.763636 185.696901 
L 150.218182 188.992266 
L 152.672727 192.551679 
L 155.127273 196.114974 
L 157.581818 199.451515 
L 160.036364 202.40087 
L 162.490909 204.892023 
L 164.945455 206.928309 
L 167.4 208.557372 
L 169.854545 209.8441 
L 172.309091 210.853353 
L 174.763636 211.641893 
L 177.218182 212.256278 
L 179.672727 212.733784 
L 182.127273 213.104115 
L 184.581818 213.391146 
L 187.036364 213.614221 
L 189.490909 213.78901 
L 191.945455 225.801872 
L 194.4 226.949142 
L 196.854545 227.91236 
L 199.309091 228.661024 
L 201.763636 229.200143 
L 204.218182 229.559116 
L 206.672727 229.777994 
L 209.127273 229.896721 
L 211.581818 229.949166 
L 214.036364 229.961253 
L 216.490909 229.951467 
L 218.945455 229.932294 
L 221.4 229.91175 
L 223.854545 229.89467 
L 226.309091 229.883698 
L 228.763636 229.880011 
L 231.218182 229.883826 
L 233.672727 229.894779 
L 236.127273 229.912168 
L 238.581818 229.935119 
L 241.036364 229.962717 
L 243.490909 229.994056 
L 245.945455 230.028303 
L 248.4 230.064703 
L 250.854545 230.1026 
L 253.309091 230.141432 
L 255.763636 230.180729 
L 258.218182 230.220099 
L 260.672727 230.259224 
L 263.127273 230.297857 
L 265.581818 230.335793 
L 268.036364 230.372885 
L 270.490909 230.409017 
L 272.945455 230.444106 
L 275.4 230.478093 
L 277.854545 230.510948 
L 280.309091 230.542644 
L 282.763636 230.573177 
L 285.218182 230.602556 
L 287.672727 230.630789 
L 290.127273 230.657896 
L 292.581818 230.683899 
L 295.036364 230.708825 
L 297.490909 230.732704 
L 299.945455 230.75557 
L 302.4 230.777451 
L 304.854545 230.798382 
L 307.309091 230.818398 
L 309.763636 230.837527 
L 312.218182 230.855806 
L 314.672727 230.936134 
L 317.127273 231.023447 
L 319.581818 230.477347 
L 322.036364 233.864224 
L 324.490909 234.995037 
L 326.945455 234.276296 
L 329.4 233.718123 
L 331.854545 233.369773 
L 334.309091 233.192053 
L 336.763636 233.119853 
L 339.218182 233.099823 
L 341.672727 233.10139 
L 344.127273 233.11105 
L 346.581818 233.123999 
L 349.036364 233.138775 
L 351.490909 233.154852 
L 353.945455 233.171908 
L 356.4 233.189677 
L 358.854545 233.207958 
L 361.309091 233.226611 
L 363.763636 233.245552 
L 366.218182 233.26472 
L 368.672727 233.284065 
L 371.127273 233.303545 
L 373.581818 233.323109 
" style="fill:none;stroke:#0000ff;stroke-linecap:square;stroke-width:1.5;"/>
   </g>
   <g id="line2d_17">
    <path clip-path="url(#pec7d213ebe)" d="M 69.218182 241.841545 
L 71.672727 241.558719 
L 74.127273 241.192466 
L 76.581818 240.692906 
L 79.036364 239.989755 
L 81.490909 239.103164 
L 83.945455 238.245447 
L 86.4 237.65536 
L 88.854545 237.342634 
L 91.309091 237.178344 
L 93.763636 237.072517 
L 96.218182 236.988787 
L 98.672727 236.913745 
L 101.127273 236.841601 
L 103.581818 236.769312 
L 106.036364 236.69517 
L 108.490909 236.618352 
L 110.945455 236.53867 
L 113.4 236.456399 
L 115.854545 236.372125 
L 118.309091 236.286608 
L 120.763636 236.200697 
L 123.218182 236.115255 
L 125.672727 236.031105 
L 128.127273 235.949006 
L 130.581818 235.815194 
L 133.036364 235.559694 
L 135.490909 235.306194 
L 137.945455 235.140073 
L 140.4 235.076404 
L 142.854545 235.11475 
L 145.309091 235.25667 
L 147.763636 235.490687 
L 150.218182 235.784392 
L 152.672727 236.100847 
L 155.127273 236.411507 
L 157.581818 236.698209 
L 160.036364 236.951876 
L 162.490909 237.170458 
L 164.945455 237.356268 
L 167.4 237.51352 
L 169.854545 237.646692 
L 172.309091 237.759731 
L 174.763636 237.855849 
L 177.218182 237.937591 
L 179.672727 238.007004 
L 182.127273 238.065786 
L 184.581818 238.115395 
L 187.036364 238.157112 
L 189.490909 238.192068 
L 191.945455 238.014188 
L 194.4 238.151522 
L 196.854545 238.278288 
L 199.309091 238.389081 
L 201.763636 238.482356 
L 204.218182 238.559484 
L 206.672727 238.623164 
L 209.127273 238.676217 
L 211.581818 238.720993 
L 214.036364 238.759232 
L 216.490909 238.792158 
L 218.945455 238.820623 
L 221.4 238.845251 
L 223.854545 238.86652 
L 226.309091 238.884831 
L 228.763636 238.900538 
L 231.218182 238.913956 
L 233.672727 238.925377 
L 236.127273 238.935067 
L 238.581818 238.943265 
L 241.036364 238.950188 
L 243.490909 238.956026 
L 245.945455 238.960948 
L 248.4 238.9651 
L 250.854545 238.968607 
L 253.309091 238.971577 
L 255.763636 238.974102 
L 258.218182 238.976256 
L 260.672727 238.978106 
L 263.127273 238.979705 
L 265.581818 238.981096 
L 268.036364 238.982319 
L 270.490909 238.983402 
L 272.945455 238.98437 
L 275.4 238.985245 
L 277.854545 238.986043 
L 280.309091 238.986777 
L 282.763636 238.987459 
L 285.218182 238.988099 
L 287.672727 238.988703 
L 290.127273 238.989277 
L 292.581818 238.989828 
L 295.036364 238.990358 
L 297.490909 238.990873 
L 299.945455 238.991374 
L 302.4 238.991864 
L 304.854545 238.992346 
L 307.309091 238.992821 
L 309.763636 238.99329 
L 312.218182 238.993755 
L 314.672727 238.418859 
L 317.127273 238.38345 
L 319.581818 238.311555 
L 322.036364 240.056176 
L 324.490909 240.537174 
L 326.945455 240.344454 
L 329.4 240.195941 
L 331.854545 240.09857 
L 334.309091 240.040575 
L 336.763636 240.006531 
L 339.218182 239.984424 
L 341.672727 239.967465 
L 344.127273 239.952691 
L 346.581818 239.939103 
L 349.036364 239.926479 
L 351.490909 239.914815 
L 353.945455 239.904138 
L 356.4 239.894456 
L 358.854545 239.885752 
L 361.309091 239.877986 
L 363.763636 239.871103 
L 366.218182 239.86503 
L 368.672727 239.859689 
L 371.127273 239.854994 
L 373.581818 239.850859 
" style="fill:none;stroke:#008000;stroke-linecap:square;stroke-width:1.5;"/>
   </g>
   <g id="line2d_18">
    <path clip-path="url(#pec7d213ebe)" d="M 69.218182 241.693756 
L 71.672727 241.356599 
L 74.127273 240.929459 
L 76.581818 240.279079 
L 79.036364 239.17593 
L 81.490909 237.595806 
L 83.945455 235.922785 
L 86.4 234.603754 
L 88.854545 233.708615 
L 91.309091 233.061398 
L 93.763636 232.524665 
L 96.218182 232.038429 
L 98.672727 231.579061 
L 101.127273 231.136247 
L 103.581818 230.70493 
L 106.036364 230.282621 
L 108.490909 229.868333 
L 110.945455 229.462005 
L 113.4 229.06417 
L 115.854545 228.67571 
L 118.309091 228.297681 
L 120.763636 227.931222 
L 123.218182 227.577473 
L 125.672727 227.237511 
L 128.127273 226.91233 
L 130.581818 228.831277 
L 133.036364 228.306744 
L 135.490909 228.019049 
L 137.945455 228.03797 
L 140.4 228.336575 
L 142.854545 228.872303 
L 145.309091 229.606016 
L 147.763636 230.480096 
L 150.218182 231.409443 
L 152.672727 232.309456 
L 155.127273 233.121694 
L 157.581818 233.818828 
L 160.036364 234.398037 
L 162.490909 234.871303 
L 164.945455 235.256732 
L 167.4 235.572755 
L 169.854545 235.835328 
L 172.309091 236.057118 
L 174.763636 236.247758 
L 177.218182 236.4144 
L 179.672727 236.562336 
L 182.127273 236.695494 
L 184.581818 236.81681 
L 187.036364 236.928504 
L 189.490909 237.032261 
L 191.945455 235.349168 
L 194.4 235.646088 
L 196.854545 235.97543 
L 199.309091 236.314938 
L 201.763636 236.646521 
L 204.218182 236.957871 
L 206.672727 237.242041 
L 209.127273 237.496247 
L 211.581818 237.720518 
L 214.036364 237.91656 
L 216.490909 238.086917 
L 218.945455 238.234437 
L 221.4 238.361952 
L 223.854545 238.472105 
L 226.309091 238.567285 
L 228.763636 238.649603 
L 231.218182 238.72089 
L 233.672727 238.782735 
L 236.127273 238.836501 
L 238.581818 238.883349 
L 241.036364 238.924274 
L 243.490909 238.960116 
L 245.945455 238.991595 
L 248.4 239.019317 
L 250.854545 239.043798 
L 253.309091 239.065474 
L 255.763636 239.084717 
L 258.218182 239.101841 
L 260.672727 239.117115 
L 263.127273 239.130767 
L 265.581818 239.142994 
L 268.036364 239.153961 
L 270.490909 239.163813 
L 272.945455 239.172674 
L 275.4 239.180649 
L 277.854545 239.187833 
L 280.309091 239.194306 
L 282.763636 239.200137 
L 285.218182 239.205391 
L 287.672727 239.210121 
L 290.127273 239.214375 
L 292.581818 239.218195 
L 295.036364 239.221619 
L 297.490909 239.224682 
L 299.945455 239.227415 
L 302.4 239.229844 
L 304.854545 239.231993 
L 307.309091 239.233885 
L 309.763636 239.235539 
L 312.218182 239.236974 
L 314.672727 238.326631 
L 317.127273 238.259439 
L 319.581818 238.485494 
L 322.036364 240.680482 
L 324.490909 241.074135 
L 326.945455 240.964645 
L 329.4 240.875546 
L 331.854545 240.81771 
L 334.309091 240.783695 
L 336.763636 240.762572 
L 339.218182 240.7464 
L 341.672727 240.731267 
L 344.127273 240.715927 
L 346.581818 240.70037 
L 349.036364 240.684985 
L 351.490909 240.670191 
L 353.945455 240.656316 
L 356.4 240.643573 
L 358.854545 240.632067 
L 361.309091 240.621819 
L 363.763636 240.612786 
L 366.218182 240.60488 
L 368.672727 240.59799 
L 371.127273 240.591993 
L 373.581818 240.586762 
" style="fill:none;stroke:#00bfbf;stroke-linecap:square;stroke-width:1.5;"/>
   </g>
   <g id="patch_3">
    <path d="M 54 252 
L 54 34.56 
" style="fill:none;stroke:#000000;stroke-linecap:square;stroke-linejoin:miter;stroke-width:0.8;"/>
   </g>
   <g id="patch_4">
    <path d="M 388.8 252 
L 388.8 34.56 
" style="fill:none;stroke:#000000;stroke-linecap:square;stroke-linejoin:miter;stroke-width:0.8;"/>
   </g>
   <g id="patch_5">
    <path d="M 54 252 
L 388.8 252 
" style="fill:none;stroke:#000000;stroke-linecap:square;stroke-linejoin:miter;stroke-width:0.8;"/>
   </g>
   <g id="patch_6">
    <path d="M 54 34.56 
L 388.8 34.56 
" style="fill:none;stroke:#000000;stroke-linecap:square;stroke-linejoin:miter;stroke-width:0.8;"/>
   </g>
   <g id="text_14">
    <!-- l2h000001 : delaygo -->
    <defs>
     <path d="M 9.421875 75.984375 
L 18.40625 75.984375 
L 18.40625 0 
L 9.421875 0 
z
" id="DejaVuSans-6c"/>
     <path d="M 54.890625 33.015625 
L 54.890625 0 
L 45.90625 0 
L 45.90625 32.71875 
Q 45.90625 40.484375 42.875 44.328125 
Q 39.84375 48.1875 33.796875 48.1875 
Q 26.515625 48.1875 22.3125 43.546875 
Q 18.109375 38.921875 18.109375 30.90625 
L 18.109375 0 
L 9.078125 0 
L 9.078125 75.984375 
L 18.109375 75.984375 
L 18.109375 46.1875 
Q 21.34375 51.125 25.703125 53.5625 
Q 30.078125 56 35.796875 56 
Q 45.21875 56 50.046875 50.171875 
Q 54.890625 44.34375 54.890625 33.015625 
z
" id="DejaVuSans-68"/>
     <path id="DejaVuSans-20"/>
     <path d="M 11.71875 12.40625 
L 22.015625 12.40625 
L 22.015625 0 
L 11.71875 0 
z
M 11.71875 51.703125 
L 22.015625 51.703125 
L 22.015625 39.3125 
L 11.71875 39.3125 
z
" id="DejaVuSans-3a"/>
     <path d="M 45.40625 46.390625 
L 45.40625 75.984375 
L 54.390625 75.984375 
L 54.390625 0 
L 45.40625 0 
L 45.40625 8.203125 
Q 42.578125 3.328125 38.25 0.953125 
Q 33.9375 -1.421875 27.875 -1.421875 
Q 17.96875 -1.421875 11.734375 6.484375 
Q 5.515625 14.40625 5.515625 27.296875 
Q 5.515625 40.1875 11.734375 48.09375 
Q 17.96875 56 27.875 56 
Q 33.9375 56 38.25 53.625 
Q 42.578125 51.265625 45.40625 46.390625 
z
M 14.796875 27.296875 
Q 14.796875 17.390625 18.875 11.75 
Q 22.953125 6.109375 30.078125 6.109375 
Q 37.203125 6.109375 41.296875 11.75 
Q 45.40625 17.390625 45.40625 27.296875 
Q 45.40625 37.203125 41.296875 42.84375 
Q 37.203125 48.484375 30.078125 48.484375 
Q 22.953125 48.484375 18.875 42.84375 
Q 14.796875 37.203125 14.796875 27.296875 
z
" id="DejaVuSans-64"/>
     <path d="M 56.203125 29.59375 
L 56.203125 25.203125 
L 14.890625 25.203125 
Q 15.484375 15.921875 20.484375 11.0625 
Q 25.484375 6.203125 34.421875 6.203125 
Q 39.59375 6.203125 44.453125 7.46875 
Q 49.3125 8.734375 54.109375 11.28125 
L 54.109375 2.78125 
Q 49.265625 0.734375 44.1875 -0.34375 
Q 39.109375 -1.421875 33.890625 -1.421875 
Q 20.796875 -1.421875 13.15625 6.1875 
Q 5.515625 13.8125 5.515625 26.8125 
Q 5.515625 40.234375 12.765625 48.109375 
Q 20.015625 56 32.328125 56 
Q 43.359375 56 49.78125 48.890625 
Q 56.203125 41.796875 56.203125 29.59375 
z
M 47.21875 32.234375 
Q 47.125 39.59375 43.09375 43.984375 
Q 39.0625 48.390625 32.421875 48.390625 
Q 24.90625 48.390625 20.390625 44.140625 
Q 15.875 39.890625 15.1875 32.171875 
z
" id="DejaVuSans-65"/>
     <path d="M 34.28125 27.484375 
Q 23.390625 27.484375 19.1875 25 
Q 14.984375 22.515625 14.984375 16.5 
Q 14.984375 11.71875 18.140625 8.90625 
Q 21.296875 6.109375 26.703125 6.109375 
Q 34.1875 6.109375 38.703125 11.40625 
Q 43.21875 16.703125 43.21875 25.484375 
L 43.21875 27.484375 
z
M 52.203125 31.203125 
L 52.203125 0 
L 43.21875 0 
L 43.21875 8.296875 
Q 40.140625 3.328125 35.546875 0.953125 
Q 30.953125 -1.421875 24.3125 -1.421875 
Q 15.921875 -1.421875 10.953125 3.296875 
Q 6 8.015625 6 15.921875 
Q 6 25.140625 12.171875 29.828125 
Q 18.359375 34.515625 30.609375 34.515625 
L 43.21875 34.515625 
L 43.21875 35.40625 
Q 43.21875 41.609375 39.140625 45 
Q 35.0625 48.390625 27.6875 48.390625 
Q 23 48.390625 18.546875 47.265625 
Q 14.109375 46.140625 10.015625 43.890625 
L 10.015625 52.203125 
Q 14.9375 54.109375 19.578125 55.046875 
Q 24.21875 56 28.609375 56 
Q 40.484375 56 46.34375 49.84375 
Q 52.203125 43.703125 52.203125 31.203125 
z
" id="DejaVuSans-61"/>
     <path d="M 32.171875 -5.078125 
Q 28.375 -14.84375 24.75 -17.8125 
Q 21.140625 -20.796875 15.09375 -20.796875 
L 7.90625 -20.796875 
L 7.90625 -13.28125 
L 13.1875 -13.28125 
Q 16.890625 -13.28125 18.9375 -11.515625 
Q 21 -9.765625 23.484375 -3.21875 
L 25.09375 0.875 
L 2.984375 54.6875 
L 12.5 54.6875 
L 29.59375 11.921875 
L 46.6875 54.6875 
L 56.203125 54.6875 
z
" id="DejaVuSans-79"/>
     <path d="M 45.40625 27.984375 
Q 45.40625 37.75 41.375 43.109375 
Q 37.359375 48.484375 30.078125 48.484375 
Q 22.859375 48.484375 18.828125 43.109375 
Q 14.796875 37.75 14.796875 27.984375 
Q 14.796875 18.265625 18.828125 12.890625 
Q 22.859375 7.515625 30.078125 7.515625 
Q 37.359375 7.515625 41.375 12.890625 
Q 45.40625 18.265625 45.40625 27.984375 
z
M 54.390625 6.78125 
Q 54.390625 -7.171875 48.1875 -13.984375 
Q 42 -20.796875 29.203125 -20.796875 
Q 24.46875 -20.796875 20.265625 -20.09375 
Q 16.0625 -19.390625 12.109375 -17.921875 
L 12.109375 -9.1875 
Q 16.0625 -11.328125 19.921875 -12.34375 
Q 23.78125 -13.375 27.78125 -13.375 
Q 36.625 -13.375 41.015625 -8.765625 
Q 45.40625 -4.15625 45.40625 5.171875 
L 45.40625 9.625 
Q 42.625 4.78125 38.28125 2.390625 
Q 33.9375 0 27.875 0 
Q 17.828125 0 11.671875 7.65625 
Q 5.515625 15.328125 5.515625 27.984375 
Q 5.515625 40.671875 11.671875 48.328125 
Q 17.828125 56 27.875 56 
Q 33.9375 56 38.28125 53.609375 
Q 42.625 51.21875 45.40625 46.390625 
L 45.40625 54.6875 
L 54.390625 54.6875 
z
" id="DejaVuSans-67"/>
     <path d="M 30.609375 48.390625 
Q 23.390625 48.390625 19.1875 42.75 
Q 14.984375 37.109375 14.984375 27.296875 
Q 14.984375 17.484375 19.15625 11.84375 
Q 23.34375 6.203125 30.609375 6.203125 
Q 37.796875 6.203125 41.984375 11.859375 
Q 46.1875 17.53125 46.1875 27.296875 
Q 46.1875 37.015625 41.984375 42.703125 
Q 37.796875 48.390625 30.609375 48.390625 
z
M 30.609375 56 
Q 42.328125 56 49.015625 48.375 
Q 55.71875 40.765625 55.71875 27.296875 
Q 55.71875 13.875 49.015625 6.21875 
Q 42.328125 -1.421875 30.609375 -1.421875 
Q 18.84375 -1.421875 12.171875 6.21875 
Q 5.515625 13.875 5.515625 27.296875 
Q 5.515625 40.765625 12.171875 48.375 
Q 18.84375 56 30.609375 56 
z
" id="DejaVuSans-6f"/>
    </defs>
    <g transform="translate(159.496875 28.56)scale(0.12 -0.12)">
     <use xlink:href="#DejaVuSans-6c"/>
     <use x="27.783203" xlink:href="#DejaVuSans-32"/>
     <use x="91.40625" xlink:href="#DejaVuSans-68"/>
     <use x="154.785156" xlink:href="#DejaVuSans-30"/>
     <use x="218.408203" xlink:href="#DejaVuSans-30"/>
     <use x="282.03125" xlink:href="#DejaVuSans-30"/>
     <use x="345.654297" xlink:href="#DejaVuSans-30"/>
     <use x="409.277344" xlink:href="#DejaVuSans-30"/>
     <use x="472.900391" xlink:href="#DejaVuSans-31"/>
     <use x="536.523438" xlink:href="#DejaVuSans-20"/>
     <use x="568.310547" xlink:href="#DejaVuSans-3a"/>
     <use x="602.001953" xlink:href="#DejaVuSans-20"/>
     <use x="633.789062" xlink:href="#DejaVuSans-64"/>
     <use x="697.265625" xlink:href="#DejaVuSans-65"/>
     <use x="758.789062" xlink:href="#DejaVuSans-6c"/>
     <use x="786.572266" xlink:href="#DejaVuSans-61"/>
     <use x="847.851562" xlink:href="#DejaVuSans-79"/>
     <use x="907.03125" xlink:href="#DejaVuSans-67"/>
     <use x="970.507812" xlink:href="#DejaVuSans-6f"/>
    </g>
   </g>
   <g id="legend_1">
    <g id="patch_7">
     <path d="M 230.014063 181.753438 
L 381.8 181.753438 
Q 383.8 181.753438 383.8 179.753438 
L 383.8 106.806562 
Q 383.8 104.806562 381.8 104.806562 
L 230.014063 104.806562 
Q 228.014063 104.806562 228.014063 106.806562 
L 228.014063 179.753438 
Q 228.014063 181.753438 230.014063 181.753438 
z
" style="fill:#ffffff;opacity:0.8;stroke:#cccccc;stroke-linejoin:miter;"/>
    </g>
    <g id="line2d_19">
     <path d="M 232.014063 112.905 
L 252.014063 112.905 
" style="fill:none;stroke:#000000;stroke-linecap:square;stroke-width:1.5;"/>
    </g>
    <g id="line2d_20"/>
    <g id="text_15">
     <!-- dF/dx -->
     <defs>
      <path d="M 9.8125 72.90625 
L 51.703125 72.90625 
L 51.703125 64.59375 
L 19.671875 64.59375 
L 19.671875 43.109375 
L 48.578125 43.109375 
L 48.578125 34.8125 
L 19.671875 34.8125 
L 19.671875 0 
L 9.8125 0 
z
" id="DejaVuSans-46"/>
      <path d="M 25.390625 72.90625 
L 33.6875 72.90625 
L 8.296875 -9.28125 
L 0 -9.28125 
z
" id="DejaVuSans-2f"/>
      <path d="M 54.890625 54.6875 
L 35.109375 28.078125 
L 55.90625 0 
L 45.3125 0 
L 29.390625 21.484375 
L 13.484375 0 
L 2.875 0 
L 24.125 28.609375 
L 4.6875 54.6875 
L 15.28125 54.6875 
L 29.78125 35.203125 
L 44.28125 54.6875 
z
" id="DejaVuSans-78"/>
     </defs>
     <g transform="translate(260.014063 116.405)scale(0.1 -0.1)">
      <use xlink:href="#DejaVuSans-64"/>
      <use x="63.476562" xlink:href="#DejaVuSans-46"/>
      <use x="120.996094" xlink:href="#DejaVuSans-2f"/>
      <use x="154.6875" xlink:href="#DejaVuSans-64"/>
      <use x="218.164062" xlink:href="#DejaVuSans-78"/>
     </g>
    </g>
    <g id="line2d_21">
     <path d="M 232.014063 127.583125 
L 252.014063 127.583125 
" style="fill:none;stroke:#ff0000;stroke-linecap:square;stroke-width:1.5;"/>
    </g>
    <g id="line2d_22"/>
    <g id="text_16">
     <!-- dF/du [fixation] -->
     <defs>
      <path d="M 8.5 21.578125 
L 8.5 54.6875 
L 17.484375 54.6875 
L 17.484375 21.921875 
Q 17.484375 14.15625 20.5 10.265625 
Q 23.53125 6.390625 29.59375 6.390625 
Q 36.859375 6.390625 41.078125 11.03125 
Q 45.3125 15.671875 45.3125 23.6875 
L 45.3125 54.6875 
L 54.296875 54.6875 
L 54.296875 0 
L 45.3125 0 
L 45.3125 8.40625 
Q 42.046875 3.421875 37.71875 1 
Q 33.40625 -1.421875 27.6875 -1.421875 
Q 18.265625 -1.421875 13.375 4.4375 
Q 8.5 10.296875 8.5 21.578125 
z
M 31.109375 56 
z
" id="DejaVuSans-75"/>
      <path d="M 8.59375 75.984375 
L 29.296875 75.984375 
L 29.296875 69 
L 17.578125 69 
L 17.578125 -6.203125 
L 29.296875 -6.203125 
L 29.296875 -13.1875 
L 8.59375 -13.1875 
z
" id="DejaVuSans-5b"/>
      <path d="M 37.109375 75.984375 
L 37.109375 68.5 
L 28.515625 68.5 
Q 23.6875 68.5 21.796875 66.546875 
Q 19.921875 64.59375 19.921875 59.515625 
L 19.921875 54.6875 
L 34.71875 54.6875 
L 34.71875 47.703125 
L 19.921875 47.703125 
L 19.921875 0 
L 10.890625 0 
L 10.890625 47.703125 
L 2.296875 47.703125 
L 2.296875 54.6875 
L 10.890625 54.6875 
L 10.890625 58.5 
Q 10.890625 67.625 15.140625 71.796875 
Q 19.390625 75.984375 28.609375 75.984375 
z
" id="DejaVuSans-66"/>
      <path d="M 9.421875 54.6875 
L 18.40625 54.6875 
L 18.40625 0 
L 9.421875 0 
z
M 9.421875 75.984375 
L 18.40625 75.984375 
L 18.40625 64.59375 
L 9.421875 64.59375 
z
" id="DejaVuSans-69"/>
      <path d="M 18.3125 70.21875 
L 18.3125 54.6875 
L 36.8125 54.6875 
L 36.8125 47.703125 
L 18.3125 47.703125 
L 18.3125 18.015625 
Q 18.3125 11.328125 20.140625 9.421875 
Q 21.96875 7.515625 27.59375 7.515625 
L 36.8125 7.515625 
L 36.8125 0 
L 27.59375 0 
Q 17.1875 0 13.234375 3.875 
Q 9.28125 7.765625 9.28125 18.015625 
L 9.28125 47.703125 
L 2.6875 47.703125 
L 2.6875 54.6875 
L 9.28125 54.6875 
L 9.28125 70.21875 
z
" id="DejaVuSans-74"/>
      <path d="M 54.890625 33.015625 
L 54.890625 0 
L 45.90625 0 
L 45.90625 32.71875 
Q 45.90625 40.484375 42.875 44.328125 
Q 39.84375 48.1875 33.796875 48.1875 
Q 26.515625 48.1875 22.3125 43.546875 
Q 18.109375 38.921875 18.109375 30.90625 
L 18.109375 0 
L 9.078125 0 
L 9.078125 54.6875 
L 18.109375 54.6875 
L 18.109375 46.1875 
Q 21.34375 51.125 25.703125 53.5625 
Q 30.078125 56 35.796875 56 
Q 45.21875 56 50.046875 50.171875 
Q 54.890625 44.34375 54.890625 33.015625 
z
" id="DejaVuSans-6e"/>
      <path d="M 30.421875 75.984375 
L 30.421875 -13.1875 
L 9.71875 -13.1875 
L 9.71875 -6.203125 
L 21.390625 -6.203125 
L 21.390625 69 
L 9.71875 69 
L 9.71875 75.984375 
z
" id="DejaVuSans-5d"/>
     </defs>
     <g transform="translate(260.014063 131.083125)scale(0.1 -0.1)">
      <use xlink:href="#DejaVuSans-64"/>
      <use x="63.476562" xlink:href="#DejaVuSans-46"/>
      <use x="120.996094" xlink:href="#DejaVuSans-2f"/>
      <use x="154.6875" xlink:href="#DejaVuSans-64"/>
      <use x="218.164062" xlink:href="#DejaVuSans-75"/>
      <use x="281.542969" xlink:href="#DejaVuSans-20"/>
      <use x="313.330078" xlink:href="#DejaVuSans-5b"/>
      <use x="352.34375" xlink:href="#DejaVuSans-66"/>
      <use x="387.548828" xlink:href="#DejaVuSans-69"/>
      <use x="415.332031" xlink:href="#DejaVuSans-78"/>
      <use x="474.511719" xlink:href="#DejaVuSans-61"/>
      <use x="535.791016" xlink:href="#DejaVuSans-74"/>
      <use x="575" xlink:href="#DejaVuSans-69"/>
      <use x="602.783203" xlink:href="#DejaVuSans-6f"/>
      <use x="663.964844" xlink:href="#DejaVuSans-6e"/>
      <use x="727.34375" xlink:href="#DejaVuSans-5d"/>
     </g>
    </g>
    <g id="line2d_23">
     <path d="M 232.014063 142.26125 
L 252.014063 142.26125 
" style="fill:none;stroke:#0000ff;stroke-linecap:square;stroke-width:1.5;"/>
    </g>
    <g id="line2d_24"/>
    <g id="text_17">
     <!-- dF/du [stimulus] -->
     <defs>
      <path d="M 44.28125 53.078125 
L 44.28125 44.578125 
Q 40.484375 46.53125 36.375 47.5 
Q 32.28125 48.484375 27.875 48.484375 
Q 21.1875 48.484375 17.84375 46.4375 
Q 14.5 44.390625 14.5 40.28125 
Q 14.5 37.15625 16.890625 35.375 
Q 19.28125 33.59375 26.515625 31.984375 
L 29.59375 31.296875 
Q 39.15625 29.25 43.1875 25.515625 
Q 47.21875 21.78125 47.21875 15.09375 
Q 47.21875 7.46875 41.1875 3.015625 
Q 35.15625 -1.421875 24.609375 -1.421875 
Q 20.21875 -1.421875 15.453125 -0.5625 
Q 10.6875 0.296875 5.421875 2 
L 5.421875 11.28125 
Q 10.40625 8.6875 15.234375 7.390625 
Q 20.0625 6.109375 24.8125 6.109375 
Q 31.15625 6.109375 34.5625 8.28125 
Q 37.984375 10.453125 37.984375 14.40625 
Q 37.984375 18.0625 35.515625 20.015625 
Q 33.0625 21.96875 24.703125 23.78125 
L 21.578125 24.515625 
Q 13.234375 26.265625 9.515625 29.90625 
Q 5.8125 33.546875 5.8125 39.890625 
Q 5.8125 47.609375 11.28125 51.796875 
Q 16.75 56 26.8125 56 
Q 31.78125 56 36.171875 55.265625 
Q 40.578125 54.546875 44.28125 53.078125 
z
" id="DejaVuSans-73"/>
      <path d="M 52 44.1875 
Q 55.375 50.25 60.0625 53.125 
Q 64.75 56 71.09375 56 
Q 79.640625 56 84.28125 50.015625 
Q 88.921875 44.046875 88.921875 33.015625 
L 88.921875 0 
L 79.890625 0 
L 79.890625 32.71875 
Q 79.890625 40.578125 77.09375 44.375 
Q 74.3125 48.1875 68.609375 48.1875 
Q 61.625 48.1875 57.5625 43.546875 
Q 53.515625 38.921875 53.515625 30.90625 
L 53.515625 0 
L 44.484375 0 
L 44.484375 32.71875 
Q 44.484375 40.625 41.703125 44.40625 
Q 38.921875 48.1875 33.109375 48.1875 
Q 26.21875 48.1875 22.15625 43.53125 
Q 18.109375 38.875 18.109375 30.90625 
L 18.109375 0 
L 9.078125 0 
L 9.078125 54.6875 
L 18.109375 54.6875 
L 18.109375 46.1875 
Q 21.1875 51.21875 25.484375 53.609375 
Q 29.78125 56 35.6875 56 
Q 41.65625 56 45.828125 52.96875 
Q 50 49.953125 52 44.1875 
z
" id="DejaVuSans-6d"/>
     </defs>
     <g transform="translate(260.014063 145.76125)scale(0.1 -0.1)">
      <use xlink:href="#DejaVuSans-64"/>
      <use x="63.476562" xlink:href="#DejaVuSans-46"/>
      <use x="120.996094" xlink:href="#DejaVuSans-2f"/>
      <use x="154.6875" xlink:href="#DejaVuSans-64"/>
      <use x="218.164062" xlink:href="#DejaVuSans-75"/>
      <use x="281.542969" xlink:href="#DejaVuSans-20"/>
      <use x="313.330078" xlink:href="#DejaVuSans-5b"/>
      <use x="352.34375" xlink:href="#DejaVuSans-73"/>
      <use x="404.443359" xlink:href="#DejaVuSans-74"/>
      <use x="443.652344" xlink:href="#DejaVuSans-69"/>
      <use x="471.435547" xlink:href="#DejaVuSans-6d"/>
      <use x="568.847656" xlink:href="#DejaVuSans-75"/>
      <use x="632.226562" xlink:href="#DejaVuSans-6c"/>
      <use x="660.009766" xlink:href="#DejaVuSans-75"/>
      <use x="723.388672" xlink:href="#DejaVuSans-73"/>
      <use x="775.488281" xlink:href="#DejaVuSans-5d"/>
     </g>
    </g>
    <g id="line2d_25">
     <path d="M 232.014063 156.939375 
L 252.014063 156.939375 
" style="fill:none;stroke:#008000;stroke-linecap:square;stroke-width:1.5;"/>
    </g>
    <g id="line2d_26"/>
    <g id="text_18">
     <!-- dF/du [context_all] -->
     <defs>
      <path d="M 48.78125 52.59375 
L 48.78125 44.1875 
Q 44.96875 46.296875 41.140625 47.34375 
Q 37.3125 48.390625 33.40625 48.390625 
Q 24.65625 48.390625 19.8125 42.84375 
Q 14.984375 37.3125 14.984375 27.296875 
Q 14.984375 17.28125 19.8125 11.734375 
Q 24.65625 6.203125 33.40625 6.203125 
Q 37.3125 6.203125 41.140625 7.25 
Q 44.96875 8.296875 48.78125 10.40625 
L 48.78125 2.09375 
Q 45.015625 0.34375 40.984375 -0.53125 
Q 36.96875 -1.421875 32.421875 -1.421875 
Q 20.0625 -1.421875 12.78125 6.34375 
Q 5.515625 14.109375 5.515625 27.296875 
Q 5.515625 40.671875 12.859375 48.328125 
Q 20.21875 56 33.015625 56 
Q 37.15625 56 41.109375 55.140625 
Q 45.0625 54.296875 48.78125 52.59375 
z
" id="DejaVuSans-63"/>
      <path d="M 50.984375 -16.609375 
L 50.984375 -23.578125 
L -0.984375 -23.578125 
L -0.984375 -16.609375 
z
" id="DejaVuSans-5f"/>
     </defs>
     <g transform="translate(260.014063 160.439375)scale(0.1 -0.1)">
      <use xlink:href="#DejaVuSans-64"/>
      <use x="63.476562" xlink:href="#DejaVuSans-46"/>
      <use x="120.996094" xlink:href="#DejaVuSans-2f"/>
      <use x="154.6875" xlink:href="#DejaVuSans-64"/>
      <use x="218.164062" xlink:href="#DejaVuSans-75"/>
      <use x="281.542969" xlink:href="#DejaVuSans-20"/>
      <use x="313.330078" xlink:href="#DejaVuSans-5b"/>
      <use x="352.34375" xlink:href="#DejaVuSans-63"/>
      <use x="407.324219" xlink:href="#DejaVuSans-6f"/>
      <use x="468.505859" xlink:href="#DejaVuSans-6e"/>
      <use x="531.884766" xlink:href="#DejaVuSans-74"/>
      <use x="571.09375" xlink:href="#DejaVuSans-65"/>
      <use x="632.601562" xlink:href="#DejaVuSans-78"/>
      <use x="691.78125" xlink:href="#DejaVuSans-74"/>
      <use x="730.990234" xlink:href="#DejaVuSans-5f"/>
      <use x="780.990234" xlink:href="#DejaVuSans-61"/>
      <use x="842.269531" xlink:href="#DejaVuSans-6c"/>
      <use x="870.052734" xlink:href="#DejaVuSans-6c"/>
      <use x="897.835938" xlink:href="#DejaVuSans-5d"/>
     </g>
    </g>
    <g id="line2d_27">
     <path d="M 232.014063 171.895625 
L 252.014063 171.895625 
" style="fill:none;stroke:#00bfbf;stroke-linecap:square;stroke-width:1.5;"/>
    </g>
    <g id="line2d_28"/>
    <g id="text_19">
     <!-- dF/du [context_specific] -->
     <defs>
      <path d="M 18.109375 8.203125 
L 18.109375 -20.796875 
L 9.078125 -20.796875 
L 9.078125 54.6875 
L 18.109375 54.6875 
L 18.109375 46.390625 
Q 20.953125 51.265625 25.265625 53.625 
Q 29.59375 56 35.59375 56 
Q 45.5625 56 51.78125 48.09375 
Q 58.015625 40.1875 58.015625 27.296875 
Q 58.015625 14.40625 51.78125 6.484375 
Q 45.5625 -1.421875 35.59375 -1.421875 
Q 29.59375 -1.421875 25.265625 0.953125 
Q 20.953125 3.328125 18.109375 8.203125 
z
M 48.6875 27.296875 
Q 48.6875 37.203125 44.609375 42.84375 
Q 40.53125 48.484375 33.40625 48.484375 
Q 26.265625 48.484375 22.1875 42.84375 
Q 18.109375 37.203125 18.109375 27.296875 
Q 18.109375 17.390625 22.1875 11.75 
Q 26.265625 6.109375 33.40625 6.109375 
Q 40.53125 6.109375 44.609375 11.75 
Q 48.6875 17.390625 48.6875 27.296875 
z
" id="DejaVuSans-70"/>
     </defs>
     <g transform="translate(260.014063 175.395625)scale(0.1 -0.1)">
      <use xlink:href="#DejaVuSans-64"/>
      <use x="63.476562" xlink:href="#DejaVuSans-46"/>
      <use x="120.996094" xlink:href="#DejaVuSans-2f"/>
      <use x="154.6875" xlink:href="#DejaVuSans-64"/>
      <use x="218.164062" xlink:href="#DejaVuSans-75"/>
      <use x="281.542969" xlink:href="#DejaVuSans-20"/>
      <use x="313.330078" xlink:href="#DejaVuSans-5b"/>
      <use x="352.34375" xlink:href="#DejaVuSans-63"/>
      <use x="407.324219" xlink:href="#DejaVuSans-6f"/>
      <use x="468.505859" xlink:href="#DejaVuSans-6e"/>
      <use x="531.884766" xlink:href="#DejaVuSans-74"/>
      <use x="571.09375" xlink:href="#DejaVuSans-65"/>
      <use x="632.601562" xlink:href="#DejaVuSans-78"/>
      <use x="691.78125" xlink:href="#DejaVuSans-74"/>
      <use x="730.990234" xlink:href="#DejaVuSans-5f"/>
      <use x="780.990234" xlink:href="#DejaVuSans-73"/>
      <use x="833.089844" xlink:href="#DejaVuSans-70"/>
      <use x="896.566406" xlink:href="#DejaVuSans-65"/>
      <use x="958.089844" xlink:href="#DejaVuSans-63"/>
      <use x="1013.070312" xlink:href="#DejaVuSans-69"/>
      <use x="1040.853516" xlink:href="#DejaVuSans-66"/>
      <use x="1076.058594" xlink:href="#DejaVuSans-69"/>
      <use x="1103.841797" xlink:href="#DejaVuSans-63"/>
      <use x="1158.822266" xlink:href="#DejaVuSans-5d"/>
     </g>
    </g>
   </g>
  </g>
 </g>
 <defs>
  <clipPath id="pec7d213ebe">
   <rect height="217.44" width="334.8" x="54" y="34.56"/>
  </clipPath>
 </defs>
</svg>
