<?xml version="1.0" encoding="utf-8" standalone="no"?>
<!DOCTYPE svg PUBLIC "-//W3C//DTD SVG 1.1//EN"
  "http://www.w3.org/Graphics/SVG/1.1/DTD/svg11.dtd">
<!-- Created with matplotlib (http://matplotlib.org/) -->
<svg height="576pt" version="1.1" viewBox="0 0 576 576" width="576pt" xmlns="http://www.w3.org/2000/svg" xmlns:xlink="http://www.w3.org/1999/xlink">
 <defs>
  <style type="text/css">
*{stroke-linecap:butt;stroke-linejoin:round;}
  </style>
 </defs>
 <g id="figure_1">
  <g id="patch_1">
   <path d="M 0 576 
L 576 576 
L 576 0 
L 0 0 
z
" style="fill:#ffffff;"/>
  </g>
  <g id="axes_1">
   <g id="patch_2">
    <path d="M 72 504 
L 518.4 504 
L 518.4 69.12 
L 72 69.12 
z
" style="fill:#ffffff;"/>
   </g>
   <g id="matplotlib.axis_1">
    <g id="xtick_1">
     <g id="line2d_1">
      <defs>
       <path d="M 0 0 
L 0 3.5 
" id="mbf3e82cbac" style="stroke:#000000;stroke-width:0.8;"/>
      </defs>
      <g>
       <use style="stroke:#000000;stroke-width:0.8;" x="86.4" xlink:href="#mbf3e82cbac" y="504"/>
      </g>
     </g>
     <g id="text_1">
      <!-- 0 -->
      <defs>
       <path d="M 31.78125 66.40625 
Q 24.171875 66.40625 20.328125 58.90625 
Q 16.5 51.421875 16.5 36.375 
Q 16.5 21.390625 20.328125 13.890625 
Q 24.171875 6.390625 31.78125 6.390625 
Q 39.453125 6.390625 43.28125 13.890625 
Q 47.125 21.390625 47.125 36.375 
Q 47.125 51.421875 43.28125 58.90625 
Q 39.453125 66.40625 31.78125 66.40625 
z
M 31.78125 74.21875 
Q 44.046875 74.21875 50.515625 64.515625 
Q 56.984375 54.828125 56.984375 36.375 
Q 56.984375 17.96875 50.515625 8.265625 
Q 44.046875 -1.421875 31.78125 -1.421875 
Q 19.53125 -1.421875 13.0625 8.265625 
Q 6.59375 17.96875 6.59375 36.375 
Q 6.59375 54.828125 13.0625 64.515625 
Q 19.53125 74.21875 31.78125 74.21875 
z
" id="DejaVuSans-30"/>
      </defs>
      <g transform="translate(83.21875 518.598438)scale(0.1 -0.1)">
       <use xlink:href="#DejaVuSans-30"/>
      </g>
     </g>
    </g>
    <g id="xtick_2">
     <g id="line2d_2">
      <g>
       <use style="stroke:#000000;stroke-width:0.8;" x="158.4" xlink:href="#mbf3e82cbac" y="504"/>
      </g>
     </g>
     <g id="text_2">
      <!-- 5 -->
      <defs>
       <path d="M 10.796875 72.90625 
L 49.515625 72.90625 
L 49.515625 64.59375 
L 19.828125 64.59375 
L 19.828125 46.734375 
Q 21.96875 47.46875 24.109375 47.828125 
Q 26.265625 48.1875 28.421875 48.1875 
Q 40.625 48.1875 47.75 41.5 
Q 54.890625 34.8125 54.890625 23.390625 
Q 54.890625 11.625 47.5625 5.09375 
Q 40.234375 -1.421875 26.90625 -1.421875 
Q 22.3125 -1.421875 17.546875 -0.640625 
Q 12.796875 0.140625 7.71875 1.703125 
L 7.71875 11.625 
Q 12.109375 9.234375 16.796875 8.0625 
Q 21.484375 6.890625 26.703125 6.890625 
Q 35.15625 6.890625 40.078125 11.328125 
Q 45.015625 15.765625 45.015625 23.390625 
Q 45.015625 31 40.078125 35.4375 
Q 35.15625 39.890625 26.703125 39.890625 
Q 22.75 39.890625 18.8125 39.015625 
Q 14.890625 38.140625 10.796875 36.28125 
z
" id="DejaVuSans-35"/>
      </defs>
      <g transform="translate(155.21875 518.598438)scale(0.1 -0.1)">
       <use xlink:href="#DejaVuSans-35"/>
      </g>
     </g>
    </g>
    <g id="xtick_3">
     <g id="line2d_3">
      <g>
       <use style="stroke:#000000;stroke-width:0.8;" x="230.4" xlink:href="#mbf3e82cbac" y="504"/>
      </g>
     </g>
     <g id="text_3">
      <!-- 10 -->
      <defs>
       <path d="M 12.40625 8.296875 
L 28.515625 8.296875 
L 28.515625 63.921875 
L 10.984375 60.40625 
L 10.984375 69.390625 
L 28.421875 72.90625 
L 38.28125 72.90625 
L 38.28125 8.296875 
L 54.390625 8.296875 
L 54.390625 0 
L 12.40625 0 
z
" id="DejaVuSans-31"/>
      </defs>
      <g transform="translate(224.0375 518.598438)scale(0.1 -0.1)">
       <use xlink:href="#DejaVuSans-31"/>
       <use x="63.623047" xlink:href="#DejaVuSans-30"/>
      </g>
     </g>
    </g>
    <g id="xtick_4">
     <g id="line2d_4">
      <g>
       <use style="stroke:#000000;stroke-width:0.8;" x="302.4" xlink:href="#mbf3e82cbac" y="504"/>
      </g>
     </g>
     <g id="text_4">
      <!-- 15 -->
      <g transform="translate(296.0375 518.598438)scale(0.1 -0.1)">
       <use xlink:href="#DejaVuSans-31"/>
       <use x="63.623047" xlink:href="#DejaVuSans-35"/>
      </g>
     </g>
    </g>
    <g id="xtick_5">
     <g id="line2d_5">
      <g>
       <use style="stroke:#000000;stroke-width:0.8;" x="374.4" xlink:href="#mbf3e82cbac" y="504"/>
      </g>
     </g>
     <g id="text_5">
      <!-- 20 -->
      <defs>
       <path d="M 19.1875 8.296875 
L 53.609375 8.296875 
L 53.609375 0 
L 7.328125 0 
L 7.328125 8.296875 
Q 12.9375 14.109375 22.625 23.890625 
Q 32.328125 33.6875 34.8125 36.53125 
Q 39.546875 41.84375 41.421875 45.53125 
Q 43.3125 49.21875 43.3125 52.78125 
Q 43.3125 58.59375 39.234375 62.25 
Q 35.15625 65.921875 28.609375 65.921875 
Q 23.96875 65.921875 18.8125 64.3125 
Q 13.671875 62.703125 7.8125 59.421875 
L 7.8125 69.390625 
Q 13.765625 71.78125 18.9375 73 
Q 24.125 74.21875 28.421875 74.21875 
Q 39.75 74.21875 46.484375 68.546875 
Q 53.21875 62.890625 53.21875 53.421875 
Q 53.21875 48.921875 51.53125 44.890625 
Q 49.859375 40.875 45.40625 35.40625 
Q 44.1875 33.984375 37.640625 27.21875 
Q 31.109375 20.453125 19.1875 8.296875 
z
" id="DejaVuSans-32"/>
      </defs>
      <g transform="translate(368.0375 518.598438)scale(0.1 -0.1)">
       <use xlink:href="#DejaVuSans-32"/>
       <use x="63.623047" xlink:href="#DejaVuSans-30"/>
      </g>
     </g>
    </g>
    <g id="xtick_6">
     <g id="line2d_6">
      <g>
       <use style="stroke:#000000;stroke-width:0.8;" x="446.4" xlink:href="#mbf3e82cbac" y="504"/>
      </g>
     </g>
     <g id="text_6">
      <!-- 25 -->
      <g transform="translate(440.0375 518.598438)scale(0.1 -0.1)">
       <use xlink:href="#DejaVuSans-32"/>
       <use x="63.623047" xlink:href="#DejaVuSans-35"/>
      </g>
     </g>
    </g>
    <g id="xtick_7">
     <g id="line2d_7">
      <g>
       <use style="stroke:#000000;stroke-width:0.8;" x="518.4" xlink:href="#mbf3e82cbac" y="504"/>
      </g>
     </g>
     <g id="text_7">
      <!-- 30 -->
      <defs>
       <path d="M 40.578125 39.3125 
Q 47.65625 37.796875 51.625 33 
Q 55.609375 28.21875 55.609375 21.1875 
Q 55.609375 10.40625 48.1875 4.484375 
Q 40.765625 -1.421875 27.09375 -1.421875 
Q 22.515625 -1.421875 17.65625 -0.515625 
Q 12.796875 0.390625 7.625 2.203125 
L 7.625 11.71875 
Q 11.71875 9.328125 16.59375 8.109375 
Q 21.484375 6.890625 26.8125 6.890625 
Q 36.078125 6.890625 40.9375 10.546875 
Q 45.796875 14.203125 45.796875 21.1875 
Q 45.796875 27.640625 41.28125 31.265625 
Q 36.765625 34.90625 28.71875 34.90625 
L 20.21875 34.90625 
L 20.21875 43.015625 
L 29.109375 43.015625 
Q 36.375 43.015625 40.234375 45.921875 
Q 44.09375 48.828125 44.09375 54.296875 
Q 44.09375 59.90625 40.109375 62.90625 
Q 36.140625 65.921875 28.71875 65.921875 
Q 24.65625 65.921875 20.015625 65.03125 
Q 15.375 64.15625 9.8125 62.3125 
L 9.8125 71.09375 
Q 15.4375 72.65625 20.34375 73.4375 
Q 25.25 74.21875 29.59375 74.21875 
Q 40.828125 74.21875 47.359375 69.109375 
Q 53.90625 64.015625 53.90625 55.328125 
Q 53.90625 49.265625 50.4375 45.09375 
Q 46.96875 40.921875 40.578125 39.3125 
z
" id="DejaVuSans-33"/>
      </defs>
      <g transform="translate(512.0375 518.598438)scale(0.1 -0.1)">
       <use xlink:href="#DejaVuSans-33"/>
       <use x="63.623047" xlink:href="#DejaVuSans-30"/>
      </g>
     </g>
    </g>
    <g id="text_8">
     <!-- # Components -->
     <defs>
      <path d="M 51.125 44 
L 36.921875 44 
L 32.8125 27.6875 
L 47.125 27.6875 
z
M 43.796875 71.78125 
L 38.71875 51.515625 
L 52.984375 51.515625 
L 58.109375 71.78125 
L 65.921875 71.78125 
L 60.890625 51.515625 
L 76.125 51.515625 
L 76.125 44 
L 58.984375 44 
L 54.984375 27.6875 
L 70.515625 27.6875 
L 70.515625 20.21875 
L 53.078125 20.21875 
L 48 0 
L 40.1875 0 
L 45.21875 20.21875 
L 30.90625 20.21875 
L 25.875 0 
L 18.015625 0 
L 23.09375 20.21875 
L 7.71875 20.21875 
L 7.71875 27.6875 
L 24.90625 27.6875 
L 29 44 
L 13.28125 44 
L 13.28125 51.515625 
L 30.90625 51.515625 
L 35.890625 71.78125 
z
" id="DejaVuSans-23"/>
      <path id="DejaVuSans-20"/>
      <path d="M 64.40625 67.28125 
L 64.40625 56.890625 
Q 59.421875 61.53125 53.78125 63.8125 
Q 48.140625 66.109375 41.796875 66.109375 
Q 29.296875 66.109375 22.65625 58.46875 
Q 16.015625 50.828125 16.015625 36.375 
Q 16.015625 21.96875 22.65625 14.328125 
Q 29.296875 6.6875 41.796875 6.6875 
Q 48.140625 6.6875 53.78125 8.984375 
Q 59.421875 11.28125 64.40625 15.921875 
L 64.40625 5.609375 
Q 59.234375 2.09375 53.4375 0.328125 
Q 47.65625 -1.421875 41.21875 -1.421875 
Q 24.65625 -1.421875 15.125 8.703125 
Q 5.609375 18.84375 5.609375 36.375 
Q 5.609375 53.953125 15.125 64.078125 
Q 24.65625 74.21875 41.21875 74.21875 
Q 47.75 74.21875 53.53125 72.484375 
Q 59.328125 70.75 64.40625 67.28125 
z
" id="DejaVuSans-43"/>
      <path d="M 30.609375 48.390625 
Q 23.390625 48.390625 19.1875 42.75 
Q 14.984375 37.109375 14.984375 27.296875 
Q 14.984375 17.484375 19.15625 11.84375 
Q 23.34375 6.203125 30.609375 6.203125 
Q 37.796875 6.203125 41.984375 11.859375 
Q 46.1875 17.53125 46.1875 27.296875 
Q 46.1875 37.015625 41.984375 42.703125 
Q 37.796875 48.390625 30.609375 48.390625 
z
M 30.609375 56 
Q 42.328125 56 49.015625 48.375 
Q 55.71875 40.765625 55.71875 27.296875 
Q 55.71875 13.875 49.015625 6.21875 
Q 42.328125 -1.421875 30.609375 -1.421875 
Q 18.84375 -1.421875 12.171875 6.21875 
Q 5.515625 13.875 5.515625 27.296875 
Q 5.515625 40.765625 12.171875 48.375 
Q 18.84375 56 30.609375 56 
z
" id="DejaVuSans-6f"/>
      <path d="M 52 44.1875 
Q 55.375 50.25 60.0625 53.125 
Q 64.75 56 71.09375 56 
Q 79.640625 56 84.28125 50.015625 
Q 88.921875 44.046875 88.921875 33.015625 
L 88.921875 0 
L 79.890625 0 
L 79.890625 32.71875 
Q 79.890625 40.578125 77.09375 44.375 
Q 74.3125 48.1875 68.609375 48.1875 
Q 61.625 48.1875 57.5625 43.546875 
Q 53.515625 38.921875 53.515625 30.90625 
L 53.515625 0 
L 44.484375 0 
L 44.484375 32.71875 
Q 44.484375 40.625 41.703125 44.40625 
Q 38.921875 48.1875 33.109375 48.1875 
Q 26.21875 48.1875 22.15625 43.53125 
Q 18.109375 38.875 18.109375 30.90625 
L 18.109375 0 
L 9.078125 0 
L 9.078125 54.6875 
L 18.109375 54.6875 
L 18.109375 46.1875 
Q 21.1875 51.21875 25.484375 53.609375 
Q 29.78125 56 35.6875 56 
Q 41.65625 56 45.828125 52.96875 
Q 50 49.953125 52 44.1875 
z
" id="DejaVuSans-6d"/>
      <path d="M 18.109375 8.203125 
L 18.109375 -20.796875 
L 9.078125 -20.796875 
L 9.078125 54.6875 
L 18.109375 54.6875 
L 18.109375 46.390625 
Q 20.953125 51.265625 25.265625 53.625 
Q 29.59375 56 35.59375 56 
Q 45.5625 56 51.78125 48.09375 
Q 58.015625 40.1875 58.015625 27.296875 
Q 58.015625 14.40625 51.78125 6.484375 
Q 45.5625 -1.421875 35.59375 -1.421875 
Q 29.59375 -1.421875 25.265625 0.953125 
Q 20.953125 3.328125 18.109375 8.203125 
z
M 48.6875 27.296875 
Q 48.6875 37.203125 44.609375 42.84375 
Q 40.53125 48.484375 33.40625 48.484375 
Q 26.265625 48.484375 22.1875 42.84375 
Q 18.109375 37.203125 18.109375 27.296875 
Q 18.109375 17.390625 22.1875 11.75 
Q 26.265625 6.109375 33.40625 6.109375 
Q 40.53125 6.109375 44.609375 11.75 
Q 48.6875 17.390625 48.6875 27.296875 
z
" id="DejaVuSans-70"/>
      <path d="M 54.890625 33.015625 
L 54.890625 0 
L 45.90625 0 
L 45.90625 32.71875 
Q 45.90625 40.484375 42.875 44.328125 
Q 39.84375 48.1875 33.796875 48.1875 
Q 26.515625 48.1875 22.3125 43.546875 
Q 18.109375 38.921875 18.109375 30.90625 
L 18.109375 0 
L 9.078125 0 
L 9.078125 54.6875 
L 18.109375 54.6875 
L 18.109375 46.1875 
Q 21.34375 51.125 25.703125 53.5625 
Q 30.078125 56 35.796875 56 
Q 45.21875 56 50.046875 50.171875 
Q 54.890625 44.34375 54.890625 33.015625 
z
" id="DejaVuSans-6e"/>
      <path d="M 56.203125 29.59375 
L 56.203125 25.203125 
L 14.890625 25.203125 
Q 15.484375 15.921875 20.484375 11.0625 
Q 25.484375 6.203125 34.421875 6.203125 
Q 39.59375 6.203125 44.453125 7.46875 
Q 49.3125 8.734375 54.109375 11.28125 
L 54.109375 2.78125 
Q 49.265625 0.734375 44.1875 -0.34375 
Q 39.109375 -1.421875 33.890625 -1.421875 
Q 20.796875 -1.421875 13.15625 6.1875 
Q 5.515625 13.8125 5.515625 26.8125 
Q 5.515625 40.234375 12.765625 48.109375 
Q 20.015625 56 32.328125 56 
Q 43.359375 56 49.78125 48.890625 
Q 56.203125 41.796875 56.203125 29.59375 
z
M 47.21875 32.234375 
Q 47.125 39.59375 43.09375 43.984375 
Q 39.0625 48.390625 32.421875 48.390625 
Q 24.90625 48.390625 20.390625 44.140625 
Q 15.875 39.890625 15.1875 32.171875 
z
" id="DejaVuSans-65"/>
      <path d="M 18.3125 70.21875 
L 18.3125 54.6875 
L 36.8125 54.6875 
L 36.8125 47.703125 
L 18.3125 47.703125 
L 18.3125 18.015625 
Q 18.3125 11.328125 20.140625 9.421875 
Q 21.96875 7.515625 27.59375 7.515625 
L 36.8125 7.515625 
L 36.8125 0 
L 27.59375 0 
Q 17.1875 0 13.234375 3.875 
Q 9.28125 7.765625 9.28125 18.015625 
L 9.28125 47.703125 
L 2.6875 47.703125 
L 2.6875 54.6875 
L 9.28125 54.6875 
L 9.28125 70.21875 
z
" id="DejaVuSans-74"/>
      <path d="M 44.28125 53.078125 
L 44.28125 44.578125 
Q 40.484375 46.53125 36.375 47.5 
Q 32.28125 48.484375 27.875 48.484375 
Q 21.1875 48.484375 17.84375 46.4375 
Q 14.5 44.390625 14.5 40.28125 
Q 14.5 37.15625 16.890625 35.375 
Q 19.28125 33.59375 26.515625 31.984375 
L 29.59375 31.296875 
Q 39.15625 29.25 43.1875 25.515625 
Q 47.21875 21.78125 47.21875 15.09375 
Q 47.21875 7.46875 41.1875 3.015625 
Q 35.15625 -1.421875 24.609375 -1.421875 
Q 20.21875 -1.421875 15.453125 -0.5625 
Q 10.6875 0.296875 5.421875 2 
L 5.421875 11.28125 
Q 10.40625 8.6875 15.234375 7.390625 
Q 20.0625 6.109375 24.8125 6.109375 
Q 31.15625 6.109375 34.5625 8.28125 
Q 37.984375 10.453125 37.984375 14.40625 
Q 37.984375 18.0625 35.515625 20.015625 
Q 33.0625 21.96875 24.703125 23.78125 
L 21.578125 24.515625 
Q 13.234375 26.265625 9.515625 29.90625 
Q 5.8125 33.546875 5.8125 39.890625 
Q 5.8125 47.609375 11.28125 51.796875 
Q 16.75 56 26.8125 56 
Q 31.78125 56 36.171875 55.265625 
Q 40.578125 54.546875 44.28125 53.078125 
z
" id="DejaVuSans-73"/>
     </defs>
     <g transform="translate(257.7875 532.276562)scale(0.1 -0.1)">
      <use xlink:href="#DejaVuSans-23"/>
      <use x="83.789062" xlink:href="#DejaVuSans-20"/>
      <use x="115.576172" xlink:href="#DejaVuSans-43"/>
      <use x="185.400391" xlink:href="#DejaVuSans-6f"/>
      <use x="246.582031" xlink:href="#DejaVuSans-6d"/>
      <use x="343.994141" xlink:href="#DejaVuSans-70"/>
      <use x="407.470703" xlink:href="#DejaVuSans-6f"/>
      <use x="468.652344" xlink:href="#DejaVuSans-6e"/>
      <use x="532.03125" xlink:href="#DejaVuSans-65"/>
      <use x="593.554688" xlink:href="#DejaVuSans-6e"/>
      <use x="656.933594" xlink:href="#DejaVuSans-74"/>
      <use x="696.142578" xlink:href="#DejaVuSans-73"/>
     </g>
    </g>
   </g>
   <g id="matplotlib.axis_2">
    <g id="ytick_1">
     <g id="line2d_8">
      <defs>
       <path d="M 0 0 
L -3.5 0 
" id="mda37ab5aa9" style="stroke:#000000;stroke-width:0.8;"/>
      </defs>
      <g>
       <use style="stroke:#000000;stroke-width:0.8;" x="72" xlink:href="#mda37ab5aa9" y="446.764935"/>
      </g>
     </g>
     <g id="text_9">
      <!-- 0.4 -->
      <defs>
       <path d="M 10.6875 12.40625 
L 21 12.40625 
L 21 0 
L 10.6875 0 
z
" id="DejaVuSans-2e"/>
       <path d="M 37.796875 64.3125 
L 12.890625 25.390625 
L 37.796875 25.390625 
z
M 35.203125 72.90625 
L 47.609375 72.90625 
L 47.609375 25.390625 
L 58.015625 25.390625 
L 58.015625 17.1875 
L 47.609375 17.1875 
L 47.609375 0 
L 37.796875 0 
L 37.796875 17.1875 
L 4.890625 17.1875 
L 4.890625 26.703125 
z
" id="DejaVuSans-34"/>
      </defs>
      <g transform="translate(49.096875 450.564154)scale(0.1 -0.1)">
       <use xlink:href="#DejaVuSans-30"/>
       <use x="63.623047" xlink:href="#DejaVuSans-2e"/>
       <use x="95.410156" xlink:href="#DejaVuSans-34"/>
      </g>
     </g>
    </g>
    <g id="ytick_2">
     <g id="line2d_9">
      <g>
       <use style="stroke:#000000;stroke-width:0.8;" x="72" xlink:href="#mda37ab5aa9" y="387.118682"/>
      </g>
     </g>
     <g id="text_10">
      <!-- 0.5 -->
      <g transform="translate(49.096875 390.9179)scale(0.1 -0.1)">
       <use xlink:href="#DejaVuSans-30"/>
       <use x="63.623047" xlink:href="#DejaVuSans-2e"/>
       <use x="95.410156" xlink:href="#DejaVuSans-35"/>
      </g>
     </g>
    </g>
    <g id="ytick_3">
     <g id="line2d_10">
      <g>
       <use style="stroke:#000000;stroke-width:0.8;" x="72" xlink:href="#mda37ab5aa9" y="327.472428"/>
      </g>
     </g>
     <g id="text_11">
      <!-- 0.6 -->
      <defs>
       <path d="M 33.015625 40.375 
Q 26.375 40.375 22.484375 35.828125 
Q 18.609375 31.296875 18.609375 23.390625 
Q 18.609375 15.53125 22.484375 10.953125 
Q 26.375 6.390625 33.015625 6.390625 
Q 39.65625 6.390625 43.53125 10.953125 
Q 47.40625 15.53125 47.40625 23.390625 
Q 47.40625 31.296875 43.53125 35.828125 
Q 39.65625 40.375 33.015625 40.375 
z
M 52.59375 71.296875 
L 52.59375 62.3125 
Q 48.875 64.0625 45.09375 64.984375 
Q 41.3125 65.921875 37.59375 65.921875 
Q 27.828125 65.921875 22.671875 59.328125 
Q 17.53125 52.734375 16.796875 39.40625 
Q 19.671875 43.65625 24.015625 45.921875 
Q 28.375 48.1875 33.59375 48.1875 
Q 44.578125 48.1875 50.953125 41.515625 
Q 57.328125 34.859375 57.328125 23.390625 
Q 57.328125 12.15625 50.6875 5.359375 
Q 44.046875 -1.421875 33.015625 -1.421875 
Q 20.359375 -1.421875 13.671875 8.265625 
Q 6.984375 17.96875 6.984375 36.375 
Q 6.984375 53.65625 15.1875 63.9375 
Q 23.390625 74.21875 37.203125 74.21875 
Q 40.921875 74.21875 44.703125 73.484375 
Q 48.484375 72.75 52.59375 71.296875 
z
" id="DejaVuSans-36"/>
      </defs>
      <g transform="translate(49.096875 331.271647)scale(0.1 -0.1)">
       <use xlink:href="#DejaVuSans-30"/>
       <use x="63.623047" xlink:href="#DejaVuSans-2e"/>
       <use x="95.410156" xlink:href="#DejaVuSans-36"/>
      </g>
     </g>
    </g>
    <g id="ytick_4">
     <g id="line2d_11">
      <g>
       <use style="stroke:#000000;stroke-width:0.8;" x="72" xlink:href="#mda37ab5aa9" y="267.826175"/>
      </g>
     </g>
     <g id="text_12">
      <!-- 0.7 -->
      <defs>
       <path d="M 8.203125 72.90625 
L 55.078125 72.90625 
L 55.078125 68.703125 
L 28.609375 0 
L 18.3125 0 
L 43.21875 64.59375 
L 8.203125 64.59375 
z
" id="DejaVuSans-37"/>
      </defs>
      <g transform="translate(49.096875 271.625394)scale(0.1 -0.1)">
       <use xlink:href="#DejaVuSans-30"/>
       <use x="63.623047" xlink:href="#DejaVuSans-2e"/>
       <use x="95.410156" xlink:href="#DejaVuSans-37"/>
      </g>
     </g>
    </g>
    <g id="ytick_5">
     <g id="line2d_12">
      <g>
       <use style="stroke:#000000;stroke-width:0.8;" x="72" xlink:href="#mda37ab5aa9" y="208.179922"/>
      </g>
     </g>
     <g id="text_13">
      <!-- 0.8 -->
      <defs>
       <path d="M 31.78125 34.625 
Q 24.75 34.625 20.71875 30.859375 
Q 16.703125 27.09375 16.703125 20.515625 
Q 16.703125 13.921875 20.71875 10.15625 
Q 24.75 6.390625 31.78125 6.390625 
Q 38.8125 6.390625 42.859375 10.171875 
Q 46.921875 13.96875 46.921875 20.515625 
Q 46.921875 27.09375 42.890625 30.859375 
Q 38.875 34.625 31.78125 34.625 
z
M 21.921875 38.8125 
Q 15.578125 40.375 12.03125 44.71875 
Q 8.5 49.078125 8.5 55.328125 
Q 8.5 64.0625 14.71875 69.140625 
Q 20.953125 74.21875 31.78125 74.21875 
Q 42.671875 74.21875 48.875 69.140625 
Q 55.078125 64.0625 55.078125 55.328125 
Q 55.078125 49.078125 51.53125 44.71875 
Q 48 40.375 41.703125 38.8125 
Q 48.828125 37.15625 52.796875 32.3125 
Q 56.78125 27.484375 56.78125 20.515625 
Q 56.78125 9.90625 50.3125 4.234375 
Q 43.84375 -1.421875 31.78125 -1.421875 
Q 19.734375 -1.421875 13.25 4.234375 
Q 6.78125 9.90625 6.78125 20.515625 
Q 6.78125 27.484375 10.78125 32.3125 
Q 14.796875 37.15625 21.921875 38.8125 
z
M 18.3125 54.390625 
Q 18.3125 48.734375 21.84375 45.5625 
Q 25.390625 42.390625 31.78125 42.390625 
Q 38.140625 42.390625 41.71875 45.5625 
Q 45.3125 48.734375 45.3125 54.390625 
Q 45.3125 60.0625 41.71875 63.234375 
Q 38.140625 66.40625 31.78125 66.40625 
Q 25.390625 66.40625 21.84375 63.234375 
Q 18.3125 60.0625 18.3125 54.390625 
z
" id="DejaVuSans-38"/>
      </defs>
      <g transform="translate(49.096875 211.97914)scale(0.1 -0.1)">
       <use xlink:href="#DejaVuSans-30"/>
       <use x="63.623047" xlink:href="#DejaVuSans-2e"/>
       <use x="95.410156" xlink:href="#DejaVuSans-38"/>
      </g>
     </g>
    </g>
    <g id="ytick_6">
     <g id="line2d_13">
      <g>
       <use style="stroke:#000000;stroke-width:0.8;" x="72" xlink:href="#mda37ab5aa9" y="148.533668"/>
      </g>
     </g>
     <g id="text_14">
      <!-- 0.9 -->
      <defs>
       <path d="M 10.984375 1.515625 
L 10.984375 10.5 
Q 14.703125 8.734375 18.5 7.8125 
Q 22.3125 6.890625 25.984375 6.890625 
Q 35.75 6.890625 40.890625 13.453125 
Q 46.046875 20.015625 46.78125 33.40625 
Q 43.953125 29.203125 39.59375 26.953125 
Q 35.25 24.703125 29.984375 24.703125 
Q 19.046875 24.703125 12.671875 31.3125 
Q 6.296875 37.9375 6.296875 49.421875 
Q 6.296875 60.640625 12.9375 67.421875 
Q 19.578125 74.21875 30.609375 74.21875 
Q 43.265625 74.21875 49.921875 64.515625 
Q 56.59375 54.828125 56.59375 36.375 
Q 56.59375 19.140625 48.40625 8.859375 
Q 40.234375 -1.421875 26.421875 -1.421875 
Q 22.703125 -1.421875 18.890625 -0.6875 
Q 15.09375 0.046875 10.984375 1.515625 
z
M 30.609375 32.421875 
Q 37.25 32.421875 41.125 36.953125 
Q 45.015625 41.5 45.015625 49.421875 
Q 45.015625 57.28125 41.125 61.84375 
Q 37.25 66.40625 30.609375 66.40625 
Q 23.96875 66.40625 20.09375 61.84375 
Q 16.21875 57.28125 16.21875 49.421875 
Q 16.21875 41.5 20.09375 36.953125 
Q 23.96875 32.421875 30.609375 32.421875 
z
" id="DejaVuSans-39"/>
      </defs>
      <g transform="translate(49.096875 152.332887)scale(0.1 -0.1)">
       <use xlink:href="#DejaVuSans-30"/>
       <use x="63.623047" xlink:href="#DejaVuSans-2e"/>
       <use x="95.410156" xlink:href="#DejaVuSans-39"/>
      </g>
     </g>
    </g>
    <g id="ytick_7">
     <g id="line2d_14">
      <g>
       <use style="stroke:#000000;stroke-width:0.8;" x="72" xlink:href="#mda37ab5aa9" y="88.887415"/>
      </g>
     </g>
     <g id="text_15">
      <!-- 1.0 -->
      <g transform="translate(49.096875 92.686634)scale(0.1 -0.1)">
       <use xlink:href="#DejaVuSans-31"/>
       <use x="63.623047" xlink:href="#DejaVuSans-2e"/>
       <use x="95.410156" xlink:href="#DejaVuSans-30"/>
      </g>
     </g>
    </g>
    <g id="text_16">
     <!-- Cumulative Variance Explained -->
     <defs>
      <path d="M 8.5 21.578125 
L 8.5 54.6875 
L 17.484375 54.6875 
L 17.484375 21.921875 
Q 17.484375 14.15625 20.5 10.265625 
Q 23.53125 6.390625 29.59375 6.390625 
Q 36.859375 6.390625 41.078125 11.03125 
Q 45.3125 15.671875 45.3125 23.6875 
L 45.3125 54.6875 
L 54.296875 54.6875 
L 54.296875 0 
L 45.3125 0 
L 45.3125 8.40625 
Q 42.046875 3.421875 37.71875 1 
Q 33.40625 -1.421875 27.6875 -1.421875 
Q 18.265625 -1.421875 13.375 4.4375 
Q 8.5 10.296875 8.5 21.578125 
z
M 31.109375 56 
z
" id="DejaVuSans-75"/>
      <path d="M 9.421875 75.984375 
L 18.40625 75.984375 
L 18.40625 0 
L 9.421875 0 
z
" id="DejaVuSans-6c"/>
      <path d="M 34.28125 27.484375 
Q 23.390625 27.484375 19.1875 25 
Q 14.984375 22.515625 14.984375 16.5 
Q 14.984375 11.71875 18.140625 8.90625 
Q 21.296875 6.109375 26.703125 6.109375 
Q 34.1875 6.109375 38.703125 11.40625 
Q 43.21875 16.703125 43.21875 25.484375 
L 43.21875 27.484375 
z
M 52.203125 31.203125 
L 52.203125 0 
L 43.21875 0 
L 43.21875 8.296875 
Q 40.140625 3.328125 35.546875 0.953125 
Q 30.953125 -1.421875 24.3125 -1.421875 
Q 15.921875 -1.421875 10.953125 3.296875 
Q 6 8.015625 6 15.921875 
Q 6 25.140625 12.171875 29.828125 
Q 18.359375 34.515625 30.609375 34.515625 
L 43.21875 34.515625 
L 43.21875 35.40625 
Q 43.21875 41.609375 39.140625 45 
Q 35.0625 48.390625 27.6875 48.390625 
Q 23 48.390625 18.546875 47.265625 
Q 14.109375 46.140625 10.015625 43.890625 
L 10.015625 52.203125 
Q 14.9375 54.109375 19.578125 55.046875 
Q 24.21875 56 28.609375 56 
Q 40.484375 56 46.34375 49.84375 
Q 52.203125 43.703125 52.203125 31.203125 
z
" id="DejaVuSans-61"/>
      <path d="M 9.421875 54.6875 
L 18.40625 54.6875 
L 18.40625 0 
L 9.421875 0 
z
M 9.421875 75.984375 
L 18.40625 75.984375 
L 18.40625 64.59375 
L 9.421875 64.59375 
z
" id="DejaVuSans-69"/>
      <path d="M 2.984375 54.6875 
L 12.5 54.6875 
L 29.59375 8.796875 
L 46.6875 54.6875 
L 56.203125 54.6875 
L 35.6875 0 
L 23.484375 0 
z
" id="DejaVuSans-76"/>
      <path d="M 28.609375 0 
L 0.78125 72.90625 
L 11.078125 72.90625 
L 34.1875 11.53125 
L 57.328125 72.90625 
L 67.578125 72.90625 
L 39.796875 0 
z
" id="DejaVuSans-56"/>
      <path d="M 41.109375 46.296875 
Q 39.59375 47.171875 37.8125 47.578125 
Q 36.03125 48 33.890625 48 
Q 26.265625 48 22.1875 43.046875 
Q 18.109375 38.09375 18.109375 28.8125 
L 18.109375 0 
L 9.078125 0 
L 9.078125 54.6875 
L 18.109375 54.6875 
L 18.109375 46.1875 
Q 20.953125 51.171875 25.484375 53.578125 
Q 30.03125 56 36.53125 56 
Q 37.453125 56 38.578125 55.875 
Q 39.703125 55.765625 41.0625 55.515625 
z
" id="DejaVuSans-72"/>
      <path d="M 48.78125 52.59375 
L 48.78125 44.1875 
Q 44.96875 46.296875 41.140625 47.34375 
Q 37.3125 48.390625 33.40625 48.390625 
Q 24.65625 48.390625 19.8125 42.84375 
Q 14.984375 37.3125 14.984375 27.296875 
Q 14.984375 17.28125 19.8125 11.734375 
Q 24.65625 6.203125 33.40625 6.203125 
Q 37.3125 6.203125 41.140625 7.25 
Q 44.96875 8.296875 48.78125 10.40625 
L 48.78125 2.09375 
Q 45.015625 0.34375 40.984375 -0.53125 
Q 36.96875 -1.421875 32.421875 -1.421875 
Q 20.0625 -1.421875 12.78125 6.34375 
Q 5.515625 14.109375 5.515625 27.296875 
Q 5.515625 40.671875 12.859375 48.328125 
Q 20.21875 56 33.015625 56 
Q 37.15625 56 41.109375 55.140625 
Q 45.0625 54.296875 48.78125 52.59375 
z
" id="DejaVuSans-63"/>
      <path d="M 9.8125 72.90625 
L 55.90625 72.90625 
L 55.90625 64.59375 
L 19.671875 64.59375 
L 19.671875 43.015625 
L 54.390625 43.015625 
L 54.390625 34.71875 
L 19.671875 34.71875 
L 19.671875 8.296875 
L 56.78125 8.296875 
L 56.78125 0 
L 9.8125 0 
z
" id="DejaVuSans-45"/>
      <path d="M 54.890625 54.6875 
L 35.109375 28.078125 
L 55.90625 0 
L 45.3125 0 
L 29.390625 21.484375 
L 13.484375 0 
L 2.875 0 
L 24.125 28.609375 
L 4.6875 54.6875 
L 15.28125 54.6875 
L 29.78125 35.203125 
L 44.28125 54.6875 
z
" id="DejaVuSans-78"/>
      <path d="M 45.40625 46.390625 
L 45.40625 75.984375 
L 54.390625 75.984375 
L 54.390625 0 
L 45.40625 0 
L 45.40625 8.203125 
Q 42.578125 3.328125 38.25 0.953125 
Q 33.9375 -1.421875 27.875 -1.421875 
Q 17.96875 -1.421875 11.734375 6.484375 
Q 5.515625 14.40625 5.515625 27.296875 
Q 5.515625 40.1875 11.734375 48.09375 
Q 17.96875 56 27.875 56 
Q 33.9375 56 38.25 53.625 
Q 42.578125 51.265625 45.40625 46.390625 
z
M 14.796875 27.296875 
Q 14.796875 17.390625 18.875 11.75 
Q 22.953125 6.109375 30.078125 6.109375 
Q 37.203125 6.109375 41.296875 11.75 
Q 45.40625 17.390625 45.40625 27.296875 
Q 45.40625 37.203125 41.296875 42.84375 
Q 37.203125 48.484375 30.078125 48.484375 
Q 22.953125 48.484375 18.875 42.84375 
Q 14.796875 37.203125 14.796875 27.296875 
z
" id="DejaVuSans-64"/>
     </defs>
     <g transform="translate(43.017187 364.812344)rotate(-90)scale(0.1 -0.1)">
      <use xlink:href="#DejaVuSans-43"/>
      <use x="69.824219" xlink:href="#DejaVuSans-75"/>
      <use x="133.203125" xlink:href="#DejaVuSans-6d"/>
      <use x="230.615234" xlink:href="#DejaVuSans-75"/>
      <use x="293.994141" xlink:href="#DejaVuSans-6c"/>
      <use x="321.777344" xlink:href="#DejaVuSans-61"/>
      <use x="383.056641" xlink:href="#DejaVuSans-74"/>
      <use x="422.265625" xlink:href="#DejaVuSans-69"/>
      <use x="450.048828" xlink:href="#DejaVuSans-76"/>
      <use x="509.228516" xlink:href="#DejaVuSans-65"/>
      <use x="570.751953" xlink:href="#DejaVuSans-20"/>
      <use x="602.539062" xlink:href="#DejaVuSans-56"/>
      <use x="670.837891" xlink:href="#DejaVuSans-61"/>
      <use x="732.117188" xlink:href="#DejaVuSans-72"/>
      <use x="773.230469" xlink:href="#DejaVuSans-69"/>
      <use x="801.013672" xlink:href="#DejaVuSans-61"/>
      <use x="862.292969" xlink:href="#DejaVuSans-6e"/>
      <use x="925.671875" xlink:href="#DejaVuSans-63"/>
      <use x="980.652344" xlink:href="#DejaVuSans-65"/>
      <use x="1042.175781" xlink:href="#DejaVuSans-20"/>
      <use x="1073.962891" xlink:href="#DejaVuSans-45"/>
      <use x="1137.146484" xlink:href="#DejaVuSans-78"/>
      <use x="1196.326172" xlink:href="#DejaVuSans-70"/>
      <use x="1259.802734" xlink:href="#DejaVuSans-6c"/>
      <use x="1287.585938" xlink:href="#DejaVuSans-61"/>
      <use x="1348.865234" xlink:href="#DejaVuSans-69"/>
      <use x="1376.648438" xlink:href="#DejaVuSans-6e"/>
      <use x="1440.027344" xlink:href="#DejaVuSans-65"/>
      <use x="1501.550781" xlink:href="#DejaVuSans-64"/>
     </g>
    </g>
   </g>
   <g id="line2d_15">
    <path clip-path="url(#p64b4187a95)" d="M 86.4 395.49694 
L 100.8 232.437464 
L 115.2 120.095866 
L 129.6 101.776877 
L 144 96.085616 
L 158.4 91.46781 
L 172.8 90.541895 
L 187.2 89.813365 
L 201.6 89.443981 
L 216 89.290147 
L 230.4 89.153877 
L 244.8 89.075627 
L 259.2 89.024752 
L 273.6 88.992329 
L 288 88.9657 
L 302.4 88.948173 
L 316.8 88.93701 
L 331.2 88.927589 
L 345.6 88.919554 
L 360 88.911946 
L 374.4 88.906649 
L 388.8 88.902951 
L 403.2 88.899609 
L 417.6 88.896445 
L 432 88.893779 
L 446.4 88.891681 
L 460.8 88.890188 
L 475.2 88.88905 
L 489.6 88.888197 
L 504 88.887557 
" style="fill:none;stroke:#000000;stroke-linecap:square;stroke-width:1.5;"/>
    <defs>
     <path d="M 0 3 
C 0.795609 3 1.55874 2.683901 2.12132 2.12132 
C 2.683901 1.55874 3 0.795609 3 0 
C 3 -0.795609 2.683901 -1.55874 2.12132 -2.12132 
C 1.55874 -2.683901 0.795609 -3 0 -3 
C -0.795609 -3 -1.55874 -2.683901 -2.12132 -2.12132 
C -2.683901 -1.55874 -3 -0.795609 -3 0 
C -3 0.795609 -2.683901 1.55874 -2.12132 2.12132 
C -1.55874 2.683901 -0.795609 3 0 3 
z
" id="md3769a3c6b" style="stroke:#000000;"/>
    </defs>
    <g clip-path="url(#p64b4187a95)">
     <use style="stroke:#000000;" x="86.4" xlink:href="#md3769a3c6b" y="395.49694"/>
     <use style="stroke:#000000;" x="100.8" xlink:href="#md3769a3c6b" y="232.437464"/>
     <use style="stroke:#000000;" x="115.2" xlink:href="#md3769a3c6b" y="120.095866"/>
     <use style="stroke:#000000;" x="129.6" xlink:href="#md3769a3c6b" y="101.776877"/>
     <use style="stroke:#000000;" x="144" xlink:href="#md3769a3c6b" y="96.085616"/>
     <use style="stroke:#000000;" x="158.4" xlink:href="#md3769a3c6b" y="91.46781"/>
     <use style="stroke:#000000;" x="172.8" xlink:href="#md3769a3c6b" y="90.541895"/>
     <use style="stroke:#000000;" x="187.2" xlink:href="#md3769a3c6b" y="89.813365"/>
     <use style="stroke:#000000;" x="201.6" xlink:href="#md3769a3c6b" y="89.443981"/>
     <use style="stroke:#000000;" x="216" xlink:href="#md3769a3c6b" y="89.290147"/>
     <use style="stroke:#000000;" x="230.4" xlink:href="#md3769a3c6b" y="89.153877"/>
     <use style="stroke:#000000;" x="244.8" xlink:href="#md3769a3c6b" y="89.075627"/>
     <use style="stroke:#000000;" x="259.2" xlink:href="#md3769a3c6b" y="89.024752"/>
     <use style="stroke:#000000;" x="273.6" xlink:href="#md3769a3c6b" y="88.992329"/>
     <use style="stroke:#000000;" x="288" xlink:href="#md3769a3c6b" y="88.9657"/>
     <use style="stroke:#000000;" x="302.4" xlink:href="#md3769a3c6b" y="88.948173"/>
     <use style="stroke:#000000;" x="316.8" xlink:href="#md3769a3c6b" y="88.93701"/>
     <use style="stroke:#000000;" x="331.2" xlink:href="#md3769a3c6b" y="88.927589"/>
     <use style="stroke:#000000;" x="345.6" xlink:href="#md3769a3c6b" y="88.919554"/>
     <use style="stroke:#000000;" x="360" xlink:href="#md3769a3c6b" y="88.911946"/>
     <use style="stroke:#000000;" x="374.4" xlink:href="#md3769a3c6b" y="88.906649"/>
     <use style="stroke:#000000;" x="388.8" xlink:href="#md3769a3c6b" y="88.902951"/>
     <use style="stroke:#000000;" x="403.2" xlink:href="#md3769a3c6b" y="88.899609"/>
     <use style="stroke:#000000;" x="417.6" xlink:href="#md3769a3c6b" y="88.896445"/>
     <use style="stroke:#000000;" x="432" xlink:href="#md3769a3c6b" y="88.893779"/>
     <use style="stroke:#000000;" x="446.4" xlink:href="#md3769a3c6b" y="88.891681"/>
     <use style="stroke:#000000;" x="460.8" xlink:href="#md3769a3c6b" y="88.890188"/>
     <use style="stroke:#000000;" x="475.2" xlink:href="#md3769a3c6b" y="88.88905"/>
     <use style="stroke:#000000;" x="489.6" xlink:href="#md3769a3c6b" y="88.888197"/>
     <use style="stroke:#000000;" x="504" xlink:href="#md3769a3c6b" y="88.887557"/>
    </g>
   </g>
   <g id="line2d_16">
    <path clip-path="url(#p64b4187a95)" d="M 86.4 410.51271 
L 100.8 252.600354 
L 115.2 136.292368 
L 129.6 112.602868 
L 144 105.367942 
L 158.4 93.45495 
L 172.8 92.353516 
L 187.2 91.42721 
L 201.6 91.081467 
L 216 90.918462 
L 230.4 90.694591 
L 244.8 90.604858 
L 259.2 90.477084 
L 273.6 90.267221 
L 288 90.157152 
L 302.4 90.113637 
L 316.8 90.005061 
L 331.2 89.959341 
L 345.6 89.880523 
L 360 89.570048 
L 374.4 89.441065 
L 388.8 89.388484 
L 403.2 89.332454 
L 417.6 89.190815 
L 432 89.139763 
L 446.4 89.053834 
L 460.8 88.993324 
L 475.2 88.969042 
L 489.6 88.930113 
L 504 88.887273 
" style="fill:none;stroke:#0000ff;stroke-linecap:square;stroke-width:1.5;"/>
    <defs>
     <path d="M 0 3 
C 0.795609 3 1.55874 2.683901 2.12132 2.12132 
C 2.683901 1.55874 3 0.795609 3 0 
C 3 -0.795609 2.683901 -1.55874 2.12132 -2.12132 
C 1.55874 -2.683901 0.795609 -3 0 -3 
C -0.795609 -3 -1.55874 -2.683901 -2.12132 -2.12132 
C -2.683901 -1.55874 -3 -0.795609 -3 0 
C -3 0.795609 -2.683901 1.55874 -2.12132 2.12132 
C -1.55874 2.683901 -0.795609 3 0 3 
z
" id="mddfa4bc894" style="stroke:#0000ff;"/>
    </defs>
    <g clip-path="url(#p64b4187a95)">
     <use style="fill:#0000ff;stroke:#0000ff;" x="86.4" xlink:href="#mddfa4bc894" y="410.51271"/>
     <use style="fill:#0000ff;stroke:#0000ff;" x="100.8" xlink:href="#mddfa4bc894" y="252.600354"/>
     <use style="fill:#0000ff;stroke:#0000ff;" x="115.2" xlink:href="#mddfa4bc894" y="136.292368"/>
     <use style="fill:#0000ff;stroke:#0000ff;" x="129.6" xlink:href="#mddfa4bc894" y="112.602868"/>
     <use style="fill:#0000ff;stroke:#0000ff;" x="144" xlink:href="#mddfa4bc894" y="105.367942"/>
     <use style="fill:#0000ff;stroke:#0000ff;" x="158.4" xlink:href="#mddfa4bc894" y="93.45495"/>
     <use style="fill:#0000ff;stroke:#0000ff;" x="172.8" xlink:href="#mddfa4bc894" y="92.353516"/>
     <use style="fill:#0000ff;stroke:#0000ff;" x="187.2" xlink:href="#mddfa4bc894" y="91.42721"/>
     <use style="fill:#0000ff;stroke:#0000ff;" x="201.6" xlink:href="#mddfa4bc894" y="91.081467"/>
     <use style="fill:#0000ff;stroke:#0000ff;" x="216" xlink:href="#mddfa4bc894" y="90.918462"/>
     <use style="fill:#0000ff;stroke:#0000ff;" x="230.4" xlink:href="#mddfa4bc894" y="90.694591"/>
     <use style="fill:#0000ff;stroke:#0000ff;" x="244.8" xlink:href="#mddfa4bc894" y="90.604858"/>
     <use style="fill:#0000ff;stroke:#0000ff;" x="259.2" xlink:href="#mddfa4bc894" y="90.477084"/>
     <use style="fill:#0000ff;stroke:#0000ff;" x="273.6" xlink:href="#mddfa4bc894" y="90.267221"/>
     <use style="fill:#0000ff;stroke:#0000ff;" x="288" xlink:href="#mddfa4bc894" y="90.157152"/>
     <use style="fill:#0000ff;stroke:#0000ff;" x="302.4" xlink:href="#mddfa4bc894" y="90.113637"/>
     <use style="fill:#0000ff;stroke:#0000ff;" x="316.8" xlink:href="#mddfa4bc894" y="90.005061"/>
     <use style="fill:#0000ff;stroke:#0000ff;" x="331.2" xlink:href="#mddfa4bc894" y="89.959341"/>
     <use style="fill:#0000ff;stroke:#0000ff;" x="345.6" xlink:href="#mddfa4bc894" y="89.880523"/>
     <use style="fill:#0000ff;stroke:#0000ff;" x="360" xlink:href="#mddfa4bc894" y="89.570048"/>
     <use style="fill:#0000ff;stroke:#0000ff;" x="374.4" xlink:href="#mddfa4bc894" y="89.441065"/>
     <use style="fill:#0000ff;stroke:#0000ff;" x="388.8" xlink:href="#mddfa4bc894" y="89.388484"/>
     <use style="fill:#0000ff;stroke:#0000ff;" x="403.2" xlink:href="#mddfa4bc894" y="89.332454"/>
     <use style="fill:#0000ff;stroke:#0000ff;" x="417.6" xlink:href="#mddfa4bc894" y="89.190815"/>
     <use style="fill:#0000ff;stroke:#0000ff;" x="432" xlink:href="#mddfa4bc894" y="89.139763"/>
     <use style="fill:#0000ff;stroke:#0000ff;" x="446.4" xlink:href="#mddfa4bc894" y="89.053834"/>
     <use style="fill:#0000ff;stroke:#0000ff;" x="460.8" xlink:href="#mddfa4bc894" y="88.993324"/>
     <use style="fill:#0000ff;stroke:#0000ff;" x="475.2" xlink:href="#mddfa4bc894" y="88.969042"/>
     <use style="fill:#0000ff;stroke:#0000ff;" x="489.6" xlink:href="#mddfa4bc894" y="88.930113"/>
     <use style="fill:#0000ff;stroke:#0000ff;" x="504" xlink:href="#mddfa4bc894" y="88.887273"/>
    </g>
   </g>
   <g id="line2d_17">
    <path clip-path="url(#p64b4187a95)" d="M 86.4 456.094311 
L 100.8 425.011181 
L 115.2 269.874934 
L 129.6 260.383277 
L 144 251.931871 
L 158.4 223.812635 
L 172.8 221.476055 
L 187.2 220.172152 
L 201.6 218.722273 
L 216 211.830281 
L 230.4 201.50582 
L 244.8 197.42268 
L 259.2 196.371481 
L 273.6 195.727066 
L 288 192.322186 
L 302.4 191.613245 
L 316.8 191.490413 
L 331.2 185.543889 
L 345.6 185.293533 
L 360 160.927763 
L 374.4 152.665742 
L 388.8 145.045717 
L 403.2 144.081158 
L 417.6 116.40913 
L 432 115.366427 
L 446.4 113.786037 
L 460.8 101.407207 
L 475.2 98.93873 
L 489.6 96.630342 
L 504 88.887344 
" style="fill:none;stroke:#008000;stroke-linecap:square;stroke-width:1.5;"/>
    <defs>
     <path d="M 0 3 
C 0.795609 3 1.55874 2.683901 2.12132 2.12132 
C 2.683901 1.55874 3 0.795609 3 0 
C 3 -0.795609 2.683901 -1.55874 2.12132 -2.12132 
C 1.55874 -2.683901 0.795609 -3 0 -3 
C -0.795609 -3 -1.55874 -2.683901 -2.12132 -2.12132 
C -2.683901 -1.55874 -3 -0.795609 -3 0 
C -3 0.795609 -2.683901 1.55874 -2.12132 2.12132 
C -1.55874 2.683901 -0.795609 3 0 3 
z
" id="m587017e77d" style="stroke:#008000;"/>
    </defs>
    <g clip-path="url(#p64b4187a95)">
     <use style="fill:#008000;stroke:#008000;" x="86.4" xlink:href="#m587017e77d" y="456.094311"/>
     <use style="fill:#008000;stroke:#008000;" x="100.8" xlink:href="#m587017e77d" y="425.011181"/>
     <use style="fill:#008000;stroke:#008000;" x="115.2" xlink:href="#m587017e77d" y="269.874934"/>
     <use style="fill:#008000;stroke:#008000;" x="129.6" xlink:href="#m587017e77d" y="260.383277"/>
     <use style="fill:#008000;stroke:#008000;" x="144" xlink:href="#m587017e77d" y="251.931871"/>
     <use style="fill:#008000;stroke:#008000;" x="158.4" xlink:href="#m587017e77d" y="223.812635"/>
     <use style="fill:#008000;stroke:#008000;" x="172.8" xlink:href="#m587017e77d" y="221.476055"/>
     <use style="fill:#008000;stroke:#008000;" x="187.2" xlink:href="#m587017e77d" y="220.172152"/>
     <use style="fill:#008000;stroke:#008000;" x="201.6" xlink:href="#m587017e77d" y="218.722273"/>
     <use style="fill:#008000;stroke:#008000;" x="216" xlink:href="#m587017e77d" y="211.830281"/>
     <use style="fill:#008000;stroke:#008000;" x="230.4" xlink:href="#m587017e77d" y="201.50582"/>
     <use style="fill:#008000;stroke:#008000;" x="244.8" xlink:href="#m587017e77d" y="197.42268"/>
     <use style="fill:#008000;stroke:#008000;" x="259.2" xlink:href="#m587017e77d" y="196.371481"/>
     <use style="fill:#008000;stroke:#008000;" x="273.6" xlink:href="#m587017e77d" y="195.727066"/>
     <use style="fill:#008000;stroke:#008000;" x="288" xlink:href="#m587017e77d" y="192.322186"/>
     <use style="fill:#008000;stroke:#008000;" x="302.4" xlink:href="#m587017e77d" y="191.613245"/>
     <use style="fill:#008000;stroke:#008000;" x="316.8" xlink:href="#m587017e77d" y="191.490413"/>
     <use style="fill:#008000;stroke:#008000;" x="331.2" xlink:href="#m587017e77d" y="185.543889"/>
     <use style="fill:#008000;stroke:#008000;" x="345.6" xlink:href="#m587017e77d" y="185.293533"/>
     <use style="fill:#008000;stroke:#008000;" x="360" xlink:href="#m587017e77d" y="160.927763"/>
     <use style="fill:#008000;stroke:#008000;" x="374.4" xlink:href="#m587017e77d" y="152.665742"/>
     <use style="fill:#008000;stroke:#008000;" x="388.8" xlink:href="#m587017e77d" y="145.045717"/>
     <use style="fill:#008000;stroke:#008000;" x="403.2" xlink:href="#m587017e77d" y="144.081158"/>
     <use style="fill:#008000;stroke:#008000;" x="417.6" xlink:href="#m587017e77d" y="116.40913"/>
     <use style="fill:#008000;stroke:#008000;" x="432" xlink:href="#m587017e77d" y="115.366427"/>
     <use style="fill:#008000;stroke:#008000;" x="446.4" xlink:href="#m587017e77d" y="113.786037"/>
     <use style="fill:#008000;stroke:#008000;" x="460.8" xlink:href="#m587017e77d" y="101.407207"/>
     <use style="fill:#008000;stroke:#008000;" x="475.2" xlink:href="#m587017e77d" y="98.93873"/>
     <use style="fill:#008000;stroke:#008000;" x="489.6" xlink:href="#m587017e77d" y="96.630342"/>
     <use style="fill:#008000;stroke:#008000;" x="504" xlink:href="#m587017e77d" y="88.887344"/>
    </g>
   </g>
   <g id="line2d_18">
    <path clip-path="url(#p64b4187a95)" d="M 86.4 460.884739 
L 100.8 443.016584 
L 115.2 249.911312 
L 129.6 244.277396 
L 144 238.777298 
L 158.4 205.486358 
L 172.8 203.888582 
L 187.2 199.152887 
L 201.6 198.716806 
L 216 197.988881 
L 230.4 194.311317 
L 244.8 192.903496 
L 259.2 191.477294 
L 273.6 190.71826 
L 288 180.414989 
L 302.4 173.540453 
L 316.8 169.828262 
L 331.2 169.250294 
L 345.6 158.026441 
L 360 142.981821 
L 374.4 136.38075 
L 388.8 130.899033 
L 403.2 126.919278 
L 417.6 126.013628 
L 432 122.442507 
L 446.4 117.885495 
L 460.8 115.691585 
L 475.2 110.468436 
L 489.6 90.424183 
L 504 88.887415 
" style="fill:none;stroke:#ff0000;stroke-linecap:square;stroke-width:1.5;"/>
    <defs>
     <path d="M 0 3 
C 0.795609 3 1.55874 2.683901 2.12132 2.12132 
C 2.683901 1.55874 3 0.795609 3 0 
C 3 -0.795609 2.683901 -1.55874 2.12132 -2.12132 
C 1.55874 -2.683901 0.795609 -3 0 -3 
C -0.795609 -3 -1.55874 -2.683901 -2.12132 -2.12132 
C -2.683901 -1.55874 -3 -0.795609 -3 0 
C -3 0.795609 -2.683901 1.55874 -2.12132 2.12132 
C -1.55874 2.683901 -0.795609 3 0 3 
z
" id="m9fa4cdaa02" style="stroke:#ff0000;"/>
    </defs>
    <g clip-path="url(#p64b4187a95)">
     <use style="fill:#ff0000;stroke:#ff0000;" x="86.4" xlink:href="#m9fa4cdaa02" y="460.884739"/>
     <use style="fill:#ff0000;stroke:#ff0000;" x="100.8" xlink:href="#m9fa4cdaa02" y="443.016584"/>
     <use style="fill:#ff0000;stroke:#ff0000;" x="115.2" xlink:href="#m9fa4cdaa02" y="249.911312"/>
     <use style="fill:#ff0000;stroke:#ff0000;" x="129.6" xlink:href="#m9fa4cdaa02" y="244.277396"/>
     <use style="fill:#ff0000;stroke:#ff0000;" x="144" xlink:href="#m9fa4cdaa02" y="238.777298"/>
     <use style="fill:#ff0000;stroke:#ff0000;" x="158.4" xlink:href="#m9fa4cdaa02" y="205.486358"/>
     <use style="fill:#ff0000;stroke:#ff0000;" x="172.8" xlink:href="#m9fa4cdaa02" y="203.888582"/>
     <use style="fill:#ff0000;stroke:#ff0000;" x="187.2" xlink:href="#m9fa4cdaa02" y="199.152887"/>
     <use style="fill:#ff0000;stroke:#ff0000;" x="201.6" xlink:href="#m9fa4cdaa02" y="198.716806"/>
     <use style="fill:#ff0000;stroke:#ff0000;" x="216" xlink:href="#m9fa4cdaa02" y="197.988881"/>
     <use style="fill:#ff0000;stroke:#ff0000;" x="230.4" xlink:href="#m9fa4cdaa02" y="194.311317"/>
     <use style="fill:#ff0000;stroke:#ff0000;" x="244.8" xlink:href="#m9fa4cdaa02" y="192.903496"/>
     <use style="fill:#ff0000;stroke:#ff0000;" x="259.2" xlink:href="#m9fa4cdaa02" y="191.477294"/>
     <use style="fill:#ff0000;stroke:#ff0000;" x="273.6" xlink:href="#m9fa4cdaa02" y="190.71826"/>
     <use style="fill:#ff0000;stroke:#ff0000;" x="288" xlink:href="#m9fa4cdaa02" y="180.414989"/>
     <use style="fill:#ff0000;stroke:#ff0000;" x="302.4" xlink:href="#m9fa4cdaa02" y="173.540453"/>
     <use style="fill:#ff0000;stroke:#ff0000;" x="316.8" xlink:href="#m9fa4cdaa02" y="169.828262"/>
     <use style="fill:#ff0000;stroke:#ff0000;" x="331.2" xlink:href="#m9fa4cdaa02" y="169.250294"/>
     <use style="fill:#ff0000;stroke:#ff0000;" x="345.6" xlink:href="#m9fa4cdaa02" y="158.026441"/>
     <use style="fill:#ff0000;stroke:#ff0000;" x="360" xlink:href="#m9fa4cdaa02" y="142.981821"/>
     <use style="fill:#ff0000;stroke:#ff0000;" x="374.4" xlink:href="#m9fa4cdaa02" y="136.38075"/>
     <use style="fill:#ff0000;stroke:#ff0000;" x="388.8" xlink:href="#m9fa4cdaa02" y="130.899033"/>
     <use style="fill:#ff0000;stroke:#ff0000;" x="403.2" xlink:href="#m9fa4cdaa02" y="126.919278"/>
     <use style="fill:#ff0000;stroke:#ff0000;" x="417.6" xlink:href="#m9fa4cdaa02" y="126.013628"/>
     <use style="fill:#ff0000;stroke:#ff0000;" x="432" xlink:href="#m9fa4cdaa02" y="122.442507"/>
     <use style="fill:#ff0000;stroke:#ff0000;" x="446.4" xlink:href="#m9fa4cdaa02" y="117.885495"/>
     <use style="fill:#ff0000;stroke:#ff0000;" x="460.8" xlink:href="#m9fa4cdaa02" y="115.691585"/>
     <use style="fill:#ff0000;stroke:#ff0000;" x="475.2" xlink:href="#m9fa4cdaa02" y="110.468436"/>
     <use style="fill:#ff0000;stroke:#ff0000;" x="489.6" xlink:href="#m9fa4cdaa02" y="90.424183"/>
     <use style="fill:#ff0000;stroke:#ff0000;" x="504" xlink:href="#m9fa4cdaa02" y="88.887415"/>
    </g>
   </g>
   <g id="line2d_19">
    <path clip-path="url(#p64b4187a95)" d="M 86.4 406.734161 
L 100.8 244.271424 
L 115.2 134.806617 
L 129.6 107.038243 
L 144 99.357816 
L 158.4 92.029175 
L 172.8 90.777391 
L 187.2 90.002039 
L 201.6 89.56276 
L 216 89.380023 
L 230.4 89.265332 
L 244.8 89.155299 
L 259.2 89.096318 
L 273.6 89.04939 
L 288 89.003919 
L 302.4 88.979566 
L 316.8 88.958092 
L 331.2 88.941667 
L 345.6 88.929757 
L 360 88.920336 
L 374.4 88.912728 
L 388.8 88.906755 
L 403.2 88.9016 
L 417.6 88.897334 
L 432 88.894703 
L 446.4 88.892677 
L 460.8 88.890899 
L 475.2 88.889441 
L 489.6 88.888304 
L 504 88.88745 
" style="fill:none;stroke:#000000;stroke-linecap:square;stroke-width:1.5;"/>
    <g clip-path="url(#p64b4187a95)">
     <use style="stroke:#000000;" x="86.4" xlink:href="#md3769a3c6b" y="406.734161"/>
     <use style="stroke:#000000;" x="100.8" xlink:href="#md3769a3c6b" y="244.271424"/>
     <use style="stroke:#000000;" x="115.2" xlink:href="#md3769a3c6b" y="134.806617"/>
     <use style="stroke:#000000;" x="129.6" xlink:href="#md3769a3c6b" y="107.038243"/>
     <use style="stroke:#000000;" x="144" xlink:href="#md3769a3c6b" y="99.357816"/>
     <use style="stroke:#000000;" x="158.4" xlink:href="#md3769a3c6b" y="92.029175"/>
     <use style="stroke:#000000;" x="172.8" xlink:href="#md3769a3c6b" y="90.777391"/>
     <use style="stroke:#000000;" x="187.2" xlink:href="#md3769a3c6b" y="90.002039"/>
     <use style="stroke:#000000;" x="201.6" xlink:href="#md3769a3c6b" y="89.56276"/>
     <use style="stroke:#000000;" x="216" xlink:href="#md3769a3c6b" y="89.380023"/>
     <use style="stroke:#000000;" x="230.4" xlink:href="#md3769a3c6b" y="89.265332"/>
     <use style="stroke:#000000;" x="244.8" xlink:href="#md3769a3c6b" y="89.155299"/>
     <use style="stroke:#000000;" x="259.2" xlink:href="#md3769a3c6b" y="89.096318"/>
     <use style="stroke:#000000;" x="273.6" xlink:href="#md3769a3c6b" y="89.04939"/>
     <use style="stroke:#000000;" x="288" xlink:href="#md3769a3c6b" y="89.003919"/>
     <use style="stroke:#000000;" x="302.4" xlink:href="#md3769a3c6b" y="88.979566"/>
     <use style="stroke:#000000;" x="316.8" xlink:href="#md3769a3c6b" y="88.958092"/>
     <use style="stroke:#000000;" x="331.2" xlink:href="#md3769a3c6b" y="88.941667"/>
     <use style="stroke:#000000;" x="345.6" xlink:href="#md3769a3c6b" y="88.929757"/>
     <use style="stroke:#000000;" x="360" xlink:href="#md3769a3c6b" y="88.920336"/>
     <use style="stroke:#000000;" x="374.4" xlink:href="#md3769a3c6b" y="88.912728"/>
     <use style="stroke:#000000;" x="388.8" xlink:href="#md3769a3c6b" y="88.906755"/>
     <use style="stroke:#000000;" x="403.2" xlink:href="#md3769a3c6b" y="88.9016"/>
     <use style="stroke:#000000;" x="417.6" xlink:href="#md3769a3c6b" y="88.897334"/>
     <use style="stroke:#000000;" x="432" xlink:href="#md3769a3c6b" y="88.894703"/>
     <use style="stroke:#000000;" x="446.4" xlink:href="#md3769a3c6b" y="88.892677"/>
     <use style="stroke:#000000;" x="460.8" xlink:href="#md3769a3c6b" y="88.890899"/>
     <use style="stroke:#000000;" x="475.2" xlink:href="#md3769a3c6b" y="88.889441"/>
     <use style="stroke:#000000;" x="489.6" xlink:href="#md3769a3c6b" y="88.888304"/>
     <use style="stroke:#000000;" x="504" xlink:href="#md3769a3c6b" y="88.88745"/>
    </g>
   </g>
   <g id="line2d_20">
    <path clip-path="url(#p64b4187a95)" d="M 86.4 399.962335 
L 100.8 242.527246 
L 115.2 123.359676 
L 129.6 106.979618 
L 144 101.534946 
L 158.4 93.907562 
L 172.8 93.035188 
L 187.2 92.147314 
L 201.6 91.764491 
L 216 91.39212 
L 230.4 91.237149 
L 244.8 90.989281 
L 259.2 90.82432 
L 273.6 90.755705 
L 288 90.454651 
L 302.4 90.333739 
L 316.8 90.186198 
L 331.2 90.062655 
L 345.6 89.88294 
L 360 89.761104 
L 374.4 89.69711 
L 388.8 89.548894 
L 403.2 89.493718 
L 417.6 89.34831 
L 432 89.203827 
L 446.4 89.098842 
L 460.8 89.077938 
L 475.2 89.023117 
L 489.6 88.941312 
L 504 88.887415 
" style="fill:none;stroke:#0000ff;stroke-linecap:square;stroke-width:1.5;"/>
    <g clip-path="url(#p64b4187a95)">
     <use style="fill:#0000ff;stroke:#0000ff;" x="86.4" xlink:href="#mddfa4bc894" y="399.962335"/>
     <use style="fill:#0000ff;stroke:#0000ff;" x="100.8" xlink:href="#mddfa4bc894" y="242.527246"/>
     <use style="fill:#0000ff;stroke:#0000ff;" x="115.2" xlink:href="#mddfa4bc894" y="123.359676"/>
     <use style="fill:#0000ff;stroke:#0000ff;" x="129.6" xlink:href="#mddfa4bc894" y="106.979618"/>
     <use style="fill:#0000ff;stroke:#0000ff;" x="144" xlink:href="#mddfa4bc894" y="101.534946"/>
     <use style="fill:#0000ff;stroke:#0000ff;" x="158.4" xlink:href="#mddfa4bc894" y="93.907562"/>
     <use style="fill:#0000ff;stroke:#0000ff;" x="172.8" xlink:href="#mddfa4bc894" y="93.035188"/>
     <use style="fill:#0000ff;stroke:#0000ff;" x="187.2" xlink:href="#mddfa4bc894" y="92.147314"/>
     <use style="fill:#0000ff;stroke:#0000ff;" x="201.6" xlink:href="#mddfa4bc894" y="91.764491"/>
     <use style="fill:#0000ff;stroke:#0000ff;" x="216" xlink:href="#mddfa4bc894" y="91.39212"/>
     <use style="fill:#0000ff;stroke:#0000ff;" x="230.4" xlink:href="#mddfa4bc894" y="91.237149"/>
     <use style="fill:#0000ff;stroke:#0000ff;" x="244.8" xlink:href="#mddfa4bc894" y="90.989281"/>
     <use style="fill:#0000ff;stroke:#0000ff;" x="259.2" xlink:href="#mddfa4bc894" y="90.82432"/>
     <use style="fill:#0000ff;stroke:#0000ff;" x="273.6" xlink:href="#mddfa4bc894" y="90.755705"/>
     <use style="fill:#0000ff;stroke:#0000ff;" x="288" xlink:href="#mddfa4bc894" y="90.454651"/>
     <use style="fill:#0000ff;stroke:#0000ff;" x="302.4" xlink:href="#mddfa4bc894" y="90.333739"/>
     <use style="fill:#0000ff;stroke:#0000ff;" x="316.8" xlink:href="#mddfa4bc894" y="90.186198"/>
     <use style="fill:#0000ff;stroke:#0000ff;" x="331.2" xlink:href="#mddfa4bc894" y="90.062655"/>
     <use style="fill:#0000ff;stroke:#0000ff;" x="345.6" xlink:href="#mddfa4bc894" y="89.88294"/>
     <use style="fill:#0000ff;stroke:#0000ff;" x="360" xlink:href="#mddfa4bc894" y="89.761104"/>
     <use style="fill:#0000ff;stroke:#0000ff;" x="374.4" xlink:href="#mddfa4bc894" y="89.69711"/>
     <use style="fill:#0000ff;stroke:#0000ff;" x="388.8" xlink:href="#mddfa4bc894" y="89.548894"/>
     <use style="fill:#0000ff;stroke:#0000ff;" x="403.2" xlink:href="#mddfa4bc894" y="89.493718"/>
     <use style="fill:#0000ff;stroke:#0000ff;" x="417.6" xlink:href="#mddfa4bc894" y="89.34831"/>
     <use style="fill:#0000ff;stroke:#0000ff;" x="432" xlink:href="#mddfa4bc894" y="89.203827"/>
     <use style="fill:#0000ff;stroke:#0000ff;" x="446.4" xlink:href="#mddfa4bc894" y="89.098842"/>
     <use style="fill:#0000ff;stroke:#0000ff;" x="460.8" xlink:href="#mddfa4bc894" y="89.077938"/>
     <use style="fill:#0000ff;stroke:#0000ff;" x="475.2" xlink:href="#mddfa4bc894" y="89.023117"/>
     <use style="fill:#0000ff;stroke:#0000ff;" x="489.6" xlink:href="#mddfa4bc894" y="88.941312"/>
     <use style="fill:#0000ff;stroke:#0000ff;" x="504" xlink:href="#mddfa4bc894" y="88.887415"/>
    </g>
   </g>
   <g id="line2d_21">
    <path clip-path="url(#p64b4187a95)" d="M 86.4 484.232727 
L 100.8 415.565991 
L 115.2 336.527706 
L 129.6 321.002246 
L 144 315.436519 
L 158.4 303.185961 
L 172.8 302.025688 
L 187.2 293.332422 
L 201.6 286.762957 
L 216 261.61181 
L 230.4 206.154698 
L 244.8 193.610268 
L 259.2 165.001233 
L 273.6 149.543713 
L 288 147.909817 
L 302.4 143.459248 
L 316.8 142.87712 
L 331.2 140.983304 
L 345.6 138.5534 
L 360 133.951593 
L 374.4 125.108618 
L 388.8 116.723053 
L 403.2 112.336193 
L 417.6 110.070752 
L 432 96.920589 
L 446.4 95.882401 
L 460.8 94.669084 
L 475.2 91.379215 
L 489.6 90.568915 
L 504 88.887486 
" style="fill:none;stroke:#008000;stroke-linecap:square;stroke-width:1.5;"/>
    <g clip-path="url(#p64b4187a95)">
     <use style="fill:#008000;stroke:#008000;" x="86.4" xlink:href="#m587017e77d" y="484.232727"/>
     <use style="fill:#008000;stroke:#008000;" x="100.8" xlink:href="#m587017e77d" y="415.565991"/>
     <use style="fill:#008000;stroke:#008000;" x="115.2" xlink:href="#m587017e77d" y="336.527706"/>
     <use style="fill:#008000;stroke:#008000;" x="129.6" xlink:href="#m587017e77d" y="321.002246"/>
     <use style="fill:#008000;stroke:#008000;" x="144" xlink:href="#m587017e77d" y="315.436519"/>
     <use style="fill:#008000;stroke:#008000;" x="158.4" xlink:href="#m587017e77d" y="303.185961"/>
     <use style="fill:#008000;stroke:#008000;" x="172.8" xlink:href="#m587017e77d" y="302.025688"/>
     <use style="fill:#008000;stroke:#008000;" x="187.2" xlink:href="#m587017e77d" y="293.332422"/>
     <use style="fill:#008000;stroke:#008000;" x="201.6" xlink:href="#m587017e77d" y="286.762957"/>
     <use style="fill:#008000;stroke:#008000;" x="216" xlink:href="#m587017e77d" y="261.61181"/>
     <use style="fill:#008000;stroke:#008000;" x="230.4" xlink:href="#m587017e77d" y="206.154698"/>
     <use style="fill:#008000;stroke:#008000;" x="244.8" xlink:href="#m587017e77d" y="193.610268"/>
     <use style="fill:#008000;stroke:#008000;" x="259.2" xlink:href="#m587017e77d" y="165.001233"/>
     <use style="fill:#008000;stroke:#008000;" x="273.6" xlink:href="#m587017e77d" y="149.543713"/>
     <use style="fill:#008000;stroke:#008000;" x="288" xlink:href="#m587017e77d" y="147.909817"/>
     <use style="fill:#008000;stroke:#008000;" x="302.4" xlink:href="#m587017e77d" y="143.459248"/>
     <use style="fill:#008000;stroke:#008000;" x="316.8" xlink:href="#m587017e77d" y="142.87712"/>
     <use style="fill:#008000;stroke:#008000;" x="331.2" xlink:href="#m587017e77d" y="140.983304"/>
     <use style="fill:#008000;stroke:#008000;" x="345.6" xlink:href="#m587017e77d" y="138.5534"/>
     <use style="fill:#008000;stroke:#008000;" x="360" xlink:href="#m587017e77d" y="133.951593"/>
     <use style="fill:#008000;stroke:#008000;" x="374.4" xlink:href="#m587017e77d" y="125.108618"/>
     <use style="fill:#008000;stroke:#008000;" x="388.8" xlink:href="#m587017e77d" y="116.723053"/>
     <use style="fill:#008000;stroke:#008000;" x="403.2" xlink:href="#m587017e77d" y="112.336193"/>
     <use style="fill:#008000;stroke:#008000;" x="417.6" xlink:href="#m587017e77d" y="110.070752"/>
     <use style="fill:#008000;stroke:#008000;" x="432" xlink:href="#m587017e77d" y="96.920589"/>
     <use style="fill:#008000;stroke:#008000;" x="446.4" xlink:href="#m587017e77d" y="95.882401"/>
     <use style="fill:#008000;stroke:#008000;" x="460.8" xlink:href="#m587017e77d" y="94.669084"/>
     <use style="fill:#008000;stroke:#008000;" x="475.2" xlink:href="#m587017e77d" y="91.379215"/>
     <use style="fill:#008000;stroke:#008000;" x="489.6" xlink:href="#m587017e77d" y="90.568915"/>
     <use style="fill:#008000;stroke:#008000;" x="504" xlink:href="#m587017e77d" y="88.887486"/>
    </g>
   </g>
   <g id="line2d_22">
    <path clip-path="url(#p64b4187a95)" d="M 86.4 428.824108 
L 100.8 341.134419 
L 115.2 252.013711 
L 129.6 235.936414 
L 144 227.194477 
L 158.4 213.203937 
L 172.8 211.682029 
L 187.2 209.114326 
L 201.6 208.608067 
L 216 206.321259 
L 230.4 205.766649 
L 244.8 205.269633 
L 259.2 202.554567 
L 273.6 201.003792 
L 288 194.8046 
L 302.4 193.586804 
L 316.8 189.749221 
L 331.2 186.002723 
L 345.6 182.639509 
L 360 170.198678 
L 374.4 169.989526 
L 388.8 156.83666 
L 403.2 150.932834 
L 417.6 145.831166 
L 432 144.33603 
L 446.4 124.150742 
L 460.8 118.474555 
L 475.2 112.947366 
L 489.6 91.395213 
L 504 88.887415 
" style="fill:none;stroke:#ff0000;stroke-linecap:square;stroke-width:1.5;"/>
    <g clip-path="url(#p64b4187a95)">
     <use style="fill:#ff0000;stroke:#ff0000;" x="86.4" xlink:href="#m9fa4cdaa02" y="428.824108"/>
     <use style="fill:#ff0000;stroke:#ff0000;" x="100.8" xlink:href="#m9fa4cdaa02" y="341.134419"/>
     <use style="fill:#ff0000;stroke:#ff0000;" x="115.2" xlink:href="#m9fa4cdaa02" y="252.013711"/>
     <use style="fill:#ff0000;stroke:#ff0000;" x="129.6" xlink:href="#m9fa4cdaa02" y="235.936414"/>
     <use style="fill:#ff0000;stroke:#ff0000;" x="144" xlink:href="#m9fa4cdaa02" y="227.194477"/>
     <use style="fill:#ff0000;stroke:#ff0000;" x="158.4" xlink:href="#m9fa4cdaa02" y="213.203937"/>
     <use style="fill:#ff0000;stroke:#ff0000;" x="172.8" xlink:href="#m9fa4cdaa02" y="211.682029"/>
     <use style="fill:#ff0000;stroke:#ff0000;" x="187.2" xlink:href="#m9fa4cdaa02" y="209.114326"/>
     <use style="fill:#ff0000;stroke:#ff0000;" x="201.6" xlink:href="#m9fa4cdaa02" y="208.608067"/>
     <use style="fill:#ff0000;stroke:#ff0000;" x="216" xlink:href="#m9fa4cdaa02" y="206.321259"/>
     <use style="fill:#ff0000;stroke:#ff0000;" x="230.4" xlink:href="#m9fa4cdaa02" y="205.766649"/>
     <use style="fill:#ff0000;stroke:#ff0000;" x="244.8" xlink:href="#m9fa4cdaa02" y="205.269633"/>
     <use style="fill:#ff0000;stroke:#ff0000;" x="259.2" xlink:href="#m9fa4cdaa02" y="202.554567"/>
     <use style="fill:#ff0000;stroke:#ff0000;" x="273.6" xlink:href="#m9fa4cdaa02" y="201.003792"/>
     <use style="fill:#ff0000;stroke:#ff0000;" x="288" xlink:href="#m9fa4cdaa02" y="194.8046"/>
     <use style="fill:#ff0000;stroke:#ff0000;" x="302.4" xlink:href="#m9fa4cdaa02" y="193.586804"/>
     <use style="fill:#ff0000;stroke:#ff0000;" x="316.8" xlink:href="#m9fa4cdaa02" y="189.749221"/>
     <use style="fill:#ff0000;stroke:#ff0000;" x="331.2" xlink:href="#m9fa4cdaa02" y="186.002723"/>
     <use style="fill:#ff0000;stroke:#ff0000;" x="345.6" xlink:href="#m9fa4cdaa02" y="182.639509"/>
     <use style="fill:#ff0000;stroke:#ff0000;" x="360" xlink:href="#m9fa4cdaa02" y="170.198678"/>
     <use style="fill:#ff0000;stroke:#ff0000;" x="374.4" xlink:href="#m9fa4cdaa02" y="169.989526"/>
     <use style="fill:#ff0000;stroke:#ff0000;" x="388.8" xlink:href="#m9fa4cdaa02" y="156.83666"/>
     <use style="fill:#ff0000;stroke:#ff0000;" x="403.2" xlink:href="#m9fa4cdaa02" y="150.932834"/>
     <use style="fill:#ff0000;stroke:#ff0000;" x="417.6" xlink:href="#m9fa4cdaa02" y="145.831166"/>
     <use style="fill:#ff0000;stroke:#ff0000;" x="432" xlink:href="#m9fa4cdaa02" y="144.33603"/>
     <use style="fill:#ff0000;stroke:#ff0000;" x="446.4" xlink:href="#m9fa4cdaa02" y="124.150742"/>
     <use style="fill:#ff0000;stroke:#ff0000;" x="460.8" xlink:href="#m9fa4cdaa02" y="118.474555"/>
     <use style="fill:#ff0000;stroke:#ff0000;" x="475.2" xlink:href="#m9fa4cdaa02" y="112.947366"/>
     <use style="fill:#ff0000;stroke:#ff0000;" x="489.6" xlink:href="#m9fa4cdaa02" y="91.395213"/>
     <use style="fill:#ff0000;stroke:#ff0000;" x="504" xlink:href="#m9fa4cdaa02" y="88.887415"/>
    </g>
   </g>
   <g id="patch_3">
    <path d="M 72 504 
L 72 69.12 
" style="fill:none;stroke:#000000;stroke-linecap:square;stroke-linejoin:miter;stroke-width:0.8;"/>
   </g>
   <g id="patch_4">
    <path d="M 518.4 504 
L 518.4 69.12 
" style="fill:none;stroke:#000000;stroke-linecap:square;stroke-linejoin:miter;stroke-width:0.8;"/>
   </g>
   <g id="patch_5">
    <path d="M 72 504 
L 518.4 504 
" style="fill:none;stroke:#000000;stroke-linecap:square;stroke-linejoin:miter;stroke-width:0.8;"/>
   </g>
   <g id="patch_6">
    <path d="M 72 69.12 
L 518.4 69.12 
" style="fill:none;stroke:#000000;stroke-linecap:square;stroke-linejoin:miter;stroke-width:0.8;"/>
   </g>
   <g id="text_17">
    <!-- stepnet/lowD/grad_norm_both/ -->
    <defs>
     <path d="M 25.390625 72.90625 
L 33.6875 72.90625 
L 8.296875 -9.28125 
L 0 -9.28125 
z
" id="DejaVuSans-2f"/>
     <path d="M 4.203125 54.6875 
L 13.1875 54.6875 
L 24.421875 12.015625 
L 35.59375 54.6875 
L 46.1875 54.6875 
L 57.421875 12.015625 
L 68.609375 54.6875 
L 77.59375 54.6875 
L 63.28125 0 
L 52.6875 0 
L 40.921875 44.828125 
L 29.109375 0 
L 18.5 0 
z
" id="DejaVuSans-77"/>
     <path d="M 19.671875 64.796875 
L 19.671875 8.109375 
L 31.59375 8.109375 
Q 46.6875 8.109375 53.6875 14.9375 
Q 60.6875 21.78125 60.6875 36.53125 
Q 60.6875 51.171875 53.6875 57.984375 
Q 46.6875 64.796875 31.59375 64.796875 
z
M 9.8125 72.90625 
L 30.078125 72.90625 
Q 51.265625 72.90625 61.171875 64.09375 
Q 71.09375 55.28125 71.09375 36.53125 
Q 71.09375 17.671875 61.125 8.828125 
Q 51.171875 0 30.078125 0 
L 9.8125 0 
z
" id="DejaVuSans-44"/>
     <path d="M 45.40625 27.984375 
Q 45.40625 37.75 41.375 43.109375 
Q 37.359375 48.484375 30.078125 48.484375 
Q 22.859375 48.484375 18.828125 43.109375 
Q 14.796875 37.75 14.796875 27.984375 
Q 14.796875 18.265625 18.828125 12.890625 
Q 22.859375 7.515625 30.078125 7.515625 
Q 37.359375 7.515625 41.375 12.890625 
Q 45.40625 18.265625 45.40625 27.984375 
z
M 54.390625 6.78125 
Q 54.390625 -7.171875 48.1875 -13.984375 
Q 42 -20.796875 29.203125 -20.796875 
Q 24.46875 -20.796875 20.265625 -20.09375 
Q 16.0625 -19.390625 12.109375 -17.921875 
L 12.109375 -9.1875 
Q 16.0625 -11.328125 19.921875 -12.34375 
Q 23.78125 -13.375 27.78125 -13.375 
Q 36.625 -13.375 41.015625 -8.765625 
Q 45.40625 -4.15625 45.40625 5.171875 
L 45.40625 9.625 
Q 42.625 4.78125 38.28125 2.390625 
Q 33.9375 0 27.875 0 
Q 17.828125 0 11.671875 7.65625 
Q 5.515625 15.328125 5.515625 27.984375 
Q 5.515625 40.671875 11.671875 48.328125 
Q 17.828125 56 27.875 56 
Q 33.9375 56 38.28125 53.609375 
Q 42.625 51.21875 45.40625 46.390625 
L 45.40625 54.6875 
L 54.390625 54.6875 
z
" id="DejaVuSans-67"/>
     <path d="M 50.984375 -16.609375 
L 50.984375 -23.578125 
L -0.984375 -23.578125 
L -0.984375 -16.609375 
z
" id="DejaVuSans-5f"/>
     <path d="M 48.6875 27.296875 
Q 48.6875 37.203125 44.609375 42.84375 
Q 40.53125 48.484375 33.40625 48.484375 
Q 26.265625 48.484375 22.1875 42.84375 
Q 18.109375 37.203125 18.109375 27.296875 
Q 18.109375 17.390625 22.1875 11.75 
Q 26.265625 6.109375 33.40625 6.109375 
Q 40.53125 6.109375 44.609375 11.75 
Q 48.6875 17.390625 48.6875 27.296875 
z
M 18.109375 46.390625 
Q 20.953125 51.265625 25.265625 53.625 
Q 29.59375 56 35.59375 56 
Q 45.5625 56 51.78125 48.09375 
Q 58.015625 40.1875 58.015625 27.296875 
Q 58.015625 14.40625 51.78125 6.484375 
Q 45.5625 -1.421875 35.59375 -1.421875 
Q 29.59375 -1.421875 25.265625 0.953125 
Q 20.953125 3.328125 18.109375 8.203125 
L 18.109375 0 
L 9.078125 0 
L 9.078125 75.984375 
L 18.109375 75.984375 
z
" id="DejaVuSans-62"/>
     <path d="M 54.890625 33.015625 
L 54.890625 0 
L 45.90625 0 
L 45.90625 32.71875 
Q 45.90625 40.484375 42.875 44.328125 
Q 39.84375 48.1875 33.796875 48.1875 
Q 26.515625 48.1875 22.3125 43.546875 
Q 18.109375 38.921875 18.109375 30.90625 
L 18.109375 0 
L 9.078125 0 
L 9.078125 75.984375 
L 18.109375 75.984375 
L 18.109375 46.1875 
Q 21.34375 51.125 25.703125 53.5625 
Q 30.078125 56 35.796875 56 
Q 45.21875 56 50.046875 50.171875 
Q 54.890625 44.34375 54.890625 33.015625 
z
" id="DejaVuSans-68"/>
    </defs>
    <g transform="translate(202.265625 63.12)scale(0.12 -0.12)">
     <use xlink:href="#DejaVuSans-73"/>
     <use x="52.099609" xlink:href="#DejaVuSans-74"/>
     <use x="91.308594" xlink:href="#DejaVuSans-65"/>
     <use x="152.832031" xlink:href="#DejaVuSans-70"/>
     <use x="216.308594" xlink:href="#DejaVuSans-6e"/>
     <use x="279.6875" xlink:href="#DejaVuSans-65"/>
     <use x="341.210938" xlink:href="#DejaVuSans-74"/>
     <use x="380.419922" xlink:href="#DejaVuSans-2f"/>
     <use x="414.111328" xlink:href="#DejaVuSans-6c"/>
     <use x="441.894531" xlink:href="#DejaVuSans-6f"/>
     <use x="503.076172" xlink:href="#DejaVuSans-77"/>
     <use x="584.863281" xlink:href="#DejaVuSans-44"/>
     <use x="661.865234" xlink:href="#DejaVuSans-2f"/>
     <use x="695.556641" xlink:href="#DejaVuSans-67"/>
     <use x="759.033203" xlink:href="#DejaVuSans-72"/>
     <use x="800.146484" xlink:href="#DejaVuSans-61"/>
     <use x="861.425781" xlink:href="#DejaVuSans-64"/>
     <use x="924.902344" xlink:href="#DejaVuSans-5f"/>
     <use x="974.902344" xlink:href="#DejaVuSans-6e"/>
     <use x="1038.28125" xlink:href="#DejaVuSans-6f"/>
     <use x="1099.462891" xlink:href="#DejaVuSans-72"/>
     <use x="1140.560547" xlink:href="#DejaVuSans-6d"/>
     <use x="1237.972656" xlink:href="#DejaVuSans-5f"/>
     <use x="1287.972656" xlink:href="#DejaVuSans-62"/>
     <use x="1351.449219" xlink:href="#DejaVuSans-6f"/>
     <use x="1412.630859" xlink:href="#DejaVuSans-74"/>
     <use x="1451.839844" xlink:href="#DejaVuSans-68"/>
     <use x="1515.21875" xlink:href="#DejaVuSans-2f"/>
    </g>
   </g>
   <g id="legend_1">
    <g id="patch_7">
     <path d="M 415.484375 499 
L 511.4 499 
Q 513.4 499 513.4 497 
L 513.4 439.2875 
Q 513.4 437.2875 511.4 437.2875 
L 415.484375 437.2875 
Q 413.484375 437.2875 413.484375 439.2875 
L 413.484375 497 
Q 413.484375 499 415.484375 499 
z
" style="fill:#ffffff;opacity:0.8;stroke:#cccccc;stroke-linejoin:miter;"/>
    </g>
    <g id="line2d_23">
     <path d="M 417.484375 445.385938 
L 437.484375 445.385938 
" style="fill:none;stroke:#000000;stroke-linecap:square;stroke-width:1.5;"/>
    </g>
    <g id="line2d_24">
     <g>
      <use style="stroke:#000000;" x="427.484375" xlink:href="#md3769a3c6b" y="445.385938"/>
     </g>
    </g>
    <g id="text_18">
     <!-- Same Task -->
     <defs>
      <path d="M 53.515625 70.515625 
L 53.515625 60.890625 
Q 47.90625 63.578125 42.921875 64.890625 
Q 37.9375 66.21875 33.296875 66.21875 
Q 25.25 66.21875 20.875 63.09375 
Q 16.5 59.96875 16.5 54.203125 
Q 16.5 49.359375 19.40625 46.890625 
Q 22.3125 44.4375 30.421875 42.921875 
L 36.375 41.703125 
Q 47.40625 39.59375 52.65625 34.296875 
Q 57.90625 29 57.90625 20.125 
Q 57.90625 9.515625 50.796875 4.046875 
Q 43.703125 -1.421875 29.984375 -1.421875 
Q 24.8125 -1.421875 18.96875 -0.25 
Q 13.140625 0.921875 6.890625 3.21875 
L 6.890625 13.375 
Q 12.890625 10.015625 18.65625 8.296875 
Q 24.421875 6.59375 29.984375 6.59375 
Q 38.421875 6.59375 43.015625 9.90625 
Q 47.609375 13.234375 47.609375 19.390625 
Q 47.609375 24.75 44.3125 27.78125 
Q 41.015625 30.8125 33.5 32.328125 
L 27.484375 33.5 
Q 16.453125 35.6875 11.515625 40.375 
Q 6.59375 45.0625 6.59375 53.421875 
Q 6.59375 63.09375 13.40625 68.65625 
Q 20.21875 74.21875 32.171875 74.21875 
Q 37.3125 74.21875 42.625 73.28125 
Q 47.953125 72.359375 53.515625 70.515625 
z
" id="DejaVuSans-53"/>
      <path d="M -0.296875 72.90625 
L 61.375 72.90625 
L 61.375 64.59375 
L 35.5 64.59375 
L 35.5 0 
L 25.59375 0 
L 25.59375 64.59375 
L -0.296875 64.59375 
z
" id="DejaVuSans-54"/>
      <path d="M 9.078125 75.984375 
L 18.109375 75.984375 
L 18.109375 31.109375 
L 44.921875 54.6875 
L 56.390625 54.6875 
L 27.390625 29.109375 
L 57.625 0 
L 45.90625 0 
L 18.109375 26.703125 
L 18.109375 0 
L 9.078125 0 
z
" id="DejaVuSans-6b"/>
     </defs>
     <g transform="translate(445.484375 448.885938)scale(0.1 -0.1)">
      <use xlink:href="#DejaVuSans-53"/>
      <use x="63.476562" xlink:href="#DejaVuSans-61"/>
      <use x="124.755859" xlink:href="#DejaVuSans-6d"/>
      <use x="222.167969" xlink:href="#DejaVuSans-65"/>
      <use x="283.691406" xlink:href="#DejaVuSans-20"/>
      <use x="315.478516" xlink:href="#DejaVuSans-54"/>
      <use x="376.3125" xlink:href="#DejaVuSans-61"/>
      <use x="437.591797" xlink:href="#DejaVuSans-73"/>
      <use x="489.691406" xlink:href="#DejaVuSans-6b"/>
     </g>
    </g>
    <g id="line2d_25">
     <path d="M 417.484375 460.064062 
L 437.484375 460.064062 
" style="fill:none;stroke:#0000ff;stroke-linecap:square;stroke-width:1.5;"/>
    </g>
    <g id="line2d_26">
     <g>
      <use style="fill:#0000ff;stroke:#0000ff;" x="427.484375" xlink:href="#mddfa4bc894" y="460.064062"/>
     </g>
    </g>
    <g id="text_19">
     <!-- Anti -->
     <defs>
      <path d="M 34.1875 63.1875 
L 20.796875 26.90625 
L 47.609375 26.90625 
z
M 28.609375 72.90625 
L 39.796875 72.90625 
L 67.578125 0 
L 57.328125 0 
L 50.6875 18.703125 
L 17.828125 18.703125 
L 11.1875 0 
L 0.78125 0 
z
" id="DejaVuSans-41"/>
     </defs>
     <g transform="translate(445.484375 463.564062)scale(0.1 -0.1)">
      <use xlink:href="#DejaVuSans-41"/>
      <use x="68.408203" xlink:href="#DejaVuSans-6e"/>
      <use x="131.787109" xlink:href="#DejaVuSans-74"/>
      <use x="170.996094" xlink:href="#DejaVuSans-69"/>
     </g>
    </g>
    <g id="line2d_27">
     <path d="M 417.484375 474.742188 
L 437.484375 474.742188 
" style="fill:none;stroke:#008000;stroke-linecap:square;stroke-width:1.5;"/>
    </g>
    <g id="line2d_28">
     <g>
      <use style="fill:#008000;stroke:#008000;" x="427.484375" xlink:href="#m587017e77d" y="474.742188"/>
     </g>
    </g>
    <g id="text_20">
     <!-- Memory -->
     <defs>
      <path d="M 9.8125 72.90625 
L 24.515625 72.90625 
L 43.109375 23.296875 
L 61.8125 72.90625 
L 76.515625 72.90625 
L 76.515625 0 
L 66.890625 0 
L 66.890625 64.015625 
L 48.09375 14.015625 
L 38.1875 14.015625 
L 19.390625 64.015625 
L 19.390625 0 
L 9.8125 0 
z
" id="DejaVuSans-4d"/>
      <path d="M 32.171875 -5.078125 
Q 28.375 -14.84375 24.75 -17.8125 
Q 21.140625 -20.796875 15.09375 -20.796875 
L 7.90625 -20.796875 
L 7.90625 -13.28125 
L 13.1875 -13.28125 
Q 16.890625 -13.28125 18.9375 -11.515625 
Q 21 -9.765625 23.484375 -3.21875 
L 25.09375 0.875 
L 2.984375 54.6875 
L 12.5 54.6875 
L 29.59375 11.921875 
L 46.6875 54.6875 
L 56.203125 54.6875 
z
" id="DejaVuSans-79"/>
     </defs>
     <g transform="translate(445.484375 478.242188)scale(0.1 -0.1)">
      <use xlink:href="#DejaVuSans-4d"/>
      <use x="86.279297" xlink:href="#DejaVuSans-65"/>
      <use x="147.802734" xlink:href="#DejaVuSans-6d"/>
      <use x="245.214844" xlink:href="#DejaVuSans-6f"/>
      <use x="306.396484" xlink:href="#DejaVuSans-72"/>
      <use x="347.509766" xlink:href="#DejaVuSans-79"/>
     </g>
    </g>
    <g id="line2d_29">
     <path d="M 417.484375 489.420313 
L 437.484375 489.420313 
" style="fill:none;stroke:#ff0000;stroke-linecap:square;stroke-width:1.5;"/>
    </g>
    <g id="line2d_30">
     <g>
      <use style="fill:#ff0000;stroke:#ff0000;" x="427.484375" xlink:href="#m9fa4cdaa02" y="489.420313"/>
     </g>
    </g>
    <g id="text_21">
     <!-- Memory/Anti -->
     <g transform="translate(445.484375 492.920313)scale(0.1 -0.1)">
      <use xlink:href="#DejaVuSans-4d"/>
      <use x="86.279297" xlink:href="#DejaVuSans-65"/>
      <use x="147.802734" xlink:href="#DejaVuSans-6d"/>
      <use x="245.214844" xlink:href="#DejaVuSans-6f"/>
      <use x="306.396484" xlink:href="#DejaVuSans-72"/>
      <use x="347.509766" xlink:href="#DejaVuSans-79"/>
      <use x="406.689453" xlink:href="#DejaVuSans-2f"/>
      <use x="440.380859" xlink:href="#DejaVuSans-41"/>
      <use x="508.789062" xlink:href="#DejaVuSans-6e"/>
      <use x="572.167969" xlink:href="#DejaVuSans-74"/>
      <use x="611.376953" xlink:href="#DejaVuSans-69"/>
     </g>
    </g>
   </g>
  </g>
 </g>
 <defs>
  <clipPath id="p64b4187a95">
   <rect height="434.88" width="446.4" x="72" y="69.12"/>
  </clipPath>
 </defs>
</svg>
