<?xml version="1.0" encoding="utf-8" standalone="no"?>
<!DOCTYPE svg PUBLIC "-//W3C//DTD SVG 1.1//EN"
  "http://www.w3.org/Graphics/SVG/1.1/DTD/svg11.dtd">
<!-- Created with matplotlib (http://matplotlib.org/) -->
<svg height="288pt" version="1.1" viewBox="0 0 432 288" width="432pt" xmlns="http://www.w3.org/2000/svg" xmlns:xlink="http://www.w3.org/1999/xlink">
 <defs>
  <style type="text/css">
*{stroke-linecap:butt;stroke-linejoin:round;}
  </style>
 </defs>
 <g id="figure_1">
  <g id="patch_1">
   <path d="M 0 288 
L 432 288 
L 432 0 
L 0 0 
z
" style="fill:#ffffff;"/>
  </g>
  <g id="axes_1">
   <g id="patch_2">
    <path d="M 54 252 
L 388.8 252 
L 388.8 34.56 
L 54 34.56 
z
" style="fill:#ffffff;"/>
   </g>
   <g id="matplotlib.axis_1">
    <g id="xtick_1">
     <g id="line2d_1">
      <defs>
       <path d="M 0 0 
L 0 3.5 
" id="m39028b0cfd" style="stroke:#000000;stroke-width:0.8;"/>
      </defs>
      <g>
       <use style="stroke:#000000;stroke-width:0.8;" x="69.218182" xlink:href="#m39028b0cfd" y="252"/>
      </g>
     </g>
     <g id="text_1">
      <!-- 0 -->
      <defs>
       <path d="M 31.78125 66.40625 
Q 24.171875 66.40625 20.328125 58.90625 
Q 16.5 51.421875 16.5 36.375 
Q 16.5 21.390625 20.328125 13.890625 
Q 24.171875 6.390625 31.78125 6.390625 
Q 39.453125 6.390625 43.28125 13.890625 
Q 47.125 21.390625 47.125 36.375 
Q 47.125 51.421875 43.28125 58.90625 
Q 39.453125 66.40625 31.78125 66.40625 
z
M 31.78125 74.21875 
Q 44.046875 74.21875 50.515625 64.515625 
Q 56.984375 54.828125 56.984375 36.375 
Q 56.984375 17.96875 50.515625 8.265625 
Q 44.046875 -1.421875 31.78125 -1.421875 
Q 19.53125 -1.421875 13.0625 8.265625 
Q 6.59375 17.96875 6.59375 36.375 
Q 6.59375 54.828125 13.0625 64.515625 
Q 19.53125 74.21875 31.78125 74.21875 
z
" id="DejaVuSans-30"/>
      </defs>
      <g transform="translate(64.128182 271.1575)scale(0.16 -0.16)">
       <use xlink:href="#DejaVuSans-30"/>
      </g>
     </g>
    </g>
    <g id="xtick_2">
     <g id="line2d_2">
      <g>
       <use style="stroke:#000000;stroke-width:0.8;" x="157.311171" xlink:href="#m39028b0cfd" y="252"/>
      </g>
     </g>
     <g id="text_2">
      <!-- 10 -->
      <defs>
       <path d="M 12.40625 8.296875 
L 28.515625 8.296875 
L 28.515625 63.921875 
L 10.984375 60.40625 
L 10.984375 69.390625 
L 28.421875 72.90625 
L 38.28125 72.90625 
L 38.28125 8.296875 
L 54.390625 8.296875 
L 54.390625 0 
L 12.40625 0 
z
" id="DejaVuSans-31"/>
      </defs>
      <g transform="translate(147.131171 271.1575)scale(0.16 -0.16)">
       <use xlink:href="#DejaVuSans-31"/>
       <use x="63.623047" xlink:href="#DejaVuSans-30"/>
      </g>
     </g>
    </g>
    <g id="xtick_3">
     <g id="line2d_3">
      <g>
       <use style="stroke:#000000;stroke-width:0.8;" x="245.404161" xlink:href="#m39028b0cfd" y="252"/>
      </g>
     </g>
     <g id="text_3">
      <!-- 20 -->
      <defs>
       <path d="M 19.1875 8.296875 
L 53.609375 8.296875 
L 53.609375 0 
L 7.328125 0 
L 7.328125 8.296875 
Q 12.9375 14.109375 22.625 23.890625 
Q 32.328125 33.6875 34.8125 36.53125 
Q 39.546875 41.84375 41.421875 45.53125 
Q 43.3125 49.21875 43.3125 52.78125 
Q 43.3125 58.59375 39.234375 62.25 
Q 35.15625 65.921875 28.609375 65.921875 
Q 23.96875 65.921875 18.8125 64.3125 
Q 13.671875 62.703125 7.8125 59.421875 
L 7.8125 69.390625 
Q 13.765625 71.78125 18.9375 73 
Q 24.125 74.21875 28.421875 74.21875 
Q 39.75 74.21875 46.484375 68.546875 
Q 53.21875 62.890625 53.21875 53.421875 
Q 53.21875 48.921875 51.53125 44.890625 
Q 49.859375 40.875 45.40625 35.40625 
Q 44.1875 33.984375 37.640625 27.21875 
Q 31.109375 20.453125 19.1875 8.296875 
z
" id="DejaVuSans-32"/>
      </defs>
      <g transform="translate(235.224161 271.1575)scale(0.16 -0.16)">
       <use xlink:href="#DejaVuSans-32"/>
       <use x="63.623047" xlink:href="#DejaVuSans-30"/>
      </g>
     </g>
    </g>
    <g id="xtick_4">
     <g id="line2d_4">
      <g>
       <use style="stroke:#000000;stroke-width:0.8;" x="333.49715" xlink:href="#m39028b0cfd" y="252"/>
      </g>
     </g>
     <g id="text_4">
      <!-- 30 -->
      <defs>
       <path d="M 40.578125 39.3125 
Q 47.65625 37.796875 51.625 33 
Q 55.609375 28.21875 55.609375 21.1875 
Q 55.609375 10.40625 48.1875 4.484375 
Q 40.765625 -1.421875 27.09375 -1.421875 
Q 22.515625 -1.421875 17.65625 -0.515625 
Q 12.796875 0.390625 7.625 2.203125 
L 7.625 11.71875 
Q 11.71875 9.328125 16.59375 8.109375 
Q 21.484375 6.890625 26.8125 6.890625 
Q 36.078125 6.890625 40.9375 10.546875 
Q 45.796875 14.203125 45.796875 21.1875 
Q 45.796875 27.640625 41.28125 31.265625 
Q 36.765625 34.90625 28.71875 34.90625 
L 20.21875 34.90625 
L 20.21875 43.015625 
L 29.109375 43.015625 
Q 36.375 43.015625 40.234375 45.921875 
Q 44.09375 48.828125 44.09375 54.296875 
Q 44.09375 59.90625 40.109375 62.90625 
Q 36.140625 65.921875 28.71875 65.921875 
Q 24.65625 65.921875 20.015625 65.03125 
Q 15.375 64.15625 9.8125 62.3125 
L 9.8125 71.09375 
Q 15.4375 72.65625 20.34375 73.4375 
Q 25.25 74.21875 29.59375 74.21875 
Q 40.828125 74.21875 47.359375 69.109375 
Q 53.90625 64.015625 53.90625 55.328125 
Q 53.90625 49.265625 50.4375 45.09375 
Q 46.96875 40.921875 40.578125 39.3125 
z
" id="DejaVuSans-33"/>
      </defs>
      <g transform="translate(323.31715 271.1575)scale(0.16 -0.16)">
       <use xlink:href="#DejaVuSans-33"/>
       <use x="63.623047" xlink:href="#DejaVuSans-30"/>
      </g>
     </g>
    </g>
    <g id="text_5">
     <!-- fix disparity -->
     <defs>
      <path d="M 37.109375 75.984375 
L 37.109375 68.5 
L 28.515625 68.5 
Q 23.6875 68.5 21.796875 66.546875 
Q 19.921875 64.59375 19.921875 59.515625 
L 19.921875 54.6875 
L 34.71875 54.6875 
L 34.71875 47.703125 
L 19.921875 47.703125 
L 19.921875 0 
L 10.890625 0 
L 10.890625 47.703125 
L 2.296875 47.703125 
L 2.296875 54.6875 
L 10.890625 54.6875 
L 10.890625 58.5 
Q 10.890625 67.625 15.140625 71.796875 
Q 19.390625 75.984375 28.609375 75.984375 
z
" id="DejaVuSans-66"/>
      <path d="M 9.421875 54.6875 
L 18.40625 54.6875 
L 18.40625 0 
L 9.421875 0 
z
M 9.421875 75.984375 
L 18.40625 75.984375 
L 18.40625 64.59375 
L 9.421875 64.59375 
z
" id="DejaVuSans-69"/>
      <path d="M 54.890625 54.6875 
L 35.109375 28.078125 
L 55.90625 0 
L 45.3125 0 
L 29.390625 21.484375 
L 13.484375 0 
L 2.875 0 
L 24.125 28.609375 
L 4.6875 54.6875 
L 15.28125 54.6875 
L 29.78125 35.203125 
L 44.28125 54.6875 
z
" id="DejaVuSans-78"/>
      <path id="DejaVuSans-20"/>
      <path d="M 45.40625 46.390625 
L 45.40625 75.984375 
L 54.390625 75.984375 
L 54.390625 0 
L 45.40625 0 
L 45.40625 8.203125 
Q 42.578125 3.328125 38.25 0.953125 
Q 33.9375 -1.421875 27.875 -1.421875 
Q 17.96875 -1.421875 11.734375 6.484375 
Q 5.515625 14.40625 5.515625 27.296875 
Q 5.515625 40.1875 11.734375 48.09375 
Q 17.96875 56 27.875 56 
Q 33.9375 56 38.25 53.625 
Q 42.578125 51.265625 45.40625 46.390625 
z
M 14.796875 27.296875 
Q 14.796875 17.390625 18.875 11.75 
Q 22.953125 6.109375 30.078125 6.109375 
Q 37.203125 6.109375 41.296875 11.75 
Q 45.40625 17.390625 45.40625 27.296875 
Q 45.40625 37.203125 41.296875 42.84375 
Q 37.203125 48.484375 30.078125 48.484375 
Q 22.953125 48.484375 18.875 42.84375 
Q 14.796875 37.203125 14.796875 27.296875 
z
" id="DejaVuSans-64"/>
      <path d="M 44.28125 53.078125 
L 44.28125 44.578125 
Q 40.484375 46.53125 36.375 47.5 
Q 32.28125 48.484375 27.875 48.484375 
Q 21.1875 48.484375 17.84375 46.4375 
Q 14.5 44.390625 14.5 40.28125 
Q 14.5 37.15625 16.890625 35.375 
Q 19.28125 33.59375 26.515625 31.984375 
L 29.59375 31.296875 
Q 39.15625 29.25 43.1875 25.515625 
Q 47.21875 21.78125 47.21875 15.09375 
Q 47.21875 7.46875 41.1875 3.015625 
Q 35.15625 -1.421875 24.609375 -1.421875 
Q 20.21875 -1.421875 15.453125 -0.5625 
Q 10.6875 0.296875 5.421875 2 
L 5.421875 11.28125 
Q 10.40625 8.6875 15.234375 7.390625 
Q 20.0625 6.109375 24.8125 6.109375 
Q 31.15625 6.109375 34.5625 8.28125 
Q 37.984375 10.453125 37.984375 14.40625 
Q 37.984375 18.0625 35.515625 20.015625 
Q 33.0625 21.96875 24.703125 23.78125 
L 21.578125 24.515625 
Q 13.234375 26.265625 9.515625 29.90625 
Q 5.8125 33.546875 5.8125 39.890625 
Q 5.8125 47.609375 11.28125 51.796875 
Q 16.75 56 26.8125 56 
Q 31.78125 56 36.171875 55.265625 
Q 40.578125 54.546875 44.28125 53.078125 
z
" id="DejaVuSans-73"/>
      <path d="M 18.109375 8.203125 
L 18.109375 -20.796875 
L 9.078125 -20.796875 
L 9.078125 54.6875 
L 18.109375 54.6875 
L 18.109375 46.390625 
Q 20.953125 51.265625 25.265625 53.625 
Q 29.59375 56 35.59375 56 
Q 45.5625 56 51.78125 48.09375 
Q 58.015625 40.1875 58.015625 27.296875 
Q 58.015625 14.40625 51.78125 6.484375 
Q 45.5625 -1.421875 35.59375 -1.421875 
Q 29.59375 -1.421875 25.265625 0.953125 
Q 20.953125 3.328125 18.109375 8.203125 
z
M 48.6875 27.296875 
Q 48.6875 37.203125 44.609375 42.84375 
Q 40.53125 48.484375 33.40625 48.484375 
Q 26.265625 48.484375 22.1875 42.84375 
Q 18.109375 37.203125 18.109375 27.296875 
Q 18.109375 17.390625 22.1875 11.75 
Q 26.265625 6.109375 33.40625 6.109375 
Q 40.53125 6.109375 44.609375 11.75 
Q 48.6875 17.390625 48.6875 27.296875 
z
" id="DejaVuSans-70"/>
      <path d="M 34.28125 27.484375 
Q 23.390625 27.484375 19.1875 25 
Q 14.984375 22.515625 14.984375 16.5 
Q 14.984375 11.71875 18.140625 8.90625 
Q 21.296875 6.109375 26.703125 6.109375 
Q 34.1875 6.109375 38.703125 11.40625 
Q 43.21875 16.703125 43.21875 25.484375 
L 43.21875 27.484375 
z
M 52.203125 31.203125 
L 52.203125 0 
L 43.21875 0 
L 43.21875 8.296875 
Q 40.140625 3.328125 35.546875 0.953125 
Q 30.953125 -1.421875 24.3125 -1.421875 
Q 15.921875 -1.421875 10.953125 3.296875 
Q 6 8.015625 6 15.921875 
Q 6 25.140625 12.171875 29.828125 
Q 18.359375 34.515625 30.609375 34.515625 
L 43.21875 34.515625 
L 43.21875 35.40625 
Q 43.21875 41.609375 39.140625 45 
Q 35.0625 48.390625 27.6875 48.390625 
Q 23 48.390625 18.546875 47.265625 
Q 14.109375 46.140625 10.015625 43.890625 
L 10.015625 52.203125 
Q 14.9375 54.109375 19.578125 55.046875 
Q 24.21875 56 28.609375 56 
Q 40.484375 56 46.34375 49.84375 
Q 52.203125 43.703125 52.203125 31.203125 
z
" id="DejaVuSans-61"/>
      <path d="M 41.109375 46.296875 
Q 39.59375 47.171875 37.8125 47.578125 
Q 36.03125 48 33.890625 48 
Q 26.265625 48 22.1875 43.046875 
Q 18.109375 38.09375 18.109375 28.8125 
L 18.109375 0 
L 9.078125 0 
L 9.078125 54.6875 
L 18.109375 54.6875 
L 18.109375 46.1875 
Q 20.953125 51.171875 25.484375 53.578125 
Q 30.03125 56 36.53125 56 
Q 37.453125 56 38.578125 55.875 
Q 39.703125 55.765625 41.0625 55.515625 
z
" id="DejaVuSans-72"/>
      <path d="M 18.3125 70.21875 
L 18.3125 54.6875 
L 36.8125 54.6875 
L 36.8125 47.703125 
L 18.3125 47.703125 
L 18.3125 18.015625 
Q 18.3125 11.328125 20.140625 9.421875 
Q 21.96875 7.515625 27.59375 7.515625 
L 36.8125 7.515625 
L 36.8125 0 
L 27.59375 0 
Q 17.1875 0 13.234375 3.875 
Q 9.28125 7.765625 9.28125 18.015625 
L 9.28125 47.703125 
L 2.6875 47.703125 
L 2.6875 54.6875 
L 9.28125 54.6875 
L 9.28125 70.21875 
z
" id="DejaVuSans-74"/>
      <path d="M 32.171875 -5.078125 
Q 28.375 -14.84375 24.75 -17.8125 
Q 21.140625 -20.796875 15.09375 -20.796875 
L 7.90625 -20.796875 
L 7.90625 -13.28125 
L 13.1875 -13.28125 
Q 16.890625 -13.28125 18.9375 -11.515625 
Q 21 -9.765625 23.484375 -3.21875 
L 25.09375 0.875 
L 2.984375 54.6875 
L 12.5 54.6875 
L 29.59375 11.921875 
L 46.6875 54.6875 
L 56.203125 54.6875 
z
" id="DejaVuSans-79"/>
     </defs>
     <g transform="translate(174.25125 290.6425)scale(0.16 -0.16)">
      <use xlink:href="#DejaVuSans-66"/>
      <use x="35.205078" xlink:href="#DejaVuSans-69"/>
      <use x="62.988281" xlink:href="#DejaVuSans-78"/>
      <use x="122.167969" xlink:href="#DejaVuSans-20"/>
      <use x="153.955078" xlink:href="#DejaVuSans-64"/>
      <use x="217.431641" xlink:href="#DejaVuSans-69"/>
      <use x="245.214844" xlink:href="#DejaVuSans-73"/>
      <use x="297.314453" xlink:href="#DejaVuSans-70"/>
      <use x="360.791016" xlink:href="#DejaVuSans-61"/>
      <use x="422.070312" xlink:href="#DejaVuSans-72"/>
      <use x="463.183594" xlink:href="#DejaVuSans-69"/>
      <use x="490.966797" xlink:href="#DejaVuSans-74"/>
      <use x="530.175781" xlink:href="#DejaVuSans-79"/>
     </g>
    </g>
   </g>
   <g id="matplotlib.axis_2">
    <g id="ytick_1">
     <g id="line2d_5">
      <defs>
       <path d="M 0 0 
L -3.5 0 
" id="mc2ce037db4" style="stroke:#000000;stroke-width:0.8;"/>
      </defs>
      <g>
       <use style="stroke:#000000;stroke-width:0.8;" x="54" xlink:href="#mc2ce037db4" y="242.116364"/>
      </g>
     </g>
     <g id="text_6">
      <!-- 0.0 -->
      <defs>
       <path d="M 10.6875 12.40625 
L 21 12.40625 
L 21 0 
L 10.6875 0 
z
" id="DejaVuSans-2e"/>
      </defs>
      <g transform="translate(21.555 248.195114)scale(0.16 -0.16)">
       <use xlink:href="#DejaVuSans-30"/>
       <use x="63.623047" xlink:href="#DejaVuSans-2e"/>
       <use x="95.410156" xlink:href="#DejaVuSans-30"/>
      </g>
     </g>
    </g>
    <g id="ytick_2">
     <g id="line2d_6">
      <g>
       <use style="stroke:#000000;stroke-width:0.8;" x="54" xlink:href="#mc2ce037db4" y="201.144812"/>
      </g>
     </g>
     <g id="text_7">
      <!-- 0.1 -->
      <g transform="translate(21.555 207.223562)scale(0.16 -0.16)">
       <use xlink:href="#DejaVuSans-30"/>
       <use x="63.623047" xlink:href="#DejaVuSans-2e"/>
       <use x="95.410156" xlink:href="#DejaVuSans-31"/>
      </g>
     </g>
    </g>
    <g id="ytick_3">
     <g id="line2d_7">
      <g>
       <use style="stroke:#000000;stroke-width:0.8;" x="54" xlink:href="#mc2ce037db4" y="160.17326"/>
      </g>
     </g>
     <g id="text_8">
      <!-- 0.2 -->
      <g transform="translate(21.555 166.25201)scale(0.16 -0.16)">
       <use xlink:href="#DejaVuSans-30"/>
       <use x="63.623047" xlink:href="#DejaVuSans-2e"/>
       <use x="95.410156" xlink:href="#DejaVuSans-32"/>
      </g>
     </g>
    </g>
    <g id="ytick_4">
     <g id="line2d_8">
      <g>
       <use style="stroke:#000000;stroke-width:0.8;" x="54" xlink:href="#mc2ce037db4" y="119.201708"/>
      </g>
     </g>
     <g id="text_9">
      <!-- 0.3 -->
      <g transform="translate(21.555 125.280458)scale(0.16 -0.16)">
       <use xlink:href="#DejaVuSans-30"/>
       <use x="63.623047" xlink:href="#DejaVuSans-2e"/>
       <use x="95.410156" xlink:href="#DejaVuSans-33"/>
      </g>
     </g>
    </g>
    <g id="ytick_5">
     <g id="line2d_9">
      <g>
       <use style="stroke:#000000;stroke-width:0.8;" x="54" xlink:href="#mc2ce037db4" y="78.230156"/>
      </g>
     </g>
     <g id="text_10">
      <!-- 0.4 -->
      <defs>
       <path d="M 37.796875 64.3125 
L 12.890625 25.390625 
L 37.796875 25.390625 
z
M 35.203125 72.90625 
L 47.609375 72.90625 
L 47.609375 25.390625 
L 58.015625 25.390625 
L 58.015625 17.1875 
L 47.609375 17.1875 
L 47.609375 0 
L 37.796875 0 
L 37.796875 17.1875 
L 4.890625 17.1875 
L 4.890625 26.703125 
z
" id="DejaVuSans-34"/>
      </defs>
      <g transform="translate(21.555 84.308906)scale(0.16 -0.16)">
       <use xlink:href="#DejaVuSans-30"/>
       <use x="63.623047" xlink:href="#DejaVuSans-2e"/>
       <use x="95.410156" xlink:href="#DejaVuSans-34"/>
      </g>
     </g>
    </g>
    <g id="ytick_6">
     <g id="line2d_10">
      <g>
       <use style="stroke:#000000;stroke-width:0.8;" x="54" xlink:href="#mc2ce037db4" y="37.258604"/>
      </g>
     </g>
     <g id="text_11">
      <!-- 0.5 -->
      <defs>
       <path d="M 10.796875 72.90625 
L 49.515625 72.90625 
L 49.515625 64.59375 
L 19.828125 64.59375 
L 19.828125 46.734375 
Q 21.96875 47.46875 24.109375 47.828125 
Q 26.265625 48.1875 28.421875 48.1875 
Q 40.625 48.1875 47.75 41.5 
Q 54.890625 34.8125 54.890625 23.390625 
Q 54.890625 11.625 47.5625 5.09375 
Q 40.234375 -1.421875 26.90625 -1.421875 
Q 22.3125 -1.421875 17.546875 -0.640625 
Q 12.796875 0.140625 7.71875 1.703125 
L 7.71875 11.625 
Q 12.109375 9.234375 16.796875 8.0625 
Q 21.484375 6.890625 26.703125 6.890625 
Q 35.15625 6.890625 40.078125 11.328125 
Q 45.015625 15.765625 45.015625 23.390625 
Q 45.015625 31 40.078125 35.4375 
Q 35.15625 39.890625 26.703125 39.890625 
Q 22.75 39.890625 18.8125 39.015625 
Q 14.890625 38.140625 10.796875 36.28125 
z
" id="DejaVuSans-35"/>
      </defs>
      <g transform="translate(21.555 43.337354)scale(0.16 -0.16)">
       <use xlink:href="#DejaVuSans-30"/>
       <use x="63.623047" xlink:href="#DejaVuSans-2e"/>
       <use x="95.410156" xlink:href="#DejaVuSans-35"/>
      </g>
     </g>
    </g>
    <g id="text_12">
     <!-- go1 disparity -->
     <defs>
      <path d="M 45.40625 27.984375 
Q 45.40625 37.75 41.375 43.109375 
Q 37.359375 48.484375 30.078125 48.484375 
Q 22.859375 48.484375 18.828125 43.109375 
Q 14.796875 37.75 14.796875 27.984375 
Q 14.796875 18.265625 18.828125 12.890625 
Q 22.859375 7.515625 30.078125 7.515625 
Q 37.359375 7.515625 41.375 12.890625 
Q 45.40625 18.265625 45.40625 27.984375 
z
M 54.390625 6.78125 
Q 54.390625 -7.171875 48.1875 -13.984375 
Q 42 -20.796875 29.203125 -20.796875 
Q 24.46875 -20.796875 20.265625 -20.09375 
Q 16.0625 -19.390625 12.109375 -17.921875 
L 12.109375 -9.1875 
Q 16.0625 -11.328125 19.921875 -12.34375 
Q 23.78125 -13.375 27.78125 -13.375 
Q 36.625 -13.375 41.015625 -8.765625 
Q 45.40625 -4.15625 45.40625 5.171875 
L 45.40625 9.625 
Q 42.625 4.78125 38.28125 2.390625 
Q 33.9375 0 27.875 0 
Q 17.828125 0 11.671875 7.65625 
Q 5.515625 15.328125 5.515625 27.984375 
Q 5.515625 40.671875 11.671875 48.328125 
Q 17.828125 56 27.875 56 
Q 33.9375 56 38.28125 53.609375 
Q 42.625 51.21875 45.40625 46.390625 
L 45.40625 54.6875 
L 54.390625 54.6875 
z
" id="DejaVuSans-67"/>
      <path d="M 30.609375 48.390625 
Q 23.390625 48.390625 19.1875 42.75 
Q 14.984375 37.109375 14.984375 27.296875 
Q 14.984375 17.484375 19.15625 11.84375 
Q 23.34375 6.203125 30.609375 6.203125 
Q 37.796875 6.203125 41.984375 11.859375 
Q 46.1875 17.53125 46.1875 27.296875 
Q 46.1875 37.015625 41.984375 42.703125 
Q 37.796875 48.390625 30.609375 48.390625 
z
M 30.609375 56 
Q 42.328125 56 49.015625 48.375 
Q 55.71875 40.765625 55.71875 27.296875 
Q 55.71875 13.875 49.015625 6.21875 
Q 42.328125 -1.421875 30.609375 -1.421875 
Q 18.84375 -1.421875 12.171875 6.21875 
Q 5.515625 13.875 5.515625 27.296875 
Q 5.515625 40.765625 12.171875 48.375 
Q 18.84375 56 30.609375 56 
z
" id="DejaVuSans-6f"/>
     </defs>
     <g transform="translate(14.2275 195.71875)rotate(-90)scale(0.16 -0.16)">
      <use xlink:href="#DejaVuSans-67"/>
      <use x="63.476562" xlink:href="#DejaVuSans-6f"/>
      <use x="124.658203" xlink:href="#DejaVuSans-31"/>
      <use x="188.28125" xlink:href="#DejaVuSans-20"/>
      <use x="220.068359" xlink:href="#DejaVuSans-64"/>
      <use x="283.544922" xlink:href="#DejaVuSans-69"/>
      <use x="311.328125" xlink:href="#DejaVuSans-73"/>
      <use x="363.427734" xlink:href="#DejaVuSans-70"/>
      <use x="426.904297" xlink:href="#DejaVuSans-61"/>
      <use x="488.183594" xlink:href="#DejaVuSans-72"/>
      <use x="529.296875" xlink:href="#DejaVuSans-69"/>
      <use x="557.080078" xlink:href="#DejaVuSans-74"/>
      <use x="596.289062" xlink:href="#DejaVuSans-79"/>
     </g>
    </g>
   </g>
   <g id="line2d_11">
    <defs>
     <path d="M 0 1.5 
C 0.397805 1.5 0.77937 1.341951 1.06066 1.06066 
C 1.341951 0.77937 1.5 0.397805 1.5 0 
C 1.5 -0.397805 1.341951 -0.77937 1.06066 -1.06066 
C 0.77937 -1.341951 0.397805 -1.5 0 -1.5 
C -0.397805 -1.5 -0.77937 -1.341951 -1.06066 -1.06066 
C -1.341951 -0.77937 -1.5 -0.397805 -1.5 0 
C -1.5 0.397805 -1.341951 0.77937 -1.06066 1.06066 
C -0.77937 1.341951 -0.397805 1.5 0 1.5 
z
" id="mfde1dbf986" style="stroke:#1f77b4;"/>
    </defs>
    <g clip-path="url(#p0c75718110)">
     <use style="fill:#1f77b4;stroke:#1f77b4;" x="69.218182" xlink:href="#mfde1dbf986" y="242.116364"/>
     <use style="fill:#1f77b4;stroke:#1f77b4;" x="258.210818" xlink:href="#mfde1dbf986" y="88.623021"/>
     <use style="fill:#1f77b4;stroke:#1f77b4;" x="105.527323" xlink:href="#mfde1dbf986" y="238.152735"/>
     <use style="fill:#1f77b4;stroke:#1f77b4;" x="144.594325" xlink:href="#mfde1dbf986" y="219.97187"/>
     <use style="fill:#1f77b4;stroke:#1f77b4;" x="330.047629" xlink:href="#mfde1dbf986" y="81.372586"/>
     <use style="fill:#1f77b4;stroke:#1f77b4;" x="126.496307" xlink:href="#mfde1dbf986" y="224.416196"/>
     <use style="fill:#1f77b4;stroke:#1f77b4;" x="133.709272" xlink:href="#mfde1dbf986" y="192.935915"/>
     <use style="fill:#1f77b4;stroke:#1f77b4;" x="137.91922" xlink:href="#mfde1dbf986" y="133.55371"/>
     <use style="fill:#1f77b4;stroke:#1f77b4;" x="189.64818" xlink:href="#mfde1dbf986" y="80.999186"/>
     <use style="fill:#1f77b4;stroke:#1f77b4;" x="179.415306" xlink:href="#mfde1dbf986" y="60.387071"/>
     <use style="fill:#1f77b4;stroke:#1f77b4;" x="258.210818" xlink:href="#mfde1dbf986" y="88.623096"/>
     <use style="fill:#1f77b4;stroke:#1f77b4;" x="69.218182" xlink:href="#mfde1dbf986" y="242.116364"/>
     <use style="fill:#1f77b4;stroke:#1f77b4;" x="285.838286" xlink:href="#mfde1dbf986" y="77.575592"/>
     <use style="fill:#1f77b4;stroke:#1f77b4;" x="232.990651" xlink:href="#mfde1dbf986" y="117.234576"/>
     <use style="fill:#1f77b4;stroke:#1f77b4;" x="225.273947" xlink:href="#mfde1dbf986" y="220.858785"/>
     <use style="fill:#1f77b4;stroke:#1f77b4;" x="273.315235" xlink:href="#mfde1dbf986" y="94.026688"/>
     <use style="fill:#1f77b4;stroke:#1f77b4;" x="292.131944" xlink:href="#mfde1dbf986" y="88.377469"/>
     <use style="fill:#1f77b4;stroke:#1f77b4;" x="313.196011" xlink:href="#mfde1dbf986" y="122.326459"/>
     <use style="fill:#1f77b4;stroke:#1f77b4;" x="287.135029" xlink:href="#mfde1dbf986" y="158.329416"/>
     <use style="fill:#1f77b4;stroke:#1f77b4;" x="282.690586" xlink:href="#mfde1dbf986" y="151.164715"/>
     <use style="fill:#1f77b4;stroke:#1f77b4;" x="105.527323" xlink:href="#mfde1dbf986" y="238.152736"/>
     <use style="fill:#1f77b4;stroke:#1f77b4;" x="285.838286" xlink:href="#mfde1dbf986" y="77.575584"/>
     <use style="fill:#1f77b4;stroke:#1f77b4;" x="69.218182" xlink:href="#mfde1dbf986" y="242.116364"/>
     <use style="fill:#1f77b4;stroke:#1f77b4;" x="168.241258" xlink:href="#mfde1dbf986" y="213.794386"/>
     <use style="fill:#1f77b4;stroke:#1f77b4;" x="352.123719" xlink:href="#mfde1dbf986" y="67.79547"/>
     <use style="fill:#1f77b4;stroke:#1f77b4;" x="125.887105" xlink:href="#mfde1dbf986" y="224.581876"/>
     <use style="fill:#1f77b4;stroke:#1f77b4;" x="110.32045" xlink:href="#mfde1dbf986" y="192.43167"/>
     <use style="fill:#1f77b4;stroke:#1f77b4;" x="106.094352" xlink:href="#mfde1dbf986" y="135.976"/>
     <use style="fill:#1f77b4;stroke:#1f77b4;" x="202.942901" xlink:href="#mfde1dbf986" y="65.929026"/>
     <use style="fill:#1f77b4;stroke:#1f77b4;" x="192.750781" xlink:href="#mfde1dbf986" y="64.408161"/>
     <use style="fill:#1f77b4;stroke:#1f77b4;" x="144.594325" xlink:href="#mfde1dbf986" y="219.971876"/>
     <use style="fill:#1f77b4;stroke:#1f77b4;" x="232.990651" xlink:href="#mfde1dbf986" y="117.234567"/>
     <use style="fill:#1f77b4;stroke:#1f77b4;" x="168.241258" xlink:href="#mfde1dbf986" y="213.794381"/>
     <use style="fill:#1f77b4;stroke:#1f77b4;" x="69.218182" xlink:href="#mfde1dbf986" y="242.116364"/>
     <use style="fill:#1f77b4;stroke:#1f77b4;" x="298.973178" xlink:href="#mfde1dbf986" y="105.754625"/>
     <use style="fill:#1f77b4;stroke:#1f77b4;" x="129.176893" xlink:href="#mfde1dbf986" y="235.011354"/>
     <use style="fill:#1f77b4;stroke:#1f77b4;" x="183.314624" xlink:href="#mfde1dbf986" y="189.983024"/>
     <use style="fill:#1f77b4;stroke:#1f77b4;" x="189.298036" xlink:href="#mfde1dbf986" y="148.288947"/>
     <use style="fill:#1f77b4;stroke:#1f77b4;" x="202.956267" xlink:href="#mfde1dbf986" y="109.683918"/>
     <use style="fill:#1f77b4;stroke:#1f77b4;" x="185.11904" xlink:href="#mfde1dbf986" y="108.298234"/>
     <use style="fill:#1f77b4;stroke:#1f77b4;" x="330.047629" xlink:href="#mfde1dbf986" y="81.372504"/>
     <use style="fill:#1f77b4;stroke:#1f77b4;" x="225.273947" xlink:href="#mfde1dbf986" y="220.858782"/>
     <use style="fill:#1f77b4;stroke:#1f77b4;" x="352.123719" xlink:href="#mfde1dbf986" y="67.795499"/>
     <use style="fill:#1f77b4;stroke:#1f77b4;" x="298.973178" xlink:href="#mfde1dbf986" y="105.754617"/>
     <use style="fill:#1f77b4;stroke:#1f77b4;" x="69.218182" xlink:href="#mfde1dbf986" y="242.116364"/>
     <use style="fill:#1f77b4;stroke:#1f77b4;" x="335.325521" xlink:href="#mfde1dbf986" y="81.020015"/>
     <use style="fill:#1f77b4;stroke:#1f77b4;" x="357.032235" xlink:href="#mfde1dbf986" y="76.077333"/>
     <use style="fill:#1f77b4;stroke:#1f77b4;" x="373.581818" xlink:href="#mfde1dbf986" y="101.561315"/>
     <use style="fill:#1f77b4;stroke:#1f77b4;" x="349.353614" xlink:href="#mfde1dbf986" y="135.650394"/>
     <use style="fill:#1f77b4;stroke:#1f77b4;" x="344.342004" xlink:href="#mfde1dbf986" y="131.161683"/>
     <use style="fill:#1f77b4;stroke:#1f77b4;" x="126.496307" xlink:href="#mfde1dbf986" y="224.41621"/>
     <use style="fill:#1f77b4;stroke:#1f77b4;" x="273.315235" xlink:href="#mfde1dbf986" y="94.026715"/>
     <use style="fill:#1f77b4;stroke:#1f77b4;" x="125.887105" xlink:href="#mfde1dbf986" y="224.581871"/>
     <use style="fill:#1f77b4;stroke:#1f77b4;" x="129.176893" xlink:href="#mfde1dbf986" y="235.011357"/>
     <use style="fill:#1f77b4;stroke:#1f77b4;" x="335.325521" xlink:href="#mfde1dbf986" y="81.020007"/>
     <use style="fill:#1f77b4;stroke:#1f77b4;" x="69.218182" xlink:href="#mfde1dbf986" y="242.116364"/>
     <use style="fill:#1f77b4;stroke:#1f77b4;" x="139.633999" xlink:href="#mfde1dbf986" y="200.121176"/>
     <use style="fill:#1f77b4;stroke:#1f77b4;" x="135.898285" xlink:href="#mfde1dbf986" y="148.712151"/>
     <use style="fill:#1f77b4;stroke:#1f77b4;" x="207.10312" xlink:href="#mfde1dbf986" y="83.32854"/>
     <use style="fill:#1f77b4;stroke:#1f77b4;" x="188.850377" xlink:href="#mfde1dbf986" y="90.797055"/>
     <use style="fill:#1f77b4;stroke:#1f77b4;" x="133.709272" xlink:href="#mfde1dbf986" y="192.575392"/>
     <use style="fill:#1f77b4;stroke:#1f77b4;" x="292.131944" xlink:href="#mfde1dbf986" y="91.380133"/>
     <use style="fill:#1f77b4;stroke:#1f77b4;" x="110.32045" xlink:href="#mfde1dbf986" y="195.003636"/>
     <use style="fill:#1f77b4;stroke:#1f77b4;" x="183.314624" xlink:href="#mfde1dbf986" y="188.980825"/>
     <use style="fill:#1f77b4;stroke:#1f77b4;" x="357.032235" xlink:href="#mfde1dbf986" y="81.341066"/>
     <use style="fill:#1f77b4;stroke:#1f77b4;" x="139.633999" xlink:href="#mfde1dbf986" y="201.004958"/>
     <use style="fill:#1f77b4;stroke:#1f77b4;" x="69.218182" xlink:href="#mfde1dbf986" y="242.116364"/>
     <use style="fill:#1f77b4;stroke:#1f77b4;" x="118.522995" xlink:href="#mfde1dbf986" y="153.496111"/>
     <use style="fill:#1f77b4;stroke:#1f77b4;" x="219.293718" xlink:href="#mfde1dbf986" y="94.937162"/>
     <use style="fill:#1f77b4;stroke:#1f77b4;" x="212.861949" xlink:href="#mfde1dbf986" y="77.176259"/>
     <use style="fill:#1f77b4;stroke:#1f77b4;" x="137.91922" xlink:href="#mfde1dbf986" y="139.416857"/>
     <use style="fill:#1f77b4;stroke:#1f77b4;" x="313.196011" xlink:href="#mfde1dbf986" y="106.928526"/>
     <use style="fill:#1f77b4;stroke:#1f77b4;" x="106.094352" xlink:href="#mfde1dbf986" y="135.348416"/>
     <use style="fill:#1f77b4;stroke:#1f77b4;" x="189.298036" xlink:href="#mfde1dbf986" y="147.25265"/>
     <use style="fill:#1f77b4;stroke:#1f77b4;" x="373.581818" xlink:href="#mfde1dbf986" y="97.687541"/>
     <use style="fill:#1f77b4;stroke:#1f77b4;" x="135.898285" xlink:href="#mfde1dbf986" y="144.915596"/>
     <use style="fill:#1f77b4;stroke:#1f77b4;" x="118.522995" xlink:href="#mfde1dbf986" y="140.872"/>
     <use style="fill:#1f77b4;stroke:#1f77b4;" x="69.218182" xlink:href="#mfde1dbf986" y="242.116364"/>
     <use style="fill:#1f77b4;stroke:#1f77b4;" x="219.392728" xlink:href="#mfde1dbf986" y="125.47968"/>
     <use style="fill:#1f77b4;stroke:#1f77b4;" x="207.155552" xlink:href="#mfde1dbf986" y="123.034034"/>
     <use style="fill:#1f77b4;stroke:#1f77b4;" x="189.64818" xlink:href="#mfde1dbf986" y="82.144225"/>
     <use style="fill:#1f77b4;stroke:#1f77b4;" x="287.135029" xlink:href="#mfde1dbf986" y="165.928876"/>
     <use style="fill:#1f77b4;stroke:#1f77b4;" x="202.942901" xlink:href="#mfde1dbf986" y="67.480838"/>
     <use style="fill:#1f77b4;stroke:#1f77b4;" x="202.956267" xlink:href="#mfde1dbf986" y="115.124965"/>
     <use style="fill:#1f77b4;stroke:#1f77b4;" x="349.353614" xlink:href="#mfde1dbf986" y="149.778804"/>
     <use style="fill:#1f77b4;stroke:#1f77b4;" x="207.10312" xlink:href="#mfde1dbf986" y="97.914754"/>
     <use style="fill:#1f77b4;stroke:#1f77b4;" x="219.293718" xlink:href="#mfde1dbf986" y="89.323883"/>
     <use style="fill:#1f77b4;stroke:#1f77b4;" x="219.392728" xlink:href="#mfde1dbf986" y="129.028704"/>
     <use style="fill:#1f77b4;stroke:#1f77b4;" x="69.218182" xlink:href="#mfde1dbf986" y="242.116364"/>
     <use style="fill:#1f77b4;stroke:#1f77b4;" x="121.296247" xlink:href="#mfde1dbf986" y="171.257605"/>
     <use style="fill:#1f77b4;stroke:#1f77b4;" x="179.415306" xlink:href="#mfde1dbf986" y="82.804145"/>
     <use style="fill:#1f77b4;stroke:#1f77b4;" x="282.690586" xlink:href="#mfde1dbf986" y="161.926105"/>
     <use style="fill:#1f77b4;stroke:#1f77b4;" x="192.750781" xlink:href="#mfde1dbf986" y="69.036376"/>
     <use style="fill:#1f77b4;stroke:#1f77b4;" x="185.11904" xlink:href="#mfde1dbf986" y="111.783084"/>
     <use style="fill:#1f77b4;stroke:#1f77b4;" x="344.342004" xlink:href="#mfde1dbf986" y="151.388331"/>
     <use style="fill:#1f77b4;stroke:#1f77b4;" x="188.850377" xlink:href="#mfde1dbf986" y="94.210985"/>
     <use style="fill:#1f77b4;stroke:#1f77b4;" x="212.861949" xlink:href="#mfde1dbf986" y="79.053837"/>
     <use style="fill:#1f77b4;stroke:#1f77b4;" x="207.155552" xlink:href="#mfde1dbf986" y="116.74346"/>
     <use style="fill:#1f77b4;stroke:#1f77b4;" x="121.296247" xlink:href="#mfde1dbf986" y="166.940521"/>
     <use style="fill:#1f77b4;stroke:#1f77b4;" x="69.218182" xlink:href="#mfde1dbf986" y="242.116364"/>
    </g>
   </g>
   <g id="line2d_12">
    <path clip-path="url(#p0c75718110)" d="M 69.218182 242.116364 
L 69.218182 242.116364 
L 69.218182 242.116364 
L 69.218182 242.116364 
L 69.218182 242.116364 
L 69.218182 242.116364 
L 69.218182 242.116364 
L 69.218182 242.116364 
L 69.218182 242.116364 
L 69.218182 242.116364 
L 105.527323 218.534943 
L 105.527323 218.534943 
L 106.094352 218.166679 
L 106.094352 218.166679 
L 110.32045 215.421987 
L 110.32045 215.421987 
L 118.522995 210.094743 
L 118.522995 210.094743 
L 121.296247 208.29362 
L 121.296247 208.29362 
L 125.887105 205.312031 
L 125.887105 205.312031 
L 126.496307 204.916377 
L 126.496307 204.916377 
L 129.176893 203.175437 
L 129.176893 203.175437 
L 133.709272 200.231828 
L 133.709272 200.231828 
L 135.898285 198.810146 
L 135.898285 198.810146 
L 137.91922 197.497625 
L 137.91922 197.497625 
L 139.633999 196.383941 
L 139.633999 196.383941 
L 144.594325 193.162395 
L 144.594325 193.162395 
L 168.241258 177.804602 
L 168.241258 177.804602 
L 179.415306 170.547479 
L 179.415306 170.547479 
L 183.314624 168.015019 
L 183.314624 168.015019 
L 185.11904 166.843118 
L 185.11904 166.843118 
L 188.850377 164.419755 
L 188.850377 164.419755 
L 189.298036 164.129017 
L 189.298036 164.129017 
L 189.64818 163.901612 
L 189.64818 163.901612 
L 192.750781 161.886589 
L 192.750781 161.886589 
L 202.942901 155.267191 
L 202.942901 155.267191 
L 202.956267 155.25851 
L 202.956267 155.25851 
L 207.10312 152.565286 
L 207.10312 152.565286 
L 207.155552 152.531233 
L 207.155552 152.531233 
L 212.861949 148.825143 
L 212.861949 148.825143 
L 219.293718 144.647951 
L 219.293718 144.647951 
L 219.392728 144.583648 
L 219.392728 144.583648 
L 225.273947 140.764017 
L 225.273947 140.764017 
L 232.990651 135.752308 
L 232.990651 135.752308 
L 258.210818 119.372759 
L 258.210818 119.372759 
L 273.315235 109.563009 
L 273.315235 109.563009 
L 282.690586 103.474071 
L 282.690586 103.474071 
L 285.838286 101.429758 
L 285.838286 101.429758 
L 287.135029 100.587573 
L 287.135029 100.587573 
L 292.131944 97.342264 
L 292.131944 97.342264 
L 298.973178 92.89914 
L 298.973178 92.89914 
L 313.196011 83.661945 
L 313.196011 83.661945 
L 330.047629 72.717454 
L 330.047629 72.717454 
L 335.325521 69.289662 
L 335.325521 69.289662 
L 344.342004 63.433795 
L 344.342004 63.433795 
L 349.353614 60.178943 
L 349.353614 60.178943 
L 352.123719 58.379864 
L 352.123719 58.379864 
L 357.032235 55.191968 
L 357.032235 55.191968 
L 373.581818 44.443636 
L 373.581818 44.443636 
" style="fill:none;stroke:#000000;stroke-linecap:square;stroke-width:1.5;"/>
   </g>
   <g id="patch_3">
    <path d="M 54 252 
L 54 34.56 
" style="fill:none;stroke:#000000;stroke-linecap:square;stroke-linejoin:miter;stroke-width:0.8;"/>
   </g>
   <g id="patch_4">
    <path d="M 388.8 252 
L 388.8 34.56 
" style="fill:none;stroke:#000000;stroke-linecap:square;stroke-linejoin:miter;stroke-width:0.8;"/>
   </g>
   <g id="patch_5">
    <path d="M 54 252 
L 388.8 252 
" style="fill:none;stroke:#000000;stroke-linecap:square;stroke-linejoin:miter;stroke-width:0.8;"/>
   </g>
   <g id="patch_6">
    <path d="M 54 34.56 
L 388.8 34.56 
" style="fill:none;stroke:#000000;stroke-linecap:square;stroke-linejoin:miter;stroke-width:0.8;"/>
   </g>
   <g id="text_13">
    <!-- R^2 = 0.36 -->
    <defs>
     <path d="M 44.390625 34.1875 
Q 47.5625 33.109375 50.5625 29.59375 
Q 53.5625 26.078125 56.59375 19.921875 
L 66.609375 0 
L 56 0 
L 46.6875 18.703125 
Q 43.0625 26.03125 39.671875 28.421875 
Q 36.28125 30.8125 30.421875 30.8125 
L 19.671875 30.8125 
L 19.671875 0 
L 9.8125 0 
L 9.8125 72.90625 
L 32.078125 72.90625 
Q 44.578125 72.90625 50.734375 67.671875 
Q 56.890625 62.453125 56.890625 51.90625 
Q 56.890625 45.015625 53.6875 40.46875 
Q 50.484375 35.9375 44.390625 34.1875 
z
M 19.671875 64.796875 
L 19.671875 38.921875 
L 32.078125 38.921875 
Q 39.203125 38.921875 42.84375 42.21875 
Q 46.484375 45.515625 46.484375 51.90625 
Q 46.484375 58.296875 42.84375 61.546875 
Q 39.203125 64.796875 32.078125 64.796875 
z
" id="DejaVuSans-52"/>
     <path d="M 46.6875 72.90625 
L 73.1875 45.703125 
L 63.375 45.703125 
L 41.890625 64.984375 
L 20.40625 45.703125 
L 10.59375 45.703125 
L 37.109375 72.90625 
z
" id="DejaVuSans-5e"/>
     <path d="M 10.59375 45.40625 
L 73.1875 45.40625 
L 73.1875 37.203125 
L 10.59375 37.203125 
z
M 10.59375 25.484375 
L 73.1875 25.484375 
L 73.1875 17.1875 
L 10.59375 17.1875 
z
" id="DejaVuSans-3d"/>
     <path d="M 33.015625 40.375 
Q 26.375 40.375 22.484375 35.828125 
Q 18.609375 31.296875 18.609375 23.390625 
Q 18.609375 15.53125 22.484375 10.953125 
Q 26.375 6.390625 33.015625 6.390625 
Q 39.65625 6.390625 43.53125 10.953125 
Q 47.40625 15.53125 47.40625 23.390625 
Q 47.40625 31.296875 43.53125 35.828125 
Q 39.65625 40.375 33.015625 40.375 
z
M 52.59375 71.296875 
L 52.59375 62.3125 
Q 48.875 64.0625 45.09375 64.984375 
Q 41.3125 65.921875 37.59375 65.921875 
Q 27.828125 65.921875 22.671875 59.328125 
Q 17.53125 52.734375 16.796875 39.40625 
Q 19.671875 43.65625 24.015625 45.921875 
Q 28.375 48.1875 33.59375 48.1875 
Q 44.578125 48.1875 50.953125 41.515625 
Q 57.328125 34.859375 57.328125 23.390625 
Q 57.328125 12.15625 50.6875 5.359375 
Q 44.046875 -1.421875 33.015625 -1.421875 
Q 20.359375 -1.421875 13.671875 8.265625 
Q 6.984375 17.96875 6.984375 36.375 
Q 6.984375 53.65625 15.1875 63.9375 
Q 23.390625 74.21875 37.203125 74.21875 
Q 40.921875 74.21875 44.703125 73.484375 
Q 48.484375 72.75 52.59375 71.296875 
z
" id="DejaVuSans-36"/>
    </defs>
    <g transform="translate(251.836364 223.943434)scale(0.16 -0.16)">
     <use xlink:href="#DejaVuSans-52"/>
     <use x="69.482422" xlink:href="#DejaVuSans-5e"/>
     <use x="153.271484" xlink:href="#DejaVuSans-32"/>
     <use x="216.894531" xlink:href="#DejaVuSans-20"/>
     <use x="248.681641" xlink:href="#DejaVuSans-3d"/>
     <use x="332.470703" xlink:href="#DejaVuSans-20"/>
     <use x="364.257812" xlink:href="#DejaVuSans-30"/>
     <use x="427.880859" xlink:href="#DejaVuSans-2e"/>
     <use x="459.667969" xlink:href="#DejaVuSans-33"/>
     <use x="523.291016" xlink:href="#DejaVuSans-36"/>
    </g>
   </g>
   <g id="text_14">
    <!-- crystals/softplus/l2w0001_model_1 -->
    <defs>
     <path d="M 48.78125 52.59375 
L 48.78125 44.1875 
Q 44.96875 46.296875 41.140625 47.34375 
Q 37.3125 48.390625 33.40625 48.390625 
Q 24.65625 48.390625 19.8125 42.84375 
Q 14.984375 37.3125 14.984375 27.296875 
Q 14.984375 17.28125 19.8125 11.734375 
Q 24.65625 6.203125 33.40625 6.203125 
Q 37.3125 6.203125 41.140625 7.25 
Q 44.96875 8.296875 48.78125 10.40625 
L 48.78125 2.09375 
Q 45.015625 0.34375 40.984375 -0.53125 
Q 36.96875 -1.421875 32.421875 -1.421875 
Q 20.0625 -1.421875 12.78125 6.34375 
Q 5.515625 14.109375 5.515625 27.296875 
Q 5.515625 40.671875 12.859375 48.328125 
Q 20.21875 56 33.015625 56 
Q 37.15625 56 41.109375 55.140625 
Q 45.0625 54.296875 48.78125 52.59375 
z
" id="DejaVuSans-63"/>
     <path d="M 9.421875 75.984375 
L 18.40625 75.984375 
L 18.40625 0 
L 9.421875 0 
z
" id="DejaVuSans-6c"/>
     <path d="M 25.390625 72.90625 
L 33.6875 72.90625 
L 8.296875 -9.28125 
L 0 -9.28125 
z
" id="DejaVuSans-2f"/>
     <path d="M 8.5 21.578125 
L 8.5 54.6875 
L 17.484375 54.6875 
L 17.484375 21.921875 
Q 17.484375 14.15625 20.5 10.265625 
Q 23.53125 6.390625 29.59375 6.390625 
Q 36.859375 6.390625 41.078125 11.03125 
Q 45.3125 15.671875 45.3125 23.6875 
L 45.3125 54.6875 
L 54.296875 54.6875 
L 54.296875 0 
L 45.3125 0 
L 45.3125 8.40625 
Q 42.046875 3.421875 37.71875 1 
Q 33.40625 -1.421875 27.6875 -1.421875 
Q 18.265625 -1.421875 13.375 4.4375 
Q 8.5 10.296875 8.5 21.578125 
z
M 31.109375 56 
z
" id="DejaVuSans-75"/>
     <path d="M 4.203125 54.6875 
L 13.1875 54.6875 
L 24.421875 12.015625 
L 35.59375 54.6875 
L 46.1875 54.6875 
L 57.421875 12.015625 
L 68.609375 54.6875 
L 77.59375 54.6875 
L 63.28125 0 
L 52.6875 0 
L 40.921875 44.828125 
L 29.109375 0 
L 18.5 0 
z
" id="DejaVuSans-77"/>
     <path d="M 50.984375 -16.609375 
L 50.984375 -23.578125 
L -0.984375 -23.578125 
L -0.984375 -16.609375 
z
" id="DejaVuSans-5f"/>
     <path d="M 52 44.1875 
Q 55.375 50.25 60.0625 53.125 
Q 64.75 56 71.09375 56 
Q 79.640625 56 84.28125 50.015625 
Q 88.921875 44.046875 88.921875 33.015625 
L 88.921875 0 
L 79.890625 0 
L 79.890625 32.71875 
Q 79.890625 40.578125 77.09375 44.375 
Q 74.3125 48.1875 68.609375 48.1875 
Q 61.625 48.1875 57.5625 43.546875 
Q 53.515625 38.921875 53.515625 30.90625 
L 53.515625 0 
L 44.484375 0 
L 44.484375 32.71875 
Q 44.484375 40.625 41.703125 44.40625 
Q 38.921875 48.1875 33.109375 48.1875 
Q 26.21875 48.1875 22.15625 43.53125 
Q 18.109375 38.875 18.109375 30.90625 
L 18.109375 0 
L 9.078125 0 
L 9.078125 54.6875 
L 18.109375 54.6875 
L 18.109375 46.1875 
Q 21.1875 51.21875 25.484375 53.609375 
Q 29.78125 56 35.6875 56 
Q 41.65625 56 45.828125 52.96875 
Q 50 49.953125 52 44.1875 
z
" id="DejaVuSans-6d"/>
     <path d="M 56.203125 29.59375 
L 56.203125 25.203125 
L 14.890625 25.203125 
Q 15.484375 15.921875 20.484375 11.0625 
Q 25.484375 6.203125 34.421875 6.203125 
Q 39.59375 6.203125 44.453125 7.46875 
Q 49.3125 8.734375 54.109375 11.28125 
L 54.109375 2.78125 
Q 49.265625 0.734375 44.1875 -0.34375 
Q 39.109375 -1.421875 33.890625 -1.421875 
Q 20.796875 -1.421875 13.15625 6.1875 
Q 5.515625 13.8125 5.515625 26.8125 
Q 5.515625 40.234375 12.765625 48.109375 
Q 20.015625 56 32.328125 56 
Q 43.359375 56 49.78125 48.890625 
Q 56.203125 41.796875 56.203125 29.59375 
z
M 47.21875 32.234375 
Q 47.125 39.59375 43.09375 43.984375 
Q 39.0625 48.390625 32.421875 48.390625 
Q 24.90625 48.390625 20.390625 44.140625 
Q 15.875 39.890625 15.1875 32.171875 
z
" id="DejaVuSans-65"/>
    </defs>
    <g transform="translate(53.187 28.56)scale(0.192 -0.192)">
     <use xlink:href="#DejaVuSans-63"/>
     <use x="54.980469" xlink:href="#DejaVuSans-72"/>
     <use x="96.09375" xlink:href="#DejaVuSans-79"/>
     <use x="155.273438" xlink:href="#DejaVuSans-73"/>
     <use x="207.373047" xlink:href="#DejaVuSans-74"/>
     <use x="246.582031" xlink:href="#DejaVuSans-61"/>
     <use x="307.861328" xlink:href="#DejaVuSans-6c"/>
     <use x="335.644531" xlink:href="#DejaVuSans-73"/>
     <use x="387.744141" xlink:href="#DejaVuSans-2f"/>
     <use x="421.435547" xlink:href="#DejaVuSans-73"/>
     <use x="473.535156" xlink:href="#DejaVuSans-6f"/>
     <use x="534.716797" xlink:href="#DejaVuSans-66"/>
     <use x="569.90625" xlink:href="#DejaVuSans-74"/>
     <use x="609.115234" xlink:href="#DejaVuSans-70"/>
     <use x="672.591797" xlink:href="#DejaVuSans-6c"/>
     <use x="700.375" xlink:href="#DejaVuSans-75"/>
     <use x="763.753906" xlink:href="#DejaVuSans-73"/>
     <use x="815.853516" xlink:href="#DejaVuSans-2f"/>
     <use x="849.544922" xlink:href="#DejaVuSans-6c"/>
     <use x="877.328125" xlink:href="#DejaVuSans-32"/>
     <use x="940.951172" xlink:href="#DejaVuSans-77"/>
     <use x="1022.738281" xlink:href="#DejaVuSans-30"/>
     <use x="1086.361328" xlink:href="#DejaVuSans-30"/>
     <use x="1149.984375" xlink:href="#DejaVuSans-30"/>
     <use x="1213.607422" xlink:href="#DejaVuSans-31"/>
     <use x="1277.230469" xlink:href="#DejaVuSans-5f"/>
     <use x="1327.230469" xlink:href="#DejaVuSans-6d"/>
     <use x="1424.642578" xlink:href="#DejaVuSans-6f"/>
     <use x="1485.824219" xlink:href="#DejaVuSans-64"/>
     <use x="1549.300781" xlink:href="#DejaVuSans-65"/>
     <use x="1610.824219" xlink:href="#DejaVuSans-6c"/>
     <use x="1638.607422" xlink:href="#DejaVuSans-5f"/>
     <use x="1688.607422" xlink:href="#DejaVuSans-31"/>
    </g>
   </g>
  </g>
 </g>
 <defs>
  <clipPath id="p0c75718110">
   <rect height="217.44" width="334.8" x="54" y="34.56"/>
  </clipPath>
 </defs>
</svg>
