<?xml version="1.0" encoding="utf-8" standalone="no"?>
<!DOCTYPE svg PUBLIC "-//W3C//DTD SVG 1.1//EN"
  "http://www.w3.org/Graphics/SVG/1.1/DTD/svg11.dtd">
<!-- Created with matplotlib (http://matplotlib.org/) -->
<svg height="345.6pt" version="1.1" viewBox="0 0 460.8 345.6" width="460.8pt" xmlns="http://www.w3.org/2000/svg" xmlns:xlink="http://www.w3.org/1999/xlink">
 <defs>
  <style type="text/css">
*{stroke-linecap:butt;stroke-linejoin:round;}
  </style>
 </defs>
 <g id="figure_1">
  <g id="patch_1">
   <path d="M 0 345.6 
L 460.8 345.6 
L 460.8 0 
L 0 0 
z
" style="fill:#ffffff;"/>
  </g>
  <g id="axes_1">
   <g id="patch_2">
    <path d="M 57.6 307.584 
L 414.72 307.584 
L 414.72 41.472 
L 57.6 41.472 
z
" style="fill:#ffffff;"/>
   </g>
   <g id="matplotlib.axis_1">
    <g id="xtick_1">
     <g id="line2d_1">
      <defs>
       <path d="M 0 0 
L 0 3.5 
" id="m5083943fbc" style="stroke:#000000;stroke-width:0.8;"/>
      </defs>
      <g>
       <use style="stroke:#000000;stroke-width:0.8;" x="73.832727" xlink:href="#m5083943fbc" y="307.584"/>
      </g>
     </g>
     <g id="text_1">
      <!-- 0 -->
      <defs>
       <path d="M 31.78125 66.40625 
Q 24.171875 66.40625 20.328125 58.90625 
Q 16.5 51.421875 16.5 36.375 
Q 16.5 21.390625 20.328125 13.890625 
Q 24.171875 6.390625 31.78125 6.390625 
Q 39.453125 6.390625 43.28125 13.890625 
Q 47.125 21.390625 47.125 36.375 
Q 47.125 51.421875 43.28125 58.90625 
Q 39.453125 66.40625 31.78125 66.40625 
z
M 31.78125 74.21875 
Q 44.046875 74.21875 50.515625 64.515625 
Q 56.984375 54.828125 56.984375 36.375 
Q 56.984375 17.96875 50.515625 8.265625 
Q 44.046875 -1.421875 31.78125 -1.421875 
Q 19.53125 -1.421875 13.0625 8.265625 
Q 6.59375 17.96875 6.59375 36.375 
Q 6.59375 54.828125 13.0625 64.515625 
Q 19.53125 74.21875 31.78125 74.21875 
z
" id="DejaVuSans-30"/>
      </defs>
      <g transform="translate(68.742727 326.7415)scale(0.16 -0.16)">
       <use xlink:href="#DejaVuSans-30"/>
      </g>
     </g>
    </g>
    <g id="xtick_2">
     <g id="line2d_2">
      <g>
       <use style="stroke:#000000;stroke-width:0.8;" x="160.345512" xlink:href="#m5083943fbc" y="307.584"/>
      </g>
     </g>
     <g id="text_2">
      <!-- 5 -->
      <defs>
       <path d="M 10.796875 72.90625 
L 49.515625 72.90625 
L 49.515625 64.59375 
L 19.828125 64.59375 
L 19.828125 46.734375 
Q 21.96875 47.46875 24.109375 47.828125 
Q 26.265625 48.1875 28.421875 48.1875 
Q 40.625 48.1875 47.75 41.5 
Q 54.890625 34.8125 54.890625 23.390625 
Q 54.890625 11.625 47.5625 5.09375 
Q 40.234375 -1.421875 26.90625 -1.421875 
Q 22.3125 -1.421875 17.546875 -0.640625 
Q 12.796875 0.140625 7.71875 1.703125 
L 7.71875 11.625 
Q 12.109375 9.234375 16.796875 8.0625 
Q 21.484375 6.890625 26.703125 6.890625 
Q 35.15625 6.890625 40.078125 11.328125 
Q 45.015625 15.765625 45.015625 23.390625 
Q 45.015625 31 40.078125 35.4375 
Q 35.15625 39.890625 26.703125 39.890625 
Q 22.75 39.890625 18.8125 39.015625 
Q 14.890625 38.140625 10.796875 36.28125 
z
" id="DejaVuSans-35"/>
      </defs>
      <g transform="translate(155.255512 326.7415)scale(0.16 -0.16)">
       <use xlink:href="#DejaVuSans-35"/>
      </g>
     </g>
    </g>
    <g id="xtick_3">
     <g id="line2d_3">
      <g>
       <use style="stroke:#000000;stroke-width:0.8;" x="246.858296" xlink:href="#m5083943fbc" y="307.584"/>
      </g>
     </g>
     <g id="text_3">
      <!-- 10 -->
      <defs>
       <path d="M 12.40625 8.296875 
L 28.515625 8.296875 
L 28.515625 63.921875 
L 10.984375 60.40625 
L 10.984375 69.390625 
L 28.421875 72.90625 
L 38.28125 72.90625 
L 38.28125 8.296875 
L 54.390625 8.296875 
L 54.390625 0 
L 12.40625 0 
z
" id="DejaVuSans-31"/>
      </defs>
      <g transform="translate(236.678296 326.7415)scale(0.16 -0.16)">
       <use xlink:href="#DejaVuSans-31"/>
       <use x="63.623047" xlink:href="#DejaVuSans-30"/>
      </g>
     </g>
    </g>
    <g id="xtick_4">
     <g id="line2d_4">
      <g>
       <use style="stroke:#000000;stroke-width:0.8;" x="333.371081" xlink:href="#m5083943fbc" y="307.584"/>
      </g>
     </g>
     <g id="text_4">
      <!-- 15 -->
      <g transform="translate(323.191081 326.7415)scale(0.16 -0.16)">
       <use xlink:href="#DejaVuSans-31"/>
       <use x="63.623047" xlink:href="#DejaVuSans-35"/>
      </g>
     </g>
    </g>
    <g id="text_5">
     <!-- fix disparity -->
     <defs>
      <path d="M 37.109375 75.984375 
L 37.109375 68.5 
L 28.515625 68.5 
Q 23.6875 68.5 21.796875 66.546875 
Q 19.921875 64.59375 19.921875 59.515625 
L 19.921875 54.6875 
L 34.71875 54.6875 
L 34.71875 47.703125 
L 19.921875 47.703125 
L 19.921875 0 
L 10.890625 0 
L 10.890625 47.703125 
L 2.296875 47.703125 
L 2.296875 54.6875 
L 10.890625 54.6875 
L 10.890625 58.5 
Q 10.890625 67.625 15.140625 71.796875 
Q 19.390625 75.984375 28.609375 75.984375 
z
" id="DejaVuSans-66"/>
      <path d="M 9.421875 54.6875 
L 18.40625 54.6875 
L 18.40625 0 
L 9.421875 0 
z
M 9.421875 75.984375 
L 18.40625 75.984375 
L 18.40625 64.59375 
L 9.421875 64.59375 
z
" id="DejaVuSans-69"/>
      <path d="M 54.890625 54.6875 
L 35.109375 28.078125 
L 55.90625 0 
L 45.3125 0 
L 29.390625 21.484375 
L 13.484375 0 
L 2.875 0 
L 24.125 28.609375 
L 4.6875 54.6875 
L 15.28125 54.6875 
L 29.78125 35.203125 
L 44.28125 54.6875 
z
" id="DejaVuSans-78"/>
      <path id="DejaVuSans-20"/>
      <path d="M 45.40625 46.390625 
L 45.40625 75.984375 
L 54.390625 75.984375 
L 54.390625 0 
L 45.40625 0 
L 45.40625 8.203125 
Q 42.578125 3.328125 38.25 0.953125 
Q 33.9375 -1.421875 27.875 -1.421875 
Q 17.96875 -1.421875 11.734375 6.484375 
Q 5.515625 14.40625 5.515625 27.296875 
Q 5.515625 40.1875 11.734375 48.09375 
Q 17.96875 56 27.875 56 
Q 33.9375 56 38.25 53.625 
Q 42.578125 51.265625 45.40625 46.390625 
z
M 14.796875 27.296875 
Q 14.796875 17.390625 18.875 11.75 
Q 22.953125 6.109375 30.078125 6.109375 
Q 37.203125 6.109375 41.296875 11.75 
Q 45.40625 17.390625 45.40625 27.296875 
Q 45.40625 37.203125 41.296875 42.84375 
Q 37.203125 48.484375 30.078125 48.484375 
Q 22.953125 48.484375 18.875 42.84375 
Q 14.796875 37.203125 14.796875 27.296875 
z
" id="DejaVuSans-64"/>
      <path d="M 44.28125 53.078125 
L 44.28125 44.578125 
Q 40.484375 46.53125 36.375 47.5 
Q 32.28125 48.484375 27.875 48.484375 
Q 21.1875 48.484375 17.84375 46.4375 
Q 14.5 44.390625 14.5 40.28125 
Q 14.5 37.15625 16.890625 35.375 
Q 19.28125 33.59375 26.515625 31.984375 
L 29.59375 31.296875 
Q 39.15625 29.25 43.1875 25.515625 
Q 47.21875 21.78125 47.21875 15.09375 
Q 47.21875 7.46875 41.1875 3.015625 
Q 35.15625 -1.421875 24.609375 -1.421875 
Q 20.21875 -1.421875 15.453125 -0.5625 
Q 10.6875 0.296875 5.421875 2 
L 5.421875 11.28125 
Q 10.40625 8.6875 15.234375 7.390625 
Q 20.0625 6.109375 24.8125 6.109375 
Q 31.15625 6.109375 34.5625 8.28125 
Q 37.984375 10.453125 37.984375 14.40625 
Q 37.984375 18.0625 35.515625 20.015625 
Q 33.0625 21.96875 24.703125 23.78125 
L 21.578125 24.515625 
Q 13.234375 26.265625 9.515625 29.90625 
Q 5.8125 33.546875 5.8125 39.890625 
Q 5.8125 47.609375 11.28125 51.796875 
Q 16.75 56 26.8125 56 
Q 31.78125 56 36.171875 55.265625 
Q 40.578125 54.546875 44.28125 53.078125 
z
" id="DejaVuSans-73"/>
      <path d="M 18.109375 8.203125 
L 18.109375 -20.796875 
L 9.078125 -20.796875 
L 9.078125 54.6875 
L 18.109375 54.6875 
L 18.109375 46.390625 
Q 20.953125 51.265625 25.265625 53.625 
Q 29.59375 56 35.59375 56 
Q 45.5625 56 51.78125 48.09375 
Q 58.015625 40.1875 58.015625 27.296875 
Q 58.015625 14.40625 51.78125 6.484375 
Q 45.5625 -1.421875 35.59375 -1.421875 
Q 29.59375 -1.421875 25.265625 0.953125 
Q 20.953125 3.328125 18.109375 8.203125 
z
M 48.6875 27.296875 
Q 48.6875 37.203125 44.609375 42.84375 
Q 40.53125 48.484375 33.40625 48.484375 
Q 26.265625 48.484375 22.1875 42.84375 
Q 18.109375 37.203125 18.109375 27.296875 
Q 18.109375 17.390625 22.1875 11.75 
Q 26.265625 6.109375 33.40625 6.109375 
Q 40.53125 6.109375 44.609375 11.75 
Q 48.6875 17.390625 48.6875 27.296875 
z
" id="DejaVuSans-70"/>
      <path d="M 34.28125 27.484375 
Q 23.390625 27.484375 19.1875 25 
Q 14.984375 22.515625 14.984375 16.5 
Q 14.984375 11.71875 18.140625 8.90625 
Q 21.296875 6.109375 26.703125 6.109375 
Q 34.1875 6.109375 38.703125 11.40625 
Q 43.21875 16.703125 43.21875 25.484375 
L 43.21875 27.484375 
z
M 52.203125 31.203125 
L 52.203125 0 
L 43.21875 0 
L 43.21875 8.296875 
Q 40.140625 3.328125 35.546875 0.953125 
Q 30.953125 -1.421875 24.3125 -1.421875 
Q 15.921875 -1.421875 10.953125 3.296875 
Q 6 8.015625 6 15.921875 
Q 6 25.140625 12.171875 29.828125 
Q 18.359375 34.515625 30.609375 34.515625 
L 43.21875 34.515625 
L 43.21875 35.40625 
Q 43.21875 41.609375 39.140625 45 
Q 35.0625 48.390625 27.6875 48.390625 
Q 23 48.390625 18.546875 47.265625 
Q 14.109375 46.140625 10.015625 43.890625 
L 10.015625 52.203125 
Q 14.9375 54.109375 19.578125 55.046875 
Q 24.21875 56 28.609375 56 
Q 40.484375 56 46.34375 49.84375 
Q 52.203125 43.703125 52.203125 31.203125 
z
" id="DejaVuSans-61"/>
      <path d="M 41.109375 46.296875 
Q 39.59375 47.171875 37.8125 47.578125 
Q 36.03125 48 33.890625 48 
Q 26.265625 48 22.1875 43.046875 
Q 18.109375 38.09375 18.109375 28.8125 
L 18.109375 0 
L 9.078125 0 
L 9.078125 54.6875 
L 18.109375 54.6875 
L 18.109375 46.1875 
Q 20.953125 51.171875 25.484375 53.578125 
Q 30.03125 56 36.53125 56 
Q 37.453125 56 38.578125 55.875 
Q 39.703125 55.765625 41.0625 55.515625 
z
" id="DejaVuSans-72"/>
      <path d="M 18.3125 70.21875 
L 18.3125 54.6875 
L 36.8125 54.6875 
L 36.8125 47.703125 
L 18.3125 47.703125 
L 18.3125 18.015625 
Q 18.3125 11.328125 20.140625 9.421875 
Q 21.96875 7.515625 27.59375 7.515625 
L 36.8125 7.515625 
L 36.8125 0 
L 27.59375 0 
Q 17.1875 0 13.234375 3.875 
Q 9.28125 7.765625 9.28125 18.015625 
L 9.28125 47.703125 
L 2.6875 47.703125 
L 2.6875 54.6875 
L 9.28125 54.6875 
L 9.28125 70.21875 
z
" id="DejaVuSans-74"/>
      <path d="M 32.171875 -5.078125 
Q 28.375 -14.84375 24.75 -17.8125 
Q 21.140625 -20.796875 15.09375 -20.796875 
L 7.90625 -20.796875 
L 7.90625 -13.28125 
L 13.1875 -13.28125 
Q 16.890625 -13.28125 18.9375 -11.515625 
Q 21 -9.765625 23.484375 -3.21875 
L 25.09375 0.875 
L 2.984375 54.6875 
L 12.5 54.6875 
L 29.59375 11.921875 
L 46.6875 54.6875 
L 56.203125 54.6875 
z
" id="DejaVuSans-79"/>
     </defs>
     <g transform="translate(189.01125 346.2265)scale(0.16 -0.16)">
      <use xlink:href="#DejaVuSans-66"/>
      <use x="35.205078" xlink:href="#DejaVuSans-69"/>
      <use x="62.988281" xlink:href="#DejaVuSans-78"/>
      <use x="122.167969" xlink:href="#DejaVuSans-20"/>
      <use x="153.955078" xlink:href="#DejaVuSans-64"/>
      <use x="217.431641" xlink:href="#DejaVuSans-69"/>
      <use x="245.214844" xlink:href="#DejaVuSans-73"/>
      <use x="297.314453" xlink:href="#DejaVuSans-70"/>
      <use x="360.791016" xlink:href="#DejaVuSans-61"/>
      <use x="422.070312" xlink:href="#DejaVuSans-72"/>
      <use x="463.183594" xlink:href="#DejaVuSans-69"/>
      <use x="490.966797" xlink:href="#DejaVuSans-74"/>
      <use x="530.175781" xlink:href="#DejaVuSans-79"/>
     </g>
    </g>
   </g>
   <g id="matplotlib.axis_2">
    <g id="ytick_1">
     <g id="line2d_5">
      <defs>
       <path d="M 0 0 
L -3.5 0 
" id="m6e5cd9ab3a" style="stroke:#000000;stroke-width:0.8;"/>
      </defs>
      <g>
       <use style="stroke:#000000;stroke-width:0.8;" x="57.6" xlink:href="#m6e5cd9ab3a" y="295.488"/>
      </g>
     </g>
     <g id="text_6">
      <!-- 0.0 -->
      <defs>
       <path d="M 10.6875 12.40625 
L 21 12.40625 
L 21 0 
L 10.6875 0 
z
" id="DejaVuSans-2e"/>
      </defs>
      <g transform="translate(25.155 301.56675)scale(0.16 -0.16)">
       <use xlink:href="#DejaVuSans-30"/>
       <use x="63.623047" xlink:href="#DejaVuSans-2e"/>
       <use x="95.410156" xlink:href="#DejaVuSans-30"/>
      </g>
     </g>
    </g>
    <g id="ytick_2">
     <g id="line2d_6">
      <g>
       <use style="stroke:#000000;stroke-width:0.8;" x="57.6" xlink:href="#m6e5cd9ab3a" y="254.186264"/>
      </g>
     </g>
     <g id="text_7">
      <!-- 0.1 -->
      <g transform="translate(25.155 260.265014)scale(0.16 -0.16)">
       <use xlink:href="#DejaVuSans-30"/>
       <use x="63.623047" xlink:href="#DejaVuSans-2e"/>
       <use x="95.410156" xlink:href="#DejaVuSans-31"/>
      </g>
     </g>
    </g>
    <g id="ytick_3">
     <g id="line2d_7">
      <g>
       <use style="stroke:#000000;stroke-width:0.8;" x="57.6" xlink:href="#m6e5cd9ab3a" y="212.884528"/>
      </g>
     </g>
     <g id="text_8">
      <!-- 0.2 -->
      <defs>
       <path d="M 19.1875 8.296875 
L 53.609375 8.296875 
L 53.609375 0 
L 7.328125 0 
L 7.328125 8.296875 
Q 12.9375 14.109375 22.625 23.890625 
Q 32.328125 33.6875 34.8125 36.53125 
Q 39.546875 41.84375 41.421875 45.53125 
Q 43.3125 49.21875 43.3125 52.78125 
Q 43.3125 58.59375 39.234375 62.25 
Q 35.15625 65.921875 28.609375 65.921875 
Q 23.96875 65.921875 18.8125 64.3125 
Q 13.671875 62.703125 7.8125 59.421875 
L 7.8125 69.390625 
Q 13.765625 71.78125 18.9375 73 
Q 24.125 74.21875 28.421875 74.21875 
Q 39.75 74.21875 46.484375 68.546875 
Q 53.21875 62.890625 53.21875 53.421875 
Q 53.21875 48.921875 51.53125 44.890625 
Q 49.859375 40.875 45.40625 35.40625 
Q 44.1875 33.984375 37.640625 27.21875 
Q 31.109375 20.453125 19.1875 8.296875 
z
" id="DejaVuSans-32"/>
      </defs>
      <g transform="translate(25.155 218.963278)scale(0.16 -0.16)">
       <use xlink:href="#DejaVuSans-30"/>
       <use x="63.623047" xlink:href="#DejaVuSans-2e"/>
       <use x="95.410156" xlink:href="#DejaVuSans-32"/>
      </g>
     </g>
    </g>
    <g id="ytick_4">
     <g id="line2d_8">
      <g>
       <use style="stroke:#000000;stroke-width:0.8;" x="57.6" xlink:href="#m6e5cd9ab3a" y="171.582792"/>
      </g>
     </g>
     <g id="text_9">
      <!-- 0.3 -->
      <defs>
       <path d="M 40.578125 39.3125 
Q 47.65625 37.796875 51.625 33 
Q 55.609375 28.21875 55.609375 21.1875 
Q 55.609375 10.40625 48.1875 4.484375 
Q 40.765625 -1.421875 27.09375 -1.421875 
Q 22.515625 -1.421875 17.65625 -0.515625 
Q 12.796875 0.390625 7.625 2.203125 
L 7.625 11.71875 
Q 11.71875 9.328125 16.59375 8.109375 
Q 21.484375 6.890625 26.8125 6.890625 
Q 36.078125 6.890625 40.9375 10.546875 
Q 45.796875 14.203125 45.796875 21.1875 
Q 45.796875 27.640625 41.28125 31.265625 
Q 36.765625 34.90625 28.71875 34.90625 
L 20.21875 34.90625 
L 20.21875 43.015625 
L 29.109375 43.015625 
Q 36.375 43.015625 40.234375 45.921875 
Q 44.09375 48.828125 44.09375 54.296875 
Q 44.09375 59.90625 40.109375 62.90625 
Q 36.140625 65.921875 28.71875 65.921875 
Q 24.65625 65.921875 20.015625 65.03125 
Q 15.375 64.15625 9.8125 62.3125 
L 9.8125 71.09375 
Q 15.4375 72.65625 20.34375 73.4375 
Q 25.25 74.21875 29.59375 74.21875 
Q 40.828125 74.21875 47.359375 69.109375 
Q 53.90625 64.015625 53.90625 55.328125 
Q 53.90625 49.265625 50.4375 45.09375 
Q 46.96875 40.921875 40.578125 39.3125 
z
" id="DejaVuSans-33"/>
      </defs>
      <g transform="translate(25.155 177.661542)scale(0.16 -0.16)">
       <use xlink:href="#DejaVuSans-30"/>
       <use x="63.623047" xlink:href="#DejaVuSans-2e"/>
       <use x="95.410156" xlink:href="#DejaVuSans-33"/>
      </g>
     </g>
    </g>
    <g id="ytick_5">
     <g id="line2d_9">
      <g>
       <use style="stroke:#000000;stroke-width:0.8;" x="57.6" xlink:href="#m6e5cd9ab3a" y="130.281055"/>
      </g>
     </g>
     <g id="text_10">
      <!-- 0.4 -->
      <defs>
       <path d="M 37.796875 64.3125 
L 12.890625 25.390625 
L 37.796875 25.390625 
z
M 35.203125 72.90625 
L 47.609375 72.90625 
L 47.609375 25.390625 
L 58.015625 25.390625 
L 58.015625 17.1875 
L 47.609375 17.1875 
L 47.609375 0 
L 37.796875 0 
L 37.796875 17.1875 
L 4.890625 17.1875 
L 4.890625 26.703125 
z
" id="DejaVuSans-34"/>
      </defs>
      <g transform="translate(25.155 136.359805)scale(0.16 -0.16)">
       <use xlink:href="#DejaVuSans-30"/>
       <use x="63.623047" xlink:href="#DejaVuSans-2e"/>
       <use x="95.410156" xlink:href="#DejaVuSans-34"/>
      </g>
     </g>
    </g>
    <g id="ytick_6">
     <g id="line2d_10">
      <g>
       <use style="stroke:#000000;stroke-width:0.8;" x="57.6" xlink:href="#m6e5cd9ab3a" y="88.979319"/>
      </g>
     </g>
     <g id="text_11">
      <!-- 0.5 -->
      <g transform="translate(25.155 95.058069)scale(0.16 -0.16)">
       <use xlink:href="#DejaVuSans-30"/>
       <use x="63.623047" xlink:href="#DejaVuSans-2e"/>
       <use x="95.410156" xlink:href="#DejaVuSans-35"/>
      </g>
     </g>
    </g>
    <g id="ytick_7">
     <g id="line2d_11">
      <g>
       <use style="stroke:#000000;stroke-width:0.8;" x="57.6" xlink:href="#m6e5cd9ab3a" y="47.677583"/>
      </g>
     </g>
     <g id="text_12">
      <!-- 0.6 -->
      <defs>
       <path d="M 33.015625 40.375 
Q 26.375 40.375 22.484375 35.828125 
Q 18.609375 31.296875 18.609375 23.390625 
Q 18.609375 15.53125 22.484375 10.953125 
Q 26.375 6.390625 33.015625 6.390625 
Q 39.65625 6.390625 43.53125 10.953125 
Q 47.40625 15.53125 47.40625 23.390625 
Q 47.40625 31.296875 43.53125 35.828125 
Q 39.65625 40.375 33.015625 40.375 
z
M 52.59375 71.296875 
L 52.59375 62.3125 
Q 48.875 64.0625 45.09375 64.984375 
Q 41.3125 65.921875 37.59375 65.921875 
Q 27.828125 65.921875 22.671875 59.328125 
Q 17.53125 52.734375 16.796875 39.40625 
Q 19.671875 43.65625 24.015625 45.921875 
Q 28.375 48.1875 33.59375 48.1875 
Q 44.578125 48.1875 50.953125 41.515625 
Q 57.328125 34.859375 57.328125 23.390625 
Q 57.328125 12.15625 50.6875 5.359375 
Q 44.046875 -1.421875 33.015625 -1.421875 
Q 20.359375 -1.421875 13.671875 8.265625 
Q 6.984375 17.96875 6.984375 36.375 
Q 6.984375 53.65625 15.1875 63.9375 
Q 23.390625 74.21875 37.203125 74.21875 
Q 40.921875 74.21875 44.703125 73.484375 
Q 48.484375 72.75 52.59375 71.296875 
z
" id="DejaVuSans-36"/>
      </defs>
      <g transform="translate(25.155 53.756333)scale(0.16 -0.16)">
       <use xlink:href="#DejaVuSans-30"/>
       <use x="63.623047" xlink:href="#DejaVuSans-2e"/>
       <use x="95.410156" xlink:href="#DejaVuSans-36"/>
      </g>
     </g>
    </g>
    <g id="text_13">
     <!-- stim1 disparity -->
     <defs>
      <path d="M 52 44.1875 
Q 55.375 50.25 60.0625 53.125 
Q 64.75 56 71.09375 56 
Q 79.640625 56 84.28125 50.015625 
Q 88.921875 44.046875 88.921875 33.015625 
L 88.921875 0 
L 79.890625 0 
L 79.890625 32.71875 
Q 79.890625 40.578125 77.09375 44.375 
Q 74.3125 48.1875 68.609375 48.1875 
Q 61.625 48.1875 57.5625 43.546875 
Q 53.515625 38.921875 53.515625 30.90625 
L 53.515625 0 
L 44.484375 0 
L 44.484375 32.71875 
Q 44.484375 40.625 41.703125 44.40625 
Q 38.921875 48.1875 33.109375 48.1875 
Q 26.21875 48.1875 22.15625 43.53125 
Q 18.109375 38.875 18.109375 30.90625 
L 18.109375 0 
L 9.078125 0 
L 9.078125 54.6875 
L 18.109375 54.6875 
L 18.109375 46.1875 
Q 21.1875 51.21875 25.484375 53.609375 
Q 29.78125 56 35.6875 56 
Q 41.65625 56 45.828125 52.96875 
Q 50 49.953125 52 44.1875 
z
" id="DejaVuSans-6d"/>
     </defs>
     <g transform="translate(17.8275 234.31175)rotate(-90)scale(0.16 -0.16)">
      <use xlink:href="#DejaVuSans-73"/>
      <use x="52.099609" xlink:href="#DejaVuSans-74"/>
      <use x="91.308594" xlink:href="#DejaVuSans-69"/>
      <use x="119.091797" xlink:href="#DejaVuSans-6d"/>
      <use x="216.503906" xlink:href="#DejaVuSans-31"/>
      <use x="280.126953" xlink:href="#DejaVuSans-20"/>
      <use x="311.914062" xlink:href="#DejaVuSans-64"/>
      <use x="375.390625" xlink:href="#DejaVuSans-69"/>
      <use x="403.173828" xlink:href="#DejaVuSans-73"/>
      <use x="455.273438" xlink:href="#DejaVuSans-70"/>
      <use x="518.75" xlink:href="#DejaVuSans-61"/>
      <use x="580.029297" xlink:href="#DejaVuSans-72"/>
      <use x="621.142578" xlink:href="#DejaVuSans-69"/>
      <use x="648.925781" xlink:href="#DejaVuSans-74"/>
      <use x="688.134766" xlink:href="#DejaVuSans-79"/>
     </g>
    </g>
   </g>
   <g id="line2d_12">
    <defs>
     <path d="M 0 1.5 
C 0.397805 1.5 0.77937 1.341951 1.06066 1.06066 
C 1.341951 0.77937 1.5 0.397805 1.5 0 
C 1.5 -0.397805 1.341951 -0.77937 1.06066 -1.06066 
C 0.77937 -1.341951 0.397805 -1.5 0 -1.5 
C -0.397805 -1.5 -0.77937 -1.341951 -1.06066 -1.06066 
C -1.341951 -0.77937 -1.5 -0.397805 -1.5 0 
C -1.5 0.397805 -1.341951 0.77937 -1.06066 1.06066 
C -0.77937 1.341951 -0.397805 1.5 0 1.5 
z
" id="m9e5d74e3f3" style="stroke:#1f77b4;"/>
    </defs>
    <g clip-path="url(#p80fd04b00b)">
     <use style="fill:#1f77b4;stroke:#1f77b4;" x="73.832727" xlink:href="#m9e5d74e3f3" y="295.488"/>
     <use style="fill:#1f77b4;stroke:#1f77b4;" x="241.098637" xlink:href="#m9e5d74e3f3" y="168.29727"/>
     <use style="fill:#1f77b4;stroke:#1f77b4;" x="105.012634" xlink:href="#m9e5d74e3f3" y="267.897872"/>
     <use style="fill:#1f77b4;stroke:#1f77b4;" x="150.364726" xlink:href="#m9e5d74e3f3" y="257.148023"/>
     <use style="fill:#1f77b4;stroke:#1f77b4;" x="237.933356" xlink:href="#m9e5d74e3f3" y="199.328713"/>
     <use style="fill:#1f77b4;stroke:#1f77b4;" x="150.160298" xlink:href="#m9e5d74e3f3" y="272.484325"/>
     <use style="fill:#1f77b4;stroke:#1f77b4;" x="346.468416" xlink:href="#m9e5d74e3f3" y="61.570026"/>
     <use style="fill:#1f77b4;stroke:#1f77b4;" x="342.002476" xlink:href="#m9e5d74e3f3" y="61.739791"/>
     <use style="fill:#1f77b4;stroke:#1f77b4;" x="209.884499" xlink:href="#m9e5d74e3f3" y="235.011159"/>
     <use style="fill:#1f77b4;stroke:#1f77b4;" x="198.62904" xlink:href="#m9e5d74e3f3" y="154.076276"/>
     <use style="fill:#1f77b4;stroke:#1f77b4;" x="241.098637" xlink:href="#m9e5d74e3f3" y="168.29727"/>
     <use style="fill:#1f77b4;stroke:#1f77b4;" x="73.832727" xlink:href="#m9e5d74e3f3" y="295.488"/>
     <use style="fill:#1f77b4;stroke:#1f77b4;" x="237.550247" xlink:href="#m9e5d74e3f3" y="149.968198"/>
     <use style="fill:#1f77b4;stroke:#1f77b4;" x="254.545094" xlink:href="#m9e5d74e3f3" y="204.503555"/>
     <use style="fill:#1f77b4;stroke:#1f77b4;" x="170.221254" xlink:href="#m9e5d74e3f3" y="282.145924"/>
     <use style="fill:#1f77b4;stroke:#1f77b4;" x="251.782088" xlink:href="#m9e5d74e3f3" y="169.994311"/>
     <use style="fill:#1f77b4;stroke:#1f77b4;" x="398.487273" xlink:href="#m9e5d74e3f3" y="132.526584"/>
     <use style="fill:#1f77b4;stroke:#1f77b4;" x="393.756082" xlink:href="#m9e5d74e3f3" y="136.78946"/>
     <use style="fill:#1f77b4;stroke:#1f77b4;" x="291.22248" xlink:href="#m9e5d74e3f3" y="233.515238"/>
     <use style="fill:#1f77b4;stroke:#1f77b4;" x="283.554026" xlink:href="#m9e5d74e3f3" y="167.573156"/>
     <use style="fill:#1f77b4;stroke:#1f77b4;" x="105.012634" xlink:href="#m9e5d74e3f3" y="267.89787"/>
     <use style="fill:#1f77b4;stroke:#1f77b4;" x="237.550247" xlink:href="#m9e5d74e3f3" y="149.968201"/>
     <use style="fill:#1f77b4;stroke:#1f77b4;" x="73.832727" xlink:href="#m9e5d74e3f3" y="295.488"/>
     <use style="fill:#1f77b4;stroke:#1f77b4;" x="155.406596" xlink:href="#m9e5d74e3f3" y="242.589176"/>
     <use style="fill:#1f77b4;stroke:#1f77b4;" x="231.916807" xlink:href="#m9e5d74e3f3" y="197.760598"/>
     <use style="fill:#1f77b4;stroke:#1f77b4;" x="148.588403" xlink:href="#m9e5d74e3f3" y="284.082656"/>
     <use style="fill:#1f77b4;stroke:#1f77b4;" x="360.986787" xlink:href="#m9e5d74e3f3" y="53.826568"/>
     <use style="fill:#1f77b4;stroke:#1f77b4;" x="355.800427" xlink:href="#m9e5d74e3f3" y="58.899718"/>
     <use style="fill:#1f77b4;stroke:#1f77b4;" x="223.543422" xlink:href="#m9e5d74e3f3" y="230.676245"/>
     <use style="fill:#1f77b4;stroke:#1f77b4;" x="213.841584" xlink:href="#m9e5d74e3f3" y="195.26067"/>
     <use style="fill:#1f77b4;stroke:#1f77b4;" x="150.364726" xlink:href="#m9e5d74e3f3" y="257.148019"/>
     <use style="fill:#1f77b4;stroke:#1f77b4;" x="254.545094" xlink:href="#m9e5d74e3f3" y="204.503615"/>
     <use style="fill:#1f77b4;stroke:#1f77b4;" x="155.406596" xlink:href="#m9e5d74e3f3" y="242.589146"/>
     <use style="fill:#1f77b4;stroke:#1f77b4;" x="73.832727" xlink:href="#m9e5d74e3f3" y="295.488"/>
     <use style="fill:#1f77b4;stroke:#1f77b4;" x="239.335301" xlink:href="#m9e5d74e3f3" y="229.845743"/>
     <use style="fill:#1f77b4;stroke:#1f77b4;" x="120.312172" xlink:href="#m9e5d74e3f3" y="261.847398"/>
     <use style="fill:#1f77b4;stroke:#1f77b4;" x="315.108211" xlink:href="#m9e5d74e3f3" y="72.23391"/>
     <use style="fill:#1f77b4;stroke:#1f77b4;" x="309.577888" xlink:href="#m9e5d74e3f3" y="74.154191"/>
     <use style="fill:#1f77b4;stroke:#1f77b4;" x="186.730881" xlink:href="#m9e5d74e3f3" y="236.961639"/>
     <use style="fill:#1f77b4;stroke:#1f77b4;" x="182.314243" xlink:href="#m9e5d74e3f3" y="162.959968"/>
     <use style="fill:#1f77b4;stroke:#1f77b4;" x="237.933356" xlink:href="#m9e5d74e3f3" y="199.328753"/>
     <use style="fill:#1f77b4;stroke:#1f77b4;" x="170.221254" xlink:href="#m9e5d74e3f3" y="282.145941"/>
     <use style="fill:#1f77b4;stroke:#1f77b4;" x="231.916807" xlink:href="#m9e5d74e3f3" y="197.760598"/>
     <use style="fill:#1f77b4;stroke:#1f77b4;" x="239.335301" xlink:href="#m9e5d74e3f3" y="229.845693"/>
     <use style="fill:#1f77b4;stroke:#1f77b4;" x="73.832727" xlink:href="#m9e5d74e3f3" y="295.488"/>
     <use style="fill:#1f77b4;stroke:#1f77b4;" x="238.618873" xlink:href="#m9e5d74e3f3" y="199.306534"/>
     <use style="fill:#1f77b4;stroke:#1f77b4;" x="392.469559" xlink:href="#m9e5d74e3f3" y="144.120333"/>
     <use style="fill:#1f77b4;stroke:#1f77b4;" x="387.190098" xlink:href="#m9e5d74e3f3" y="146.645163"/>
     <use style="fill:#1f77b4;stroke:#1f77b4;" x="288.204653" xlink:href="#m9e5d74e3f3" y="248.156652"/>
     <use style="fill:#1f77b4;stroke:#1f77b4;" x="279.912891" xlink:href="#m9e5d74e3f3" y="181.441584"/>
     <use style="fill:#1f77b4;stroke:#1f77b4;" x="150.160298" xlink:href="#m9e5d74e3f3" y="272.484334"/>
     <use style="fill:#1f77b4;stroke:#1f77b4;" x="251.782088" xlink:href="#m9e5d74e3f3" y="169.994276"/>
     <use style="fill:#1f77b4;stroke:#1f77b4;" x="148.588403" xlink:href="#m9e5d74e3f3" y="284.082661"/>
     <use style="fill:#1f77b4;stroke:#1f77b4;" x="120.312172" xlink:href="#m9e5d74e3f3" y="261.847396"/>
     <use style="fill:#1f77b4;stroke:#1f77b4;" x="238.618873" xlink:href="#m9e5d74e3f3" y="199.306512"/>
     <use style="fill:#1f77b4;stroke:#1f77b4;" x="73.832727" xlink:href="#m9e5d74e3f3" y="295.488"/>
     <use style="fill:#1f77b4;stroke:#1f77b4;" x="332.187585" xlink:href="#m9e5d74e3f3" y="53.568033"/>
     <use style="fill:#1f77b4;stroke:#1f77b4;" x="326.828802" xlink:href="#m9e5d74e3f3" y="54.848014"/>
     <use style="fill:#1f77b4;stroke:#1f77b4;" x="192.482027" xlink:href="#m9e5d74e3f3" y="238.761411"/>
     <use style="fill:#1f77b4;stroke:#1f77b4;" x="183.229018" xlink:href="#m9e5d74e3f3" y="183.693117"/>
     <use style="fill:#1f77b4;stroke:#1f77b4;" x="346.468416" xlink:href="#m9e5d74e3f3" y="61.569967"/>
     <use style="fill:#1f77b4;stroke:#1f77b4;" x="398.487273" xlink:href="#m9e5d74e3f3" y="132.52663"/>
     <use style="fill:#1f77b4;stroke:#1f77b4;" x="360.986787" xlink:href="#m9e5d74e3f3" y="53.826552"/>
     <use style="fill:#1f77b4;stroke:#1f77b4;" x="315.108211" xlink:href="#m9e5d74e3f3" y="72.233897"/>
     <use style="fill:#1f77b4;stroke:#1f77b4;" x="392.469559" xlink:href="#m9e5d74e3f3" y="144.120349"/>
     <use style="fill:#1f77b4;stroke:#1f77b4;" x="332.187585" xlink:href="#m9e5d74e3f3" y="53.568"/>
     <use style="fill:#1f77b4;stroke:#1f77b4;" x="73.832727" xlink:href="#m9e5d74e3f3" y="295.488"/>
     <use style="fill:#1f77b4;stroke:#1f77b4;" x="93.966602" xlink:href="#m9e5d74e3f3" y="293.718561"/>
     <use style="fill:#1f77b4;stroke:#1f77b4;" x="255.631069" xlink:href="#m9e5d74e3f3" y="154.248989"/>
     <use style="fill:#1f77b4;stroke:#1f77b4;" x="259.971548" xlink:href="#m9e5d74e3f3" y="156.0426"/>
     <use style="fill:#1f77b4;stroke:#1f77b4;" x="342.002476" xlink:href="#m9e5d74e3f3" y="61.739725"/>
     <use style="fill:#1f77b4;stroke:#1f77b4;" x="393.756082" xlink:href="#m9e5d74e3f3" y="136.789413"/>
     <use style="fill:#1f77b4;stroke:#1f77b4;" x="355.800427" xlink:href="#m9e5d74e3f3" y="58.89964"/>
     <use style="fill:#1f77b4;stroke:#1f77b4;" x="309.577888" xlink:href="#m9e5d74e3f3" y="74.154193"/>
     <use style="fill:#1f77b4;stroke:#1f77b4;" x="387.190098" xlink:href="#m9e5d74e3f3" y="146.645176"/>
     <use style="fill:#1f77b4;stroke:#1f77b4;" x="326.828802" xlink:href="#m9e5d74e3f3" y="54.847997"/>
     <use style="fill:#1f77b4;stroke:#1f77b4;" x="93.966602" xlink:href="#m9e5d74e3f3" y="293.718562"/>
     <use style="fill:#1f77b4;stroke:#1f77b4;" x="73.832727" xlink:href="#m9e5d74e3f3" y="295.488"/>
     <use style="fill:#1f77b4;stroke:#1f77b4;" x="252.762031" xlink:href="#m9e5d74e3f3" y="150.314849"/>
     <use style="fill:#1f77b4;stroke:#1f77b4;" x="256.38963" xlink:href="#m9e5d74e3f3" y="159.299173"/>
     <use style="fill:#1f77b4;stroke:#1f77b4;" x="209.884499" xlink:href="#m9e5d74e3f3" y="235.011152"/>
     <use style="fill:#1f77b4;stroke:#1f77b4;" x="291.22248" xlink:href="#m9e5d74e3f3" y="233.515246"/>
     <use style="fill:#1f77b4;stroke:#1f77b4;" x="223.543422" xlink:href="#m9e5d74e3f3" y="230.67624"/>
     <use style="fill:#1f77b4;stroke:#1f77b4;" x="186.730881" xlink:href="#m9e5d74e3f3" y="236.961647"/>
     <use style="fill:#1f77b4;stroke:#1f77b4;" x="288.204653" xlink:href="#m9e5d74e3f3" y="248.156652"/>
     <use style="fill:#1f77b4;stroke:#1f77b4;" x="192.482027" xlink:href="#m9e5d74e3f3" y="238.761389"/>
     <use style="fill:#1f77b4;stroke:#1f77b4;" x="255.631069" xlink:href="#m9e5d74e3f3" y="154.248994"/>
     <use style="fill:#1f77b4;stroke:#1f77b4;" x="252.762031" xlink:href="#m9e5d74e3f3" y="150.314794"/>
     <use style="fill:#1f77b4;stroke:#1f77b4;" x="73.832727" xlink:href="#m9e5d74e3f3" y="295.488"/>
     <use style="fill:#1f77b4;stroke:#1f77b4;" x="124.282733" xlink:href="#m9e5d74e3f3" y="193.502806"/>
     <use style="fill:#1f77b4;stroke:#1f77b4;" x="198.62904" xlink:href="#m9e5d74e3f3" y="154.076245"/>
     <use style="fill:#1f77b4;stroke:#1f77b4;" x="283.554026" xlink:href="#m9e5d74e3f3" y="167.573147"/>
     <use style="fill:#1f77b4;stroke:#1f77b4;" x="213.841584" xlink:href="#m9e5d74e3f3" y="195.260685"/>
     <use style="fill:#1f77b4;stroke:#1f77b4;" x="182.314243" xlink:href="#m9e5d74e3f3" y="162.960037"/>
     <use style="fill:#1f77b4;stroke:#1f77b4;" x="279.912891" xlink:href="#m9e5d74e3f3" y="181.441623"/>
     <use style="fill:#1f77b4;stroke:#1f77b4;" x="183.229018" xlink:href="#m9e5d74e3f3" y="183.693164"/>
     <use style="fill:#1f77b4;stroke:#1f77b4;" x="259.971548" xlink:href="#m9e5d74e3f3" y="156.042593"/>
     <use style="fill:#1f77b4;stroke:#1f77b4;" x="256.38963" xlink:href="#m9e5d74e3f3" y="159.299171"/>
     <use style="fill:#1f77b4;stroke:#1f77b4;" x="124.282733" xlink:href="#m9e5d74e3f3" y="193.502818"/>
     <use style="fill:#1f77b4;stroke:#1f77b4;" x="73.832727" xlink:href="#m9e5d74e3f3" y="295.488"/>
    </g>
   </g>
   <g id="line2d_13">
    <path clip-path="url(#p80fd04b00b)" d="M 73.832727 295.488 
L 73.832727 295.488 
L 73.832727 295.488 
L 73.832727 295.488 
L 73.832727 295.488 
L 73.832727 295.488 
L 73.832727 295.488 
L 73.832727 295.488 
L 73.832727 295.488 
L 73.832727 295.488 
L 93.966602 281.97546 
L 93.966602 281.97546 
L 105.012634 274.562086 
L 105.012634 274.562086 
L 120.312172 264.294038 
L 120.312172 264.294038 
L 124.282733 261.629257 
L 124.282733 261.629257 
L 148.588403 245.316882 
L 148.588403 245.316882 
L 150.160298 244.261928 
L 150.160298 244.261928 
L 150.364726 244.12473 
L 150.364726 244.12473 
L 155.406596 240.740957 
L 155.406596 240.740957 
L 170.221254 230.798327 
L 170.221254 230.798327 
L 182.314243 222.682304 
L 182.314243 222.682304 
L 183.229018 222.068367 
L 183.229018 222.068367 
L 186.730881 219.718146 
L 186.730881 219.718146 
L 192.482027 215.858353 
L 192.482027 215.858353 
L 198.62904 211.73288 
L 198.62904 211.73288 
L 209.884499 204.178953 
L 209.884499 204.178953 
L 213.841584 201.523216 
L 213.841584 201.523216 
L 223.543422 195.011977 
L 223.543422 195.011977 
L 231.916807 189.392309 
L 231.916807 189.392309 
L 237.550247 185.611512 
L 237.550247 185.611512 
L 237.933356 185.354395 
L 237.933356 185.354395 
L 238.618873 184.894321 
L 238.618873 184.894321 
L 239.335301 184.413501 
L 239.335301 184.413501 
L 241.098637 183.230065 
L 241.098637 183.230065 
L 251.782088 176.060032 
L 251.782088 176.060032 
L 252.762031 175.402359 
L 252.762031 175.402359 
L 254.545094 174.205683 
L 254.545094 174.205683 
L 255.631069 173.476848 
L 255.631069 173.476848 
L 256.38963 172.967751 
L 256.38963 172.967751 
L 259.971548 170.563802 
L 259.971548 170.563802 
L 279.912891 157.180478 
L 279.912891 157.180478 
L 283.554026 154.736786 
L 283.554026 154.736786 
L 288.204653 151.61559 
L 288.204653 151.61559 
L 291.22248 149.590222 
L 291.22248 149.590222 
L 309.577888 137.271273 
L 309.577888 137.271273 
L 315.108211 133.559681 
L 315.108211 133.559681 
L 326.828802 125.693588 
L 326.828802 125.693588 
L 332.187585 122.097123 
L 332.187585 122.097123 
L 342.002476 115.510011 
L 342.002476 115.510011 
L 346.468416 112.512764 
L 346.468416 112.512764 
L 355.800427 106.249729 
L 355.800427 106.249729 
L 360.986787 102.768983 
L 360.986787 102.768983 
L 387.190098 85.183036 
L 387.190098 85.183036 
L 392.469559 81.639806 
L 392.469559 81.639806 
L 393.756082 80.776377 
L 393.756082 80.776377 
L 398.487273 77.601111 
L 398.487273 77.601111 
" style="fill:none;stroke:#000000;stroke-linecap:square;stroke-width:1.5;"/>
   </g>
   <g id="patch_3">
    <path d="M 57.6 307.584 
L 57.6 41.472 
" style="fill:none;stroke:#000000;stroke-linecap:square;stroke-linejoin:miter;stroke-width:0.8;"/>
   </g>
   <g id="patch_4">
    <path d="M 414.72 307.584 
L 414.72 41.472 
" style="fill:none;stroke:#000000;stroke-linecap:square;stroke-linejoin:miter;stroke-width:0.8;"/>
   </g>
   <g id="patch_5">
    <path d="M 57.6 307.584 
L 414.72 307.584 
" style="fill:none;stroke:#000000;stroke-linecap:square;stroke-linejoin:miter;stroke-width:0.8;"/>
   </g>
   <g id="patch_6">
    <path d="M 57.6 41.472 
L 414.72 41.472 
" style="fill:none;stroke:#000000;stroke-linecap:square;stroke-linejoin:miter;stroke-width:0.8;"/>
   </g>
   <g id="text_14">
    <!-- R^2 = 0.69 -->
    <defs>
     <path d="M 44.390625 34.1875 
Q 47.5625 33.109375 50.5625 29.59375 
Q 53.5625 26.078125 56.59375 19.921875 
L 66.609375 0 
L 56 0 
L 46.6875 18.703125 
Q 43.0625 26.03125 39.671875 28.421875 
Q 36.28125 30.8125 30.421875 30.8125 
L 19.671875 30.8125 
L 19.671875 0 
L 9.8125 0 
L 9.8125 72.90625 
L 32.078125 72.90625 
Q 44.578125 72.90625 50.734375 67.671875 
Q 56.890625 62.453125 56.890625 51.90625 
Q 56.890625 45.015625 53.6875 40.46875 
Q 50.484375 35.9375 44.390625 34.1875 
z
M 19.671875 64.796875 
L 19.671875 38.921875 
L 32.078125 38.921875 
Q 39.203125 38.921875 42.84375 42.21875 
Q 46.484375 45.515625 46.484375 51.90625 
Q 46.484375 58.296875 42.84375 61.546875 
Q 39.203125 64.796875 32.078125 64.796875 
z
" id="DejaVuSans-52"/>
     <path d="M 46.6875 72.90625 
L 73.1875 45.703125 
L 63.375 45.703125 
L 41.890625 64.984375 
L 20.40625 45.703125 
L 10.59375 45.703125 
L 37.109375 72.90625 
z
" id="DejaVuSans-5e"/>
     <path d="M 10.59375 45.40625 
L 73.1875 45.40625 
L 73.1875 37.203125 
L 10.59375 37.203125 
z
M 10.59375 25.484375 
L 73.1875 25.484375 
L 73.1875 17.1875 
L 10.59375 17.1875 
z
" id="DejaVuSans-3d"/>
     <path d="M 10.984375 1.515625 
L 10.984375 10.5 
Q 14.703125 8.734375 18.5 7.8125 
Q 22.3125 6.890625 25.984375 6.890625 
Q 35.75 6.890625 40.890625 13.453125 
Q 46.046875 20.015625 46.78125 33.40625 
Q 43.953125 29.203125 39.59375 26.953125 
Q 35.25 24.703125 29.984375 24.703125 
Q 19.046875 24.703125 12.671875 31.3125 
Q 6.296875 37.9375 6.296875 49.421875 
Q 6.296875 60.640625 12.9375 67.421875 
Q 19.578125 74.21875 30.609375 74.21875 
Q 43.265625 74.21875 49.921875 64.515625 
Q 56.59375 54.828125 56.59375 36.375 
Q 56.59375 19.140625 48.40625 8.859375 
Q 40.234375 -1.421875 26.421875 -1.421875 
Q 22.703125 -1.421875 18.890625 -0.6875 
Q 15.09375 0.046875 10.984375 1.515625 
z
M 30.609375 32.421875 
Q 37.25 32.421875 41.125 36.953125 
Q 45.015625 41.5 45.015625 49.421875 
Q 45.015625 57.28125 41.125 61.84375 
Q 37.25 66.40625 30.609375 66.40625 
Q 23.96875 66.40625 20.09375 61.84375 
Q 16.21875 57.28125 16.21875 49.421875 
Q 16.21875 41.5 20.09375 36.953125 
Q 23.96875 32.421875 30.609375 32.421875 
z
" id="DejaVuSans-39"/>
    </defs>
    <g transform="translate(268.625455 271.296)scale(0.16 -0.16)">
     <use xlink:href="#DejaVuSans-52"/>
     <use x="69.482422" xlink:href="#DejaVuSans-5e"/>
     <use x="153.271484" xlink:href="#DejaVuSans-32"/>
     <use x="216.894531" xlink:href="#DejaVuSans-20"/>
     <use x="248.681641" xlink:href="#DejaVuSans-3d"/>
     <use x="332.470703" xlink:href="#DejaVuSans-20"/>
     <use x="364.257812" xlink:href="#DejaVuSans-30"/>
     <use x="427.880859" xlink:href="#DejaVuSans-2e"/>
     <use x="459.667969" xlink:href="#DejaVuSans-36"/>
     <use x="523.291016" xlink:href="#DejaVuSans-39"/>
    </g>
   </g>
   <g id="text_15">
    <!-- crystals/highd_inputs/no_noise_4/softplus/no_reg_pref_tuned_model_0 -->
    <defs>
     <path d="M 48.78125 52.59375 
L 48.78125 44.1875 
Q 44.96875 46.296875 41.140625 47.34375 
Q 37.3125 48.390625 33.40625 48.390625 
Q 24.65625 48.390625 19.8125 42.84375 
Q 14.984375 37.3125 14.984375 27.296875 
Q 14.984375 17.28125 19.8125 11.734375 
Q 24.65625 6.203125 33.40625 6.203125 
Q 37.3125 6.203125 41.140625 7.25 
Q 44.96875 8.296875 48.78125 10.40625 
L 48.78125 2.09375 
Q 45.015625 0.34375 40.984375 -0.53125 
Q 36.96875 -1.421875 32.421875 -1.421875 
Q 20.0625 -1.421875 12.78125 6.34375 
Q 5.515625 14.109375 5.515625 27.296875 
Q 5.515625 40.671875 12.859375 48.328125 
Q 20.21875 56 33.015625 56 
Q 37.15625 56 41.109375 55.140625 
Q 45.0625 54.296875 48.78125 52.59375 
z
" id="DejaVuSans-63"/>
     <path d="M 9.421875 75.984375 
L 18.40625 75.984375 
L 18.40625 0 
L 9.421875 0 
z
" id="DejaVuSans-6c"/>
     <path d="M 25.390625 72.90625 
L 33.6875 72.90625 
L 8.296875 -9.28125 
L 0 -9.28125 
z
" id="DejaVuSans-2f"/>
     <path d="M 54.890625 33.015625 
L 54.890625 0 
L 45.90625 0 
L 45.90625 32.71875 
Q 45.90625 40.484375 42.875 44.328125 
Q 39.84375 48.1875 33.796875 48.1875 
Q 26.515625 48.1875 22.3125 43.546875 
Q 18.109375 38.921875 18.109375 30.90625 
L 18.109375 0 
L 9.078125 0 
L 9.078125 75.984375 
L 18.109375 75.984375 
L 18.109375 46.1875 
Q 21.34375 51.125 25.703125 53.5625 
Q 30.078125 56 35.796875 56 
Q 45.21875 56 50.046875 50.171875 
Q 54.890625 44.34375 54.890625 33.015625 
z
" id="DejaVuSans-68"/>
     <path d="M 45.40625 27.984375 
Q 45.40625 37.75 41.375 43.109375 
Q 37.359375 48.484375 30.078125 48.484375 
Q 22.859375 48.484375 18.828125 43.109375 
Q 14.796875 37.75 14.796875 27.984375 
Q 14.796875 18.265625 18.828125 12.890625 
Q 22.859375 7.515625 30.078125 7.515625 
Q 37.359375 7.515625 41.375 12.890625 
Q 45.40625 18.265625 45.40625 27.984375 
z
M 54.390625 6.78125 
Q 54.390625 -7.171875 48.1875 -13.984375 
Q 42 -20.796875 29.203125 -20.796875 
Q 24.46875 -20.796875 20.265625 -20.09375 
Q 16.0625 -19.390625 12.109375 -17.921875 
L 12.109375 -9.1875 
Q 16.0625 -11.328125 19.921875 -12.34375 
Q 23.78125 -13.375 27.78125 -13.375 
Q 36.625 -13.375 41.015625 -8.765625 
Q 45.40625 -4.15625 45.40625 5.171875 
L 45.40625 9.625 
Q 42.625 4.78125 38.28125 2.390625 
Q 33.9375 0 27.875 0 
Q 17.828125 0 11.671875 7.65625 
Q 5.515625 15.328125 5.515625 27.984375 
Q 5.515625 40.671875 11.671875 48.328125 
Q 17.828125 56 27.875 56 
Q 33.9375 56 38.28125 53.609375 
Q 42.625 51.21875 45.40625 46.390625 
L 45.40625 54.6875 
L 54.390625 54.6875 
z
" id="DejaVuSans-67"/>
     <path d="M 50.984375 -16.609375 
L 50.984375 -23.578125 
L -0.984375 -23.578125 
L -0.984375 -16.609375 
z
" id="DejaVuSans-5f"/>
     <path d="M 54.890625 33.015625 
L 54.890625 0 
L 45.90625 0 
L 45.90625 32.71875 
Q 45.90625 40.484375 42.875 44.328125 
Q 39.84375 48.1875 33.796875 48.1875 
Q 26.515625 48.1875 22.3125 43.546875 
Q 18.109375 38.921875 18.109375 30.90625 
L 18.109375 0 
L 9.078125 0 
L 9.078125 54.6875 
L 18.109375 54.6875 
L 18.109375 46.1875 
Q 21.34375 51.125 25.703125 53.5625 
Q 30.078125 56 35.796875 56 
Q 45.21875 56 50.046875 50.171875 
Q 54.890625 44.34375 54.890625 33.015625 
z
" id="DejaVuSans-6e"/>
     <path d="M 8.5 21.578125 
L 8.5 54.6875 
L 17.484375 54.6875 
L 17.484375 21.921875 
Q 17.484375 14.15625 20.5 10.265625 
Q 23.53125 6.390625 29.59375 6.390625 
Q 36.859375 6.390625 41.078125 11.03125 
Q 45.3125 15.671875 45.3125 23.6875 
L 45.3125 54.6875 
L 54.296875 54.6875 
L 54.296875 0 
L 45.3125 0 
L 45.3125 8.40625 
Q 42.046875 3.421875 37.71875 1 
Q 33.40625 -1.421875 27.6875 -1.421875 
Q 18.265625 -1.421875 13.375 4.4375 
Q 8.5 10.296875 8.5 21.578125 
z
M 31.109375 56 
z
" id="DejaVuSans-75"/>
     <path d="M 30.609375 48.390625 
Q 23.390625 48.390625 19.1875 42.75 
Q 14.984375 37.109375 14.984375 27.296875 
Q 14.984375 17.484375 19.15625 11.84375 
Q 23.34375 6.203125 30.609375 6.203125 
Q 37.796875 6.203125 41.984375 11.859375 
Q 46.1875 17.53125 46.1875 27.296875 
Q 46.1875 37.015625 41.984375 42.703125 
Q 37.796875 48.390625 30.609375 48.390625 
z
M 30.609375 56 
Q 42.328125 56 49.015625 48.375 
Q 55.71875 40.765625 55.71875 27.296875 
Q 55.71875 13.875 49.015625 6.21875 
Q 42.328125 -1.421875 30.609375 -1.421875 
Q 18.84375 -1.421875 12.171875 6.21875 
Q 5.515625 13.875 5.515625 27.296875 
Q 5.515625 40.765625 12.171875 48.375 
Q 18.84375 56 30.609375 56 
z
" id="DejaVuSans-6f"/>
     <path d="M 56.203125 29.59375 
L 56.203125 25.203125 
L 14.890625 25.203125 
Q 15.484375 15.921875 20.484375 11.0625 
Q 25.484375 6.203125 34.421875 6.203125 
Q 39.59375 6.203125 44.453125 7.46875 
Q 49.3125 8.734375 54.109375 11.28125 
L 54.109375 2.78125 
Q 49.265625 0.734375 44.1875 -0.34375 
Q 39.109375 -1.421875 33.890625 -1.421875 
Q 20.796875 -1.421875 13.15625 6.1875 
Q 5.515625 13.8125 5.515625 26.8125 
Q 5.515625 40.234375 12.765625 48.109375 
Q 20.015625 56 32.328125 56 
Q 43.359375 56 49.78125 48.890625 
Q 56.203125 41.796875 56.203125 29.59375 
z
M 47.21875 32.234375 
Q 47.125 39.59375 43.09375 43.984375 
Q 39.0625 48.390625 32.421875 48.390625 
Q 24.90625 48.390625 20.390625 44.140625 
Q 15.875 39.890625 15.1875 32.171875 
z
" id="DejaVuSans-65"/>
    </defs>
    <g transform="translate(-101.7405 35.472)scale(0.192 -0.192)">
     <use xlink:href="#DejaVuSans-63"/>
     <use x="54.980469" xlink:href="#DejaVuSans-72"/>
     <use x="96.09375" xlink:href="#DejaVuSans-79"/>
     <use x="155.273438" xlink:href="#DejaVuSans-73"/>
     <use x="207.373047" xlink:href="#DejaVuSans-74"/>
     <use x="246.582031" xlink:href="#DejaVuSans-61"/>
     <use x="307.861328" xlink:href="#DejaVuSans-6c"/>
     <use x="335.644531" xlink:href="#DejaVuSans-73"/>
     <use x="387.744141" xlink:href="#DejaVuSans-2f"/>
     <use x="421.435547" xlink:href="#DejaVuSans-68"/>
     <use x="484.814453" xlink:href="#DejaVuSans-69"/>
     <use x="512.597656" xlink:href="#DejaVuSans-67"/>
     <use x="576.074219" xlink:href="#DejaVuSans-68"/>
     <use x="639.453125" xlink:href="#DejaVuSans-64"/>
     <use x="702.929688" xlink:href="#DejaVuSans-5f"/>
     <use x="752.929688" xlink:href="#DejaVuSans-69"/>
     <use x="780.712891" xlink:href="#DejaVuSans-6e"/>
     <use x="844.091797" xlink:href="#DejaVuSans-70"/>
     <use x="907.568359" xlink:href="#DejaVuSans-75"/>
     <use x="970.947266" xlink:href="#DejaVuSans-74"/>
     <use x="1010.15625" xlink:href="#DejaVuSans-73"/>
     <use x="1062.255859" xlink:href="#DejaVuSans-2f"/>
     <use x="1095.947266" xlink:href="#DejaVuSans-6e"/>
     <use x="1159.326172" xlink:href="#DejaVuSans-6f"/>
     <use x="1220.507812" xlink:href="#DejaVuSans-5f"/>
     <use x="1270.507812" xlink:href="#DejaVuSans-6e"/>
     <use x="1333.886719" xlink:href="#DejaVuSans-6f"/>
     <use x="1395.068359" xlink:href="#DejaVuSans-69"/>
     <use x="1422.851562" xlink:href="#DejaVuSans-73"/>
     <use x="1474.951172" xlink:href="#DejaVuSans-65"/>
     <use x="1536.474609" xlink:href="#DejaVuSans-5f"/>
     <use x="1586.474609" xlink:href="#DejaVuSans-34"/>
     <use x="1650.097656" xlink:href="#DejaVuSans-2f"/>
     <use x="1683.789062" xlink:href="#DejaVuSans-73"/>
     <use x="1735.888672" xlink:href="#DejaVuSans-6f"/>
     <use x="1797.070312" xlink:href="#DejaVuSans-66"/>
     <use x="1832.259766" xlink:href="#DejaVuSans-74"/>
     <use x="1871.46875" xlink:href="#DejaVuSans-70"/>
     <use x="1934.945312" xlink:href="#DejaVuSans-6c"/>
     <use x="1962.728516" xlink:href="#DejaVuSans-75"/>
     <use x="2026.107422" xlink:href="#DejaVuSans-73"/>
     <use x="2078.207031" xlink:href="#DejaVuSans-2f"/>
     <use x="2111.898438" xlink:href="#DejaVuSans-6e"/>
     <use x="2175.277344" xlink:href="#DejaVuSans-6f"/>
     <use x="2236.458984" xlink:href="#DejaVuSans-5f"/>
     <use x="2286.458984" xlink:href="#DejaVuSans-72"/>
     <use x="2327.541016" xlink:href="#DejaVuSans-65"/>
     <use x="2389.064453" xlink:href="#DejaVuSans-67"/>
     <use x="2452.541016" xlink:href="#DejaVuSans-5f"/>
     <use x="2502.541016" xlink:href="#DejaVuSans-70"/>
     <use x="2566.017578" xlink:href="#DejaVuSans-72"/>
     <use x="2607.099609" xlink:href="#DejaVuSans-65"/>
     <use x="2668.623047" xlink:href="#DejaVuSans-66"/>
     <use x="2703.828125" xlink:href="#DejaVuSans-5f"/>
     <use x="2753.828125" xlink:href="#DejaVuSans-74"/>
     <use x="2793.037109" xlink:href="#DejaVuSans-75"/>
     <use x="2856.416016" xlink:href="#DejaVuSans-6e"/>
     <use x="2919.794922" xlink:href="#DejaVuSans-65"/>
     <use x="2981.318359" xlink:href="#DejaVuSans-64"/>
     <use x="3044.794922" xlink:href="#DejaVuSans-5f"/>
     <use x="3094.794922" xlink:href="#DejaVuSans-6d"/>
     <use x="3192.207031" xlink:href="#DejaVuSans-6f"/>
     <use x="3253.388672" xlink:href="#DejaVuSans-64"/>
     <use x="3316.865234" xlink:href="#DejaVuSans-65"/>
     <use x="3378.388672" xlink:href="#DejaVuSans-6c"/>
     <use x="3406.171875" xlink:href="#DejaVuSans-5f"/>
     <use x="3456.171875" xlink:href="#DejaVuSans-30"/>
    </g>
   </g>
  </g>
 </g>
 <defs>
  <clipPath id="p80fd04b00b">
   <rect height="266.112" width="357.12" x="57.6" y="41.472"/>
  </clipPath>
 </defs>
</svg>
