<?xml version="1.0" encoding="utf-8" standalone="no"?>
<!DOCTYPE svg PUBLIC "-//W3C//DTD SVG 1.1//EN"
  "http://www.w3.org/Graphics/SVG/1.1/DTD/svg11.dtd">
<!-- Created with matplotlib (http://matplotlib.org/) -->
<svg height="288pt" version="1.1" viewBox="0 0 432 288" width="432pt" xmlns="http://www.w3.org/2000/svg" xmlns:xlink="http://www.w3.org/1999/xlink">
 <defs>
  <style type="text/css">
*{stroke-linecap:butt;stroke-linejoin:round;}
  </style>
 </defs>
 <g id="figure_1">
  <g id="patch_1">
   <path d="M 0 288 
L 432 288 
L 432 0 
L 0 0 
z
" style="fill:#ffffff;"/>
  </g>
  <g id="axes_1">
   <g id="patch_2">
    <path d="M 54 252 
L 388.8 252 
L 388.8 34.56 
L 54 34.56 
z
" style="fill:#ffffff;"/>
   </g>
   <g id="matplotlib.axis_1">
    <g id="xtick_1">
     <g id="line2d_1">
      <defs>
       <path d="M 0 0 
L 0 3.5 
" id="m1b9e9680ae" style="stroke:#000000;stroke-width:0.8;"/>
      </defs>
      <g>
       <use style="stroke:#000000;stroke-width:0.8;" x="69.218182" xlink:href="#m1b9e9680ae" y="252"/>
      </g>
     </g>
     <g id="text_1">
      <!-- 0 -->
      <defs>
       <path d="M 31.78125 66.40625 
Q 24.171875 66.40625 20.328125 58.90625 
Q 16.5 51.421875 16.5 36.375 
Q 16.5 21.390625 20.328125 13.890625 
Q 24.171875 6.390625 31.78125 6.390625 
Q 39.453125 6.390625 43.28125 13.890625 
Q 47.125 21.390625 47.125 36.375 
Q 47.125 51.421875 43.28125 58.90625 
Q 39.453125 66.40625 31.78125 66.40625 
z
M 31.78125 74.21875 
Q 44.046875 74.21875 50.515625 64.515625 
Q 56.984375 54.828125 56.984375 36.375 
Q 56.984375 17.96875 50.515625 8.265625 
Q 44.046875 -1.421875 31.78125 -1.421875 
Q 19.53125 -1.421875 13.0625 8.265625 
Q 6.59375 17.96875 6.59375 36.375 
Q 6.59375 54.828125 13.0625 64.515625 
Q 19.53125 74.21875 31.78125 74.21875 
z
" id="DejaVuSans-30"/>
      </defs>
      <g transform="translate(66.036932 266.598437)scale(0.1 -0.1)">
       <use xlink:href="#DejaVuSans-30"/>
      </g>
     </g>
    </g>
    <g id="xtick_2">
     <g id="line2d_2">
      <g>
       <use style="stroke:#000000;stroke-width:0.8;" x="112.948589" xlink:href="#m1b9e9680ae" y="252"/>
      </g>
     </g>
     <g id="text_2">
      <!-- 25 -->
      <defs>
       <path d="M 19.1875 8.296875 
L 53.609375 8.296875 
L 53.609375 0 
L 7.328125 0 
L 7.328125 8.296875 
Q 12.9375 14.109375 22.625 23.890625 
Q 32.328125 33.6875 34.8125 36.53125 
Q 39.546875 41.84375 41.421875 45.53125 
Q 43.3125 49.21875 43.3125 52.78125 
Q 43.3125 58.59375 39.234375 62.25 
Q 35.15625 65.921875 28.609375 65.921875 
Q 23.96875 65.921875 18.8125 64.3125 
Q 13.671875 62.703125 7.8125 59.421875 
L 7.8125 69.390625 
Q 13.765625 71.78125 18.9375 73 
Q 24.125 74.21875 28.421875 74.21875 
Q 39.75 74.21875 46.484375 68.546875 
Q 53.21875 62.890625 53.21875 53.421875 
Q 53.21875 48.921875 51.53125 44.890625 
Q 49.859375 40.875 45.40625 35.40625 
Q 44.1875 33.984375 37.640625 27.21875 
Q 31.109375 20.453125 19.1875 8.296875 
z
" id="DejaVuSans-32"/>
       <path d="M 10.796875 72.90625 
L 49.515625 72.90625 
L 49.515625 64.59375 
L 19.828125 64.59375 
L 19.828125 46.734375 
Q 21.96875 47.46875 24.109375 47.828125 
Q 26.265625 48.1875 28.421875 48.1875 
Q 40.625 48.1875 47.75 41.5 
Q 54.890625 34.8125 54.890625 23.390625 
Q 54.890625 11.625 47.5625 5.09375 
Q 40.234375 -1.421875 26.90625 -1.421875 
Q 22.3125 -1.421875 17.546875 -0.640625 
Q 12.796875 0.140625 7.71875 1.703125 
L 7.71875 11.625 
Q 12.109375 9.234375 16.796875 8.0625 
Q 21.484375 6.890625 26.703125 6.890625 
Q 35.15625 6.890625 40.078125 11.328125 
Q 45.015625 15.765625 45.015625 23.390625 
Q 45.015625 31 40.078125 35.4375 
Q 35.15625 39.890625 26.703125 39.890625 
Q 22.75 39.890625 18.8125 39.015625 
Q 14.890625 38.140625 10.796875 36.28125 
z
" id="DejaVuSans-35"/>
      </defs>
      <g transform="translate(106.586089 266.598437)scale(0.1 -0.1)">
       <use xlink:href="#DejaVuSans-32"/>
       <use x="63.623047" xlink:href="#DejaVuSans-35"/>
      </g>
     </g>
    </g>
    <g id="xtick_3">
     <g id="line2d_3">
      <g>
       <use style="stroke:#000000;stroke-width:0.8;" x="156.678997" xlink:href="#m1b9e9680ae" y="252"/>
      </g>
     </g>
     <g id="text_3">
      <!-- 50 -->
      <g transform="translate(150.316497 266.598437)scale(0.1 -0.1)">
       <use xlink:href="#DejaVuSans-35"/>
       <use x="63.623047" xlink:href="#DejaVuSans-30"/>
      </g>
     </g>
    </g>
    <g id="xtick_4">
     <g id="line2d_4">
      <g>
       <use style="stroke:#000000;stroke-width:0.8;" x="200.409404" xlink:href="#m1b9e9680ae" y="252"/>
      </g>
     </g>
     <g id="text_4">
      <!-- 75 -->
      <defs>
       <path d="M 8.203125 72.90625 
L 55.078125 72.90625 
L 55.078125 68.703125 
L 28.609375 0 
L 18.3125 0 
L 43.21875 64.59375 
L 8.203125 64.59375 
z
" id="DejaVuSans-37"/>
      </defs>
      <g transform="translate(194.046904 266.598437)scale(0.1 -0.1)">
       <use xlink:href="#DejaVuSans-37"/>
       <use x="63.623047" xlink:href="#DejaVuSans-35"/>
      </g>
     </g>
    </g>
    <g id="xtick_5">
     <g id="line2d_5">
      <g>
       <use style="stroke:#000000;stroke-width:0.8;" x="244.139812" xlink:href="#m1b9e9680ae" y="252"/>
      </g>
     </g>
     <g id="text_5">
      <!-- 100 -->
      <defs>
       <path d="M 12.40625 8.296875 
L 28.515625 8.296875 
L 28.515625 63.921875 
L 10.984375 60.40625 
L 10.984375 69.390625 
L 28.421875 72.90625 
L 38.28125 72.90625 
L 38.28125 8.296875 
L 54.390625 8.296875 
L 54.390625 0 
L 12.40625 0 
z
" id="DejaVuSans-31"/>
      </defs>
      <g transform="translate(234.596062 266.598437)scale(0.1 -0.1)">
       <use xlink:href="#DejaVuSans-31"/>
       <use x="63.623047" xlink:href="#DejaVuSans-30"/>
       <use x="127.246094" xlink:href="#DejaVuSans-30"/>
      </g>
     </g>
    </g>
    <g id="xtick_6">
     <g id="line2d_6">
      <g>
       <use style="stroke:#000000;stroke-width:0.8;" x="287.870219" xlink:href="#m1b9e9680ae" y="252"/>
      </g>
     </g>
     <g id="text_6">
      <!-- 125 -->
      <g transform="translate(278.326469 266.598437)scale(0.1 -0.1)">
       <use xlink:href="#DejaVuSans-31"/>
       <use x="63.623047" xlink:href="#DejaVuSans-32"/>
       <use x="127.246094" xlink:href="#DejaVuSans-35"/>
      </g>
     </g>
    </g>
    <g id="xtick_7">
     <g id="line2d_7">
      <g>
       <use style="stroke:#000000;stroke-width:0.8;" x="331.600627" xlink:href="#m1b9e9680ae" y="252"/>
      </g>
     </g>
     <g id="text_7">
      <!-- 150 -->
      <g transform="translate(322.056877 266.598437)scale(0.1 -0.1)">
       <use xlink:href="#DejaVuSans-31"/>
       <use x="63.623047" xlink:href="#DejaVuSans-35"/>
       <use x="127.246094" xlink:href="#DejaVuSans-30"/>
      </g>
     </g>
    </g>
    <g id="xtick_8">
     <g id="line2d_8">
      <g>
       <use style="stroke:#000000;stroke-width:0.8;" x="375.331034" xlink:href="#m1b9e9680ae" y="252"/>
      </g>
     </g>
     <g id="text_8">
      <!-- 175 -->
      <g transform="translate(365.787284 266.598437)scale(0.1 -0.1)">
       <use xlink:href="#DejaVuSans-31"/>
       <use x="63.623047" xlink:href="#DejaVuSans-37"/>
       <use x="127.246094" xlink:href="#DejaVuSans-35"/>
      </g>
     </g>
    </g>
   </g>
   <g id="matplotlib.axis_2">
    <g id="ytick_1">
     <g id="line2d_9">
      <defs>
       <path d="M 0 0 
L -3.5 0 
" id="mafa0815d26" style="stroke:#000000;stroke-width:0.8;"/>
      </defs>
      <g>
       <use style="stroke:#000000;stroke-width:0.8;" x="54" xlink:href="#mafa0815d26" y="242.224262"/>
      </g>
     </g>
     <g id="text_9">
      <!-- 0.0 -->
      <defs>
       <path d="M 10.6875 12.40625 
L 21 12.40625 
L 21 0 
L 10.6875 0 
z
" id="DejaVuSans-2e"/>
      </defs>
      <g transform="translate(31.096875 246.023481)scale(0.1 -0.1)">
       <use xlink:href="#DejaVuSans-30"/>
       <use x="63.623047" xlink:href="#DejaVuSans-2e"/>
       <use x="95.410156" xlink:href="#DejaVuSans-30"/>
      </g>
     </g>
    </g>
    <g id="ytick_2">
     <g id="line2d_10">
      <g>
       <use style="stroke:#000000;stroke-width:0.8;" x="54" xlink:href="#mafa0815d26" y="196.786035"/>
      </g>
     </g>
     <g id="text_10">
      <!-- 0.2 -->
      <g transform="translate(31.096875 200.585253)scale(0.1 -0.1)">
       <use xlink:href="#DejaVuSans-30"/>
       <use x="63.623047" xlink:href="#DejaVuSans-2e"/>
       <use x="95.410156" xlink:href="#DejaVuSans-32"/>
      </g>
     </g>
    </g>
    <g id="ytick_3">
     <g id="line2d_11">
      <g>
       <use style="stroke:#000000;stroke-width:0.8;" x="54" xlink:href="#mafa0815d26" y="151.347808"/>
      </g>
     </g>
     <g id="text_11">
      <!-- 0.4 -->
      <defs>
       <path d="M 37.796875 64.3125 
L 12.890625 25.390625 
L 37.796875 25.390625 
z
M 35.203125 72.90625 
L 47.609375 72.90625 
L 47.609375 25.390625 
L 58.015625 25.390625 
L 58.015625 17.1875 
L 47.609375 17.1875 
L 47.609375 0 
L 37.796875 0 
L 37.796875 17.1875 
L 4.890625 17.1875 
L 4.890625 26.703125 
z
" id="DejaVuSans-34"/>
      </defs>
      <g transform="translate(31.096875 155.147026)scale(0.1 -0.1)">
       <use xlink:href="#DejaVuSans-30"/>
       <use x="63.623047" xlink:href="#DejaVuSans-2e"/>
       <use x="95.410156" xlink:href="#DejaVuSans-34"/>
      </g>
     </g>
    </g>
    <g id="ytick_4">
     <g id="line2d_12">
      <g>
       <use style="stroke:#000000;stroke-width:0.8;" x="54" xlink:href="#mafa0815d26" y="105.909581"/>
      </g>
     </g>
     <g id="text_12">
      <!-- 0.6 -->
      <defs>
       <path d="M 33.015625 40.375 
Q 26.375 40.375 22.484375 35.828125 
Q 18.609375 31.296875 18.609375 23.390625 
Q 18.609375 15.53125 22.484375 10.953125 
Q 26.375 6.390625 33.015625 6.390625 
Q 39.65625 6.390625 43.53125 10.953125 
Q 47.40625 15.53125 47.40625 23.390625 
Q 47.40625 31.296875 43.53125 35.828125 
Q 39.65625 40.375 33.015625 40.375 
z
M 52.59375 71.296875 
L 52.59375 62.3125 
Q 48.875 64.0625 45.09375 64.984375 
Q 41.3125 65.921875 37.59375 65.921875 
Q 27.828125 65.921875 22.671875 59.328125 
Q 17.53125 52.734375 16.796875 39.40625 
Q 19.671875 43.65625 24.015625 45.921875 
Q 28.375 48.1875 33.59375 48.1875 
Q 44.578125 48.1875 50.953125 41.515625 
Q 57.328125 34.859375 57.328125 23.390625 
Q 57.328125 12.15625 50.6875 5.359375 
Q 44.046875 -1.421875 33.015625 -1.421875 
Q 20.359375 -1.421875 13.671875 8.265625 
Q 6.984375 17.96875 6.984375 36.375 
Q 6.984375 53.65625 15.1875 63.9375 
Q 23.390625 74.21875 37.203125 74.21875 
Q 40.921875 74.21875 44.703125 73.484375 
Q 48.484375 72.75 52.59375 71.296875 
z
" id="DejaVuSans-36"/>
      </defs>
      <g transform="translate(31.096875 109.708799)scale(0.1 -0.1)">
       <use xlink:href="#DejaVuSans-30"/>
       <use x="63.623047" xlink:href="#DejaVuSans-2e"/>
       <use x="95.410156" xlink:href="#DejaVuSans-36"/>
      </g>
     </g>
    </g>
    <g id="ytick_5">
     <g id="line2d_13">
      <g>
       <use style="stroke:#000000;stroke-width:0.8;" x="54" xlink:href="#mafa0815d26" y="60.471354"/>
      </g>
     </g>
     <g id="text_13">
      <!-- 0.8 -->
      <defs>
       <path d="M 31.78125 34.625 
Q 24.75 34.625 20.71875 30.859375 
Q 16.703125 27.09375 16.703125 20.515625 
Q 16.703125 13.921875 20.71875 10.15625 
Q 24.75 6.390625 31.78125 6.390625 
Q 38.8125 6.390625 42.859375 10.171875 
Q 46.921875 13.96875 46.921875 20.515625 
Q 46.921875 27.09375 42.890625 30.859375 
Q 38.875 34.625 31.78125 34.625 
z
M 21.921875 38.8125 
Q 15.578125 40.375 12.03125 44.71875 
Q 8.5 49.078125 8.5 55.328125 
Q 8.5 64.0625 14.71875 69.140625 
Q 20.953125 74.21875 31.78125 74.21875 
Q 42.671875 74.21875 48.875 69.140625 
Q 55.078125 64.0625 55.078125 55.328125 
Q 55.078125 49.078125 51.53125 44.71875 
Q 48 40.375 41.703125 38.8125 
Q 48.828125 37.15625 52.796875 32.3125 
Q 56.78125 27.484375 56.78125 20.515625 
Q 56.78125 9.90625 50.3125 4.234375 
Q 43.84375 -1.421875 31.78125 -1.421875 
Q 19.734375 -1.421875 13.25 4.234375 
Q 6.78125 9.90625 6.78125 20.515625 
Q 6.78125 27.484375 10.78125 32.3125 
Q 14.796875 37.15625 21.921875 38.8125 
z
M 18.3125 54.390625 
Q 18.3125 48.734375 21.84375 45.5625 
Q 25.390625 42.390625 31.78125 42.390625 
Q 38.140625 42.390625 41.71875 45.5625 
Q 45.3125 48.734375 45.3125 54.390625 
Q 45.3125 60.0625 41.71875 63.234375 
Q 38.140625 66.40625 31.78125 66.40625 
Q 25.390625 66.40625 21.84375 63.234375 
Q 18.3125 60.0625 18.3125 54.390625 
z
" id="DejaVuSans-38"/>
      </defs>
      <g transform="translate(31.096875 64.270572)scale(0.1 -0.1)">
       <use xlink:href="#DejaVuSans-30"/>
       <use x="63.623047" xlink:href="#DejaVuSans-2e"/>
       <use x="95.410156" xlink:href="#DejaVuSans-38"/>
      </g>
     </g>
    </g>
   </g>
   <g id="line2d_14">
    <path clip-path="url(#p399ab1972c)" d="M 69.218182 60.465382 
L 72.716614 60.41139 
L 74.465831 60.296982 
L 76.215047 60.031891 
L 79.71348 59.134272 
L 81.462696 58.870672 
L 84.961129 58.756125 
L 104.202508 58.883482 
L 111.199373 58.897782 
L 112.948589 57.998069 
L 116.447022 58.044243 
L 121.694671 58.026323 
L 128.691536 58.28903 
L 137.437618 58.589711 
L 147.932915 58.685681 
L 154.929781 58.670793 
L 156.678997 59.074136 
L 168.923511 58.824577 
L 179.418809 58.612124 
L 191.663323 58.64784 
L 216.152351 58.748098 
L 242.390596 58.713277 
L 244.139812 53.145397 
L 247.638245 52.037815 
L 249.387461 51.834129 
L 251.136677 51.999823 
L 252.885893 52.487581 
L 254.63511 53.206742 
L 259.882759 55.66614 
L 261.631975 56.270801 
L 263.381191 56.719598 
L 266.879624 57.251723 
L 270.378056 57.479569 
L 275.625705 57.545598 
L 284.371787 57.367718 
L 286.121003 57.31471 
L 287.870219 58.292898 
L 291.368652 58.497082 
L 296.616301 58.537452 
L 328.102194 58.327088 
L 329.851411 58.327367 
L 331.600627 53.287291 
L 333.349843 46.66484 
L 335.09906 44.443636 
L 336.848276 48.393092 
L 338.597492 49.186231 
L 340.346708 52.465812 
L 342.095925 54.392305 
L 343.845141 55.222132 
L 345.594357 55.587255 
L 349.09279 55.890405 
L 356.089655 56.174787 
L 366.584953 56.350551 
L 373.581818 56.399268 
L 373.581818 56.399268 
" style="fill:none;stroke:#000000;stroke-linecap:square;stroke-width:1.5;"/>
   </g>
   <g id="line2d_15">
    <path clip-path="url(#p399ab1972c)" d="M 69.218182 241.8689 
L 70.967398 241.554973 
L 72.716614 241.027296 
L 74.465831 240.178719 
L 76.215047 238.955521 
L 77.964263 237.53098 
L 79.71348 236.350221 
L 81.462696 235.698283 
L 83.211912 235.42758 
L 86.710345 235.25983 
L 97.205643 235.161671 
L 111.199373 235.071398 
L 112.948589 234.233672 
L 114.697806 234.253887 
L 126.94232 233.615049 
L 133.939185 233.659948 
L 144.434483 233.75703 
L 154.929781 233.7028 
L 156.678997 234.131465 
L 161.926646 233.705544 
L 167.174295 233.503208 
L 174.17116 233.498718 
L 188.16489 233.843497 
L 202.158621 234.06986 
L 219.650784 234.08292 
L 242.390596 233.989098 
L 244.139812 229.099214 
L 245.889028 228.682493 
L 247.638245 228.056252 
L 249.387461 227.617845 
L 251.136677 227.485789 
L 252.885893 227.664344 
L 254.63511 228.12178 
L 258.133542 229.574865 
L 261.631975 230.988206 
L 263.381191 231.490202 
L 265.130408 231.841767 
L 268.62884 232.175774 
L 272.127273 232.174603 
L 277.374922 231.846323 
L 286.121003 231.022692 
L 287.870219 231.700795 
L 291.368652 230.855955 
L 294.867085 230.311912 
L 298.365517 230.025189 
L 303.613166 229.899294 
L 310.610031 230.009254 
L 329.851411 230.533847 
L 331.600627 162.918832 
L 333.349843 114.986712 
L 335.09906 104.954581 
L 336.848276 162.651923 
L 338.597492 199.805905 
L 340.346708 216.18542 
L 342.095925 222.331903 
L 343.845141 224.6189 
L 345.594357 225.336925 
L 347.343574 225.303994 
L 349.09279 224.863568 
L 352.591223 223.407677 
L 356.089655 221.804798 
L 359.588088 220.463672 
L 363.08652 219.503271 
L 366.584953 218.880204 
L 370.083386 218.502444 
L 373.581818 218.285116 
L 373.581818 218.285116 
" style="fill:none;stroke:#ff0000;stroke-linecap:square;stroke-width:1.5;"/>
   </g>
   <g id="line2d_16">
    <path clip-path="url(#p399ab1972c)" d="M 69.218182 242.059771 
L 70.967398 241.81279 
L 72.716614 241.29369 
L 74.465831 240.275851 
L 76.215047 238.537577 
L 77.964263 236.253081 
L 79.71348 234.224337 
L 81.462696 233.061828 
L 83.211912 232.558142 
L 86.710345 232.194534 
L 91.957994 231.980763 
L 98.954859 231.927197 
L 111.199373 232.085758 
L 112.948589 222.400316 
L 114.697806 221.550547 
L 116.447022 220.852787 
L 118.196238 220.490985 
L 119.945455 220.47088 
L 121.694671 220.751247 
L 123.443887 221.271608 
L 126.94232 222.743417 
L 132.189969 225.051006 
L 135.688401 226.226929 
L 139.186834 227.046588 
L 142.685266 227.561462 
L 146.183699 227.841084 
L 151.431348 227.955557 
L 154.929781 227.901654 
L 156.678997 233.500546 
L 165.425078 233.46043 
L 172.421944 233.094439 
L 184.666458 232.390086 
L 193.412539 232.156884 
L 203.907837 232.141383 
L 237.142947 232.223229 
L 242.390596 232.217209 
L 244.139812 205.082227 
L 245.889028 203.180339 
L 247.638245 201.846448 
L 249.387461 201.610325 
L 251.136677 202.644705 
L 252.885893 204.863597 
L 254.63511 207.927344 
L 258.133542 214.527864 
L 259.882759 217.233554 
L 261.631975 219.346295 
L 263.381191 220.923619 
L 265.130408 222.074292 
L 266.879624 222.903399 
L 268.62884 223.494332 
L 270.378056 223.908431 
L 273.876489 224.370952 
L 277.374922 224.520865 
L 282.622571 224.432197 
L 286.121003 224.273477 
L 287.870219 232.140787 
L 289.619436 232.644231 
L 293.117868 233.28198 
L 296.616301 233.553543 
L 300.114734 233.600094 
L 307.111599 233.379737 
L 322.854545 232.765157 
L 329.851411 232.639674 
L 331.600627 232.067254 
L 333.349843 233.785229 
L 335.09906 234.86389 
L 336.848276 233.299614 
L 338.597492 232.600729 
L 340.346708 233.169452 
L 342.095925 233.442633 
L 357.838871 233.685019 
L 370.083386 233.935781 
L 373.581818 233.97713 
L 373.581818 233.97713 
" style="fill:none;stroke:#0000ff;stroke-linecap:square;stroke-width:1.5;"/>
   </g>
   <g id="line2d_17">
    <path clip-path="url(#p399ab1972c)" d="M 69.218182 242.116364 
L 70.967398 241.963699 
L 72.716614 241.664353 
L 74.465831 241.15 
L 79.71348 238.925665 
L 81.462696 238.596149 
L 84.961129 238.459101 
L 100.704075 238.60018 
L 111.199373 238.638529 
L 112.948589 238.517812 
L 116.447022 238.613066 
L 137.437618 238.562395 
L 156.678997 238.503534 
L 186.415674 238.356686 
L 216.152351 238.52424 
L 242.390596 238.513089 
L 244.139812 236.690811 
L 251.136677 236.293557 
L 254.63511 236.49525 
L 265.130408 237.821754 
L 270.378056 238.047118 
L 279.124138 238.098968 
L 286.121003 238.05592 
L 287.870219 238.916913 
L 294.867085 238.944537 
L 319.356113 238.792839 
L 329.851411 238.795431 
L 331.600627 238.106921 
L 333.349843 238.680089 
L 335.09906 239.415252 
L 336.848276 239.887603 
L 340.346708 240.138424 
L 345.594357 239.915599 
L 352.591223 239.74499 
L 368.334169 239.708932 
L 373.581818 239.715962 
L 373.581818 239.715962 
" style="fill:none;stroke:#008000;stroke-linecap:square;stroke-width:1.5;"/>
   </g>
   <g id="line2d_18">
    <path clip-path="url(#p399ab1972c)" d="M 69.218182 242.021793 
L 70.967398 241.609368 
L 72.716614 240.596045 
L 74.465831 238.642539 
L 76.215047 235.755244 
L 77.964263 232.620425 
L 79.71348 230.289771 
L 81.462696 229.165186 
L 83.211912 228.807782 
L 86.710345 228.779671 
L 105.951724 229.374768 
L 111.199373 229.405868 
L 112.948589 230.620677 
L 114.697806 230.506327 
L 119.945455 229.817337 
L 123.443887 229.54313 
L 128.691536 229.38505 
L 139.186834 229.10882 
L 154.929781 228.364061 
L 156.678997 227.666535 
L 160.177429 227.472637 
L 168.923511 227.423208 
L 177.669592 227.614457 
L 209.155486 228.680314 
L 226.647649 228.770769 
L 242.390596 228.787076 
L 244.139812 224.36729 
L 245.889028 223.440767 
L 247.638245 222.901464 
L 249.387461 222.959321 
L 251.136677 223.56115 
L 252.885893 224.549662 
L 256.384326 226.878298 
L 258.133542 227.861816 
L 259.882759 228.601744 
L 261.631975 229.100091 
L 263.381191 229.39979 
L 266.879624 229.606729 
L 270.378056 229.536895 
L 286.121003 228.771279 
L 287.870219 233.163988 
L 294.867085 232.626562 
L 303.613166 232.093658 
L 312.359248 231.797909 
L 324.603762 231.653599 
L 329.851411 231.636667 
L 331.600627 231.345819 
L 333.349843 234.761413 
L 335.09906 237.88904 
L 336.848276 239.043339 
L 338.597492 239.320975 
L 340.346708 239.320866 
L 343.845141 238.70853 
L 347.343574 238.067201 
L 350.842006 237.609214 
L 356.089655 237.217215 
L 361.337304 237.080908 
L 371.832602 237.103936 
L 373.581818 237.115501 
L 373.581818 237.115501 
" style="fill:none;stroke:#00bfbf;stroke-linecap:square;stroke-width:1.5;"/>
   </g>
   <g id="patch_3">
    <path d="M 54 252 
L 54 34.56 
" style="fill:none;stroke:#000000;stroke-linecap:square;stroke-linejoin:miter;stroke-width:0.8;"/>
   </g>
   <g id="patch_4">
    <path d="M 388.8 252 
L 388.8 34.56 
" style="fill:none;stroke:#000000;stroke-linecap:square;stroke-linejoin:miter;stroke-width:0.8;"/>
   </g>
   <g id="patch_5">
    <path d="M 54 252 
L 388.8 252 
" style="fill:none;stroke:#000000;stroke-linecap:square;stroke-linejoin:miter;stroke-width:0.8;"/>
   </g>
   <g id="patch_6">
    <path d="M 54 34.56 
L 388.8 34.56 
" style="fill:none;stroke:#000000;stroke-linecap:square;stroke-linejoin:miter;stroke-width:0.8;"/>
   </g>
   <g id="text_14">
    <!-- l2h00001 : contextdelaydm2 -->
    <defs>
     <path d="M 9.421875 75.984375 
L 18.40625 75.984375 
L 18.40625 0 
L 9.421875 0 
z
" id="DejaVuSans-6c"/>
     <path d="M 54.890625 33.015625 
L 54.890625 0 
L 45.90625 0 
L 45.90625 32.71875 
Q 45.90625 40.484375 42.875 44.328125 
Q 39.84375 48.1875 33.796875 48.1875 
Q 26.515625 48.1875 22.3125 43.546875 
Q 18.109375 38.921875 18.109375 30.90625 
L 18.109375 0 
L 9.078125 0 
L 9.078125 75.984375 
L 18.109375 75.984375 
L 18.109375 46.1875 
Q 21.34375 51.125 25.703125 53.5625 
Q 30.078125 56 35.796875 56 
Q 45.21875 56 50.046875 50.171875 
Q 54.890625 44.34375 54.890625 33.015625 
z
" id="DejaVuSans-68"/>
     <path id="DejaVuSans-20"/>
     <path d="M 11.71875 12.40625 
L 22.015625 12.40625 
L 22.015625 0 
L 11.71875 0 
z
M 11.71875 51.703125 
L 22.015625 51.703125 
L 22.015625 39.3125 
L 11.71875 39.3125 
z
" id="DejaVuSans-3a"/>
     <path d="M 48.78125 52.59375 
L 48.78125 44.1875 
Q 44.96875 46.296875 41.140625 47.34375 
Q 37.3125 48.390625 33.40625 48.390625 
Q 24.65625 48.390625 19.8125 42.84375 
Q 14.984375 37.3125 14.984375 27.296875 
Q 14.984375 17.28125 19.8125 11.734375 
Q 24.65625 6.203125 33.40625 6.203125 
Q 37.3125 6.203125 41.140625 7.25 
Q 44.96875 8.296875 48.78125 10.40625 
L 48.78125 2.09375 
Q 45.015625 0.34375 40.984375 -0.53125 
Q 36.96875 -1.421875 32.421875 -1.421875 
Q 20.0625 -1.421875 12.78125 6.34375 
Q 5.515625 14.109375 5.515625 27.296875 
Q 5.515625 40.671875 12.859375 48.328125 
Q 20.21875 56 33.015625 56 
Q 37.15625 56 41.109375 55.140625 
Q 45.0625 54.296875 48.78125 52.59375 
z
" id="DejaVuSans-63"/>
     <path d="M 30.609375 48.390625 
Q 23.390625 48.390625 19.1875 42.75 
Q 14.984375 37.109375 14.984375 27.296875 
Q 14.984375 17.484375 19.15625 11.84375 
Q 23.34375 6.203125 30.609375 6.203125 
Q 37.796875 6.203125 41.984375 11.859375 
Q 46.1875 17.53125 46.1875 27.296875 
Q 46.1875 37.015625 41.984375 42.703125 
Q 37.796875 48.390625 30.609375 48.390625 
z
M 30.609375 56 
Q 42.328125 56 49.015625 48.375 
Q 55.71875 40.765625 55.71875 27.296875 
Q 55.71875 13.875 49.015625 6.21875 
Q 42.328125 -1.421875 30.609375 -1.421875 
Q 18.84375 -1.421875 12.171875 6.21875 
Q 5.515625 13.875 5.515625 27.296875 
Q 5.515625 40.765625 12.171875 48.375 
Q 18.84375 56 30.609375 56 
z
" id="DejaVuSans-6f"/>
     <path d="M 54.890625 33.015625 
L 54.890625 0 
L 45.90625 0 
L 45.90625 32.71875 
Q 45.90625 40.484375 42.875 44.328125 
Q 39.84375 48.1875 33.796875 48.1875 
Q 26.515625 48.1875 22.3125 43.546875 
Q 18.109375 38.921875 18.109375 30.90625 
L 18.109375 0 
L 9.078125 0 
L 9.078125 54.6875 
L 18.109375 54.6875 
L 18.109375 46.1875 
Q 21.34375 51.125 25.703125 53.5625 
Q 30.078125 56 35.796875 56 
Q 45.21875 56 50.046875 50.171875 
Q 54.890625 44.34375 54.890625 33.015625 
z
" id="DejaVuSans-6e"/>
     <path d="M 18.3125 70.21875 
L 18.3125 54.6875 
L 36.8125 54.6875 
L 36.8125 47.703125 
L 18.3125 47.703125 
L 18.3125 18.015625 
Q 18.3125 11.328125 20.140625 9.421875 
Q 21.96875 7.515625 27.59375 7.515625 
L 36.8125 7.515625 
L 36.8125 0 
L 27.59375 0 
Q 17.1875 0 13.234375 3.875 
Q 9.28125 7.765625 9.28125 18.015625 
L 9.28125 47.703125 
L 2.6875 47.703125 
L 2.6875 54.6875 
L 9.28125 54.6875 
L 9.28125 70.21875 
z
" id="DejaVuSans-74"/>
     <path d="M 56.203125 29.59375 
L 56.203125 25.203125 
L 14.890625 25.203125 
Q 15.484375 15.921875 20.484375 11.0625 
Q 25.484375 6.203125 34.421875 6.203125 
Q 39.59375 6.203125 44.453125 7.46875 
Q 49.3125 8.734375 54.109375 11.28125 
L 54.109375 2.78125 
Q 49.265625 0.734375 44.1875 -0.34375 
Q 39.109375 -1.421875 33.890625 -1.421875 
Q 20.796875 -1.421875 13.15625 6.1875 
Q 5.515625 13.8125 5.515625 26.8125 
Q 5.515625 40.234375 12.765625 48.109375 
Q 20.015625 56 32.328125 56 
Q 43.359375 56 49.78125 48.890625 
Q 56.203125 41.796875 56.203125 29.59375 
z
M 47.21875 32.234375 
Q 47.125 39.59375 43.09375 43.984375 
Q 39.0625 48.390625 32.421875 48.390625 
Q 24.90625 48.390625 20.390625 44.140625 
Q 15.875 39.890625 15.1875 32.171875 
z
" id="DejaVuSans-65"/>
     <path d="M 54.890625 54.6875 
L 35.109375 28.078125 
L 55.90625 0 
L 45.3125 0 
L 29.390625 21.484375 
L 13.484375 0 
L 2.875 0 
L 24.125 28.609375 
L 4.6875 54.6875 
L 15.28125 54.6875 
L 29.78125 35.203125 
L 44.28125 54.6875 
z
" id="DejaVuSans-78"/>
     <path d="M 45.40625 46.390625 
L 45.40625 75.984375 
L 54.390625 75.984375 
L 54.390625 0 
L 45.40625 0 
L 45.40625 8.203125 
Q 42.578125 3.328125 38.25 0.953125 
Q 33.9375 -1.421875 27.875 -1.421875 
Q 17.96875 -1.421875 11.734375 6.484375 
Q 5.515625 14.40625 5.515625 27.296875 
Q 5.515625 40.1875 11.734375 48.09375 
Q 17.96875 56 27.875 56 
Q 33.9375 56 38.25 53.625 
Q 42.578125 51.265625 45.40625 46.390625 
z
M 14.796875 27.296875 
Q 14.796875 17.390625 18.875 11.75 
Q 22.953125 6.109375 30.078125 6.109375 
Q 37.203125 6.109375 41.296875 11.75 
Q 45.40625 17.390625 45.40625 27.296875 
Q 45.40625 37.203125 41.296875 42.84375 
Q 37.203125 48.484375 30.078125 48.484375 
Q 22.953125 48.484375 18.875 42.84375 
Q 14.796875 37.203125 14.796875 27.296875 
z
" id="DejaVuSans-64"/>
     <path d="M 34.28125 27.484375 
Q 23.390625 27.484375 19.1875 25 
Q 14.984375 22.515625 14.984375 16.5 
Q 14.984375 11.71875 18.140625 8.90625 
Q 21.296875 6.109375 26.703125 6.109375 
Q 34.1875 6.109375 38.703125 11.40625 
Q 43.21875 16.703125 43.21875 25.484375 
L 43.21875 27.484375 
z
M 52.203125 31.203125 
L 52.203125 0 
L 43.21875 0 
L 43.21875 8.296875 
Q 40.140625 3.328125 35.546875 0.953125 
Q 30.953125 -1.421875 24.3125 -1.421875 
Q 15.921875 -1.421875 10.953125 3.296875 
Q 6 8.015625 6 15.921875 
Q 6 25.140625 12.171875 29.828125 
Q 18.359375 34.515625 30.609375 34.515625 
L 43.21875 34.515625 
L 43.21875 35.40625 
Q 43.21875 41.609375 39.140625 45 
Q 35.0625 48.390625 27.6875 48.390625 
Q 23 48.390625 18.546875 47.265625 
Q 14.109375 46.140625 10.015625 43.890625 
L 10.015625 52.203125 
Q 14.9375 54.109375 19.578125 55.046875 
Q 24.21875 56 28.609375 56 
Q 40.484375 56 46.34375 49.84375 
Q 52.203125 43.703125 52.203125 31.203125 
z
" id="DejaVuSans-61"/>
     <path d="M 32.171875 -5.078125 
Q 28.375 -14.84375 24.75 -17.8125 
Q 21.140625 -20.796875 15.09375 -20.796875 
L 7.90625 -20.796875 
L 7.90625 -13.28125 
L 13.1875 -13.28125 
Q 16.890625 -13.28125 18.9375 -11.515625 
Q 21 -9.765625 23.484375 -3.21875 
L 25.09375 0.875 
L 2.984375 54.6875 
L 12.5 54.6875 
L 29.59375 11.921875 
L 46.6875 54.6875 
L 56.203125 54.6875 
z
" id="DejaVuSans-79"/>
     <path d="M 52 44.1875 
Q 55.375 50.25 60.0625 53.125 
Q 64.75 56 71.09375 56 
Q 79.640625 56 84.28125 50.015625 
Q 88.921875 44.046875 88.921875 33.015625 
L 88.921875 0 
L 79.890625 0 
L 79.890625 32.71875 
Q 79.890625 40.578125 77.09375 44.375 
Q 74.3125 48.1875 68.609375 48.1875 
Q 61.625 48.1875 57.5625 43.546875 
Q 53.515625 38.921875 53.515625 30.90625 
L 53.515625 0 
L 44.484375 0 
L 44.484375 32.71875 
Q 44.484375 40.625 41.703125 44.40625 
Q 38.921875 48.1875 33.109375 48.1875 
Q 26.21875 48.1875 22.15625 43.53125 
Q 18.109375 38.875 18.109375 30.90625 
L 18.109375 0 
L 9.078125 0 
L 9.078125 54.6875 
L 18.109375 54.6875 
L 18.109375 46.1875 
Q 21.1875 51.21875 25.484375 53.609375 
Q 29.78125 56 35.6875 56 
Q 41.65625 56 45.828125 52.96875 
Q 50 49.953125 52 44.1875 
z
" id="DejaVuSans-6d"/>
    </defs>
    <g transform="translate(134.604375 28.56)scale(0.12 -0.12)">
     <use xlink:href="#DejaVuSans-6c"/>
     <use x="27.783203" xlink:href="#DejaVuSans-32"/>
     <use x="91.40625" xlink:href="#DejaVuSans-68"/>
     <use x="154.785156" xlink:href="#DejaVuSans-30"/>
     <use x="218.408203" xlink:href="#DejaVuSans-30"/>
     <use x="282.03125" xlink:href="#DejaVuSans-30"/>
     <use x="345.654297" xlink:href="#DejaVuSans-30"/>
     <use x="409.277344" xlink:href="#DejaVuSans-31"/>
     <use x="472.900391" xlink:href="#DejaVuSans-20"/>
     <use x="504.6875" xlink:href="#DejaVuSans-3a"/>
     <use x="538.378906" xlink:href="#DejaVuSans-20"/>
     <use x="570.166016" xlink:href="#DejaVuSans-63"/>
     <use x="625.146484" xlink:href="#DejaVuSans-6f"/>
     <use x="686.328125" xlink:href="#DejaVuSans-6e"/>
     <use x="749.707031" xlink:href="#DejaVuSans-74"/>
     <use x="788.916016" xlink:href="#DejaVuSans-65"/>
     <use x="850.423828" xlink:href="#DejaVuSans-78"/>
     <use x="909.603516" xlink:href="#DejaVuSans-74"/>
     <use x="948.8125" xlink:href="#DejaVuSans-64"/>
     <use x="1012.289062" xlink:href="#DejaVuSans-65"/>
     <use x="1073.8125" xlink:href="#DejaVuSans-6c"/>
     <use x="1101.595703" xlink:href="#DejaVuSans-61"/>
     <use x="1162.875" xlink:href="#DejaVuSans-79"/>
     <use x="1222.054688" xlink:href="#DejaVuSans-64"/>
     <use x="1285.53125" xlink:href="#DejaVuSans-6d"/>
     <use x="1382.943359" xlink:href="#DejaVuSans-32"/>
    </g>
   </g>
   <g id="legend_1">
    <g id="patch_7">
     <path d="M 61 181.753438 
L 212.785937 181.753438 
Q 214.785937 181.753438 214.785937 179.753438 
L 214.785937 106.806562 
Q 214.785937 104.806562 212.785937 104.806562 
L 61 104.806562 
Q 59 104.806562 59 106.806562 
L 59 179.753438 
Q 59 181.753438 61 181.753438 
z
" style="fill:#ffffff;opacity:0.8;stroke:#cccccc;stroke-linejoin:miter;"/>
    </g>
    <g id="line2d_19">
     <path d="M 63 112.905 
L 83 112.905 
" style="fill:none;stroke:#000000;stroke-linecap:square;stroke-width:1.5;"/>
    </g>
    <g id="line2d_20"/>
    <g id="text_15">
     <!-- dF/dx -->
     <defs>
      <path d="M 9.8125 72.90625 
L 51.703125 72.90625 
L 51.703125 64.59375 
L 19.671875 64.59375 
L 19.671875 43.109375 
L 48.578125 43.109375 
L 48.578125 34.8125 
L 19.671875 34.8125 
L 19.671875 0 
L 9.8125 0 
z
" id="DejaVuSans-46"/>
      <path d="M 25.390625 72.90625 
L 33.6875 72.90625 
L 8.296875 -9.28125 
L 0 -9.28125 
z
" id="DejaVuSans-2f"/>
     </defs>
     <g transform="translate(91 116.405)scale(0.1 -0.1)">
      <use xlink:href="#DejaVuSans-64"/>
      <use x="63.476562" xlink:href="#DejaVuSans-46"/>
      <use x="120.996094" xlink:href="#DejaVuSans-2f"/>
      <use x="154.6875" xlink:href="#DejaVuSans-64"/>
      <use x="218.164062" xlink:href="#DejaVuSans-78"/>
     </g>
    </g>
    <g id="line2d_21">
     <path d="M 63 127.583125 
L 83 127.583125 
" style="fill:none;stroke:#ff0000;stroke-linecap:square;stroke-width:1.5;"/>
    </g>
    <g id="line2d_22"/>
    <g id="text_16">
     <!-- dF/du [fixation] -->
     <defs>
      <path d="M 8.5 21.578125 
L 8.5 54.6875 
L 17.484375 54.6875 
L 17.484375 21.921875 
Q 17.484375 14.15625 20.5 10.265625 
Q 23.53125 6.390625 29.59375 6.390625 
Q 36.859375 6.390625 41.078125 11.03125 
Q 45.3125 15.671875 45.3125 23.6875 
L 45.3125 54.6875 
L 54.296875 54.6875 
L 54.296875 0 
L 45.3125 0 
L 45.3125 8.40625 
Q 42.046875 3.421875 37.71875 1 
Q 33.40625 -1.421875 27.6875 -1.421875 
Q 18.265625 -1.421875 13.375 4.4375 
Q 8.5 10.296875 8.5 21.578125 
z
M 31.109375 56 
z
" id="DejaVuSans-75"/>
      <path d="M 8.59375 75.984375 
L 29.296875 75.984375 
L 29.296875 69 
L 17.578125 69 
L 17.578125 -6.203125 
L 29.296875 -6.203125 
L 29.296875 -13.1875 
L 8.59375 -13.1875 
z
" id="DejaVuSans-5b"/>
      <path d="M 37.109375 75.984375 
L 37.109375 68.5 
L 28.515625 68.5 
Q 23.6875 68.5 21.796875 66.546875 
Q 19.921875 64.59375 19.921875 59.515625 
L 19.921875 54.6875 
L 34.71875 54.6875 
L 34.71875 47.703125 
L 19.921875 47.703125 
L 19.921875 0 
L 10.890625 0 
L 10.890625 47.703125 
L 2.296875 47.703125 
L 2.296875 54.6875 
L 10.890625 54.6875 
L 10.890625 58.5 
Q 10.890625 67.625 15.140625 71.796875 
Q 19.390625 75.984375 28.609375 75.984375 
z
" id="DejaVuSans-66"/>
      <path d="M 9.421875 54.6875 
L 18.40625 54.6875 
L 18.40625 0 
L 9.421875 0 
z
M 9.421875 75.984375 
L 18.40625 75.984375 
L 18.40625 64.59375 
L 9.421875 64.59375 
z
" id="DejaVuSans-69"/>
      <path d="M 30.421875 75.984375 
L 30.421875 -13.1875 
L 9.71875 -13.1875 
L 9.71875 -6.203125 
L 21.390625 -6.203125 
L 21.390625 69 
L 9.71875 69 
L 9.71875 75.984375 
z
" id="DejaVuSans-5d"/>
     </defs>
     <g transform="translate(91 131.083125)scale(0.1 -0.1)">
      <use xlink:href="#DejaVuSans-64"/>
      <use x="63.476562" xlink:href="#DejaVuSans-46"/>
      <use x="120.996094" xlink:href="#DejaVuSans-2f"/>
      <use x="154.6875" xlink:href="#DejaVuSans-64"/>
      <use x="218.164062" xlink:href="#DejaVuSans-75"/>
      <use x="281.542969" xlink:href="#DejaVuSans-20"/>
      <use x="313.330078" xlink:href="#DejaVuSans-5b"/>
      <use x="352.34375" xlink:href="#DejaVuSans-66"/>
      <use x="387.548828" xlink:href="#DejaVuSans-69"/>
      <use x="415.332031" xlink:href="#DejaVuSans-78"/>
      <use x="474.511719" xlink:href="#DejaVuSans-61"/>
      <use x="535.791016" xlink:href="#DejaVuSans-74"/>
      <use x="575" xlink:href="#DejaVuSans-69"/>
      <use x="602.783203" xlink:href="#DejaVuSans-6f"/>
      <use x="663.964844" xlink:href="#DejaVuSans-6e"/>
      <use x="727.34375" xlink:href="#DejaVuSans-5d"/>
     </g>
    </g>
    <g id="line2d_23">
     <path d="M 63 142.26125 
L 83 142.26125 
" style="fill:none;stroke:#0000ff;stroke-linecap:square;stroke-width:1.5;"/>
    </g>
    <g id="line2d_24"/>
    <g id="text_17">
     <!-- dF/du [stimulus] -->
     <defs>
      <path d="M 44.28125 53.078125 
L 44.28125 44.578125 
Q 40.484375 46.53125 36.375 47.5 
Q 32.28125 48.484375 27.875 48.484375 
Q 21.1875 48.484375 17.84375 46.4375 
Q 14.5 44.390625 14.5 40.28125 
Q 14.5 37.15625 16.890625 35.375 
Q 19.28125 33.59375 26.515625 31.984375 
L 29.59375 31.296875 
Q 39.15625 29.25 43.1875 25.515625 
Q 47.21875 21.78125 47.21875 15.09375 
Q 47.21875 7.46875 41.1875 3.015625 
Q 35.15625 -1.421875 24.609375 -1.421875 
Q 20.21875 -1.421875 15.453125 -0.5625 
Q 10.6875 0.296875 5.421875 2 
L 5.421875 11.28125 
Q 10.40625 8.6875 15.234375 7.390625 
Q 20.0625 6.109375 24.8125 6.109375 
Q 31.15625 6.109375 34.5625 8.28125 
Q 37.984375 10.453125 37.984375 14.40625 
Q 37.984375 18.0625 35.515625 20.015625 
Q 33.0625 21.96875 24.703125 23.78125 
L 21.578125 24.515625 
Q 13.234375 26.265625 9.515625 29.90625 
Q 5.8125 33.546875 5.8125 39.890625 
Q 5.8125 47.609375 11.28125 51.796875 
Q 16.75 56 26.8125 56 
Q 31.78125 56 36.171875 55.265625 
Q 40.578125 54.546875 44.28125 53.078125 
z
" id="DejaVuSans-73"/>
     </defs>
     <g transform="translate(91 145.76125)scale(0.1 -0.1)">
      <use xlink:href="#DejaVuSans-64"/>
      <use x="63.476562" xlink:href="#DejaVuSans-46"/>
      <use x="120.996094" xlink:href="#DejaVuSans-2f"/>
      <use x="154.6875" xlink:href="#DejaVuSans-64"/>
      <use x="218.164062" xlink:href="#DejaVuSans-75"/>
      <use x="281.542969" xlink:href="#DejaVuSans-20"/>
      <use x="313.330078" xlink:href="#DejaVuSans-5b"/>
      <use x="352.34375" xlink:href="#DejaVuSans-73"/>
      <use x="404.443359" xlink:href="#DejaVuSans-74"/>
      <use x="443.652344" xlink:href="#DejaVuSans-69"/>
      <use x="471.435547" xlink:href="#DejaVuSans-6d"/>
      <use x="568.847656" xlink:href="#DejaVuSans-75"/>
      <use x="632.226562" xlink:href="#DejaVuSans-6c"/>
      <use x="660.009766" xlink:href="#DejaVuSans-75"/>
      <use x="723.388672" xlink:href="#DejaVuSans-73"/>
      <use x="775.488281" xlink:href="#DejaVuSans-5d"/>
     </g>
    </g>
    <g id="line2d_25">
     <path d="M 63 156.939375 
L 83 156.939375 
" style="fill:none;stroke:#008000;stroke-linecap:square;stroke-width:1.5;"/>
    </g>
    <g id="line2d_26"/>
    <g id="text_18">
     <!-- dF/du [context_all] -->
     <defs>
      <path d="M 50.984375 -16.609375 
L 50.984375 -23.578125 
L -0.984375 -23.578125 
L -0.984375 -16.609375 
z
" id="DejaVuSans-5f"/>
     </defs>
     <g transform="translate(91 160.439375)scale(0.1 -0.1)">
      <use xlink:href="#DejaVuSans-64"/>
      <use x="63.476562" xlink:href="#DejaVuSans-46"/>
      <use x="120.996094" xlink:href="#DejaVuSans-2f"/>
      <use x="154.6875" xlink:href="#DejaVuSans-64"/>
      <use x="218.164062" xlink:href="#DejaVuSans-75"/>
      <use x="281.542969" xlink:href="#DejaVuSans-20"/>
      <use x="313.330078" xlink:href="#DejaVuSans-5b"/>
      <use x="352.34375" xlink:href="#DejaVuSans-63"/>
      <use x="407.324219" xlink:href="#DejaVuSans-6f"/>
      <use x="468.505859" xlink:href="#DejaVuSans-6e"/>
      <use x="531.884766" xlink:href="#DejaVuSans-74"/>
      <use x="571.09375" xlink:href="#DejaVuSans-65"/>
      <use x="632.601562" xlink:href="#DejaVuSans-78"/>
      <use x="691.78125" xlink:href="#DejaVuSans-74"/>
      <use x="730.990234" xlink:href="#DejaVuSans-5f"/>
      <use x="780.990234" xlink:href="#DejaVuSans-61"/>
      <use x="842.269531" xlink:href="#DejaVuSans-6c"/>
      <use x="870.052734" xlink:href="#DejaVuSans-6c"/>
      <use x="897.835938" xlink:href="#DejaVuSans-5d"/>
     </g>
    </g>
    <g id="line2d_27">
     <path d="M 63 171.895625 
L 83 171.895625 
" style="fill:none;stroke:#00bfbf;stroke-linecap:square;stroke-width:1.5;"/>
    </g>
    <g id="line2d_28"/>
    <g id="text_19">
     <!-- dF/du [context_specific] -->
     <defs>
      <path d="M 18.109375 8.203125 
L 18.109375 -20.796875 
L 9.078125 -20.796875 
L 9.078125 54.6875 
L 18.109375 54.6875 
L 18.109375 46.390625 
Q 20.953125 51.265625 25.265625 53.625 
Q 29.59375 56 35.59375 56 
Q 45.5625 56 51.78125 48.09375 
Q 58.015625 40.1875 58.015625 27.296875 
Q 58.015625 14.40625 51.78125 6.484375 
Q 45.5625 -1.421875 35.59375 -1.421875 
Q 29.59375 -1.421875 25.265625 0.953125 
Q 20.953125 3.328125 18.109375 8.203125 
z
M 48.6875 27.296875 
Q 48.6875 37.203125 44.609375 42.84375 
Q 40.53125 48.484375 33.40625 48.484375 
Q 26.265625 48.484375 22.1875 42.84375 
Q 18.109375 37.203125 18.109375 27.296875 
Q 18.109375 17.390625 22.1875 11.75 
Q 26.265625 6.109375 33.40625 6.109375 
Q 40.53125 6.109375 44.609375 11.75 
Q 48.6875 17.390625 48.6875 27.296875 
z
" id="DejaVuSans-70"/>
     </defs>
     <g transform="translate(91 175.395625)scale(0.1 -0.1)">
      <use xlink:href="#DejaVuSans-64"/>
      <use x="63.476562" xlink:href="#DejaVuSans-46"/>
      <use x="120.996094" xlink:href="#DejaVuSans-2f"/>
      <use x="154.6875" xlink:href="#DejaVuSans-64"/>
      <use x="218.164062" xlink:href="#DejaVuSans-75"/>
      <use x="281.542969" xlink:href="#DejaVuSans-20"/>
      <use x="313.330078" xlink:href="#DejaVuSans-5b"/>
      <use x="352.34375" xlink:href="#DejaVuSans-63"/>
      <use x="407.324219" xlink:href="#DejaVuSans-6f"/>
      <use x="468.505859" xlink:href="#DejaVuSans-6e"/>
      <use x="531.884766" xlink:href="#DejaVuSans-74"/>
      <use x="571.09375" xlink:href="#DejaVuSans-65"/>
      <use x="632.601562" xlink:href="#DejaVuSans-78"/>
      <use x="691.78125" xlink:href="#DejaVuSans-74"/>
      <use x="730.990234" xlink:href="#DejaVuSans-5f"/>
      <use x="780.990234" xlink:href="#DejaVuSans-73"/>
      <use x="833.089844" xlink:href="#DejaVuSans-70"/>
      <use x="896.566406" xlink:href="#DejaVuSans-65"/>
      <use x="958.089844" xlink:href="#DejaVuSans-63"/>
      <use x="1013.070312" xlink:href="#DejaVuSans-69"/>
      <use x="1040.853516" xlink:href="#DejaVuSans-66"/>
      <use x="1076.058594" xlink:href="#DejaVuSans-69"/>
      <use x="1103.841797" xlink:href="#DejaVuSans-63"/>
      <use x="1158.822266" xlink:href="#DejaVuSans-5d"/>
     </g>
    </g>
   </g>
  </g>
 </g>
 <defs>
  <clipPath id="p399ab1972c">
   <rect height="217.44" width="334.8" x="54" y="34.56"/>
  </clipPath>
 </defs>
</svg>
