<?xml version="1.0" encoding="utf-8" standalone="no"?>
<!DOCTYPE svg PUBLIC "-//W3C//DTD SVG 1.1//EN"
  "http://www.w3.org/Graphics/SVG/1.1/DTD/svg11.dtd">
<!-- Created with matplotlib (http://matplotlib.org/) -->
<svg height="288pt" version="1.1" viewBox="0 0 432 288" width="432pt" xmlns="http://www.w3.org/2000/svg" xmlns:xlink="http://www.w3.org/1999/xlink">
 <defs>
  <style type="text/css">
*{stroke-linecap:butt;stroke-linejoin:round;}
  </style>
 </defs>
 <g id="figure_1">
  <g id="patch_1">
   <path d="M 0 288 
L 432 288 
L 432 0 
L 0 0 
z
" style="fill:#ffffff;"/>
  </g>
  <g id="axes_1">
   <g id="patch_2">
    <path d="M 54 252 
L 388.8 252 
L 388.8 34.56 
L 54 34.56 
z
" style="fill:#ffffff;"/>
   </g>
   <g id="matplotlib.axis_1">
    <g id="xtick_1">
     <g id="line2d_1">
      <defs>
       <path d="M 0 0 
L 0 3.5 
" id="m665cfcf3c2" style="stroke:#000000;stroke-width:0.8;"/>
      </defs>
      <g>
       <use style="stroke:#000000;stroke-width:0.8;" x="69.218182" xlink:href="#m665cfcf3c2" y="252"/>
      </g>
     </g>
     <g id="text_1">
      <!-- 0 -->
      <defs>
       <path d="M 31.78125 66.40625 
Q 24.171875 66.40625 20.328125 58.90625 
Q 16.5 51.421875 16.5 36.375 
Q 16.5 21.390625 20.328125 13.890625 
Q 24.171875 6.390625 31.78125 6.390625 
Q 39.453125 6.390625 43.28125 13.890625 
Q 47.125 21.390625 47.125 36.375 
Q 47.125 51.421875 43.28125 58.90625 
Q 39.453125 66.40625 31.78125 66.40625 
z
M 31.78125 74.21875 
Q 44.046875 74.21875 50.515625 64.515625 
Q 56.984375 54.828125 56.984375 36.375 
Q 56.984375 17.96875 50.515625 8.265625 
Q 44.046875 -1.421875 31.78125 -1.421875 
Q 19.53125 -1.421875 13.0625 8.265625 
Q 6.59375 17.96875 6.59375 36.375 
Q 6.59375 54.828125 13.0625 64.515625 
Q 19.53125 74.21875 31.78125 74.21875 
z
" id="DejaVuSans-30"/>
      </defs>
      <g transform="translate(66.036932 266.598437)scale(0.1 -0.1)">
       <use xlink:href="#DejaVuSans-30"/>
      </g>
     </g>
    </g>
    <g id="xtick_2">
     <g id="line2d_2">
      <g>
       <use style="stroke:#000000;stroke-width:0.8;" x="118.309091" xlink:href="#m665cfcf3c2" y="252"/>
      </g>
     </g>
     <g id="text_2">
      <!-- 20 -->
      <defs>
       <path d="M 19.1875 8.296875 
L 53.609375 8.296875 
L 53.609375 0 
L 7.328125 0 
L 7.328125 8.296875 
Q 12.9375 14.109375 22.625 23.890625 
Q 32.328125 33.6875 34.8125 36.53125 
Q 39.546875 41.84375 41.421875 45.53125 
Q 43.3125 49.21875 43.3125 52.78125 
Q 43.3125 58.59375 39.234375 62.25 
Q 35.15625 65.921875 28.609375 65.921875 
Q 23.96875 65.921875 18.8125 64.3125 
Q 13.671875 62.703125 7.8125 59.421875 
L 7.8125 69.390625 
Q 13.765625 71.78125 18.9375 73 
Q 24.125 74.21875 28.421875 74.21875 
Q 39.75 74.21875 46.484375 68.546875 
Q 53.21875 62.890625 53.21875 53.421875 
Q 53.21875 48.921875 51.53125 44.890625 
Q 49.859375 40.875 45.40625 35.40625 
Q 44.1875 33.984375 37.640625 27.21875 
Q 31.109375 20.453125 19.1875 8.296875 
z
" id="DejaVuSans-32"/>
      </defs>
      <g transform="translate(111.946591 266.598437)scale(0.1 -0.1)">
       <use xlink:href="#DejaVuSans-32"/>
       <use x="63.623047" xlink:href="#DejaVuSans-30"/>
      </g>
     </g>
    </g>
    <g id="xtick_3">
     <g id="line2d_3">
      <g>
       <use style="stroke:#000000;stroke-width:0.8;" x="167.4" xlink:href="#m665cfcf3c2" y="252"/>
      </g>
     </g>
     <g id="text_3">
      <!-- 40 -->
      <defs>
       <path d="M 37.796875 64.3125 
L 12.890625 25.390625 
L 37.796875 25.390625 
z
M 35.203125 72.90625 
L 47.609375 72.90625 
L 47.609375 25.390625 
L 58.015625 25.390625 
L 58.015625 17.1875 
L 47.609375 17.1875 
L 47.609375 0 
L 37.796875 0 
L 37.796875 17.1875 
L 4.890625 17.1875 
L 4.890625 26.703125 
z
" id="DejaVuSans-34"/>
      </defs>
      <g transform="translate(161.0375 266.598437)scale(0.1 -0.1)">
       <use xlink:href="#DejaVuSans-34"/>
       <use x="63.623047" xlink:href="#DejaVuSans-30"/>
      </g>
     </g>
    </g>
    <g id="xtick_4">
     <g id="line2d_4">
      <g>
       <use style="stroke:#000000;stroke-width:0.8;" x="216.490909" xlink:href="#m665cfcf3c2" y="252"/>
      </g>
     </g>
     <g id="text_4">
      <!-- 60 -->
      <defs>
       <path d="M 33.015625 40.375 
Q 26.375 40.375 22.484375 35.828125 
Q 18.609375 31.296875 18.609375 23.390625 
Q 18.609375 15.53125 22.484375 10.953125 
Q 26.375 6.390625 33.015625 6.390625 
Q 39.65625 6.390625 43.53125 10.953125 
Q 47.40625 15.53125 47.40625 23.390625 
Q 47.40625 31.296875 43.53125 35.828125 
Q 39.65625 40.375 33.015625 40.375 
z
M 52.59375 71.296875 
L 52.59375 62.3125 
Q 48.875 64.0625 45.09375 64.984375 
Q 41.3125 65.921875 37.59375 65.921875 
Q 27.828125 65.921875 22.671875 59.328125 
Q 17.53125 52.734375 16.796875 39.40625 
Q 19.671875 43.65625 24.015625 45.921875 
Q 28.375 48.1875 33.59375 48.1875 
Q 44.578125 48.1875 50.953125 41.515625 
Q 57.328125 34.859375 57.328125 23.390625 
Q 57.328125 12.15625 50.6875 5.359375 
Q 44.046875 -1.421875 33.015625 -1.421875 
Q 20.359375 -1.421875 13.671875 8.265625 
Q 6.984375 17.96875 6.984375 36.375 
Q 6.984375 53.65625 15.1875 63.9375 
Q 23.390625 74.21875 37.203125 74.21875 
Q 40.921875 74.21875 44.703125 73.484375 
Q 48.484375 72.75 52.59375 71.296875 
z
" id="DejaVuSans-36"/>
      </defs>
      <g transform="translate(210.128409 266.598437)scale(0.1 -0.1)">
       <use xlink:href="#DejaVuSans-36"/>
       <use x="63.623047" xlink:href="#DejaVuSans-30"/>
      </g>
     </g>
    </g>
    <g id="xtick_5">
     <g id="line2d_5">
      <g>
       <use style="stroke:#000000;stroke-width:0.8;" x="265.581818" xlink:href="#m665cfcf3c2" y="252"/>
      </g>
     </g>
     <g id="text_5">
      <!-- 80 -->
      <defs>
       <path d="M 31.78125 34.625 
Q 24.75 34.625 20.71875 30.859375 
Q 16.703125 27.09375 16.703125 20.515625 
Q 16.703125 13.921875 20.71875 10.15625 
Q 24.75 6.390625 31.78125 6.390625 
Q 38.8125 6.390625 42.859375 10.171875 
Q 46.921875 13.96875 46.921875 20.515625 
Q 46.921875 27.09375 42.890625 30.859375 
Q 38.875 34.625 31.78125 34.625 
z
M 21.921875 38.8125 
Q 15.578125 40.375 12.03125 44.71875 
Q 8.5 49.078125 8.5 55.328125 
Q 8.5 64.0625 14.71875 69.140625 
Q 20.953125 74.21875 31.78125 74.21875 
Q 42.671875 74.21875 48.875 69.140625 
Q 55.078125 64.0625 55.078125 55.328125 
Q 55.078125 49.078125 51.53125 44.71875 
Q 48 40.375 41.703125 38.8125 
Q 48.828125 37.15625 52.796875 32.3125 
Q 56.78125 27.484375 56.78125 20.515625 
Q 56.78125 9.90625 50.3125 4.234375 
Q 43.84375 -1.421875 31.78125 -1.421875 
Q 19.734375 -1.421875 13.25 4.234375 
Q 6.78125 9.90625 6.78125 20.515625 
Q 6.78125 27.484375 10.78125 32.3125 
Q 14.796875 37.15625 21.921875 38.8125 
z
M 18.3125 54.390625 
Q 18.3125 48.734375 21.84375 45.5625 
Q 25.390625 42.390625 31.78125 42.390625 
Q 38.140625 42.390625 41.71875 45.5625 
Q 45.3125 48.734375 45.3125 54.390625 
Q 45.3125 60.0625 41.71875 63.234375 
Q 38.140625 66.40625 31.78125 66.40625 
Q 25.390625 66.40625 21.84375 63.234375 
Q 18.3125 60.0625 18.3125 54.390625 
z
" id="DejaVuSans-38"/>
      </defs>
      <g transform="translate(259.219318 266.598437)scale(0.1 -0.1)">
       <use xlink:href="#DejaVuSans-38"/>
       <use x="63.623047" xlink:href="#DejaVuSans-30"/>
      </g>
     </g>
    </g>
    <g id="xtick_6">
     <g id="line2d_6">
      <g>
       <use style="stroke:#000000;stroke-width:0.8;" x="314.672727" xlink:href="#m665cfcf3c2" y="252"/>
      </g>
     </g>
     <g id="text_6">
      <!-- 100 -->
      <defs>
       <path d="M 12.40625 8.296875 
L 28.515625 8.296875 
L 28.515625 63.921875 
L 10.984375 60.40625 
L 10.984375 69.390625 
L 28.421875 72.90625 
L 38.28125 72.90625 
L 38.28125 8.296875 
L 54.390625 8.296875 
L 54.390625 0 
L 12.40625 0 
z
" id="DejaVuSans-31"/>
      </defs>
      <g transform="translate(305.128977 266.598437)scale(0.1 -0.1)">
       <use xlink:href="#DejaVuSans-31"/>
       <use x="63.623047" xlink:href="#DejaVuSans-30"/>
       <use x="127.246094" xlink:href="#DejaVuSans-30"/>
      </g>
     </g>
    </g>
    <g id="xtick_7">
     <g id="line2d_7">
      <g>
       <use style="stroke:#000000;stroke-width:0.8;" x="363.763636" xlink:href="#m665cfcf3c2" y="252"/>
      </g>
     </g>
     <g id="text_7">
      <!-- 120 -->
      <g transform="translate(354.219886 266.598437)scale(0.1 -0.1)">
       <use xlink:href="#DejaVuSans-31"/>
       <use x="63.623047" xlink:href="#DejaVuSans-32"/>
       <use x="127.246094" xlink:href="#DejaVuSans-30"/>
      </g>
     </g>
    </g>
   </g>
   <g id="matplotlib.axis_2">
    <g id="ytick_1">
     <g id="line2d_8">
      <defs>
       <path d="M 0 0 
L -3.5 0 
" id="md3588f1b79" style="stroke:#000000;stroke-width:0.8;"/>
      </defs>
      <g>
       <use style="stroke:#000000;stroke-width:0.8;" x="54" xlink:href="#md3588f1b79" y="242.224359"/>
      </g>
     </g>
     <g id="text_8">
      <!-- 0.0 -->
      <defs>
       <path d="M 10.6875 12.40625 
L 21 12.40625 
L 21 0 
L 10.6875 0 
z
" id="DejaVuSans-2e"/>
      </defs>
      <g transform="translate(31.096875 246.023577)scale(0.1 -0.1)">
       <use xlink:href="#DejaVuSans-30"/>
       <use x="63.623047" xlink:href="#DejaVuSans-2e"/>
       <use x="95.410156" xlink:href="#DejaVuSans-30"/>
      </g>
     </g>
    </g>
    <g id="ytick_2">
     <g id="line2d_9">
      <g>
       <use style="stroke:#000000;stroke-width:0.8;" x="54" xlink:href="#md3588f1b79" y="197.097833"/>
      </g>
     </g>
     <g id="text_9">
      <!-- 0.2 -->
      <g transform="translate(31.096875 200.897051)scale(0.1 -0.1)">
       <use xlink:href="#DejaVuSans-30"/>
       <use x="63.623047" xlink:href="#DejaVuSans-2e"/>
       <use x="95.410156" xlink:href="#DejaVuSans-32"/>
      </g>
     </g>
    </g>
    <g id="ytick_3">
     <g id="line2d_10">
      <g>
       <use style="stroke:#000000;stroke-width:0.8;" x="54" xlink:href="#md3588f1b79" y="151.971307"/>
      </g>
     </g>
     <g id="text_10">
      <!-- 0.4 -->
      <g transform="translate(31.096875 155.770525)scale(0.1 -0.1)">
       <use xlink:href="#DejaVuSans-30"/>
       <use x="63.623047" xlink:href="#DejaVuSans-2e"/>
       <use x="95.410156" xlink:href="#DejaVuSans-34"/>
      </g>
     </g>
    </g>
    <g id="ytick_4">
     <g id="line2d_11">
      <g>
       <use style="stroke:#000000;stroke-width:0.8;" x="54" xlink:href="#md3588f1b79" y="106.844781"/>
      </g>
     </g>
     <g id="text_11">
      <!-- 0.6 -->
      <g transform="translate(31.096875 110.643999)scale(0.1 -0.1)">
       <use xlink:href="#DejaVuSans-30"/>
       <use x="63.623047" xlink:href="#DejaVuSans-2e"/>
       <use x="95.410156" xlink:href="#DejaVuSans-36"/>
      </g>
     </g>
    </g>
    <g id="ytick_5">
     <g id="line2d_12">
      <g>
       <use style="stroke:#000000;stroke-width:0.8;" x="54" xlink:href="#md3588f1b79" y="61.718255"/>
      </g>
     </g>
     <g id="text_12">
      <!-- 0.8 -->
      <g transform="translate(31.096875 65.517473)scale(0.1 -0.1)">
       <use xlink:href="#DejaVuSans-30"/>
       <use x="63.623047" xlink:href="#DejaVuSans-2e"/>
       <use x="95.410156" xlink:href="#DejaVuSans-38"/>
      </g>
     </g>
    </g>
   </g>
   <g id="line2d_13">
    <path clip-path="url(#p6346fca193)" d="M 69.218182 61.712088 
L 71.672727 61.699032 
L 74.127273 61.659083 
L 76.581818 61.549972 
L 79.036364 61.300103 
L 81.490909 60.874877 
L 83.945455 60.420453 
L 86.4 60.142087 
L 88.854545 60.029869 
L 91.309091 59.986936 
L 93.763636 59.965637 
L 96.218182 59.952092 
L 98.672727 59.942663 
L 101.127273 59.936054 
L 103.581818 59.931423 
L 106.036364 59.928042 
L 108.490909 59.9253 
L 110.945455 59.922727 
L 113.4 59.92001 
L 115.854545 59.916984 
L 118.309091 59.913603 
L 120.763636 59.909911 
L 123.218182 59.906017 
L 125.672727 59.902067 
L 128.127273 59.898232 
L 130.581818 57.784027 
L 133.036364 57.449153 
L 135.490909 57.088099 
L 137.945455 56.788562 
L 140.4 56.593144 
L 142.854545 56.539579 
L 145.309091 56.651622 
L 147.763636 56.907382 
L 150.218182 57.240794 
L 152.672727 57.58578 
L 155.127273 57.906498 
L 157.581818 58.191747 
L 160.036364 58.440157 
L 162.490909 58.652997 
L 164.945455 58.832549 
L 167.4 58.981735 
L 169.854545 59.103751 
L 172.309091 59.201757 
L 174.763636 59.27871 
L 177.218182 59.337323 
L 179.672727 59.380053 
L 182.127273 59.409126 
L 184.581818 59.426545 
L 187.036364 59.434107 
L 189.490909 59.43341 
L 191.945455 59.690764 
L 194.4 59.680796 
L 196.854545 59.675734 
L 199.309091 59.668789 
L 201.763636 59.658665 
L 204.218182 59.645914 
L 206.672727 59.631514 
L 209.127273 59.616391 
L 211.581818 59.601273 
L 214.036364 59.586685 
L 216.490909 59.572967 
L 218.945455 59.560314 
L 221.4 59.548811 
L 223.854545 59.538473 
L 226.309091 59.52926 
L 228.763636 59.5211 
L 231.218182 59.513904 
L 233.672727 59.507575 
L 236.127273 59.502013 
L 238.581818 59.497123 
L 241.036364 59.492821 
L 243.490909 59.489024 
L 245.945455 59.485658 
L 248.4 59.482662 
L 250.854545 59.47998 
L 253.309091 59.47756 
L 255.763636 59.475365 
L 258.218182 59.47336 
L 260.672727 59.471512 
L 263.127273 59.469799 
L 265.581818 59.4682 
L 268.036364 59.466697 
L 270.490909 59.465276 
L 272.945455 59.463925 
L 275.4 59.462634 
L 277.854545 59.461397 
L 280.309091 59.460206 
L 282.763636 59.459056 
L 285.218182 59.457946 
L 287.672727 59.456869 
L 290.127273 59.455823 
L 292.581818 59.454807 
L 295.036364 59.453819 
L 297.490909 59.452857 
L 299.945455 59.451921 
L 302.4 59.451008 
L 304.854545 59.450119 
L 307.309091 59.449253 
L 309.763636 59.448408 
L 312.218182 59.447584 
L 314.672727 53.190169 
L 317.127273 44.443636 
L 319.581818 46.540225 
L 322.036364 52.551834 
L 324.490909 53.767944 
L 326.945455 55.697781 
L 329.4 56.972037 
L 331.854545 57.632397 
L 334.309091 57.965964 
L 336.763636 58.13858 
L 339.218182 58.230248 
L 341.672727 58.279213 
L 344.127273 58.304681 
L 346.581818 58.316916 
L 349.036364 58.321735 
L 351.490909 58.32262 
L 353.945455 58.321837 
L 356.4 58.320973 
L 358.854545 58.321196 
L 361.309091 58.323362 
L 363.763636 58.328033 
L 366.218182 58.335545 
L 368.672727 58.346006 
L 371.127273 58.35939 
L 373.581818 58.37556 
" style="fill:none;stroke:#000000;stroke-linecap:square;stroke-width:1.5;"/>
   </g>
   <g id="line2d_14">
    <path clip-path="url(#p6346fca193)" d="M 69.218182 241.794601 
L 71.672727 241.381287 
L 74.127273 240.708913 
L 76.581818 239.72858 
L 79.036364 238.453517 
L 81.490909 237.047414 
L 83.945455 235.884371 
L 86.4 235.224064 
L 88.854545 234.931057 
L 91.309091 234.790114 
L 93.763636 234.702097 
L 96.218182 234.635496 
L 98.672727 234.579935 
L 101.127273 234.530806 
L 103.581818 234.485347 
L 106.036364 234.441697 
L 108.490909 234.398635 
L 110.945455 234.355439 
L 113.4 234.311772 
L 115.854545 234.267594 
L 118.309091 234.223063 
L 120.763636 234.178469 
L 123.218182 234.134176 
L 125.672727 234.090586 
L 128.127273 234.048113 
L 130.581818 231.792148 
L 133.036364 231.384933 
L 135.490909 230.80495 
L 137.945455 230.091624 
L 140.4 229.248561 
L 142.854545 228.36219 
L 145.309091 227.615133 
L 147.763636 227.176915 
L 150.218182 227.098058 
L 152.672727 227.317727 
L 155.127273 227.731932 
L 157.581818 228.242547 
L 160.036364 228.775538 
L 162.490909 229.283188 
L 164.945455 229.739692 
L 167.4 230.134639 
L 169.854545 230.467045 
L 172.309091 230.74098 
L 174.763636 230.96282 
L 177.218182 231.139701 
L 179.672727 231.278664 
L 182.127273 231.386262 
L 184.581818 231.468379 
L 187.036364 231.530182 
L 189.490909 231.576119 
L 191.945455 231.806866 
L 194.4 231.647651 
L 196.854545 231.504916 
L 199.309091 231.374172 
L 201.763636 231.256155 
L 204.218182 231.151905 
L 206.672727 231.06155 
L 209.127273 230.984372 
L 211.581818 230.919124 
L 214.036364 230.864343 
L 216.490909 230.818536 
L 218.945455 230.780324 
L 221.4 230.74847 
L 223.854545 230.721906 
L 226.309091 230.699734 
L 228.763636 230.68119 
L 231.218182 230.665646 
L 233.672727 230.652567 
L 236.127273 230.641514 
L 238.581818 230.632121 
L 241.036364 230.62408 
L 243.490909 230.617138 
L 245.945455 230.611071 
L 248.4 230.605709 
L 250.854545 230.600904 
L 253.309091 230.596535 
L 255.763636 230.592499 
L 258.218182 230.588732 
L 260.672727 230.585153 
L 263.127273 230.581726 
L 265.581818 230.578415 
L 268.036364 230.575191 
L 270.490909 230.572039 
L 272.945455 230.56894 
L 275.4 230.565897 
L 277.854545 230.562897 
L 280.309091 230.55995 
L 282.763636 230.557055 
L 285.218182 230.554218 
L 287.672727 230.551446 
L 290.127273 230.54874 
L 292.581818 230.546106 
L 295.036364 230.543551 
L 297.490909 230.541078 
L 299.945455 230.538691 
L 302.4 230.536397 
L 304.854545 230.534194 
L 307.309091 230.532084 
L 309.763636 230.530066 
L 312.218182 230.528145 
L 314.672727 157.141199 
L 317.127273 101.453889 
L 319.581818 114.74777 
L 322.036364 179.273376 
L 324.490909 207.776837 
L 326.945455 220.174168 
L 329.4 224.965305 
L 331.854545 226.681281 
L 334.309091 227.022067 
L 336.763636 226.639791 
L 339.218182 225.836339 
L 341.672727 224.799812 
L 344.127273 223.678005 
L 346.581818 222.589409 
L 349.036364 221.616448 
L 351.490909 220.802181 
L 353.945455 220.156139 
L 356.4 219.66528 
L 358.854545 219.305251 
L 361.309091 219.048615 
L 363.763636 218.869702 
L 366.218182 218.746845 
L 368.672727 218.662939 
L 371.127273 218.605271 
L 373.581818 218.564637 
" style="fill:none;stroke:#ff0000;stroke-linecap:square;stroke-width:1.5;"/>
   </g>
   <g id="line2d_15">
    <path clip-path="url(#p6346fca193)" d="M 69.218182 242.059689 
L 71.672727 241.824961 
L 74.127273 241.374738 
L 76.581818 240.533796 
L 79.036364 239.055417 
L 81.490909 236.977101 
L 83.945455 234.984382 
L 86.4 233.725046 
L 88.854545 233.074532 
L 91.309091 232.681319 
L 93.763636 232.376553 
L 96.218182 232.110335 
L 98.672727 231.871086 
L 101.127273 231.656974 
L 103.581818 231.467996 
L 106.036364 231.303969 
L 108.490909 231.1641 
L 110.945455 231.046989 
L 113.4 230.950781 
L 115.854545 230.873343 
L 118.309091 230.812429 
L 120.763636 230.765814 
L 123.218182 230.731405 
L 125.672727 230.707308 
L 128.127273 230.69187 
L 130.581818 212.831682 
L 133.036364 210.826061 
L 135.490909 209.318011 
L 137.945455 208.616048 
L 140.4 208.865081 
L 142.854545 210.103874 
L 145.309091 212.195554 
L 147.763636 214.799686 
L 150.218182 217.487354 
L 152.672727 219.922586 
L 155.127273 221.949905 
L 157.581818 223.558345 
L 160.036364 224.805794 
L 162.490909 225.765375 
L 164.945455 226.50171 
L 167.4 227.06494 
L 169.854545 227.492036 
L 172.309091 227.810068 
L 174.763636 228.039303 
L 177.218182 228.195515 
L 179.672727 228.291457 
L 182.127273 228.337759 
L 184.581818 228.343443 
L 187.036364 228.316213 
L 189.490909 228.262652 
L 191.945455 232.727411 
L 194.4 232.797928 
L 196.854545 232.885084 
L 199.309091 232.963844 
L 201.763636 233.026718 
L 204.218182 233.073122 
L 206.672727 233.104989 
L 209.127273 233.124999 
L 211.581818 233.135875 
L 214.036364 233.140068 
L 216.490909 233.139651 
L 218.945455 233.136293 
L 221.4 233.131292 
L 223.854545 233.125617 
L 226.309091 233.119963 
L 228.763636 233.114795 
L 231.218182 233.110414 
L 233.672727 233.106976 
L 236.127273 233.104548 
L 238.581818 233.103123 
L 241.036364 233.102651 
L 243.490909 233.103045 
L 245.945455 233.1042 
L 248.4 233.106015 
L 250.854545 233.108375 
L 253.309091 233.111172 
L 255.763636 233.11431 
L 258.218182 233.117697 
L 260.672727 233.121249 
L 263.127273 233.124898 
L 265.581818 233.128586 
L 268.036364 233.132255 
L 270.490909 233.135867 
L 272.945455 233.139385 
L 275.4 233.14278 
L 277.854545 233.146035 
L 280.309091 233.149133 
L 282.763636 233.15206 
L 285.218182 233.154816 
L 287.672727 233.157392 
L 290.127273 233.159789 
L 292.581818 233.16201 
L 295.036364 233.164056 
L 297.490909 233.165937 
L 299.945455 233.167658 
L 302.4 233.169224 
L 304.854545 233.170643 
L 307.309091 233.171926 
L 309.763636 233.173077 
L 312.218182 233.174106 
L 314.672727 232.657912 
L 317.127273 233.897017 
L 319.581818 234.325693 
L 322.036364 232.603114 
L 324.490909 232.415103 
L 326.945455 233.139959 
L 329.4 233.638913 
L 331.854545 233.828505 
L 334.309091 233.859786 
L 336.763636 233.839346 
L 339.218182 233.815312 
L 341.672727 233.802521 
L 344.127273 233.802005 
L 346.581818 233.810613 
L 349.036364 233.824803 
L 351.490909 233.841878 
L 353.945455 233.86025 
L 356.4 233.879251 
L 358.854545 233.898817 
L 361.309091 233.919163 
L 363.763636 233.940558 
L 366.218182 233.963208 
L 368.672727 233.987206 
L 371.127273 234.012538 
L 373.581818 234.0391 
" style="fill:none;stroke:#0000ff;stroke-linecap:square;stroke-width:1.5;"/>
   </g>
   <g id="line2d_16">
    <path clip-path="url(#p6346fca193)" d="M 69.218182 242.116364 
L 71.672727 241.968654 
L 74.127273 241.706103 
L 76.581818 241.294232 
L 79.036364 240.723629 
L 81.490909 240.073578 
L 83.945455 239.538369 
L 86.4 239.243004 
L 88.854545 239.116356 
L 91.309091 239.054874 
L 93.763636 239.012854 
L 96.218182 238.9769 
L 98.672727 238.943426 
L 101.127273 238.911312 
L 103.581818 238.880063 
L 106.036364 238.849398 
L 108.490909 238.819177 
L 110.945455 238.78938 
L 113.4 238.760084 
L 115.854545 238.731449 
L 118.309091 238.703684 
L 120.763636 238.677022 
L 123.218182 238.651706 
L 125.672727 238.62797 
L 128.127273 238.60603 
L 130.581818 237.992611 
L 133.036364 237.960252 
L 135.490909 237.85498 
L 137.945455 237.722648 
L 140.4 237.586634 
L 142.854545 237.472302 
L 145.309091 237.408279 
L 147.763636 237.415011 
L 150.218182 237.495146 
L 152.672727 237.635445 
L 155.127273 237.815249 
L 157.581818 238.014131 
L 160.036364 238.216156 
L 162.490909 238.410863 
L 164.945455 238.592249 
L 167.4 238.757239 
L 169.854545 238.90448 
L 172.309091 239.033641 
L 174.763636 239.145061 
L 177.218182 239.239578 
L 179.672727 239.3184 
L 182.127273 239.382994 
L 184.581818 239.434979 
L 187.036364 239.476019 
L 189.490909 239.507742 
L 191.945455 239.617344 
L 194.4 239.648073 
L 196.854545 239.678922 
L 199.309091 239.704315 
L 201.763636 239.723185 
L 204.218182 239.736145 
L 206.672727 239.744308 
L 209.127273 239.748818 
L 211.581818 239.750682 
L 214.036364 239.75072 
L 216.490909 239.749563 
L 218.945455 239.747683 
L 221.4 239.745414 
L 223.854545 239.74299 
L 226.309091 239.740566 
L 228.763636 239.738237 
L 231.218182 239.73606 
L 233.672727 239.73406 
L 236.127273 239.732245 
L 238.581818 239.730611 
L 241.036364 239.729146 
L 243.490909 239.727835 
L 245.945455 239.72666 
L 248.4 239.725604 
L 250.854545 239.724652 
L 253.309091 239.723786 
L 255.763636 239.722995 
L 258.218182 239.722268 
L 260.672727 239.721594 
L 263.127273 239.720964 
L 265.581818 239.720374 
L 268.036364 239.719815 
L 270.490909 239.719284 
L 272.945455 239.718777 
L 275.4 239.718291 
L 277.854545 239.717824 
L 280.309091 239.717374 
L 282.763636 239.716938 
L 285.218182 239.716517 
L 287.672727 239.716109 
L 290.127273 239.715712 
L 292.581818 239.715327 
L 295.036364 239.714952 
L 297.490909 239.714587 
L 299.945455 239.714233 
L 302.4 239.713887 
L 304.854545 239.713549 
L 307.309091 239.713221 
L 309.763636 239.7129 
L 312.218182 239.712587 
L 314.672727 238.964382 
L 317.127273 239.037819 
L 319.581818 239.500586 
L 322.036364 239.867345 
L 324.490909 240.032876 
L 326.945455 240.138835 
L 329.4 240.150268 
L 331.854545 240.114561 
L 334.309091 240.07205 
L 336.763636 240.040233 
L 339.218182 240.022116 
L 341.672727 240.014895 
L 344.127273 240.014743 
L 346.581818 240.018536 
L 349.036364 240.024124 
L 351.490909 240.030164 
L 353.945455 240.035884 
L 356.4 240.040881 
L 358.854545 240.044979 
L 361.309091 240.048123 
L 363.763636 240.050326 
L 366.218182 240.051631 
L 368.672727 240.052092 
L 371.127273 240.05177 
L 373.581818 240.050721 
" style="fill:none;stroke:#008000;stroke-linecap:square;stroke-width:1.5;"/>
   </g>
   <g id="line2d_17">
    <path clip-path="url(#p6346fca193)" d="M 69.218182 241.893478 
L 71.672727 241.441492 
L 74.127273 240.68461 
L 76.581818 239.635396 
L 79.036364 238.439766 
L 81.490909 237.369737 
L 83.945455 236.683304 
L 86.4 236.398119 
L 88.854545 236.315077 
L 91.309091 236.273482 
L 93.763636 236.218047 
L 96.218182 236.140365 
L 98.672727 236.044009 
L 101.127273 235.934272 
L 103.581818 235.815894 
L 106.036364 235.692745 
L 108.490909 235.567923 
L 110.945455 235.443893 
L 113.4 235.322595 
L 115.854545 235.205571 
L 118.309091 235.094028 
L 120.763636 234.988896 
L 123.218182 234.89089 
L 125.672727 234.800547 
L 128.127273 234.718261 
L 130.581818 234.191012 
L 133.036364 234.086432 
L 135.490909 233.977108 
L 137.945455 233.902767 
L 140.4 233.864439 
L 142.854545 233.862576 
L 145.309091 233.91028 
L 147.763636 234.027497 
L 150.218182 234.226754 
L 152.672727 234.505774 
L 155.127273 234.849184 
L 157.581818 235.234902 
L 160.036364 235.640941 
L 162.490909 236.049485 
L 164.945455 236.447742 
L 167.4 236.827098 
L 169.854545 237.181977 
L 172.309091 237.509015 
L 174.763636 237.806532 
L 177.218182 238.074176 
L 179.672727 238.312619 
L 182.127273 238.523297 
L 184.581818 238.70816 
L 187.036364 238.869465 
L 189.490909 239.009601 
L 191.945455 239.249325 
L 194.4 239.405605 
L 196.854545 239.551011 
L 199.309091 239.677695 
L 201.763636 239.784195 
L 204.218182 239.871754 
L 206.672727 239.942662 
L 209.127273 239.999487 
L 211.581818 240.044707 
L 214.036364 240.080535 
L 216.490909 240.108861 
L 218.945455 240.131249 
L 221.4 240.148967 
L 223.854545 240.163027 
L 226.309091 240.174229 
L 228.763636 240.183198 
L 231.218182 240.190423 
L 233.672727 240.196283 
L 236.127273 240.201073 
L 238.581818 240.205018 
L 241.036364 240.208296 
L 243.490909 240.211041 
L 245.945455 240.213359 
L 248.4 240.21533 
L 250.854545 240.217019 
L 253.309091 240.218473 
L 255.763636 240.219733 
L 258.218182 240.220828 
L 260.672727 240.221783 
L 263.127273 240.222618 
L 265.581818 240.223348 
L 268.036364 240.223985 
L 270.490909 240.224542 
L 272.945455 240.225026 
L 275.4 240.225446 
L 277.854545 240.225808 
L 280.309091 240.226118 
L 282.763636 240.22638 
L 285.218182 240.226601 
L 287.672727 240.226783 
L 290.127273 240.226929 
L 292.581818 240.227044 
L 295.036364 240.227129 
L 297.490909 240.227189 
L 299.945455 240.227225 
L 302.4 240.22724 
L 304.854545 240.227235 
L 307.309091 240.227212 
L 309.763636 240.227173 
L 312.218182 240.22712 
L 314.672727 239.098924 
L 317.127273 238.587788 
L 319.581818 238.875471 
L 322.036364 239.597141 
L 324.490909 239.906101 
L 326.945455 240.135205 
L 329.4 240.273449 
L 331.854545 240.350973 
L 334.309091 240.398205 
L 336.763636 240.431611 
L 339.218182 240.457429 
L 341.672727 240.477382 
L 344.127273 240.49211 
L 346.581818 240.50235 
L 349.036364 240.509035 
L 351.490909 240.513093 
L 353.945455 240.515292 
L 356.4 240.516185 
L 358.854545 240.516131 
L 361.309091 240.515335 
L 363.763636 240.513905 
L 366.218182 240.51189 
L 368.672727 240.509306 
L 371.127273 240.506161 
L 373.581818 240.502457 
" style="fill:none;stroke:#00bfbf;stroke-linecap:square;stroke-width:1.5;"/>
   </g>
   <g id="patch_3">
    <path d="M 54 252 
L 54 34.56 
" style="fill:none;stroke:#000000;stroke-linecap:square;stroke-linejoin:miter;stroke-width:0.8;"/>
   </g>
   <g id="patch_4">
    <path d="M 388.8 252 
L 388.8 34.56 
" style="fill:none;stroke:#000000;stroke-linecap:square;stroke-linejoin:miter;stroke-width:0.8;"/>
   </g>
   <g id="patch_5">
    <path d="M 54 252 
L 388.8 252 
" style="fill:none;stroke:#000000;stroke-linecap:square;stroke-linejoin:miter;stroke-width:0.8;"/>
   </g>
   <g id="patch_6">
    <path d="M 54 34.56 
L 388.8 34.56 
" style="fill:none;stroke:#000000;stroke-linecap:square;stroke-linejoin:miter;stroke-width:0.8;"/>
   </g>
   <g id="text_13">
    <!-- l2h00001 : delaygo -->
    <defs>
     <path d="M 9.421875 75.984375 
L 18.40625 75.984375 
L 18.40625 0 
L 9.421875 0 
z
" id="DejaVuSans-6c"/>
     <path d="M 54.890625 33.015625 
L 54.890625 0 
L 45.90625 0 
L 45.90625 32.71875 
Q 45.90625 40.484375 42.875 44.328125 
Q 39.84375 48.1875 33.796875 48.1875 
Q 26.515625 48.1875 22.3125 43.546875 
Q 18.109375 38.921875 18.109375 30.90625 
L 18.109375 0 
L 9.078125 0 
L 9.078125 75.984375 
L 18.109375 75.984375 
L 18.109375 46.1875 
Q 21.34375 51.125 25.703125 53.5625 
Q 30.078125 56 35.796875 56 
Q 45.21875 56 50.046875 50.171875 
Q 54.890625 44.34375 54.890625 33.015625 
z
" id="DejaVuSans-68"/>
     <path id="DejaVuSans-20"/>
     <path d="M 11.71875 12.40625 
L 22.015625 12.40625 
L 22.015625 0 
L 11.71875 0 
z
M 11.71875 51.703125 
L 22.015625 51.703125 
L 22.015625 39.3125 
L 11.71875 39.3125 
z
" id="DejaVuSans-3a"/>
     <path d="M 45.40625 46.390625 
L 45.40625 75.984375 
L 54.390625 75.984375 
L 54.390625 0 
L 45.40625 0 
L 45.40625 8.203125 
Q 42.578125 3.328125 38.25 0.953125 
Q 33.9375 -1.421875 27.875 -1.421875 
Q 17.96875 -1.421875 11.734375 6.484375 
Q 5.515625 14.40625 5.515625 27.296875 
Q 5.515625 40.1875 11.734375 48.09375 
Q 17.96875 56 27.875 56 
Q 33.9375 56 38.25 53.625 
Q 42.578125 51.265625 45.40625 46.390625 
z
M 14.796875 27.296875 
Q 14.796875 17.390625 18.875 11.75 
Q 22.953125 6.109375 30.078125 6.109375 
Q 37.203125 6.109375 41.296875 11.75 
Q 45.40625 17.390625 45.40625 27.296875 
Q 45.40625 37.203125 41.296875 42.84375 
Q 37.203125 48.484375 30.078125 48.484375 
Q 22.953125 48.484375 18.875 42.84375 
Q 14.796875 37.203125 14.796875 27.296875 
z
" id="DejaVuSans-64"/>
     <path d="M 56.203125 29.59375 
L 56.203125 25.203125 
L 14.890625 25.203125 
Q 15.484375 15.921875 20.484375 11.0625 
Q 25.484375 6.203125 34.421875 6.203125 
Q 39.59375 6.203125 44.453125 7.46875 
Q 49.3125 8.734375 54.109375 11.28125 
L 54.109375 2.78125 
Q 49.265625 0.734375 44.1875 -0.34375 
Q 39.109375 -1.421875 33.890625 -1.421875 
Q 20.796875 -1.421875 13.15625 6.1875 
Q 5.515625 13.8125 5.515625 26.8125 
Q 5.515625 40.234375 12.765625 48.109375 
Q 20.015625 56 32.328125 56 
Q 43.359375 56 49.78125 48.890625 
Q 56.203125 41.796875 56.203125 29.59375 
z
M 47.21875 32.234375 
Q 47.125 39.59375 43.09375 43.984375 
Q 39.0625 48.390625 32.421875 48.390625 
Q 24.90625 48.390625 20.390625 44.140625 
Q 15.875 39.890625 15.1875 32.171875 
z
" id="DejaVuSans-65"/>
     <path d="M 34.28125 27.484375 
Q 23.390625 27.484375 19.1875 25 
Q 14.984375 22.515625 14.984375 16.5 
Q 14.984375 11.71875 18.140625 8.90625 
Q 21.296875 6.109375 26.703125 6.109375 
Q 34.1875 6.109375 38.703125 11.40625 
Q 43.21875 16.703125 43.21875 25.484375 
L 43.21875 27.484375 
z
M 52.203125 31.203125 
L 52.203125 0 
L 43.21875 0 
L 43.21875 8.296875 
Q 40.140625 3.328125 35.546875 0.953125 
Q 30.953125 -1.421875 24.3125 -1.421875 
Q 15.921875 -1.421875 10.953125 3.296875 
Q 6 8.015625 6 15.921875 
Q 6 25.140625 12.171875 29.828125 
Q 18.359375 34.515625 30.609375 34.515625 
L 43.21875 34.515625 
L 43.21875 35.40625 
Q 43.21875 41.609375 39.140625 45 
Q 35.0625 48.390625 27.6875 48.390625 
Q 23 48.390625 18.546875 47.265625 
Q 14.109375 46.140625 10.015625 43.890625 
L 10.015625 52.203125 
Q 14.9375 54.109375 19.578125 55.046875 
Q 24.21875 56 28.609375 56 
Q 40.484375 56 46.34375 49.84375 
Q 52.203125 43.703125 52.203125 31.203125 
z
" id="DejaVuSans-61"/>
     <path d="M 32.171875 -5.078125 
Q 28.375 -14.84375 24.75 -17.8125 
Q 21.140625 -20.796875 15.09375 -20.796875 
L 7.90625 -20.796875 
L 7.90625 -13.28125 
L 13.1875 -13.28125 
Q 16.890625 -13.28125 18.9375 -11.515625 
Q 21 -9.765625 23.484375 -3.21875 
L 25.09375 0.875 
L 2.984375 54.6875 
L 12.5 54.6875 
L 29.59375 11.921875 
L 46.6875 54.6875 
L 56.203125 54.6875 
z
" id="DejaVuSans-79"/>
     <path d="M 45.40625 27.984375 
Q 45.40625 37.75 41.375 43.109375 
Q 37.359375 48.484375 30.078125 48.484375 
Q 22.859375 48.484375 18.828125 43.109375 
Q 14.796875 37.75 14.796875 27.984375 
Q 14.796875 18.265625 18.828125 12.890625 
Q 22.859375 7.515625 30.078125 7.515625 
Q 37.359375 7.515625 41.375 12.890625 
Q 45.40625 18.265625 45.40625 27.984375 
z
M 54.390625 6.78125 
Q 54.390625 -7.171875 48.1875 -13.984375 
Q 42 -20.796875 29.203125 -20.796875 
Q 24.46875 -20.796875 20.265625 -20.09375 
Q 16.0625 -19.390625 12.109375 -17.921875 
L 12.109375 -9.1875 
Q 16.0625 -11.328125 19.921875 -12.34375 
Q 23.78125 -13.375 27.78125 -13.375 
Q 36.625 -13.375 41.015625 -8.765625 
Q 45.40625 -4.15625 45.40625 5.171875 
L 45.40625 9.625 
Q 42.625 4.78125 38.28125 2.390625 
Q 33.9375 0 27.875 0 
Q 17.828125 0 11.671875 7.65625 
Q 5.515625 15.328125 5.515625 27.984375 
Q 5.515625 40.671875 11.671875 48.328125 
Q 17.828125 56 27.875 56 
Q 33.9375 56 38.28125 53.609375 
Q 42.625 51.21875 45.40625 46.390625 
L 45.40625 54.6875 
L 54.390625 54.6875 
z
" id="DejaVuSans-67"/>
     <path d="M 30.609375 48.390625 
Q 23.390625 48.390625 19.1875 42.75 
Q 14.984375 37.109375 14.984375 27.296875 
Q 14.984375 17.484375 19.15625 11.84375 
Q 23.34375 6.203125 30.609375 6.203125 
Q 37.796875 6.203125 41.984375 11.859375 
Q 46.1875 17.53125 46.1875 27.296875 
Q 46.1875 37.015625 41.984375 42.703125 
Q 37.796875 48.390625 30.609375 48.390625 
z
M 30.609375 56 
Q 42.328125 56 49.015625 48.375 
Q 55.71875 40.765625 55.71875 27.296875 
Q 55.71875 13.875 49.015625 6.21875 
Q 42.328125 -1.421875 30.609375 -1.421875 
Q 18.84375 -1.421875 12.171875 6.21875 
Q 5.515625 13.875 5.515625 27.296875 
Q 5.515625 40.765625 12.171875 48.375 
Q 18.84375 56 30.609375 56 
z
" id="DejaVuSans-6f"/>
    </defs>
    <g transform="translate(163.314375 28.56)scale(0.12 -0.12)">
     <use xlink:href="#DejaVuSans-6c"/>
     <use x="27.783203" xlink:href="#DejaVuSans-32"/>
     <use x="91.40625" xlink:href="#DejaVuSans-68"/>
     <use x="154.785156" xlink:href="#DejaVuSans-30"/>
     <use x="218.408203" xlink:href="#DejaVuSans-30"/>
     <use x="282.03125" xlink:href="#DejaVuSans-30"/>
     <use x="345.654297" xlink:href="#DejaVuSans-30"/>
     <use x="409.277344" xlink:href="#DejaVuSans-31"/>
     <use x="472.900391" xlink:href="#DejaVuSans-20"/>
     <use x="504.6875" xlink:href="#DejaVuSans-3a"/>
     <use x="538.378906" xlink:href="#DejaVuSans-20"/>
     <use x="570.166016" xlink:href="#DejaVuSans-64"/>
     <use x="633.642578" xlink:href="#DejaVuSans-65"/>
     <use x="695.166016" xlink:href="#DejaVuSans-6c"/>
     <use x="722.949219" xlink:href="#DejaVuSans-61"/>
     <use x="784.228516" xlink:href="#DejaVuSans-79"/>
     <use x="843.408203" xlink:href="#DejaVuSans-67"/>
     <use x="906.884766" xlink:href="#DejaVuSans-6f"/>
    </g>
   </g>
   <g id="legend_1">
    <g id="patch_7">
     <path d="M 61 181.753438 
L 212.785937 181.753438 
Q 214.785937 181.753438 214.785937 179.753438 
L 214.785937 106.806562 
Q 214.785937 104.806562 212.785937 104.806562 
L 61 104.806562 
Q 59 104.806562 59 106.806562 
L 59 179.753438 
Q 59 181.753438 61 181.753438 
z
" style="fill:#ffffff;opacity:0.8;stroke:#cccccc;stroke-linejoin:miter;"/>
    </g>
    <g id="line2d_18">
     <path d="M 63 112.905 
L 83 112.905 
" style="fill:none;stroke:#000000;stroke-linecap:square;stroke-width:1.5;"/>
    </g>
    <g id="line2d_19"/>
    <g id="text_14">
     <!-- dF/dx -->
     <defs>
      <path d="M 9.8125 72.90625 
L 51.703125 72.90625 
L 51.703125 64.59375 
L 19.671875 64.59375 
L 19.671875 43.109375 
L 48.578125 43.109375 
L 48.578125 34.8125 
L 19.671875 34.8125 
L 19.671875 0 
L 9.8125 0 
z
" id="DejaVuSans-46"/>
      <path d="M 25.390625 72.90625 
L 33.6875 72.90625 
L 8.296875 -9.28125 
L 0 -9.28125 
z
" id="DejaVuSans-2f"/>
      <path d="M 54.890625 54.6875 
L 35.109375 28.078125 
L 55.90625 0 
L 45.3125 0 
L 29.390625 21.484375 
L 13.484375 0 
L 2.875 0 
L 24.125 28.609375 
L 4.6875 54.6875 
L 15.28125 54.6875 
L 29.78125 35.203125 
L 44.28125 54.6875 
z
" id="DejaVuSans-78"/>
     </defs>
     <g transform="translate(91 116.405)scale(0.1 -0.1)">
      <use xlink:href="#DejaVuSans-64"/>
      <use x="63.476562" xlink:href="#DejaVuSans-46"/>
      <use x="120.996094" xlink:href="#DejaVuSans-2f"/>
      <use x="154.6875" xlink:href="#DejaVuSans-64"/>
      <use x="218.164062" xlink:href="#DejaVuSans-78"/>
     </g>
    </g>
    <g id="line2d_20">
     <path d="M 63 127.583125 
L 83 127.583125 
" style="fill:none;stroke:#ff0000;stroke-linecap:square;stroke-width:1.5;"/>
    </g>
    <g id="line2d_21"/>
    <g id="text_15">
     <!-- dF/du [fixation] -->
     <defs>
      <path d="M 8.5 21.578125 
L 8.5 54.6875 
L 17.484375 54.6875 
L 17.484375 21.921875 
Q 17.484375 14.15625 20.5 10.265625 
Q 23.53125 6.390625 29.59375 6.390625 
Q 36.859375 6.390625 41.078125 11.03125 
Q 45.3125 15.671875 45.3125 23.6875 
L 45.3125 54.6875 
L 54.296875 54.6875 
L 54.296875 0 
L 45.3125 0 
L 45.3125 8.40625 
Q 42.046875 3.421875 37.71875 1 
Q 33.40625 -1.421875 27.6875 -1.421875 
Q 18.265625 -1.421875 13.375 4.4375 
Q 8.5 10.296875 8.5 21.578125 
z
M 31.109375 56 
z
" id="DejaVuSans-75"/>
      <path d="M 8.59375 75.984375 
L 29.296875 75.984375 
L 29.296875 69 
L 17.578125 69 
L 17.578125 -6.203125 
L 29.296875 -6.203125 
L 29.296875 -13.1875 
L 8.59375 -13.1875 
z
" id="DejaVuSans-5b"/>
      <path d="M 37.109375 75.984375 
L 37.109375 68.5 
L 28.515625 68.5 
Q 23.6875 68.5 21.796875 66.546875 
Q 19.921875 64.59375 19.921875 59.515625 
L 19.921875 54.6875 
L 34.71875 54.6875 
L 34.71875 47.703125 
L 19.921875 47.703125 
L 19.921875 0 
L 10.890625 0 
L 10.890625 47.703125 
L 2.296875 47.703125 
L 2.296875 54.6875 
L 10.890625 54.6875 
L 10.890625 58.5 
Q 10.890625 67.625 15.140625 71.796875 
Q 19.390625 75.984375 28.609375 75.984375 
z
" id="DejaVuSans-66"/>
      <path d="M 9.421875 54.6875 
L 18.40625 54.6875 
L 18.40625 0 
L 9.421875 0 
z
M 9.421875 75.984375 
L 18.40625 75.984375 
L 18.40625 64.59375 
L 9.421875 64.59375 
z
" id="DejaVuSans-69"/>
      <path d="M 18.3125 70.21875 
L 18.3125 54.6875 
L 36.8125 54.6875 
L 36.8125 47.703125 
L 18.3125 47.703125 
L 18.3125 18.015625 
Q 18.3125 11.328125 20.140625 9.421875 
Q 21.96875 7.515625 27.59375 7.515625 
L 36.8125 7.515625 
L 36.8125 0 
L 27.59375 0 
Q 17.1875 0 13.234375 3.875 
Q 9.28125 7.765625 9.28125 18.015625 
L 9.28125 47.703125 
L 2.6875 47.703125 
L 2.6875 54.6875 
L 9.28125 54.6875 
L 9.28125 70.21875 
z
" id="DejaVuSans-74"/>
      <path d="M 54.890625 33.015625 
L 54.890625 0 
L 45.90625 0 
L 45.90625 32.71875 
Q 45.90625 40.484375 42.875 44.328125 
Q 39.84375 48.1875 33.796875 48.1875 
Q 26.515625 48.1875 22.3125 43.546875 
Q 18.109375 38.921875 18.109375 30.90625 
L 18.109375 0 
L 9.078125 0 
L 9.078125 54.6875 
L 18.109375 54.6875 
L 18.109375 46.1875 
Q 21.34375 51.125 25.703125 53.5625 
Q 30.078125 56 35.796875 56 
Q 45.21875 56 50.046875 50.171875 
Q 54.890625 44.34375 54.890625 33.015625 
z
" id="DejaVuSans-6e"/>
      <path d="M 30.421875 75.984375 
L 30.421875 -13.1875 
L 9.71875 -13.1875 
L 9.71875 -6.203125 
L 21.390625 -6.203125 
L 21.390625 69 
L 9.71875 69 
L 9.71875 75.984375 
z
" id="DejaVuSans-5d"/>
     </defs>
     <g transform="translate(91 131.083125)scale(0.1 -0.1)">
      <use xlink:href="#DejaVuSans-64"/>
      <use x="63.476562" xlink:href="#DejaVuSans-46"/>
      <use x="120.996094" xlink:href="#DejaVuSans-2f"/>
      <use x="154.6875" xlink:href="#DejaVuSans-64"/>
      <use x="218.164062" xlink:href="#DejaVuSans-75"/>
      <use x="281.542969" xlink:href="#DejaVuSans-20"/>
      <use x="313.330078" xlink:href="#DejaVuSans-5b"/>
      <use x="352.34375" xlink:href="#DejaVuSans-66"/>
      <use x="387.548828" xlink:href="#DejaVuSans-69"/>
      <use x="415.332031" xlink:href="#DejaVuSans-78"/>
      <use x="474.511719" xlink:href="#DejaVuSans-61"/>
      <use x="535.791016" xlink:href="#DejaVuSans-74"/>
      <use x="575" xlink:href="#DejaVuSans-69"/>
      <use x="602.783203" xlink:href="#DejaVuSans-6f"/>
      <use x="663.964844" xlink:href="#DejaVuSans-6e"/>
      <use x="727.34375" xlink:href="#DejaVuSans-5d"/>
     </g>
    </g>
    <g id="line2d_22">
     <path d="M 63 142.26125 
L 83 142.26125 
" style="fill:none;stroke:#0000ff;stroke-linecap:square;stroke-width:1.5;"/>
    </g>
    <g id="line2d_23"/>
    <g id="text_16">
     <!-- dF/du [stimulus] -->
     <defs>
      <path d="M 44.28125 53.078125 
L 44.28125 44.578125 
Q 40.484375 46.53125 36.375 47.5 
Q 32.28125 48.484375 27.875 48.484375 
Q 21.1875 48.484375 17.84375 46.4375 
Q 14.5 44.390625 14.5 40.28125 
Q 14.5 37.15625 16.890625 35.375 
Q 19.28125 33.59375 26.515625 31.984375 
L 29.59375 31.296875 
Q 39.15625 29.25 43.1875 25.515625 
Q 47.21875 21.78125 47.21875 15.09375 
Q 47.21875 7.46875 41.1875 3.015625 
Q 35.15625 -1.421875 24.609375 -1.421875 
Q 20.21875 -1.421875 15.453125 -0.5625 
Q 10.6875 0.296875 5.421875 2 
L 5.421875 11.28125 
Q 10.40625 8.6875 15.234375 7.390625 
Q 20.0625 6.109375 24.8125 6.109375 
Q 31.15625 6.109375 34.5625 8.28125 
Q 37.984375 10.453125 37.984375 14.40625 
Q 37.984375 18.0625 35.515625 20.015625 
Q 33.0625 21.96875 24.703125 23.78125 
L 21.578125 24.515625 
Q 13.234375 26.265625 9.515625 29.90625 
Q 5.8125 33.546875 5.8125 39.890625 
Q 5.8125 47.609375 11.28125 51.796875 
Q 16.75 56 26.8125 56 
Q 31.78125 56 36.171875 55.265625 
Q 40.578125 54.546875 44.28125 53.078125 
z
" id="DejaVuSans-73"/>
      <path d="M 52 44.1875 
Q 55.375 50.25 60.0625 53.125 
Q 64.75 56 71.09375 56 
Q 79.640625 56 84.28125 50.015625 
Q 88.921875 44.046875 88.921875 33.015625 
L 88.921875 0 
L 79.890625 0 
L 79.890625 32.71875 
Q 79.890625 40.578125 77.09375 44.375 
Q 74.3125 48.1875 68.609375 48.1875 
Q 61.625 48.1875 57.5625 43.546875 
Q 53.515625 38.921875 53.515625 30.90625 
L 53.515625 0 
L 44.484375 0 
L 44.484375 32.71875 
Q 44.484375 40.625 41.703125 44.40625 
Q 38.921875 48.1875 33.109375 48.1875 
Q 26.21875 48.1875 22.15625 43.53125 
Q 18.109375 38.875 18.109375 30.90625 
L 18.109375 0 
L 9.078125 0 
L 9.078125 54.6875 
L 18.109375 54.6875 
L 18.109375 46.1875 
Q 21.1875 51.21875 25.484375 53.609375 
Q 29.78125 56 35.6875 56 
Q 41.65625 56 45.828125 52.96875 
Q 50 49.953125 52 44.1875 
z
" id="DejaVuSans-6d"/>
     </defs>
     <g transform="translate(91 145.76125)scale(0.1 -0.1)">
      <use xlink:href="#DejaVuSans-64"/>
      <use x="63.476562" xlink:href="#DejaVuSans-46"/>
      <use x="120.996094" xlink:href="#DejaVuSans-2f"/>
      <use x="154.6875" xlink:href="#DejaVuSans-64"/>
      <use x="218.164062" xlink:href="#DejaVuSans-75"/>
      <use x="281.542969" xlink:href="#DejaVuSans-20"/>
      <use x="313.330078" xlink:href="#DejaVuSans-5b"/>
      <use x="352.34375" xlink:href="#DejaVuSans-73"/>
      <use x="404.443359" xlink:href="#DejaVuSans-74"/>
      <use x="443.652344" xlink:href="#DejaVuSans-69"/>
      <use x="471.435547" xlink:href="#DejaVuSans-6d"/>
      <use x="568.847656" xlink:href="#DejaVuSans-75"/>
      <use x="632.226562" xlink:href="#DejaVuSans-6c"/>
      <use x="660.009766" xlink:href="#DejaVuSans-75"/>
      <use x="723.388672" xlink:href="#DejaVuSans-73"/>
      <use x="775.488281" xlink:href="#DejaVuSans-5d"/>
     </g>
    </g>
    <g id="line2d_24">
     <path d="M 63 156.939375 
L 83 156.939375 
" style="fill:none;stroke:#008000;stroke-linecap:square;stroke-width:1.5;"/>
    </g>
    <g id="line2d_25"/>
    <g id="text_17">
     <!-- dF/du [context_all] -->
     <defs>
      <path d="M 48.78125 52.59375 
L 48.78125 44.1875 
Q 44.96875 46.296875 41.140625 47.34375 
Q 37.3125 48.390625 33.40625 48.390625 
Q 24.65625 48.390625 19.8125 42.84375 
Q 14.984375 37.3125 14.984375 27.296875 
Q 14.984375 17.28125 19.8125 11.734375 
Q 24.65625 6.203125 33.40625 6.203125 
Q 37.3125 6.203125 41.140625 7.25 
Q 44.96875 8.296875 48.78125 10.40625 
L 48.78125 2.09375 
Q 45.015625 0.34375 40.984375 -0.53125 
Q 36.96875 -1.421875 32.421875 -1.421875 
Q 20.0625 -1.421875 12.78125 6.34375 
Q 5.515625 14.109375 5.515625 27.296875 
Q 5.515625 40.671875 12.859375 48.328125 
Q 20.21875 56 33.015625 56 
Q 37.15625 56 41.109375 55.140625 
Q 45.0625 54.296875 48.78125 52.59375 
z
" id="DejaVuSans-63"/>
      <path d="M 50.984375 -16.609375 
L 50.984375 -23.578125 
L -0.984375 -23.578125 
L -0.984375 -16.609375 
z
" id="DejaVuSans-5f"/>
     </defs>
     <g transform="translate(91 160.439375)scale(0.1 -0.1)">
      <use xlink:href="#DejaVuSans-64"/>
      <use x="63.476562" xlink:href="#DejaVuSans-46"/>
      <use x="120.996094" xlink:href="#DejaVuSans-2f"/>
      <use x="154.6875" xlink:href="#DejaVuSans-64"/>
      <use x="218.164062" xlink:href="#DejaVuSans-75"/>
      <use x="281.542969" xlink:href="#DejaVuSans-20"/>
      <use x="313.330078" xlink:href="#DejaVuSans-5b"/>
      <use x="352.34375" xlink:href="#DejaVuSans-63"/>
      <use x="407.324219" xlink:href="#DejaVuSans-6f"/>
      <use x="468.505859" xlink:href="#DejaVuSans-6e"/>
      <use x="531.884766" xlink:href="#DejaVuSans-74"/>
      <use x="571.09375" xlink:href="#DejaVuSans-65"/>
      <use x="632.601562" xlink:href="#DejaVuSans-78"/>
      <use x="691.78125" xlink:href="#DejaVuSans-74"/>
      <use x="730.990234" xlink:href="#DejaVuSans-5f"/>
      <use x="780.990234" xlink:href="#DejaVuSans-61"/>
      <use x="842.269531" xlink:href="#DejaVuSans-6c"/>
      <use x="870.052734" xlink:href="#DejaVuSans-6c"/>
      <use x="897.835938" xlink:href="#DejaVuSans-5d"/>
     </g>
    </g>
    <g id="line2d_26">
     <path d="M 63 171.895625 
L 83 171.895625 
" style="fill:none;stroke:#00bfbf;stroke-linecap:square;stroke-width:1.5;"/>
    </g>
    <g id="line2d_27"/>
    <g id="text_18">
     <!-- dF/du [context_specific] -->
     <defs>
      <path d="M 18.109375 8.203125 
L 18.109375 -20.796875 
L 9.078125 -20.796875 
L 9.078125 54.6875 
L 18.109375 54.6875 
L 18.109375 46.390625 
Q 20.953125 51.265625 25.265625 53.625 
Q 29.59375 56 35.59375 56 
Q 45.5625 56 51.78125 48.09375 
Q 58.015625 40.1875 58.015625 27.296875 
Q 58.015625 14.40625 51.78125 6.484375 
Q 45.5625 -1.421875 35.59375 -1.421875 
Q 29.59375 -1.421875 25.265625 0.953125 
Q 20.953125 3.328125 18.109375 8.203125 
z
M 48.6875 27.296875 
Q 48.6875 37.203125 44.609375 42.84375 
Q 40.53125 48.484375 33.40625 48.484375 
Q 26.265625 48.484375 22.1875 42.84375 
Q 18.109375 37.203125 18.109375 27.296875 
Q 18.109375 17.390625 22.1875 11.75 
Q 26.265625 6.109375 33.40625 6.109375 
Q 40.53125 6.109375 44.609375 11.75 
Q 48.6875 17.390625 48.6875 27.296875 
z
" id="DejaVuSans-70"/>
     </defs>
     <g transform="translate(91 175.395625)scale(0.1 -0.1)">
      <use xlink:href="#DejaVuSans-64"/>
      <use x="63.476562" xlink:href="#DejaVuSans-46"/>
      <use x="120.996094" xlink:href="#DejaVuSans-2f"/>
      <use x="154.6875" xlink:href="#DejaVuSans-64"/>
      <use x="218.164062" xlink:href="#DejaVuSans-75"/>
      <use x="281.542969" xlink:href="#DejaVuSans-20"/>
      <use x="313.330078" xlink:href="#DejaVuSans-5b"/>
      <use x="352.34375" xlink:href="#DejaVuSans-63"/>
      <use x="407.324219" xlink:href="#DejaVuSans-6f"/>
      <use x="468.505859" xlink:href="#DejaVuSans-6e"/>
      <use x="531.884766" xlink:href="#DejaVuSans-74"/>
      <use x="571.09375" xlink:href="#DejaVuSans-65"/>
      <use x="632.601562" xlink:href="#DejaVuSans-78"/>
      <use x="691.78125" xlink:href="#DejaVuSans-74"/>
      <use x="730.990234" xlink:href="#DejaVuSans-5f"/>
      <use x="780.990234" xlink:href="#DejaVuSans-73"/>
      <use x="833.089844" xlink:href="#DejaVuSans-70"/>
      <use x="896.566406" xlink:href="#DejaVuSans-65"/>
      <use x="958.089844" xlink:href="#DejaVuSans-63"/>
      <use x="1013.070312" xlink:href="#DejaVuSans-69"/>
      <use x="1040.853516" xlink:href="#DejaVuSans-66"/>
      <use x="1076.058594" xlink:href="#DejaVuSans-69"/>
      <use x="1103.841797" xlink:href="#DejaVuSans-63"/>
      <use x="1158.822266" xlink:href="#DejaVuSans-5d"/>
     </g>
    </g>
   </g>
  </g>
 </g>
 <defs>
  <clipPath id="p6346fca193">
   <rect height="217.44" width="334.8" x="54" y="34.56"/>
  </clipPath>
 </defs>
</svg>
