<?xml version="1.0" encoding="utf-8" standalone="no"?>
<!DOCTYPE svg PUBLIC "-//W3C//DTD SVG 1.1//EN"
  "http://www.w3.org/Graphics/SVG/1.1/DTD/svg11.dtd">
<!-- Created with matplotlib (http://matplotlib.org/) -->
<svg height="288pt" version="1.1" viewBox="0 0 288 288" width="288pt" xmlns="http://www.w3.org/2000/svg" xmlns:xlink="http://www.w3.org/1999/xlink">
 <defs>
  <style type="text/css">
*{stroke-linecap:butt;stroke-linejoin:round;}
  </style>
 </defs>
 <g id="figure_1">
  <g id="patch_1">
   <path d="M 0 288 
L 288 288 
L 288 0 
L 0 0 
z
" style="fill:#ffffff;"/>
  </g>
  <g id="axes_1">
   <g id="patch_2">
    <path d="M 36 256.32 
L 259.2 256.32 
L 259.2 34.56 
L 36 34.56 
z
" style="fill:#ffffff;"/>
   </g>
   <g id="PathCollection_1">
    <path clip-path="url(#p9ffe92ba86)" d="M 170.54212 197.944676 
C 171.855993 197.944676 173.116231 197.422668 174.04528 196.49362 
C 174.974328 195.564571 175.496336 194.304333 175.496336 192.99046 
C 175.496336 191.676587 174.974328 190.416349 174.04528 189.487301 
C 173.116231 188.558252 171.855993 188.036245 170.54212 188.036245 
C 169.228247 188.036245 167.968009 188.558252 167.038961 189.487301 
C 166.109912 190.416349 165.587905 191.676587 165.587905 192.99046 
C 165.587905 194.304333 166.109912 195.564571 167.038961 196.49362 
C 167.968009 197.422668 169.228247 197.944676 170.54212 197.944676 
z
" style="fill:#008000;fill-opacity:0.5;stroke:#008000;stroke-opacity:0.5;"/>
    <path clip-path="url(#p9ffe92ba86)" d="M 170.54212 197.944676 
C 171.855993 197.944676 173.116231 197.422668 174.04528 196.49362 
C 174.974328 195.564571 175.496336 194.304333 175.496336 192.99046 
C 175.496336 191.676587 174.974328 190.416349 174.04528 189.487301 
C 173.116231 188.558252 171.855993 188.036245 170.54212 188.036245 
C 169.228247 188.036245 167.968009 188.558252 167.038961 189.487301 
C 166.109912 190.416349 165.587905 191.676587 165.587905 192.99046 
C 165.587905 194.304333 166.109912 195.564571 167.038961 196.49362 
C 167.968009 197.422668 169.228247 197.944676 170.54212 197.944676 
z
" style="fill:#008000;fill-opacity:0.5;stroke:#008000;stroke-opacity:0.5;"/>
    <path clip-path="url(#p9ffe92ba86)" d="M 170.343582 198.78773 
C 171.663373 198.78773 172.929286 198.263372 173.862519 197.330139 
C 174.795752 196.396906 175.320111 195.130993 175.320111 193.811202 
C 175.320111 192.491411 174.795752 191.225498 173.862519 190.292265 
C 172.929286 189.359032 171.663373 188.834673 170.343582 188.834673 
C 169.023791 188.834673 167.757878 189.359032 166.824645 190.292265 
C 165.891412 191.225498 165.367054 192.491411 165.367054 193.811202 
C 165.367054 195.130993 165.891412 196.396906 166.824645 197.330139 
C 167.757878 198.263372 169.023791 198.78773 170.343582 198.78773 
z
" style="fill:#008000;fill-opacity:0.5;stroke:#008000;stroke-opacity:0.5;"/>
    <path clip-path="url(#p9ffe92ba86)" d="M 170.343582 198.78773 
C 171.663373 198.78773 172.929286 198.263372 173.862519 197.330139 
C 174.795752 196.396906 175.320111 195.130993 175.320111 193.811202 
C 175.320111 192.491411 174.795752 191.225498 173.862519 190.292265 
C 172.929286 189.359032 171.663373 188.834673 170.343582 188.834673 
C 169.023791 188.834673 167.757878 189.359032 166.824645 190.292265 
C 165.891412 191.225498 165.367054 192.491411 165.367054 193.811202 
C 165.367054 195.130993 165.891412 196.396906 166.824645 197.330139 
C 167.757878 198.263372 169.023791 198.78773 170.343582 198.78773 
z
" style="fill:#008000;fill-opacity:0.5;stroke:#008000;stroke-opacity:0.5;"/>
    <path clip-path="url(#p9ffe92ba86)" d="M 86.986355 201.216135 
C 88.310696 201.216135 89.580973 200.689969 90.517423 199.753518 
C 91.453874 198.817068 91.98004 197.546791 91.98004 196.22245 
C 91.98004 194.898109 91.453874 193.627832 90.517423 192.691382 
C 89.580973 191.754931 88.310696 191.228765 86.986355 191.228765 
C 85.662014 191.228765 84.391737 191.754931 83.455287 192.691382 
C 82.518836 193.627832 81.99267 194.898109 81.99267 196.22245 
C 81.99267 197.546791 82.518836 198.817068 83.455287 199.753518 
C 84.391737 200.689969 85.662014 201.216135 86.986355 201.216135 
z
" style="fill:#008000;fill-opacity:0.5;stroke:#008000;stroke-opacity:0.5;"/>
    <path clip-path="url(#p9ffe92ba86)" d="M 86.986355 201.216135 
C 88.310696 201.216135 89.580973 200.689969 90.517423 199.753518 
C 91.453874 198.817068 91.98004 197.546791 91.98004 196.22245 
C 91.98004 194.898109 91.453874 193.627832 90.517423 192.691382 
C 89.580973 191.754931 88.310696 191.228765 86.986355 191.228765 
C 85.662014 191.228765 84.391737 191.754931 83.455287 192.691382 
C 82.518836 193.627832 81.99267 194.898109 81.99267 196.22245 
C 81.99267 197.546791 82.518836 198.817068 83.455287 199.753518 
C 84.391737 200.689969 85.662014 201.216135 86.986355 201.216135 
z
" style="fill:#008000;fill-opacity:0.5;stroke:#008000;stroke-opacity:0.5;"/>
    <path clip-path="url(#p9ffe92ba86)" d="M 72.634247 164.175532 
C 73.969616 164.175532 75.250472 163.644984 76.19472 162.700736 
C 77.138969 161.756487 77.669516 160.475632 77.669516 159.140263 
C 77.669516 157.804894 77.138969 156.524039 76.19472 155.57979 
C 75.250472 154.635542 73.969616 154.104994 72.634247 154.104994 
C 71.298879 154.104994 70.018023 154.635542 69.073775 155.57979 
C 68.129526 156.524039 67.598979 157.804894 67.598979 159.140263 
C 67.598979 160.475632 68.129526 161.756487 69.073775 162.700736 
C 70.018023 163.644984 71.298879 164.175532 72.634247 164.175532 
z
" style="fill:#008000;fill-opacity:0.5;stroke:#008000;stroke-opacity:0.5;"/>
    <path clip-path="url(#p9ffe92ba86)" d="M 154.225665 241.342459 
C 155.543338 241.342459 156.80722 240.818942 157.738956 239.887206 
C 158.670691 238.955471 159.194208 237.691589 159.194208 236.373916 
C 159.194208 235.056242 158.670691 233.79236 157.738956 232.860625 
C 156.80722 231.928889 155.543338 231.405372 154.225665 231.405372 
C 152.907992 231.405372 151.644109 231.928889 150.712374 232.860625 
C 149.780638 233.79236 149.257121 235.056242 149.257121 236.373916 
C 149.257121 237.691589 149.780638 238.955471 150.712374 239.887206 
C 151.644109 240.818942 152.907992 241.342459 154.225665 241.342459 
z
" style="fill:#008000;fill-opacity:0.5;stroke:#008000;stroke-opacity:0.5;"/>
    <path clip-path="url(#p9ffe92ba86)" d="M 85.343594 202.587192 
C 86.666721 202.587192 87.935834 202.061508 88.871427 201.125915 
C 89.807019 200.190323 90.332703 198.92121 90.332703 197.598082 
C 90.332703 196.274955 89.807019 195.005842 88.871427 194.07025 
C 87.935834 193.134657 86.666721 192.608973 85.343594 192.608973 
C 84.020467 192.608973 82.751353 193.134657 81.815761 194.07025 
C 80.880169 195.005842 80.354485 196.274955 80.354485 197.598082 
C 80.354485 198.92121 80.880169 200.190323 81.815761 201.125915 
C 82.751353 202.061508 84.020467 202.587192 85.343594 202.587192 
z
" style="fill:#008000;fill-opacity:0.5;stroke:#008000;stroke-opacity:0.5;"/>
    <path clip-path="url(#p9ffe92ba86)" d="M 85.343594 202.587192 
C 86.666721 202.587192 87.935834 202.061508 88.871427 201.125915 
C 89.807019 200.190323 90.332703 198.92121 90.332703 197.598082 
C 90.332703 196.274955 89.807019 195.005842 88.871427 194.07025 
C 87.935834 193.134657 86.666721 192.608973 85.343594 192.608973 
C 84.020467 192.608973 82.751353 193.134657 81.815761 194.07025 
C 80.880169 195.005842 80.354485 196.274955 80.354485 197.598082 
C 80.354485 198.92121 80.880169 200.190323 81.815761 201.125915 
C 82.751353 202.061508 84.020467 202.587192 85.343594 202.587192 
z
" style="fill:#008000;fill-opacity:0.5;stroke:#008000;stroke-opacity:0.5;"/>
    <path clip-path="url(#p9ffe92ba86)" d="M 158.591993 199.73557 
C 159.902028 199.73557 161.158584 199.215087 162.084918 198.288753 
C 163.011253 197.362418 163.531735 196.105862 163.531735 194.795827 
C 163.531735 193.485792 163.011253 192.229237 162.084918 191.302902 
C 161.158584 190.376567 159.902028 189.856085 158.591993 189.856085 
C 157.281958 189.856085 156.025402 190.376567 155.099067 191.302902 
C 154.172733 192.229237 153.65225 193.485792 153.65225 194.795827 
C 153.65225 196.105862 154.172733 197.362418 155.099067 198.288753 
C 156.025402 199.215087 157.281958 199.73557 158.591993 199.73557 
z
" style="fill:#008000;fill-opacity:0.5;stroke:#008000;stroke-opacity:0.5;"/>
    <path clip-path="url(#p9ffe92ba86)" d="M 158.591993 199.73557 
C 159.902028 199.73557 161.158584 199.215087 162.084918 198.288753 
C 163.011253 197.362418 163.531735 196.105862 163.531735 194.795827 
C 163.531735 193.485792 163.011253 192.229237 162.084918 191.302902 
C 161.158584 190.376567 159.902028 189.856085 158.591993 189.856085 
C 157.281958 189.856085 156.025402 190.376567 155.099067 191.302902 
C 154.172733 192.229237 153.65225 193.485792 153.65225 194.795827 
C 153.65225 196.105862 154.172733 197.362418 155.099067 198.288753 
C 156.025402 199.215087 157.281958 199.73557 158.591993 199.73557 
z
" style="fill:#008000;fill-opacity:0.5;stroke:#008000;stroke-opacity:0.5;"/>
    <path clip-path="url(#p9ffe92ba86)" d="M 135.074662 210.686904 
C 136.391931 210.686904 137.655426 210.163547 138.586877 209.232097 
C 139.518327 208.300646 140.041684 207.037151 140.041684 205.719881 
C 140.041684 204.402612 139.518327 203.139117 138.586877 202.207666 
C 137.655426 201.276216 136.391931 200.752859 135.074662 200.752859 
C 133.757392 200.752859 132.493897 201.276216 131.562446 202.207666 
C 130.630996 203.139117 130.107639 204.402612 130.107639 205.719881 
C 130.107639 207.037151 130.630996 208.300646 131.562446 209.232097 
C 132.493897 210.163547 133.757392 210.686904 135.074662 210.686904 
z
" style="fill:#008000;fill-opacity:0.5;stroke:#008000;stroke-opacity:0.5;"/>
    <path clip-path="url(#p9ffe92ba86)" d="M 135.074662 210.686904 
C 136.391931 210.686904 137.655426 210.163547 138.586877 209.232097 
C 139.518327 208.300646 140.041684 207.037151 140.041684 205.719881 
C 140.041684 204.402612 139.518327 203.139117 138.586877 202.207666 
C 137.655426 201.276216 136.391931 200.752859 135.074662 200.752859 
C 133.757392 200.752859 132.493897 201.276216 131.562446 202.207666 
C 130.630996 203.139117 130.107639 204.402612 130.107639 205.719881 
C 130.107639 207.037151 130.630996 208.300646 131.562446 209.232097 
C 132.493897 210.163547 133.757392 210.686904 135.074662 210.686904 
z
" style="fill:#008000;fill-opacity:0.5;stroke:#008000;stroke-opacity:0.5;"/>
    <path clip-path="url(#p9ffe92ba86)" d="M 154.392889 189.696091 
C 155.694393 189.696091 156.942766 189.178998 157.863069 188.258696 
C 158.783371 187.338394 159.300464 186.090021 159.300464 184.788517 
C 159.300464 183.487013 158.783371 182.23864 157.863069 181.318337 
C 156.942766 180.398035 155.694393 179.880942 154.392889 179.880942 
C 153.091385 179.880942 151.843012 180.398035 150.92271 181.318337 
C 150.002408 182.23864 149.485315 183.487013 149.485315 184.788517 
C 149.485315 186.090021 150.002408 187.338394 150.92271 188.258696 
C 151.843012 189.178998 153.091385 189.696091 154.392889 189.696091 
z
" style="fill:#008000;fill-opacity:0.5;stroke:#008000;stroke-opacity:0.5;"/>
    <path clip-path="url(#p9ffe92ba86)" d="M 223.903336 212.781952 
C 225.171274 212.781952 226.387451 212.278195 227.284018 211.381628 
C 228.180586 210.48506 228.684343 209.268883 228.684343 208.000945 
C 228.684343 206.733007 228.180586 205.51683 227.284018 204.620263 
C 226.387451 203.723695 225.171274 203.219938 223.903336 203.219938 
C 222.635398 203.219938 221.419221 203.723695 220.522654 204.620263 
C 219.626086 205.51683 219.122329 206.733007 219.122329 208.000945 
C 219.122329 209.268883 219.626086 210.48506 220.522654 211.381628 
C 221.419221 212.278195 222.635398 212.781952 223.903336 212.781952 
z
" style="fill:#008000;fill-opacity:0.5;stroke:#008000;stroke-opacity:0.5;"/>
   </g>
   <g id="PathCollection_2">
    <path clip-path="url(#p9ffe92ba86)" d="M 170.54212 217.910234 
C 171.855993 217.910234 173.116231 217.388227 174.04528 216.459178 
C 174.974328 215.530129 175.496336 214.269892 175.496336 212.956019 
C 175.496336 211.642145 174.974328 210.381908 174.04528 209.452859 
C 173.116231 208.52381 171.855993 208.001803 170.54212 208.001803 
C 169.228247 208.001803 167.968009 208.52381 167.038961 209.452859 
C 166.109912 210.381908 165.587905 211.642145 165.587905 212.956019 
C 165.587905 214.269892 166.109912 215.530129 167.038961 216.459178 
C 167.968009 217.388227 169.228247 217.910234 170.54212 217.910234 
z
" style="fill-opacity:0.5;stroke:#000000;stroke-opacity:0.5;"/>
    <path clip-path="url(#p9ffe92ba86)" d="M 170.54212 217.910234 
C 171.855993 217.910234 173.116231 217.388227 174.04528 216.459178 
C 174.974328 215.530129 175.496336 214.269892 175.496336 212.956019 
C 175.496336 211.642145 174.974328 210.381908 174.04528 209.452859 
C 173.116231 208.52381 171.855993 208.001803 170.54212 208.001803 
C 169.228247 208.001803 167.968009 208.52381 167.038961 209.452859 
C 166.109912 210.381908 165.587905 211.642145 165.587905 212.956019 
C 165.587905 214.269892 166.109912 215.530129 167.038961 216.459178 
C 167.968009 217.388227 169.228247 217.910234 170.54212 217.910234 
z
" style="fill-opacity:0.5;stroke:#000000;stroke-opacity:0.5;"/>
    <path clip-path="url(#p9ffe92ba86)" d="M 170.343582 218.08971 
C 171.663373 218.08971 172.929286 217.565352 173.862519 216.632119 
C 174.795752 215.698885 175.320111 214.432972 175.320111 213.113181 
C 175.320111 211.793391 174.795752 210.527477 173.862519 209.594244 
C 172.929286 208.661011 171.663373 208.136653 170.343582 208.136653 
C 169.023791 208.136653 167.757878 208.661011 166.824645 209.594244 
C 165.891412 210.527477 165.367054 211.793391 165.367054 213.113181 
C 165.367054 214.432972 165.891412 215.698885 166.824645 216.632119 
C 167.757878 217.565352 169.023791 218.08971 170.343582 218.08971 
z
" style="fill-opacity:0.5;stroke:#000000;stroke-opacity:0.5;"/>
    <path clip-path="url(#p9ffe92ba86)" d="M 170.343582 218.08971 
C 171.663373 218.08971 172.929286 217.565352 173.862519 216.632119 
C 174.795752 215.698885 175.320111 214.432972 175.320111 213.113181 
C 175.320111 211.793391 174.795752 210.527477 173.862519 209.594244 
C 172.929286 208.661011 171.663373 208.136653 170.343582 208.136653 
C 169.023791 208.136653 167.757878 208.661011 166.824645 209.594244 
C 165.891412 210.527477 165.367054 211.793391 165.367054 213.113181 
C 165.367054 214.432972 165.891412 215.698885 166.824645 216.632119 
C 167.757878 217.565352 169.023791 218.08971 170.343582 218.08971 
z
" style="fill-opacity:0.5;stroke:#000000;stroke-opacity:0.5;"/>
    <path clip-path="url(#p9ffe92ba86)" d="M 86.986355 220.334741 
C 88.310696 220.334741 89.580973 219.808575 90.517423 218.872125 
C 91.453874 217.935674 91.98004 216.665397 91.98004 215.341056 
C 91.98004 214.016716 91.453874 212.746438 90.517423 211.809988 
C 89.580973 210.873538 88.310696 210.347372 86.986355 210.347372 
C 85.662014 210.347372 84.391737 210.873538 83.455287 211.809988 
C 82.518836 212.746438 81.99267 214.016716 81.99267 215.341056 
C 81.99267 216.665397 82.518836 217.935674 83.455287 218.872125 
C 84.391737 219.808575 85.662014 220.334741 86.986355 220.334741 
z
" style="fill-opacity:0.5;stroke:#000000;stroke-opacity:0.5;"/>
    <path clip-path="url(#p9ffe92ba86)" d="M 86.986355 220.334741 
C 88.310696 220.334741 89.580973 219.808575 90.517423 218.872125 
C 91.453874 217.935674 91.98004 216.665397 91.98004 215.341056 
C 91.98004 214.016716 91.453874 212.746438 90.517423 211.809988 
C 89.580973 210.873538 88.310696 210.347372 86.986355 210.347372 
C 85.662014 210.347372 84.391737 210.873538 83.455287 211.809988 
C 82.518836 212.746438 81.99267 214.016716 81.99267 215.341056 
C 81.99267 216.665397 82.518836 217.935674 83.455287 218.872125 
C 84.391737 219.808575 85.662014 220.334741 86.986355 220.334741 
z
" style="fill-opacity:0.5;stroke:#000000;stroke-opacity:0.5;"/>
    <path clip-path="url(#p9ffe92ba86)" d="M 72.634247 51.421398 
C 73.969616 51.421398 75.250472 50.89085 76.19472 49.946602 
C 77.138969 49.002353 77.669516 47.721498 77.669516 46.386129 
C 77.669516 45.05076 77.138969 43.769905 76.19472 42.825656 
C 75.250472 41.881408 73.969616 41.35086 72.634247 41.35086 
C 71.298879 41.35086 70.018023 41.881408 69.073775 42.825656 
C 68.129526 43.769905 67.598979 45.05076 67.598979 46.386129 
C 67.598979 47.721498 68.129526 49.002353 69.073775 49.946602 
C 70.018023 50.89085 71.298879 51.421398 72.634247 51.421398 
z
" style="fill-opacity:0.5;stroke:#000000;stroke-opacity:0.5;"/>
    <path clip-path="url(#p9ffe92ba86)" d="M 154.225665 113.503652 
C 155.543338 113.503652 156.80722 112.980135 157.738956 112.048399 
C 158.670691 111.116663 159.194208 109.852781 159.194208 108.535108 
C 159.194208 107.217435 158.670691 105.953553 157.738956 105.021817 
C 156.80722 104.090082 155.543338 103.566565 154.225665 103.566565 
C 152.907992 103.566565 151.644109 104.090082 150.712374 105.021817 
C 149.780638 105.953553 149.257121 107.217435 149.257121 108.535108 
C 149.257121 109.852781 149.780638 111.116663 150.712374 112.048399 
C 151.644109 112.980135 152.907992 113.503652 154.225665 113.503652 
z
" style="fill-opacity:0.5;stroke:#000000;stroke-opacity:0.5;"/>
    <path clip-path="url(#p9ffe92ba86)" d="M 85.343594 221.643994 
C 86.666721 221.643994 87.935834 221.11831 88.871427 220.182718 
C 89.807019 219.247126 90.332703 217.978013 90.332703 216.654885 
C 90.332703 215.331758 89.807019 214.062645 88.871427 213.127053 
C 87.935834 212.19146 86.666721 211.665776 85.343594 211.665776 
C 84.020467 211.665776 82.751353 212.19146 81.815761 213.127053 
C 80.880169 214.062645 80.354485 215.331758 80.354485 216.654885 
C 80.354485 217.978013 80.880169 219.247126 81.815761 220.182718 
C 82.751353 221.11831 84.020467 221.643994 85.343594 221.643994 
z
" style="fill-opacity:0.5;stroke:#000000;stroke-opacity:0.5;"/>
    <path clip-path="url(#p9ffe92ba86)" d="M 85.343594 221.643994 
C 86.666721 221.643994 87.935834 221.11831 88.871427 220.182718 
C 89.807019 219.247126 90.332703 217.978013 90.332703 216.654885 
C 90.332703 215.331758 89.807019 214.062645 88.871427 213.127053 
C 87.935834 212.19146 86.666721 211.665776 85.343594 211.665776 
C 84.020467 211.665776 82.751353 212.19146 81.815761 213.127053 
C 80.880169 214.062645 80.354485 215.331758 80.354485 216.654885 
C 80.354485 217.978013 80.880169 219.247126 81.815761 220.182718 
C 82.751353 221.11831 84.020467 221.643994 85.343594 221.643994 
z
" style="fill-opacity:0.5;stroke:#000000;stroke-opacity:0.5;"/>
    <path clip-path="url(#p9ffe92ba86)" d="M 158.591993 219.609506 
C 159.902028 219.609506 161.158584 219.089023 162.084918 218.162688 
C 163.011253 217.236354 163.531735 215.979798 163.531735 214.669763 
C 163.531735 213.359728 163.011253 212.103172 162.084918 211.176837 
C 161.158584 210.250503 159.902028 209.73002 158.591993 209.73002 
C 157.281958 209.73002 156.025402 210.250503 155.099067 211.176837 
C 154.172733 212.103172 153.65225 213.359728 153.65225 214.669763 
C 153.65225 215.979798 154.172733 217.236354 155.099067 218.162688 
C 156.025402 219.089023 157.281958 219.609506 158.591993 219.609506 
z
" style="fill-opacity:0.5;stroke:#000000;stroke-opacity:0.5;"/>
    <path clip-path="url(#p9ffe92ba86)" d="M 158.591993 219.609506 
C 159.902028 219.609506 161.158584 219.089023 162.084918 218.162688 
C 163.011253 217.236354 163.531735 215.979798 163.531735 214.669763 
C 163.531735 213.359728 163.011253 212.103172 162.084918 211.176837 
C 161.158584 210.250503 159.902028 209.73002 158.591993 209.73002 
C 157.281958 209.73002 156.025402 210.250503 155.099067 211.176837 
C 154.172733 212.103172 153.65225 213.359728 153.65225 214.669763 
C 153.65225 215.979798 154.172733 217.236354 155.099067 218.162688 
C 156.025402 219.089023 157.281958 219.609506 158.591993 219.609506 
z
" style="fill-opacity:0.5;stroke:#000000;stroke-opacity:0.5;"/>
    <path clip-path="url(#p9ffe92ba86)" d="M 135.074662 226.131309 
C 136.391931 226.131309 137.655426 225.607952 138.586877 224.676502 
C 139.518327 223.745052 140.041684 222.481556 140.041684 221.164287 
C 140.041684 219.847017 139.518327 218.583522 138.586877 217.652071 
C 137.655426 216.720621 136.391931 216.197264 135.074662 216.197264 
C 133.757392 216.197264 132.493897 216.720621 131.562446 217.652071 
C 130.630996 218.583522 130.107639 219.847017 130.107639 221.164287 
C 130.107639 222.481556 130.630996 223.745052 131.562446 224.676502 
C 132.493897 225.607952 133.757392 226.131309 135.074662 226.131309 
z
" style="fill-opacity:0.5;stroke:#000000;stroke-opacity:0.5;"/>
    <path clip-path="url(#p9ffe92ba86)" d="M 135.074662 226.131309 
C 136.391931 226.131309 137.655426 225.607952 138.586877 224.676502 
C 139.518327 223.745052 140.041684 222.481556 140.041684 221.164287 
C 140.041684 219.847017 139.518327 218.583522 138.586877 217.652071 
C 137.655426 216.720621 136.391931 216.197264 135.074662 216.197264 
C 133.757392 216.197264 132.493897 216.720621 131.562446 217.652071 
C 130.630996 218.583522 130.107639 219.847017 130.107639 221.164287 
C 130.107639 222.481556 130.630996 223.745052 131.562446 224.676502 
C 132.493897 225.607952 133.757392 226.131309 135.074662 226.131309 
z
" style="fill-opacity:0.5;stroke:#000000;stroke-opacity:0.5;"/>
    <path clip-path="url(#p9ffe92ba86)" d="M 154.392889 219.556871 
C 155.694393 219.556871 156.942766 219.039778 157.863069 218.119476 
C 158.783371 217.199173 159.300464 215.9508 159.300464 214.649296 
C 159.300464 213.347792 158.783371 212.099419 157.863069 211.179117 
C 156.942766 210.258815 155.694393 209.741722 154.392889 209.741722 
C 153.091385 209.741722 151.843012 210.258815 150.92271 211.179117 
C 150.002408 212.099419 149.485315 213.347792 149.485315 214.649296 
C 149.485315 215.9508 150.002408 217.199173 150.92271 218.119476 
C 151.843012 219.039778 153.091385 219.556871 154.392889 219.556871 
z
" style="fill-opacity:0.5;stroke:#000000;stroke-opacity:0.5;"/>
    <path clip-path="url(#p9ffe92ba86)" d="M 223.903336 216.521201 
C 225.171274 216.521201 226.387451 216.017444 227.284018 215.120876 
C 228.180586 214.224309 228.684343 213.008132 228.684343 211.740194 
C 228.684343 210.472256 228.180586 209.256079 227.284018 208.359512 
C 226.387451 207.462944 225.171274 206.959187 223.903336 206.959187 
C 222.635398 206.959187 221.419221 207.462944 220.522654 208.359512 
C 219.626086 209.256079 219.122329 210.472256 219.122329 211.740194 
C 219.122329 213.008132 219.626086 214.224309 220.522654 215.120876 
C 221.419221 216.017444 222.635398 216.521201 223.903336 216.521201 
z
" style="fill-opacity:0.5;stroke:#000000;stroke-opacity:0.5;"/>
   </g>
   <g id="matplotlib.axis_1">
    <g id="xtick_1">
     <g id="line2d_1">
      <defs>
       <path d="M 0 0 
L 0 3.5 
" id="m9ea99f9439" style="stroke:#000000;stroke-width:0.8;"/>
      </defs>
      <g>
       <use style="stroke:#000000;stroke-width:0.8;" x="64.346535" xlink:href="#m9ea99f9439" y="256.32"/>
      </g>
     </g>
     <g id="text_1">
      <!-- −0.04 -->
      <defs>
       <path d="M 10.59375 35.5 
L 73.1875 35.5 
L 73.1875 27.203125 
L 10.59375 27.203125 
z
" id="DejaVuSans-2212"/>
       <path d="M 31.78125 66.40625 
Q 24.171875 66.40625 20.328125 58.90625 
Q 16.5 51.421875 16.5 36.375 
Q 16.5 21.390625 20.328125 13.890625 
Q 24.171875 6.390625 31.78125 6.390625 
Q 39.453125 6.390625 43.28125 13.890625 
Q 47.125 21.390625 47.125 36.375 
Q 47.125 51.421875 43.28125 58.90625 
Q 39.453125 66.40625 31.78125 66.40625 
z
M 31.78125 74.21875 
Q 44.046875 74.21875 50.515625 64.515625 
Q 56.984375 54.828125 56.984375 36.375 
Q 56.984375 17.96875 50.515625 8.265625 
Q 44.046875 -1.421875 31.78125 -1.421875 
Q 19.53125 -1.421875 13.0625 8.265625 
Q 6.59375 17.96875 6.59375 36.375 
Q 6.59375 54.828125 13.0625 64.515625 
Q 19.53125 74.21875 31.78125 74.21875 
z
" id="DejaVuSans-30"/>
       <path d="M 10.6875 12.40625 
L 21 12.40625 
L 21 0 
L 10.6875 0 
z
" id="DejaVuSans-2e"/>
       <path d="M 37.796875 64.3125 
L 12.890625 25.390625 
L 37.796875 25.390625 
z
M 35.203125 72.90625 
L 47.609375 72.90625 
L 47.609375 25.390625 
L 58.015625 25.390625 
L 58.015625 17.1875 
L 47.609375 17.1875 
L 47.609375 0 
L 37.796875 0 
L 37.796875 17.1875 
L 4.890625 17.1875 
L 4.890625 26.703125 
z
" id="DejaVuSans-34"/>
      </defs>
      <g transform="translate(49.023879 270.918437)scale(0.1 -0.1)">
       <use xlink:href="#DejaVuSans-2212"/>
       <use x="83.789062" xlink:href="#DejaVuSans-30"/>
       <use x="147.412109" xlink:href="#DejaVuSans-2e"/>
       <use x="179.199219" xlink:href="#DejaVuSans-30"/>
       <use x="242.822266" xlink:href="#DejaVuSans-34"/>
      </g>
     </g>
    </g>
    <g id="xtick_2">
     <g id="line2d_2">
      <g>
       <use style="stroke:#000000;stroke-width:0.8;" x="96.962573" xlink:href="#m9ea99f9439" y="256.32"/>
      </g>
     </g>
     <g id="text_2">
      <!-- −0.02 -->
      <defs>
       <path d="M 19.1875 8.296875 
L 53.609375 8.296875 
L 53.609375 0 
L 7.328125 0 
L 7.328125 8.296875 
Q 12.9375 14.109375 22.625 23.890625 
Q 32.328125 33.6875 34.8125 36.53125 
Q 39.546875 41.84375 41.421875 45.53125 
Q 43.3125 49.21875 43.3125 52.78125 
Q 43.3125 58.59375 39.234375 62.25 
Q 35.15625 65.921875 28.609375 65.921875 
Q 23.96875 65.921875 18.8125 64.3125 
Q 13.671875 62.703125 7.8125 59.421875 
L 7.8125 69.390625 
Q 13.765625 71.78125 18.9375 73 
Q 24.125 74.21875 28.421875 74.21875 
Q 39.75 74.21875 46.484375 68.546875 
Q 53.21875 62.890625 53.21875 53.421875 
Q 53.21875 48.921875 51.53125 44.890625 
Q 49.859375 40.875 45.40625 35.40625 
Q 44.1875 33.984375 37.640625 27.21875 
Q 31.109375 20.453125 19.1875 8.296875 
z
" id="DejaVuSans-32"/>
      </defs>
      <g transform="translate(81.639916 270.918437)scale(0.1 -0.1)">
       <use xlink:href="#DejaVuSans-2212"/>
       <use x="83.789062" xlink:href="#DejaVuSans-30"/>
       <use x="147.412109" xlink:href="#DejaVuSans-2e"/>
       <use x="179.199219" xlink:href="#DejaVuSans-30"/>
       <use x="242.822266" xlink:href="#DejaVuSans-32"/>
      </g>
     </g>
    </g>
    <g id="xtick_3">
     <g id="line2d_3">
      <g>
       <use style="stroke:#000000;stroke-width:0.8;" x="129.57861" xlink:href="#m9ea99f9439" y="256.32"/>
      </g>
     </g>
     <g id="text_3">
      <!-- 0.00 -->
      <g transform="translate(118.445798 270.918437)scale(0.1 -0.1)">
       <use xlink:href="#DejaVuSans-30"/>
       <use x="63.623047" xlink:href="#DejaVuSans-2e"/>
       <use x="95.410156" xlink:href="#DejaVuSans-30"/>
       <use x="159.033203" xlink:href="#DejaVuSans-30"/>
      </g>
     </g>
    </g>
    <g id="xtick_4">
     <g id="line2d_4">
      <g>
       <use style="stroke:#000000;stroke-width:0.8;" x="162.194648" xlink:href="#m9ea99f9439" y="256.32"/>
      </g>
     </g>
     <g id="text_4">
      <!-- 0.02 -->
      <g transform="translate(151.061836 270.918437)scale(0.1 -0.1)">
       <use xlink:href="#DejaVuSans-30"/>
       <use x="63.623047" xlink:href="#DejaVuSans-2e"/>
       <use x="95.410156" xlink:href="#DejaVuSans-30"/>
       <use x="159.033203" xlink:href="#DejaVuSans-32"/>
      </g>
     </g>
    </g>
    <g id="xtick_5">
     <g id="line2d_5">
      <g>
       <use style="stroke:#000000;stroke-width:0.8;" x="194.810686" xlink:href="#m9ea99f9439" y="256.32"/>
      </g>
     </g>
     <g id="text_5">
      <!-- 0.04 -->
      <g transform="translate(183.677873 270.918437)scale(0.1 -0.1)">
       <use xlink:href="#DejaVuSans-30"/>
       <use x="63.623047" xlink:href="#DejaVuSans-2e"/>
       <use x="95.410156" xlink:href="#DejaVuSans-30"/>
       <use x="159.033203" xlink:href="#DejaVuSans-34"/>
      </g>
     </g>
    </g>
    <g id="xtick_6">
     <g id="line2d_6">
      <g>
       <use style="stroke:#000000;stroke-width:0.8;" x="227.426723" xlink:href="#m9ea99f9439" y="256.32"/>
      </g>
     </g>
     <g id="text_6">
      <!-- 0.06 -->
      <defs>
       <path d="M 33.015625 40.375 
Q 26.375 40.375 22.484375 35.828125 
Q 18.609375 31.296875 18.609375 23.390625 
Q 18.609375 15.53125 22.484375 10.953125 
Q 26.375 6.390625 33.015625 6.390625 
Q 39.65625 6.390625 43.53125 10.953125 
Q 47.40625 15.53125 47.40625 23.390625 
Q 47.40625 31.296875 43.53125 35.828125 
Q 39.65625 40.375 33.015625 40.375 
z
M 52.59375 71.296875 
L 52.59375 62.3125 
Q 48.875 64.0625 45.09375 64.984375 
Q 41.3125 65.921875 37.59375 65.921875 
Q 27.828125 65.921875 22.671875 59.328125 
Q 17.53125 52.734375 16.796875 39.40625 
Q 19.671875 43.65625 24.015625 45.921875 
Q 28.375 48.1875 33.59375 48.1875 
Q 44.578125 48.1875 50.953125 41.515625 
Q 57.328125 34.859375 57.328125 23.390625 
Q 57.328125 12.15625 50.6875 5.359375 
Q 44.046875 -1.421875 33.015625 -1.421875 
Q 20.359375 -1.421875 13.671875 8.265625 
Q 6.984375 17.96875 6.984375 36.375 
Q 6.984375 53.65625 15.1875 63.9375 
Q 23.390625 74.21875 37.203125 74.21875 
Q 40.921875 74.21875 44.703125 73.484375 
Q 48.484375 72.75 52.59375 71.296875 
z
" id="DejaVuSans-36"/>
      </defs>
      <g transform="translate(216.293911 270.918437)scale(0.1 -0.1)">
       <use xlink:href="#DejaVuSans-30"/>
       <use x="63.623047" xlink:href="#DejaVuSans-2e"/>
       <use x="95.410156" xlink:href="#DejaVuSans-30"/>
       <use x="159.033203" xlink:href="#DejaVuSans-36"/>
      </g>
     </g>
    </g>
    <g id="text_7">
     <!-- r0 dFdh . W_out(cos@) -->
     <defs>
      <path d="M 41.109375 46.296875 
Q 39.59375 47.171875 37.8125 47.578125 
Q 36.03125 48 33.890625 48 
Q 26.265625 48 22.1875 43.046875 
Q 18.109375 38.09375 18.109375 28.8125 
L 18.109375 0 
L 9.078125 0 
L 9.078125 54.6875 
L 18.109375 54.6875 
L 18.109375 46.1875 
Q 20.953125 51.171875 25.484375 53.578125 
Q 30.03125 56 36.53125 56 
Q 37.453125 56 38.578125 55.875 
Q 39.703125 55.765625 41.0625 55.515625 
z
" id="DejaVuSans-72"/>
      <path id="DejaVuSans-20"/>
      <path d="M 45.40625 46.390625 
L 45.40625 75.984375 
L 54.390625 75.984375 
L 54.390625 0 
L 45.40625 0 
L 45.40625 8.203125 
Q 42.578125 3.328125 38.25 0.953125 
Q 33.9375 -1.421875 27.875 -1.421875 
Q 17.96875 -1.421875 11.734375 6.484375 
Q 5.515625 14.40625 5.515625 27.296875 
Q 5.515625 40.1875 11.734375 48.09375 
Q 17.96875 56 27.875 56 
Q 33.9375 56 38.25 53.625 
Q 42.578125 51.265625 45.40625 46.390625 
z
M 14.796875 27.296875 
Q 14.796875 17.390625 18.875 11.75 
Q 22.953125 6.109375 30.078125 6.109375 
Q 37.203125 6.109375 41.296875 11.75 
Q 45.40625 17.390625 45.40625 27.296875 
Q 45.40625 37.203125 41.296875 42.84375 
Q 37.203125 48.484375 30.078125 48.484375 
Q 22.953125 48.484375 18.875 42.84375 
Q 14.796875 37.203125 14.796875 27.296875 
z
" id="DejaVuSans-64"/>
      <path d="M 9.8125 72.90625 
L 51.703125 72.90625 
L 51.703125 64.59375 
L 19.671875 64.59375 
L 19.671875 43.109375 
L 48.578125 43.109375 
L 48.578125 34.8125 
L 19.671875 34.8125 
L 19.671875 0 
L 9.8125 0 
z
" id="DejaVuSans-46"/>
      <path d="M 54.890625 33.015625 
L 54.890625 0 
L 45.90625 0 
L 45.90625 32.71875 
Q 45.90625 40.484375 42.875 44.328125 
Q 39.84375 48.1875 33.796875 48.1875 
Q 26.515625 48.1875 22.3125 43.546875 
Q 18.109375 38.921875 18.109375 30.90625 
L 18.109375 0 
L 9.078125 0 
L 9.078125 75.984375 
L 18.109375 75.984375 
L 18.109375 46.1875 
Q 21.34375 51.125 25.703125 53.5625 
Q 30.078125 56 35.796875 56 
Q 45.21875 56 50.046875 50.171875 
Q 54.890625 44.34375 54.890625 33.015625 
z
" id="DejaVuSans-68"/>
      <path d="M 3.328125 72.90625 
L 13.28125 72.90625 
L 28.609375 11.28125 
L 43.890625 72.90625 
L 54.984375 72.90625 
L 70.3125 11.28125 
L 85.59375 72.90625 
L 95.609375 72.90625 
L 77.296875 0 
L 64.890625 0 
L 49.515625 63.28125 
L 33.984375 0 
L 21.578125 0 
z
" id="DejaVuSans-57"/>
      <path d="M 50.984375 -16.609375 
L 50.984375 -23.578125 
L -0.984375 -23.578125 
L -0.984375 -16.609375 
z
" id="DejaVuSans-5f"/>
      <path d="M 30.609375 48.390625 
Q 23.390625 48.390625 19.1875 42.75 
Q 14.984375 37.109375 14.984375 27.296875 
Q 14.984375 17.484375 19.15625 11.84375 
Q 23.34375 6.203125 30.609375 6.203125 
Q 37.796875 6.203125 41.984375 11.859375 
Q 46.1875 17.53125 46.1875 27.296875 
Q 46.1875 37.015625 41.984375 42.703125 
Q 37.796875 48.390625 30.609375 48.390625 
z
M 30.609375 56 
Q 42.328125 56 49.015625 48.375 
Q 55.71875 40.765625 55.71875 27.296875 
Q 55.71875 13.875 49.015625 6.21875 
Q 42.328125 -1.421875 30.609375 -1.421875 
Q 18.84375 -1.421875 12.171875 6.21875 
Q 5.515625 13.875 5.515625 27.296875 
Q 5.515625 40.765625 12.171875 48.375 
Q 18.84375 56 30.609375 56 
z
" id="DejaVuSans-6f"/>
      <path d="M 8.5 21.578125 
L 8.5 54.6875 
L 17.484375 54.6875 
L 17.484375 21.921875 
Q 17.484375 14.15625 20.5 10.265625 
Q 23.53125 6.390625 29.59375 6.390625 
Q 36.859375 6.390625 41.078125 11.03125 
Q 45.3125 15.671875 45.3125 23.6875 
L 45.3125 54.6875 
L 54.296875 54.6875 
L 54.296875 0 
L 45.3125 0 
L 45.3125 8.40625 
Q 42.046875 3.421875 37.71875 1 
Q 33.40625 -1.421875 27.6875 -1.421875 
Q 18.265625 -1.421875 13.375 4.4375 
Q 8.5 10.296875 8.5 21.578125 
z
M 31.109375 56 
z
" id="DejaVuSans-75"/>
      <path d="M 18.3125 70.21875 
L 18.3125 54.6875 
L 36.8125 54.6875 
L 36.8125 47.703125 
L 18.3125 47.703125 
L 18.3125 18.015625 
Q 18.3125 11.328125 20.140625 9.421875 
Q 21.96875 7.515625 27.59375 7.515625 
L 36.8125 7.515625 
L 36.8125 0 
L 27.59375 0 
Q 17.1875 0 13.234375 3.875 
Q 9.28125 7.765625 9.28125 18.015625 
L 9.28125 47.703125 
L 2.6875 47.703125 
L 2.6875 54.6875 
L 9.28125 54.6875 
L 9.28125 70.21875 
z
" id="DejaVuSans-74"/>
      <path d="M 31 75.875 
Q 24.46875 64.65625 21.28125 53.65625 
Q 18.109375 42.671875 18.109375 31.390625 
Q 18.109375 20.125 21.3125 9.0625 
Q 24.515625 -2 31 -13.1875 
L 23.1875 -13.1875 
Q 15.875 -1.703125 12.234375 9.375 
Q 8.59375 20.453125 8.59375 31.390625 
Q 8.59375 42.28125 12.203125 53.3125 
Q 15.828125 64.359375 23.1875 75.875 
z
" id="DejaVuSans-28"/>
      <path d="M 48.78125 52.59375 
L 48.78125 44.1875 
Q 44.96875 46.296875 41.140625 47.34375 
Q 37.3125 48.390625 33.40625 48.390625 
Q 24.65625 48.390625 19.8125 42.84375 
Q 14.984375 37.3125 14.984375 27.296875 
Q 14.984375 17.28125 19.8125 11.734375 
Q 24.65625 6.203125 33.40625 6.203125 
Q 37.3125 6.203125 41.140625 7.25 
Q 44.96875 8.296875 48.78125 10.40625 
L 48.78125 2.09375 
Q 45.015625 0.34375 40.984375 -0.53125 
Q 36.96875 -1.421875 32.421875 -1.421875 
Q 20.0625 -1.421875 12.78125 6.34375 
Q 5.515625 14.109375 5.515625 27.296875 
Q 5.515625 40.671875 12.859375 48.328125 
Q 20.21875 56 33.015625 56 
Q 37.15625 56 41.109375 55.140625 
Q 45.0625 54.296875 48.78125 52.59375 
z
" id="DejaVuSans-63"/>
      <path d="M 44.28125 53.078125 
L 44.28125 44.578125 
Q 40.484375 46.53125 36.375 47.5 
Q 32.28125 48.484375 27.875 48.484375 
Q 21.1875 48.484375 17.84375 46.4375 
Q 14.5 44.390625 14.5 40.28125 
Q 14.5 37.15625 16.890625 35.375 
Q 19.28125 33.59375 26.515625 31.984375 
L 29.59375 31.296875 
Q 39.15625 29.25 43.1875 25.515625 
Q 47.21875 21.78125 47.21875 15.09375 
Q 47.21875 7.46875 41.1875 3.015625 
Q 35.15625 -1.421875 24.609375 -1.421875 
Q 20.21875 -1.421875 15.453125 -0.5625 
Q 10.6875 0.296875 5.421875 2 
L 5.421875 11.28125 
Q 10.40625 8.6875 15.234375 7.390625 
Q 20.0625 6.109375 24.8125 6.109375 
Q 31.15625 6.109375 34.5625 8.28125 
Q 37.984375 10.453125 37.984375 14.40625 
Q 37.984375 18.0625 35.515625 20.015625 
Q 33.0625 21.96875 24.703125 23.78125 
L 21.578125 24.515625 
Q 13.234375 26.265625 9.515625 29.90625 
Q 5.8125 33.546875 5.8125 39.890625 
Q 5.8125 47.609375 11.28125 51.796875 
Q 16.75 56 26.8125 56 
Q 31.78125 56 36.171875 55.265625 
Q 40.578125 54.546875 44.28125 53.078125 
z
" id="DejaVuSans-73"/>
      <path d="M 37.203125 26.21875 
Q 37.203125 19.234375 40.671875 15.25 
Q 44.140625 11.28125 50.203125 11.28125 
Q 56.203125 11.28125 59.640625 15.28125 
Q 63.09375 19.28125 63.09375 26.21875 
Q 63.09375 33.0625 59.578125 37.078125 
Q 56.0625 41.109375 50.09375 41.109375 
Q 44.1875 41.109375 40.6875 37.109375 
Q 37.203125 33.109375 37.203125 26.21875 
z
M 63.8125 11.625 
Q 60.890625 7.859375 57.109375 6.078125 
Q 53.328125 4.296875 48.296875 4.296875 
Q 39.890625 4.296875 34.640625 10.375 
Q 29.390625 16.453125 29.390625 26.21875 
Q 29.390625 35.984375 34.65625 42.078125 
Q 39.9375 48.1875 48.296875 48.1875 
Q 53.328125 48.1875 57.125 46.359375 
Q 60.9375 44.53125 63.8125 40.828125 
L 63.8125 47.21875 
L 70.796875 47.21875 
L 70.796875 11.28125 
Q 77.9375 12.359375 81.953125 17.796875 
Q 85.984375 23.25 85.984375 31.890625 
Q 85.984375 37.109375 84.4375 41.703125 
Q 82.90625 46.296875 79.78125 50.203125 
Q 74.703125 56.59375 67.40625 59.984375 
Q 60.109375 63.375 51.515625 63.375 
Q 45.515625 63.375 39.984375 61.78125 
Q 34.46875 60.203125 29.78125 57.078125 
Q 22.125 52.09375 17.796875 44.015625 
Q 13.484375 35.9375 13.484375 26.515625 
Q 13.484375 18.75 16.28125 11.953125 
Q 19.09375 5.171875 24.421875 0 
Q 29.546875 -5.078125 36.28125 -7.734375 
Q 43.015625 -10.40625 50.6875 -10.40625 
Q 56.984375 -10.40625 63.0625 -8.28125 
Q 69.140625 -6.15625 74.21875 -2.203125 
L 78.609375 -7.625 
Q 72.515625 -12.359375 65.3125 -14.875 
Q 58.109375 -17.390625 50.6875 -17.390625 
Q 41.65625 -17.390625 33.640625 -14.1875 
Q 25.640625 -10.984375 19.390625 -4.890625 
Q 13.140625 1.21875 9.859375 9.25 
Q 6.59375 17.28125 6.59375 26.515625 
Q 6.59375 35.40625 9.90625 43.453125 
Q 13.234375 51.515625 19.390625 57.625 
Q 25.6875 63.8125 33.9375 67.109375 
Q 42.1875 70.40625 51.421875 70.40625 
Q 61.765625 70.40625 70.625 66.15625 
Q 79.5 61.921875 85.5 54.109375 
Q 89.15625 49.3125 91.078125 43.703125 
Q 93.015625 38.09375 93.015625 32.078125 
Q 93.015625 19.234375 85.25 11.8125 
Q 77.484375 4.390625 63.8125 4.109375 
z
" id="DejaVuSans-40"/>
      <path d="M 8.015625 75.875 
L 15.828125 75.875 
Q 23.140625 64.359375 26.78125 53.3125 
Q 30.421875 42.28125 30.421875 31.390625 
Q 30.421875 20.453125 26.78125 9.375 
Q 23.140625 -1.703125 15.828125 -13.1875 
L 8.015625 -13.1875 
Q 14.5 -2 17.703125 9.0625 
Q 20.90625 20.125 20.90625 31.390625 
Q 20.90625 42.671875 17.703125 53.65625 
Q 14.5 64.65625 8.015625 75.875 
z
" id="DejaVuSans-29"/>
     </defs>
     <g transform="translate(90.667187 284.596563)scale(0.1 -0.1)">
      <use xlink:href="#DejaVuSans-72"/>
      <use x="41.113281" xlink:href="#DejaVuSans-30"/>
      <use x="104.736328" xlink:href="#DejaVuSans-20"/>
      <use x="136.523438" xlink:href="#DejaVuSans-64"/>
      <use x="200" xlink:href="#DejaVuSans-46"/>
      <use x="257.519531" xlink:href="#DejaVuSans-64"/>
      <use x="320.996094" xlink:href="#DejaVuSans-68"/>
      <use x="384.375" xlink:href="#DejaVuSans-20"/>
      <use x="416.162109" xlink:href="#DejaVuSans-2e"/>
      <use x="447.949219" xlink:href="#DejaVuSans-20"/>
      <use x="479.736328" xlink:href="#DejaVuSans-57"/>
      <use x="578.613281" xlink:href="#DejaVuSans-5f"/>
      <use x="628.613281" xlink:href="#DejaVuSans-6f"/>
      <use x="689.794922" xlink:href="#DejaVuSans-75"/>
      <use x="753.173828" xlink:href="#DejaVuSans-74"/>
      <use x="792.382812" xlink:href="#DejaVuSans-28"/>
      <use x="831.396484" xlink:href="#DejaVuSans-63"/>
      <use x="886.376953" xlink:href="#DejaVuSans-6f"/>
      <use x="947.558594" xlink:href="#DejaVuSans-73"/>
      <use x="999.658203" xlink:href="#DejaVuSans-40"/>
      <use x="1099.658203" xlink:href="#DejaVuSans-29"/>
     </g>
    </g>
   </g>
   <g id="matplotlib.axis_2">
    <g id="ytick_1">
     <g id="line2d_7">
      <defs>
       <path d="M 0 0 
L -3.5 0 
" id="m6333dfefce" style="stroke:#000000;stroke-width:0.8;"/>
      </defs>
      <g>
       <use style="stroke:#000000;stroke-width:0.8;" x="36" xlink:href="#m6333dfefce" y="244.306489"/>
      </g>
     </g>
     <g id="text_8">
      <!-- 0.00 -->
      <g transform="translate(6.734375 248.105707)scale(0.1 -0.1)">
       <use xlink:href="#DejaVuSans-30"/>
       <use x="63.623047" xlink:href="#DejaVuSans-2e"/>
       <use x="95.410156" xlink:href="#DejaVuSans-30"/>
       <use x="159.033203" xlink:href="#DejaVuSans-30"/>
      </g>
     </g>
    </g>
    <g id="ytick_2">
     <g id="line2d_8">
      <g>
       <use style="stroke:#000000;stroke-width:0.8;" x="36" xlink:href="#m6333dfefce" y="213.726561"/>
      </g>
     </g>
     <g id="text_9">
      <!-- 0.05 -->
      <defs>
       <path d="M 10.796875 72.90625 
L 49.515625 72.90625 
L 49.515625 64.59375 
L 19.828125 64.59375 
L 19.828125 46.734375 
Q 21.96875 47.46875 24.109375 47.828125 
Q 26.265625 48.1875 28.421875 48.1875 
Q 40.625 48.1875 47.75 41.5 
Q 54.890625 34.8125 54.890625 23.390625 
Q 54.890625 11.625 47.5625 5.09375 
Q 40.234375 -1.421875 26.90625 -1.421875 
Q 22.3125 -1.421875 17.546875 -0.640625 
Q 12.796875 0.140625 7.71875 1.703125 
L 7.71875 11.625 
Q 12.109375 9.234375 16.796875 8.0625 
Q 21.484375 6.890625 26.703125 6.890625 
Q 35.15625 6.890625 40.078125 11.328125 
Q 45.015625 15.765625 45.015625 23.390625 
Q 45.015625 31 40.078125 35.4375 
Q 35.15625 39.890625 26.703125 39.890625 
Q 22.75 39.890625 18.8125 39.015625 
Q 14.890625 38.140625 10.796875 36.28125 
z
" id="DejaVuSans-35"/>
      </defs>
      <g transform="translate(6.734375 217.52578)scale(0.1 -0.1)">
       <use xlink:href="#DejaVuSans-30"/>
       <use x="63.623047" xlink:href="#DejaVuSans-2e"/>
       <use x="95.410156" xlink:href="#DejaVuSans-30"/>
       <use x="159.033203" xlink:href="#DejaVuSans-35"/>
      </g>
     </g>
    </g>
    <g id="ytick_3">
     <g id="line2d_9">
      <g>
       <use style="stroke:#000000;stroke-width:0.8;" x="36" xlink:href="#m6333dfefce" y="183.146634"/>
      </g>
     </g>
     <g id="text_10">
      <!-- 0.10 -->
      <defs>
       <path d="M 12.40625 8.296875 
L 28.515625 8.296875 
L 28.515625 63.921875 
L 10.984375 60.40625 
L 10.984375 69.390625 
L 28.421875 72.90625 
L 38.28125 72.90625 
L 38.28125 8.296875 
L 54.390625 8.296875 
L 54.390625 0 
L 12.40625 0 
z
" id="DejaVuSans-31"/>
      </defs>
      <g transform="translate(6.734375 186.945852)scale(0.1 -0.1)">
       <use xlink:href="#DejaVuSans-30"/>
       <use x="63.623047" xlink:href="#DejaVuSans-2e"/>
       <use x="95.410156" xlink:href="#DejaVuSans-31"/>
       <use x="159.033203" xlink:href="#DejaVuSans-30"/>
      </g>
     </g>
    </g>
    <g id="ytick_4">
     <g id="line2d_10">
      <g>
       <use style="stroke:#000000;stroke-width:0.8;" x="36" xlink:href="#m6333dfefce" y="152.566706"/>
      </g>
     </g>
     <g id="text_11">
      <!-- 0.15 -->
      <g transform="translate(6.734375 156.365925)scale(0.1 -0.1)">
       <use xlink:href="#DejaVuSans-30"/>
       <use x="63.623047" xlink:href="#DejaVuSans-2e"/>
       <use x="95.410156" xlink:href="#DejaVuSans-31"/>
       <use x="159.033203" xlink:href="#DejaVuSans-35"/>
      </g>
     </g>
    </g>
    <g id="ytick_5">
     <g id="line2d_11">
      <g>
       <use style="stroke:#000000;stroke-width:0.8;" x="36" xlink:href="#m6333dfefce" y="121.986778"/>
      </g>
     </g>
     <g id="text_12">
      <!-- 0.20 -->
      <g transform="translate(6.734375 125.785997)scale(0.1 -0.1)">
       <use xlink:href="#DejaVuSans-30"/>
       <use x="63.623047" xlink:href="#DejaVuSans-2e"/>
       <use x="95.410156" xlink:href="#DejaVuSans-32"/>
       <use x="159.033203" xlink:href="#DejaVuSans-30"/>
      </g>
     </g>
    </g>
    <g id="ytick_6">
     <g id="line2d_12">
      <g>
       <use style="stroke:#000000;stroke-width:0.8;" x="36" xlink:href="#m6333dfefce" y="91.406851"/>
      </g>
     </g>
     <g id="text_13">
      <!-- 0.25 -->
      <g transform="translate(6.734375 95.20607)scale(0.1 -0.1)">
       <use xlink:href="#DejaVuSans-30"/>
       <use x="63.623047" xlink:href="#DejaVuSans-2e"/>
       <use x="95.410156" xlink:href="#DejaVuSans-32"/>
       <use x="159.033203" xlink:href="#DejaVuSans-35"/>
      </g>
     </g>
    </g>
    <g id="ytick_7">
     <g id="line2d_13">
      <g>
       <use style="stroke:#000000;stroke-width:0.8;" x="36" xlink:href="#m6333dfefce" y="60.826923"/>
      </g>
     </g>
     <g id="text_14">
      <!-- 0.30 -->
      <defs>
       <path d="M 40.578125 39.3125 
Q 47.65625 37.796875 51.625 33 
Q 55.609375 28.21875 55.609375 21.1875 
Q 55.609375 10.40625 48.1875 4.484375 
Q 40.765625 -1.421875 27.09375 -1.421875 
Q 22.515625 -1.421875 17.65625 -0.515625 
Q 12.796875 0.390625 7.625 2.203125 
L 7.625 11.71875 
Q 11.71875 9.328125 16.59375 8.109375 
Q 21.484375 6.890625 26.8125 6.890625 
Q 36.078125 6.890625 40.9375 10.546875 
Q 45.796875 14.203125 45.796875 21.1875 
Q 45.796875 27.640625 41.28125 31.265625 
Q 36.765625 34.90625 28.71875 34.90625 
L 20.21875 34.90625 
L 20.21875 43.015625 
L 29.109375 43.015625 
Q 36.375 43.015625 40.234375 45.921875 
Q 44.09375 48.828125 44.09375 54.296875 
Q 44.09375 59.90625 40.109375 62.90625 
Q 36.140625 65.921875 28.71875 65.921875 
Q 24.65625 65.921875 20.015625 65.03125 
Q 15.375 64.15625 9.8125 62.3125 
L 9.8125 71.09375 
Q 15.4375 72.65625 20.34375 73.4375 
Q 25.25 74.21875 29.59375 74.21875 
Q 40.828125 74.21875 47.359375 69.109375 
Q 53.90625 64.015625 53.90625 55.328125 
Q 53.90625 49.265625 50.4375 45.09375 
Q 46.96875 40.921875 40.578125 39.3125 
z
" id="DejaVuSans-33"/>
      </defs>
      <g transform="translate(6.734375 64.626142)scale(0.1 -0.1)">
       <use xlink:href="#DejaVuSans-30"/>
       <use x="63.623047" xlink:href="#DejaVuSans-2e"/>
       <use x="95.410156" xlink:href="#DejaVuSans-33"/>
       <use x="159.033203" xlink:href="#DejaVuSans-30"/>
      </g>
     </g>
    </g>
    <g id="text_15">
     <!-- l0 dFdh . dfdx(cos@) -->
     <defs>
      <path d="M 9.421875 75.984375 
L 18.40625 75.984375 
L 18.40625 0 
L 9.421875 0 
z
" id="DejaVuSans-6c"/>
      <path d="M 37.109375 75.984375 
L 37.109375 68.5 
L 28.515625 68.5 
Q 23.6875 68.5 21.796875 66.546875 
Q 19.921875 64.59375 19.921875 59.515625 
L 19.921875 54.6875 
L 34.71875 54.6875 
L 34.71875 47.703125 
L 19.921875 47.703125 
L 19.921875 0 
L 10.890625 0 
L 10.890625 47.703125 
L 2.296875 47.703125 
L 2.296875 54.6875 
L 10.890625 54.6875 
L 10.890625 58.5 
Q 10.890625 67.625 15.140625 71.796875 
Q 19.390625 75.984375 28.609375 75.984375 
z
" id="DejaVuSans-66"/>
      <path d="M 54.890625 54.6875 
L 35.109375 28.078125 
L 55.90625 0 
L 45.3125 0 
L 29.390625 21.484375 
L 13.484375 0 
L 2.875 0 
L 24.125 28.609375 
L 4.6875 54.6875 
L 15.28125 54.6875 
L 29.78125 35.203125 
L 44.28125 54.6875 
z
" id="DejaVuSans-78"/>
     </defs>
     <g transform="translate(0.654687 197.142344)rotate(-90)scale(0.1 -0.1)">
      <use xlink:href="#DejaVuSans-6c"/>
      <use x="27.783203" xlink:href="#DejaVuSans-30"/>
      <use x="91.40625" xlink:href="#DejaVuSans-20"/>
      <use x="123.193359" xlink:href="#DejaVuSans-64"/>
      <use x="186.669922" xlink:href="#DejaVuSans-46"/>
      <use x="244.189453" xlink:href="#DejaVuSans-64"/>
      <use x="307.666016" xlink:href="#DejaVuSans-68"/>
      <use x="371.044922" xlink:href="#DejaVuSans-20"/>
      <use x="402.832031" xlink:href="#DejaVuSans-2e"/>
      <use x="434.619141" xlink:href="#DejaVuSans-20"/>
      <use x="466.40625" xlink:href="#DejaVuSans-64"/>
      <use x="529.882812" xlink:href="#DejaVuSans-66"/>
      <use x="565.087891" xlink:href="#DejaVuSans-64"/>
      <use x="628.564453" xlink:href="#DejaVuSans-78"/>
      <use x="687.744141" xlink:href="#DejaVuSans-28"/>
      <use x="726.757812" xlink:href="#DejaVuSans-63"/>
      <use x="781.738281" xlink:href="#DejaVuSans-6f"/>
      <use x="842.919922" xlink:href="#DejaVuSans-73"/>
      <use x="895.019531" xlink:href="#DejaVuSans-40"/>
      <use x="995.019531" xlink:href="#DejaVuSans-29"/>
     </g>
    </g>
   </g>
   <g id="patch_3">
    <path d="M 36 256.32 
L 36 34.56 
" style="fill:none;stroke:#000000;stroke-linecap:square;stroke-linejoin:miter;stroke-width:0.8;"/>
   </g>
   <g id="patch_4">
    <path d="M 259.2 256.32 
L 259.2 34.56 
" style="fill:none;stroke:#000000;stroke-linecap:square;stroke-linejoin:miter;stroke-width:0.8;"/>
   </g>
   <g id="patch_5">
    <path d="M 36 256.32 
L 259.2 256.32 
" style="fill:none;stroke:#000000;stroke-linecap:square;stroke-linejoin:miter;stroke-width:0.8;"/>
   </g>
   <g id="patch_6">
    <path d="M 36 34.56 
L 259.2 34.56 
" style="fill:none;stroke:#000000;stroke-linecap:square;stroke-linejoin:miter;stroke-width:0.8;"/>
   </g>
   <g id="text_16">
    <!-- contextdelaydm1 -->
    <defs>
     <path d="M 54.890625 33.015625 
L 54.890625 0 
L 45.90625 0 
L 45.90625 32.71875 
Q 45.90625 40.484375 42.875 44.328125 
Q 39.84375 48.1875 33.796875 48.1875 
Q 26.515625 48.1875 22.3125 43.546875 
Q 18.109375 38.921875 18.109375 30.90625 
L 18.109375 0 
L 9.078125 0 
L 9.078125 54.6875 
L 18.109375 54.6875 
L 18.109375 46.1875 
Q 21.34375 51.125 25.703125 53.5625 
Q 30.078125 56 35.796875 56 
Q 45.21875 56 50.046875 50.171875 
Q 54.890625 44.34375 54.890625 33.015625 
z
" id="DejaVuSans-6e"/>
     <path d="M 56.203125 29.59375 
L 56.203125 25.203125 
L 14.890625 25.203125 
Q 15.484375 15.921875 20.484375 11.0625 
Q 25.484375 6.203125 34.421875 6.203125 
Q 39.59375 6.203125 44.453125 7.46875 
Q 49.3125 8.734375 54.109375 11.28125 
L 54.109375 2.78125 
Q 49.265625 0.734375 44.1875 -0.34375 
Q 39.109375 -1.421875 33.890625 -1.421875 
Q 20.796875 -1.421875 13.15625 6.1875 
Q 5.515625 13.8125 5.515625 26.8125 
Q 5.515625 40.234375 12.765625 48.109375 
Q 20.015625 56 32.328125 56 
Q 43.359375 56 49.78125 48.890625 
Q 56.203125 41.796875 56.203125 29.59375 
z
M 47.21875 32.234375 
Q 47.125 39.59375 43.09375 43.984375 
Q 39.0625 48.390625 32.421875 48.390625 
Q 24.90625 48.390625 20.390625 44.140625 
Q 15.875 39.890625 15.1875 32.171875 
z
" id="DejaVuSans-65"/>
     <path d="M 34.28125 27.484375 
Q 23.390625 27.484375 19.1875 25 
Q 14.984375 22.515625 14.984375 16.5 
Q 14.984375 11.71875 18.140625 8.90625 
Q 21.296875 6.109375 26.703125 6.109375 
Q 34.1875 6.109375 38.703125 11.40625 
Q 43.21875 16.703125 43.21875 25.484375 
L 43.21875 27.484375 
z
M 52.203125 31.203125 
L 52.203125 0 
L 43.21875 0 
L 43.21875 8.296875 
Q 40.140625 3.328125 35.546875 0.953125 
Q 30.953125 -1.421875 24.3125 -1.421875 
Q 15.921875 -1.421875 10.953125 3.296875 
Q 6 8.015625 6 15.921875 
Q 6 25.140625 12.171875 29.828125 
Q 18.359375 34.515625 30.609375 34.515625 
L 43.21875 34.515625 
L 43.21875 35.40625 
Q 43.21875 41.609375 39.140625 45 
Q 35.0625 48.390625 27.6875 48.390625 
Q 23 48.390625 18.546875 47.265625 
Q 14.109375 46.140625 10.015625 43.890625 
L 10.015625 52.203125 
Q 14.9375 54.109375 19.578125 55.046875 
Q 24.21875 56 28.609375 56 
Q 40.484375 56 46.34375 49.84375 
Q 52.203125 43.703125 52.203125 31.203125 
z
" id="DejaVuSans-61"/>
     <path d="M 32.171875 -5.078125 
Q 28.375 -14.84375 24.75 -17.8125 
Q 21.140625 -20.796875 15.09375 -20.796875 
L 7.90625 -20.796875 
L 7.90625 -13.28125 
L 13.1875 -13.28125 
Q 16.890625 -13.28125 18.9375 -11.515625 
Q 21 -9.765625 23.484375 -3.21875 
L 25.09375 0.875 
L 2.984375 54.6875 
L 12.5 54.6875 
L 29.59375 11.921875 
L 46.6875 54.6875 
L 56.203125 54.6875 
z
" id="DejaVuSans-79"/>
     <path d="M 52 44.1875 
Q 55.375 50.25 60.0625 53.125 
Q 64.75 56 71.09375 56 
Q 79.640625 56 84.28125 50.015625 
Q 88.921875 44.046875 88.921875 33.015625 
L 88.921875 0 
L 79.890625 0 
L 79.890625 32.71875 
Q 79.890625 40.578125 77.09375 44.375 
Q 74.3125 48.1875 68.609375 48.1875 
Q 61.625 48.1875 57.5625 43.546875 
Q 53.515625 38.921875 53.515625 30.90625 
L 53.515625 0 
L 44.484375 0 
L 44.484375 32.71875 
Q 44.484375 40.625 41.703125 44.40625 
Q 38.921875 48.1875 33.109375 48.1875 
Q 26.21875 48.1875 22.15625 43.53125 
Q 18.109375 38.875 18.109375 30.90625 
L 18.109375 0 
L 9.078125 0 
L 9.078125 54.6875 
L 18.109375 54.6875 
L 18.109375 46.1875 
Q 21.1875 51.21875 25.484375 53.609375 
Q 29.78125 56 35.6875 56 
Q 41.65625 56 45.828125 52.96875 
Q 50 49.953125 52 44.1875 
z
" id="DejaVuSans-6d"/>
    </defs>
    <g transform="translate(95.01375 28.56)scale(0.12 -0.12)">
     <use xlink:href="#DejaVuSans-63"/>
     <use x="54.980469" xlink:href="#DejaVuSans-6f"/>
     <use x="116.162109" xlink:href="#DejaVuSans-6e"/>
     <use x="179.541016" xlink:href="#DejaVuSans-74"/>
     <use x="218.75" xlink:href="#DejaVuSans-65"/>
     <use x="280.257812" xlink:href="#DejaVuSans-78"/>
     <use x="339.4375" xlink:href="#DejaVuSans-74"/>
     <use x="378.646484" xlink:href="#DejaVuSans-64"/>
     <use x="442.123047" xlink:href="#DejaVuSans-65"/>
     <use x="503.646484" xlink:href="#DejaVuSans-6c"/>
     <use x="531.429688" xlink:href="#DejaVuSans-61"/>
     <use x="592.708984" xlink:href="#DejaVuSans-79"/>
     <use x="651.888672" xlink:href="#DejaVuSans-64"/>
     <use x="715.365234" xlink:href="#DejaVuSans-6d"/>
     <use x="812.777344" xlink:href="#DejaVuSans-31"/>
    </g>
   </g>
   <g id="legend_1">
    <g id="patch_7">
     <path d="M 191.629687 71.91625 
L 252.2 71.91625 
Q 254.2 71.91625 254.2 69.91625 
L 254.2 41.56 
Q 254.2 39.56 252.2 39.56 
L 191.629687 39.56 
Q 189.629687 39.56 189.629687 41.56 
L 189.629687 69.91625 
Q 189.629687 71.91625 191.629687 71.91625 
z
" style="fill:#ffffff;opacity:0.8;stroke:#cccccc;stroke-linejoin:miter;"/>
    </g>
    <g id="PathCollection_3">
     <defs>
      <path d="M 0 4.909784 
C 1.30209 4.909784 2.551025 4.392458 3.471742 3.471742 
C 4.392458 2.551025 4.909784 1.30209 4.909784 0 
C 4.909784 -1.30209 4.392458 -2.551025 3.471742 -3.471742 
C 2.551025 -4.392458 1.30209 -4.909784 0 -4.909784 
C -1.30209 -4.909784 -2.551025 -4.392458 -3.471742 -3.471742 
C -4.392458 -2.551025 -4.909784 -1.30209 -4.909784 0 
C -4.909784 1.30209 -4.392458 2.551025 -3.471742 3.471742 
C -2.551025 4.392458 -1.30209 4.909784 0 4.909784 
z
" id="m02caa949bf" style="stroke:#008000;stroke-opacity:0.5;"/>
     </defs>
     <g>
      <use style="fill:#008000;fill-opacity:0.5;stroke:#008000;stroke-opacity:0.5;" x="203.629687" xlink:href="#m02caa949bf" y="48.533437"/>
     </g>
    </g>
    <g id="text_17">
     <!-- mod1 -->
     <g transform="translate(221.629687 51.158437)scale(0.1 -0.1)">
      <use xlink:href="#DejaVuSans-6d"/>
      <use x="97.412109" xlink:href="#DejaVuSans-6f"/>
      <use x="158.59375" xlink:href="#DejaVuSans-64"/>
      <use x="222.070312" xlink:href="#DejaVuSans-31"/>
     </g>
    </g>
    <g id="PathCollection_4">
     <defs>
      <path d="M 0 4.909784 
C 1.30209 4.909784 2.551025 4.392458 3.471742 3.471742 
C 4.392458 2.551025 4.909784 1.30209 4.909784 0 
C 4.909784 -1.30209 4.392458 -2.551025 3.471742 -3.471742 
C 2.551025 -4.392458 1.30209 -4.909784 0 -4.909784 
C -1.30209 -4.909784 -2.551025 -4.392458 -3.471742 -3.471742 
C -4.392458 -2.551025 -4.909784 -1.30209 -4.909784 0 
C -4.909784 1.30209 -4.392458 2.551025 -3.471742 3.471742 
C -2.551025 4.392458 -1.30209 4.909784 0 4.909784 
z
" id="m9dbe337a87" style="stroke:#000000;stroke-opacity:0.5;"/>
     </defs>
     <g>
      <use style="fill-opacity:0.5;stroke:#000000;stroke-opacity:0.5;" x="203.629687" xlink:href="#m9dbe337a87" y="63.211562"/>
     </g>
    </g>
    <g id="text_18">
     <!-- mod2 -->
     <g transform="translate(221.629687 65.836562)scale(0.1 -0.1)">
      <use xlink:href="#DejaVuSans-6d"/>
      <use x="97.412109" xlink:href="#DejaVuSans-6f"/>
      <use x="158.59375" xlink:href="#DejaVuSans-64"/>
      <use x="222.070312" xlink:href="#DejaVuSans-32"/>
     </g>
    </g>
   </g>
  </g>
 </g>
 <defs>
  <clipPath id="p9ffe92ba86">
   <rect height="221.76" width="223.2" x="36" y="34.56"/>
  </clipPath>
 </defs>
</svg>
