<?xml version="1.0" encoding="utf-8" standalone="no"?>
<!DOCTYPE svg PUBLIC "-//W3C//DTD SVG 1.1//EN"
  "http://www.w3.org/Graphics/SVG/1.1/DTD/svg11.dtd">
<!-- Created with matplotlib (http://matplotlib.org/) -->
<svg height="288pt" version="1.1" viewBox="0 0 288 288" width="288pt" xmlns="http://www.w3.org/2000/svg" xmlns:xlink="http://www.w3.org/1999/xlink">
 <defs>
  <style type="text/css">
*{stroke-linecap:butt;stroke-linejoin:round;}
  </style>
 </defs>
 <g id="figure_1">
  <g id="patch_1">
   <path d="M 0 288 
L 288 288 
L 288 0 
L 0 0 
z
" style="fill:#ffffff;"/>
  </g>
  <g id="axes_1">
   <g id="patch_2">
    <path d="M 36 256.32 
L 259.2 256.32 
L 259.2 34.56 
L 36 34.56 
z
" style="fill:#ffffff;"/>
   </g>
   <g id="PathCollection_1">
    <path clip-path="url(#p37768f8874)" d="M 148.229777 229.349626 
C 149.418932 229.349626 150.559542 228.87717 151.400401 228.036311 
C 152.24126 227.195451 152.713716 226.054841 152.713716 224.865687 
C 152.713716 223.676532 152.24126 222.535922 151.400401 221.695063 
C 150.559542 220.854204 149.418932 220.381748 148.229777 220.381748 
C 147.040623 220.381748 145.900013 220.854204 145.059153 221.695063 
C 144.218294 222.535922 143.745838 223.676532 143.745838 224.865687 
C 143.745838 226.054841 144.218294 227.195451 145.059153 228.036311 
C 145.900013 228.87717 147.040623 229.349626 148.229777 229.349626 
z
" style="fill:#008000;fill-opacity:0.5;stroke:#008000;stroke-opacity:0.5;"/>
    <path clip-path="url(#p37768f8874)" d="M 235.261661 199.85123 
C 236.390177 199.85123 237.472624 199.402866 238.270606 198.604884 
C 239.068587 197.806903 239.516952 196.724456 239.516952 195.595939 
C 239.516952 194.467423 239.068587 193.384976 238.270606 192.586994 
C 237.472624 191.789013 236.390177 191.340648 235.261661 191.340648 
C 234.133144 191.340648 233.050697 191.789013 232.252716 192.586994 
C 231.454734 193.384976 231.00637 194.467423 231.00637 195.595939 
C 231.00637 196.724456 231.454734 197.806903 232.252716 198.604884 
C 233.050697 199.402866 234.133144 199.85123 235.261661 199.85123 
z
" style="fill:#008000;fill-opacity:0.5;stroke:#008000;stroke-opacity:0.5;"/>
    <path clip-path="url(#p37768f8874)" d="M 51.496625 232.438359 
C 52.561854 232.438359 53.583597 232.015139 54.336828 231.261909 
C 55.090059 230.508678 55.513279 229.486935 55.513279 228.421706 
C 55.513279 227.356477 55.090059 226.334734 54.336828 225.581503 
C 53.583597 224.828272 52.561854 224.405052 51.496625 224.405052 
C 50.431396 224.405052 49.409653 224.828272 48.656422 225.581503 
C 47.903192 226.334734 47.479972 227.356477 47.479972 228.421706 
C 47.479972 229.486935 47.903192 230.508678 48.656422 231.261909 
C 49.409653 232.015139 50.431396 232.438359 51.496625 232.438359 
z
" style="fill:#008000;fill-opacity:0.5;stroke:#008000;stroke-opacity:0.5;"/>
    <path clip-path="url(#p37768f8874)" d="M 214.24486 229.404463 
C 215.403601 229.404463 216.515039 228.944091 217.334393 228.124737 
C 218.153747 227.305383 218.614119 226.193945 218.614119 225.035204 
C 218.614119 223.876463 218.153747 222.765025 217.334393 221.945671 
C 216.515039 221.126317 215.403601 220.665945 214.24486 220.665945 
C 213.086119 220.665945 211.974681 221.126317 211.155327 221.945671 
C 210.335973 222.765025 209.875601 223.876463 209.875601 225.035204 
C 209.875601 226.193945 210.335973 227.305383 211.155327 228.124737 
C 211.974681 228.944091 213.086119 229.404463 214.24486 229.404463 
z
" style="fill:#008000;fill-opacity:0.5;stroke:#008000;stroke-opacity:0.5;"/>
    <path clip-path="url(#p37768f8874)" d="M 214.24486 229.404463 
C 215.403601 229.404463 216.515039 228.944091 217.334393 228.124737 
C 218.153747 227.305383 218.614119 226.193945 218.614119 225.035204 
C 218.614119 223.876463 218.153747 222.765025 217.334393 221.945671 
C 216.515039 221.126317 215.403601 220.665945 214.24486 220.665945 
C 213.086119 220.665945 211.974681 221.126317 211.155327 221.945671 
C 210.335973 222.765025 209.875601 223.876463 209.875601 225.035204 
C 209.875601 226.193945 210.335973 227.305383 211.155327 228.124737 
C 211.974681 228.944091 213.086119 229.404463 214.24486 229.404463 
z
" style="fill:#008000;fill-opacity:0.5;stroke:#008000;stroke-opacity:0.5;"/>
    <path clip-path="url(#p37768f8874)" d="M 204.164193 220.301761 
C 205.371978 220.301761 206.530458 219.821903 207.384491 218.96787 
C 208.238525 218.113836 208.718383 216.955356 208.718383 215.747571 
C 208.718383 214.539786 208.238525 213.381306 207.384491 212.527273 
C 206.530458 211.67324 205.371978 211.193381 204.164193 211.193381 
C 202.956408 211.193381 201.797928 211.67324 200.943895 212.527273 
C 200.089861 213.381306 199.610003 214.539786 199.610003 215.747571 
C 199.610003 216.955356 200.089861 218.113836 200.943895 218.96787 
C 201.797928 219.821903 202.956408 220.301761 204.164193 220.301761 
z
" style="fill:#008000;fill-opacity:0.5;stroke:#008000;stroke-opacity:0.5;"/>
    <path clip-path="url(#p37768f8874)" d="M 138.748789 191.275244 
C 139.886788 191.275244 140.97833 190.823112 141.783017 190.018426 
C 142.587703 189.213739 143.039835 188.122197 143.039835 186.984198 
C 143.039835 185.846199 142.587703 184.754657 141.783017 183.949971 
C 140.97833 183.145284 139.886788 182.693152 138.748789 182.693152 
C 137.610791 182.693152 136.519248 183.145284 135.714562 183.949971 
C 134.909875 184.754657 134.457744 185.846199 134.457744 186.984198 
C 134.457744 188.122197 134.909875 189.213739 135.714562 190.018426 
C 136.519248 190.823112 137.610791 191.275244 138.748789 191.275244 
z
" style="fill:#008000;fill-opacity:0.5;stroke:#008000;stroke-opacity:0.5;"/>
    <path clip-path="url(#p37768f8874)" d="M 142.816757 229.728497 
C 143.980707 229.728497 145.09714 229.266055 145.920177 228.443018 
C 146.743213 227.619982 147.205655 226.503548 147.205655 225.339599 
C 147.205655 224.175649 146.743213 223.059216 145.920177 222.236179 
C 145.09714 221.413143 143.980707 220.950701 142.816757 220.950701 
C 141.652808 220.950701 140.536374 221.413143 139.713338 222.236179 
C 138.890302 223.059216 138.42786 224.175649 138.42786 225.339599 
C 138.42786 226.503548 138.890302 227.619982 139.713338 228.443018 
C 140.536374 229.266055 141.652808 229.728497 142.816757 229.728497 
z
" style="fill:#008000;fill-opacity:0.5;stroke:#008000;stroke-opacity:0.5;"/>
    <path clip-path="url(#p37768f8874)" d="M 142.816757 229.728497 
C 143.980707 229.728497 145.09714 229.266055 145.920177 228.443018 
C 146.743213 227.619982 147.205655 226.503548 147.205655 225.339599 
C 147.205655 224.175649 146.743213 223.059216 145.920177 222.236179 
C 145.09714 221.413143 143.980707 220.950701 142.816757 220.950701 
C 141.652808 220.950701 140.536374 221.413143 139.713338 222.236179 
C 138.890302 223.059216 138.42786 224.175649 138.42786 225.339599 
C 138.42786 226.503548 138.890302 227.619982 139.713338 228.443018 
C 140.536374 229.266055 141.652808 229.728497 142.816757 229.728497 
z
" style="fill:#008000;fill-opacity:0.5;stroke:#008000;stroke-opacity:0.5;"/>
    <path clip-path="url(#p37768f8874)" d="M 197.415113 207.737006 
C 198.663321 207.737006 199.860574 207.241088 200.74319 206.358471 
C 201.625807 205.475855 202.121725 204.278602 202.121725 203.030394 
C 202.121725 201.782186 201.625807 200.584933 200.74319 199.702316 
C 199.860574 198.8197 198.663321 198.323782 197.415113 198.323782 
C 196.166905 198.323782 194.969652 198.8197 194.087036 199.702316 
C 193.204419 200.584933 192.708501 201.782186 192.708501 203.030394 
C 192.708501 204.278602 193.204419 205.475855 194.087036 206.358471 
C 194.969652 207.241088 196.166905 207.737006 197.415113 207.737006 
z
" style="fill:#008000;fill-opacity:0.5;stroke:#008000;stroke-opacity:0.5;"/>
    <path clip-path="url(#p37768f8874)" d="M 243.341379 181.911968 
C 244.478669 181.911968 245.569531 181.460118 246.373716 180.655933 
C 247.177901 179.851747 247.629751 178.760885 247.629751 177.623596 
C 247.629751 176.486306 247.177901 175.395444 246.373716 174.591259 
C 245.569531 173.787074 244.478669 173.335224 243.341379 173.335224 
C 242.204089 173.335224 241.113227 173.787074 240.309042 174.591259 
C 239.504857 175.395444 239.053007 176.486306 239.053007 177.623596 
C 239.053007 178.760885 239.504857 179.851747 240.309042 180.655933 
C 241.113227 181.460118 242.204089 181.911968 243.341379 181.911968 
z
" style="fill:#008000;fill-opacity:0.5;stroke:#008000;stroke-opacity:0.5;"/>
    <path clip-path="url(#p37768f8874)" d="M 209.623581 231.530596 
C 210.951632 231.530596 212.225469 231.002956 213.164543 230.063882 
C 214.103617 229.124808 214.631257 227.850971 214.631257 226.52292 
C 214.631257 225.194869 214.103617 223.921032 213.164543 222.981958 
C 212.225469 222.042884 210.951632 221.515244 209.623581 221.515244 
C 208.29553 221.515244 207.021693 222.042884 206.082619 222.981958 
C 205.143545 223.921032 204.615905 225.194869 204.615905 226.52292 
C 204.615905 227.850971 205.143545 229.124808 206.082619 230.063882 
C 207.021693 231.002956 208.29553 231.530596 209.623581 231.530596 
z
" style="fill:#008000;fill-opacity:0.5;stroke:#008000;stroke-opacity:0.5;"/>
    <path clip-path="url(#p37768f8874)" d="M 170.528497 237.772483 
C 171.664686 237.772483 172.754493 237.321071 173.5579 236.517664 
C 174.361307 235.714257 174.81272 234.62445 174.81272 233.488261 
C 174.81272 232.352072 174.361307 231.262265 173.5579 230.458858 
C 172.754493 229.655451 171.664686 229.204038 170.528497 229.204038 
C 169.392308 229.204038 168.302501 229.655451 167.499094 230.458858 
C 166.695687 231.262265 166.244274 232.352072 166.244274 233.488261 
C 166.244274 234.62445 166.695687 235.714257 167.499094 236.517664 
C 168.302501 237.321071 169.392308 237.772483 170.528497 237.772483 
z
" style="fill:#008000;fill-opacity:0.5;stroke:#008000;stroke-opacity:0.5;"/>
    <path clip-path="url(#p37768f8874)" d="M 126.179231 220.391372 
C 127.338071 220.391372 128.449604 219.93096 129.269028 219.111536 
C 130.088451 218.292113 130.548863 217.18058 130.548863 216.02174 
C 130.548863 214.8629 130.088451 213.751367 129.269028 212.931944 
C 128.449604 212.11252 127.338071 211.652108 126.179231 211.652108 
C 125.020392 211.652108 123.908859 212.11252 123.089435 212.931944 
C 122.270012 213.751367 121.8096 214.8629 121.8096 216.02174 
C 121.8096 217.18058 122.270012 218.292113 123.089435 219.111536 
C 123.908859 219.93096 125.020392 220.391372 126.179231 220.391372 
z
" style="fill:#008000;fill-opacity:0.5;stroke:#008000;stroke-opacity:0.5;"/>
    <path clip-path="url(#p37768f8874)" d="M 126.179231 220.391372 
C 127.338071 220.391372 128.449604 219.93096 129.269028 219.111536 
C 130.088451 218.292113 130.548863 217.18058 130.548863 216.02174 
C 130.548863 214.8629 130.088451 213.751367 129.269028 212.931944 
C 128.449604 212.11252 127.338071 211.652108 126.179231 211.652108 
C 125.020392 211.652108 123.908859 212.11252 123.089435 212.931944 
C 122.270012 213.751367 121.8096 214.8629 121.8096 216.02174 
C 121.8096 217.18058 122.270012 218.292113 123.089435 219.111536 
C 123.908859 219.93096 125.020392 220.391372 126.179231 220.391372 
z
" style="fill:#008000;fill-opacity:0.5;stroke:#008000;stroke-opacity:0.5;"/>
    <path clip-path="url(#p37768f8874)" d="M 165.621919 218.432128 
C 166.715672 218.432128 167.764775 217.997576 168.538176 217.224175 
C 169.311576 216.450775 169.746129 215.401671 169.746129 214.307918 
C 169.746129 213.214165 169.311576 212.165061 168.538176 211.391661 
C 167.764775 210.618261 166.715672 210.183708 165.621919 210.183708 
C 164.528165 210.183708 163.479062 210.618261 162.705662 211.391661 
C 161.932261 212.165061 161.497708 213.214165 161.497708 214.307918 
C 161.497708 215.401671 161.932261 216.450775 162.705662 217.224175 
C 163.479062 217.997576 164.528165 218.432128 165.621919 218.432128 
z
" style="fill:#008000;fill-opacity:0.5;stroke:#008000;stroke-opacity:0.5;"/>
    <path clip-path="url(#p37768f8874)" d="M 165.621919 218.432128 
C 166.715672 218.432128 167.764775 217.997576 168.538176 217.224175 
C 169.311576 216.450775 169.746129 215.401671 169.746129 214.307918 
C 169.746129 213.214165 169.311576 212.165061 168.538176 211.391661 
C 167.764775 210.618261 166.715672 210.183708 165.621919 210.183708 
C 164.528165 210.183708 163.479062 210.618261 162.705662 211.391661 
C 161.932261 212.165061 161.497708 213.214165 161.497708 214.307918 
C 161.497708 215.401671 161.932261 216.450775 162.705662 217.224175 
C 163.479062 217.997576 164.528165 218.432128 165.621919 218.432128 
z
" style="fill:#008000;fill-opacity:0.5;stroke:#008000;stroke-opacity:0.5;"/>
   </g>
   <g id="PathCollection_2">
    <path clip-path="url(#p37768f8874)" d="M 148.229777 107.699414 
C 149.418932 107.699414 150.559542 107.226958 151.400401 106.386099 
C 152.24126 105.54524 152.713716 104.40463 152.713716 103.215475 
C 152.713716 102.026321 152.24126 100.885711 151.400401 100.044851 
C 150.559542 99.203992 149.418932 98.731536 148.229777 98.731536 
C 147.040623 98.731536 145.900013 99.203992 145.059153 100.044851 
C 144.218294 100.885711 143.745838 102.026321 143.745838 103.215475 
C 143.745838 104.40463 144.218294 105.54524 145.059153 106.386099 
C 145.900013 107.226958 147.040623 107.699414 148.229777 107.699414 
z
" style="fill-opacity:0.5;stroke:#000000;stroke-opacity:0.5;"/>
    <path clip-path="url(#p37768f8874)" d="M 235.261661 192.565894 
C 236.390177 192.565894 237.472624 192.11753 238.270606 191.319549 
C 239.068587 190.521567 239.516952 189.43912 239.516952 188.310603 
C 239.516952 187.182087 239.068587 186.09964 238.270606 185.301658 
C 237.472624 184.503677 236.390177 184.055312 235.261661 184.055312 
C 234.133144 184.055312 233.050697 184.503677 232.252716 185.301658 
C 231.454734 186.09964 231.00637 187.182087 231.00637 188.310603 
C 231.00637 189.43912 231.454734 190.521567 232.252716 191.319549 
C 233.050697 192.11753 234.133144 192.565894 235.261661 192.565894 
z
" style="fill-opacity:0.5;stroke:#000000;stroke-opacity:0.5;"/>
    <path clip-path="url(#p37768f8874)" d="M 51.496625 49.824072 
C 52.561854 49.824072 53.583597 49.400852 54.336828 48.647622 
C 55.090059 47.894391 55.513279 46.872648 55.513279 45.807419 
C 55.513279 44.74219 55.090059 43.720446 54.336828 42.967216 
C 53.583597 42.213985 52.561854 41.790765 51.496625 41.790765 
C 50.431396 41.790765 49.409653 42.213985 48.656422 42.967216 
C 47.903192 43.720446 47.479972 44.74219 47.479972 45.807419 
C 47.479972 46.872648 47.903192 47.894391 48.656422 48.647622 
C 49.409653 49.400852 50.431396 49.824072 51.496625 49.824072 
z
" style="fill-opacity:0.5;stroke:#000000;stroke-opacity:0.5;"/>
    <path clip-path="url(#p37768f8874)" d="M 214.24486 161.635956 
C 215.403601 161.635956 216.515039 161.175584 217.334393 160.35623 
C 218.153747 159.536876 218.614119 158.425438 218.614119 157.266697 
C 218.614119 156.107956 218.153747 154.996518 217.334393 154.177164 
C 216.515039 153.35781 215.403601 152.897438 214.24486 152.897438 
C 213.086119 152.897438 211.974681 153.35781 211.155327 154.177164 
C 210.335973 154.996518 209.875601 156.107956 209.875601 157.266697 
C 209.875601 158.425438 210.335973 159.536876 211.155327 160.35623 
C 211.974681 161.175584 213.086119 161.635956 214.24486 161.635956 
z
" style="fill-opacity:0.5;stroke:#000000;stroke-opacity:0.5;"/>
    <path clip-path="url(#p37768f8874)" d="M 214.24486 161.635956 
C 215.403601 161.635956 216.515039 161.175584 217.334393 160.35623 
C 218.153747 159.536876 218.614119 158.425438 218.614119 157.266697 
C 218.614119 156.107956 218.153747 154.996518 217.334393 154.177164 
C 216.515039 153.35781 215.403601 152.897438 214.24486 152.897438 
C 213.086119 152.897438 211.974681 153.35781 211.155327 154.177164 
C 210.335973 154.996518 209.875601 156.107956 209.875601 157.266697 
C 209.875601 158.425438 210.335973 159.536876 211.155327 160.35623 
C 211.974681 161.175584 213.086119 161.635956 214.24486 161.635956 
z
" style="fill-opacity:0.5;stroke:#000000;stroke-opacity:0.5;"/>
    <path clip-path="url(#p37768f8874)" d="M 204.164193 163.636531 
C 205.371978 163.636531 206.530458 163.156673 207.384491 162.30264 
C 208.238525 161.448607 208.718383 160.290127 208.718383 159.082341 
C 208.718383 157.874556 208.238525 156.716076 207.384491 155.862043 
C 206.530458 155.00801 205.371978 154.528152 204.164193 154.528152 
C 202.956408 154.528152 201.797928 155.00801 200.943895 155.862043 
C 200.089861 156.716076 199.610003 157.874556 199.610003 159.082341 
C 199.610003 160.290127 200.089861 161.448607 200.943895 162.30264 
C 201.797928 163.156673 202.956408 163.636531 204.164193 163.636531 
z
" style="fill-opacity:0.5;stroke:#000000;stroke-opacity:0.5;"/>
    <path clip-path="url(#p37768f8874)" d="M 138.748789 177.197168 
C 139.886788 177.197168 140.97833 176.745036 141.783017 175.94035 
C 142.587703 175.135663 143.039835 174.044121 143.039835 172.906122 
C 143.039835 171.768124 142.587703 170.676581 141.783017 169.871895 
C 140.97833 169.067208 139.886788 168.615077 138.748789 168.615077 
C 137.610791 168.615077 136.519248 169.067208 135.714562 169.871895 
C 134.909875 170.676581 134.457744 171.768124 134.457744 172.906122 
C 134.457744 174.044121 134.909875 175.135663 135.714562 175.94035 
C 136.519248 176.745036 137.610791 177.197168 138.748789 177.197168 
z
" style="fill-opacity:0.5;stroke:#000000;stroke-opacity:0.5;"/>
    <path clip-path="url(#p37768f8874)" d="M 142.816757 151.94754 
C 143.980707 151.94754 145.09714 151.485098 145.920177 150.662061 
C 146.743213 149.839025 147.205655 148.722591 147.205655 147.558642 
C 147.205655 146.394693 146.743213 145.278259 145.920177 144.455222 
C 145.09714 143.632186 143.980707 143.169744 142.816757 143.169744 
C 141.652808 143.169744 140.536374 143.632186 139.713338 144.455222 
C 138.890302 145.278259 138.42786 146.394693 138.42786 147.558642 
C 138.42786 148.722591 138.890302 149.839025 139.713338 150.662061 
C 140.536374 151.485098 141.652808 151.94754 142.816757 151.94754 
z
" style="fill-opacity:0.5;stroke:#000000;stroke-opacity:0.5;"/>
    <path clip-path="url(#p37768f8874)" d="M 142.816757 151.94754 
C 143.980707 151.94754 145.09714 151.485098 145.920177 150.662061 
C 146.743213 149.839025 147.205655 148.722591 147.205655 147.558642 
C 147.205655 146.394693 146.743213 145.278259 145.920177 144.455222 
C 145.09714 143.632186 143.980707 143.169744 142.816757 143.169744 
C 141.652808 143.169744 140.536374 143.632186 139.713338 144.455222 
C 138.890302 145.278259 138.42786 146.394693 138.42786 147.558642 
C 138.42786 148.722591 138.890302 149.839025 139.713338 150.662061 
C 140.536374 151.485098 141.652808 151.94754 142.816757 151.94754 
z
" style="fill-opacity:0.5;stroke:#000000;stroke-opacity:0.5;"/>
    <path clip-path="url(#p37768f8874)" d="M 197.415113 208.392203 
C 198.663321 208.392203 199.860574 207.896285 200.74319 207.013669 
C 201.625807 206.131052 202.121725 204.933799 202.121725 203.685591 
C 202.121725 202.437383 201.625807 201.24013 200.74319 200.357514 
C 199.860574 199.474898 198.663321 198.978979 197.415113 198.978979 
C 196.166905 198.978979 194.969652 199.474898 194.087036 200.357514 
C 193.204419 201.24013 192.708501 202.437383 192.708501 203.685591 
C 192.708501 204.933799 193.204419 206.131052 194.087036 207.013669 
C 194.969652 207.896285 196.166905 208.392203 197.415113 208.392203 
z
" style="fill-opacity:0.5;stroke:#000000;stroke-opacity:0.5;"/>
    <path clip-path="url(#p37768f8874)" d="M 243.341379 93.387307 
C 244.478669 93.387307 245.569531 92.935457 246.373716 92.131272 
C 247.177901 91.327087 247.629751 90.236224 247.629751 89.098935 
C 247.629751 87.961645 247.177901 86.870783 246.373716 86.066598 
C 245.569531 85.262413 244.478669 84.810563 243.341379 84.810563 
C 242.204089 84.810563 241.113227 85.262413 240.309042 86.066598 
C 239.504857 86.870783 239.053007 87.961645 239.053007 89.098935 
C 239.053007 90.236224 239.504857 91.327087 240.309042 92.131272 
C 241.113227 92.935457 242.204089 93.387307 243.341379 93.387307 
z
" style="fill-opacity:0.5;stroke:#000000;stroke-opacity:0.5;"/>
    <path clip-path="url(#p37768f8874)" d="M 209.623581 155.409775 
C 210.951632 155.409775 212.225469 154.882135 213.164543 153.943061 
C 214.103617 153.003987 214.631257 151.730151 214.631257 150.402099 
C 214.631257 149.074048 214.103617 147.800212 213.164543 146.861138 
C 212.225469 145.922064 210.951632 145.394423 209.623581 145.394423 
C 208.29553 145.394423 207.021693 145.922064 206.082619 146.861138 
C 205.143545 147.800212 204.615905 149.074048 204.615905 150.402099 
C 204.615905 151.730151 205.143545 153.003987 206.082619 153.943061 
C 207.021693 154.882135 208.29553 155.409775 209.623581 155.409775 
z
" style="fill-opacity:0.5;stroke:#000000;stroke-opacity:0.5;"/>
    <path clip-path="url(#p37768f8874)" d="M 170.528497 240.811612 
C 171.664686 240.811612 172.754493 240.360199 173.5579 239.556792 
C 174.361307 238.753385 174.81272 237.663578 174.81272 236.527389 
C 174.81272 235.3912 174.361307 234.301393 173.5579 233.497986 
C 172.754493 232.694579 171.664686 232.243166 170.528497 232.243166 
C 169.392308 232.243166 168.302501 232.694579 167.499094 233.497986 
C 166.695687 234.301393 166.244274 235.3912 166.244274 236.527389 
C 166.244274 237.663578 166.695687 238.753385 167.499094 239.556792 
C 168.302501 240.360199 169.392308 240.811612 170.528497 240.811612 
z
" style="fill-opacity:0.5;stroke:#000000;stroke-opacity:0.5;"/>
    <path clip-path="url(#p37768f8874)" d="M 126.179231 151.263852 
C 127.338071 151.263852 128.449604 150.80344 129.269028 149.984016 
C 130.088451 149.164593 130.548863 148.05306 130.548863 146.89422 
C 130.548863 145.73538 130.088451 144.623847 129.269028 143.804424 
C 128.449604 142.985 127.338071 142.524588 126.179231 142.524588 
C 125.020392 142.524588 123.908859 142.985 123.089435 143.804424 
C 122.270012 144.623847 121.8096 145.73538 121.8096 146.89422 
C 121.8096 148.05306 122.270012 149.164593 123.089435 149.984016 
C 123.908859 150.80344 125.020392 151.263852 126.179231 151.263852 
z
" style="fill-opacity:0.5;stroke:#000000;stroke-opacity:0.5;"/>
    <path clip-path="url(#p37768f8874)" d="M 126.179231 151.263852 
C 127.338071 151.263852 128.449604 150.80344 129.269028 149.984016 
C 130.088451 149.164593 130.548863 148.05306 130.548863 146.89422 
C 130.548863 145.73538 130.088451 144.623847 129.269028 143.804424 
C 128.449604 142.985 127.338071 142.524588 126.179231 142.524588 
C 125.020392 142.524588 123.908859 142.985 123.089435 143.804424 
C 122.270012 144.623847 121.8096 145.73538 121.8096 146.89422 
C 121.8096 148.05306 122.270012 149.164593 123.089435 149.984016 
C 123.908859 150.80344 125.020392 151.263852 126.179231 151.263852 
z
" style="fill-opacity:0.5;stroke:#000000;stroke-opacity:0.5;"/>
    <path clip-path="url(#p37768f8874)" d="M 165.621919 224.706884 
C 166.715672 224.706884 167.764775 224.272331 168.538176 223.498931 
C 169.311576 222.72553 169.746129 221.676427 169.746129 220.582674 
C 169.746129 219.48892 169.311576 218.439817 168.538176 217.666417 
C 167.764775 216.893016 166.715672 216.458463 165.621919 216.458463 
C 164.528165 216.458463 163.479062 216.893016 162.705662 217.666417 
C 161.932261 218.439817 161.497708 219.48892 161.497708 220.582674 
C 161.497708 221.676427 161.932261 222.72553 162.705662 223.498931 
C 163.479062 224.272331 164.528165 224.706884 165.621919 224.706884 
z
" style="fill-opacity:0.5;stroke:#000000;stroke-opacity:0.5;"/>
    <path clip-path="url(#p37768f8874)" d="M 165.621919 224.706884 
C 166.715672 224.706884 167.764775 224.272331 168.538176 223.498931 
C 169.311576 222.72553 169.746129 221.676427 169.746129 220.582674 
C 169.746129 219.48892 169.311576 218.439817 168.538176 217.666417 
C 167.764775 216.893016 166.715672 216.458463 165.621919 216.458463 
C 164.528165 216.458463 163.479062 216.893016 162.705662 217.666417 
C 161.932261 218.439817 161.497708 219.48892 161.497708 220.582674 
C 161.497708 221.676427 161.932261 222.72553 162.705662 223.498931 
C 163.479062 224.272331 164.528165 224.706884 165.621919 224.706884 
z
" style="fill-opacity:0.5;stroke:#000000;stroke-opacity:0.5;"/>
   </g>
   <g id="matplotlib.axis_1">
    <g id="xtick_1">
     <g id="line2d_1">
      <defs>
       <path d="M 0 0 
L 0 3.5 
" id="maca3441fa2" style="stroke:#000000;stroke-width:0.8;"/>
      </defs>
      <g>
       <use style="stroke:#000000;stroke-width:0.8;" x="58.060717" xlink:href="#maca3441fa2" y="256.32"/>
      </g>
     </g>
     <g id="text_1">
      <!-- −0.3 -->
      <defs>
       <path d="M 10.59375 35.5 
L 73.1875 35.5 
L 73.1875 27.203125 
L 10.59375 27.203125 
z
" id="DejaVuSans-2212"/>
       <path d="M 31.78125 66.40625 
Q 24.171875 66.40625 20.328125 58.90625 
Q 16.5 51.421875 16.5 36.375 
Q 16.5 21.390625 20.328125 13.890625 
Q 24.171875 6.390625 31.78125 6.390625 
Q 39.453125 6.390625 43.28125 13.890625 
Q 47.125 21.390625 47.125 36.375 
Q 47.125 51.421875 43.28125 58.90625 
Q 39.453125 66.40625 31.78125 66.40625 
z
M 31.78125 74.21875 
Q 44.046875 74.21875 50.515625 64.515625 
Q 56.984375 54.828125 56.984375 36.375 
Q 56.984375 17.96875 50.515625 8.265625 
Q 44.046875 -1.421875 31.78125 -1.421875 
Q 19.53125 -1.421875 13.0625 8.265625 
Q 6.59375 17.96875 6.59375 36.375 
Q 6.59375 54.828125 13.0625 64.515625 
Q 19.53125 74.21875 31.78125 74.21875 
z
" id="DejaVuSans-30"/>
       <path d="M 10.6875 12.40625 
L 21 12.40625 
L 21 0 
L 10.6875 0 
z
" id="DejaVuSans-2e"/>
       <path d="M 40.578125 39.3125 
Q 47.65625 37.796875 51.625 33 
Q 55.609375 28.21875 55.609375 21.1875 
Q 55.609375 10.40625 48.1875 4.484375 
Q 40.765625 -1.421875 27.09375 -1.421875 
Q 22.515625 -1.421875 17.65625 -0.515625 
Q 12.796875 0.390625 7.625 2.203125 
L 7.625 11.71875 
Q 11.71875 9.328125 16.59375 8.109375 
Q 21.484375 6.890625 26.8125 6.890625 
Q 36.078125 6.890625 40.9375 10.546875 
Q 45.796875 14.203125 45.796875 21.1875 
Q 45.796875 27.640625 41.28125 31.265625 
Q 36.765625 34.90625 28.71875 34.90625 
L 20.21875 34.90625 
L 20.21875 43.015625 
L 29.109375 43.015625 
Q 36.375 43.015625 40.234375 45.921875 
Q 44.09375 48.828125 44.09375 54.296875 
Q 44.09375 59.90625 40.109375 62.90625 
Q 36.140625 65.921875 28.71875 65.921875 
Q 24.65625 65.921875 20.015625 65.03125 
Q 15.375 64.15625 9.8125 62.3125 
L 9.8125 71.09375 
Q 15.4375 72.65625 20.34375 73.4375 
Q 25.25 74.21875 29.59375 74.21875 
Q 40.828125 74.21875 47.359375 69.109375 
Q 53.90625 64.015625 53.90625 55.328125 
Q 53.90625 49.265625 50.4375 45.09375 
Q 46.96875 40.921875 40.578125 39.3125 
z
" id="DejaVuSans-33"/>
      </defs>
      <g transform="translate(45.919311 270.918437)scale(0.1 -0.1)">
       <use xlink:href="#DejaVuSans-2212"/>
       <use x="83.789062" xlink:href="#DejaVuSans-30"/>
       <use x="147.412109" xlink:href="#DejaVuSans-2e"/>
       <use x="179.199219" xlink:href="#DejaVuSans-33"/>
      </g>
     </g>
    </g>
    <g id="xtick_2">
     <g id="line2d_2">
      <g>
       <use style="stroke:#000000;stroke-width:0.8;" x="99.360343" xlink:href="#maca3441fa2" y="256.32"/>
      </g>
     </g>
     <g id="text_2">
      <!-- −0.2 -->
      <defs>
       <path d="M 19.1875 8.296875 
L 53.609375 8.296875 
L 53.609375 0 
L 7.328125 0 
L 7.328125 8.296875 
Q 12.9375 14.109375 22.625 23.890625 
Q 32.328125 33.6875 34.8125 36.53125 
Q 39.546875 41.84375 41.421875 45.53125 
Q 43.3125 49.21875 43.3125 52.78125 
Q 43.3125 58.59375 39.234375 62.25 
Q 35.15625 65.921875 28.609375 65.921875 
Q 23.96875 65.921875 18.8125 64.3125 
Q 13.671875 62.703125 7.8125 59.421875 
L 7.8125 69.390625 
Q 13.765625 71.78125 18.9375 73 
Q 24.125 74.21875 28.421875 74.21875 
Q 39.75 74.21875 46.484375 68.546875 
Q 53.21875 62.890625 53.21875 53.421875 
Q 53.21875 48.921875 51.53125 44.890625 
Q 49.859375 40.875 45.40625 35.40625 
Q 44.1875 33.984375 37.640625 27.21875 
Q 31.109375 20.453125 19.1875 8.296875 
z
" id="DejaVuSans-32"/>
      </defs>
      <g transform="translate(87.218936 270.918437)scale(0.1 -0.1)">
       <use xlink:href="#DejaVuSans-2212"/>
       <use x="83.789062" xlink:href="#DejaVuSans-30"/>
       <use x="147.412109" xlink:href="#DejaVuSans-2e"/>
       <use x="179.199219" xlink:href="#DejaVuSans-32"/>
      </g>
     </g>
    </g>
    <g id="xtick_3">
     <g id="line2d_3">
      <g>
       <use style="stroke:#000000;stroke-width:0.8;" x="140.659968" xlink:href="#maca3441fa2" y="256.32"/>
      </g>
     </g>
     <g id="text_3">
      <!-- −0.1 -->
      <defs>
       <path d="M 12.40625 8.296875 
L 28.515625 8.296875 
L 28.515625 63.921875 
L 10.984375 60.40625 
L 10.984375 69.390625 
L 28.421875 72.90625 
L 38.28125 72.90625 
L 38.28125 8.296875 
L 54.390625 8.296875 
L 54.390625 0 
L 12.40625 0 
z
" id="DejaVuSans-31"/>
      </defs>
      <g transform="translate(128.518562 270.918437)scale(0.1 -0.1)">
       <use xlink:href="#DejaVuSans-2212"/>
       <use x="83.789062" xlink:href="#DejaVuSans-30"/>
       <use x="147.412109" xlink:href="#DejaVuSans-2e"/>
       <use x="179.199219" xlink:href="#DejaVuSans-31"/>
      </g>
     </g>
    </g>
    <g id="xtick_4">
     <g id="line2d_4">
      <g>
       <use style="stroke:#000000;stroke-width:0.8;" x="181.959594" xlink:href="#maca3441fa2" y="256.32"/>
      </g>
     </g>
     <g id="text_4">
      <!-- 0.0 -->
      <g transform="translate(174.008032 270.918437)scale(0.1 -0.1)">
       <use xlink:href="#DejaVuSans-30"/>
       <use x="63.623047" xlink:href="#DejaVuSans-2e"/>
       <use x="95.410156" xlink:href="#DejaVuSans-30"/>
      </g>
     </g>
    </g>
    <g id="xtick_5">
     <g id="line2d_5">
      <g>
       <use style="stroke:#000000;stroke-width:0.8;" x="223.25922" xlink:href="#maca3441fa2" y="256.32"/>
      </g>
     </g>
     <g id="text_5">
      <!-- 0.1 -->
      <g transform="translate(215.307658 270.918437)scale(0.1 -0.1)">
       <use xlink:href="#DejaVuSans-30"/>
       <use x="63.623047" xlink:href="#DejaVuSans-2e"/>
       <use x="95.410156" xlink:href="#DejaVuSans-31"/>
      </g>
     </g>
    </g>
    <g id="text_6">
     <!-- r0 dFdh . W_out(cos@) -->
     <defs>
      <path d="M 41.109375 46.296875 
Q 39.59375 47.171875 37.8125 47.578125 
Q 36.03125 48 33.890625 48 
Q 26.265625 48 22.1875 43.046875 
Q 18.109375 38.09375 18.109375 28.8125 
L 18.109375 0 
L 9.078125 0 
L 9.078125 54.6875 
L 18.109375 54.6875 
L 18.109375 46.1875 
Q 20.953125 51.171875 25.484375 53.578125 
Q 30.03125 56 36.53125 56 
Q 37.453125 56 38.578125 55.875 
Q 39.703125 55.765625 41.0625 55.515625 
z
" id="DejaVuSans-72"/>
      <path id="DejaVuSans-20"/>
      <path d="M 45.40625 46.390625 
L 45.40625 75.984375 
L 54.390625 75.984375 
L 54.390625 0 
L 45.40625 0 
L 45.40625 8.203125 
Q 42.578125 3.328125 38.25 0.953125 
Q 33.9375 -1.421875 27.875 -1.421875 
Q 17.96875 -1.421875 11.734375 6.484375 
Q 5.515625 14.40625 5.515625 27.296875 
Q 5.515625 40.1875 11.734375 48.09375 
Q 17.96875 56 27.875 56 
Q 33.9375 56 38.25 53.625 
Q 42.578125 51.265625 45.40625 46.390625 
z
M 14.796875 27.296875 
Q 14.796875 17.390625 18.875 11.75 
Q 22.953125 6.109375 30.078125 6.109375 
Q 37.203125 6.109375 41.296875 11.75 
Q 45.40625 17.390625 45.40625 27.296875 
Q 45.40625 37.203125 41.296875 42.84375 
Q 37.203125 48.484375 30.078125 48.484375 
Q 22.953125 48.484375 18.875 42.84375 
Q 14.796875 37.203125 14.796875 27.296875 
z
" id="DejaVuSans-64"/>
      <path d="M 9.8125 72.90625 
L 51.703125 72.90625 
L 51.703125 64.59375 
L 19.671875 64.59375 
L 19.671875 43.109375 
L 48.578125 43.109375 
L 48.578125 34.8125 
L 19.671875 34.8125 
L 19.671875 0 
L 9.8125 0 
z
" id="DejaVuSans-46"/>
      <path d="M 54.890625 33.015625 
L 54.890625 0 
L 45.90625 0 
L 45.90625 32.71875 
Q 45.90625 40.484375 42.875 44.328125 
Q 39.84375 48.1875 33.796875 48.1875 
Q 26.515625 48.1875 22.3125 43.546875 
Q 18.109375 38.921875 18.109375 30.90625 
L 18.109375 0 
L 9.078125 0 
L 9.078125 75.984375 
L 18.109375 75.984375 
L 18.109375 46.1875 
Q 21.34375 51.125 25.703125 53.5625 
Q 30.078125 56 35.796875 56 
Q 45.21875 56 50.046875 50.171875 
Q 54.890625 44.34375 54.890625 33.015625 
z
" id="DejaVuSans-68"/>
      <path d="M 3.328125 72.90625 
L 13.28125 72.90625 
L 28.609375 11.28125 
L 43.890625 72.90625 
L 54.984375 72.90625 
L 70.3125 11.28125 
L 85.59375 72.90625 
L 95.609375 72.90625 
L 77.296875 0 
L 64.890625 0 
L 49.515625 63.28125 
L 33.984375 0 
L 21.578125 0 
z
" id="DejaVuSans-57"/>
      <path d="M 50.984375 -16.609375 
L 50.984375 -23.578125 
L -0.984375 -23.578125 
L -0.984375 -16.609375 
z
" id="DejaVuSans-5f"/>
      <path d="M 30.609375 48.390625 
Q 23.390625 48.390625 19.1875 42.75 
Q 14.984375 37.109375 14.984375 27.296875 
Q 14.984375 17.484375 19.15625 11.84375 
Q 23.34375 6.203125 30.609375 6.203125 
Q 37.796875 6.203125 41.984375 11.859375 
Q 46.1875 17.53125 46.1875 27.296875 
Q 46.1875 37.015625 41.984375 42.703125 
Q 37.796875 48.390625 30.609375 48.390625 
z
M 30.609375 56 
Q 42.328125 56 49.015625 48.375 
Q 55.71875 40.765625 55.71875 27.296875 
Q 55.71875 13.875 49.015625 6.21875 
Q 42.328125 -1.421875 30.609375 -1.421875 
Q 18.84375 -1.421875 12.171875 6.21875 
Q 5.515625 13.875 5.515625 27.296875 
Q 5.515625 40.765625 12.171875 48.375 
Q 18.84375 56 30.609375 56 
z
" id="DejaVuSans-6f"/>
      <path d="M 8.5 21.578125 
L 8.5 54.6875 
L 17.484375 54.6875 
L 17.484375 21.921875 
Q 17.484375 14.15625 20.5 10.265625 
Q 23.53125 6.390625 29.59375 6.390625 
Q 36.859375 6.390625 41.078125 11.03125 
Q 45.3125 15.671875 45.3125 23.6875 
L 45.3125 54.6875 
L 54.296875 54.6875 
L 54.296875 0 
L 45.3125 0 
L 45.3125 8.40625 
Q 42.046875 3.421875 37.71875 1 
Q 33.40625 -1.421875 27.6875 -1.421875 
Q 18.265625 -1.421875 13.375 4.4375 
Q 8.5 10.296875 8.5 21.578125 
z
M 31.109375 56 
z
" id="DejaVuSans-75"/>
      <path d="M 18.3125 70.21875 
L 18.3125 54.6875 
L 36.8125 54.6875 
L 36.8125 47.703125 
L 18.3125 47.703125 
L 18.3125 18.015625 
Q 18.3125 11.328125 20.140625 9.421875 
Q 21.96875 7.515625 27.59375 7.515625 
L 36.8125 7.515625 
L 36.8125 0 
L 27.59375 0 
Q 17.1875 0 13.234375 3.875 
Q 9.28125 7.765625 9.28125 18.015625 
L 9.28125 47.703125 
L 2.6875 47.703125 
L 2.6875 54.6875 
L 9.28125 54.6875 
L 9.28125 70.21875 
z
" id="DejaVuSans-74"/>
      <path d="M 31 75.875 
Q 24.46875 64.65625 21.28125 53.65625 
Q 18.109375 42.671875 18.109375 31.390625 
Q 18.109375 20.125 21.3125 9.0625 
Q 24.515625 -2 31 -13.1875 
L 23.1875 -13.1875 
Q 15.875 -1.703125 12.234375 9.375 
Q 8.59375 20.453125 8.59375 31.390625 
Q 8.59375 42.28125 12.203125 53.3125 
Q 15.828125 64.359375 23.1875 75.875 
z
" id="DejaVuSans-28"/>
      <path d="M 48.78125 52.59375 
L 48.78125 44.1875 
Q 44.96875 46.296875 41.140625 47.34375 
Q 37.3125 48.390625 33.40625 48.390625 
Q 24.65625 48.390625 19.8125 42.84375 
Q 14.984375 37.3125 14.984375 27.296875 
Q 14.984375 17.28125 19.8125 11.734375 
Q 24.65625 6.203125 33.40625 6.203125 
Q 37.3125 6.203125 41.140625 7.25 
Q 44.96875 8.296875 48.78125 10.40625 
L 48.78125 2.09375 
Q 45.015625 0.34375 40.984375 -0.53125 
Q 36.96875 -1.421875 32.421875 -1.421875 
Q 20.0625 -1.421875 12.78125 6.34375 
Q 5.515625 14.109375 5.515625 27.296875 
Q 5.515625 40.671875 12.859375 48.328125 
Q 20.21875 56 33.015625 56 
Q 37.15625 56 41.109375 55.140625 
Q 45.0625 54.296875 48.78125 52.59375 
z
" id="DejaVuSans-63"/>
      <path d="M 44.28125 53.078125 
L 44.28125 44.578125 
Q 40.484375 46.53125 36.375 47.5 
Q 32.28125 48.484375 27.875 48.484375 
Q 21.1875 48.484375 17.84375 46.4375 
Q 14.5 44.390625 14.5 40.28125 
Q 14.5 37.15625 16.890625 35.375 
Q 19.28125 33.59375 26.515625 31.984375 
L 29.59375 31.296875 
Q 39.15625 29.25 43.1875 25.515625 
Q 47.21875 21.78125 47.21875 15.09375 
Q 47.21875 7.46875 41.1875 3.015625 
Q 35.15625 -1.421875 24.609375 -1.421875 
Q 20.21875 -1.421875 15.453125 -0.5625 
Q 10.6875 0.296875 5.421875 2 
L 5.421875 11.28125 
Q 10.40625 8.6875 15.234375 7.390625 
Q 20.0625 6.109375 24.8125 6.109375 
Q 31.15625 6.109375 34.5625 8.28125 
Q 37.984375 10.453125 37.984375 14.40625 
Q 37.984375 18.0625 35.515625 20.015625 
Q 33.0625 21.96875 24.703125 23.78125 
L 21.578125 24.515625 
Q 13.234375 26.265625 9.515625 29.90625 
Q 5.8125 33.546875 5.8125 39.890625 
Q 5.8125 47.609375 11.28125 51.796875 
Q 16.75 56 26.8125 56 
Q 31.78125 56 36.171875 55.265625 
Q 40.578125 54.546875 44.28125 53.078125 
z
" id="DejaVuSans-73"/>
      <path d="M 37.203125 26.21875 
Q 37.203125 19.234375 40.671875 15.25 
Q 44.140625 11.28125 50.203125 11.28125 
Q 56.203125 11.28125 59.640625 15.28125 
Q 63.09375 19.28125 63.09375 26.21875 
Q 63.09375 33.0625 59.578125 37.078125 
Q 56.0625 41.109375 50.09375 41.109375 
Q 44.1875 41.109375 40.6875 37.109375 
Q 37.203125 33.109375 37.203125 26.21875 
z
M 63.8125 11.625 
Q 60.890625 7.859375 57.109375 6.078125 
Q 53.328125 4.296875 48.296875 4.296875 
Q 39.890625 4.296875 34.640625 10.375 
Q 29.390625 16.453125 29.390625 26.21875 
Q 29.390625 35.984375 34.65625 42.078125 
Q 39.9375 48.1875 48.296875 48.1875 
Q 53.328125 48.1875 57.125 46.359375 
Q 60.9375 44.53125 63.8125 40.828125 
L 63.8125 47.21875 
L 70.796875 47.21875 
L 70.796875 11.28125 
Q 77.9375 12.359375 81.953125 17.796875 
Q 85.984375 23.25 85.984375 31.890625 
Q 85.984375 37.109375 84.4375 41.703125 
Q 82.90625 46.296875 79.78125 50.203125 
Q 74.703125 56.59375 67.40625 59.984375 
Q 60.109375 63.375 51.515625 63.375 
Q 45.515625 63.375 39.984375 61.78125 
Q 34.46875 60.203125 29.78125 57.078125 
Q 22.125 52.09375 17.796875 44.015625 
Q 13.484375 35.9375 13.484375 26.515625 
Q 13.484375 18.75 16.28125 11.953125 
Q 19.09375 5.171875 24.421875 0 
Q 29.546875 -5.078125 36.28125 -7.734375 
Q 43.015625 -10.40625 50.6875 -10.40625 
Q 56.984375 -10.40625 63.0625 -8.28125 
Q 69.140625 -6.15625 74.21875 -2.203125 
L 78.609375 -7.625 
Q 72.515625 -12.359375 65.3125 -14.875 
Q 58.109375 -17.390625 50.6875 -17.390625 
Q 41.65625 -17.390625 33.640625 -14.1875 
Q 25.640625 -10.984375 19.390625 -4.890625 
Q 13.140625 1.21875 9.859375 9.25 
Q 6.59375 17.28125 6.59375 26.515625 
Q 6.59375 35.40625 9.90625 43.453125 
Q 13.234375 51.515625 19.390625 57.625 
Q 25.6875 63.8125 33.9375 67.109375 
Q 42.1875 70.40625 51.421875 70.40625 
Q 61.765625 70.40625 70.625 66.15625 
Q 79.5 61.921875 85.5 54.109375 
Q 89.15625 49.3125 91.078125 43.703125 
Q 93.015625 38.09375 93.015625 32.078125 
Q 93.015625 19.234375 85.25 11.8125 
Q 77.484375 4.390625 63.8125 4.109375 
z
" id="DejaVuSans-40"/>
      <path d="M 8.015625 75.875 
L 15.828125 75.875 
Q 23.140625 64.359375 26.78125 53.3125 
Q 30.421875 42.28125 30.421875 31.390625 
Q 30.421875 20.453125 26.78125 9.375 
Q 23.140625 -1.703125 15.828125 -13.1875 
L 8.015625 -13.1875 
Q 14.5 -2 17.703125 9.0625 
Q 20.90625 20.125 20.90625 31.390625 
Q 20.90625 42.671875 17.703125 53.65625 
Q 14.5 64.65625 8.015625 75.875 
z
" id="DejaVuSans-29"/>
     </defs>
     <g transform="translate(90.667187 284.596563)scale(0.1 -0.1)">
      <use xlink:href="#DejaVuSans-72"/>
      <use x="41.113281" xlink:href="#DejaVuSans-30"/>
      <use x="104.736328" xlink:href="#DejaVuSans-20"/>
      <use x="136.523438" xlink:href="#DejaVuSans-64"/>
      <use x="200" xlink:href="#DejaVuSans-46"/>
      <use x="257.519531" xlink:href="#DejaVuSans-64"/>
      <use x="320.996094" xlink:href="#DejaVuSans-68"/>
      <use x="384.375" xlink:href="#DejaVuSans-20"/>
      <use x="416.162109" xlink:href="#DejaVuSans-2e"/>
      <use x="447.949219" xlink:href="#DejaVuSans-20"/>
      <use x="479.736328" xlink:href="#DejaVuSans-57"/>
      <use x="578.613281" xlink:href="#DejaVuSans-5f"/>
      <use x="628.613281" xlink:href="#DejaVuSans-6f"/>
      <use x="689.794922" xlink:href="#DejaVuSans-75"/>
      <use x="753.173828" xlink:href="#DejaVuSans-74"/>
      <use x="792.382812" xlink:href="#DejaVuSans-28"/>
      <use x="831.396484" xlink:href="#DejaVuSans-63"/>
      <use x="886.376953" xlink:href="#DejaVuSans-6f"/>
      <use x="947.558594" xlink:href="#DejaVuSans-73"/>
      <use x="999.658203" xlink:href="#DejaVuSans-40"/>
      <use x="1099.658203" xlink:href="#DejaVuSans-29"/>
     </g>
    </g>
   </g>
   <g id="matplotlib.axis_2">
    <g id="ytick_1">
     <g id="line2d_6">
      <defs>
       <path d="M 0 0 
L -3.5 0 
" id="m0f9b350cdf" style="stroke:#000000;stroke-width:0.8;"/>
      </defs>
      <g>
       <use style="stroke:#000000;stroke-width:0.8;" x="36" xlink:href="#m0f9b350cdf" y="242.708595"/>
      </g>
     </g>
     <g id="text_7">
      <!-- 0.00 -->
      <g transform="translate(6.734375 246.507814)scale(0.1 -0.1)">
       <use xlink:href="#DejaVuSans-30"/>
       <use x="63.623047" xlink:href="#DejaVuSans-2e"/>
       <use x="95.410156" xlink:href="#DejaVuSans-30"/>
       <use x="159.033203" xlink:href="#DejaVuSans-30"/>
      </g>
     </g>
    </g>
    <g id="ytick_2">
     <g id="line2d_7">
      <g>
       <use style="stroke:#000000;stroke-width:0.8;" x="36" xlink:href="#m0f9b350cdf" y="196.871391"/>
      </g>
     </g>
     <g id="text_8">
      <!-- 0.05 -->
      <defs>
       <path d="M 10.796875 72.90625 
L 49.515625 72.90625 
L 49.515625 64.59375 
L 19.828125 64.59375 
L 19.828125 46.734375 
Q 21.96875 47.46875 24.109375 47.828125 
Q 26.265625 48.1875 28.421875 48.1875 
Q 40.625 48.1875 47.75 41.5 
Q 54.890625 34.8125 54.890625 23.390625 
Q 54.890625 11.625 47.5625 5.09375 
Q 40.234375 -1.421875 26.90625 -1.421875 
Q 22.3125 -1.421875 17.546875 -0.640625 
Q 12.796875 0.140625 7.71875 1.703125 
L 7.71875 11.625 
Q 12.109375 9.234375 16.796875 8.0625 
Q 21.484375 6.890625 26.703125 6.890625 
Q 35.15625 6.890625 40.078125 11.328125 
Q 45.015625 15.765625 45.015625 23.390625 
Q 45.015625 31 40.078125 35.4375 
Q 35.15625 39.890625 26.703125 39.890625 
Q 22.75 39.890625 18.8125 39.015625 
Q 14.890625 38.140625 10.796875 36.28125 
z
" id="DejaVuSans-35"/>
      </defs>
      <g transform="translate(6.734375 200.67061)scale(0.1 -0.1)">
       <use xlink:href="#DejaVuSans-30"/>
       <use x="63.623047" xlink:href="#DejaVuSans-2e"/>
       <use x="95.410156" xlink:href="#DejaVuSans-30"/>
       <use x="159.033203" xlink:href="#DejaVuSans-35"/>
      </g>
     </g>
    </g>
    <g id="ytick_3">
     <g id="line2d_8">
      <g>
       <use style="stroke:#000000;stroke-width:0.8;" x="36" xlink:href="#m0f9b350cdf" y="151.034188"/>
      </g>
     </g>
     <g id="text_9">
      <!-- 0.10 -->
      <g transform="translate(6.734375 154.833407)scale(0.1 -0.1)">
       <use xlink:href="#DejaVuSans-30"/>
       <use x="63.623047" xlink:href="#DejaVuSans-2e"/>
       <use x="95.410156" xlink:href="#DejaVuSans-31"/>
       <use x="159.033203" xlink:href="#DejaVuSans-30"/>
      </g>
     </g>
    </g>
    <g id="ytick_4">
     <g id="line2d_9">
      <g>
       <use style="stroke:#000000;stroke-width:0.8;" x="36" xlink:href="#m0f9b350cdf" y="105.196985"/>
      </g>
     </g>
     <g id="text_10">
      <!-- 0.15 -->
      <g transform="translate(6.734375 108.996203)scale(0.1 -0.1)">
       <use xlink:href="#DejaVuSans-30"/>
       <use x="63.623047" xlink:href="#DejaVuSans-2e"/>
       <use x="95.410156" xlink:href="#DejaVuSans-31"/>
       <use x="159.033203" xlink:href="#DejaVuSans-35"/>
      </g>
     </g>
    </g>
    <g id="ytick_5">
     <g id="line2d_10">
      <g>
       <use style="stroke:#000000;stroke-width:0.8;" x="36" xlink:href="#m0f9b350cdf" y="59.359781"/>
      </g>
     </g>
     <g id="text_11">
      <!-- 0.20 -->
      <g transform="translate(6.734375 63.159)scale(0.1 -0.1)">
       <use xlink:href="#DejaVuSans-30"/>
       <use x="63.623047" xlink:href="#DejaVuSans-2e"/>
       <use x="95.410156" xlink:href="#DejaVuSans-32"/>
       <use x="159.033203" xlink:href="#DejaVuSans-30"/>
      </g>
     </g>
    </g>
    <g id="text_12">
     <!-- l0 dFdh . dfdx(cos@) -->
     <defs>
      <path d="M 9.421875 75.984375 
L 18.40625 75.984375 
L 18.40625 0 
L 9.421875 0 
z
" id="DejaVuSans-6c"/>
      <path d="M 37.109375 75.984375 
L 37.109375 68.5 
L 28.515625 68.5 
Q 23.6875 68.5 21.796875 66.546875 
Q 19.921875 64.59375 19.921875 59.515625 
L 19.921875 54.6875 
L 34.71875 54.6875 
L 34.71875 47.703125 
L 19.921875 47.703125 
L 19.921875 0 
L 10.890625 0 
L 10.890625 47.703125 
L 2.296875 47.703125 
L 2.296875 54.6875 
L 10.890625 54.6875 
L 10.890625 58.5 
Q 10.890625 67.625 15.140625 71.796875 
Q 19.390625 75.984375 28.609375 75.984375 
z
" id="DejaVuSans-66"/>
      <path d="M 54.890625 54.6875 
L 35.109375 28.078125 
L 55.90625 0 
L 45.3125 0 
L 29.390625 21.484375 
L 13.484375 0 
L 2.875 0 
L 24.125 28.609375 
L 4.6875 54.6875 
L 15.28125 54.6875 
L 29.78125 35.203125 
L 44.28125 54.6875 
z
" id="DejaVuSans-78"/>
     </defs>
     <g transform="translate(0.654687 197.142344)rotate(-90)scale(0.1 -0.1)">
      <use xlink:href="#DejaVuSans-6c"/>
      <use x="27.783203" xlink:href="#DejaVuSans-30"/>
      <use x="91.40625" xlink:href="#DejaVuSans-20"/>
      <use x="123.193359" xlink:href="#DejaVuSans-64"/>
      <use x="186.669922" xlink:href="#DejaVuSans-46"/>
      <use x="244.189453" xlink:href="#DejaVuSans-64"/>
      <use x="307.666016" xlink:href="#DejaVuSans-68"/>
      <use x="371.044922" xlink:href="#DejaVuSans-20"/>
      <use x="402.832031" xlink:href="#DejaVuSans-2e"/>
      <use x="434.619141" xlink:href="#DejaVuSans-20"/>
      <use x="466.40625" xlink:href="#DejaVuSans-64"/>
      <use x="529.882812" xlink:href="#DejaVuSans-66"/>
      <use x="565.087891" xlink:href="#DejaVuSans-64"/>
      <use x="628.564453" xlink:href="#DejaVuSans-78"/>
      <use x="687.744141" xlink:href="#DejaVuSans-28"/>
      <use x="726.757812" xlink:href="#DejaVuSans-63"/>
      <use x="781.738281" xlink:href="#DejaVuSans-6f"/>
      <use x="842.919922" xlink:href="#DejaVuSans-73"/>
      <use x="895.019531" xlink:href="#DejaVuSans-40"/>
      <use x="995.019531" xlink:href="#DejaVuSans-29"/>
     </g>
    </g>
   </g>
   <g id="patch_3">
    <path d="M 36 256.32 
L 36 34.56 
" style="fill:none;stroke:#000000;stroke-linecap:square;stroke-linejoin:miter;stroke-width:0.8;"/>
   </g>
   <g id="patch_4">
    <path d="M 259.2 256.32 
L 259.2 34.56 
" style="fill:none;stroke:#000000;stroke-linecap:square;stroke-linejoin:miter;stroke-width:0.8;"/>
   </g>
   <g id="patch_5">
    <path d="M 36 256.32 
L 259.2 256.32 
" style="fill:none;stroke:#000000;stroke-linecap:square;stroke-linejoin:miter;stroke-width:0.8;"/>
   </g>
   <g id="patch_6">
    <path d="M 36 34.56 
L 259.2 34.56 
" style="fill:none;stroke:#000000;stroke-linecap:square;stroke-linejoin:miter;stroke-width:0.8;"/>
   </g>
   <g id="text_13">
    <!-- delaydm2 -->
    <defs>
     <path d="M 56.203125 29.59375 
L 56.203125 25.203125 
L 14.890625 25.203125 
Q 15.484375 15.921875 20.484375 11.0625 
Q 25.484375 6.203125 34.421875 6.203125 
Q 39.59375 6.203125 44.453125 7.46875 
Q 49.3125 8.734375 54.109375 11.28125 
L 54.109375 2.78125 
Q 49.265625 0.734375 44.1875 -0.34375 
Q 39.109375 -1.421875 33.890625 -1.421875 
Q 20.796875 -1.421875 13.15625 6.1875 
Q 5.515625 13.8125 5.515625 26.8125 
Q 5.515625 40.234375 12.765625 48.109375 
Q 20.015625 56 32.328125 56 
Q 43.359375 56 49.78125 48.890625 
Q 56.203125 41.796875 56.203125 29.59375 
z
M 47.21875 32.234375 
Q 47.125 39.59375 43.09375 43.984375 
Q 39.0625 48.390625 32.421875 48.390625 
Q 24.90625 48.390625 20.390625 44.140625 
Q 15.875 39.890625 15.1875 32.171875 
z
" id="DejaVuSans-65"/>
     <path d="M 34.28125 27.484375 
Q 23.390625 27.484375 19.1875 25 
Q 14.984375 22.515625 14.984375 16.5 
Q 14.984375 11.71875 18.140625 8.90625 
Q 21.296875 6.109375 26.703125 6.109375 
Q 34.1875 6.109375 38.703125 11.40625 
Q 43.21875 16.703125 43.21875 25.484375 
L 43.21875 27.484375 
z
M 52.203125 31.203125 
L 52.203125 0 
L 43.21875 0 
L 43.21875 8.296875 
Q 40.140625 3.328125 35.546875 0.953125 
Q 30.953125 -1.421875 24.3125 -1.421875 
Q 15.921875 -1.421875 10.953125 3.296875 
Q 6 8.015625 6 15.921875 
Q 6 25.140625 12.171875 29.828125 
Q 18.359375 34.515625 30.609375 34.515625 
L 43.21875 34.515625 
L 43.21875 35.40625 
Q 43.21875 41.609375 39.140625 45 
Q 35.0625 48.390625 27.6875 48.390625 
Q 23 48.390625 18.546875 47.265625 
Q 14.109375 46.140625 10.015625 43.890625 
L 10.015625 52.203125 
Q 14.9375 54.109375 19.578125 55.046875 
Q 24.21875 56 28.609375 56 
Q 40.484375 56 46.34375 49.84375 
Q 52.203125 43.703125 52.203125 31.203125 
z
" id="DejaVuSans-61"/>
     <path d="M 32.171875 -5.078125 
Q 28.375 -14.84375 24.75 -17.8125 
Q 21.140625 -20.796875 15.09375 -20.796875 
L 7.90625 -20.796875 
L 7.90625 -13.28125 
L 13.1875 -13.28125 
Q 16.890625 -13.28125 18.9375 -11.515625 
Q 21 -9.765625 23.484375 -3.21875 
L 25.09375 0.875 
L 2.984375 54.6875 
L 12.5 54.6875 
L 29.59375 11.921875 
L 46.6875 54.6875 
L 56.203125 54.6875 
z
" id="DejaVuSans-79"/>
     <path d="M 52 44.1875 
Q 55.375 50.25 60.0625 53.125 
Q 64.75 56 71.09375 56 
Q 79.640625 56 84.28125 50.015625 
Q 88.921875 44.046875 88.921875 33.015625 
L 88.921875 0 
L 79.890625 0 
L 79.890625 32.71875 
Q 79.890625 40.578125 77.09375 44.375 
Q 74.3125 48.1875 68.609375 48.1875 
Q 61.625 48.1875 57.5625 43.546875 
Q 53.515625 38.921875 53.515625 30.90625 
L 53.515625 0 
L 44.484375 0 
L 44.484375 32.71875 
Q 44.484375 40.625 41.703125 44.40625 
Q 38.921875 48.1875 33.109375 48.1875 
Q 26.21875 48.1875 22.15625 43.53125 
Q 18.109375 38.875 18.109375 30.90625 
L 18.109375 0 
L 9.078125 0 
L 9.078125 54.6875 
L 18.109375 54.6875 
L 18.109375 46.1875 
Q 21.1875 51.21875 25.484375 53.609375 
Q 29.78125 56 35.6875 56 
Q 41.65625 56 45.828125 52.96875 
Q 50 49.953125 52 44.1875 
z
" id="DejaVuSans-6d"/>
    </defs>
    <g transform="translate(117.733125 28.56)scale(0.12 -0.12)">
     <use xlink:href="#DejaVuSans-64"/>
     <use x="63.476562" xlink:href="#DejaVuSans-65"/>
     <use x="125" xlink:href="#DejaVuSans-6c"/>
     <use x="152.783203" xlink:href="#DejaVuSans-61"/>
     <use x="214.0625" xlink:href="#DejaVuSans-79"/>
     <use x="273.242188" xlink:href="#DejaVuSans-64"/>
     <use x="336.71875" xlink:href="#DejaVuSans-6d"/>
     <use x="434.130859" xlink:href="#DejaVuSans-32"/>
    </g>
   </g>
   <g id="legend_1">
    <g id="patch_7">
     <path d="M 191.629687 71.91625 
L 252.2 71.91625 
Q 254.2 71.91625 254.2 69.91625 
L 254.2 41.56 
Q 254.2 39.56 252.2 39.56 
L 191.629687 39.56 
Q 189.629687 39.56 189.629687 41.56 
L 189.629687 69.91625 
Q 189.629687 71.91625 191.629687 71.91625 
z
" style="fill:#ffffff;opacity:0.8;stroke:#cccccc;stroke-linejoin:miter;"/>
    </g>
    <g id="PathCollection_3">
     <defs>
      <path d="M 0 4.539291 
C 1.203834 4.539291 2.358524 4.061003 3.209764 3.209764 
C 4.061003 2.358524 4.539291 1.203834 4.539291 0 
C 4.539291 -1.203834 4.061003 -2.358524 3.209764 -3.209764 
C 2.358524 -4.061003 1.203834 -4.539291 0 -4.539291 
C -1.203834 -4.539291 -2.358524 -4.061003 -3.209764 -3.209764 
C -4.061003 -2.358524 -4.539291 -1.203834 -4.539291 0 
C -4.539291 1.203834 -4.061003 2.358524 -3.209764 3.209764 
C -2.358524 4.061003 -1.203834 4.539291 0 4.539291 
z
" id="m244a2eadf2" style="stroke:#008000;stroke-opacity:0.5;"/>
     </defs>
     <g>
      <use style="fill:#008000;fill-opacity:0.5;stroke:#008000;stroke-opacity:0.5;" x="203.629687" xlink:href="#m244a2eadf2" y="48.533437"/>
     </g>
    </g>
    <g id="text_14">
     <!-- mod1 -->
     <g transform="translate(221.629687 51.158437)scale(0.1 -0.1)">
      <use xlink:href="#DejaVuSans-6d"/>
      <use x="97.412109" xlink:href="#DejaVuSans-6f"/>
      <use x="158.59375" xlink:href="#DejaVuSans-64"/>
      <use x="222.070312" xlink:href="#DejaVuSans-31"/>
     </g>
    </g>
    <g id="PathCollection_4">
     <defs>
      <path d="M 0 4.539291 
C 1.203834 4.539291 2.358524 4.061003 3.209764 3.209764 
C 4.061003 2.358524 4.539291 1.203834 4.539291 0 
C 4.539291 -1.203834 4.061003 -2.358524 3.209764 -3.209764 
C 2.358524 -4.061003 1.203834 -4.539291 0 -4.539291 
C -1.203834 -4.539291 -2.358524 -4.061003 -3.209764 -3.209764 
C -4.061003 -2.358524 -4.539291 -1.203834 -4.539291 0 
C -4.539291 1.203834 -4.061003 2.358524 -3.209764 3.209764 
C -2.358524 4.061003 -1.203834 4.539291 0 4.539291 
z
" id="m39783bbb75" style="stroke:#000000;stroke-opacity:0.5;"/>
     </defs>
     <g>
      <use style="fill-opacity:0.5;stroke:#000000;stroke-opacity:0.5;" x="203.629687" xlink:href="#m39783bbb75" y="63.211562"/>
     </g>
    </g>
    <g id="text_15">
     <!-- mod2 -->
     <g transform="translate(221.629687 65.836562)scale(0.1 -0.1)">
      <use xlink:href="#DejaVuSans-6d"/>
      <use x="97.412109" xlink:href="#DejaVuSans-6f"/>
      <use x="158.59375" xlink:href="#DejaVuSans-64"/>
      <use x="222.070312" xlink:href="#DejaVuSans-32"/>
     </g>
    </g>
   </g>
  </g>
 </g>
 <defs>
  <clipPath id="p37768f8874">
   <rect height="221.76" width="223.2" x="36" y="34.56"/>
  </clipPath>
 </defs>
</svg>
