<?xml version="1.0" encoding="utf-8" standalone="no"?>
<!DOCTYPE svg PUBLIC "-//W3C//DTD SVG 1.1//EN"
  "http://www.w3.org/Graphics/SVG/1.1/DTD/svg11.dtd">
<!-- Created with matplotlib (http://matplotlib.org/) -->
<svg height="288pt" version="1.1" viewBox="0 0 432 288" width="432pt" xmlns="http://www.w3.org/2000/svg" xmlns:xlink="http://www.w3.org/1999/xlink">
 <defs>
  <style type="text/css">
*{stroke-linecap:butt;stroke-linejoin:round;}
  </style>
 </defs>
 <g id="figure_1">
  <g id="patch_1">
   <path d="M 0 288 
L 432 288 
L 432 0 
L 0 0 
z
" style="fill:#ffffff;"/>
  </g>
  <g id="axes_1">
   <g id="patch_2">
    <path d="M 54 252 
L 388.8 252 
L 388.8 34.56 
L 54 34.56 
z
" style="fill:#ffffff;"/>
   </g>
   <g id="matplotlib.axis_1">
    <g id="xtick_1">
     <g id="line2d_1">
      <defs>
       <path d="M 0 0 
L 0 3.5 
" id="m2f8b399ebe" style="stroke:#000000;stroke-width:0.8;"/>
      </defs>
      <g>
       <use style="stroke:#000000;stroke-width:0.8;" x="69.218182" xlink:href="#m2f8b399ebe" y="252"/>
      </g>
     </g>
     <g id="text_1">
      <!-- 0 -->
      <defs>
       <path d="M 31.78125 66.40625 
Q 24.171875 66.40625 20.328125 58.90625 
Q 16.5 51.421875 16.5 36.375 
Q 16.5 21.390625 20.328125 13.890625 
Q 24.171875 6.390625 31.78125 6.390625 
Q 39.453125 6.390625 43.28125 13.890625 
Q 47.125 21.390625 47.125 36.375 
Q 47.125 51.421875 43.28125 58.90625 
Q 39.453125 66.40625 31.78125 66.40625 
z
M 31.78125 74.21875 
Q 44.046875 74.21875 50.515625 64.515625 
Q 56.984375 54.828125 56.984375 36.375 
Q 56.984375 17.96875 50.515625 8.265625 
Q 44.046875 -1.421875 31.78125 -1.421875 
Q 19.53125 -1.421875 13.0625 8.265625 
Q 6.59375 17.96875 6.59375 36.375 
Q 6.59375 54.828125 13.0625 64.515625 
Q 19.53125 74.21875 31.78125 74.21875 
z
" id="DejaVuSans-30"/>
      </defs>
      <g transform="translate(66.036932 266.598437)scale(0.1 -0.1)">
       <use xlink:href="#DejaVuSans-30"/>
      </g>
     </g>
    </g>
    <g id="xtick_2">
     <g id="line2d_2">
      <g>
       <use style="stroke:#000000;stroke-width:0.8;" x="118.309091" xlink:href="#m2f8b399ebe" y="252"/>
      </g>
     </g>
     <g id="text_2">
      <!-- 20 -->
      <defs>
       <path d="M 19.1875 8.296875 
L 53.609375 8.296875 
L 53.609375 0 
L 7.328125 0 
L 7.328125 8.296875 
Q 12.9375 14.109375 22.625 23.890625 
Q 32.328125 33.6875 34.8125 36.53125 
Q 39.546875 41.84375 41.421875 45.53125 
Q 43.3125 49.21875 43.3125 52.78125 
Q 43.3125 58.59375 39.234375 62.25 
Q 35.15625 65.921875 28.609375 65.921875 
Q 23.96875 65.921875 18.8125 64.3125 
Q 13.671875 62.703125 7.8125 59.421875 
L 7.8125 69.390625 
Q 13.765625 71.78125 18.9375 73 
Q 24.125 74.21875 28.421875 74.21875 
Q 39.75 74.21875 46.484375 68.546875 
Q 53.21875 62.890625 53.21875 53.421875 
Q 53.21875 48.921875 51.53125 44.890625 
Q 49.859375 40.875 45.40625 35.40625 
Q 44.1875 33.984375 37.640625 27.21875 
Q 31.109375 20.453125 19.1875 8.296875 
z
" id="DejaVuSans-32"/>
      </defs>
      <g transform="translate(111.946591 266.598437)scale(0.1 -0.1)">
       <use xlink:href="#DejaVuSans-32"/>
       <use x="63.623047" xlink:href="#DejaVuSans-30"/>
      </g>
     </g>
    </g>
    <g id="xtick_3">
     <g id="line2d_3">
      <g>
       <use style="stroke:#000000;stroke-width:0.8;" x="167.4" xlink:href="#m2f8b399ebe" y="252"/>
      </g>
     </g>
     <g id="text_3">
      <!-- 40 -->
      <defs>
       <path d="M 37.796875 64.3125 
L 12.890625 25.390625 
L 37.796875 25.390625 
z
M 35.203125 72.90625 
L 47.609375 72.90625 
L 47.609375 25.390625 
L 58.015625 25.390625 
L 58.015625 17.1875 
L 47.609375 17.1875 
L 47.609375 0 
L 37.796875 0 
L 37.796875 17.1875 
L 4.890625 17.1875 
L 4.890625 26.703125 
z
" id="DejaVuSans-34"/>
      </defs>
      <g transform="translate(161.0375 266.598437)scale(0.1 -0.1)">
       <use xlink:href="#DejaVuSans-34"/>
       <use x="63.623047" xlink:href="#DejaVuSans-30"/>
      </g>
     </g>
    </g>
    <g id="xtick_4">
     <g id="line2d_4">
      <g>
       <use style="stroke:#000000;stroke-width:0.8;" x="216.490909" xlink:href="#m2f8b399ebe" y="252"/>
      </g>
     </g>
     <g id="text_4">
      <!-- 60 -->
      <defs>
       <path d="M 33.015625 40.375 
Q 26.375 40.375 22.484375 35.828125 
Q 18.609375 31.296875 18.609375 23.390625 
Q 18.609375 15.53125 22.484375 10.953125 
Q 26.375 6.390625 33.015625 6.390625 
Q 39.65625 6.390625 43.53125 10.953125 
Q 47.40625 15.53125 47.40625 23.390625 
Q 47.40625 31.296875 43.53125 35.828125 
Q 39.65625 40.375 33.015625 40.375 
z
M 52.59375 71.296875 
L 52.59375 62.3125 
Q 48.875 64.0625 45.09375 64.984375 
Q 41.3125 65.921875 37.59375 65.921875 
Q 27.828125 65.921875 22.671875 59.328125 
Q 17.53125 52.734375 16.796875 39.40625 
Q 19.671875 43.65625 24.015625 45.921875 
Q 28.375 48.1875 33.59375 48.1875 
Q 44.578125 48.1875 50.953125 41.515625 
Q 57.328125 34.859375 57.328125 23.390625 
Q 57.328125 12.15625 50.6875 5.359375 
Q 44.046875 -1.421875 33.015625 -1.421875 
Q 20.359375 -1.421875 13.671875 8.265625 
Q 6.984375 17.96875 6.984375 36.375 
Q 6.984375 53.65625 15.1875 63.9375 
Q 23.390625 74.21875 37.203125 74.21875 
Q 40.921875 74.21875 44.703125 73.484375 
Q 48.484375 72.75 52.59375 71.296875 
z
" id="DejaVuSans-36"/>
      </defs>
      <g transform="translate(210.128409 266.598437)scale(0.1 -0.1)">
       <use xlink:href="#DejaVuSans-36"/>
       <use x="63.623047" xlink:href="#DejaVuSans-30"/>
      </g>
     </g>
    </g>
    <g id="xtick_5">
     <g id="line2d_5">
      <g>
       <use style="stroke:#000000;stroke-width:0.8;" x="265.581818" xlink:href="#m2f8b399ebe" y="252"/>
      </g>
     </g>
     <g id="text_5">
      <!-- 80 -->
      <defs>
       <path d="M 31.78125 34.625 
Q 24.75 34.625 20.71875 30.859375 
Q 16.703125 27.09375 16.703125 20.515625 
Q 16.703125 13.921875 20.71875 10.15625 
Q 24.75 6.390625 31.78125 6.390625 
Q 38.8125 6.390625 42.859375 10.171875 
Q 46.921875 13.96875 46.921875 20.515625 
Q 46.921875 27.09375 42.890625 30.859375 
Q 38.875 34.625 31.78125 34.625 
z
M 21.921875 38.8125 
Q 15.578125 40.375 12.03125 44.71875 
Q 8.5 49.078125 8.5 55.328125 
Q 8.5 64.0625 14.71875 69.140625 
Q 20.953125 74.21875 31.78125 74.21875 
Q 42.671875 74.21875 48.875 69.140625 
Q 55.078125 64.0625 55.078125 55.328125 
Q 55.078125 49.078125 51.53125 44.71875 
Q 48 40.375 41.703125 38.8125 
Q 48.828125 37.15625 52.796875 32.3125 
Q 56.78125 27.484375 56.78125 20.515625 
Q 56.78125 9.90625 50.3125 4.234375 
Q 43.84375 -1.421875 31.78125 -1.421875 
Q 19.734375 -1.421875 13.25 4.234375 
Q 6.78125 9.90625 6.78125 20.515625 
Q 6.78125 27.484375 10.78125 32.3125 
Q 14.796875 37.15625 21.921875 38.8125 
z
M 18.3125 54.390625 
Q 18.3125 48.734375 21.84375 45.5625 
Q 25.390625 42.390625 31.78125 42.390625 
Q 38.140625 42.390625 41.71875 45.5625 
Q 45.3125 48.734375 45.3125 54.390625 
Q 45.3125 60.0625 41.71875 63.234375 
Q 38.140625 66.40625 31.78125 66.40625 
Q 25.390625 66.40625 21.84375 63.234375 
Q 18.3125 60.0625 18.3125 54.390625 
z
" id="DejaVuSans-38"/>
      </defs>
      <g transform="translate(259.219318 266.598437)scale(0.1 -0.1)">
       <use xlink:href="#DejaVuSans-38"/>
       <use x="63.623047" xlink:href="#DejaVuSans-30"/>
      </g>
     </g>
    </g>
    <g id="xtick_6">
     <g id="line2d_6">
      <g>
       <use style="stroke:#000000;stroke-width:0.8;" x="314.672727" xlink:href="#m2f8b399ebe" y="252"/>
      </g>
     </g>
     <g id="text_6">
      <!-- 100 -->
      <defs>
       <path d="M 12.40625 8.296875 
L 28.515625 8.296875 
L 28.515625 63.921875 
L 10.984375 60.40625 
L 10.984375 69.390625 
L 28.421875 72.90625 
L 38.28125 72.90625 
L 38.28125 8.296875 
L 54.390625 8.296875 
L 54.390625 0 
L 12.40625 0 
z
" id="DejaVuSans-31"/>
      </defs>
      <g transform="translate(305.128977 266.598437)scale(0.1 -0.1)">
       <use xlink:href="#DejaVuSans-31"/>
       <use x="63.623047" xlink:href="#DejaVuSans-30"/>
       <use x="127.246094" xlink:href="#DejaVuSans-30"/>
      </g>
     </g>
    </g>
    <g id="xtick_7">
     <g id="line2d_7">
      <g>
       <use style="stroke:#000000;stroke-width:0.8;" x="363.763636" xlink:href="#m2f8b399ebe" y="252"/>
      </g>
     </g>
     <g id="text_7">
      <!-- 120 -->
      <g transform="translate(354.219886 266.598437)scale(0.1 -0.1)">
       <use xlink:href="#DejaVuSans-31"/>
       <use x="63.623047" xlink:href="#DejaVuSans-32"/>
       <use x="127.246094" xlink:href="#DejaVuSans-30"/>
      </g>
     </g>
    </g>
   </g>
   <g id="matplotlib.axis_2">
    <g id="ytick_1">
     <g id="line2d_8">
      <defs>
       <path d="M 0 0 
L -3.5 0 
" id="m203fa835ab" style="stroke:#000000;stroke-width:0.8;"/>
      </defs>
      <g>
       <use style="stroke:#000000;stroke-width:0.8;" x="54" xlink:href="#m203fa835ab" y="243.507295"/>
      </g>
     </g>
     <g id="text_8">
      <!-- 0.0 -->
      <defs>
       <path d="M 10.6875 12.40625 
L 21 12.40625 
L 21 0 
L 10.6875 0 
z
" id="DejaVuSans-2e"/>
      </defs>
      <g transform="translate(31.096875 247.306513)scale(0.1 -0.1)">
       <use xlink:href="#DejaVuSans-30"/>
       <use x="63.623047" xlink:href="#DejaVuSans-2e"/>
       <use x="95.410156" xlink:href="#DejaVuSans-30"/>
      </g>
     </g>
    </g>
    <g id="ytick_2">
     <g id="line2d_9">
      <g>
       <use style="stroke:#000000;stroke-width:0.8;" x="54" xlink:href="#m203fa835ab" y="213.081625"/>
      </g>
     </g>
     <g id="text_9">
      <!-- 0.2 -->
      <g transform="translate(31.096875 216.880844)scale(0.1 -0.1)">
       <use xlink:href="#DejaVuSans-30"/>
       <use x="63.623047" xlink:href="#DejaVuSans-2e"/>
       <use x="95.410156" xlink:href="#DejaVuSans-32"/>
      </g>
     </g>
    </g>
    <g id="ytick_3">
     <g id="line2d_10">
      <g>
       <use style="stroke:#000000;stroke-width:0.8;" x="54" xlink:href="#m203fa835ab" y="182.655955"/>
      </g>
     </g>
     <g id="text_10">
      <!-- 0.4 -->
      <g transform="translate(31.096875 186.455174)scale(0.1 -0.1)">
       <use xlink:href="#DejaVuSans-30"/>
       <use x="63.623047" xlink:href="#DejaVuSans-2e"/>
       <use x="95.410156" xlink:href="#DejaVuSans-34"/>
      </g>
     </g>
    </g>
    <g id="ytick_4">
     <g id="line2d_11">
      <g>
       <use style="stroke:#000000;stroke-width:0.8;" x="54" xlink:href="#m203fa835ab" y="152.230285"/>
      </g>
     </g>
     <g id="text_11">
      <!-- 0.6 -->
      <g transform="translate(31.096875 156.029504)scale(0.1 -0.1)">
       <use xlink:href="#DejaVuSans-30"/>
       <use x="63.623047" xlink:href="#DejaVuSans-2e"/>
       <use x="95.410156" xlink:href="#DejaVuSans-36"/>
      </g>
     </g>
    </g>
    <g id="ytick_5">
     <g id="line2d_12">
      <g>
       <use style="stroke:#000000;stroke-width:0.8;" x="54" xlink:href="#m203fa835ab" y="121.804615"/>
      </g>
     </g>
     <g id="text_12">
      <!-- 0.8 -->
      <g transform="translate(31.096875 125.603834)scale(0.1 -0.1)">
       <use xlink:href="#DejaVuSans-30"/>
       <use x="63.623047" xlink:href="#DejaVuSans-2e"/>
       <use x="95.410156" xlink:href="#DejaVuSans-38"/>
      </g>
     </g>
    </g>
    <g id="ytick_6">
     <g id="line2d_13">
      <g>
       <use style="stroke:#000000;stroke-width:0.8;" x="54" xlink:href="#m203fa835ab" y="91.378945"/>
      </g>
     </g>
     <g id="text_13">
      <!-- 1.0 -->
      <g transform="translate(31.096875 95.178164)scale(0.1 -0.1)">
       <use xlink:href="#DejaVuSans-31"/>
       <use x="63.623047" xlink:href="#DejaVuSans-2e"/>
       <use x="95.410156" xlink:href="#DejaVuSans-30"/>
      </g>
     </g>
    </g>
    <g id="ytick_7">
     <g id="line2d_14">
      <g>
       <use style="stroke:#000000;stroke-width:0.8;" x="54" xlink:href="#m203fa835ab" y="60.953276"/>
      </g>
     </g>
     <g id="text_14">
      <!-- 1.2 -->
      <g transform="translate(31.096875 64.752494)scale(0.1 -0.1)">
       <use xlink:href="#DejaVuSans-31"/>
       <use x="63.623047" xlink:href="#DejaVuSans-2e"/>
       <use x="95.410156" xlink:href="#DejaVuSans-32"/>
      </g>
     </g>
    </g>
   </g>
   <g id="line2d_15">
    <path clip-path="url(#pe47891a31b)" d="M 69.218182 237.351821 
L 71.672727 237.406407 
L 74.127273 237.189157 
L 76.581818 236.725527 
L 79.036364 236.171201 
L 81.490909 235.698604 
L 83.945455 235.392947 
L 86.4 235.254197 
L 88.854545 235.234753 
L 91.309091 235.274873 
L 93.763636 235.328131 
L 96.218182 235.368218 
L 98.672727 235.384287 
L 101.127273 235.374634 
L 103.581818 235.34218 
L 106.036364 235.291816 
L 108.490909 235.228938 
L 110.945455 235.158707 
L 113.4 235.085703 
L 115.854545 235.01378 
L 118.309091 234.946022 
L 120.763636 234.884761 
L 123.218182 234.831623 
L 125.672727 234.7876 
L 128.127273 234.753126 
L 130.581818 228.885768 
L 133.036364 227.909989 
L 135.490909 225.11611 
L 137.945455 220.047063 
L 140.4 215.701155 
L 142.854545 214.012742 
L 145.309091 214.413169 
L 147.763636 216.196053 
L 150.218182 218.821963 
L 152.672727 221.738607 
L 155.127273 224.453607 
L 157.581818 226.660213 
L 160.036364 228.246 
L 162.490909 229.223253 
L 164.945455 229.666861 
L 167.4 229.681652 
L 169.854545 229.383817 
L 172.309091 228.885663 
L 174.763636 228.283428 
L 177.218182 227.650614 
L 179.672727 227.037158 
L 182.127273 226.472616 
L 184.581818 225.971206 
L 187.036364 225.53692 
L 189.490909 225.167751 
L 191.945455 220.467135 
L 194.4 218.37587 
L 196.854545 216.63987 
L 199.309091 215.403754 
L 201.763636 214.652225 
L 204.218182 214.304524 
L 206.672727 214.266964 
L 209.127273 214.456899 
L 211.581818 214.808359 
L 214.036364 215.268453 
L 216.490909 215.792446 
L 218.945455 216.341953 
L 221.4 216.886211 
L 223.854545 217.403413 
L 226.309091 217.880248 
L 228.763636 218.310211 
L 231.218182 218.691422 
L 233.672727 219.024847 
L 236.127273 219.313115 
L 238.581818 219.559762 
L 241.036364 219.768837 
L 243.490909 219.944593 
L 245.945455 220.091265 
L 248.4 220.21292 
L 250.854545 220.313365 
L 253.309091 220.396037 
L 255.763636 220.463994 
L 258.218182 220.519892 
L 260.672727 220.566006 
L 263.127273 220.604233 
L 265.581818 220.636162 
L 268.036364 220.663083 
L 270.490909 220.686072 
L 272.945455 220.705966 
L 275.4 220.723457 
L 277.854545 220.739104 
L 280.309091 220.753343 
L 282.763636 220.766524 
L 285.218182 220.778944 
L 287.672727 220.790835 
L 290.127273 220.802363 
L 292.581818 220.81371 
L 295.036364 220.825005 
L 297.490909 220.836353 
L 299.945455 220.847843 
L 302.4 220.859561 
L 304.854545 220.871571 
L 307.309091 220.883929 
L 309.763636 220.896686 
L 312.218182 220.909873 
L 314.672727 53.962608 
L 317.127273 51.555633 
L 319.581818 44.443636 
L 322.036364 171.326558 
L 324.490909 180.1153 
L 326.945455 190.102355 
L 329.4 193.011193 
L 331.854545 192.614576 
L 334.309091 191.444532 
L 336.763636 190.48609 
L 339.218182 189.93215 
L 341.672727 189.680554 
L 344.127273 189.588507 
L 346.581818 189.558803 
L 349.036364 189.544747 
L 351.490909 189.531215 
L 353.945455 189.517003 
L 356.4 189.504781 
L 358.854545 189.496831 
L 361.309091 189.494194 
L 363.763636 189.496852 
L 366.218182 189.50405 
L 368.672727 189.514961 
L 371.127273 189.528654 
L 373.581818 189.544279 
" style="fill:none;stroke:#ff0000;stroke-linecap:square;stroke-width:1.5;"/>
   </g>
   <g id="line2d_16">
    <path clip-path="url(#pe47891a31b)" d="M 69.218182 239.091462 
L 71.672727 238.446523 
L 74.127273 237.533623 
L 76.581818 236.339043 
L 79.036364 234.877318 
L 81.490909 233.166211 
L 83.945455 231.340628 
L 86.4 229.63118 
L 88.854545 228.163882 
L 91.309091 226.916642 
L 93.763636 225.820562 
L 96.218182 224.822857 
L 98.672727 223.89299 
L 101.127273 223.013599 
L 103.581818 222.173869 
L 106.036364 221.366704 
L 108.490909 220.587859 
L 110.945455 219.835708 
L 113.4 219.111013 
L 115.854545 218.416555 
L 118.309091 217.75658 
L 120.763636 217.136135 
L 123.218182 216.560411 
L 125.672727 216.034144 
L 128.127273 215.561146 
L 130.581818 138.272845 
L 133.036364 134.619579 
L 135.490909 131.271942 
L 137.945455 129.092666 
L 140.4 128.983987 
L 142.854545 130.751353 
L 145.309091 133.866679 
L 147.763636 137.929908 
L 150.218182 142.387326 
L 152.672727 146.760164 
L 155.127273 150.835237 
L 157.581818 154.643678 
L 160.036364 158.316474 
L 162.490909 161.964035 
L 164.945455 165.623136 
L 167.4 169.255885 
L 169.854545 172.777932 
L 172.309091 176.095757 
L 174.763636 179.13578 
L 177.218182 181.858139 
L 179.672727 184.256561 
L 182.127273 186.350212 
L 184.581818 188.173235 
L 187.036364 189.765502 
L 189.490909 191.166225 
L 191.945455 222.520085 
L 194.4 223.579117 
L 196.854545 224.426187 
L 199.309091 225.1554 
L 201.763636 225.778726 
L 204.218182 226.286329 
L 206.672727 226.674899 
L 209.127273 226.954834 
L 211.581818 227.147365 
L 214.036364 227.277542 
L 216.490909 227.366291 
L 218.945455 227.426427 
L 221.4 227.464271 
L 223.854545 227.483441 
L 226.309091 227.487456 
L 228.763636 227.480519 
L 231.218182 227.467186 
L 233.672727 227.451723 
L 236.127273 227.437622 
L 238.581818 227.427354 
L 241.036364 227.422383 
L 243.490909 227.4233 
L 245.945455 227.430042 
L 248.4 227.442109 
L 250.854545 227.458753 
L 253.309091 227.479124 
L 255.763636 227.502383 
L 258.218182 227.527744 
L 260.672727 227.554533 
L 263.127273 227.582179 
L 265.581818 227.610228 
L 268.036364 227.638321 
L 270.490909 227.66619 
L 272.945455 227.693629 
L 275.4 227.720503 
L 277.854545 227.746715 
L 280.309091 227.772196 
L 282.763636 227.796911 
L 285.218182 227.820839 
L 287.672727 227.84397 
L 290.127273 227.866307 
L 292.581818 227.88785 
L 295.036364 227.908617 
L 297.490909 227.928615 
L 299.945455 227.947859 
L 302.4 227.966367 
L 304.854545 227.98415 
L 307.309091 228.001223 
L 309.763636 228.017607 
L 312.218182 228.033316 
L 314.672727 229.985231 
L 317.127273 229.436571 
L 319.581818 227.763642 
L 322.036364 229.687167 
L 324.490909 233.269991 
L 326.945455 233.941966 
L 329.4 233.731936 
L 331.854545 233.30676 
L 334.309091 232.927154 
L 336.763636 232.686651 
L 339.218182 232.577603 
L 341.672727 232.554205 
L 344.127273 232.575218 
L 346.581818 232.616163 
L 349.036364 232.6654 
L 351.490909 232.717777 
L 353.945455 232.770679 
L 356.4 232.822392 
L 358.854545 232.871667 
L 361.309091 232.917661 
L 363.763636 232.959907 
L 366.218182 232.998245 
L 368.672727 233.032758 
L 371.127273 233.063661 
L 373.581818 233.091249 
" style="fill:none;stroke:#0000ff;stroke-linecap:square;stroke-width:1.5;"/>
   </g>
   <g id="line2d_17">
    <path clip-path="url(#pe47891a31b)" d="M 69.218182 238.710253 
L 71.672727 238.296737 
L 74.127273 237.398324 
L 76.581818 236.180744 
L 79.036364 235.011832 
L 81.490909 234.141904 
L 83.945455 233.618302 
L 86.4 233.362963 
L 88.854545 233.257585 
L 91.309091 233.202415 
L 93.763636 233.139063 
L 96.218182 233.043486 
L 98.672727 232.91142 
L 101.127273 232.747955 
L 103.581818 232.561859 
L 106.036364 232.362775 
L 108.490909 232.15984 
L 110.945455 231.961033 
L 113.4 231.772881 
L 115.854545 231.600382 
L 118.309091 231.447028 
L 120.763636 231.314923 
L 123.218182 231.204942 
L 125.672727 231.116928 
L 128.127273 231.049895 
L 130.581818 229.72973 
L 133.036364 229.885587 
L 135.490909 229.762436 
L 137.945455 229.760401 
L 140.4 230.219247 
L 142.854545 230.970818 
L 145.309091 231.69479 
L 147.763636 232.430459 
L 150.218182 233.271068 
L 152.672727 234.118462 
L 155.127273 234.812675 
L 157.581818 235.270709 
L 160.036364 235.513886 
L 162.490909 235.62045 
L 164.945455 235.670651 
L 167.4 235.718766 
L 169.854545 235.790467 
L 172.309091 235.89174 
L 174.763636 236.018774 
L 177.218182 236.164663 
L 179.672727 236.322679 
L 182.127273 236.487223 
L 184.581818 236.653695 
L 187.036364 236.818116 
L 189.490909 236.976918 
L 191.945455 237.034388 
L 194.4 237.190162 
L 196.854545 237.285685 
L 199.309091 237.352657 
L 201.763636 237.407519 
L 204.218182 237.459024 
L 206.672727 237.51192 
L 209.127273 237.568643 
L 211.581818 237.629931 
L 214.036364 237.694937 
L 216.490909 237.761458 
L 218.945455 237.826651 
L 221.4 237.887913 
L 223.854545 237.943438 
L 226.309091 237.992304 
L 228.763636 238.034308 
L 231.218182 238.069718 
L 233.672727 238.09908 
L 236.127273 238.123086 
L 238.581818 238.142478 
L 241.036364 238.158004 
L 243.490909 238.170375 
L 245.945455 238.180247 
L 248.4 238.188194 
L 250.854545 238.194709 
L 253.309091 238.200198 
L 255.763636 238.20498 
L 258.218182 238.209298 
L 260.672727 238.213328 
L 263.127273 238.21719 
L 265.581818 238.220959 
L 268.036364 238.224681 
L 270.490909 238.228372 
L 272.945455 238.232036 
L 275.4 238.235666 
L 277.854545 238.239253 
L 280.309091 238.242782 
L 282.763636 238.246241 
L 285.218182 238.249621 
L 287.672727 238.252914 
L 290.127273 238.256116 
L 292.581818 238.259224 
L 295.036364 238.26224 
L 297.490909 238.265167 
L 299.945455 238.26801 
L 302.4 238.270774 
L 304.854545 238.273465 
L 307.309091 238.27609 
L 309.763636 238.278654 
L 312.218182 238.281166 
L 314.672727 238.469825 
L 317.127273 239.332695 
L 319.581818 239.24566 
L 322.036364 240.69493 
L 324.490909 241.446947 
L 326.945455 241.547884 
L 329.4 241.452414 
L 331.854545 241.30452 
L 334.309091 241.165625 
L 336.763636 241.055646 
L 339.218182 240.972658 
L 341.672727 240.907744 
L 344.127273 240.853449 
L 346.581818 240.805851 
L 349.036364 240.763588 
L 351.490909 240.726423 
L 353.945455 240.694327 
L 356.4 240.667099 
L 358.854545 240.644338 
L 361.309091 240.625512 
L 363.763636 240.610058 
L 366.218182 240.597437 
L 368.672727 240.587178 
L 371.127273 240.57887 
L 373.581818 240.572177 
" style="fill:none;stroke:#008000;stroke-linecap:square;stroke-width:1.5;"/>
   </g>
   <g id="line2d_18">
    <path clip-path="url(#pe47891a31b)" d="M 69.218182 237.812949 
L 71.672727 236.2635 
L 74.127273 232.89821 
L 76.581818 228.493426 
L 79.036364 224.337899 
L 81.490909 221.221454 
L 83.945455 219.257104 
L 86.4 218.153515 
L 88.854545 217.52698 
L 91.309091 217.086013 
L 93.763636 216.670981 
L 96.218182 216.216775 
L 98.672727 215.708904 
L 101.127273 215.156099 
L 103.581818 214.576273 
L 106.036364 213.98979 
L 108.490909 213.416142 
L 110.945455 212.872336 
L 113.4 212.372069 
L 115.854545 211.925487 
L 118.309091 211.539128 
L 120.763636 211.216178 
L 123.218182 210.956794 
L 125.672727 210.758571 
L 128.127273 210.617048 
L 130.581818 209.600274 
L 133.036364 211.358422 
L 135.490909 213.175701 
L 137.945455 214.850871 
L 140.4 216.34013 
L 142.854545 217.63152 
L 145.309091 219.049357 
L 147.763636 221.218717 
L 150.218182 224.264742 
L 152.672727 227.679873 
L 155.127273 230.788835 
L 157.581818 233.146581 
L 160.036364 234.656627 
L 162.490909 235.486122 
L 164.945455 235.899391 
L 167.4 236.117175 
L 169.854545 236.269548 
L 172.309091 236.41493 
L 174.763636 236.572084 
L 177.218182 236.742549 
L 179.672727 236.922364 
L 182.127273 237.10701 
L 184.581818 237.292952 
L 187.036364 237.477733 
L 189.490909 237.659624 
L 191.945455 237.300339 
L 194.4 237.396688 
L 196.854545 237.456109 
L 199.309091 237.515617 
L 201.763636 237.591644 
L 204.218182 237.687991 
L 206.672727 237.802182 
L 209.127273 237.929539 
L 211.581818 238.065026 
L 214.036364 238.203686 
L 216.490909 238.340689 
L 218.945455 238.471646 
L 221.4 238.593124 
L 223.854545 238.703002 
L 226.309091 238.800421 
L 228.763636 238.885519 
L 231.218182 238.95907 
L 233.672727 239.022175 
L 236.127273 239.076064 
L 238.581818 239.121959 
L 241.036364 239.161016 
L 243.490909 239.194292 
L 245.945455 239.222726 
L 248.4 239.247135 
L 250.854545 239.268224 
L 253.309091 239.286584 
L 255.763636 239.302709 
L 258.218182 239.317002 
L 260.672727 239.329791 
L 263.127273 239.341337 
L 265.581818 239.351848 
L 268.036364 239.36149 
L 270.490909 239.370395 
L 272.945455 239.378668 
L 275.4 239.386393 
L 277.854545 239.393642 
L 280.309091 239.400473 
L 282.763636 239.406935 
L 285.218182 239.413075 
L 287.672727 239.418931 
L 290.127273 239.424534 
L 292.581818 239.429921 
L 295.036364 239.43512 
L 297.490909 239.440156 
L 299.945455 239.445054 
L 302.4 239.449837 
L 304.854545 239.454524 
L 307.309091 239.459132 
L 309.763636 239.463678 
L 312.218182 239.468174 
L 314.672727 236.538161 
L 317.127273 240.234247 
L 319.581818 240.364249 
L 322.036364 241.280283 
L 324.490909 241.93262 
L 326.945455 242.106526 
L 329.4 242.116364 
L 331.854545 242.077492 
L 334.309091 242.032411 
L 336.763636 241.995163 
L 339.218182 241.965785 
L 341.672727 241.940033 
L 344.127273 241.914676 
L 346.581818 241.888708 
L 349.036364 241.86266 
L 351.490909 241.837614 
L 353.945455 241.814548 
L 356.4 241.794061 
L 358.854545 241.776367 
L 361.309091 241.7614 
L 363.763636 241.748925 
L 366.218182 241.738636 
L 368.672727 241.730217 
L 371.127273 241.723364 
L 373.581818 241.717813 
" style="fill:none;stroke:#00bfbf;stroke-linecap:square;stroke-width:1.5;"/>
   </g>
   <g id="patch_3">
    <path d="M 54 252 
L 54 34.56 
" style="fill:none;stroke:#000000;stroke-linecap:square;stroke-linejoin:miter;stroke-width:0.8;"/>
   </g>
   <g id="patch_4">
    <path d="M 388.8 252 
L 388.8 34.56 
" style="fill:none;stroke:#000000;stroke-linecap:square;stroke-linejoin:miter;stroke-width:0.8;"/>
   </g>
   <g id="patch_5">
    <path d="M 54 252 
L 388.8 252 
" style="fill:none;stroke:#000000;stroke-linecap:square;stroke-linejoin:miter;stroke-width:0.8;"/>
   </g>
   <g id="patch_6">
    <path d="M 54 34.56 
L 388.8 34.56 
" style="fill:none;stroke:#000000;stroke-linecap:square;stroke-linejoin:miter;stroke-width:0.8;"/>
   </g>
   <g id="text_15">
    <!-- no_reg : delaygo -->
    <defs>
     <path d="M 54.890625 33.015625 
L 54.890625 0 
L 45.90625 0 
L 45.90625 32.71875 
Q 45.90625 40.484375 42.875 44.328125 
Q 39.84375 48.1875 33.796875 48.1875 
Q 26.515625 48.1875 22.3125 43.546875 
Q 18.109375 38.921875 18.109375 30.90625 
L 18.109375 0 
L 9.078125 0 
L 9.078125 54.6875 
L 18.109375 54.6875 
L 18.109375 46.1875 
Q 21.34375 51.125 25.703125 53.5625 
Q 30.078125 56 35.796875 56 
Q 45.21875 56 50.046875 50.171875 
Q 54.890625 44.34375 54.890625 33.015625 
z
" id="DejaVuSans-6e"/>
     <path d="M 30.609375 48.390625 
Q 23.390625 48.390625 19.1875 42.75 
Q 14.984375 37.109375 14.984375 27.296875 
Q 14.984375 17.484375 19.15625 11.84375 
Q 23.34375 6.203125 30.609375 6.203125 
Q 37.796875 6.203125 41.984375 11.859375 
Q 46.1875 17.53125 46.1875 27.296875 
Q 46.1875 37.015625 41.984375 42.703125 
Q 37.796875 48.390625 30.609375 48.390625 
z
M 30.609375 56 
Q 42.328125 56 49.015625 48.375 
Q 55.71875 40.765625 55.71875 27.296875 
Q 55.71875 13.875 49.015625 6.21875 
Q 42.328125 -1.421875 30.609375 -1.421875 
Q 18.84375 -1.421875 12.171875 6.21875 
Q 5.515625 13.875 5.515625 27.296875 
Q 5.515625 40.765625 12.171875 48.375 
Q 18.84375 56 30.609375 56 
z
" id="DejaVuSans-6f"/>
     <path d="M 50.984375 -16.609375 
L 50.984375 -23.578125 
L -0.984375 -23.578125 
L -0.984375 -16.609375 
z
" id="DejaVuSans-5f"/>
     <path d="M 41.109375 46.296875 
Q 39.59375 47.171875 37.8125 47.578125 
Q 36.03125 48 33.890625 48 
Q 26.265625 48 22.1875 43.046875 
Q 18.109375 38.09375 18.109375 28.8125 
L 18.109375 0 
L 9.078125 0 
L 9.078125 54.6875 
L 18.109375 54.6875 
L 18.109375 46.1875 
Q 20.953125 51.171875 25.484375 53.578125 
Q 30.03125 56 36.53125 56 
Q 37.453125 56 38.578125 55.875 
Q 39.703125 55.765625 41.0625 55.515625 
z
" id="DejaVuSans-72"/>
     <path d="M 56.203125 29.59375 
L 56.203125 25.203125 
L 14.890625 25.203125 
Q 15.484375 15.921875 20.484375 11.0625 
Q 25.484375 6.203125 34.421875 6.203125 
Q 39.59375 6.203125 44.453125 7.46875 
Q 49.3125 8.734375 54.109375 11.28125 
L 54.109375 2.78125 
Q 49.265625 0.734375 44.1875 -0.34375 
Q 39.109375 -1.421875 33.890625 -1.421875 
Q 20.796875 -1.421875 13.15625 6.1875 
Q 5.515625 13.8125 5.515625 26.8125 
Q 5.515625 40.234375 12.765625 48.109375 
Q 20.015625 56 32.328125 56 
Q 43.359375 56 49.78125 48.890625 
Q 56.203125 41.796875 56.203125 29.59375 
z
M 47.21875 32.234375 
Q 47.125 39.59375 43.09375 43.984375 
Q 39.0625 48.390625 32.421875 48.390625 
Q 24.90625 48.390625 20.390625 44.140625 
Q 15.875 39.890625 15.1875 32.171875 
z
" id="DejaVuSans-65"/>
     <path d="M 45.40625 27.984375 
Q 45.40625 37.75 41.375 43.109375 
Q 37.359375 48.484375 30.078125 48.484375 
Q 22.859375 48.484375 18.828125 43.109375 
Q 14.796875 37.75 14.796875 27.984375 
Q 14.796875 18.265625 18.828125 12.890625 
Q 22.859375 7.515625 30.078125 7.515625 
Q 37.359375 7.515625 41.375 12.890625 
Q 45.40625 18.265625 45.40625 27.984375 
z
M 54.390625 6.78125 
Q 54.390625 -7.171875 48.1875 -13.984375 
Q 42 -20.796875 29.203125 -20.796875 
Q 24.46875 -20.796875 20.265625 -20.09375 
Q 16.0625 -19.390625 12.109375 -17.921875 
L 12.109375 -9.1875 
Q 16.0625 -11.328125 19.921875 -12.34375 
Q 23.78125 -13.375 27.78125 -13.375 
Q 36.625 -13.375 41.015625 -8.765625 
Q 45.40625 -4.15625 45.40625 5.171875 
L 45.40625 9.625 
Q 42.625 4.78125 38.28125 2.390625 
Q 33.9375 0 27.875 0 
Q 17.828125 0 11.671875 7.65625 
Q 5.515625 15.328125 5.515625 27.984375 
Q 5.515625 40.671875 11.671875 48.328125 
Q 17.828125 56 27.875 56 
Q 33.9375 56 38.28125 53.609375 
Q 42.625 51.21875 45.40625 46.390625 
L 45.40625 54.6875 
L 54.390625 54.6875 
z
" id="DejaVuSans-67"/>
     <path id="DejaVuSans-20"/>
     <path d="M 11.71875 12.40625 
L 22.015625 12.40625 
L 22.015625 0 
L 11.71875 0 
z
M 11.71875 51.703125 
L 22.015625 51.703125 
L 22.015625 39.3125 
L 11.71875 39.3125 
z
" id="DejaVuSans-3a"/>
     <path d="M 45.40625 46.390625 
L 45.40625 75.984375 
L 54.390625 75.984375 
L 54.390625 0 
L 45.40625 0 
L 45.40625 8.203125 
Q 42.578125 3.328125 38.25 0.953125 
Q 33.9375 -1.421875 27.875 -1.421875 
Q 17.96875 -1.421875 11.734375 6.484375 
Q 5.515625 14.40625 5.515625 27.296875 
Q 5.515625 40.1875 11.734375 48.09375 
Q 17.96875 56 27.875 56 
Q 33.9375 56 38.25 53.625 
Q 42.578125 51.265625 45.40625 46.390625 
z
M 14.796875 27.296875 
Q 14.796875 17.390625 18.875 11.75 
Q 22.953125 6.109375 30.078125 6.109375 
Q 37.203125 6.109375 41.296875 11.75 
Q 45.40625 17.390625 45.40625 27.296875 
Q 45.40625 37.203125 41.296875 42.84375 
Q 37.203125 48.484375 30.078125 48.484375 
Q 22.953125 48.484375 18.875 42.84375 
Q 14.796875 37.203125 14.796875 27.296875 
z
" id="DejaVuSans-64"/>
     <path d="M 9.421875 75.984375 
L 18.40625 75.984375 
L 18.40625 0 
L 9.421875 0 
z
" id="DejaVuSans-6c"/>
     <path d="M 34.28125 27.484375 
Q 23.390625 27.484375 19.1875 25 
Q 14.984375 22.515625 14.984375 16.5 
Q 14.984375 11.71875 18.140625 8.90625 
Q 21.296875 6.109375 26.703125 6.109375 
Q 34.1875 6.109375 38.703125 11.40625 
Q 43.21875 16.703125 43.21875 25.484375 
L 43.21875 27.484375 
z
M 52.203125 31.203125 
L 52.203125 0 
L 43.21875 0 
L 43.21875 8.296875 
Q 40.140625 3.328125 35.546875 0.953125 
Q 30.953125 -1.421875 24.3125 -1.421875 
Q 15.921875 -1.421875 10.953125 3.296875 
Q 6 8.015625 6 15.921875 
Q 6 25.140625 12.171875 29.828125 
Q 18.359375 34.515625 30.609375 34.515625 
L 43.21875 34.515625 
L 43.21875 35.40625 
Q 43.21875 41.609375 39.140625 45 
Q 35.0625 48.390625 27.6875 48.390625 
Q 23 48.390625 18.546875 47.265625 
Q 14.109375 46.140625 10.015625 43.890625 
L 10.015625 52.203125 
Q 14.9375 54.109375 19.578125 55.046875 
Q 24.21875 56 28.609375 56 
Q 40.484375 56 46.34375 49.84375 
Q 52.203125 43.703125 52.203125 31.203125 
z
" id="DejaVuSans-61"/>
     <path d="M 32.171875 -5.078125 
Q 28.375 -14.84375 24.75 -17.8125 
Q 21.140625 -20.796875 15.09375 -20.796875 
L 7.90625 -20.796875 
L 7.90625 -13.28125 
L 13.1875 -13.28125 
Q 16.890625 -13.28125 18.9375 -11.515625 
Q 21 -9.765625 23.484375 -3.21875 
L 25.09375 0.875 
L 2.984375 54.6875 
L 12.5 54.6875 
L 29.59375 11.921875 
L 46.6875 54.6875 
L 56.203125 54.6875 
z
" id="DejaVuSans-79"/>
    </defs>
    <g transform="translate(171.249375 28.56)scale(0.12 -0.12)">
     <use xlink:href="#DejaVuSans-6e"/>
     <use x="63.378906" xlink:href="#DejaVuSans-6f"/>
     <use x="124.560547" xlink:href="#DejaVuSans-5f"/>
     <use x="174.560547" xlink:href="#DejaVuSans-72"/>
     <use x="215.642578" xlink:href="#DejaVuSans-65"/>
     <use x="277.166016" xlink:href="#DejaVuSans-67"/>
     <use x="340.642578" xlink:href="#DejaVuSans-20"/>
     <use x="372.429688" xlink:href="#DejaVuSans-3a"/>
     <use x="406.121094" xlink:href="#DejaVuSans-20"/>
     <use x="437.908203" xlink:href="#DejaVuSans-64"/>
     <use x="501.384766" xlink:href="#DejaVuSans-65"/>
     <use x="562.908203" xlink:href="#DejaVuSans-6c"/>
     <use x="590.691406" xlink:href="#DejaVuSans-61"/>
     <use x="651.970703" xlink:href="#DejaVuSans-79"/>
     <use x="711.150391" xlink:href="#DejaVuSans-67"/>
     <use x="774.626953" xlink:href="#DejaVuSans-6f"/>
    </g>
   </g>
   <g id="legend_1">
    <g id="patch_7">
     <path d="M 61 101.82875 
L 212.785937 101.82875 
Q 214.785937 101.82875 214.785937 99.82875 
L 214.785937 41.56 
Q 214.785937 39.56 212.785937 39.56 
L 61 39.56 
Q 59 39.56 59 41.56 
L 59 99.82875 
Q 59 101.82875 61 101.82875 
z
" style="fill:#ffffff;opacity:0.8;stroke:#cccccc;stroke-linejoin:miter;"/>
    </g>
    <g id="line2d_19">
     <path d="M 63 47.658438 
L 83 47.658438 
" style="fill:none;stroke:#ff0000;stroke-linecap:square;stroke-width:1.5;"/>
    </g>
    <g id="line2d_20"/>
    <g id="text_16">
     <!-- dF/du [fixation] -->
     <defs>
      <path d="M 9.8125 72.90625 
L 51.703125 72.90625 
L 51.703125 64.59375 
L 19.671875 64.59375 
L 19.671875 43.109375 
L 48.578125 43.109375 
L 48.578125 34.8125 
L 19.671875 34.8125 
L 19.671875 0 
L 9.8125 0 
z
" id="DejaVuSans-46"/>
      <path d="M 25.390625 72.90625 
L 33.6875 72.90625 
L 8.296875 -9.28125 
L 0 -9.28125 
z
" id="DejaVuSans-2f"/>
      <path d="M 8.5 21.578125 
L 8.5 54.6875 
L 17.484375 54.6875 
L 17.484375 21.921875 
Q 17.484375 14.15625 20.5 10.265625 
Q 23.53125 6.390625 29.59375 6.390625 
Q 36.859375 6.390625 41.078125 11.03125 
Q 45.3125 15.671875 45.3125 23.6875 
L 45.3125 54.6875 
L 54.296875 54.6875 
L 54.296875 0 
L 45.3125 0 
L 45.3125 8.40625 
Q 42.046875 3.421875 37.71875 1 
Q 33.40625 -1.421875 27.6875 -1.421875 
Q 18.265625 -1.421875 13.375 4.4375 
Q 8.5 10.296875 8.5 21.578125 
z
M 31.109375 56 
z
" id="DejaVuSans-75"/>
      <path d="M 8.59375 75.984375 
L 29.296875 75.984375 
L 29.296875 69 
L 17.578125 69 
L 17.578125 -6.203125 
L 29.296875 -6.203125 
L 29.296875 -13.1875 
L 8.59375 -13.1875 
z
" id="DejaVuSans-5b"/>
      <path d="M 37.109375 75.984375 
L 37.109375 68.5 
L 28.515625 68.5 
Q 23.6875 68.5 21.796875 66.546875 
Q 19.921875 64.59375 19.921875 59.515625 
L 19.921875 54.6875 
L 34.71875 54.6875 
L 34.71875 47.703125 
L 19.921875 47.703125 
L 19.921875 0 
L 10.890625 0 
L 10.890625 47.703125 
L 2.296875 47.703125 
L 2.296875 54.6875 
L 10.890625 54.6875 
L 10.890625 58.5 
Q 10.890625 67.625 15.140625 71.796875 
Q 19.390625 75.984375 28.609375 75.984375 
z
" id="DejaVuSans-66"/>
      <path d="M 9.421875 54.6875 
L 18.40625 54.6875 
L 18.40625 0 
L 9.421875 0 
z
M 9.421875 75.984375 
L 18.40625 75.984375 
L 18.40625 64.59375 
L 9.421875 64.59375 
z
" id="DejaVuSans-69"/>
      <path d="M 54.890625 54.6875 
L 35.109375 28.078125 
L 55.90625 0 
L 45.3125 0 
L 29.390625 21.484375 
L 13.484375 0 
L 2.875 0 
L 24.125 28.609375 
L 4.6875 54.6875 
L 15.28125 54.6875 
L 29.78125 35.203125 
L 44.28125 54.6875 
z
" id="DejaVuSans-78"/>
      <path d="M 18.3125 70.21875 
L 18.3125 54.6875 
L 36.8125 54.6875 
L 36.8125 47.703125 
L 18.3125 47.703125 
L 18.3125 18.015625 
Q 18.3125 11.328125 20.140625 9.421875 
Q 21.96875 7.515625 27.59375 7.515625 
L 36.8125 7.515625 
L 36.8125 0 
L 27.59375 0 
Q 17.1875 0 13.234375 3.875 
Q 9.28125 7.765625 9.28125 18.015625 
L 9.28125 47.703125 
L 2.6875 47.703125 
L 2.6875 54.6875 
L 9.28125 54.6875 
L 9.28125 70.21875 
z
" id="DejaVuSans-74"/>
      <path d="M 30.421875 75.984375 
L 30.421875 -13.1875 
L 9.71875 -13.1875 
L 9.71875 -6.203125 
L 21.390625 -6.203125 
L 21.390625 69 
L 9.71875 69 
L 9.71875 75.984375 
z
" id="DejaVuSans-5d"/>
     </defs>
     <g transform="translate(91 51.158438)scale(0.1 -0.1)">
      <use xlink:href="#DejaVuSans-64"/>
      <use x="63.476562" xlink:href="#DejaVuSans-46"/>
      <use x="120.996094" xlink:href="#DejaVuSans-2f"/>
      <use x="154.6875" xlink:href="#DejaVuSans-64"/>
      <use x="218.164062" xlink:href="#DejaVuSans-75"/>
      <use x="281.542969" xlink:href="#DejaVuSans-20"/>
      <use x="313.330078" xlink:href="#DejaVuSans-5b"/>
      <use x="352.34375" xlink:href="#DejaVuSans-66"/>
      <use x="387.548828" xlink:href="#DejaVuSans-69"/>
      <use x="415.332031" xlink:href="#DejaVuSans-78"/>
      <use x="474.511719" xlink:href="#DejaVuSans-61"/>
      <use x="535.791016" xlink:href="#DejaVuSans-74"/>
      <use x="575" xlink:href="#DejaVuSans-69"/>
      <use x="602.783203" xlink:href="#DejaVuSans-6f"/>
      <use x="663.964844" xlink:href="#DejaVuSans-6e"/>
      <use x="727.34375" xlink:href="#DejaVuSans-5d"/>
     </g>
    </g>
    <g id="line2d_21">
     <path d="M 63 62.336563 
L 83 62.336563 
" style="fill:none;stroke:#0000ff;stroke-linecap:square;stroke-width:1.5;"/>
    </g>
    <g id="line2d_22"/>
    <g id="text_17">
     <!-- dF/du [stimulus] -->
     <defs>
      <path d="M 44.28125 53.078125 
L 44.28125 44.578125 
Q 40.484375 46.53125 36.375 47.5 
Q 32.28125 48.484375 27.875 48.484375 
Q 21.1875 48.484375 17.84375 46.4375 
Q 14.5 44.390625 14.5 40.28125 
Q 14.5 37.15625 16.890625 35.375 
Q 19.28125 33.59375 26.515625 31.984375 
L 29.59375 31.296875 
Q 39.15625 29.25 43.1875 25.515625 
Q 47.21875 21.78125 47.21875 15.09375 
Q 47.21875 7.46875 41.1875 3.015625 
Q 35.15625 -1.421875 24.609375 -1.421875 
Q 20.21875 -1.421875 15.453125 -0.5625 
Q 10.6875 0.296875 5.421875 2 
L 5.421875 11.28125 
Q 10.40625 8.6875 15.234375 7.390625 
Q 20.0625 6.109375 24.8125 6.109375 
Q 31.15625 6.109375 34.5625 8.28125 
Q 37.984375 10.453125 37.984375 14.40625 
Q 37.984375 18.0625 35.515625 20.015625 
Q 33.0625 21.96875 24.703125 23.78125 
L 21.578125 24.515625 
Q 13.234375 26.265625 9.515625 29.90625 
Q 5.8125 33.546875 5.8125 39.890625 
Q 5.8125 47.609375 11.28125 51.796875 
Q 16.75 56 26.8125 56 
Q 31.78125 56 36.171875 55.265625 
Q 40.578125 54.546875 44.28125 53.078125 
z
" id="DejaVuSans-73"/>
      <path d="M 52 44.1875 
Q 55.375 50.25 60.0625 53.125 
Q 64.75 56 71.09375 56 
Q 79.640625 56 84.28125 50.015625 
Q 88.921875 44.046875 88.921875 33.015625 
L 88.921875 0 
L 79.890625 0 
L 79.890625 32.71875 
Q 79.890625 40.578125 77.09375 44.375 
Q 74.3125 48.1875 68.609375 48.1875 
Q 61.625 48.1875 57.5625 43.546875 
Q 53.515625 38.921875 53.515625 30.90625 
L 53.515625 0 
L 44.484375 0 
L 44.484375 32.71875 
Q 44.484375 40.625 41.703125 44.40625 
Q 38.921875 48.1875 33.109375 48.1875 
Q 26.21875 48.1875 22.15625 43.53125 
Q 18.109375 38.875 18.109375 30.90625 
L 18.109375 0 
L 9.078125 0 
L 9.078125 54.6875 
L 18.109375 54.6875 
L 18.109375 46.1875 
Q 21.1875 51.21875 25.484375 53.609375 
Q 29.78125 56 35.6875 56 
Q 41.65625 56 45.828125 52.96875 
Q 50 49.953125 52 44.1875 
z
" id="DejaVuSans-6d"/>
     </defs>
     <g transform="translate(91 65.836563)scale(0.1 -0.1)">
      <use xlink:href="#DejaVuSans-64"/>
      <use x="63.476562" xlink:href="#DejaVuSans-46"/>
      <use x="120.996094" xlink:href="#DejaVuSans-2f"/>
      <use x="154.6875" xlink:href="#DejaVuSans-64"/>
      <use x="218.164062" xlink:href="#DejaVuSans-75"/>
      <use x="281.542969" xlink:href="#DejaVuSans-20"/>
      <use x="313.330078" xlink:href="#DejaVuSans-5b"/>
      <use x="352.34375" xlink:href="#DejaVuSans-73"/>
      <use x="404.443359" xlink:href="#DejaVuSans-74"/>
      <use x="443.652344" xlink:href="#DejaVuSans-69"/>
      <use x="471.435547" xlink:href="#DejaVuSans-6d"/>
      <use x="568.847656" xlink:href="#DejaVuSans-75"/>
      <use x="632.226562" xlink:href="#DejaVuSans-6c"/>
      <use x="660.009766" xlink:href="#DejaVuSans-75"/>
      <use x="723.388672" xlink:href="#DejaVuSans-73"/>
      <use x="775.488281" xlink:href="#DejaVuSans-5d"/>
     </g>
    </g>
    <g id="line2d_23">
     <path d="M 63 77.014688 
L 83 77.014688 
" style="fill:none;stroke:#008000;stroke-linecap:square;stroke-width:1.5;"/>
    </g>
    <g id="line2d_24"/>
    <g id="text_18">
     <!-- dF/du [context_all] -->
     <defs>
      <path d="M 48.78125 52.59375 
L 48.78125 44.1875 
Q 44.96875 46.296875 41.140625 47.34375 
Q 37.3125 48.390625 33.40625 48.390625 
Q 24.65625 48.390625 19.8125 42.84375 
Q 14.984375 37.3125 14.984375 27.296875 
Q 14.984375 17.28125 19.8125 11.734375 
Q 24.65625 6.203125 33.40625 6.203125 
Q 37.3125 6.203125 41.140625 7.25 
Q 44.96875 8.296875 48.78125 10.40625 
L 48.78125 2.09375 
Q 45.015625 0.34375 40.984375 -0.53125 
Q 36.96875 -1.421875 32.421875 -1.421875 
Q 20.0625 -1.421875 12.78125 6.34375 
Q 5.515625 14.109375 5.515625 27.296875 
Q 5.515625 40.671875 12.859375 48.328125 
Q 20.21875 56 33.015625 56 
Q 37.15625 56 41.109375 55.140625 
Q 45.0625 54.296875 48.78125 52.59375 
z
" id="DejaVuSans-63"/>
     </defs>
     <g transform="translate(91 80.514688)scale(0.1 -0.1)">
      <use xlink:href="#DejaVuSans-64"/>
      <use x="63.476562" xlink:href="#DejaVuSans-46"/>
      <use x="120.996094" xlink:href="#DejaVuSans-2f"/>
      <use x="154.6875" xlink:href="#DejaVuSans-64"/>
      <use x="218.164062" xlink:href="#DejaVuSans-75"/>
      <use x="281.542969" xlink:href="#DejaVuSans-20"/>
      <use x="313.330078" xlink:href="#DejaVuSans-5b"/>
      <use x="352.34375" xlink:href="#DejaVuSans-63"/>
      <use x="407.324219" xlink:href="#DejaVuSans-6f"/>
      <use x="468.505859" xlink:href="#DejaVuSans-6e"/>
      <use x="531.884766" xlink:href="#DejaVuSans-74"/>
      <use x="571.09375" xlink:href="#DejaVuSans-65"/>
      <use x="632.601562" xlink:href="#DejaVuSans-78"/>
      <use x="691.78125" xlink:href="#DejaVuSans-74"/>
      <use x="730.990234" xlink:href="#DejaVuSans-5f"/>
      <use x="780.990234" xlink:href="#DejaVuSans-61"/>
      <use x="842.269531" xlink:href="#DejaVuSans-6c"/>
      <use x="870.052734" xlink:href="#DejaVuSans-6c"/>
      <use x="897.835938" xlink:href="#DejaVuSans-5d"/>
     </g>
    </g>
    <g id="line2d_25">
     <path d="M 63 91.970938 
L 83 91.970938 
" style="fill:none;stroke:#00bfbf;stroke-linecap:square;stroke-width:1.5;"/>
    </g>
    <g id="line2d_26"/>
    <g id="text_19">
     <!-- dF/du [context_specific] -->
     <defs>
      <path d="M 18.109375 8.203125 
L 18.109375 -20.796875 
L 9.078125 -20.796875 
L 9.078125 54.6875 
L 18.109375 54.6875 
L 18.109375 46.390625 
Q 20.953125 51.265625 25.265625 53.625 
Q 29.59375 56 35.59375 56 
Q 45.5625 56 51.78125 48.09375 
Q 58.015625 40.1875 58.015625 27.296875 
Q 58.015625 14.40625 51.78125 6.484375 
Q 45.5625 -1.421875 35.59375 -1.421875 
Q 29.59375 -1.421875 25.265625 0.953125 
Q 20.953125 3.328125 18.109375 8.203125 
z
M 48.6875 27.296875 
Q 48.6875 37.203125 44.609375 42.84375 
Q 40.53125 48.484375 33.40625 48.484375 
Q 26.265625 48.484375 22.1875 42.84375 
Q 18.109375 37.203125 18.109375 27.296875 
Q 18.109375 17.390625 22.1875 11.75 
Q 26.265625 6.109375 33.40625 6.109375 
Q 40.53125 6.109375 44.609375 11.75 
Q 48.6875 17.390625 48.6875 27.296875 
z
" id="DejaVuSans-70"/>
     </defs>
     <g transform="translate(91 95.470938)scale(0.1 -0.1)">
      <use xlink:href="#DejaVuSans-64"/>
      <use x="63.476562" xlink:href="#DejaVuSans-46"/>
      <use x="120.996094" xlink:href="#DejaVuSans-2f"/>
      <use x="154.6875" xlink:href="#DejaVuSans-64"/>
      <use x="218.164062" xlink:href="#DejaVuSans-75"/>
      <use x="281.542969" xlink:href="#DejaVuSans-20"/>
      <use x="313.330078" xlink:href="#DejaVuSans-5b"/>
      <use x="352.34375" xlink:href="#DejaVuSans-63"/>
      <use x="407.324219" xlink:href="#DejaVuSans-6f"/>
      <use x="468.505859" xlink:href="#DejaVuSans-6e"/>
      <use x="531.884766" xlink:href="#DejaVuSans-74"/>
      <use x="571.09375" xlink:href="#DejaVuSans-65"/>
      <use x="632.601562" xlink:href="#DejaVuSans-78"/>
      <use x="691.78125" xlink:href="#DejaVuSans-74"/>
      <use x="730.990234" xlink:href="#DejaVuSans-5f"/>
      <use x="780.990234" xlink:href="#DejaVuSans-73"/>
      <use x="833.089844" xlink:href="#DejaVuSans-70"/>
      <use x="896.566406" xlink:href="#DejaVuSans-65"/>
      <use x="958.089844" xlink:href="#DejaVuSans-63"/>
      <use x="1013.070312" xlink:href="#DejaVuSans-69"/>
      <use x="1040.853516" xlink:href="#DejaVuSans-66"/>
      <use x="1076.058594" xlink:href="#DejaVuSans-69"/>
      <use x="1103.841797" xlink:href="#DejaVuSans-63"/>
      <use x="1158.822266" xlink:href="#DejaVuSans-5d"/>
     </g>
    </g>
   </g>
  </g>
 </g>
 <defs>
  <clipPath id="pe47891a31b">
   <rect height="217.44" width="334.8" x="54" y="34.56"/>
  </clipPath>
 </defs>
</svg>
