<?xml version="1.0" encoding="utf-8" standalone="no"?>
<!DOCTYPE svg PUBLIC "-//W3C//DTD SVG 1.1//EN"
  "http://www.w3.org/Graphics/SVG/1.1/DTD/svg11.dtd">
<!-- Created with matplotlib (http://matplotlib.org/) -->
<svg height="576pt" version="1.1" viewBox="0 0 576 576" width="576pt" xmlns="http://www.w3.org/2000/svg" xmlns:xlink="http://www.w3.org/1999/xlink">
 <defs>
  <style type="text/css">
*{stroke-linecap:butt;stroke-linejoin:round;}
  </style>
 </defs>
 <g id="figure_1">
  <g id="patch_1">
   <path d="M 0 576 
L 576 576 
L 576 0 
L 0 0 
z
" style="fill:#ffffff;"/>
  </g>
  <g id="axes_1">
   <g id="patch_2">
    <path d="M 72 504 
L 518.4 504 
L 518.4 69.12 
L 72 69.12 
z
" style="fill:#ffffff;"/>
   </g>
   <g id="matplotlib.axis_1">
    <g id="xtick_1">
     <g id="line2d_1">
      <defs>
       <path d="M 0 0 
L 0 3.5 
" id="m4c29447d7a" style="stroke:#000000;stroke-width:0.8;"/>
      </defs>
      <g>
       <use style="stroke:#000000;stroke-width:0.8;" x="86.4" xlink:href="#m4c29447d7a" y="504"/>
      </g>
     </g>
     <g id="text_1">
      <!-- 0 -->
      <defs>
       <path d="M 31.78125 66.40625 
Q 24.171875 66.40625 20.328125 58.90625 
Q 16.5 51.421875 16.5 36.375 
Q 16.5 21.390625 20.328125 13.890625 
Q 24.171875 6.390625 31.78125 6.390625 
Q 39.453125 6.390625 43.28125 13.890625 
Q 47.125 21.390625 47.125 36.375 
Q 47.125 51.421875 43.28125 58.90625 
Q 39.453125 66.40625 31.78125 66.40625 
z
M 31.78125 74.21875 
Q 44.046875 74.21875 50.515625 64.515625 
Q 56.984375 54.828125 56.984375 36.375 
Q 56.984375 17.96875 50.515625 8.265625 
Q 44.046875 -1.421875 31.78125 -1.421875 
Q 19.53125 -1.421875 13.0625 8.265625 
Q 6.59375 17.96875 6.59375 36.375 
Q 6.59375 54.828125 13.0625 64.515625 
Q 19.53125 74.21875 31.78125 74.21875 
z
" id="DejaVuSans-30"/>
      </defs>
      <g transform="translate(83.21875 518.598438)scale(0.1 -0.1)">
       <use xlink:href="#DejaVuSans-30"/>
      </g>
     </g>
    </g>
    <g id="xtick_2">
     <g id="line2d_2">
      <g>
       <use style="stroke:#000000;stroke-width:0.8;" x="158.4" xlink:href="#m4c29447d7a" y="504"/>
      </g>
     </g>
     <g id="text_2">
      <!-- 5 -->
      <defs>
       <path d="M 10.796875 72.90625 
L 49.515625 72.90625 
L 49.515625 64.59375 
L 19.828125 64.59375 
L 19.828125 46.734375 
Q 21.96875 47.46875 24.109375 47.828125 
Q 26.265625 48.1875 28.421875 48.1875 
Q 40.625 48.1875 47.75 41.5 
Q 54.890625 34.8125 54.890625 23.390625 
Q 54.890625 11.625 47.5625 5.09375 
Q 40.234375 -1.421875 26.90625 -1.421875 
Q 22.3125 -1.421875 17.546875 -0.640625 
Q 12.796875 0.140625 7.71875 1.703125 
L 7.71875 11.625 
Q 12.109375 9.234375 16.796875 8.0625 
Q 21.484375 6.890625 26.703125 6.890625 
Q 35.15625 6.890625 40.078125 11.328125 
Q 45.015625 15.765625 45.015625 23.390625 
Q 45.015625 31 40.078125 35.4375 
Q 35.15625 39.890625 26.703125 39.890625 
Q 22.75 39.890625 18.8125 39.015625 
Q 14.890625 38.140625 10.796875 36.28125 
z
" id="DejaVuSans-35"/>
      </defs>
      <g transform="translate(155.21875 518.598438)scale(0.1 -0.1)">
       <use xlink:href="#DejaVuSans-35"/>
      </g>
     </g>
    </g>
    <g id="xtick_3">
     <g id="line2d_3">
      <g>
       <use style="stroke:#000000;stroke-width:0.8;" x="230.4" xlink:href="#m4c29447d7a" y="504"/>
      </g>
     </g>
     <g id="text_3">
      <!-- 10 -->
      <defs>
       <path d="M 12.40625 8.296875 
L 28.515625 8.296875 
L 28.515625 63.921875 
L 10.984375 60.40625 
L 10.984375 69.390625 
L 28.421875 72.90625 
L 38.28125 72.90625 
L 38.28125 8.296875 
L 54.390625 8.296875 
L 54.390625 0 
L 12.40625 0 
z
" id="DejaVuSans-31"/>
      </defs>
      <g transform="translate(224.0375 518.598438)scale(0.1 -0.1)">
       <use xlink:href="#DejaVuSans-31"/>
       <use x="63.623047" xlink:href="#DejaVuSans-30"/>
      </g>
     </g>
    </g>
    <g id="xtick_4">
     <g id="line2d_4">
      <g>
       <use style="stroke:#000000;stroke-width:0.8;" x="302.4" xlink:href="#m4c29447d7a" y="504"/>
      </g>
     </g>
     <g id="text_4">
      <!-- 15 -->
      <g transform="translate(296.0375 518.598438)scale(0.1 -0.1)">
       <use xlink:href="#DejaVuSans-31"/>
       <use x="63.623047" xlink:href="#DejaVuSans-35"/>
      </g>
     </g>
    </g>
    <g id="xtick_5">
     <g id="line2d_5">
      <g>
       <use style="stroke:#000000;stroke-width:0.8;" x="374.4" xlink:href="#m4c29447d7a" y="504"/>
      </g>
     </g>
     <g id="text_5">
      <!-- 20 -->
      <defs>
       <path d="M 19.1875 8.296875 
L 53.609375 8.296875 
L 53.609375 0 
L 7.328125 0 
L 7.328125 8.296875 
Q 12.9375 14.109375 22.625 23.890625 
Q 32.328125 33.6875 34.8125 36.53125 
Q 39.546875 41.84375 41.421875 45.53125 
Q 43.3125 49.21875 43.3125 52.78125 
Q 43.3125 58.59375 39.234375 62.25 
Q 35.15625 65.921875 28.609375 65.921875 
Q 23.96875 65.921875 18.8125 64.3125 
Q 13.671875 62.703125 7.8125 59.421875 
L 7.8125 69.390625 
Q 13.765625 71.78125 18.9375 73 
Q 24.125 74.21875 28.421875 74.21875 
Q 39.75 74.21875 46.484375 68.546875 
Q 53.21875 62.890625 53.21875 53.421875 
Q 53.21875 48.921875 51.53125 44.890625 
Q 49.859375 40.875 45.40625 35.40625 
Q 44.1875 33.984375 37.640625 27.21875 
Q 31.109375 20.453125 19.1875 8.296875 
z
" id="DejaVuSans-32"/>
      </defs>
      <g transform="translate(368.0375 518.598438)scale(0.1 -0.1)">
       <use xlink:href="#DejaVuSans-32"/>
       <use x="63.623047" xlink:href="#DejaVuSans-30"/>
      </g>
     </g>
    </g>
    <g id="xtick_6">
     <g id="line2d_6">
      <g>
       <use style="stroke:#000000;stroke-width:0.8;" x="446.4" xlink:href="#m4c29447d7a" y="504"/>
      </g>
     </g>
     <g id="text_6">
      <!-- 25 -->
      <g transform="translate(440.0375 518.598438)scale(0.1 -0.1)">
       <use xlink:href="#DejaVuSans-32"/>
       <use x="63.623047" xlink:href="#DejaVuSans-35"/>
      </g>
     </g>
    </g>
    <g id="xtick_7">
     <g id="line2d_7">
      <g>
       <use style="stroke:#000000;stroke-width:0.8;" x="518.4" xlink:href="#m4c29447d7a" y="504"/>
      </g>
     </g>
     <g id="text_7">
      <!-- 30 -->
      <defs>
       <path d="M 40.578125 39.3125 
Q 47.65625 37.796875 51.625 33 
Q 55.609375 28.21875 55.609375 21.1875 
Q 55.609375 10.40625 48.1875 4.484375 
Q 40.765625 -1.421875 27.09375 -1.421875 
Q 22.515625 -1.421875 17.65625 -0.515625 
Q 12.796875 0.390625 7.625 2.203125 
L 7.625 11.71875 
Q 11.71875 9.328125 16.59375 8.109375 
Q 21.484375 6.890625 26.8125 6.890625 
Q 36.078125 6.890625 40.9375 10.546875 
Q 45.796875 14.203125 45.796875 21.1875 
Q 45.796875 27.640625 41.28125 31.265625 
Q 36.765625 34.90625 28.71875 34.90625 
L 20.21875 34.90625 
L 20.21875 43.015625 
L 29.109375 43.015625 
Q 36.375 43.015625 40.234375 45.921875 
Q 44.09375 48.828125 44.09375 54.296875 
Q 44.09375 59.90625 40.109375 62.90625 
Q 36.140625 65.921875 28.71875 65.921875 
Q 24.65625 65.921875 20.015625 65.03125 
Q 15.375 64.15625 9.8125 62.3125 
L 9.8125 71.09375 
Q 15.4375 72.65625 20.34375 73.4375 
Q 25.25 74.21875 29.59375 74.21875 
Q 40.828125 74.21875 47.359375 69.109375 
Q 53.90625 64.015625 53.90625 55.328125 
Q 53.90625 49.265625 50.4375 45.09375 
Q 46.96875 40.921875 40.578125 39.3125 
z
" id="DejaVuSans-33"/>
      </defs>
      <g transform="translate(512.0375 518.598438)scale(0.1 -0.1)">
       <use xlink:href="#DejaVuSans-33"/>
       <use x="63.623047" xlink:href="#DejaVuSans-30"/>
      </g>
     </g>
    </g>
    <g id="text_8">
     <!-- # Components -->
     <defs>
      <path d="M 51.125 44 
L 36.921875 44 
L 32.8125 27.6875 
L 47.125 27.6875 
z
M 43.796875 71.78125 
L 38.71875 51.515625 
L 52.984375 51.515625 
L 58.109375 71.78125 
L 65.921875 71.78125 
L 60.890625 51.515625 
L 76.125 51.515625 
L 76.125 44 
L 58.984375 44 
L 54.984375 27.6875 
L 70.515625 27.6875 
L 70.515625 20.21875 
L 53.078125 20.21875 
L 48 0 
L 40.1875 0 
L 45.21875 20.21875 
L 30.90625 20.21875 
L 25.875 0 
L 18.015625 0 
L 23.09375 20.21875 
L 7.71875 20.21875 
L 7.71875 27.6875 
L 24.90625 27.6875 
L 29 44 
L 13.28125 44 
L 13.28125 51.515625 
L 30.90625 51.515625 
L 35.890625 71.78125 
z
" id="DejaVuSans-23"/>
      <path id="DejaVuSans-20"/>
      <path d="M 64.40625 67.28125 
L 64.40625 56.890625 
Q 59.421875 61.53125 53.78125 63.8125 
Q 48.140625 66.109375 41.796875 66.109375 
Q 29.296875 66.109375 22.65625 58.46875 
Q 16.015625 50.828125 16.015625 36.375 
Q 16.015625 21.96875 22.65625 14.328125 
Q 29.296875 6.6875 41.796875 6.6875 
Q 48.140625 6.6875 53.78125 8.984375 
Q 59.421875 11.28125 64.40625 15.921875 
L 64.40625 5.609375 
Q 59.234375 2.09375 53.4375 0.328125 
Q 47.65625 -1.421875 41.21875 -1.421875 
Q 24.65625 -1.421875 15.125 8.703125 
Q 5.609375 18.84375 5.609375 36.375 
Q 5.609375 53.953125 15.125 64.078125 
Q 24.65625 74.21875 41.21875 74.21875 
Q 47.75 74.21875 53.53125 72.484375 
Q 59.328125 70.75 64.40625 67.28125 
z
" id="DejaVuSans-43"/>
      <path d="M 30.609375 48.390625 
Q 23.390625 48.390625 19.1875 42.75 
Q 14.984375 37.109375 14.984375 27.296875 
Q 14.984375 17.484375 19.15625 11.84375 
Q 23.34375 6.203125 30.609375 6.203125 
Q 37.796875 6.203125 41.984375 11.859375 
Q 46.1875 17.53125 46.1875 27.296875 
Q 46.1875 37.015625 41.984375 42.703125 
Q 37.796875 48.390625 30.609375 48.390625 
z
M 30.609375 56 
Q 42.328125 56 49.015625 48.375 
Q 55.71875 40.765625 55.71875 27.296875 
Q 55.71875 13.875 49.015625 6.21875 
Q 42.328125 -1.421875 30.609375 -1.421875 
Q 18.84375 -1.421875 12.171875 6.21875 
Q 5.515625 13.875 5.515625 27.296875 
Q 5.515625 40.765625 12.171875 48.375 
Q 18.84375 56 30.609375 56 
z
" id="DejaVuSans-6f"/>
      <path d="M 52 44.1875 
Q 55.375 50.25 60.0625 53.125 
Q 64.75 56 71.09375 56 
Q 79.640625 56 84.28125 50.015625 
Q 88.921875 44.046875 88.921875 33.015625 
L 88.921875 0 
L 79.890625 0 
L 79.890625 32.71875 
Q 79.890625 40.578125 77.09375 44.375 
Q 74.3125 48.1875 68.609375 48.1875 
Q 61.625 48.1875 57.5625 43.546875 
Q 53.515625 38.921875 53.515625 30.90625 
L 53.515625 0 
L 44.484375 0 
L 44.484375 32.71875 
Q 44.484375 40.625 41.703125 44.40625 
Q 38.921875 48.1875 33.109375 48.1875 
Q 26.21875 48.1875 22.15625 43.53125 
Q 18.109375 38.875 18.109375 30.90625 
L 18.109375 0 
L 9.078125 0 
L 9.078125 54.6875 
L 18.109375 54.6875 
L 18.109375 46.1875 
Q 21.1875 51.21875 25.484375 53.609375 
Q 29.78125 56 35.6875 56 
Q 41.65625 56 45.828125 52.96875 
Q 50 49.953125 52 44.1875 
z
" id="DejaVuSans-6d"/>
      <path d="M 18.109375 8.203125 
L 18.109375 -20.796875 
L 9.078125 -20.796875 
L 9.078125 54.6875 
L 18.109375 54.6875 
L 18.109375 46.390625 
Q 20.953125 51.265625 25.265625 53.625 
Q 29.59375 56 35.59375 56 
Q 45.5625 56 51.78125 48.09375 
Q 58.015625 40.1875 58.015625 27.296875 
Q 58.015625 14.40625 51.78125 6.484375 
Q 45.5625 -1.421875 35.59375 -1.421875 
Q 29.59375 -1.421875 25.265625 0.953125 
Q 20.953125 3.328125 18.109375 8.203125 
z
M 48.6875 27.296875 
Q 48.6875 37.203125 44.609375 42.84375 
Q 40.53125 48.484375 33.40625 48.484375 
Q 26.265625 48.484375 22.1875 42.84375 
Q 18.109375 37.203125 18.109375 27.296875 
Q 18.109375 17.390625 22.1875 11.75 
Q 26.265625 6.109375 33.40625 6.109375 
Q 40.53125 6.109375 44.609375 11.75 
Q 48.6875 17.390625 48.6875 27.296875 
z
" id="DejaVuSans-70"/>
      <path d="M 54.890625 33.015625 
L 54.890625 0 
L 45.90625 0 
L 45.90625 32.71875 
Q 45.90625 40.484375 42.875 44.328125 
Q 39.84375 48.1875 33.796875 48.1875 
Q 26.515625 48.1875 22.3125 43.546875 
Q 18.109375 38.921875 18.109375 30.90625 
L 18.109375 0 
L 9.078125 0 
L 9.078125 54.6875 
L 18.109375 54.6875 
L 18.109375 46.1875 
Q 21.34375 51.125 25.703125 53.5625 
Q 30.078125 56 35.796875 56 
Q 45.21875 56 50.046875 50.171875 
Q 54.890625 44.34375 54.890625 33.015625 
z
" id="DejaVuSans-6e"/>
      <path d="M 56.203125 29.59375 
L 56.203125 25.203125 
L 14.890625 25.203125 
Q 15.484375 15.921875 20.484375 11.0625 
Q 25.484375 6.203125 34.421875 6.203125 
Q 39.59375 6.203125 44.453125 7.46875 
Q 49.3125 8.734375 54.109375 11.28125 
L 54.109375 2.78125 
Q 49.265625 0.734375 44.1875 -0.34375 
Q 39.109375 -1.421875 33.890625 -1.421875 
Q 20.796875 -1.421875 13.15625 6.1875 
Q 5.515625 13.8125 5.515625 26.8125 
Q 5.515625 40.234375 12.765625 48.109375 
Q 20.015625 56 32.328125 56 
Q 43.359375 56 49.78125 48.890625 
Q 56.203125 41.796875 56.203125 29.59375 
z
M 47.21875 32.234375 
Q 47.125 39.59375 43.09375 43.984375 
Q 39.0625 48.390625 32.421875 48.390625 
Q 24.90625 48.390625 20.390625 44.140625 
Q 15.875 39.890625 15.1875 32.171875 
z
" id="DejaVuSans-65"/>
      <path d="M 18.3125 70.21875 
L 18.3125 54.6875 
L 36.8125 54.6875 
L 36.8125 47.703125 
L 18.3125 47.703125 
L 18.3125 18.015625 
Q 18.3125 11.328125 20.140625 9.421875 
Q 21.96875 7.515625 27.59375 7.515625 
L 36.8125 7.515625 
L 36.8125 0 
L 27.59375 0 
Q 17.1875 0 13.234375 3.875 
Q 9.28125 7.765625 9.28125 18.015625 
L 9.28125 47.703125 
L 2.6875 47.703125 
L 2.6875 54.6875 
L 9.28125 54.6875 
L 9.28125 70.21875 
z
" id="DejaVuSans-74"/>
      <path d="M 44.28125 53.078125 
L 44.28125 44.578125 
Q 40.484375 46.53125 36.375 47.5 
Q 32.28125 48.484375 27.875 48.484375 
Q 21.1875 48.484375 17.84375 46.4375 
Q 14.5 44.390625 14.5 40.28125 
Q 14.5 37.15625 16.890625 35.375 
Q 19.28125 33.59375 26.515625 31.984375 
L 29.59375 31.296875 
Q 39.15625 29.25 43.1875 25.515625 
Q 47.21875 21.78125 47.21875 15.09375 
Q 47.21875 7.46875 41.1875 3.015625 
Q 35.15625 -1.421875 24.609375 -1.421875 
Q 20.21875 -1.421875 15.453125 -0.5625 
Q 10.6875 0.296875 5.421875 2 
L 5.421875 11.28125 
Q 10.40625 8.6875 15.234375 7.390625 
Q 20.0625 6.109375 24.8125 6.109375 
Q 31.15625 6.109375 34.5625 8.28125 
Q 37.984375 10.453125 37.984375 14.40625 
Q 37.984375 18.0625 35.515625 20.015625 
Q 33.0625 21.96875 24.703125 23.78125 
L 21.578125 24.515625 
Q 13.234375 26.265625 9.515625 29.90625 
Q 5.8125 33.546875 5.8125 39.890625 
Q 5.8125 47.609375 11.28125 51.796875 
Q 16.75 56 26.8125 56 
Q 31.78125 56 36.171875 55.265625 
Q 40.578125 54.546875 44.28125 53.078125 
z
" id="DejaVuSans-73"/>
     </defs>
     <g transform="translate(257.7875 532.276562)scale(0.1 -0.1)">
      <use xlink:href="#DejaVuSans-23"/>
      <use x="83.789062" xlink:href="#DejaVuSans-20"/>
      <use x="115.576172" xlink:href="#DejaVuSans-43"/>
      <use x="185.400391" xlink:href="#DejaVuSans-6f"/>
      <use x="246.582031" xlink:href="#DejaVuSans-6d"/>
      <use x="343.994141" xlink:href="#DejaVuSans-70"/>
      <use x="407.470703" xlink:href="#DejaVuSans-6f"/>
      <use x="468.652344" xlink:href="#DejaVuSans-6e"/>
      <use x="532.03125" xlink:href="#DejaVuSans-65"/>
      <use x="593.554688" xlink:href="#DejaVuSans-6e"/>
      <use x="656.933594" xlink:href="#DejaVuSans-74"/>
      <use x="696.142578" xlink:href="#DejaVuSans-73"/>
     </g>
    </g>
   </g>
   <g id="matplotlib.axis_2">
    <g id="ytick_1">
     <g id="line2d_8">
      <defs>
       <path d="M 0 0 
L -3.5 0 
" id="mf0e16070a2" style="stroke:#000000;stroke-width:0.8;"/>
      </defs>
      <g>
       <use style="stroke:#000000;stroke-width:0.8;" x="72" xlink:href="#mf0e16070a2" y="493.298114"/>
      </g>
     </g>
     <g id="text_9">
      <!-- 0.0 -->
      <defs>
       <path d="M 10.6875 12.40625 
L 21 12.40625 
L 21 0 
L 10.6875 0 
z
" id="DejaVuSans-2e"/>
      </defs>
      <g transform="translate(49.096875 497.097333)scale(0.1 -0.1)">
       <use xlink:href="#DejaVuSans-30"/>
       <use x="63.623047" xlink:href="#DejaVuSans-2e"/>
       <use x="95.410156" xlink:href="#DejaVuSans-30"/>
      </g>
     </g>
    </g>
    <g id="ytick_2">
     <g id="line2d_9">
      <g>
       <use style="stroke:#000000;stroke-width:0.8;" x="72" xlink:href="#mf0e16070a2" y="412.415955"/>
      </g>
     </g>
     <g id="text_10">
      <!-- 0.2 -->
      <g transform="translate(49.096875 416.215174)scale(0.1 -0.1)">
       <use xlink:href="#DejaVuSans-30"/>
       <use x="63.623047" xlink:href="#DejaVuSans-2e"/>
       <use x="95.410156" xlink:href="#DejaVuSans-32"/>
      </g>
     </g>
    </g>
    <g id="ytick_3">
     <g id="line2d_10">
      <g>
       <use style="stroke:#000000;stroke-width:0.8;" x="72" xlink:href="#mf0e16070a2" y="331.533797"/>
      </g>
     </g>
     <g id="text_11">
      <!-- 0.4 -->
      <defs>
       <path d="M 37.796875 64.3125 
L 12.890625 25.390625 
L 37.796875 25.390625 
z
M 35.203125 72.90625 
L 47.609375 72.90625 
L 47.609375 25.390625 
L 58.015625 25.390625 
L 58.015625 17.1875 
L 47.609375 17.1875 
L 47.609375 0 
L 37.796875 0 
L 37.796875 17.1875 
L 4.890625 17.1875 
L 4.890625 26.703125 
z
" id="DejaVuSans-34"/>
      </defs>
      <g transform="translate(49.096875 335.333015)scale(0.1 -0.1)">
       <use xlink:href="#DejaVuSans-30"/>
       <use x="63.623047" xlink:href="#DejaVuSans-2e"/>
       <use x="95.410156" xlink:href="#DejaVuSans-34"/>
      </g>
     </g>
    </g>
    <g id="ytick_4">
     <g id="line2d_11">
      <g>
       <use style="stroke:#000000;stroke-width:0.8;" x="72" xlink:href="#mf0e16070a2" y="250.651638"/>
      </g>
     </g>
     <g id="text_12">
      <!-- 0.6 -->
      <defs>
       <path d="M 33.015625 40.375 
Q 26.375 40.375 22.484375 35.828125 
Q 18.609375 31.296875 18.609375 23.390625 
Q 18.609375 15.53125 22.484375 10.953125 
Q 26.375 6.390625 33.015625 6.390625 
Q 39.65625 6.390625 43.53125 10.953125 
Q 47.40625 15.53125 47.40625 23.390625 
Q 47.40625 31.296875 43.53125 35.828125 
Q 39.65625 40.375 33.015625 40.375 
z
M 52.59375 71.296875 
L 52.59375 62.3125 
Q 48.875 64.0625 45.09375 64.984375 
Q 41.3125 65.921875 37.59375 65.921875 
Q 27.828125 65.921875 22.671875 59.328125 
Q 17.53125 52.734375 16.796875 39.40625 
Q 19.671875 43.65625 24.015625 45.921875 
Q 28.375 48.1875 33.59375 48.1875 
Q 44.578125 48.1875 50.953125 41.515625 
Q 57.328125 34.859375 57.328125 23.390625 
Q 57.328125 12.15625 50.6875 5.359375 
Q 44.046875 -1.421875 33.015625 -1.421875 
Q 20.359375 -1.421875 13.671875 8.265625 
Q 6.984375 17.96875 6.984375 36.375 
Q 6.984375 53.65625 15.1875 63.9375 
Q 23.390625 74.21875 37.203125 74.21875 
Q 40.921875 74.21875 44.703125 73.484375 
Q 48.484375 72.75 52.59375 71.296875 
z
" id="DejaVuSans-36"/>
      </defs>
      <g transform="translate(49.096875 254.450857)scale(0.1 -0.1)">
       <use xlink:href="#DejaVuSans-30"/>
       <use x="63.623047" xlink:href="#DejaVuSans-2e"/>
       <use x="95.410156" xlink:href="#DejaVuSans-36"/>
      </g>
     </g>
    </g>
    <g id="ytick_5">
     <g id="line2d_12">
      <g>
       <use style="stroke:#000000;stroke-width:0.8;" x="72" xlink:href="#mf0e16070a2" y="169.76948"/>
      </g>
     </g>
     <g id="text_13">
      <!-- 0.8 -->
      <defs>
       <path d="M 31.78125 34.625 
Q 24.75 34.625 20.71875 30.859375 
Q 16.703125 27.09375 16.703125 20.515625 
Q 16.703125 13.921875 20.71875 10.15625 
Q 24.75 6.390625 31.78125 6.390625 
Q 38.8125 6.390625 42.859375 10.171875 
Q 46.921875 13.96875 46.921875 20.515625 
Q 46.921875 27.09375 42.890625 30.859375 
Q 38.875 34.625 31.78125 34.625 
z
M 21.921875 38.8125 
Q 15.578125 40.375 12.03125 44.71875 
Q 8.5 49.078125 8.5 55.328125 
Q 8.5 64.0625 14.71875 69.140625 
Q 20.953125 74.21875 31.78125 74.21875 
Q 42.671875 74.21875 48.875 69.140625 
Q 55.078125 64.0625 55.078125 55.328125 
Q 55.078125 49.078125 51.53125 44.71875 
Q 48 40.375 41.703125 38.8125 
Q 48.828125 37.15625 52.796875 32.3125 
Q 56.78125 27.484375 56.78125 20.515625 
Q 56.78125 9.90625 50.3125 4.234375 
Q 43.84375 -1.421875 31.78125 -1.421875 
Q 19.734375 -1.421875 13.25 4.234375 
Q 6.78125 9.90625 6.78125 20.515625 
Q 6.78125 27.484375 10.78125 32.3125 
Q 14.796875 37.15625 21.921875 38.8125 
z
M 18.3125 54.390625 
Q 18.3125 48.734375 21.84375 45.5625 
Q 25.390625 42.390625 31.78125 42.390625 
Q 38.140625 42.390625 41.71875 45.5625 
Q 45.3125 48.734375 45.3125 54.390625 
Q 45.3125 60.0625 41.71875 63.234375 
Q 38.140625 66.40625 31.78125 66.40625 
Q 25.390625 66.40625 21.84375 63.234375 
Q 18.3125 60.0625 18.3125 54.390625 
z
" id="DejaVuSans-38"/>
      </defs>
      <g transform="translate(49.096875 173.568698)scale(0.1 -0.1)">
       <use xlink:href="#DejaVuSans-30"/>
       <use x="63.623047" xlink:href="#DejaVuSans-2e"/>
       <use x="95.410156" xlink:href="#DejaVuSans-38"/>
      </g>
     </g>
    </g>
    <g id="ytick_6">
     <g id="line2d_13">
      <g>
       <use style="stroke:#000000;stroke-width:0.8;" x="72" xlink:href="#mf0e16070a2" y="88.887321"/>
      </g>
     </g>
     <g id="text_14">
      <!-- 1.0 -->
      <g transform="translate(49.096875 92.68654)scale(0.1 -0.1)">
       <use xlink:href="#DejaVuSans-31"/>
       <use x="63.623047" xlink:href="#DejaVuSans-2e"/>
       <use x="95.410156" xlink:href="#DejaVuSans-30"/>
      </g>
     </g>
    </g>
    <g id="text_15">
     <!-- Cumulative Variance Explained -->
     <defs>
      <path d="M 8.5 21.578125 
L 8.5 54.6875 
L 17.484375 54.6875 
L 17.484375 21.921875 
Q 17.484375 14.15625 20.5 10.265625 
Q 23.53125 6.390625 29.59375 6.390625 
Q 36.859375 6.390625 41.078125 11.03125 
Q 45.3125 15.671875 45.3125 23.6875 
L 45.3125 54.6875 
L 54.296875 54.6875 
L 54.296875 0 
L 45.3125 0 
L 45.3125 8.40625 
Q 42.046875 3.421875 37.71875 1 
Q 33.40625 -1.421875 27.6875 -1.421875 
Q 18.265625 -1.421875 13.375 4.4375 
Q 8.5 10.296875 8.5 21.578125 
z
M 31.109375 56 
z
" id="DejaVuSans-75"/>
      <path d="M 9.421875 75.984375 
L 18.40625 75.984375 
L 18.40625 0 
L 9.421875 0 
z
" id="DejaVuSans-6c"/>
      <path d="M 34.28125 27.484375 
Q 23.390625 27.484375 19.1875 25 
Q 14.984375 22.515625 14.984375 16.5 
Q 14.984375 11.71875 18.140625 8.90625 
Q 21.296875 6.109375 26.703125 6.109375 
Q 34.1875 6.109375 38.703125 11.40625 
Q 43.21875 16.703125 43.21875 25.484375 
L 43.21875 27.484375 
z
M 52.203125 31.203125 
L 52.203125 0 
L 43.21875 0 
L 43.21875 8.296875 
Q 40.140625 3.328125 35.546875 0.953125 
Q 30.953125 -1.421875 24.3125 -1.421875 
Q 15.921875 -1.421875 10.953125 3.296875 
Q 6 8.015625 6 15.921875 
Q 6 25.140625 12.171875 29.828125 
Q 18.359375 34.515625 30.609375 34.515625 
L 43.21875 34.515625 
L 43.21875 35.40625 
Q 43.21875 41.609375 39.140625 45 
Q 35.0625 48.390625 27.6875 48.390625 
Q 23 48.390625 18.546875 47.265625 
Q 14.109375 46.140625 10.015625 43.890625 
L 10.015625 52.203125 
Q 14.9375 54.109375 19.578125 55.046875 
Q 24.21875 56 28.609375 56 
Q 40.484375 56 46.34375 49.84375 
Q 52.203125 43.703125 52.203125 31.203125 
z
" id="DejaVuSans-61"/>
      <path d="M 9.421875 54.6875 
L 18.40625 54.6875 
L 18.40625 0 
L 9.421875 0 
z
M 9.421875 75.984375 
L 18.40625 75.984375 
L 18.40625 64.59375 
L 9.421875 64.59375 
z
" id="DejaVuSans-69"/>
      <path d="M 2.984375 54.6875 
L 12.5 54.6875 
L 29.59375 8.796875 
L 46.6875 54.6875 
L 56.203125 54.6875 
L 35.6875 0 
L 23.484375 0 
z
" id="DejaVuSans-76"/>
      <path d="M 28.609375 0 
L 0.78125 72.90625 
L 11.078125 72.90625 
L 34.1875 11.53125 
L 57.328125 72.90625 
L 67.578125 72.90625 
L 39.796875 0 
z
" id="DejaVuSans-56"/>
      <path d="M 41.109375 46.296875 
Q 39.59375 47.171875 37.8125 47.578125 
Q 36.03125 48 33.890625 48 
Q 26.265625 48 22.1875 43.046875 
Q 18.109375 38.09375 18.109375 28.8125 
L 18.109375 0 
L 9.078125 0 
L 9.078125 54.6875 
L 18.109375 54.6875 
L 18.109375 46.1875 
Q 20.953125 51.171875 25.484375 53.578125 
Q 30.03125 56 36.53125 56 
Q 37.453125 56 38.578125 55.875 
Q 39.703125 55.765625 41.0625 55.515625 
z
" id="DejaVuSans-72"/>
      <path d="M 48.78125 52.59375 
L 48.78125 44.1875 
Q 44.96875 46.296875 41.140625 47.34375 
Q 37.3125 48.390625 33.40625 48.390625 
Q 24.65625 48.390625 19.8125 42.84375 
Q 14.984375 37.3125 14.984375 27.296875 
Q 14.984375 17.28125 19.8125 11.734375 
Q 24.65625 6.203125 33.40625 6.203125 
Q 37.3125 6.203125 41.140625 7.25 
Q 44.96875 8.296875 48.78125 10.40625 
L 48.78125 2.09375 
Q 45.015625 0.34375 40.984375 -0.53125 
Q 36.96875 -1.421875 32.421875 -1.421875 
Q 20.0625 -1.421875 12.78125 6.34375 
Q 5.515625 14.109375 5.515625 27.296875 
Q 5.515625 40.671875 12.859375 48.328125 
Q 20.21875 56 33.015625 56 
Q 37.15625 56 41.109375 55.140625 
Q 45.0625 54.296875 48.78125 52.59375 
z
" id="DejaVuSans-63"/>
      <path d="M 9.8125 72.90625 
L 55.90625 72.90625 
L 55.90625 64.59375 
L 19.671875 64.59375 
L 19.671875 43.015625 
L 54.390625 43.015625 
L 54.390625 34.71875 
L 19.671875 34.71875 
L 19.671875 8.296875 
L 56.78125 8.296875 
L 56.78125 0 
L 9.8125 0 
z
" id="DejaVuSans-45"/>
      <path d="M 54.890625 54.6875 
L 35.109375 28.078125 
L 55.90625 0 
L 45.3125 0 
L 29.390625 21.484375 
L 13.484375 0 
L 2.875 0 
L 24.125 28.609375 
L 4.6875 54.6875 
L 15.28125 54.6875 
L 29.78125 35.203125 
L 44.28125 54.6875 
z
" id="DejaVuSans-78"/>
      <path d="M 45.40625 46.390625 
L 45.40625 75.984375 
L 54.390625 75.984375 
L 54.390625 0 
L 45.40625 0 
L 45.40625 8.203125 
Q 42.578125 3.328125 38.25 0.953125 
Q 33.9375 -1.421875 27.875 -1.421875 
Q 17.96875 -1.421875 11.734375 6.484375 
Q 5.515625 14.40625 5.515625 27.296875 
Q 5.515625 40.1875 11.734375 48.09375 
Q 17.96875 56 27.875 56 
Q 33.9375 56 38.25 53.625 
Q 42.578125 51.265625 45.40625 46.390625 
z
M 14.796875 27.296875 
Q 14.796875 17.390625 18.875 11.75 
Q 22.953125 6.109375 30.078125 6.109375 
Q 37.203125 6.109375 41.296875 11.75 
Q 45.40625 17.390625 45.40625 27.296875 
Q 45.40625 37.203125 41.296875 42.84375 
Q 37.203125 48.484375 30.078125 48.484375 
Q 22.953125 48.484375 18.875 42.84375 
Q 14.796875 37.203125 14.796875 27.296875 
z
" id="DejaVuSans-64"/>
     </defs>
     <g transform="translate(43.017187 364.812344)rotate(-90)scale(0.1 -0.1)">
      <use xlink:href="#DejaVuSans-43"/>
      <use x="69.824219" xlink:href="#DejaVuSans-75"/>
      <use x="133.203125" xlink:href="#DejaVuSans-6d"/>
      <use x="230.615234" xlink:href="#DejaVuSans-75"/>
      <use x="293.994141" xlink:href="#DejaVuSans-6c"/>
      <use x="321.777344" xlink:href="#DejaVuSans-61"/>
      <use x="383.056641" xlink:href="#DejaVuSans-74"/>
      <use x="422.265625" xlink:href="#DejaVuSans-69"/>
      <use x="450.048828" xlink:href="#DejaVuSans-76"/>
      <use x="509.228516" xlink:href="#DejaVuSans-65"/>
      <use x="570.751953" xlink:href="#DejaVuSans-20"/>
      <use x="602.539062" xlink:href="#DejaVuSans-56"/>
      <use x="670.837891" xlink:href="#DejaVuSans-61"/>
      <use x="732.117188" xlink:href="#DejaVuSans-72"/>
      <use x="773.230469" xlink:href="#DejaVuSans-69"/>
      <use x="801.013672" xlink:href="#DejaVuSans-61"/>
      <use x="862.292969" xlink:href="#DejaVuSans-6e"/>
      <use x="925.671875" xlink:href="#DejaVuSans-63"/>
      <use x="980.652344" xlink:href="#DejaVuSans-65"/>
      <use x="1042.175781" xlink:href="#DejaVuSans-20"/>
      <use x="1073.962891" xlink:href="#DejaVuSans-45"/>
      <use x="1137.146484" xlink:href="#DejaVuSans-78"/>
      <use x="1196.326172" xlink:href="#DejaVuSans-70"/>
      <use x="1259.802734" xlink:href="#DejaVuSans-6c"/>
      <use x="1287.585938" xlink:href="#DejaVuSans-61"/>
      <use x="1348.865234" xlink:href="#DejaVuSans-69"/>
      <use x="1376.648438" xlink:href="#DejaVuSans-6e"/>
      <use x="1440.027344" xlink:href="#DejaVuSans-65"/>
      <use x="1501.550781" xlink:href="#DejaVuSans-64"/>
     </g>
    </g>
   </g>
   <g id="line2d_14">
    <path clip-path="url(#p2d4cbc27fe)" d="M 86.4 304.355579 
L 100.8 207.558582 
L 115.2 127.706666 
L 129.6 106.526004 
L 144 96.486106 
L 158.4 93.9095 
L 172.8 92.014552 
L 187.2 90.824428 
L 201.6 90.252518 
L 216 89.789851 
L 230.4 89.468848 
L 244.8 89.239275 
L 259.2 89.151003 
L 273.6 89.092525 
L 288 89.047425 
L 302.4 89.010665 
L 316.8 88.981619 
L 331.2 88.959105 
L 345.6 88.940159 
L 360 88.928203 
L 374.4 88.918898 
L 388.8 88.91186 
L 403.2 88.905424 
L 417.6 88.899711 
L 432 88.896095 
L 446.4 88.893781 
L 460.8 88.891587 
L 475.2 88.889972 
L 489.6 88.888526 
L 504 88.887321 
" style="fill:none;stroke:#000000;stroke-linecap:square;stroke-width:1.5;"/>
    <defs>
     <path d="M 0 3 
C 0.795609 3 1.55874 2.683901 2.12132 2.12132 
C 2.683901 1.55874 3 0.795609 3 0 
C 3 -0.795609 2.683901 -1.55874 2.12132 -2.12132 
C 1.55874 -2.683901 0.795609 -3 0 -3 
C -0.795609 -3 -1.55874 -2.683901 -2.12132 -2.12132 
C -2.683901 -1.55874 -3 -0.795609 -3 0 
C -3 0.795609 -2.683901 1.55874 -2.12132 2.12132 
C -1.55874 2.683901 -0.795609 3 0 3 
z
" id="meac80cd5c6" style="stroke:#000000;"/>
    </defs>
    <g clip-path="url(#p2d4cbc27fe)">
     <use style="stroke:#000000;" x="86.4" xlink:href="#meac80cd5c6" y="304.355579"/>
     <use style="stroke:#000000;" x="100.8" xlink:href="#meac80cd5c6" y="207.558582"/>
     <use style="stroke:#000000;" x="115.2" xlink:href="#meac80cd5c6" y="127.706666"/>
     <use style="stroke:#000000;" x="129.6" xlink:href="#meac80cd5c6" y="106.526004"/>
     <use style="stroke:#000000;" x="144" xlink:href="#meac80cd5c6" y="96.486106"/>
     <use style="stroke:#000000;" x="158.4" xlink:href="#meac80cd5c6" y="93.9095"/>
     <use style="stroke:#000000;" x="172.8" xlink:href="#meac80cd5c6" y="92.014552"/>
     <use style="stroke:#000000;" x="187.2" xlink:href="#meac80cd5c6" y="90.824428"/>
     <use style="stroke:#000000;" x="201.6" xlink:href="#meac80cd5c6" y="90.252518"/>
     <use style="stroke:#000000;" x="216" xlink:href="#meac80cd5c6" y="89.789851"/>
     <use style="stroke:#000000;" x="230.4" xlink:href="#meac80cd5c6" y="89.468848"/>
     <use style="stroke:#000000;" x="244.8" xlink:href="#meac80cd5c6" y="89.239275"/>
     <use style="stroke:#000000;" x="259.2" xlink:href="#meac80cd5c6" y="89.151003"/>
     <use style="stroke:#000000;" x="273.6" xlink:href="#meac80cd5c6" y="89.092525"/>
     <use style="stroke:#000000;" x="288" xlink:href="#meac80cd5c6" y="89.047425"/>
     <use style="stroke:#000000;" x="302.4" xlink:href="#meac80cd5c6" y="89.010665"/>
     <use style="stroke:#000000;" x="316.8" xlink:href="#meac80cd5c6" y="88.981619"/>
     <use style="stroke:#000000;" x="331.2" xlink:href="#meac80cd5c6" y="88.959105"/>
     <use style="stroke:#000000;" x="345.6" xlink:href="#meac80cd5c6" y="88.940159"/>
     <use style="stroke:#000000;" x="360" xlink:href="#meac80cd5c6" y="88.928203"/>
     <use style="stroke:#000000;" x="374.4" xlink:href="#meac80cd5c6" y="88.918898"/>
     <use style="stroke:#000000;" x="388.8" xlink:href="#meac80cd5c6" y="88.91186"/>
     <use style="stroke:#000000;" x="403.2" xlink:href="#meac80cd5c6" y="88.905424"/>
     <use style="stroke:#000000;" x="417.6" xlink:href="#meac80cd5c6" y="88.899711"/>
     <use style="stroke:#000000;" x="432" xlink:href="#meac80cd5c6" y="88.896095"/>
     <use style="stroke:#000000;" x="446.4" xlink:href="#meac80cd5c6" y="88.893781"/>
     <use style="stroke:#000000;" x="460.8" xlink:href="#meac80cd5c6" y="88.891587"/>
     <use style="stroke:#000000;" x="475.2" xlink:href="#meac80cd5c6" y="88.889972"/>
     <use style="stroke:#000000;" x="489.6" xlink:href="#meac80cd5c6" y="88.888526"/>
     <use style="stroke:#000000;" x="504" xlink:href="#meac80cd5c6" y="88.887321"/>
    </g>
   </g>
   <g id="line2d_15">
    <path clip-path="url(#p2d4cbc27fe)" d="M 86.4 304.004493 
L 100.8 217.125906 
L 115.2 135.977033 
L 129.6 111.439037 
L 144 101.201576 
L 158.4 97.839251 
L 172.8 94.993539 
L 187.2 93.928856 
L 201.6 93.389488 
L 216 92.847637 
L 230.4 92.329746 
L 244.8 91.914445 
L 259.2 91.404099 
L 273.6 91.198534 
L 288 91.093533 
L 302.4 90.600519 
L 316.8 90.513067 
L 331.2 90.411031 
L 345.6 90.322253 
L 360 90.19163 
L 374.4 89.974277 
L 388.8 89.8525 
L 403.2 89.749163 
L 417.6 89.647392 
L 432 89.267091 
L 446.4 89.119498 
L 460.8 89.047304 
L 475.2 88.972917 
L 489.6 88.917862 
L 504 88.887273 
" style="fill:none;stroke:#0000ff;stroke-linecap:square;stroke-width:1.5;"/>
    <defs>
     <path d="M 0 3 
C 0.795609 3 1.55874 2.683901 2.12132 2.12132 
C 2.683901 1.55874 3 0.795609 3 0 
C 3 -0.795609 2.683901 -1.55874 2.12132 -2.12132 
C 1.55874 -2.683901 0.795609 -3 0 -3 
C -0.795609 -3 -1.55874 -2.683901 -2.12132 -2.12132 
C -2.683901 -1.55874 -3 -0.795609 -3 0 
C -3 0.795609 -2.683901 1.55874 -2.12132 2.12132 
C -1.55874 2.683901 -0.795609 3 0 3 
z
" id="mad733d74b4" style="stroke:#0000ff;"/>
    </defs>
    <g clip-path="url(#p2d4cbc27fe)">
     <use style="fill:#0000ff;stroke:#0000ff;" x="86.4" xlink:href="#mad733d74b4" y="304.004493"/>
     <use style="fill:#0000ff;stroke:#0000ff;" x="100.8" xlink:href="#mad733d74b4" y="217.125906"/>
     <use style="fill:#0000ff;stroke:#0000ff;" x="115.2" xlink:href="#mad733d74b4" y="135.977033"/>
     <use style="fill:#0000ff;stroke:#0000ff;" x="129.6" xlink:href="#mad733d74b4" y="111.439037"/>
     <use style="fill:#0000ff;stroke:#0000ff;" x="144" xlink:href="#mad733d74b4" y="101.201576"/>
     <use style="fill:#0000ff;stroke:#0000ff;" x="158.4" xlink:href="#mad733d74b4" y="97.839251"/>
     <use style="fill:#0000ff;stroke:#0000ff;" x="172.8" xlink:href="#mad733d74b4" y="94.993539"/>
     <use style="fill:#0000ff;stroke:#0000ff;" x="187.2" xlink:href="#mad733d74b4" y="93.928856"/>
     <use style="fill:#0000ff;stroke:#0000ff;" x="201.6" xlink:href="#mad733d74b4" y="93.389488"/>
     <use style="fill:#0000ff;stroke:#0000ff;" x="216" xlink:href="#mad733d74b4" y="92.847637"/>
     <use style="fill:#0000ff;stroke:#0000ff;" x="230.4" xlink:href="#mad733d74b4" y="92.329746"/>
     <use style="fill:#0000ff;stroke:#0000ff;" x="244.8" xlink:href="#mad733d74b4" y="91.914445"/>
     <use style="fill:#0000ff;stroke:#0000ff;" x="259.2" xlink:href="#mad733d74b4" y="91.404099"/>
     <use style="fill:#0000ff;stroke:#0000ff;" x="273.6" xlink:href="#mad733d74b4" y="91.198534"/>
     <use style="fill:#0000ff;stroke:#0000ff;" x="288" xlink:href="#mad733d74b4" y="91.093533"/>
     <use style="fill:#0000ff;stroke:#0000ff;" x="302.4" xlink:href="#mad733d74b4" y="90.600519"/>
     <use style="fill:#0000ff;stroke:#0000ff;" x="316.8" xlink:href="#mad733d74b4" y="90.513067"/>
     <use style="fill:#0000ff;stroke:#0000ff;" x="331.2" xlink:href="#mad733d74b4" y="90.411031"/>
     <use style="fill:#0000ff;stroke:#0000ff;" x="345.6" xlink:href="#mad733d74b4" y="90.322253"/>
     <use style="fill:#0000ff;stroke:#0000ff;" x="360" xlink:href="#mad733d74b4" y="90.19163"/>
     <use style="fill:#0000ff;stroke:#0000ff;" x="374.4" xlink:href="#mad733d74b4" y="89.974277"/>
     <use style="fill:#0000ff;stroke:#0000ff;" x="388.8" xlink:href="#mad733d74b4" y="89.8525"/>
     <use style="fill:#0000ff;stroke:#0000ff;" x="403.2" xlink:href="#mad733d74b4" y="89.749163"/>
     <use style="fill:#0000ff;stroke:#0000ff;" x="417.6" xlink:href="#mad733d74b4" y="89.647392"/>
     <use style="fill:#0000ff;stroke:#0000ff;" x="432" xlink:href="#mad733d74b4" y="89.267091"/>
     <use style="fill:#0000ff;stroke:#0000ff;" x="446.4" xlink:href="#mad733d74b4" y="89.119498"/>
     <use style="fill:#0000ff;stroke:#0000ff;" x="460.8" xlink:href="#mad733d74b4" y="89.047304"/>
     <use style="fill:#0000ff;stroke:#0000ff;" x="475.2" xlink:href="#mad733d74b4" y="88.972917"/>
     <use style="fill:#0000ff;stroke:#0000ff;" x="489.6" xlink:href="#mad733d74b4" y="88.917862"/>
     <use style="fill:#0000ff;stroke:#0000ff;" x="504" xlink:href="#mad733d74b4" y="88.887273"/>
    </g>
   </g>
   <g id="line2d_16">
    <path clip-path="url(#p2d4cbc27fe)" d="M 86.4 346.783298 
L 100.8 269.047033 
L 115.2 195.813513 
L 129.6 166.764647 
L 144 147.116519 
L 158.4 143.582809 
L 172.8 139.662218 
L 187.2 131.414267 
L 201.6 129.095486 
L 216 125.22455 
L 230.4 122.908299 
L 244.8 116.540713 
L 259.2 115.440138 
L 273.6 114.816162 
L 288 113.820057 
L 302.4 112.837089 
L 316.8 112.331443 
L 331.2 111.479653 
L 345.6 109.727358 
L 360 108.170021 
L 374.4 106.064929 
L 388.8 105.453825 
L 403.2 104.496552 
L 417.6 102.312637 
L 432 100.810789 
L 446.4 98.186769 
L 460.8 96.274539 
L 475.2 94.679888 
L 489.6 89.555601 
L 504 88.887321 
" style="fill:none;stroke:#008000;stroke-linecap:square;stroke-width:1.5;"/>
    <defs>
     <path d="M 0 3 
C 0.795609 3 1.55874 2.683901 2.12132 2.12132 
C 2.683901 1.55874 3 0.795609 3 0 
C 3 -0.795609 2.683901 -1.55874 2.12132 -2.12132 
C 1.55874 -2.683901 0.795609 -3 0 -3 
C -0.795609 -3 -1.55874 -2.683901 -2.12132 -2.12132 
C -2.683901 -1.55874 -3 -0.795609 -3 0 
C -3 0.795609 -2.683901 1.55874 -2.12132 2.12132 
C -1.55874 2.683901 -0.795609 3 0 3 
z
" id="mde41057dbe" style="stroke:#008000;"/>
    </defs>
    <g clip-path="url(#p2d4cbc27fe)">
     <use style="fill:#008000;stroke:#008000;" x="86.4" xlink:href="#mde41057dbe" y="346.783298"/>
     <use style="fill:#008000;stroke:#008000;" x="100.8" xlink:href="#mde41057dbe" y="269.047033"/>
     <use style="fill:#008000;stroke:#008000;" x="115.2" xlink:href="#mde41057dbe" y="195.813513"/>
     <use style="fill:#008000;stroke:#008000;" x="129.6" xlink:href="#mde41057dbe" y="166.764647"/>
     <use style="fill:#008000;stroke:#008000;" x="144" xlink:href="#mde41057dbe" y="147.116519"/>
     <use style="fill:#008000;stroke:#008000;" x="158.4" xlink:href="#mde41057dbe" y="143.582809"/>
     <use style="fill:#008000;stroke:#008000;" x="172.8" xlink:href="#mde41057dbe" y="139.662218"/>
     <use style="fill:#008000;stroke:#008000;" x="187.2" xlink:href="#mde41057dbe" y="131.414267"/>
     <use style="fill:#008000;stroke:#008000;" x="201.6" xlink:href="#mde41057dbe" y="129.095486"/>
     <use style="fill:#008000;stroke:#008000;" x="216" xlink:href="#mde41057dbe" y="125.22455"/>
     <use style="fill:#008000;stroke:#008000;" x="230.4" xlink:href="#mde41057dbe" y="122.908299"/>
     <use style="fill:#008000;stroke:#008000;" x="244.8" xlink:href="#mde41057dbe" y="116.540713"/>
     <use style="fill:#008000;stroke:#008000;" x="259.2" xlink:href="#mde41057dbe" y="115.440138"/>
     <use style="fill:#008000;stroke:#008000;" x="273.6" xlink:href="#mde41057dbe" y="114.816162"/>
     <use style="fill:#008000;stroke:#008000;" x="288" xlink:href="#mde41057dbe" y="113.820057"/>
     <use style="fill:#008000;stroke:#008000;" x="302.4" xlink:href="#mde41057dbe" y="112.837089"/>
     <use style="fill:#008000;stroke:#008000;" x="316.8" xlink:href="#mde41057dbe" y="112.331443"/>
     <use style="fill:#008000;stroke:#008000;" x="331.2" xlink:href="#mde41057dbe" y="111.479653"/>
     <use style="fill:#008000;stroke:#008000;" x="345.6" xlink:href="#mde41057dbe" y="109.727358"/>
     <use style="fill:#008000;stroke:#008000;" x="360" xlink:href="#mde41057dbe" y="108.170021"/>
     <use style="fill:#008000;stroke:#008000;" x="374.4" xlink:href="#mde41057dbe" y="106.064929"/>
     <use style="fill:#008000;stroke:#008000;" x="388.8" xlink:href="#mde41057dbe" y="105.453825"/>
     <use style="fill:#008000;stroke:#008000;" x="403.2" xlink:href="#mde41057dbe" y="104.496552"/>
     <use style="fill:#008000;stroke:#008000;" x="417.6" xlink:href="#mde41057dbe" y="102.312637"/>
     <use style="fill:#008000;stroke:#008000;" x="432" xlink:href="#mde41057dbe" y="100.810789"/>
     <use style="fill:#008000;stroke:#008000;" x="446.4" xlink:href="#mde41057dbe" y="98.186769"/>
     <use style="fill:#008000;stroke:#008000;" x="460.8" xlink:href="#mde41057dbe" y="96.274539"/>
     <use style="fill:#008000;stroke:#008000;" x="475.2" xlink:href="#mde41057dbe" y="94.679888"/>
     <use style="fill:#008000;stroke:#008000;" x="489.6" xlink:href="#mde41057dbe" y="89.555601"/>
     <use style="fill:#008000;stroke:#008000;" x="504" xlink:href="#mde41057dbe" y="88.887321"/>
    </g>
   </g>
   <g id="line2d_17">
    <path clip-path="url(#p2d4cbc27fe)" d="M 86.4 484.232727 
L 100.8 482.201201 
L 115.2 480.854581 
L 129.6 452.48093 
L 144 388.962268 
L 158.4 386.82097 
L 172.8 381.280575 
L 187.2 376.602021 
L 201.6 343.650776 
L 216 331.941092 
L 230.4 310.794768 
L 244.8 306.489405 
L 259.2 298.808025 
L 273.6 282.284163 
L 288 280.830742 
L 302.4 275.444003 
L 316.8 261.678858 
L 331.2 252.103796 
L 345.6 246.02079 
L 360 223.009059 
L 374.4 214.873099 
L 388.8 189.371804 
L 403.2 186.466795 
L 417.6 148.960798 
L 432 134.588599 
L 446.4 123.673553 
L 460.8 111.388224 
L 475.2 100.456184 
L 489.6 92.907368 
L 504 88.887321 
" style="fill:none;stroke:#ff0000;stroke-linecap:square;stroke-width:1.5;"/>
    <defs>
     <path d="M 0 3 
C 0.795609 3 1.55874 2.683901 2.12132 2.12132 
C 2.683901 1.55874 3 0.795609 3 0 
C 3 -0.795609 2.683901 -1.55874 2.12132 -2.12132 
C 1.55874 -2.683901 0.795609 -3 0 -3 
C -0.795609 -3 -1.55874 -2.683901 -2.12132 -2.12132 
C -2.683901 -1.55874 -3 -0.795609 -3 0 
C -3 0.795609 -2.683901 1.55874 -2.12132 2.12132 
C -1.55874 2.683901 -0.795609 3 0 3 
z
" id="m2e492e6209" style="stroke:#ff0000;"/>
    </defs>
    <g clip-path="url(#p2d4cbc27fe)">
     <use style="fill:#ff0000;stroke:#ff0000;" x="86.4" xlink:href="#m2e492e6209" y="484.232727"/>
     <use style="fill:#ff0000;stroke:#ff0000;" x="100.8" xlink:href="#m2e492e6209" y="482.201201"/>
     <use style="fill:#ff0000;stroke:#ff0000;" x="115.2" xlink:href="#m2e492e6209" y="480.854581"/>
     <use style="fill:#ff0000;stroke:#ff0000;" x="129.6" xlink:href="#m2e492e6209" y="452.48093"/>
     <use style="fill:#ff0000;stroke:#ff0000;" x="144" xlink:href="#m2e492e6209" y="388.962268"/>
     <use style="fill:#ff0000;stroke:#ff0000;" x="158.4" xlink:href="#m2e492e6209" y="386.82097"/>
     <use style="fill:#ff0000;stroke:#ff0000;" x="172.8" xlink:href="#m2e492e6209" y="381.280575"/>
     <use style="fill:#ff0000;stroke:#ff0000;" x="187.2" xlink:href="#m2e492e6209" y="376.602021"/>
     <use style="fill:#ff0000;stroke:#ff0000;" x="201.6" xlink:href="#m2e492e6209" y="343.650776"/>
     <use style="fill:#ff0000;stroke:#ff0000;" x="216" xlink:href="#m2e492e6209" y="331.941092"/>
     <use style="fill:#ff0000;stroke:#ff0000;" x="230.4" xlink:href="#m2e492e6209" y="310.794768"/>
     <use style="fill:#ff0000;stroke:#ff0000;" x="244.8" xlink:href="#m2e492e6209" y="306.489405"/>
     <use style="fill:#ff0000;stroke:#ff0000;" x="259.2" xlink:href="#m2e492e6209" y="298.808025"/>
     <use style="fill:#ff0000;stroke:#ff0000;" x="273.6" xlink:href="#m2e492e6209" y="282.284163"/>
     <use style="fill:#ff0000;stroke:#ff0000;" x="288" xlink:href="#m2e492e6209" y="280.830742"/>
     <use style="fill:#ff0000;stroke:#ff0000;" x="302.4" xlink:href="#m2e492e6209" y="275.444003"/>
     <use style="fill:#ff0000;stroke:#ff0000;" x="316.8" xlink:href="#m2e492e6209" y="261.678858"/>
     <use style="fill:#ff0000;stroke:#ff0000;" x="331.2" xlink:href="#m2e492e6209" y="252.103796"/>
     <use style="fill:#ff0000;stroke:#ff0000;" x="345.6" xlink:href="#m2e492e6209" y="246.02079"/>
     <use style="fill:#ff0000;stroke:#ff0000;" x="360" xlink:href="#m2e492e6209" y="223.009059"/>
     <use style="fill:#ff0000;stroke:#ff0000;" x="374.4" xlink:href="#m2e492e6209" y="214.873099"/>
     <use style="fill:#ff0000;stroke:#ff0000;" x="388.8" xlink:href="#m2e492e6209" y="189.371804"/>
     <use style="fill:#ff0000;stroke:#ff0000;" x="403.2" xlink:href="#m2e492e6209" y="186.466795"/>
     <use style="fill:#ff0000;stroke:#ff0000;" x="417.6" xlink:href="#m2e492e6209" y="148.960798"/>
     <use style="fill:#ff0000;stroke:#ff0000;" x="432" xlink:href="#m2e492e6209" y="134.588599"/>
     <use style="fill:#ff0000;stroke:#ff0000;" x="446.4" xlink:href="#m2e492e6209" y="123.673553"/>
     <use style="fill:#ff0000;stroke:#ff0000;" x="460.8" xlink:href="#m2e492e6209" y="111.388224"/>
     <use style="fill:#ff0000;stroke:#ff0000;" x="475.2" xlink:href="#m2e492e6209" y="100.456184"/>
     <use style="fill:#ff0000;stroke:#ff0000;" x="489.6" xlink:href="#m2e492e6209" y="92.907368"/>
     <use style="fill:#ff0000;stroke:#ff0000;" x="504" xlink:href="#m2e492e6209" y="88.887321"/>
    </g>
   </g>
   <g id="line2d_18">
    <path clip-path="url(#p2d4cbc27fe)" d="M 86.4 303.703268 
L 100.8 212.446545 
L 115.2 134.241442 
L 129.6 107.44348 
L 144 97.367448 
L 158.4 94.189645 
L 172.8 92.200569 
L 187.2 91.016639 
L 201.6 90.463266 
L 216 90.020655 
L 230.4 89.711246 
L 244.8 89.433318 
L 259.2 89.220497 
L 273.6 89.140011 
L 288 89.062032 
L 302.4 89.009845 
L 316.8 88.979546 
L 331.2 88.957586 
L 345.6 88.94187 
L 360 88.928612 
L 374.4 88.918416 
L 388.8 88.911884 
L 403.2 88.90593 
L 417.6 88.901543 
L 432 88.897614 
L 446.4 88.894986 
L 460.8 88.89272 
L 475.2 88.890551 
L 489.6 88.88884 
L 504 88.887369 
" style="fill:none;stroke:#000000;stroke-linecap:square;stroke-width:1.5;"/>
    <g clip-path="url(#p2d4cbc27fe)">
     <use style="stroke:#000000;" x="86.4" xlink:href="#meac80cd5c6" y="303.703268"/>
     <use style="stroke:#000000;" x="100.8" xlink:href="#meac80cd5c6" y="212.446545"/>
     <use style="stroke:#000000;" x="115.2" xlink:href="#meac80cd5c6" y="134.241442"/>
     <use style="stroke:#000000;" x="129.6" xlink:href="#meac80cd5c6" y="107.44348"/>
     <use style="stroke:#000000;" x="144" xlink:href="#meac80cd5c6" y="97.367448"/>
     <use style="stroke:#000000;" x="158.4" xlink:href="#meac80cd5c6" y="94.189645"/>
     <use style="stroke:#000000;" x="172.8" xlink:href="#meac80cd5c6" y="92.200569"/>
     <use style="stroke:#000000;" x="187.2" xlink:href="#meac80cd5c6" y="91.016639"/>
     <use style="stroke:#000000;" x="201.6" xlink:href="#meac80cd5c6" y="90.463266"/>
     <use style="stroke:#000000;" x="216" xlink:href="#meac80cd5c6" y="90.020655"/>
     <use style="stroke:#000000;" x="230.4" xlink:href="#meac80cd5c6" y="89.711246"/>
     <use style="stroke:#000000;" x="244.8" xlink:href="#meac80cd5c6" y="89.433318"/>
     <use style="stroke:#000000;" x="259.2" xlink:href="#meac80cd5c6" y="89.220497"/>
     <use style="stroke:#000000;" x="273.6" xlink:href="#meac80cd5c6" y="89.140011"/>
     <use style="stroke:#000000;" x="288" xlink:href="#meac80cd5c6" y="89.062032"/>
     <use style="stroke:#000000;" x="302.4" xlink:href="#meac80cd5c6" y="89.009845"/>
     <use style="stroke:#000000;" x="316.8" xlink:href="#meac80cd5c6" y="88.979546"/>
     <use style="stroke:#000000;" x="331.2" xlink:href="#meac80cd5c6" y="88.957586"/>
     <use style="stroke:#000000;" x="345.6" xlink:href="#meac80cd5c6" y="88.94187"/>
     <use style="stroke:#000000;" x="360" xlink:href="#meac80cd5c6" y="88.928612"/>
     <use style="stroke:#000000;" x="374.4" xlink:href="#meac80cd5c6" y="88.918416"/>
     <use style="stroke:#000000;" x="388.8" xlink:href="#meac80cd5c6" y="88.911884"/>
     <use style="stroke:#000000;" x="403.2" xlink:href="#meac80cd5c6" y="88.90593"/>
     <use style="stroke:#000000;" x="417.6" xlink:href="#meac80cd5c6" y="88.901543"/>
     <use style="stroke:#000000;" x="432" xlink:href="#meac80cd5c6" y="88.897614"/>
     <use style="stroke:#000000;" x="446.4" xlink:href="#meac80cd5c6" y="88.894986"/>
     <use style="stroke:#000000;" x="460.8" xlink:href="#meac80cd5c6" y="88.89272"/>
     <use style="stroke:#000000;" x="475.2" xlink:href="#meac80cd5c6" y="88.890551"/>
     <use style="stroke:#000000;" x="489.6" xlink:href="#meac80cd5c6" y="88.88884"/>
     <use style="stroke:#000000;" x="504" xlink:href="#meac80cd5c6" y="88.887369"/>
    </g>
   </g>
   <g id="line2d_19">
    <path clip-path="url(#p2d4cbc27fe)" d="M 86.4 305.088412 
L 100.8 213.484593 
L 115.2 130.827292 
L 129.6 111.540349 
L 144 101.693144 
L 158.4 98.393082 
L 172.8 96.289146 
L 187.2 94.748731 
L 201.6 94.155176 
L 216 93.564657 
L 230.4 92.986408 
L 244.8 92.036343 
L 259.2 91.12957 
L 273.6 91.035634 
L 288 90.903299 
L 302.4 90.698601 
L 316.8 90.570412 
L 331.2 90.366751 
L 345.6 90.285614 
L 360 90.190858 
L 374.4 90.068044 
L 388.8 90.034467 
L 403.2 89.692348 
L 417.6 89.626084 
L 432 89.325497 
L 446.4 89.256654 
L 460.8 89.224884 
L 475.2 89.140879 
L 489.6 89.097731 
L 504 88.887273 
" style="fill:none;stroke:#0000ff;stroke-linecap:square;stroke-width:1.5;"/>
    <g clip-path="url(#p2d4cbc27fe)">
     <use style="fill:#0000ff;stroke:#0000ff;" x="86.4" xlink:href="#mad733d74b4" y="305.088412"/>
     <use style="fill:#0000ff;stroke:#0000ff;" x="100.8" xlink:href="#mad733d74b4" y="213.484593"/>
     <use style="fill:#0000ff;stroke:#0000ff;" x="115.2" xlink:href="#mad733d74b4" y="130.827292"/>
     <use style="fill:#0000ff;stroke:#0000ff;" x="129.6" xlink:href="#mad733d74b4" y="111.540349"/>
     <use style="fill:#0000ff;stroke:#0000ff;" x="144" xlink:href="#mad733d74b4" y="101.693144"/>
     <use style="fill:#0000ff;stroke:#0000ff;" x="158.4" xlink:href="#mad733d74b4" y="98.393082"/>
     <use style="fill:#0000ff;stroke:#0000ff;" x="172.8" xlink:href="#mad733d74b4" y="96.289146"/>
     <use style="fill:#0000ff;stroke:#0000ff;" x="187.2" xlink:href="#mad733d74b4" y="94.748731"/>
     <use style="fill:#0000ff;stroke:#0000ff;" x="201.6" xlink:href="#mad733d74b4" y="94.155176"/>
     <use style="fill:#0000ff;stroke:#0000ff;" x="216" xlink:href="#mad733d74b4" y="93.564657"/>
     <use style="fill:#0000ff;stroke:#0000ff;" x="230.4" xlink:href="#mad733d74b4" y="92.986408"/>
     <use style="fill:#0000ff;stroke:#0000ff;" x="244.8" xlink:href="#mad733d74b4" y="92.036343"/>
     <use style="fill:#0000ff;stroke:#0000ff;" x="259.2" xlink:href="#mad733d74b4" y="91.12957"/>
     <use style="fill:#0000ff;stroke:#0000ff;" x="273.6" xlink:href="#mad733d74b4" y="91.035634"/>
     <use style="fill:#0000ff;stroke:#0000ff;" x="288" xlink:href="#mad733d74b4" y="90.903299"/>
     <use style="fill:#0000ff;stroke:#0000ff;" x="302.4" xlink:href="#mad733d74b4" y="90.698601"/>
     <use style="fill:#0000ff;stroke:#0000ff;" x="316.8" xlink:href="#mad733d74b4" y="90.570412"/>
     <use style="fill:#0000ff;stroke:#0000ff;" x="331.2" xlink:href="#mad733d74b4" y="90.366751"/>
     <use style="fill:#0000ff;stroke:#0000ff;" x="345.6" xlink:href="#mad733d74b4" y="90.285614"/>
     <use style="fill:#0000ff;stroke:#0000ff;" x="360" xlink:href="#mad733d74b4" y="90.190858"/>
     <use style="fill:#0000ff;stroke:#0000ff;" x="374.4" xlink:href="#mad733d74b4" y="90.068044"/>
     <use style="fill:#0000ff;stroke:#0000ff;" x="388.8" xlink:href="#mad733d74b4" y="90.034467"/>
     <use style="fill:#0000ff;stroke:#0000ff;" x="403.2" xlink:href="#mad733d74b4" y="89.692348"/>
     <use style="fill:#0000ff;stroke:#0000ff;" x="417.6" xlink:href="#mad733d74b4" y="89.626084"/>
     <use style="fill:#0000ff;stroke:#0000ff;" x="432" xlink:href="#mad733d74b4" y="89.325497"/>
     <use style="fill:#0000ff;stroke:#0000ff;" x="446.4" xlink:href="#mad733d74b4" y="89.256654"/>
     <use style="fill:#0000ff;stroke:#0000ff;" x="460.8" xlink:href="#mad733d74b4" y="89.224884"/>
     <use style="fill:#0000ff;stroke:#0000ff;" x="475.2" xlink:href="#mad733d74b4" y="89.140879"/>
     <use style="fill:#0000ff;stroke:#0000ff;" x="489.6" xlink:href="#mad733d74b4" y="89.097731"/>
     <use style="fill:#0000ff;stroke:#0000ff;" x="504" xlink:href="#mad733d74b4" y="88.887273"/>
    </g>
   </g>
   <g id="line2d_20">
    <path clip-path="url(#p2d4cbc27fe)" d="M 86.4 483.052081 
L 100.8 481.279925 
L 115.2 479.161256 
L 129.6 452.227999 
L 144 386.361533 
L 158.4 382.470639 
L 172.8 378.360524 
L 187.2 370.221129 
L 201.6 348.008579 
L 216 335.140698 
L 230.4 300.577652 
L 244.8 289.657785 
L 259.2 273.285301 
L 273.6 257.936328 
L 288 253.627024 
L 302.4 244.409194 
L 316.8 228.531484 
L 331.2 219.019649 
L 345.6 184.085992 
L 360 177.097804 
L 374.4 166.16738 
L 388.8 150.933749 
L 403.2 146.619334 
L 417.6 139.096262 
L 432 133.030106 
L 446.4 130.942272 
L 460.8 125.264901 
L 475.2 113.005268 
L 489.6 102.853234 
L 504 88.887321 
" style="fill:none;stroke:#008000;stroke-linecap:square;stroke-width:1.5;"/>
    <g clip-path="url(#p2d4cbc27fe)">
     <use style="fill:#008000;stroke:#008000;" x="86.4" xlink:href="#mde41057dbe" y="483.052081"/>
     <use style="fill:#008000;stroke:#008000;" x="100.8" xlink:href="#mde41057dbe" y="481.279925"/>
     <use style="fill:#008000;stroke:#008000;" x="115.2" xlink:href="#mde41057dbe" y="479.161256"/>
     <use style="fill:#008000;stroke:#008000;" x="129.6" xlink:href="#mde41057dbe" y="452.227999"/>
     <use style="fill:#008000;stroke:#008000;" x="144" xlink:href="#mde41057dbe" y="386.361533"/>
     <use style="fill:#008000;stroke:#008000;" x="158.4" xlink:href="#mde41057dbe" y="382.470639"/>
     <use style="fill:#008000;stroke:#008000;" x="172.8" xlink:href="#mde41057dbe" y="378.360524"/>
     <use style="fill:#008000;stroke:#008000;" x="187.2" xlink:href="#mde41057dbe" y="370.221129"/>
     <use style="fill:#008000;stroke:#008000;" x="201.6" xlink:href="#mde41057dbe" y="348.008579"/>
     <use style="fill:#008000;stroke:#008000;" x="216" xlink:href="#mde41057dbe" y="335.140698"/>
     <use style="fill:#008000;stroke:#008000;" x="230.4" xlink:href="#mde41057dbe" y="300.577652"/>
     <use style="fill:#008000;stroke:#008000;" x="244.8" xlink:href="#mde41057dbe" y="289.657785"/>
     <use style="fill:#008000;stroke:#008000;" x="259.2" xlink:href="#mde41057dbe" y="273.285301"/>
     <use style="fill:#008000;stroke:#008000;" x="273.6" xlink:href="#mde41057dbe" y="257.936328"/>
     <use style="fill:#008000;stroke:#008000;" x="288" xlink:href="#mde41057dbe" y="253.627024"/>
     <use style="fill:#008000;stroke:#008000;" x="302.4" xlink:href="#mde41057dbe" y="244.409194"/>
     <use style="fill:#008000;stroke:#008000;" x="316.8" xlink:href="#mde41057dbe" y="228.531484"/>
     <use style="fill:#008000;stroke:#008000;" x="331.2" xlink:href="#mde41057dbe" y="219.019649"/>
     <use style="fill:#008000;stroke:#008000;" x="345.6" xlink:href="#mde41057dbe" y="184.085992"/>
     <use style="fill:#008000;stroke:#008000;" x="360" xlink:href="#mde41057dbe" y="177.097804"/>
     <use style="fill:#008000;stroke:#008000;" x="374.4" xlink:href="#mde41057dbe" y="166.16738"/>
     <use style="fill:#008000;stroke:#008000;" x="388.8" xlink:href="#mde41057dbe" y="150.933749"/>
     <use style="fill:#008000;stroke:#008000;" x="403.2" xlink:href="#mde41057dbe" y="146.619334"/>
     <use style="fill:#008000;stroke:#008000;" x="417.6" xlink:href="#mde41057dbe" y="139.096262"/>
     <use style="fill:#008000;stroke:#008000;" x="432" xlink:href="#mde41057dbe" y="133.030106"/>
     <use style="fill:#008000;stroke:#008000;" x="446.4" xlink:href="#mde41057dbe" y="130.942272"/>
     <use style="fill:#008000;stroke:#008000;" x="460.8" xlink:href="#mde41057dbe" y="125.264901"/>
     <use style="fill:#008000;stroke:#008000;" x="475.2" xlink:href="#mde41057dbe" y="113.005268"/>
     <use style="fill:#008000;stroke:#008000;" x="489.6" xlink:href="#mde41057dbe" y="102.853234"/>
     <use style="fill:#008000;stroke:#008000;" x="504" xlink:href="#mde41057dbe" y="88.887321"/>
    </g>
   </g>
   <g id="line2d_21">
    <path clip-path="url(#p2d4cbc27fe)" d="M 86.4 348.184532 
L 100.8 279.815353 
L 115.2 197.403728 
L 129.6 171.595844 
L 144 150.07251 
L 158.4 140.369283 
L 172.8 138.167264 
L 187.2 133.98786 
L 201.6 131.394815 
L 216 130.64817 
L 230.4 126.321269 
L 244.8 121.333945 
L 259.2 115.45031 
L 273.6 114.22116 
L 288 113.121212 
L 302.4 110.505484 
L 316.8 108.987004 
L 331.2 107.827734 
L 345.6 105.759425 
L 360 103.597927 
L 374.4 102.292943 
L 388.8 100.693399 
L 403.2 97.845687 
L 417.6 96.091583 
L 432 94.4305 
L 446.4 92.896256 
L 460.8 90.90219 
L 475.2 90.421734 
L 489.6 89.597423 
L 504 88.887321 
" style="fill:none;stroke:#ff0000;stroke-linecap:square;stroke-width:1.5;"/>
    <g clip-path="url(#p2d4cbc27fe)">
     <use style="fill:#ff0000;stroke:#ff0000;" x="86.4" xlink:href="#m2e492e6209" y="348.184532"/>
     <use style="fill:#ff0000;stroke:#ff0000;" x="100.8" xlink:href="#m2e492e6209" y="279.815353"/>
     <use style="fill:#ff0000;stroke:#ff0000;" x="115.2" xlink:href="#m2e492e6209" y="197.403728"/>
     <use style="fill:#ff0000;stroke:#ff0000;" x="129.6" xlink:href="#m2e492e6209" y="171.595844"/>
     <use style="fill:#ff0000;stroke:#ff0000;" x="144" xlink:href="#m2e492e6209" y="150.07251"/>
     <use style="fill:#ff0000;stroke:#ff0000;" x="158.4" xlink:href="#m2e492e6209" y="140.369283"/>
     <use style="fill:#ff0000;stroke:#ff0000;" x="172.8" xlink:href="#m2e492e6209" y="138.167264"/>
     <use style="fill:#ff0000;stroke:#ff0000;" x="187.2" xlink:href="#m2e492e6209" y="133.98786"/>
     <use style="fill:#ff0000;stroke:#ff0000;" x="201.6" xlink:href="#m2e492e6209" y="131.394815"/>
     <use style="fill:#ff0000;stroke:#ff0000;" x="216" xlink:href="#m2e492e6209" y="130.64817"/>
     <use style="fill:#ff0000;stroke:#ff0000;" x="230.4" xlink:href="#m2e492e6209" y="126.321269"/>
     <use style="fill:#ff0000;stroke:#ff0000;" x="244.8" xlink:href="#m2e492e6209" y="121.333945"/>
     <use style="fill:#ff0000;stroke:#ff0000;" x="259.2" xlink:href="#m2e492e6209" y="115.45031"/>
     <use style="fill:#ff0000;stroke:#ff0000;" x="273.6" xlink:href="#m2e492e6209" y="114.22116"/>
     <use style="fill:#ff0000;stroke:#ff0000;" x="288" xlink:href="#m2e492e6209" y="113.121212"/>
     <use style="fill:#ff0000;stroke:#ff0000;" x="302.4" xlink:href="#m2e492e6209" y="110.505484"/>
     <use style="fill:#ff0000;stroke:#ff0000;" x="316.8" xlink:href="#m2e492e6209" y="108.987004"/>
     <use style="fill:#ff0000;stroke:#ff0000;" x="331.2" xlink:href="#m2e492e6209" y="107.827734"/>
     <use style="fill:#ff0000;stroke:#ff0000;" x="345.6" xlink:href="#m2e492e6209" y="105.759425"/>
     <use style="fill:#ff0000;stroke:#ff0000;" x="360" xlink:href="#m2e492e6209" y="103.597927"/>
     <use style="fill:#ff0000;stroke:#ff0000;" x="374.4" xlink:href="#m2e492e6209" y="102.292943"/>
     <use style="fill:#ff0000;stroke:#ff0000;" x="388.8" xlink:href="#m2e492e6209" y="100.693399"/>
     <use style="fill:#ff0000;stroke:#ff0000;" x="403.2" xlink:href="#m2e492e6209" y="97.845687"/>
     <use style="fill:#ff0000;stroke:#ff0000;" x="417.6" xlink:href="#m2e492e6209" y="96.091583"/>
     <use style="fill:#ff0000;stroke:#ff0000;" x="432" xlink:href="#m2e492e6209" y="94.4305"/>
     <use style="fill:#ff0000;stroke:#ff0000;" x="446.4" xlink:href="#m2e492e6209" y="92.896256"/>
     <use style="fill:#ff0000;stroke:#ff0000;" x="460.8" xlink:href="#m2e492e6209" y="90.90219"/>
     <use style="fill:#ff0000;stroke:#ff0000;" x="475.2" xlink:href="#m2e492e6209" y="90.421734"/>
     <use style="fill:#ff0000;stroke:#ff0000;" x="489.6" xlink:href="#m2e492e6209" y="89.597423"/>
     <use style="fill:#ff0000;stroke:#ff0000;" x="504" xlink:href="#m2e492e6209" y="88.887321"/>
    </g>
   </g>
   <g id="patch_3">
    <path d="M 72 504 
L 72 69.12 
" style="fill:none;stroke:#000000;stroke-linecap:square;stroke-linejoin:miter;stroke-width:0.8;"/>
   </g>
   <g id="patch_4">
    <path d="M 518.4 504 
L 518.4 69.12 
" style="fill:none;stroke:#000000;stroke-linecap:square;stroke-linejoin:miter;stroke-width:0.8;"/>
   </g>
   <g id="patch_5">
    <path d="M 72 504 
L 518.4 504 
" style="fill:none;stroke:#000000;stroke-linecap:square;stroke-linejoin:miter;stroke-width:0.8;"/>
   </g>
   <g id="patch_6">
    <path d="M 72 69.12 
L 518.4 69.12 
" style="fill:none;stroke:#000000;stroke-linecap:square;stroke-linejoin:miter;stroke-width:0.8;"/>
   </g>
   <g id="text_16">
    <!-- stepnet/lowD/grad_norm_both/ -->
    <defs>
     <path d="M 25.390625 72.90625 
L 33.6875 72.90625 
L 8.296875 -9.28125 
L 0 -9.28125 
z
" id="DejaVuSans-2f"/>
     <path d="M 4.203125 54.6875 
L 13.1875 54.6875 
L 24.421875 12.015625 
L 35.59375 54.6875 
L 46.1875 54.6875 
L 57.421875 12.015625 
L 68.609375 54.6875 
L 77.59375 54.6875 
L 63.28125 0 
L 52.6875 0 
L 40.921875 44.828125 
L 29.109375 0 
L 18.5 0 
z
" id="DejaVuSans-77"/>
     <path d="M 19.671875 64.796875 
L 19.671875 8.109375 
L 31.59375 8.109375 
Q 46.6875 8.109375 53.6875 14.9375 
Q 60.6875 21.78125 60.6875 36.53125 
Q 60.6875 51.171875 53.6875 57.984375 
Q 46.6875 64.796875 31.59375 64.796875 
z
M 9.8125 72.90625 
L 30.078125 72.90625 
Q 51.265625 72.90625 61.171875 64.09375 
Q 71.09375 55.28125 71.09375 36.53125 
Q 71.09375 17.671875 61.125 8.828125 
Q 51.171875 0 30.078125 0 
L 9.8125 0 
z
" id="DejaVuSans-44"/>
     <path d="M 45.40625 27.984375 
Q 45.40625 37.75 41.375 43.109375 
Q 37.359375 48.484375 30.078125 48.484375 
Q 22.859375 48.484375 18.828125 43.109375 
Q 14.796875 37.75 14.796875 27.984375 
Q 14.796875 18.265625 18.828125 12.890625 
Q 22.859375 7.515625 30.078125 7.515625 
Q 37.359375 7.515625 41.375 12.890625 
Q 45.40625 18.265625 45.40625 27.984375 
z
M 54.390625 6.78125 
Q 54.390625 -7.171875 48.1875 -13.984375 
Q 42 -20.796875 29.203125 -20.796875 
Q 24.46875 -20.796875 20.265625 -20.09375 
Q 16.0625 -19.390625 12.109375 -17.921875 
L 12.109375 -9.1875 
Q 16.0625 -11.328125 19.921875 -12.34375 
Q 23.78125 -13.375 27.78125 -13.375 
Q 36.625 -13.375 41.015625 -8.765625 
Q 45.40625 -4.15625 45.40625 5.171875 
L 45.40625 9.625 
Q 42.625 4.78125 38.28125 2.390625 
Q 33.9375 0 27.875 0 
Q 17.828125 0 11.671875 7.65625 
Q 5.515625 15.328125 5.515625 27.984375 
Q 5.515625 40.671875 11.671875 48.328125 
Q 17.828125 56 27.875 56 
Q 33.9375 56 38.28125 53.609375 
Q 42.625 51.21875 45.40625 46.390625 
L 45.40625 54.6875 
L 54.390625 54.6875 
z
" id="DejaVuSans-67"/>
     <path d="M 50.984375 -16.609375 
L 50.984375 -23.578125 
L -0.984375 -23.578125 
L -0.984375 -16.609375 
z
" id="DejaVuSans-5f"/>
     <path d="M 48.6875 27.296875 
Q 48.6875 37.203125 44.609375 42.84375 
Q 40.53125 48.484375 33.40625 48.484375 
Q 26.265625 48.484375 22.1875 42.84375 
Q 18.109375 37.203125 18.109375 27.296875 
Q 18.109375 17.390625 22.1875 11.75 
Q 26.265625 6.109375 33.40625 6.109375 
Q 40.53125 6.109375 44.609375 11.75 
Q 48.6875 17.390625 48.6875 27.296875 
z
M 18.109375 46.390625 
Q 20.953125 51.265625 25.265625 53.625 
Q 29.59375 56 35.59375 56 
Q 45.5625 56 51.78125 48.09375 
Q 58.015625 40.1875 58.015625 27.296875 
Q 58.015625 14.40625 51.78125 6.484375 
Q 45.5625 -1.421875 35.59375 -1.421875 
Q 29.59375 -1.421875 25.265625 0.953125 
Q 20.953125 3.328125 18.109375 8.203125 
L 18.109375 0 
L 9.078125 0 
L 9.078125 75.984375 
L 18.109375 75.984375 
z
" id="DejaVuSans-62"/>
     <path d="M 54.890625 33.015625 
L 54.890625 0 
L 45.90625 0 
L 45.90625 32.71875 
Q 45.90625 40.484375 42.875 44.328125 
Q 39.84375 48.1875 33.796875 48.1875 
Q 26.515625 48.1875 22.3125 43.546875 
Q 18.109375 38.921875 18.109375 30.90625 
L 18.109375 0 
L 9.078125 0 
L 9.078125 75.984375 
L 18.109375 75.984375 
L 18.109375 46.1875 
Q 21.34375 51.125 25.703125 53.5625 
Q 30.078125 56 35.796875 56 
Q 45.21875 56 50.046875 50.171875 
Q 54.890625 44.34375 54.890625 33.015625 
z
" id="DejaVuSans-68"/>
    </defs>
    <g transform="translate(202.265625 63.12)scale(0.12 -0.12)">
     <use xlink:href="#DejaVuSans-73"/>
     <use x="52.099609" xlink:href="#DejaVuSans-74"/>
     <use x="91.308594" xlink:href="#DejaVuSans-65"/>
     <use x="152.832031" xlink:href="#DejaVuSans-70"/>
     <use x="216.308594" xlink:href="#DejaVuSans-6e"/>
     <use x="279.6875" xlink:href="#DejaVuSans-65"/>
     <use x="341.210938" xlink:href="#DejaVuSans-74"/>
     <use x="380.419922" xlink:href="#DejaVuSans-2f"/>
     <use x="414.111328" xlink:href="#DejaVuSans-6c"/>
     <use x="441.894531" xlink:href="#DejaVuSans-6f"/>
     <use x="503.076172" xlink:href="#DejaVuSans-77"/>
     <use x="584.863281" xlink:href="#DejaVuSans-44"/>
     <use x="661.865234" xlink:href="#DejaVuSans-2f"/>
     <use x="695.556641" xlink:href="#DejaVuSans-67"/>
     <use x="759.033203" xlink:href="#DejaVuSans-72"/>
     <use x="800.146484" xlink:href="#DejaVuSans-61"/>
     <use x="861.425781" xlink:href="#DejaVuSans-64"/>
     <use x="924.902344" xlink:href="#DejaVuSans-5f"/>
     <use x="974.902344" xlink:href="#DejaVuSans-6e"/>
     <use x="1038.28125" xlink:href="#DejaVuSans-6f"/>
     <use x="1099.462891" xlink:href="#DejaVuSans-72"/>
     <use x="1140.560547" xlink:href="#DejaVuSans-6d"/>
     <use x="1237.972656" xlink:href="#DejaVuSans-5f"/>
     <use x="1287.972656" xlink:href="#DejaVuSans-62"/>
     <use x="1351.449219" xlink:href="#DejaVuSans-6f"/>
     <use x="1412.630859" xlink:href="#DejaVuSans-74"/>
     <use x="1451.839844" xlink:href="#DejaVuSans-68"/>
     <use x="1515.21875" xlink:href="#DejaVuSans-2f"/>
    </g>
   </g>
   <g id="legend_1">
    <g id="patch_7">
     <path d="M 415.484375 499 
L 511.4 499 
Q 513.4 499 513.4 497 
L 513.4 439.2875 
Q 513.4 437.2875 511.4 437.2875 
L 415.484375 437.2875 
Q 413.484375 437.2875 413.484375 439.2875 
L 413.484375 497 
Q 413.484375 499 415.484375 499 
z
" style="fill:#ffffff;opacity:0.8;stroke:#cccccc;stroke-linejoin:miter;"/>
    </g>
    <g id="line2d_22">
     <path d="M 417.484375 445.385938 
L 437.484375 445.385938 
" style="fill:none;stroke:#000000;stroke-linecap:square;stroke-width:1.5;"/>
    </g>
    <g id="line2d_23">
     <g>
      <use style="stroke:#000000;" x="427.484375" xlink:href="#meac80cd5c6" y="445.385938"/>
     </g>
    </g>
    <g id="text_17">
     <!-- Same Task -->
     <defs>
      <path d="M 53.515625 70.515625 
L 53.515625 60.890625 
Q 47.90625 63.578125 42.921875 64.890625 
Q 37.9375 66.21875 33.296875 66.21875 
Q 25.25 66.21875 20.875 63.09375 
Q 16.5 59.96875 16.5 54.203125 
Q 16.5 49.359375 19.40625 46.890625 
Q 22.3125 44.4375 30.421875 42.921875 
L 36.375 41.703125 
Q 47.40625 39.59375 52.65625 34.296875 
Q 57.90625 29 57.90625 20.125 
Q 57.90625 9.515625 50.796875 4.046875 
Q 43.703125 -1.421875 29.984375 -1.421875 
Q 24.8125 -1.421875 18.96875 -0.25 
Q 13.140625 0.921875 6.890625 3.21875 
L 6.890625 13.375 
Q 12.890625 10.015625 18.65625 8.296875 
Q 24.421875 6.59375 29.984375 6.59375 
Q 38.421875 6.59375 43.015625 9.90625 
Q 47.609375 13.234375 47.609375 19.390625 
Q 47.609375 24.75 44.3125 27.78125 
Q 41.015625 30.8125 33.5 32.328125 
L 27.484375 33.5 
Q 16.453125 35.6875 11.515625 40.375 
Q 6.59375 45.0625 6.59375 53.421875 
Q 6.59375 63.09375 13.40625 68.65625 
Q 20.21875 74.21875 32.171875 74.21875 
Q 37.3125 74.21875 42.625 73.28125 
Q 47.953125 72.359375 53.515625 70.515625 
z
" id="DejaVuSans-53"/>
      <path d="M -0.296875 72.90625 
L 61.375 72.90625 
L 61.375 64.59375 
L 35.5 64.59375 
L 35.5 0 
L 25.59375 0 
L 25.59375 64.59375 
L -0.296875 64.59375 
z
" id="DejaVuSans-54"/>
      <path d="M 9.078125 75.984375 
L 18.109375 75.984375 
L 18.109375 31.109375 
L 44.921875 54.6875 
L 56.390625 54.6875 
L 27.390625 29.109375 
L 57.625 0 
L 45.90625 0 
L 18.109375 26.703125 
L 18.109375 0 
L 9.078125 0 
z
" id="DejaVuSans-6b"/>
     </defs>
     <g transform="translate(445.484375 448.885938)scale(0.1 -0.1)">
      <use xlink:href="#DejaVuSans-53"/>
      <use x="63.476562" xlink:href="#DejaVuSans-61"/>
      <use x="124.755859" xlink:href="#DejaVuSans-6d"/>
      <use x="222.167969" xlink:href="#DejaVuSans-65"/>
      <use x="283.691406" xlink:href="#DejaVuSans-20"/>
      <use x="315.478516" xlink:href="#DejaVuSans-54"/>
      <use x="376.3125" xlink:href="#DejaVuSans-61"/>
      <use x="437.591797" xlink:href="#DejaVuSans-73"/>
      <use x="489.691406" xlink:href="#DejaVuSans-6b"/>
     </g>
    </g>
    <g id="line2d_24">
     <path d="M 417.484375 460.064062 
L 437.484375 460.064062 
" style="fill:none;stroke:#0000ff;stroke-linecap:square;stroke-width:1.5;"/>
    </g>
    <g id="line2d_25">
     <g>
      <use style="fill:#0000ff;stroke:#0000ff;" x="427.484375" xlink:href="#mad733d74b4" y="460.064062"/>
     </g>
    </g>
    <g id="text_18">
     <!-- Anti -->
     <defs>
      <path d="M 34.1875 63.1875 
L 20.796875 26.90625 
L 47.609375 26.90625 
z
M 28.609375 72.90625 
L 39.796875 72.90625 
L 67.578125 0 
L 57.328125 0 
L 50.6875 18.703125 
L 17.828125 18.703125 
L 11.1875 0 
L 0.78125 0 
z
" id="DejaVuSans-41"/>
     </defs>
     <g transform="translate(445.484375 463.564062)scale(0.1 -0.1)">
      <use xlink:href="#DejaVuSans-41"/>
      <use x="68.408203" xlink:href="#DejaVuSans-6e"/>
      <use x="131.787109" xlink:href="#DejaVuSans-74"/>
      <use x="170.996094" xlink:href="#DejaVuSans-69"/>
     </g>
    </g>
    <g id="line2d_26">
     <path d="M 417.484375 474.742188 
L 437.484375 474.742188 
" style="fill:none;stroke:#008000;stroke-linecap:square;stroke-width:1.5;"/>
    </g>
    <g id="line2d_27">
     <g>
      <use style="fill:#008000;stroke:#008000;" x="427.484375" xlink:href="#mde41057dbe" y="474.742188"/>
     </g>
    </g>
    <g id="text_19">
     <!-- Memory -->
     <defs>
      <path d="M 9.8125 72.90625 
L 24.515625 72.90625 
L 43.109375 23.296875 
L 61.8125 72.90625 
L 76.515625 72.90625 
L 76.515625 0 
L 66.890625 0 
L 66.890625 64.015625 
L 48.09375 14.015625 
L 38.1875 14.015625 
L 19.390625 64.015625 
L 19.390625 0 
L 9.8125 0 
z
" id="DejaVuSans-4d"/>
      <path d="M 32.171875 -5.078125 
Q 28.375 -14.84375 24.75 -17.8125 
Q 21.140625 -20.796875 15.09375 -20.796875 
L 7.90625 -20.796875 
L 7.90625 -13.28125 
L 13.1875 -13.28125 
Q 16.890625 -13.28125 18.9375 -11.515625 
Q 21 -9.765625 23.484375 -3.21875 
L 25.09375 0.875 
L 2.984375 54.6875 
L 12.5 54.6875 
L 29.59375 11.921875 
L 46.6875 54.6875 
L 56.203125 54.6875 
z
" id="DejaVuSans-79"/>
     </defs>
     <g transform="translate(445.484375 478.242188)scale(0.1 -0.1)">
      <use xlink:href="#DejaVuSans-4d"/>
      <use x="86.279297" xlink:href="#DejaVuSans-65"/>
      <use x="147.802734" xlink:href="#DejaVuSans-6d"/>
      <use x="245.214844" xlink:href="#DejaVuSans-6f"/>
      <use x="306.396484" xlink:href="#DejaVuSans-72"/>
      <use x="347.509766" xlink:href="#DejaVuSans-79"/>
     </g>
    </g>
    <g id="line2d_28">
     <path d="M 417.484375 489.420313 
L 437.484375 489.420313 
" style="fill:none;stroke:#ff0000;stroke-linecap:square;stroke-width:1.5;"/>
    </g>
    <g id="line2d_29">
     <g>
      <use style="fill:#ff0000;stroke:#ff0000;" x="427.484375" xlink:href="#m2e492e6209" y="489.420313"/>
     </g>
    </g>
    <g id="text_20">
     <!-- Memory/Anti -->
     <g transform="translate(445.484375 492.920313)scale(0.1 -0.1)">
      <use xlink:href="#DejaVuSans-4d"/>
      <use x="86.279297" xlink:href="#DejaVuSans-65"/>
      <use x="147.802734" xlink:href="#DejaVuSans-6d"/>
      <use x="245.214844" xlink:href="#DejaVuSans-6f"/>
      <use x="306.396484" xlink:href="#DejaVuSans-72"/>
      <use x="347.509766" xlink:href="#DejaVuSans-79"/>
      <use x="406.689453" xlink:href="#DejaVuSans-2f"/>
      <use x="440.380859" xlink:href="#DejaVuSans-41"/>
      <use x="508.789062" xlink:href="#DejaVuSans-6e"/>
      <use x="572.167969" xlink:href="#DejaVuSans-74"/>
      <use x="611.376953" xlink:href="#DejaVuSans-69"/>
     </g>
    </g>
   </g>
  </g>
 </g>
 <defs>
  <clipPath id="p2d4cbc27fe">
   <rect height="434.88" width="446.4" x="72" y="69.12"/>
  </clipPath>
 </defs>
</svg>
