<?xml version="1.0" encoding="utf-8" standalone="no"?>
<!DOCTYPE svg PUBLIC "-//W3C//DTD SVG 1.1//EN"
  "http://www.w3.org/Graphics/SVG/1.1/DTD/svg11.dtd">
<!-- Created with matplotlib (http://matplotlib.org/) -->
<svg height="576pt" version="1.1" viewBox="0 0 576 576" width="576pt" xmlns="http://www.w3.org/2000/svg" xmlns:xlink="http://www.w3.org/1999/xlink">
 <defs>
  <style type="text/css">
*{stroke-linecap:butt;stroke-linejoin:round;}
  </style>
 </defs>
 <g id="figure_1">
  <g id="patch_1">
   <path d="M 0 576 
L 576 576 
L 576 0 
L 0 0 
z
" style="fill:#ffffff;"/>
  </g>
  <g id="axes_1">
   <g id="patch_2">
    <path d="M 72 504 
L 518.4 504 
L 518.4 69.12 
L 72 69.12 
z
" style="fill:#ffffff;"/>
   </g>
   <g id="matplotlib.axis_1">
    <g id="xtick_1">
     <g id="line2d_1">
      <defs>
       <path d="M 0 0 
L 0 3.5 
" id="m609c71a713" style="stroke:#000000;stroke-width:0.8;"/>
      </defs>
      <g>
       <use style="stroke:#000000;stroke-width:0.8;" x="86.4" xlink:href="#m609c71a713" y="504"/>
      </g>
     </g>
     <g id="text_1">
      <!-- 0 -->
      <defs>
       <path d="M 31.78125 66.40625 
Q 24.171875 66.40625 20.328125 58.90625 
Q 16.5 51.421875 16.5 36.375 
Q 16.5 21.390625 20.328125 13.890625 
Q 24.171875 6.390625 31.78125 6.390625 
Q 39.453125 6.390625 43.28125 13.890625 
Q 47.125 21.390625 47.125 36.375 
Q 47.125 51.421875 43.28125 58.90625 
Q 39.453125 66.40625 31.78125 66.40625 
z
M 31.78125 74.21875 
Q 44.046875 74.21875 50.515625 64.515625 
Q 56.984375 54.828125 56.984375 36.375 
Q 56.984375 17.96875 50.515625 8.265625 
Q 44.046875 -1.421875 31.78125 -1.421875 
Q 19.53125 -1.421875 13.0625 8.265625 
Q 6.59375 17.96875 6.59375 36.375 
Q 6.59375 54.828125 13.0625 64.515625 
Q 19.53125 74.21875 31.78125 74.21875 
z
" id="DejaVuSans-30"/>
      </defs>
      <g transform="translate(83.21875 518.598438)scale(0.1 -0.1)">
       <use xlink:href="#DejaVuSans-30"/>
      </g>
     </g>
    </g>
    <g id="xtick_2">
     <g id="line2d_2">
      <g>
       <use style="stroke:#000000;stroke-width:0.8;" x="158.4" xlink:href="#m609c71a713" y="504"/>
      </g>
     </g>
     <g id="text_2">
      <!-- 5 -->
      <defs>
       <path d="M 10.796875 72.90625 
L 49.515625 72.90625 
L 49.515625 64.59375 
L 19.828125 64.59375 
L 19.828125 46.734375 
Q 21.96875 47.46875 24.109375 47.828125 
Q 26.265625 48.1875 28.421875 48.1875 
Q 40.625 48.1875 47.75 41.5 
Q 54.890625 34.8125 54.890625 23.390625 
Q 54.890625 11.625 47.5625 5.09375 
Q 40.234375 -1.421875 26.90625 -1.421875 
Q 22.3125 -1.421875 17.546875 -0.640625 
Q 12.796875 0.140625 7.71875 1.703125 
L 7.71875 11.625 
Q 12.109375 9.234375 16.796875 8.0625 
Q 21.484375 6.890625 26.703125 6.890625 
Q 35.15625 6.890625 40.078125 11.328125 
Q 45.015625 15.765625 45.015625 23.390625 
Q 45.015625 31 40.078125 35.4375 
Q 35.15625 39.890625 26.703125 39.890625 
Q 22.75 39.890625 18.8125 39.015625 
Q 14.890625 38.140625 10.796875 36.28125 
z
" id="DejaVuSans-35"/>
      </defs>
      <g transform="translate(155.21875 518.598438)scale(0.1 -0.1)">
       <use xlink:href="#DejaVuSans-35"/>
      </g>
     </g>
    </g>
    <g id="xtick_3">
     <g id="line2d_3">
      <g>
       <use style="stroke:#000000;stroke-width:0.8;" x="230.4" xlink:href="#m609c71a713" y="504"/>
      </g>
     </g>
     <g id="text_3">
      <!-- 10 -->
      <defs>
       <path d="M 12.40625 8.296875 
L 28.515625 8.296875 
L 28.515625 63.921875 
L 10.984375 60.40625 
L 10.984375 69.390625 
L 28.421875 72.90625 
L 38.28125 72.90625 
L 38.28125 8.296875 
L 54.390625 8.296875 
L 54.390625 0 
L 12.40625 0 
z
" id="DejaVuSans-31"/>
      </defs>
      <g transform="translate(224.0375 518.598438)scale(0.1 -0.1)">
       <use xlink:href="#DejaVuSans-31"/>
       <use x="63.623047" xlink:href="#DejaVuSans-30"/>
      </g>
     </g>
    </g>
    <g id="xtick_4">
     <g id="line2d_4">
      <g>
       <use style="stroke:#000000;stroke-width:0.8;" x="302.4" xlink:href="#m609c71a713" y="504"/>
      </g>
     </g>
     <g id="text_4">
      <!-- 15 -->
      <g transform="translate(296.0375 518.598438)scale(0.1 -0.1)">
       <use xlink:href="#DejaVuSans-31"/>
       <use x="63.623047" xlink:href="#DejaVuSans-35"/>
      </g>
     </g>
    </g>
    <g id="xtick_5">
     <g id="line2d_5">
      <g>
       <use style="stroke:#000000;stroke-width:0.8;" x="374.4" xlink:href="#m609c71a713" y="504"/>
      </g>
     </g>
     <g id="text_5">
      <!-- 20 -->
      <defs>
       <path d="M 19.1875 8.296875 
L 53.609375 8.296875 
L 53.609375 0 
L 7.328125 0 
L 7.328125 8.296875 
Q 12.9375 14.109375 22.625 23.890625 
Q 32.328125 33.6875 34.8125 36.53125 
Q 39.546875 41.84375 41.421875 45.53125 
Q 43.3125 49.21875 43.3125 52.78125 
Q 43.3125 58.59375 39.234375 62.25 
Q 35.15625 65.921875 28.609375 65.921875 
Q 23.96875 65.921875 18.8125 64.3125 
Q 13.671875 62.703125 7.8125 59.421875 
L 7.8125 69.390625 
Q 13.765625 71.78125 18.9375 73 
Q 24.125 74.21875 28.421875 74.21875 
Q 39.75 74.21875 46.484375 68.546875 
Q 53.21875 62.890625 53.21875 53.421875 
Q 53.21875 48.921875 51.53125 44.890625 
Q 49.859375 40.875 45.40625 35.40625 
Q 44.1875 33.984375 37.640625 27.21875 
Q 31.109375 20.453125 19.1875 8.296875 
z
" id="DejaVuSans-32"/>
      </defs>
      <g transform="translate(368.0375 518.598438)scale(0.1 -0.1)">
       <use xlink:href="#DejaVuSans-32"/>
       <use x="63.623047" xlink:href="#DejaVuSans-30"/>
      </g>
     </g>
    </g>
    <g id="xtick_6">
     <g id="line2d_6">
      <g>
       <use style="stroke:#000000;stroke-width:0.8;" x="446.4" xlink:href="#m609c71a713" y="504"/>
      </g>
     </g>
     <g id="text_6">
      <!-- 25 -->
      <g transform="translate(440.0375 518.598438)scale(0.1 -0.1)">
       <use xlink:href="#DejaVuSans-32"/>
       <use x="63.623047" xlink:href="#DejaVuSans-35"/>
      </g>
     </g>
    </g>
    <g id="xtick_7">
     <g id="line2d_7">
      <g>
       <use style="stroke:#000000;stroke-width:0.8;" x="518.4" xlink:href="#m609c71a713" y="504"/>
      </g>
     </g>
     <g id="text_7">
      <!-- 30 -->
      <defs>
       <path d="M 40.578125 39.3125 
Q 47.65625 37.796875 51.625 33 
Q 55.609375 28.21875 55.609375 21.1875 
Q 55.609375 10.40625 48.1875 4.484375 
Q 40.765625 -1.421875 27.09375 -1.421875 
Q 22.515625 -1.421875 17.65625 -0.515625 
Q 12.796875 0.390625 7.625 2.203125 
L 7.625 11.71875 
Q 11.71875 9.328125 16.59375 8.109375 
Q 21.484375 6.890625 26.8125 6.890625 
Q 36.078125 6.890625 40.9375 10.546875 
Q 45.796875 14.203125 45.796875 21.1875 
Q 45.796875 27.640625 41.28125 31.265625 
Q 36.765625 34.90625 28.71875 34.90625 
L 20.21875 34.90625 
L 20.21875 43.015625 
L 29.109375 43.015625 
Q 36.375 43.015625 40.234375 45.921875 
Q 44.09375 48.828125 44.09375 54.296875 
Q 44.09375 59.90625 40.109375 62.90625 
Q 36.140625 65.921875 28.71875 65.921875 
Q 24.65625 65.921875 20.015625 65.03125 
Q 15.375 64.15625 9.8125 62.3125 
L 9.8125 71.09375 
Q 15.4375 72.65625 20.34375 73.4375 
Q 25.25 74.21875 29.59375 74.21875 
Q 40.828125 74.21875 47.359375 69.109375 
Q 53.90625 64.015625 53.90625 55.328125 
Q 53.90625 49.265625 50.4375 45.09375 
Q 46.96875 40.921875 40.578125 39.3125 
z
" id="DejaVuSans-33"/>
      </defs>
      <g transform="translate(512.0375 518.598438)scale(0.1 -0.1)">
       <use xlink:href="#DejaVuSans-33"/>
       <use x="63.623047" xlink:href="#DejaVuSans-30"/>
      </g>
     </g>
    </g>
    <g id="text_8">
     <!-- # Components -->
     <defs>
      <path d="M 51.125 44 
L 36.921875 44 
L 32.8125 27.6875 
L 47.125 27.6875 
z
M 43.796875 71.78125 
L 38.71875 51.515625 
L 52.984375 51.515625 
L 58.109375 71.78125 
L 65.921875 71.78125 
L 60.890625 51.515625 
L 76.125 51.515625 
L 76.125 44 
L 58.984375 44 
L 54.984375 27.6875 
L 70.515625 27.6875 
L 70.515625 20.21875 
L 53.078125 20.21875 
L 48 0 
L 40.1875 0 
L 45.21875 20.21875 
L 30.90625 20.21875 
L 25.875 0 
L 18.015625 0 
L 23.09375 20.21875 
L 7.71875 20.21875 
L 7.71875 27.6875 
L 24.90625 27.6875 
L 29 44 
L 13.28125 44 
L 13.28125 51.515625 
L 30.90625 51.515625 
L 35.890625 71.78125 
z
" id="DejaVuSans-23"/>
      <path id="DejaVuSans-20"/>
      <path d="M 64.40625 67.28125 
L 64.40625 56.890625 
Q 59.421875 61.53125 53.78125 63.8125 
Q 48.140625 66.109375 41.796875 66.109375 
Q 29.296875 66.109375 22.65625 58.46875 
Q 16.015625 50.828125 16.015625 36.375 
Q 16.015625 21.96875 22.65625 14.328125 
Q 29.296875 6.6875 41.796875 6.6875 
Q 48.140625 6.6875 53.78125 8.984375 
Q 59.421875 11.28125 64.40625 15.921875 
L 64.40625 5.609375 
Q 59.234375 2.09375 53.4375 0.328125 
Q 47.65625 -1.421875 41.21875 -1.421875 
Q 24.65625 -1.421875 15.125 8.703125 
Q 5.609375 18.84375 5.609375 36.375 
Q 5.609375 53.953125 15.125 64.078125 
Q 24.65625 74.21875 41.21875 74.21875 
Q 47.75 74.21875 53.53125 72.484375 
Q 59.328125 70.75 64.40625 67.28125 
z
" id="DejaVuSans-43"/>
      <path d="M 30.609375 48.390625 
Q 23.390625 48.390625 19.1875 42.75 
Q 14.984375 37.109375 14.984375 27.296875 
Q 14.984375 17.484375 19.15625 11.84375 
Q 23.34375 6.203125 30.609375 6.203125 
Q 37.796875 6.203125 41.984375 11.859375 
Q 46.1875 17.53125 46.1875 27.296875 
Q 46.1875 37.015625 41.984375 42.703125 
Q 37.796875 48.390625 30.609375 48.390625 
z
M 30.609375 56 
Q 42.328125 56 49.015625 48.375 
Q 55.71875 40.765625 55.71875 27.296875 
Q 55.71875 13.875 49.015625 6.21875 
Q 42.328125 -1.421875 30.609375 -1.421875 
Q 18.84375 -1.421875 12.171875 6.21875 
Q 5.515625 13.875 5.515625 27.296875 
Q 5.515625 40.765625 12.171875 48.375 
Q 18.84375 56 30.609375 56 
z
" id="DejaVuSans-6f"/>
      <path d="M 52 44.1875 
Q 55.375 50.25 60.0625 53.125 
Q 64.75 56 71.09375 56 
Q 79.640625 56 84.28125 50.015625 
Q 88.921875 44.046875 88.921875 33.015625 
L 88.921875 0 
L 79.890625 0 
L 79.890625 32.71875 
Q 79.890625 40.578125 77.09375 44.375 
Q 74.3125 48.1875 68.609375 48.1875 
Q 61.625 48.1875 57.5625 43.546875 
Q 53.515625 38.921875 53.515625 30.90625 
L 53.515625 0 
L 44.484375 0 
L 44.484375 32.71875 
Q 44.484375 40.625 41.703125 44.40625 
Q 38.921875 48.1875 33.109375 48.1875 
Q 26.21875 48.1875 22.15625 43.53125 
Q 18.109375 38.875 18.109375 30.90625 
L 18.109375 0 
L 9.078125 0 
L 9.078125 54.6875 
L 18.109375 54.6875 
L 18.109375 46.1875 
Q 21.1875 51.21875 25.484375 53.609375 
Q 29.78125 56 35.6875 56 
Q 41.65625 56 45.828125 52.96875 
Q 50 49.953125 52 44.1875 
z
" id="DejaVuSans-6d"/>
      <path d="M 18.109375 8.203125 
L 18.109375 -20.796875 
L 9.078125 -20.796875 
L 9.078125 54.6875 
L 18.109375 54.6875 
L 18.109375 46.390625 
Q 20.953125 51.265625 25.265625 53.625 
Q 29.59375 56 35.59375 56 
Q 45.5625 56 51.78125 48.09375 
Q 58.015625 40.1875 58.015625 27.296875 
Q 58.015625 14.40625 51.78125 6.484375 
Q 45.5625 -1.421875 35.59375 -1.421875 
Q 29.59375 -1.421875 25.265625 0.953125 
Q 20.953125 3.328125 18.109375 8.203125 
z
M 48.6875 27.296875 
Q 48.6875 37.203125 44.609375 42.84375 
Q 40.53125 48.484375 33.40625 48.484375 
Q 26.265625 48.484375 22.1875 42.84375 
Q 18.109375 37.203125 18.109375 27.296875 
Q 18.109375 17.390625 22.1875 11.75 
Q 26.265625 6.109375 33.40625 6.109375 
Q 40.53125 6.109375 44.609375 11.75 
Q 48.6875 17.390625 48.6875 27.296875 
z
" id="DejaVuSans-70"/>
      <path d="M 54.890625 33.015625 
L 54.890625 0 
L 45.90625 0 
L 45.90625 32.71875 
Q 45.90625 40.484375 42.875 44.328125 
Q 39.84375 48.1875 33.796875 48.1875 
Q 26.515625 48.1875 22.3125 43.546875 
Q 18.109375 38.921875 18.109375 30.90625 
L 18.109375 0 
L 9.078125 0 
L 9.078125 54.6875 
L 18.109375 54.6875 
L 18.109375 46.1875 
Q 21.34375 51.125 25.703125 53.5625 
Q 30.078125 56 35.796875 56 
Q 45.21875 56 50.046875 50.171875 
Q 54.890625 44.34375 54.890625 33.015625 
z
" id="DejaVuSans-6e"/>
      <path d="M 56.203125 29.59375 
L 56.203125 25.203125 
L 14.890625 25.203125 
Q 15.484375 15.921875 20.484375 11.0625 
Q 25.484375 6.203125 34.421875 6.203125 
Q 39.59375 6.203125 44.453125 7.46875 
Q 49.3125 8.734375 54.109375 11.28125 
L 54.109375 2.78125 
Q 49.265625 0.734375 44.1875 -0.34375 
Q 39.109375 -1.421875 33.890625 -1.421875 
Q 20.796875 -1.421875 13.15625 6.1875 
Q 5.515625 13.8125 5.515625 26.8125 
Q 5.515625 40.234375 12.765625 48.109375 
Q 20.015625 56 32.328125 56 
Q 43.359375 56 49.78125 48.890625 
Q 56.203125 41.796875 56.203125 29.59375 
z
M 47.21875 32.234375 
Q 47.125 39.59375 43.09375 43.984375 
Q 39.0625 48.390625 32.421875 48.390625 
Q 24.90625 48.390625 20.390625 44.140625 
Q 15.875 39.890625 15.1875 32.171875 
z
" id="DejaVuSans-65"/>
      <path d="M 18.3125 70.21875 
L 18.3125 54.6875 
L 36.8125 54.6875 
L 36.8125 47.703125 
L 18.3125 47.703125 
L 18.3125 18.015625 
Q 18.3125 11.328125 20.140625 9.421875 
Q 21.96875 7.515625 27.59375 7.515625 
L 36.8125 7.515625 
L 36.8125 0 
L 27.59375 0 
Q 17.1875 0 13.234375 3.875 
Q 9.28125 7.765625 9.28125 18.015625 
L 9.28125 47.703125 
L 2.6875 47.703125 
L 2.6875 54.6875 
L 9.28125 54.6875 
L 9.28125 70.21875 
z
" id="DejaVuSans-74"/>
      <path d="M 44.28125 53.078125 
L 44.28125 44.578125 
Q 40.484375 46.53125 36.375 47.5 
Q 32.28125 48.484375 27.875 48.484375 
Q 21.1875 48.484375 17.84375 46.4375 
Q 14.5 44.390625 14.5 40.28125 
Q 14.5 37.15625 16.890625 35.375 
Q 19.28125 33.59375 26.515625 31.984375 
L 29.59375 31.296875 
Q 39.15625 29.25 43.1875 25.515625 
Q 47.21875 21.78125 47.21875 15.09375 
Q 47.21875 7.46875 41.1875 3.015625 
Q 35.15625 -1.421875 24.609375 -1.421875 
Q 20.21875 -1.421875 15.453125 -0.5625 
Q 10.6875 0.296875 5.421875 2 
L 5.421875 11.28125 
Q 10.40625 8.6875 15.234375 7.390625 
Q 20.0625 6.109375 24.8125 6.109375 
Q 31.15625 6.109375 34.5625 8.28125 
Q 37.984375 10.453125 37.984375 14.40625 
Q 37.984375 18.0625 35.515625 20.015625 
Q 33.0625 21.96875 24.703125 23.78125 
L 21.578125 24.515625 
Q 13.234375 26.265625 9.515625 29.90625 
Q 5.8125 33.546875 5.8125 39.890625 
Q 5.8125 47.609375 11.28125 51.796875 
Q 16.75 56 26.8125 56 
Q 31.78125 56 36.171875 55.265625 
Q 40.578125 54.546875 44.28125 53.078125 
z
" id="DejaVuSans-73"/>
     </defs>
     <g transform="translate(257.7875 532.276562)scale(0.1 -0.1)">
      <use xlink:href="#DejaVuSans-23"/>
      <use x="83.789062" xlink:href="#DejaVuSans-20"/>
      <use x="115.576172" xlink:href="#DejaVuSans-43"/>
      <use x="185.400391" xlink:href="#DejaVuSans-6f"/>
      <use x="246.582031" xlink:href="#DejaVuSans-6d"/>
      <use x="343.994141" xlink:href="#DejaVuSans-70"/>
      <use x="407.470703" xlink:href="#DejaVuSans-6f"/>
      <use x="468.652344" xlink:href="#DejaVuSans-6e"/>
      <use x="532.03125" xlink:href="#DejaVuSans-65"/>
      <use x="593.554688" xlink:href="#DejaVuSans-6e"/>
      <use x="656.933594" xlink:href="#DejaVuSans-74"/>
      <use x="696.142578" xlink:href="#DejaVuSans-73"/>
     </g>
    </g>
   </g>
   <g id="matplotlib.axis_2">
    <g id="ytick_1">
     <g id="line2d_8">
      <defs>
       <path d="M 0 0 
L -3.5 0 
" id="m6081dde9a9" style="stroke:#000000;stroke-width:0.8;"/>
      </defs>
      <g>
       <use style="stroke:#000000;stroke-width:0.8;" x="72" xlink:href="#m6081dde9a9" y="498.865253"/>
      </g>
     </g>
     <g id="text_9">
      <!-- 0.0 -->
      <defs>
       <path d="M 10.6875 12.40625 
L 21 12.40625 
L 21 0 
L 10.6875 0 
z
" id="DejaVuSans-2e"/>
      </defs>
      <g transform="translate(49.096875 502.664471)scale(0.1 -0.1)">
       <use xlink:href="#DejaVuSans-30"/>
       <use x="63.623047" xlink:href="#DejaVuSans-2e"/>
       <use x="95.410156" xlink:href="#DejaVuSans-30"/>
      </g>
     </g>
    </g>
    <g id="ytick_2">
     <g id="line2d_9">
      <g>
       <use style="stroke:#000000;stroke-width:0.8;" x="72" xlink:href="#m6081dde9a9" y="416.869676"/>
      </g>
     </g>
     <g id="text_10">
      <!-- 0.2 -->
      <g transform="translate(49.096875 420.668895)scale(0.1 -0.1)">
       <use xlink:href="#DejaVuSans-30"/>
       <use x="63.623047" xlink:href="#DejaVuSans-2e"/>
       <use x="95.410156" xlink:href="#DejaVuSans-32"/>
      </g>
     </g>
    </g>
    <g id="ytick_3">
     <g id="line2d_10">
      <g>
       <use style="stroke:#000000;stroke-width:0.8;" x="72" xlink:href="#m6081dde9a9" y="334.8741"/>
      </g>
     </g>
     <g id="text_11">
      <!-- 0.4 -->
      <defs>
       <path d="M 37.796875 64.3125 
L 12.890625 25.390625 
L 37.796875 25.390625 
z
M 35.203125 72.90625 
L 47.609375 72.90625 
L 47.609375 25.390625 
L 58.015625 25.390625 
L 58.015625 17.1875 
L 47.609375 17.1875 
L 47.609375 0 
L 37.796875 0 
L 37.796875 17.1875 
L 4.890625 17.1875 
L 4.890625 26.703125 
z
" id="DejaVuSans-34"/>
      </defs>
      <g transform="translate(49.096875 338.673319)scale(0.1 -0.1)">
       <use xlink:href="#DejaVuSans-30"/>
       <use x="63.623047" xlink:href="#DejaVuSans-2e"/>
       <use x="95.410156" xlink:href="#DejaVuSans-34"/>
      </g>
     </g>
    </g>
    <g id="ytick_4">
     <g id="line2d_11">
      <g>
       <use style="stroke:#000000;stroke-width:0.8;" x="72" xlink:href="#m6081dde9a9" y="252.878523"/>
      </g>
     </g>
     <g id="text_12">
      <!-- 0.6 -->
      <defs>
       <path d="M 33.015625 40.375 
Q 26.375 40.375 22.484375 35.828125 
Q 18.609375 31.296875 18.609375 23.390625 
Q 18.609375 15.53125 22.484375 10.953125 
Q 26.375 6.390625 33.015625 6.390625 
Q 39.65625 6.390625 43.53125 10.953125 
Q 47.40625 15.53125 47.40625 23.390625 
Q 47.40625 31.296875 43.53125 35.828125 
Q 39.65625 40.375 33.015625 40.375 
z
M 52.59375 71.296875 
L 52.59375 62.3125 
Q 48.875 64.0625 45.09375 64.984375 
Q 41.3125 65.921875 37.59375 65.921875 
Q 27.828125 65.921875 22.671875 59.328125 
Q 17.53125 52.734375 16.796875 39.40625 
Q 19.671875 43.65625 24.015625 45.921875 
Q 28.375 48.1875 33.59375 48.1875 
Q 44.578125 48.1875 50.953125 41.515625 
Q 57.328125 34.859375 57.328125 23.390625 
Q 57.328125 12.15625 50.6875 5.359375 
Q 44.046875 -1.421875 33.015625 -1.421875 
Q 20.359375 -1.421875 13.671875 8.265625 
Q 6.984375 17.96875 6.984375 36.375 
Q 6.984375 53.65625 15.1875 63.9375 
Q 23.390625 74.21875 37.203125 74.21875 
Q 40.921875 74.21875 44.703125 73.484375 
Q 48.484375 72.75 52.59375 71.296875 
z
" id="DejaVuSans-36"/>
      </defs>
      <g transform="translate(49.096875 256.677742)scale(0.1 -0.1)">
       <use xlink:href="#DejaVuSans-30"/>
       <use x="63.623047" xlink:href="#DejaVuSans-2e"/>
       <use x="95.410156" xlink:href="#DejaVuSans-36"/>
      </g>
     </g>
    </g>
    <g id="ytick_5">
     <g id="line2d_12">
      <g>
       <use style="stroke:#000000;stroke-width:0.8;" x="72" xlink:href="#m6081dde9a9" y="170.882947"/>
      </g>
     </g>
     <g id="text_13">
      <!-- 0.8 -->
      <defs>
       <path d="M 31.78125 34.625 
Q 24.75 34.625 20.71875 30.859375 
Q 16.703125 27.09375 16.703125 20.515625 
Q 16.703125 13.921875 20.71875 10.15625 
Q 24.75 6.390625 31.78125 6.390625 
Q 38.8125 6.390625 42.859375 10.171875 
Q 46.921875 13.96875 46.921875 20.515625 
Q 46.921875 27.09375 42.890625 30.859375 
Q 38.875 34.625 31.78125 34.625 
z
M 21.921875 38.8125 
Q 15.578125 40.375 12.03125 44.71875 
Q 8.5 49.078125 8.5 55.328125 
Q 8.5 64.0625 14.71875 69.140625 
Q 20.953125 74.21875 31.78125 74.21875 
Q 42.671875 74.21875 48.875 69.140625 
Q 55.078125 64.0625 55.078125 55.328125 
Q 55.078125 49.078125 51.53125 44.71875 
Q 48 40.375 41.703125 38.8125 
Q 48.828125 37.15625 52.796875 32.3125 
Q 56.78125 27.484375 56.78125 20.515625 
Q 56.78125 9.90625 50.3125 4.234375 
Q 43.84375 -1.421875 31.78125 -1.421875 
Q 19.734375 -1.421875 13.25 4.234375 
Q 6.78125 9.90625 6.78125 20.515625 
Q 6.78125 27.484375 10.78125 32.3125 
Q 14.796875 37.15625 21.921875 38.8125 
z
M 18.3125 54.390625 
Q 18.3125 48.734375 21.84375 45.5625 
Q 25.390625 42.390625 31.78125 42.390625 
Q 38.140625 42.390625 41.71875 45.5625 
Q 45.3125 48.734375 45.3125 54.390625 
Q 45.3125 60.0625 41.71875 63.234375 
Q 38.140625 66.40625 31.78125 66.40625 
Q 25.390625 66.40625 21.84375 63.234375 
Q 18.3125 60.0625 18.3125 54.390625 
z
" id="DejaVuSans-38"/>
      </defs>
      <g transform="translate(49.096875 174.682166)scale(0.1 -0.1)">
       <use xlink:href="#DejaVuSans-30"/>
       <use x="63.623047" xlink:href="#DejaVuSans-2e"/>
       <use x="95.410156" xlink:href="#DejaVuSans-38"/>
      </g>
     </g>
    </g>
    <g id="ytick_6">
     <g id="line2d_13">
      <g>
       <use style="stroke:#000000;stroke-width:0.8;" x="72" xlink:href="#m6081dde9a9" y="88.88737"/>
      </g>
     </g>
     <g id="text_14">
      <!-- 1.0 -->
      <g transform="translate(49.096875 92.686589)scale(0.1 -0.1)">
       <use xlink:href="#DejaVuSans-31"/>
       <use x="63.623047" xlink:href="#DejaVuSans-2e"/>
       <use x="95.410156" xlink:href="#DejaVuSans-30"/>
      </g>
     </g>
    </g>
    <g id="text_15">
     <!-- Cumulative Variance Explained -->
     <defs>
      <path d="M 8.5 21.578125 
L 8.5 54.6875 
L 17.484375 54.6875 
L 17.484375 21.921875 
Q 17.484375 14.15625 20.5 10.265625 
Q 23.53125 6.390625 29.59375 6.390625 
Q 36.859375 6.390625 41.078125 11.03125 
Q 45.3125 15.671875 45.3125 23.6875 
L 45.3125 54.6875 
L 54.296875 54.6875 
L 54.296875 0 
L 45.3125 0 
L 45.3125 8.40625 
Q 42.046875 3.421875 37.71875 1 
Q 33.40625 -1.421875 27.6875 -1.421875 
Q 18.265625 -1.421875 13.375 4.4375 
Q 8.5 10.296875 8.5 21.578125 
z
M 31.109375 56 
z
" id="DejaVuSans-75"/>
      <path d="M 9.421875 75.984375 
L 18.40625 75.984375 
L 18.40625 0 
L 9.421875 0 
z
" id="DejaVuSans-6c"/>
      <path d="M 34.28125 27.484375 
Q 23.390625 27.484375 19.1875 25 
Q 14.984375 22.515625 14.984375 16.5 
Q 14.984375 11.71875 18.140625 8.90625 
Q 21.296875 6.109375 26.703125 6.109375 
Q 34.1875 6.109375 38.703125 11.40625 
Q 43.21875 16.703125 43.21875 25.484375 
L 43.21875 27.484375 
z
M 52.203125 31.203125 
L 52.203125 0 
L 43.21875 0 
L 43.21875 8.296875 
Q 40.140625 3.328125 35.546875 0.953125 
Q 30.953125 -1.421875 24.3125 -1.421875 
Q 15.921875 -1.421875 10.953125 3.296875 
Q 6 8.015625 6 15.921875 
Q 6 25.140625 12.171875 29.828125 
Q 18.359375 34.515625 30.609375 34.515625 
L 43.21875 34.515625 
L 43.21875 35.40625 
Q 43.21875 41.609375 39.140625 45 
Q 35.0625 48.390625 27.6875 48.390625 
Q 23 48.390625 18.546875 47.265625 
Q 14.109375 46.140625 10.015625 43.890625 
L 10.015625 52.203125 
Q 14.9375 54.109375 19.578125 55.046875 
Q 24.21875 56 28.609375 56 
Q 40.484375 56 46.34375 49.84375 
Q 52.203125 43.703125 52.203125 31.203125 
z
" id="DejaVuSans-61"/>
      <path d="M 9.421875 54.6875 
L 18.40625 54.6875 
L 18.40625 0 
L 9.421875 0 
z
M 9.421875 75.984375 
L 18.40625 75.984375 
L 18.40625 64.59375 
L 9.421875 64.59375 
z
" id="DejaVuSans-69"/>
      <path d="M 2.984375 54.6875 
L 12.5 54.6875 
L 29.59375 8.796875 
L 46.6875 54.6875 
L 56.203125 54.6875 
L 35.6875 0 
L 23.484375 0 
z
" id="DejaVuSans-76"/>
      <path d="M 28.609375 0 
L 0.78125 72.90625 
L 11.078125 72.90625 
L 34.1875 11.53125 
L 57.328125 72.90625 
L 67.578125 72.90625 
L 39.796875 0 
z
" id="DejaVuSans-56"/>
      <path d="M 41.109375 46.296875 
Q 39.59375 47.171875 37.8125 47.578125 
Q 36.03125 48 33.890625 48 
Q 26.265625 48 22.1875 43.046875 
Q 18.109375 38.09375 18.109375 28.8125 
L 18.109375 0 
L 9.078125 0 
L 9.078125 54.6875 
L 18.109375 54.6875 
L 18.109375 46.1875 
Q 20.953125 51.171875 25.484375 53.578125 
Q 30.03125 56 36.53125 56 
Q 37.453125 56 38.578125 55.875 
Q 39.703125 55.765625 41.0625 55.515625 
z
" id="DejaVuSans-72"/>
      <path d="M 48.78125 52.59375 
L 48.78125 44.1875 
Q 44.96875 46.296875 41.140625 47.34375 
Q 37.3125 48.390625 33.40625 48.390625 
Q 24.65625 48.390625 19.8125 42.84375 
Q 14.984375 37.3125 14.984375 27.296875 
Q 14.984375 17.28125 19.8125 11.734375 
Q 24.65625 6.203125 33.40625 6.203125 
Q 37.3125 6.203125 41.140625 7.25 
Q 44.96875 8.296875 48.78125 10.40625 
L 48.78125 2.09375 
Q 45.015625 0.34375 40.984375 -0.53125 
Q 36.96875 -1.421875 32.421875 -1.421875 
Q 20.0625 -1.421875 12.78125 6.34375 
Q 5.515625 14.109375 5.515625 27.296875 
Q 5.515625 40.671875 12.859375 48.328125 
Q 20.21875 56 33.015625 56 
Q 37.15625 56 41.109375 55.140625 
Q 45.0625 54.296875 48.78125 52.59375 
z
" id="DejaVuSans-63"/>
      <path d="M 9.8125 72.90625 
L 55.90625 72.90625 
L 55.90625 64.59375 
L 19.671875 64.59375 
L 19.671875 43.015625 
L 54.390625 43.015625 
L 54.390625 34.71875 
L 19.671875 34.71875 
L 19.671875 8.296875 
L 56.78125 8.296875 
L 56.78125 0 
L 9.8125 0 
z
" id="DejaVuSans-45"/>
      <path d="M 54.890625 54.6875 
L 35.109375 28.078125 
L 55.90625 0 
L 45.3125 0 
L 29.390625 21.484375 
L 13.484375 0 
L 2.875 0 
L 24.125 28.609375 
L 4.6875 54.6875 
L 15.28125 54.6875 
L 29.78125 35.203125 
L 44.28125 54.6875 
z
" id="DejaVuSans-78"/>
      <path d="M 45.40625 46.390625 
L 45.40625 75.984375 
L 54.390625 75.984375 
L 54.390625 0 
L 45.40625 0 
L 45.40625 8.203125 
Q 42.578125 3.328125 38.25 0.953125 
Q 33.9375 -1.421875 27.875 -1.421875 
Q 17.96875 -1.421875 11.734375 6.484375 
Q 5.515625 14.40625 5.515625 27.296875 
Q 5.515625 40.1875 11.734375 48.09375 
Q 17.96875 56 27.875 56 
Q 33.9375 56 38.25 53.625 
Q 42.578125 51.265625 45.40625 46.390625 
z
M 14.796875 27.296875 
Q 14.796875 17.390625 18.875 11.75 
Q 22.953125 6.109375 30.078125 6.109375 
Q 37.203125 6.109375 41.296875 11.75 
Q 45.40625 17.390625 45.40625 27.296875 
Q 45.40625 37.203125 41.296875 42.84375 
Q 37.203125 48.484375 30.078125 48.484375 
Q 22.953125 48.484375 18.875 42.84375 
Q 14.796875 37.203125 14.796875 27.296875 
z
" id="DejaVuSans-64"/>
     </defs>
     <g transform="translate(43.017187 364.812344)rotate(-90)scale(0.1 -0.1)">
      <use xlink:href="#DejaVuSans-43"/>
      <use x="69.824219" xlink:href="#DejaVuSans-75"/>
      <use x="133.203125" xlink:href="#DejaVuSans-6d"/>
      <use x="230.615234" xlink:href="#DejaVuSans-75"/>
      <use x="293.994141" xlink:href="#DejaVuSans-6c"/>
      <use x="321.777344" xlink:href="#DejaVuSans-61"/>
      <use x="383.056641" xlink:href="#DejaVuSans-74"/>
      <use x="422.265625" xlink:href="#DejaVuSans-69"/>
      <use x="450.048828" xlink:href="#DejaVuSans-76"/>
      <use x="509.228516" xlink:href="#DejaVuSans-65"/>
      <use x="570.751953" xlink:href="#DejaVuSans-20"/>
      <use x="602.539062" xlink:href="#DejaVuSans-56"/>
      <use x="670.837891" xlink:href="#DejaVuSans-61"/>
      <use x="732.117188" xlink:href="#DejaVuSans-72"/>
      <use x="773.230469" xlink:href="#DejaVuSans-69"/>
      <use x="801.013672" xlink:href="#DejaVuSans-61"/>
      <use x="862.292969" xlink:href="#DejaVuSans-6e"/>
      <use x="925.671875" xlink:href="#DejaVuSans-63"/>
      <use x="980.652344" xlink:href="#DejaVuSans-65"/>
      <use x="1042.175781" xlink:href="#DejaVuSans-20"/>
      <use x="1073.962891" xlink:href="#DejaVuSans-45"/>
      <use x="1137.146484" xlink:href="#DejaVuSans-78"/>
      <use x="1196.326172" xlink:href="#DejaVuSans-70"/>
      <use x="1259.802734" xlink:href="#DejaVuSans-6c"/>
      <use x="1287.585938" xlink:href="#DejaVuSans-61"/>
      <use x="1348.865234" xlink:href="#DejaVuSans-69"/>
      <use x="1376.648438" xlink:href="#DejaVuSans-6e"/>
      <use x="1440.027344" xlink:href="#DejaVuSans-65"/>
      <use x="1501.550781" xlink:href="#DejaVuSans-64"/>
     </g>
    </g>
   </g>
   <g id="line2d_14">
    <path clip-path="url(#p029d1be282)" d="M 86.4 318.747612 
L 100.8 190.456354 
L 115.2 129.971698 
L 129.6 101.691408 
L 144 94.208535 
L 158.4 92.059215 
L 172.8 90.823383 
L 187.2 90.208608 
L 201.6 89.759463 
L 216 89.474508 
L 230.4 89.29182 
L 244.8 89.16541 
L 259.2 89.093591 
L 273.6 89.033452 
L 288 88.987023 
L 302.4 88.959629 
L 316.8 88.939103 
L 331.2 88.924758 
L 345.6 88.915179 
L 360 88.908557 
L 374.4 88.902472 
L 388.8 88.898562 
L 403.2 88.895508 
L 417.6 88.89348 
L 432 88.891842 
L 446.4 88.890425 
L 460.8 88.889521 
L 475.2 88.88869 
L 489.6 88.887957 
L 504 88.887419 
" style="fill:none;stroke:#000000;stroke-linecap:square;stroke-width:1.5;"/>
    <defs>
     <path d="M 0 3 
C 0.795609 3 1.55874 2.683901 2.12132 2.12132 
C 2.683901 1.55874 3 0.795609 3 0 
C 3 -0.795609 2.683901 -1.55874 2.12132 -2.12132 
C 1.55874 -2.683901 0.795609 -3 0 -3 
C -0.795609 -3 -1.55874 -2.683901 -2.12132 -2.12132 
C -2.683901 -1.55874 -3 -0.795609 -3 0 
C -3 0.795609 -2.683901 1.55874 -2.12132 2.12132 
C -1.55874 2.683901 -0.795609 3 0 3 
z
" id="m5124599432" style="stroke:#000000;"/>
    </defs>
    <g clip-path="url(#p029d1be282)">
     <use style="stroke:#000000;" x="86.4" xlink:href="#m5124599432" y="318.747612"/>
     <use style="stroke:#000000;" x="100.8" xlink:href="#m5124599432" y="190.456354"/>
     <use style="stroke:#000000;" x="115.2" xlink:href="#m5124599432" y="129.971698"/>
     <use style="stroke:#000000;" x="129.6" xlink:href="#m5124599432" y="101.691408"/>
     <use style="stroke:#000000;" x="144" xlink:href="#m5124599432" y="94.208535"/>
     <use style="stroke:#000000;" x="158.4" xlink:href="#m5124599432" y="92.059215"/>
     <use style="stroke:#000000;" x="172.8" xlink:href="#m5124599432" y="90.823383"/>
     <use style="stroke:#000000;" x="187.2" xlink:href="#m5124599432" y="90.208608"/>
     <use style="stroke:#000000;" x="201.6" xlink:href="#m5124599432" y="89.759463"/>
     <use style="stroke:#000000;" x="216" xlink:href="#m5124599432" y="89.474508"/>
     <use style="stroke:#000000;" x="230.4" xlink:href="#m5124599432" y="89.29182"/>
     <use style="stroke:#000000;" x="244.8" xlink:href="#m5124599432" y="89.16541"/>
     <use style="stroke:#000000;" x="259.2" xlink:href="#m5124599432" y="89.093591"/>
     <use style="stroke:#000000;" x="273.6" xlink:href="#m5124599432" y="89.033452"/>
     <use style="stroke:#000000;" x="288" xlink:href="#m5124599432" y="88.987023"/>
     <use style="stroke:#000000;" x="302.4" xlink:href="#m5124599432" y="88.959629"/>
     <use style="stroke:#000000;" x="316.8" xlink:href="#m5124599432" y="88.939103"/>
     <use style="stroke:#000000;" x="331.2" xlink:href="#m5124599432" y="88.924758"/>
     <use style="stroke:#000000;" x="345.6" xlink:href="#m5124599432" y="88.915179"/>
     <use style="stroke:#000000;" x="360" xlink:href="#m5124599432" y="88.908557"/>
     <use style="stroke:#000000;" x="374.4" xlink:href="#m5124599432" y="88.902472"/>
     <use style="stroke:#000000;" x="388.8" xlink:href="#m5124599432" y="88.898562"/>
     <use style="stroke:#000000;" x="403.2" xlink:href="#m5124599432" y="88.895508"/>
     <use style="stroke:#000000;" x="417.6" xlink:href="#m5124599432" y="88.89348"/>
     <use style="stroke:#000000;" x="432" xlink:href="#m5124599432" y="88.891842"/>
     <use style="stroke:#000000;" x="446.4" xlink:href="#m5124599432" y="88.890425"/>
     <use style="stroke:#000000;" x="460.8" xlink:href="#m5124599432" y="88.889521"/>
     <use style="stroke:#000000;" x="475.2" xlink:href="#m5124599432" y="88.88869"/>
     <use style="stroke:#000000;" x="489.6" xlink:href="#m5124599432" y="88.887957"/>
     <use style="stroke:#000000;" x="504" xlink:href="#m5124599432" y="88.887419"/>
    </g>
   </g>
   <g id="line2d_15">
    <path clip-path="url(#p029d1be282)" d="M 86.4 382.567214 
L 100.8 354.117164 
L 115.2 298.052878 
L 129.6 284.273857 
L 144 255.317163 
L 158.4 247.175014 
L 172.8 227.073381 
L 187.2 203.532274 
L 201.6 194.180294 
L 216 183.940241 
L 230.4 157.626436 
L 244.8 154.255116 
L 259.2 148.512029 
L 273.6 141.247888 
L 288 129.978712 
L 302.4 126.632683 
L 316.8 122.466245 
L 331.2 120.030235 
L 345.6 119.209068 
L 360 118.374144 
L 374.4 111.370105 
L 388.8 110.324488 
L 403.2 106.714886 
L 417.6 106.359994 
L 432 101.414102 
L 446.4 101.015395 
L 460.8 93.795899 
L 475.2 90.553188 
L 489.6 89.363273 
L 504 88.887273 
" style="fill:none;stroke:#0000ff;stroke-linecap:square;stroke-width:1.5;"/>
    <defs>
     <path d="M 0 3 
C 0.795609 3 1.55874 2.683901 2.12132 2.12132 
C 2.683901 1.55874 3 0.795609 3 0 
C 3 -0.795609 2.683901 -1.55874 2.12132 -2.12132 
C 1.55874 -2.683901 0.795609 -3 0 -3 
C -0.795609 -3 -1.55874 -2.683901 -2.12132 -2.12132 
C -2.683901 -1.55874 -3 -0.795609 -3 0 
C -3 0.795609 -2.683901 1.55874 -2.12132 2.12132 
C -1.55874 2.683901 -0.795609 3 0 3 
z
" id="mc37d2f9b53" style="stroke:#0000ff;"/>
    </defs>
    <g clip-path="url(#p029d1be282)">
     <use style="fill:#0000ff;stroke:#0000ff;" x="86.4" xlink:href="#mc37d2f9b53" y="382.567214"/>
     <use style="fill:#0000ff;stroke:#0000ff;" x="100.8" xlink:href="#mc37d2f9b53" y="354.117164"/>
     <use style="fill:#0000ff;stroke:#0000ff;" x="115.2" xlink:href="#mc37d2f9b53" y="298.052878"/>
     <use style="fill:#0000ff;stroke:#0000ff;" x="129.6" xlink:href="#mc37d2f9b53" y="284.273857"/>
     <use style="fill:#0000ff;stroke:#0000ff;" x="144" xlink:href="#mc37d2f9b53" y="255.317163"/>
     <use style="fill:#0000ff;stroke:#0000ff;" x="158.4" xlink:href="#mc37d2f9b53" y="247.175014"/>
     <use style="fill:#0000ff;stroke:#0000ff;" x="172.8" xlink:href="#mc37d2f9b53" y="227.073381"/>
     <use style="fill:#0000ff;stroke:#0000ff;" x="187.2" xlink:href="#mc37d2f9b53" y="203.532274"/>
     <use style="fill:#0000ff;stroke:#0000ff;" x="201.6" xlink:href="#mc37d2f9b53" y="194.180294"/>
     <use style="fill:#0000ff;stroke:#0000ff;" x="216" xlink:href="#mc37d2f9b53" y="183.940241"/>
     <use style="fill:#0000ff;stroke:#0000ff;" x="230.4" xlink:href="#mc37d2f9b53" y="157.626436"/>
     <use style="fill:#0000ff;stroke:#0000ff;" x="244.8" xlink:href="#mc37d2f9b53" y="154.255116"/>
     <use style="fill:#0000ff;stroke:#0000ff;" x="259.2" xlink:href="#mc37d2f9b53" y="148.512029"/>
     <use style="fill:#0000ff;stroke:#0000ff;" x="273.6" xlink:href="#mc37d2f9b53" y="141.247888"/>
     <use style="fill:#0000ff;stroke:#0000ff;" x="288" xlink:href="#mc37d2f9b53" y="129.978712"/>
     <use style="fill:#0000ff;stroke:#0000ff;" x="302.4" xlink:href="#mc37d2f9b53" y="126.632683"/>
     <use style="fill:#0000ff;stroke:#0000ff;" x="316.8" xlink:href="#mc37d2f9b53" y="122.466245"/>
     <use style="fill:#0000ff;stroke:#0000ff;" x="331.2" xlink:href="#mc37d2f9b53" y="120.030235"/>
     <use style="fill:#0000ff;stroke:#0000ff;" x="345.6" xlink:href="#mc37d2f9b53" y="119.209068"/>
     <use style="fill:#0000ff;stroke:#0000ff;" x="360" xlink:href="#mc37d2f9b53" y="118.374144"/>
     <use style="fill:#0000ff;stroke:#0000ff;" x="374.4" xlink:href="#mc37d2f9b53" y="111.370105"/>
     <use style="fill:#0000ff;stroke:#0000ff;" x="388.8" xlink:href="#mc37d2f9b53" y="110.324488"/>
     <use style="fill:#0000ff;stroke:#0000ff;" x="403.2" xlink:href="#mc37d2f9b53" y="106.714886"/>
     <use style="fill:#0000ff;stroke:#0000ff;" x="417.6" xlink:href="#mc37d2f9b53" y="106.359994"/>
     <use style="fill:#0000ff;stroke:#0000ff;" x="432" xlink:href="#mc37d2f9b53" y="101.414102"/>
     <use style="fill:#0000ff;stroke:#0000ff;" x="446.4" xlink:href="#mc37d2f9b53" y="101.015395"/>
     <use style="fill:#0000ff;stroke:#0000ff;" x="460.8" xlink:href="#mc37d2f9b53" y="93.795899"/>
     <use style="fill:#0000ff;stroke:#0000ff;" x="475.2" xlink:href="#mc37d2f9b53" y="90.553188"/>
     <use style="fill:#0000ff;stroke:#0000ff;" x="489.6" xlink:href="#mc37d2f9b53" y="89.363273"/>
     <use style="fill:#0000ff;stroke:#0000ff;" x="504" xlink:href="#mc37d2f9b53" y="88.887273"/>
    </g>
   </g>
   <g id="line2d_16">
    <path clip-path="url(#p029d1be282)" d="M 86.4 426.648341 
L 100.8 382.569695 
L 115.2 369.572559 
L 129.6 334.572281 
L 144 281.808963 
L 158.4 264.009867 
L 172.8 242.732101 
L 187.2 223.612916 
L 201.6 216.107145 
L 216 207.067001 
L 230.4 196.704081 
L 244.8 190.071869 
L 259.2 186.65886 
L 273.6 169.277654 
L 288 160.709112 
L 302.4 158.857307 
L 316.8 153.690557 
L 331.2 150.158958 
L 345.6 143.679621 
L 360 136.057215 
L 374.4 127.594825 
L 388.8 117.282781 
L 403.2 108.72416 
L 417.6 103.398548 
L 432 99.267421 
L 446.4 95.703394 
L 460.8 94.285437 
L 475.2 93.959062 
L 489.6 90.818496 
L 504 88.887419 
" style="fill:none;stroke:#008000;stroke-linecap:square;stroke-width:1.5;"/>
    <defs>
     <path d="M 0 3 
C 0.795609 3 1.55874 2.683901 2.12132 2.12132 
C 2.683901 1.55874 3 0.795609 3 0 
C 3 -0.795609 2.683901 -1.55874 2.12132 -2.12132 
C 1.55874 -2.683901 0.795609 -3 0 -3 
C -0.795609 -3 -1.55874 -2.683901 -2.12132 -2.12132 
C -2.683901 -1.55874 -3 -0.795609 -3 0 
C -3 0.795609 -2.683901 1.55874 -2.12132 2.12132 
C -1.55874 2.683901 -0.795609 3 0 3 
z
" id="m61b985e7d3" style="stroke:#008000;"/>
    </defs>
    <g clip-path="url(#p029d1be282)">
     <use style="fill:#008000;stroke:#008000;" x="86.4" xlink:href="#m61b985e7d3" y="426.648341"/>
     <use style="fill:#008000;stroke:#008000;" x="100.8" xlink:href="#m61b985e7d3" y="382.569695"/>
     <use style="fill:#008000;stroke:#008000;" x="115.2" xlink:href="#m61b985e7d3" y="369.572559"/>
     <use style="fill:#008000;stroke:#008000;" x="129.6" xlink:href="#m61b985e7d3" y="334.572281"/>
     <use style="fill:#008000;stroke:#008000;" x="144" xlink:href="#m61b985e7d3" y="281.808963"/>
     <use style="fill:#008000;stroke:#008000;" x="158.4" xlink:href="#m61b985e7d3" y="264.009867"/>
     <use style="fill:#008000;stroke:#008000;" x="172.8" xlink:href="#m61b985e7d3" y="242.732101"/>
     <use style="fill:#008000;stroke:#008000;" x="187.2" xlink:href="#m61b985e7d3" y="223.612916"/>
     <use style="fill:#008000;stroke:#008000;" x="201.6" xlink:href="#m61b985e7d3" y="216.107145"/>
     <use style="fill:#008000;stroke:#008000;" x="216" xlink:href="#m61b985e7d3" y="207.067001"/>
     <use style="fill:#008000;stroke:#008000;" x="230.4" xlink:href="#m61b985e7d3" y="196.704081"/>
     <use style="fill:#008000;stroke:#008000;" x="244.8" xlink:href="#m61b985e7d3" y="190.071869"/>
     <use style="fill:#008000;stroke:#008000;" x="259.2" xlink:href="#m61b985e7d3" y="186.65886"/>
     <use style="fill:#008000;stroke:#008000;" x="273.6" xlink:href="#m61b985e7d3" y="169.277654"/>
     <use style="fill:#008000;stroke:#008000;" x="288" xlink:href="#m61b985e7d3" y="160.709112"/>
     <use style="fill:#008000;stroke:#008000;" x="302.4" xlink:href="#m61b985e7d3" y="158.857307"/>
     <use style="fill:#008000;stroke:#008000;" x="316.8" xlink:href="#m61b985e7d3" y="153.690557"/>
     <use style="fill:#008000;stroke:#008000;" x="331.2" xlink:href="#m61b985e7d3" y="150.158958"/>
     <use style="fill:#008000;stroke:#008000;" x="345.6" xlink:href="#m61b985e7d3" y="143.679621"/>
     <use style="fill:#008000;stroke:#008000;" x="360" xlink:href="#m61b985e7d3" y="136.057215"/>
     <use style="fill:#008000;stroke:#008000;" x="374.4" xlink:href="#m61b985e7d3" y="127.594825"/>
     <use style="fill:#008000;stroke:#008000;" x="388.8" xlink:href="#m61b985e7d3" y="117.282781"/>
     <use style="fill:#008000;stroke:#008000;" x="403.2" xlink:href="#m61b985e7d3" y="108.72416"/>
     <use style="fill:#008000;stroke:#008000;" x="417.6" xlink:href="#m61b985e7d3" y="103.398548"/>
     <use style="fill:#008000;stroke:#008000;" x="432" xlink:href="#m61b985e7d3" y="99.267421"/>
     <use style="fill:#008000;stroke:#008000;" x="446.4" xlink:href="#m61b985e7d3" y="95.703394"/>
     <use style="fill:#008000;stroke:#008000;" x="460.8" xlink:href="#m61b985e7d3" y="94.285437"/>
     <use style="fill:#008000;stroke:#008000;" x="475.2" xlink:href="#m61b985e7d3" y="93.959062"/>
     <use style="fill:#008000;stroke:#008000;" x="489.6" xlink:href="#m61b985e7d3" y="90.818496"/>
     <use style="fill:#008000;stroke:#008000;" x="504" xlink:href="#m61b985e7d3" y="88.887419"/>
    </g>
   </g>
   <g id="line2d_17">
    <path clip-path="url(#p029d1be282)" d="M 86.4 478.063062 
L 100.8 441.284115 
L 115.2 406.19611 
L 129.6 401.055092 
L 144 390.994025 
L 158.4 376.948095 
L 172.8 367.430252 
L 187.2 365.546937 
L 201.6 315.942109 
L 216 300.979392 
L 230.4 242.224333 
L 244.8 234.272473 
L 259.2 232.41517 
L 273.6 225.517357 
L 288 213.067918 
L 302.4 211.820968 
L 316.8 201.385446 
L 331.2 195.116607 
L 345.6 184.625736 
L 360 169.430187 
L 374.4 164.788018 
L 388.8 150.487532 
L 403.2 137.942229 
L 417.6 131.08933 
L 432 126.804473 
L 446.4 123.822598 
L 460.8 98.290642 
L 475.2 95.156601 
L 489.6 91.659603 
L 504 88.887468 
" style="fill:none;stroke:#ff0000;stroke-linecap:square;stroke-width:1.5;"/>
    <defs>
     <path d="M 0 3 
C 0.795609 3 1.55874 2.683901 2.12132 2.12132 
C 2.683901 1.55874 3 0.795609 3 0 
C 3 -0.795609 2.683901 -1.55874 2.12132 -2.12132 
C 1.55874 -2.683901 0.795609 -3 0 -3 
C -0.795609 -3 -1.55874 -2.683901 -2.12132 -2.12132 
C -2.683901 -1.55874 -3 -0.795609 -3 0 
C -3 0.795609 -2.683901 1.55874 -2.12132 2.12132 
C -1.55874 2.683901 -0.795609 3 0 3 
z
" id="me86dc49de8" style="stroke:#ff0000;"/>
    </defs>
    <g clip-path="url(#p029d1be282)">
     <use style="fill:#ff0000;stroke:#ff0000;" x="86.4" xlink:href="#me86dc49de8" y="478.063062"/>
     <use style="fill:#ff0000;stroke:#ff0000;" x="100.8" xlink:href="#me86dc49de8" y="441.284115"/>
     <use style="fill:#ff0000;stroke:#ff0000;" x="115.2" xlink:href="#me86dc49de8" y="406.19611"/>
     <use style="fill:#ff0000;stroke:#ff0000;" x="129.6" xlink:href="#me86dc49de8" y="401.055092"/>
     <use style="fill:#ff0000;stroke:#ff0000;" x="144" xlink:href="#me86dc49de8" y="390.994025"/>
     <use style="fill:#ff0000;stroke:#ff0000;" x="158.4" xlink:href="#me86dc49de8" y="376.948095"/>
     <use style="fill:#ff0000;stroke:#ff0000;" x="172.8" xlink:href="#me86dc49de8" y="367.430252"/>
     <use style="fill:#ff0000;stroke:#ff0000;" x="187.2" xlink:href="#me86dc49de8" y="365.546937"/>
     <use style="fill:#ff0000;stroke:#ff0000;" x="201.6" xlink:href="#me86dc49de8" y="315.942109"/>
     <use style="fill:#ff0000;stroke:#ff0000;" x="216" xlink:href="#me86dc49de8" y="300.979392"/>
     <use style="fill:#ff0000;stroke:#ff0000;" x="230.4" xlink:href="#me86dc49de8" y="242.224333"/>
     <use style="fill:#ff0000;stroke:#ff0000;" x="244.8" xlink:href="#me86dc49de8" y="234.272473"/>
     <use style="fill:#ff0000;stroke:#ff0000;" x="259.2" xlink:href="#me86dc49de8" y="232.41517"/>
     <use style="fill:#ff0000;stroke:#ff0000;" x="273.6" xlink:href="#me86dc49de8" y="225.517357"/>
     <use style="fill:#ff0000;stroke:#ff0000;" x="288" xlink:href="#me86dc49de8" y="213.067918"/>
     <use style="fill:#ff0000;stroke:#ff0000;" x="302.4" xlink:href="#me86dc49de8" y="211.820968"/>
     <use style="fill:#ff0000;stroke:#ff0000;" x="316.8" xlink:href="#me86dc49de8" y="201.385446"/>
     <use style="fill:#ff0000;stroke:#ff0000;" x="331.2" xlink:href="#me86dc49de8" y="195.116607"/>
     <use style="fill:#ff0000;stroke:#ff0000;" x="345.6" xlink:href="#me86dc49de8" y="184.625736"/>
     <use style="fill:#ff0000;stroke:#ff0000;" x="360" xlink:href="#me86dc49de8" y="169.430187"/>
     <use style="fill:#ff0000;stroke:#ff0000;" x="374.4" xlink:href="#me86dc49de8" y="164.788018"/>
     <use style="fill:#ff0000;stroke:#ff0000;" x="388.8" xlink:href="#me86dc49de8" y="150.487532"/>
     <use style="fill:#ff0000;stroke:#ff0000;" x="403.2" xlink:href="#me86dc49de8" y="137.942229"/>
     <use style="fill:#ff0000;stroke:#ff0000;" x="417.6" xlink:href="#me86dc49de8" y="131.08933"/>
     <use style="fill:#ff0000;stroke:#ff0000;" x="432" xlink:href="#me86dc49de8" y="126.804473"/>
     <use style="fill:#ff0000;stroke:#ff0000;" x="446.4" xlink:href="#me86dc49de8" y="123.822598"/>
     <use style="fill:#ff0000;stroke:#ff0000;" x="460.8" xlink:href="#me86dc49de8" y="98.290642"/>
     <use style="fill:#ff0000;stroke:#ff0000;" x="475.2" xlink:href="#me86dc49de8" y="95.156601"/>
     <use style="fill:#ff0000;stroke:#ff0000;" x="489.6" xlink:href="#me86dc49de8" y="91.659603"/>
     <use style="fill:#ff0000;stroke:#ff0000;" x="504" xlink:href="#me86dc49de8" y="88.887468"/>
    </g>
   </g>
   <g id="line2d_18">
    <path clip-path="url(#p029d1be282)" d="M 86.4 314.744008 
L 100.8 195.500383 
L 115.2 127.951672 
L 129.6 104.465376 
L 144 95.590913 
L 158.4 91.137394 
L 172.8 90.209561 
L 187.2 89.701989 
L 201.6 89.368722 
L 216 89.101973 
L 230.4 89.033208 
L 244.8 88.996358 
L 259.2 88.964272 
L 273.6 88.942182 
L 288 88.92361 
L 302.4 88.911636 
L 316.8 88.903059 
L 331.2 88.898538 
L 345.6 88.895019 
L 360 88.89282 
L 374.4 88.891256 
L 388.8 88.890303 
L 403.2 88.889545 
L 417.6 88.888983 
L 432 88.888519 
L 446.4 88.888152 
L 460.8 88.887835 
L 475.2 88.887615 
L 489.6 88.887444 
L 504 88.88737 
" style="fill:none;stroke:#000000;stroke-linecap:square;stroke-width:1.5;"/>
    <g clip-path="url(#p029d1be282)">
     <use style="stroke:#000000;" x="86.4" xlink:href="#m5124599432" y="314.744008"/>
     <use style="stroke:#000000;" x="100.8" xlink:href="#m5124599432" y="195.500383"/>
     <use style="stroke:#000000;" x="115.2" xlink:href="#m5124599432" y="127.951672"/>
     <use style="stroke:#000000;" x="129.6" xlink:href="#m5124599432" y="104.465376"/>
     <use style="stroke:#000000;" x="144" xlink:href="#m5124599432" y="95.590913"/>
     <use style="stroke:#000000;" x="158.4" xlink:href="#m5124599432" y="91.137394"/>
     <use style="stroke:#000000;" x="172.8" xlink:href="#m5124599432" y="90.209561"/>
     <use style="stroke:#000000;" x="187.2" xlink:href="#m5124599432" y="89.701989"/>
     <use style="stroke:#000000;" x="201.6" xlink:href="#m5124599432" y="89.368722"/>
     <use style="stroke:#000000;" x="216" xlink:href="#m5124599432" y="89.101973"/>
     <use style="stroke:#000000;" x="230.4" xlink:href="#m5124599432" y="89.033208"/>
     <use style="stroke:#000000;" x="244.8" xlink:href="#m5124599432" y="88.996358"/>
     <use style="stroke:#000000;" x="259.2" xlink:href="#m5124599432" y="88.964272"/>
     <use style="stroke:#000000;" x="273.6" xlink:href="#m5124599432" y="88.942182"/>
     <use style="stroke:#000000;" x="288" xlink:href="#m5124599432" y="88.92361"/>
     <use style="stroke:#000000;" x="302.4" xlink:href="#m5124599432" y="88.911636"/>
     <use style="stroke:#000000;" x="316.8" xlink:href="#m5124599432" y="88.903059"/>
     <use style="stroke:#000000;" x="331.2" xlink:href="#m5124599432" y="88.898538"/>
     <use style="stroke:#000000;" x="345.6" xlink:href="#m5124599432" y="88.895019"/>
     <use style="stroke:#000000;" x="360" xlink:href="#m5124599432" y="88.89282"/>
     <use style="stroke:#000000;" x="374.4" xlink:href="#m5124599432" y="88.891256"/>
     <use style="stroke:#000000;" x="388.8" xlink:href="#m5124599432" y="88.890303"/>
     <use style="stroke:#000000;" x="403.2" xlink:href="#m5124599432" y="88.889545"/>
     <use style="stroke:#000000;" x="417.6" xlink:href="#m5124599432" y="88.888983"/>
     <use style="stroke:#000000;" x="432" xlink:href="#m5124599432" y="88.888519"/>
     <use style="stroke:#000000;" x="446.4" xlink:href="#m5124599432" y="88.888152"/>
     <use style="stroke:#000000;" x="460.8" xlink:href="#m5124599432" y="88.887835"/>
     <use style="stroke:#000000;" x="475.2" xlink:href="#m5124599432" y="88.887615"/>
     <use style="stroke:#000000;" x="489.6" xlink:href="#m5124599432" y="88.887444"/>
     <use style="stroke:#000000;" x="504" xlink:href="#m5124599432" y="88.88737"/>
    </g>
   </g>
   <g id="line2d_19">
    <path clip-path="url(#p029d1be282)" d="M 86.4 378.388167 
L 100.8 347.089153 
L 115.2 306.239709 
L 129.6 275.741579 
L 144 235.376566 
L 158.4 203.096301 
L 172.8 191.894447 
L 187.2 176.022494 
L 201.6 169.245813 
L 216 162.768358 
L 230.4 148.744739 
L 244.8 137.934482 
L 259.2 136.532457 
L 273.6 126.948233 
L 288 124.451107 
L 302.4 120.059242 
L 316.8 114.376929 
L 331.2 111.465261 
L 345.6 110.138305 
L 360 104.072094 
L 374.4 101.710151 
L 388.8 99.199341 
L 403.2 97.432918 
L 417.6 96.557428 
L 432 95.688366 
L 446.4 94.194459 
L 460.8 92.969111 
L 475.2 90.423919 
L 489.6 89.346387 
L 504 88.887395 
" style="fill:none;stroke:#0000ff;stroke-linecap:square;stroke-width:1.5;"/>
    <g clip-path="url(#p029d1be282)">
     <use style="fill:#0000ff;stroke:#0000ff;" x="86.4" xlink:href="#mc37d2f9b53" y="378.388167"/>
     <use style="fill:#0000ff;stroke:#0000ff;" x="100.8" xlink:href="#mc37d2f9b53" y="347.089153"/>
     <use style="fill:#0000ff;stroke:#0000ff;" x="115.2" xlink:href="#mc37d2f9b53" y="306.239709"/>
     <use style="fill:#0000ff;stroke:#0000ff;" x="129.6" xlink:href="#mc37d2f9b53" y="275.741579"/>
     <use style="fill:#0000ff;stroke:#0000ff;" x="144" xlink:href="#mc37d2f9b53" y="235.376566"/>
     <use style="fill:#0000ff;stroke:#0000ff;" x="158.4" xlink:href="#mc37d2f9b53" y="203.096301"/>
     <use style="fill:#0000ff;stroke:#0000ff;" x="172.8" xlink:href="#mc37d2f9b53" y="191.894447"/>
     <use style="fill:#0000ff;stroke:#0000ff;" x="187.2" xlink:href="#mc37d2f9b53" y="176.022494"/>
     <use style="fill:#0000ff;stroke:#0000ff;" x="201.6" xlink:href="#mc37d2f9b53" y="169.245813"/>
     <use style="fill:#0000ff;stroke:#0000ff;" x="216" xlink:href="#mc37d2f9b53" y="162.768358"/>
     <use style="fill:#0000ff;stroke:#0000ff;" x="230.4" xlink:href="#mc37d2f9b53" y="148.744739"/>
     <use style="fill:#0000ff;stroke:#0000ff;" x="244.8" xlink:href="#mc37d2f9b53" y="137.934482"/>
     <use style="fill:#0000ff;stroke:#0000ff;" x="259.2" xlink:href="#mc37d2f9b53" y="136.532457"/>
     <use style="fill:#0000ff;stroke:#0000ff;" x="273.6" xlink:href="#mc37d2f9b53" y="126.948233"/>
     <use style="fill:#0000ff;stroke:#0000ff;" x="288" xlink:href="#mc37d2f9b53" y="124.451107"/>
     <use style="fill:#0000ff;stroke:#0000ff;" x="302.4" xlink:href="#mc37d2f9b53" y="120.059242"/>
     <use style="fill:#0000ff;stroke:#0000ff;" x="316.8" xlink:href="#mc37d2f9b53" y="114.376929"/>
     <use style="fill:#0000ff;stroke:#0000ff;" x="331.2" xlink:href="#mc37d2f9b53" y="111.465261"/>
     <use style="fill:#0000ff;stroke:#0000ff;" x="345.6" xlink:href="#mc37d2f9b53" y="110.138305"/>
     <use style="fill:#0000ff;stroke:#0000ff;" x="360" xlink:href="#mc37d2f9b53" y="104.072094"/>
     <use style="fill:#0000ff;stroke:#0000ff;" x="374.4" xlink:href="#mc37d2f9b53" y="101.710151"/>
     <use style="fill:#0000ff;stroke:#0000ff;" x="388.8" xlink:href="#mc37d2f9b53" y="99.199341"/>
     <use style="fill:#0000ff;stroke:#0000ff;" x="403.2" xlink:href="#mc37d2f9b53" y="97.432918"/>
     <use style="fill:#0000ff;stroke:#0000ff;" x="417.6" xlink:href="#mc37d2f9b53" y="96.557428"/>
     <use style="fill:#0000ff;stroke:#0000ff;" x="432" xlink:href="#mc37d2f9b53" y="95.688366"/>
     <use style="fill:#0000ff;stroke:#0000ff;" x="446.4" xlink:href="#mc37d2f9b53" y="94.194459"/>
     <use style="fill:#0000ff;stroke:#0000ff;" x="460.8" xlink:href="#mc37d2f9b53" y="92.969111"/>
     <use style="fill:#0000ff;stroke:#0000ff;" x="475.2" xlink:href="#mc37d2f9b53" y="90.423919"/>
     <use style="fill:#0000ff;stroke:#0000ff;" x="489.6" xlink:href="#mc37d2f9b53" y="89.346387"/>
     <use style="fill:#0000ff;stroke:#0000ff;" x="504" xlink:href="#mc37d2f9b53" y="88.887395"/>
    </g>
   </g>
   <g id="line2d_20">
    <path clip-path="url(#p029d1be282)" d="M 86.4 420.076769 
L 100.8 346.674635 
L 115.2 321.620952 
L 129.6 297.749083 
L 144 277.634926 
L 158.4 265.880928 
L 172.8 242.198968 
L 187.2 228.798531 
L 201.6 223.846701 
L 216 212.013211 
L 230.4 195.228257 
L 244.8 187.134103 
L 259.2 184.051989 
L 273.6 175.858035 
L 288 165.10865 
L 302.4 164.207673 
L 316.8 159.034717 
L 331.2 154.926267 
L 345.6 153.704706 
L 360 119.12921 
L 374.4 118.165382 
L 388.8 114.433866 
L 403.2 108.896585 
L 417.6 102.018199 
L 432 97.88607 
L 446.4 93.955689 
L 460.8 93.654509 
L 475.2 91.673288 
L 489.6 90.527847 
L 504 88.88737 
" style="fill:none;stroke:#008000;stroke-linecap:square;stroke-width:1.5;"/>
    <g clip-path="url(#p029d1be282)">
     <use style="fill:#008000;stroke:#008000;" x="86.4" xlink:href="#m61b985e7d3" y="420.076769"/>
     <use style="fill:#008000;stroke:#008000;" x="100.8" xlink:href="#m61b985e7d3" y="346.674635"/>
     <use style="fill:#008000;stroke:#008000;" x="115.2" xlink:href="#m61b985e7d3" y="321.620952"/>
     <use style="fill:#008000;stroke:#008000;" x="129.6" xlink:href="#m61b985e7d3" y="297.749083"/>
     <use style="fill:#008000;stroke:#008000;" x="144" xlink:href="#m61b985e7d3" y="277.634926"/>
     <use style="fill:#008000;stroke:#008000;" x="158.4" xlink:href="#m61b985e7d3" y="265.880928"/>
     <use style="fill:#008000;stroke:#008000;" x="172.8" xlink:href="#m61b985e7d3" y="242.198968"/>
     <use style="fill:#008000;stroke:#008000;" x="187.2" xlink:href="#m61b985e7d3" y="228.798531"/>
     <use style="fill:#008000;stroke:#008000;" x="201.6" xlink:href="#m61b985e7d3" y="223.846701"/>
     <use style="fill:#008000;stroke:#008000;" x="216" xlink:href="#m61b985e7d3" y="212.013211"/>
     <use style="fill:#008000;stroke:#008000;" x="230.4" xlink:href="#m61b985e7d3" y="195.228257"/>
     <use style="fill:#008000;stroke:#008000;" x="244.8" xlink:href="#m61b985e7d3" y="187.134103"/>
     <use style="fill:#008000;stroke:#008000;" x="259.2" xlink:href="#m61b985e7d3" y="184.051989"/>
     <use style="fill:#008000;stroke:#008000;" x="273.6" xlink:href="#m61b985e7d3" y="175.858035"/>
     <use style="fill:#008000;stroke:#008000;" x="288" xlink:href="#m61b985e7d3" y="165.10865"/>
     <use style="fill:#008000;stroke:#008000;" x="302.4" xlink:href="#m61b985e7d3" y="164.207673"/>
     <use style="fill:#008000;stroke:#008000;" x="316.8" xlink:href="#m61b985e7d3" y="159.034717"/>
     <use style="fill:#008000;stroke:#008000;" x="331.2" xlink:href="#m61b985e7d3" y="154.926267"/>
     <use style="fill:#008000;stroke:#008000;" x="345.6" xlink:href="#m61b985e7d3" y="153.704706"/>
     <use style="fill:#008000;stroke:#008000;" x="360" xlink:href="#m61b985e7d3" y="119.12921"/>
     <use style="fill:#008000;stroke:#008000;" x="374.4" xlink:href="#m61b985e7d3" y="118.165382"/>
     <use style="fill:#008000;stroke:#008000;" x="388.8" xlink:href="#m61b985e7d3" y="114.433866"/>
     <use style="fill:#008000;stroke:#008000;" x="403.2" xlink:href="#m61b985e7d3" y="108.896585"/>
     <use style="fill:#008000;stroke:#008000;" x="417.6" xlink:href="#m61b985e7d3" y="102.018199"/>
     <use style="fill:#008000;stroke:#008000;" x="432" xlink:href="#m61b985e7d3" y="97.88607"/>
     <use style="fill:#008000;stroke:#008000;" x="446.4" xlink:href="#m61b985e7d3" y="93.955689"/>
     <use style="fill:#008000;stroke:#008000;" x="460.8" xlink:href="#m61b985e7d3" y="93.654509"/>
     <use style="fill:#008000;stroke:#008000;" x="475.2" xlink:href="#m61b985e7d3" y="91.673288"/>
     <use style="fill:#008000;stroke:#008000;" x="489.6" xlink:href="#m61b985e7d3" y="90.527847"/>
     <use style="fill:#008000;stroke:#008000;" x="504" xlink:href="#m61b985e7d3" y="88.88737"/>
    </g>
   </g>
   <g id="line2d_21">
    <path clip-path="url(#p029d1be282)" d="M 86.4 484.232727 
L 100.8 470.940741 
L 115.2 442.409799 
L 129.6 372.872304 
L 144 323.810812 
L 158.4 307.373151 
L 172.8 297.58168 
L 187.2 278.129058 
L 201.6 270.62077 
L 216 259.451222 
L 230.4 249.866631 
L 244.8 219.233342 
L 259.2 217.736626 
L 273.6 185.904478 
L 288 181.648602 
L 302.4 181.031358 
L 316.8 169.737795 
L 331.2 167.05605 
L 345.6 156.456364 
L 360 156.058072 
L 374.4 151.535935 
L 388.8 135.902702 
L 403.2 133.95017 
L 417.6 129.557547 
L 432 123.845984 
L 446.4 118.547326 
L 460.8 114.201279 
L 475.2 102.894373 
L 489.6 92.310912 
L 504 88.887395 
" style="fill:none;stroke:#ff0000;stroke-linecap:square;stroke-width:1.5;"/>
    <g clip-path="url(#p029d1be282)">
     <use style="fill:#ff0000;stroke:#ff0000;" x="86.4" xlink:href="#me86dc49de8" y="484.232727"/>
     <use style="fill:#ff0000;stroke:#ff0000;" x="100.8" xlink:href="#me86dc49de8" y="470.940741"/>
     <use style="fill:#ff0000;stroke:#ff0000;" x="115.2" xlink:href="#me86dc49de8" y="442.409799"/>
     <use style="fill:#ff0000;stroke:#ff0000;" x="129.6" xlink:href="#me86dc49de8" y="372.872304"/>
     <use style="fill:#ff0000;stroke:#ff0000;" x="144" xlink:href="#me86dc49de8" y="323.810812"/>
     <use style="fill:#ff0000;stroke:#ff0000;" x="158.4" xlink:href="#me86dc49de8" y="307.373151"/>
     <use style="fill:#ff0000;stroke:#ff0000;" x="172.8" xlink:href="#me86dc49de8" y="297.58168"/>
     <use style="fill:#ff0000;stroke:#ff0000;" x="187.2" xlink:href="#me86dc49de8" y="278.129058"/>
     <use style="fill:#ff0000;stroke:#ff0000;" x="201.6" xlink:href="#me86dc49de8" y="270.62077"/>
     <use style="fill:#ff0000;stroke:#ff0000;" x="216" xlink:href="#me86dc49de8" y="259.451222"/>
     <use style="fill:#ff0000;stroke:#ff0000;" x="230.4" xlink:href="#me86dc49de8" y="249.866631"/>
     <use style="fill:#ff0000;stroke:#ff0000;" x="244.8" xlink:href="#me86dc49de8" y="219.233342"/>
     <use style="fill:#ff0000;stroke:#ff0000;" x="259.2" xlink:href="#me86dc49de8" y="217.736626"/>
     <use style="fill:#ff0000;stroke:#ff0000;" x="273.6" xlink:href="#me86dc49de8" y="185.904478"/>
     <use style="fill:#ff0000;stroke:#ff0000;" x="288" xlink:href="#me86dc49de8" y="181.648602"/>
     <use style="fill:#ff0000;stroke:#ff0000;" x="302.4" xlink:href="#me86dc49de8" y="181.031358"/>
     <use style="fill:#ff0000;stroke:#ff0000;" x="316.8" xlink:href="#me86dc49de8" y="169.737795"/>
     <use style="fill:#ff0000;stroke:#ff0000;" x="331.2" xlink:href="#me86dc49de8" y="167.05605"/>
     <use style="fill:#ff0000;stroke:#ff0000;" x="345.6" xlink:href="#me86dc49de8" y="156.456364"/>
     <use style="fill:#ff0000;stroke:#ff0000;" x="360" xlink:href="#me86dc49de8" y="156.058072"/>
     <use style="fill:#ff0000;stroke:#ff0000;" x="374.4" xlink:href="#me86dc49de8" y="151.535935"/>
     <use style="fill:#ff0000;stroke:#ff0000;" x="388.8" xlink:href="#me86dc49de8" y="135.902702"/>
     <use style="fill:#ff0000;stroke:#ff0000;" x="403.2" xlink:href="#me86dc49de8" y="133.95017"/>
     <use style="fill:#ff0000;stroke:#ff0000;" x="417.6" xlink:href="#me86dc49de8" y="129.557547"/>
     <use style="fill:#ff0000;stroke:#ff0000;" x="432" xlink:href="#me86dc49de8" y="123.845984"/>
     <use style="fill:#ff0000;stroke:#ff0000;" x="446.4" xlink:href="#me86dc49de8" y="118.547326"/>
     <use style="fill:#ff0000;stroke:#ff0000;" x="460.8" xlink:href="#me86dc49de8" y="114.201279"/>
     <use style="fill:#ff0000;stroke:#ff0000;" x="475.2" xlink:href="#me86dc49de8" y="102.894373"/>
     <use style="fill:#ff0000;stroke:#ff0000;" x="489.6" xlink:href="#me86dc49de8" y="92.310912"/>
     <use style="fill:#ff0000;stroke:#ff0000;" x="504" xlink:href="#me86dc49de8" y="88.887395"/>
    </g>
   </g>
   <g id="patch_3">
    <path d="M 72 504 
L 72 69.12 
" style="fill:none;stroke:#000000;stroke-linecap:square;stroke-linejoin:miter;stroke-width:0.8;"/>
   </g>
   <g id="patch_4">
    <path d="M 518.4 504 
L 518.4 69.12 
" style="fill:none;stroke:#000000;stroke-linecap:square;stroke-linejoin:miter;stroke-width:0.8;"/>
   </g>
   <g id="patch_5">
    <path d="M 72 504 
L 518.4 504 
" style="fill:none;stroke:#000000;stroke-linecap:square;stroke-linejoin:miter;stroke-width:0.8;"/>
   </g>
   <g id="patch_6">
    <path d="M 72 69.12 
L 518.4 69.12 
" style="fill:none;stroke:#000000;stroke-linecap:square;stroke-linejoin:miter;stroke-width:0.8;"/>
   </g>
   <g id="text_16">
    <!-- stepnet/lowD/grad_norm_both/ -->
    <defs>
     <path d="M 25.390625 72.90625 
L 33.6875 72.90625 
L 8.296875 -9.28125 
L 0 -9.28125 
z
" id="DejaVuSans-2f"/>
     <path d="M 4.203125 54.6875 
L 13.1875 54.6875 
L 24.421875 12.015625 
L 35.59375 54.6875 
L 46.1875 54.6875 
L 57.421875 12.015625 
L 68.609375 54.6875 
L 77.59375 54.6875 
L 63.28125 0 
L 52.6875 0 
L 40.921875 44.828125 
L 29.109375 0 
L 18.5 0 
z
" id="DejaVuSans-77"/>
     <path d="M 19.671875 64.796875 
L 19.671875 8.109375 
L 31.59375 8.109375 
Q 46.6875 8.109375 53.6875 14.9375 
Q 60.6875 21.78125 60.6875 36.53125 
Q 60.6875 51.171875 53.6875 57.984375 
Q 46.6875 64.796875 31.59375 64.796875 
z
M 9.8125 72.90625 
L 30.078125 72.90625 
Q 51.265625 72.90625 61.171875 64.09375 
Q 71.09375 55.28125 71.09375 36.53125 
Q 71.09375 17.671875 61.125 8.828125 
Q 51.171875 0 30.078125 0 
L 9.8125 0 
z
" id="DejaVuSans-44"/>
     <path d="M 45.40625 27.984375 
Q 45.40625 37.75 41.375 43.109375 
Q 37.359375 48.484375 30.078125 48.484375 
Q 22.859375 48.484375 18.828125 43.109375 
Q 14.796875 37.75 14.796875 27.984375 
Q 14.796875 18.265625 18.828125 12.890625 
Q 22.859375 7.515625 30.078125 7.515625 
Q 37.359375 7.515625 41.375 12.890625 
Q 45.40625 18.265625 45.40625 27.984375 
z
M 54.390625 6.78125 
Q 54.390625 -7.171875 48.1875 -13.984375 
Q 42 -20.796875 29.203125 -20.796875 
Q 24.46875 -20.796875 20.265625 -20.09375 
Q 16.0625 -19.390625 12.109375 -17.921875 
L 12.109375 -9.1875 
Q 16.0625 -11.328125 19.921875 -12.34375 
Q 23.78125 -13.375 27.78125 -13.375 
Q 36.625 -13.375 41.015625 -8.765625 
Q 45.40625 -4.15625 45.40625 5.171875 
L 45.40625 9.625 
Q 42.625 4.78125 38.28125 2.390625 
Q 33.9375 0 27.875 0 
Q 17.828125 0 11.671875 7.65625 
Q 5.515625 15.328125 5.515625 27.984375 
Q 5.515625 40.671875 11.671875 48.328125 
Q 17.828125 56 27.875 56 
Q 33.9375 56 38.28125 53.609375 
Q 42.625 51.21875 45.40625 46.390625 
L 45.40625 54.6875 
L 54.390625 54.6875 
z
" id="DejaVuSans-67"/>
     <path d="M 50.984375 -16.609375 
L 50.984375 -23.578125 
L -0.984375 -23.578125 
L -0.984375 -16.609375 
z
" id="DejaVuSans-5f"/>
     <path d="M 48.6875 27.296875 
Q 48.6875 37.203125 44.609375 42.84375 
Q 40.53125 48.484375 33.40625 48.484375 
Q 26.265625 48.484375 22.1875 42.84375 
Q 18.109375 37.203125 18.109375 27.296875 
Q 18.109375 17.390625 22.1875 11.75 
Q 26.265625 6.109375 33.40625 6.109375 
Q 40.53125 6.109375 44.609375 11.75 
Q 48.6875 17.390625 48.6875 27.296875 
z
M 18.109375 46.390625 
Q 20.953125 51.265625 25.265625 53.625 
Q 29.59375 56 35.59375 56 
Q 45.5625 56 51.78125 48.09375 
Q 58.015625 40.1875 58.015625 27.296875 
Q 58.015625 14.40625 51.78125 6.484375 
Q 45.5625 -1.421875 35.59375 -1.421875 
Q 29.59375 -1.421875 25.265625 0.953125 
Q 20.953125 3.328125 18.109375 8.203125 
L 18.109375 0 
L 9.078125 0 
L 9.078125 75.984375 
L 18.109375 75.984375 
z
" id="DejaVuSans-62"/>
     <path d="M 54.890625 33.015625 
L 54.890625 0 
L 45.90625 0 
L 45.90625 32.71875 
Q 45.90625 40.484375 42.875 44.328125 
Q 39.84375 48.1875 33.796875 48.1875 
Q 26.515625 48.1875 22.3125 43.546875 
Q 18.109375 38.921875 18.109375 30.90625 
L 18.109375 0 
L 9.078125 0 
L 9.078125 75.984375 
L 18.109375 75.984375 
L 18.109375 46.1875 
Q 21.34375 51.125 25.703125 53.5625 
Q 30.078125 56 35.796875 56 
Q 45.21875 56 50.046875 50.171875 
Q 54.890625 44.34375 54.890625 33.015625 
z
" id="DejaVuSans-68"/>
    </defs>
    <g transform="translate(202.265625 63.12)scale(0.12 -0.12)">
     <use xlink:href="#DejaVuSans-73"/>
     <use x="52.099609" xlink:href="#DejaVuSans-74"/>
     <use x="91.308594" xlink:href="#DejaVuSans-65"/>
     <use x="152.832031" xlink:href="#DejaVuSans-70"/>
     <use x="216.308594" xlink:href="#DejaVuSans-6e"/>
     <use x="279.6875" xlink:href="#DejaVuSans-65"/>
     <use x="341.210938" xlink:href="#DejaVuSans-74"/>
     <use x="380.419922" xlink:href="#DejaVuSans-2f"/>
     <use x="414.111328" xlink:href="#DejaVuSans-6c"/>
     <use x="441.894531" xlink:href="#DejaVuSans-6f"/>
     <use x="503.076172" xlink:href="#DejaVuSans-77"/>
     <use x="584.863281" xlink:href="#DejaVuSans-44"/>
     <use x="661.865234" xlink:href="#DejaVuSans-2f"/>
     <use x="695.556641" xlink:href="#DejaVuSans-67"/>
     <use x="759.033203" xlink:href="#DejaVuSans-72"/>
     <use x="800.146484" xlink:href="#DejaVuSans-61"/>
     <use x="861.425781" xlink:href="#DejaVuSans-64"/>
     <use x="924.902344" xlink:href="#DejaVuSans-5f"/>
     <use x="974.902344" xlink:href="#DejaVuSans-6e"/>
     <use x="1038.28125" xlink:href="#DejaVuSans-6f"/>
     <use x="1099.462891" xlink:href="#DejaVuSans-72"/>
     <use x="1140.560547" xlink:href="#DejaVuSans-6d"/>
     <use x="1237.972656" xlink:href="#DejaVuSans-5f"/>
     <use x="1287.972656" xlink:href="#DejaVuSans-62"/>
     <use x="1351.449219" xlink:href="#DejaVuSans-6f"/>
     <use x="1412.630859" xlink:href="#DejaVuSans-74"/>
     <use x="1451.839844" xlink:href="#DejaVuSans-68"/>
     <use x="1515.21875" xlink:href="#DejaVuSans-2f"/>
    </g>
   </g>
   <g id="legend_1">
    <g id="patch_7">
     <path d="M 415.484375 499 
L 511.4 499 
Q 513.4 499 513.4 497 
L 513.4 439.2875 
Q 513.4 437.2875 511.4 437.2875 
L 415.484375 437.2875 
Q 413.484375 437.2875 413.484375 439.2875 
L 413.484375 497 
Q 413.484375 499 415.484375 499 
z
" style="fill:#ffffff;opacity:0.8;stroke:#cccccc;stroke-linejoin:miter;"/>
    </g>
    <g id="line2d_22">
     <path d="M 417.484375 445.385938 
L 437.484375 445.385938 
" style="fill:none;stroke:#000000;stroke-linecap:square;stroke-width:1.5;"/>
    </g>
    <g id="line2d_23">
     <g>
      <use style="stroke:#000000;" x="427.484375" xlink:href="#m5124599432" y="445.385938"/>
     </g>
    </g>
    <g id="text_17">
     <!-- Same Task -->
     <defs>
      <path d="M 53.515625 70.515625 
L 53.515625 60.890625 
Q 47.90625 63.578125 42.921875 64.890625 
Q 37.9375 66.21875 33.296875 66.21875 
Q 25.25 66.21875 20.875 63.09375 
Q 16.5 59.96875 16.5 54.203125 
Q 16.5 49.359375 19.40625 46.890625 
Q 22.3125 44.4375 30.421875 42.921875 
L 36.375 41.703125 
Q 47.40625 39.59375 52.65625 34.296875 
Q 57.90625 29 57.90625 20.125 
Q 57.90625 9.515625 50.796875 4.046875 
Q 43.703125 -1.421875 29.984375 -1.421875 
Q 24.8125 -1.421875 18.96875 -0.25 
Q 13.140625 0.921875 6.890625 3.21875 
L 6.890625 13.375 
Q 12.890625 10.015625 18.65625 8.296875 
Q 24.421875 6.59375 29.984375 6.59375 
Q 38.421875 6.59375 43.015625 9.90625 
Q 47.609375 13.234375 47.609375 19.390625 
Q 47.609375 24.75 44.3125 27.78125 
Q 41.015625 30.8125 33.5 32.328125 
L 27.484375 33.5 
Q 16.453125 35.6875 11.515625 40.375 
Q 6.59375 45.0625 6.59375 53.421875 
Q 6.59375 63.09375 13.40625 68.65625 
Q 20.21875 74.21875 32.171875 74.21875 
Q 37.3125 74.21875 42.625 73.28125 
Q 47.953125 72.359375 53.515625 70.515625 
z
" id="DejaVuSans-53"/>
      <path d="M -0.296875 72.90625 
L 61.375 72.90625 
L 61.375 64.59375 
L 35.5 64.59375 
L 35.5 0 
L 25.59375 0 
L 25.59375 64.59375 
L -0.296875 64.59375 
z
" id="DejaVuSans-54"/>
      <path d="M 9.078125 75.984375 
L 18.109375 75.984375 
L 18.109375 31.109375 
L 44.921875 54.6875 
L 56.390625 54.6875 
L 27.390625 29.109375 
L 57.625 0 
L 45.90625 0 
L 18.109375 26.703125 
L 18.109375 0 
L 9.078125 0 
z
" id="DejaVuSans-6b"/>
     </defs>
     <g transform="translate(445.484375 448.885938)scale(0.1 -0.1)">
      <use xlink:href="#DejaVuSans-53"/>
      <use x="63.476562" xlink:href="#DejaVuSans-61"/>
      <use x="124.755859" xlink:href="#DejaVuSans-6d"/>
      <use x="222.167969" xlink:href="#DejaVuSans-65"/>
      <use x="283.691406" xlink:href="#DejaVuSans-20"/>
      <use x="315.478516" xlink:href="#DejaVuSans-54"/>
      <use x="376.3125" xlink:href="#DejaVuSans-61"/>
      <use x="437.591797" xlink:href="#DejaVuSans-73"/>
      <use x="489.691406" xlink:href="#DejaVuSans-6b"/>
     </g>
    </g>
    <g id="line2d_24">
     <path d="M 417.484375 460.064062 
L 437.484375 460.064062 
" style="fill:none;stroke:#0000ff;stroke-linecap:square;stroke-width:1.5;"/>
    </g>
    <g id="line2d_25">
     <g>
      <use style="fill:#0000ff;stroke:#0000ff;" x="427.484375" xlink:href="#mc37d2f9b53" y="460.064062"/>
     </g>
    </g>
    <g id="text_18">
     <!-- Anti -->
     <defs>
      <path d="M 34.1875 63.1875 
L 20.796875 26.90625 
L 47.609375 26.90625 
z
M 28.609375 72.90625 
L 39.796875 72.90625 
L 67.578125 0 
L 57.328125 0 
L 50.6875 18.703125 
L 17.828125 18.703125 
L 11.1875 0 
L 0.78125 0 
z
" id="DejaVuSans-41"/>
     </defs>
     <g transform="translate(445.484375 463.564062)scale(0.1 -0.1)">
      <use xlink:href="#DejaVuSans-41"/>
      <use x="68.408203" xlink:href="#DejaVuSans-6e"/>
      <use x="131.787109" xlink:href="#DejaVuSans-74"/>
      <use x="170.996094" xlink:href="#DejaVuSans-69"/>
     </g>
    </g>
    <g id="line2d_26">
     <path d="M 417.484375 474.742188 
L 437.484375 474.742188 
" style="fill:none;stroke:#008000;stroke-linecap:square;stroke-width:1.5;"/>
    </g>
    <g id="line2d_27">
     <g>
      <use style="fill:#008000;stroke:#008000;" x="427.484375" xlink:href="#m61b985e7d3" y="474.742188"/>
     </g>
    </g>
    <g id="text_19">
     <!-- Memory -->
     <defs>
      <path d="M 9.8125 72.90625 
L 24.515625 72.90625 
L 43.109375 23.296875 
L 61.8125 72.90625 
L 76.515625 72.90625 
L 76.515625 0 
L 66.890625 0 
L 66.890625 64.015625 
L 48.09375 14.015625 
L 38.1875 14.015625 
L 19.390625 64.015625 
L 19.390625 0 
L 9.8125 0 
z
" id="DejaVuSans-4d"/>
      <path d="M 32.171875 -5.078125 
Q 28.375 -14.84375 24.75 -17.8125 
Q 21.140625 -20.796875 15.09375 -20.796875 
L 7.90625 -20.796875 
L 7.90625 -13.28125 
L 13.1875 -13.28125 
Q 16.890625 -13.28125 18.9375 -11.515625 
Q 21 -9.765625 23.484375 -3.21875 
L 25.09375 0.875 
L 2.984375 54.6875 
L 12.5 54.6875 
L 29.59375 11.921875 
L 46.6875 54.6875 
L 56.203125 54.6875 
z
" id="DejaVuSans-79"/>
     </defs>
     <g transform="translate(445.484375 478.242188)scale(0.1 -0.1)">
      <use xlink:href="#DejaVuSans-4d"/>
      <use x="86.279297" xlink:href="#DejaVuSans-65"/>
      <use x="147.802734" xlink:href="#DejaVuSans-6d"/>
      <use x="245.214844" xlink:href="#DejaVuSans-6f"/>
      <use x="306.396484" xlink:href="#DejaVuSans-72"/>
      <use x="347.509766" xlink:href="#DejaVuSans-79"/>
     </g>
    </g>
    <g id="line2d_28">
     <path d="M 417.484375 489.420313 
L 437.484375 489.420313 
" style="fill:none;stroke:#ff0000;stroke-linecap:square;stroke-width:1.5;"/>
    </g>
    <g id="line2d_29">
     <g>
      <use style="fill:#ff0000;stroke:#ff0000;" x="427.484375" xlink:href="#me86dc49de8" y="489.420313"/>
     </g>
    </g>
    <g id="text_20">
     <!-- Memory/Anti -->
     <g transform="translate(445.484375 492.920313)scale(0.1 -0.1)">
      <use xlink:href="#DejaVuSans-4d"/>
      <use x="86.279297" xlink:href="#DejaVuSans-65"/>
      <use x="147.802734" xlink:href="#DejaVuSans-6d"/>
      <use x="245.214844" xlink:href="#DejaVuSans-6f"/>
      <use x="306.396484" xlink:href="#DejaVuSans-72"/>
      <use x="347.509766" xlink:href="#DejaVuSans-79"/>
      <use x="406.689453" xlink:href="#DejaVuSans-2f"/>
      <use x="440.380859" xlink:href="#DejaVuSans-41"/>
      <use x="508.789062" xlink:href="#DejaVuSans-6e"/>
      <use x="572.167969" xlink:href="#DejaVuSans-74"/>
      <use x="611.376953" xlink:href="#DejaVuSans-69"/>
     </g>
    </g>
   </g>
  </g>
 </g>
 <defs>
  <clipPath id="p029d1be282">
   <rect height="434.88" width="446.4" x="72" y="69.12"/>
  </clipPath>
 </defs>
</svg>
