<?xml version="1.0" encoding="utf-8" standalone="no"?>
<!DOCTYPE svg PUBLIC "-//W3C//DTD SVG 1.1//EN"
  "http://www.w3.org/Graphics/SVG/1.1/DTD/svg11.dtd">
<!-- Created with matplotlib (http://matplotlib.org/) -->
<svg height="432pt" version="1.1" viewBox="0 0 864 432" width="864pt" xmlns="http://www.w3.org/2000/svg" xmlns:xlink="http://www.w3.org/1999/xlink">
 <defs>
  <style type="text/css">
*{stroke-linecap:butt;stroke-linejoin:round;}
  </style>
 </defs>
 <g id="figure_1">
  <g id="patch_1">
   <path d="M 0 432 
L 864 432 
L 864 0 
L 0 0 
z
" style="fill:#ffffff;"/>
  </g>
  <g id="axes_1">
   <g id="patch_2">
    <path d="M 63.1325 383.648182 
L 410.1175 383.648182 
L 410.1175 26.970818 
L 63.1325 26.970818 
z
" style="fill:#ffffff;"/>
   </g>
   <g id="matplotlib.axis_1">
    <g id="xtick_1">
     <g id="line2d_1">
      <defs>
       <path d="M 0 0 
L 0 3.5 
" id="m7896c72e9a" style="stroke:#000000;stroke-width:0.8;"/>
      </defs>
      <g>
       <use style="stroke:#000000;stroke-width:0.8;" x="117.412583" xlink:href="#m7896c72e9a" y="383.648182"/>
      </g>
     </g>
     <g id="text_1">
      <!-- −0.1 -->
      <defs>
       <path d="M 10.59375 35.5 
L 73.1875 35.5 
L 73.1875 27.203125 
L 10.59375 27.203125 
z
" id="DejaVuSans-2212"/>
       <path d="M 31.78125 66.40625 
Q 24.171875 66.40625 20.328125 58.90625 
Q 16.5 51.421875 16.5 36.375 
Q 16.5 21.390625 20.328125 13.890625 
Q 24.171875 6.390625 31.78125 6.390625 
Q 39.453125 6.390625 43.28125 13.890625 
Q 47.125 21.390625 47.125 36.375 
Q 47.125 51.421875 43.28125 58.90625 
Q 39.453125 66.40625 31.78125 66.40625 
z
M 31.78125 74.21875 
Q 44.046875 74.21875 50.515625 64.515625 
Q 56.984375 54.828125 56.984375 36.375 
Q 56.984375 17.96875 50.515625 8.265625 
Q 44.046875 -1.421875 31.78125 -1.421875 
Q 19.53125 -1.421875 13.0625 8.265625 
Q 6.59375 17.96875 6.59375 36.375 
Q 6.59375 54.828125 13.0625 64.515625 
Q 19.53125 74.21875 31.78125 74.21875 
z
" id="DejaVuSans-30"/>
       <path d="M 10.6875 12.40625 
L 21 12.40625 
L 21 0 
L 10.6875 0 
z
" id="DejaVuSans-2e"/>
       <path d="M 12.40625 8.296875 
L 28.515625 8.296875 
L 28.515625 63.921875 
L 10.984375 60.40625 
L 10.984375 69.390625 
L 28.421875 72.90625 
L 38.28125 72.90625 
L 38.28125 8.296875 
L 54.390625 8.296875 
L 54.390625 0 
L 12.40625 0 
z
" id="DejaVuSans-31"/>
      </defs>
      <g transform="translate(97.986333 402.805682)scale(0.16 -0.16)">
       <use xlink:href="#DejaVuSans-2212"/>
       <use x="83.789062" xlink:href="#DejaVuSans-30"/>
       <use x="147.412109" xlink:href="#DejaVuSans-2e"/>
       <use x="179.199219" xlink:href="#DejaVuSans-31"/>
      </g>
     </g>
    </g>
    <g id="xtick_2">
     <g id="line2d_2">
      <g>
       <use style="stroke:#000000;stroke-width:0.8;" x="198.830695" xlink:href="#m7896c72e9a" y="383.648182"/>
      </g>
     </g>
     <g id="text_2">
      <!-- 0.0 -->
      <g transform="translate(186.108195 402.805682)scale(0.16 -0.16)">
       <use xlink:href="#DejaVuSans-30"/>
       <use x="63.623047" xlink:href="#DejaVuSans-2e"/>
       <use x="95.410156" xlink:href="#DejaVuSans-30"/>
      </g>
     </g>
    </g>
    <g id="xtick_3">
     <g id="line2d_3">
      <g>
       <use style="stroke:#000000;stroke-width:0.8;" x="280.248806" xlink:href="#m7896c72e9a" y="383.648182"/>
      </g>
     </g>
     <g id="text_3">
      <!-- 0.1 -->
      <g transform="translate(267.526306 402.805682)scale(0.16 -0.16)">
       <use xlink:href="#DejaVuSans-30"/>
       <use x="63.623047" xlink:href="#DejaVuSans-2e"/>
       <use x="95.410156" xlink:href="#DejaVuSans-31"/>
      </g>
     </g>
    </g>
    <g id="xtick_4">
     <g id="line2d_4">
      <g>
       <use style="stroke:#000000;stroke-width:0.8;" x="361.666918" xlink:href="#m7896c72e9a" y="383.648182"/>
      </g>
     </g>
     <g id="text_4">
      <!-- 0.2 -->
      <defs>
       <path d="M 19.1875 8.296875 
L 53.609375 8.296875 
L 53.609375 0 
L 7.328125 0 
L 7.328125 8.296875 
Q 12.9375 14.109375 22.625 23.890625 
Q 32.328125 33.6875 34.8125 36.53125 
Q 39.546875 41.84375 41.421875 45.53125 
Q 43.3125 49.21875 43.3125 52.78125 
Q 43.3125 58.59375 39.234375 62.25 
Q 35.15625 65.921875 28.609375 65.921875 
Q 23.96875 65.921875 18.8125 64.3125 
Q 13.671875 62.703125 7.8125 59.421875 
L 7.8125 69.390625 
Q 13.765625 71.78125 18.9375 73 
Q 24.125 74.21875 28.421875 74.21875 
Q 39.75 74.21875 46.484375 68.546875 
Q 53.21875 62.890625 53.21875 53.421875 
Q 53.21875 48.921875 51.53125 44.890625 
Q 49.859375 40.875 45.40625 35.40625 
Q 44.1875 33.984375 37.640625 27.21875 
Q 31.109375 20.453125 19.1875 8.296875 
z
" id="DejaVuSans-32"/>
      </defs>
      <g transform="translate(348.944418 402.805682)scale(0.16 -0.16)">
       <use xlink:href="#DejaVuSans-30"/>
       <use x="63.623047" xlink:href="#DejaVuSans-2e"/>
       <use x="95.410156" xlink:href="#DejaVuSans-32"/>
      </g>
     </g>
    </g>
   </g>
   <g id="matplotlib.axis_2">
    <g id="ytick_1">
     <g id="line2d_5">
      <defs>
       <path d="M 0 0 
L -3.5 0 
" id="m3f1c040cc3" style="stroke:#000000;stroke-width:0.8;"/>
      </defs>
      <g>
       <use style="stroke:#000000;stroke-width:0.8;" x="63.1325" xlink:href="#m3f1c040cc3" y="345.282485"/>
      </g>
     </g>
     <g id="text_5">
      <!-- −0.3 -->
      <defs>
       <path d="M 40.578125 39.3125 
Q 47.65625 37.796875 51.625 33 
Q 55.609375 28.21875 55.609375 21.1875 
Q 55.609375 10.40625 48.1875 4.484375 
Q 40.765625 -1.421875 27.09375 -1.421875 
Q 22.515625 -1.421875 17.65625 -0.515625 
Q 12.796875 0.390625 7.625 2.203125 
L 7.625 11.71875 
Q 11.71875 9.328125 16.59375 8.109375 
Q 21.484375 6.890625 26.8125 6.890625 
Q 36.078125 6.890625 40.9375 10.546875 
Q 45.796875 14.203125 45.796875 21.1875 
Q 45.796875 27.640625 41.28125 31.265625 
Q 36.765625 34.90625 28.71875 34.90625 
L 20.21875 34.90625 
L 20.21875 43.015625 
L 29.109375 43.015625 
Q 36.375 43.015625 40.234375 45.921875 
Q 44.09375 48.828125 44.09375 54.296875 
Q 44.09375 59.90625 40.109375 62.90625 
Q 36.140625 65.921875 28.71875 65.921875 
Q 24.65625 65.921875 20.015625 65.03125 
Q 15.375 64.15625 9.8125 62.3125 
L 9.8125 71.09375 
Q 15.4375 72.65625 20.34375 73.4375 
Q 25.25 74.21875 29.59375 74.21875 
Q 40.828125 74.21875 47.359375 69.109375 
Q 53.90625 64.015625 53.90625 55.328125 
Q 53.90625 49.265625 50.4375 45.09375 
Q 46.96875 40.921875 40.578125 39.3125 
z
" id="DejaVuSans-33"/>
      </defs>
      <g transform="translate(17.28 351.361235)scale(0.16 -0.16)">
       <use xlink:href="#DejaVuSans-2212"/>
       <use x="83.789062" xlink:href="#DejaVuSans-30"/>
       <use x="147.412109" xlink:href="#DejaVuSans-2e"/>
       <use x="179.199219" xlink:href="#DejaVuSans-33"/>
      </g>
     </g>
    </g>
    <g id="ytick_2">
     <g id="line2d_6">
      <g>
       <use style="stroke:#000000;stroke-width:0.8;" x="63.1325" xlink:href="#m3f1c040cc3" y="296.953341"/>
      </g>
     </g>
     <g id="text_6">
      <!-- −0.2 -->
      <g transform="translate(17.28 303.032091)scale(0.16 -0.16)">
       <use xlink:href="#DejaVuSans-2212"/>
       <use x="83.789062" xlink:href="#DejaVuSans-30"/>
       <use x="147.412109" xlink:href="#DejaVuSans-2e"/>
       <use x="179.199219" xlink:href="#DejaVuSans-32"/>
      </g>
     </g>
    </g>
    <g id="ytick_3">
     <g id="line2d_7">
      <g>
       <use style="stroke:#000000;stroke-width:0.8;" x="63.1325" xlink:href="#m3f1c040cc3" y="248.624196"/>
      </g>
     </g>
     <g id="text_7">
      <!-- −0.1 -->
      <g transform="translate(17.28 254.702946)scale(0.16 -0.16)">
       <use xlink:href="#DejaVuSans-2212"/>
       <use x="83.789062" xlink:href="#DejaVuSans-30"/>
       <use x="147.412109" xlink:href="#DejaVuSans-2e"/>
       <use x="179.199219" xlink:href="#DejaVuSans-31"/>
      </g>
     </g>
    </g>
    <g id="ytick_4">
     <g id="line2d_8">
      <g>
       <use style="stroke:#000000;stroke-width:0.8;" x="63.1325" xlink:href="#m3f1c040cc3" y="200.295052"/>
      </g>
     </g>
     <g id="text_8">
      <!-- 0.0 -->
      <g transform="translate(30.6875 206.373802)scale(0.16 -0.16)">
       <use xlink:href="#DejaVuSans-30"/>
       <use x="63.623047" xlink:href="#DejaVuSans-2e"/>
       <use x="95.410156" xlink:href="#DejaVuSans-30"/>
      </g>
     </g>
    </g>
    <g id="ytick_5">
     <g id="line2d_9">
      <g>
       <use style="stroke:#000000;stroke-width:0.8;" x="63.1325" xlink:href="#m3f1c040cc3" y="151.965907"/>
      </g>
     </g>
     <g id="text_9">
      <!-- 0.1 -->
      <g transform="translate(30.6875 158.044657)scale(0.16 -0.16)">
       <use xlink:href="#DejaVuSans-30"/>
       <use x="63.623047" xlink:href="#DejaVuSans-2e"/>
       <use x="95.410156" xlink:href="#DejaVuSans-31"/>
      </g>
     </g>
    </g>
    <g id="ytick_6">
     <g id="line2d_10">
      <g>
       <use style="stroke:#000000;stroke-width:0.8;" x="63.1325" xlink:href="#m3f1c040cc3" y="103.636763"/>
      </g>
     </g>
     <g id="text_10">
      <!-- 0.2 -->
      <g transform="translate(30.6875 109.715513)scale(0.16 -0.16)">
       <use xlink:href="#DejaVuSans-30"/>
       <use x="63.623047" xlink:href="#DejaVuSans-2e"/>
       <use x="95.410156" xlink:href="#DejaVuSans-32"/>
      </g>
     </g>
    </g>
    <g id="ytick_7">
     <g id="line2d_11">
      <g>
       <use style="stroke:#000000;stroke-width:0.8;" x="63.1325" xlink:href="#m3f1c040cc3" y="55.307618"/>
      </g>
     </g>
     <g id="text_11">
      <!-- 0.3 -->
      <g transform="translate(30.6875 61.386368)scale(0.16 -0.16)">
       <use xlink:href="#DejaVuSans-30"/>
       <use x="63.623047" xlink:href="#DejaVuSans-2e"/>
       <use x="95.410156" xlink:href="#DejaVuSans-33"/>
      </g>
     </g>
    </g>
   </g>
   <g id="line2d_12">
    <defs>
     <path d="M 0 3 
C 0.795609 3 1.55874 2.683901 2.12132 2.12132 
C 2.683901 1.55874 3 0.795609 3 0 
C 3 -0.795609 2.683901 -1.55874 2.12132 -2.12132 
C 1.55874 -2.683901 0.795609 -3 0 -3 
C -0.795609 -3 -1.55874 -2.683901 -2.12132 -2.12132 
C -2.683901 -1.55874 -3 -0.795609 -3 0 
C -3 0.795609 -2.683901 1.55874 -2.12132 2.12132 
C -1.55874 2.683901 -0.795609 3 0 3 
z
" id="mbad1f455dd" style="stroke:#1f77b4;"/>
    </defs>
    <g clip-path="url(#p3e45d6bd90)">
     <use style="fill:#1f77b4;stroke:#1f77b4;" x="96.521776" xlink:href="#mbad1f455dd" y="367.435574"/>
    </g>
   </g>
   <g id="line2d_13">
    <defs>
     <path d="M 0 3 
C 0.795609 3 1.55874 2.683901 2.12132 2.12132 
C 2.683901 1.55874 3 0.795609 3 0 
C 3 -0.795609 2.683901 -1.55874 2.12132 -2.12132 
C 1.55874 -2.683901 0.795609 -3 0 -3 
C -0.795609 -3 -1.55874 -2.683901 -2.12132 -2.12132 
C -2.683901 -1.55874 -3 -0.795609 -3 0 
C -3 0.795609 -2.683901 1.55874 -2.12132 2.12132 
C -1.55874 2.683901 -0.795609 3 0 3 
z
" id="m4aba9f99e7" style="stroke:#8c564b;"/>
    </defs>
    <g clip-path="url(#p3e45d6bd90)">
     <use style="fill:#8c564b;stroke:#8c564b;" x="78.904545" xlink:href="#m4aba9f99e7" y="224.108471"/>
    </g>
   </g>
   <g id="line2d_14">
    <defs>
     <path d="M 0 3 
C 0.795609 3 1.55874 2.683901 2.12132 2.12132 
C 2.683901 1.55874 3 0.795609 3 0 
C 3 -0.795609 2.683901 -1.55874 2.12132 -2.12132 
C 1.55874 -2.683901 0.795609 -3 0 -3 
C -0.795609 -3 -1.55874 -2.683901 -2.12132 -2.12132 
C -2.683901 -1.55874 -3 -0.795609 -3 0 
C -3 0.795609 -2.683901 1.55874 -2.12132 2.12132 
C -1.55874 2.683901 -0.795609 3 0 3 
z
" id="m8d8ca2addc" style="stroke:#ff7f0e;"/>
    </defs>
    <g clip-path="url(#p3e45d6bd90)">
     <use style="fill:#ff7f0e;stroke:#ff7f0e;" x="155.584544" xlink:href="#m8d8ca2addc" y="81.677002"/>
    </g>
   </g>
   <g id="line2d_15">
    <g clip-path="url(#p3e45d6bd90)">
     <use style="fill:#1f77b4;stroke:#1f77b4;" x="152.519526" xlink:href="#mbad1f455dd" y="288.317043"/>
    </g>
   </g>
   <g id="line2d_16">
    <g clip-path="url(#p3e45d6bd90)">
     <use style="fill:#8c564b;stroke:#8c564b;" x="174.327418" xlink:href="#m4aba9f99e7" y="219.284634"/>
    </g>
   </g>
   <g id="line2d_17">
    <g clip-path="url(#p3e45d6bd90)">
     <use style="fill:#ff7f0e;stroke:#ff7f0e;" x="181.879433" xlink:href="#m8d8ca2addc" y="43.183426"/>
    </g>
   </g>
   <g id="line2d_18">
    <defs>
     <path d="M 0 3 
C 0.795609 3 1.55874 2.683901 2.12132 2.12132 
C 2.683901 1.55874 3 0.795609 3 0 
C 3 -0.795609 2.683901 -1.55874 2.12132 -2.12132 
C 1.55874 -2.683901 0.795609 -3 0 -3 
C -0.795609 -3 -1.55874 -2.683901 -2.12132 -2.12132 
C -2.683901 -1.55874 -3 -0.795609 -3 0 
C -3 0.795609 -2.683901 1.55874 -2.12132 2.12132 
C -1.55874 2.683901 -0.795609 3 0 3 
z
" id="m45aa37f3bc" style="stroke:#2ca02c;"/>
    </defs>
    <g clip-path="url(#p3e45d6bd90)">
     <use style="fill:#2ca02c;stroke:#2ca02c;" x="207.31574" xlink:href="#m45aa37f3bc" y="50.298588"/>
    </g>
   </g>
   <g id="line2d_19">
    <g clip-path="url(#p3e45d6bd90)">
     <use style="fill:#2ca02c;stroke:#2ca02c;" x="206.306879" xlink:href="#m45aa37f3bc" y="44.033746"/>
    </g>
   </g>
   <g id="line2d_20">
    <defs>
     <path d="M 0 3 
C 0.795609 3 1.55874 2.683901 2.12132 2.12132 
C 2.683901 1.55874 3 0.795609 3 0 
C 3 -0.795609 2.683901 -1.55874 2.12132 -2.12132 
C 1.55874 -2.683901 0.795609 -3 0 -3 
C -0.795609 -3 -1.55874 -2.683901 -2.12132 -2.12132 
C -2.683901 -1.55874 -3 -0.795609 -3 0 
C -3 0.795609 -2.683901 1.55874 -2.12132 2.12132 
C -1.55874 2.683901 -0.795609 3 0 3 
z
" id="m9d64714359" style="stroke:#d62728;"/>
    </defs>
    <g clip-path="url(#p3e45d6bd90)">
     <use style="fill:#d62728;stroke:#d62728;" x="394.345455" xlink:href="#m9d64714359" y="328.978747"/>
    </g>
   </g>
   <g id="line2d_21">
    <g clip-path="url(#p3e45d6bd90)">
     <use style="fill:#d62728;stroke:#d62728;" x="340.601629" xlink:href="#m9d64714359" y="355.633286"/>
    </g>
   </g>
   <g id="patch_3">
    <path d="M 63.1325 383.648182 
L 63.1325 26.970818 
" style="fill:none;stroke:#000000;stroke-linecap:square;stroke-linejoin:miter;stroke-width:0.8;"/>
   </g>
   <g id="patch_4">
    <path d="M 410.1175 383.648182 
L 410.1175 26.970818 
" style="fill:none;stroke:#000000;stroke-linecap:square;stroke-linejoin:miter;stroke-width:0.8;"/>
   </g>
   <g id="patch_5">
    <path d="M 63.1325 383.648182 
L 410.1175 383.648182 
" style="fill:none;stroke:#000000;stroke-linecap:square;stroke-linejoin:miter;stroke-width:0.8;"/>
   </g>
   <g id="patch_6">
    <path d="M 63.1325 26.970818 
L 410.1175 26.970818 
" style="fill:none;stroke:#000000;stroke-linecap:square;stroke-linejoin:miter;stroke-width:0.8;"/>
   </g>
   <g id="text_12">
    <g id="patch_7">
     <path d="M 94.601776 372.808074 
L 173.406776 372.808074 
L 173.406776 353.358074 
L 94.601776 353.358074 
z
" style="fill:#1f77b4;opacity:0.5;"/>
    </g>
    <!-- DelayGo -->
    <defs>
     <path d="M 27.984375 58.6875 
L 27.984375 14.203125 
L 34.71875 14.203125 
Q 46.234375 14.203125 52.3125 19.921875 
Q 58.40625 25.640625 58.40625 36.53125 
Q 58.40625 47.359375 52.34375 53.015625 
Q 46.296875 58.6875 34.71875 58.6875 
z
M 9.1875 72.90625 
L 29 72.90625 
Q 45.609375 72.90625 53.734375 70.53125 
Q 61.859375 68.171875 67.671875 62.5 
Q 72.796875 57.5625 75.28125 51.109375 
Q 77.78125 44.671875 77.78125 36.53125 
Q 77.78125 28.265625 75.28125 21.796875 
Q 72.796875 15.328125 67.671875 10.40625 
Q 61.8125 4.734375 53.609375 2.359375 
Q 45.40625 0 29 0 
L 9.1875 0 
z
" id="DejaVuSans-Bold-44"/>
     <path d="M 62.984375 27.484375 
L 62.984375 22.515625 
L 22.125 22.515625 
Q 22.75 16.359375 26.5625 13.28125 
Q 30.375 10.203125 37.203125 10.203125 
Q 42.71875 10.203125 48.5 11.84375 
Q 54.296875 13.484375 60.40625 16.796875 
L 60.40625 3.328125 
Q 54.203125 0.984375 48 -0.21875 
Q 41.796875 -1.421875 35.59375 -1.421875 
Q 20.75 -1.421875 12.515625 6.125 
Q 4.296875 13.671875 4.296875 27.296875 
Q 4.296875 40.671875 12.375 48.328125 
Q 20.453125 56 34.625 56 
Q 47.515625 56 55.25 48.234375 
Q 62.984375 40.484375 62.984375 27.484375 
z
M 45.015625 33.296875 
Q 45.015625 38.28125 42.109375 41.328125 
Q 39.203125 44.390625 34.515625 44.390625 
Q 29.4375 44.390625 26.265625 41.53125 
Q 23.09375 38.671875 22.3125 33.296875 
z
" id="DejaVuSans-Bold-65"/>
     <path d="M 8.40625 75.984375 
L 25.875 75.984375 
L 25.875 0 
L 8.40625 0 
z
" id="DejaVuSans-Bold-6c"/>
     <path d="M 32.90625 24.609375 
Q 27.4375 24.609375 24.671875 22.75 
Q 21.921875 20.90625 21.921875 17.28125 
Q 21.921875 13.96875 24.140625 12.078125 
Q 26.375 10.203125 30.328125 10.203125 
Q 35.25 10.203125 38.625 13.734375 
Q 42 17.28125 42 22.609375 
L 42 24.609375 
z
M 59.625 31.203125 
L 59.625 0 
L 42 0 
L 42 8.109375 
Q 38.484375 3.125 34.078125 0.84375 
Q 29.6875 -1.421875 23.390625 -1.421875 
Q 14.890625 -1.421875 9.59375 3.53125 
Q 4.296875 8.5 4.296875 16.40625 
Q 4.296875 26.03125 10.90625 30.515625 
Q 17.53125 35.015625 31.6875 35.015625 
L 42 35.015625 
L 42 36.375 
Q 42 40.53125 38.71875 42.453125 
Q 35.453125 44.390625 28.515625 44.390625 
Q 22.90625 44.390625 18.0625 43.265625 
Q 13.234375 42.140625 9.078125 39.890625 
L 9.078125 53.21875 
Q 14.703125 54.59375 20.359375 55.296875 
Q 26.03125 56 31.6875 56 
Q 46.484375 56 53.046875 50.171875 
Q 59.625 44.34375 59.625 31.203125 
z
" id="DejaVuSans-Bold-61"/>
     <path d="M 1.21875 54.6875 
L 18.703125 54.6875 
L 33.40625 17.578125 
L 45.90625 54.6875 
L 63.375 54.6875 
L 40.375 -5.171875 
Q 36.921875 -14.3125 32.296875 -17.9375 
Q 27.6875 -21.578125 20.125 -21.578125 
L 10.015625 -21.578125 
L 10.015625 -10.109375 
L 15.484375 -10.109375 
Q 19.921875 -10.109375 21.9375 -8.6875 
Q 23.96875 -7.28125 25.09375 -3.609375 
L 25.59375 -2.09375 
z
" id="DejaVuSans-Bold-79"/>
     <path d="M 74.703125 5.421875 
Q 67.671875 2 60.109375 0.28125 
Q 52.546875 -1.421875 44.484375 -1.421875 
Q 26.265625 -1.421875 15.625 8.765625 
Q 4.984375 18.953125 4.984375 36.375 
Q 4.984375 54 15.8125 64.109375 
Q 26.65625 74.21875 45.515625 74.21875 
Q 52.78125 74.21875 59.4375 72.84375 
Q 66.109375 71.484375 72.015625 68.796875 
L 72.015625 53.71875 
Q 65.921875 57.171875 59.890625 58.875 
Q 53.859375 60.59375 47.796875 60.59375 
Q 36.578125 60.59375 30.5 54.3125 
Q 24.421875 48.046875 24.421875 36.375 
Q 24.421875 24.8125 30.28125 18.5 
Q 36.140625 12.203125 46.921875 12.203125 
Q 49.859375 12.203125 52.375 12.5625 
Q 54.890625 12.9375 56.890625 13.71875 
L 56.890625 27.875 
L 45.40625 27.875 
L 45.40625 40.484375 
L 74.703125 40.484375 
z
" id="DejaVuSans-Bold-47"/>
     <path d="M 34.421875 43.5 
Q 28.609375 43.5 25.5625 39.328125 
Q 22.515625 35.15625 22.515625 27.296875 
Q 22.515625 19.4375 25.5625 15.25 
Q 28.609375 11.078125 34.421875 11.078125 
Q 40.140625 11.078125 43.15625 15.25 
Q 46.1875 19.4375 46.1875 27.296875 
Q 46.1875 35.15625 43.15625 39.328125 
Q 40.140625 43.5 34.421875 43.5 
z
M 34.421875 56 
Q 48.53125 56 56.46875 48.375 
Q 64.40625 40.765625 64.40625 27.296875 
Q 64.40625 13.8125 56.46875 6.1875 
Q 48.53125 -1.421875 34.421875 -1.421875 
Q 20.265625 -1.421875 12.28125 6.1875 
Q 4.296875 13.8125 4.296875 27.296875 
Q 4.296875 40.765625 12.28125 48.375 
Q 20.265625 56 34.421875 56 
z
" id="DejaVuSans-Bold-6f"/>
    </defs>
    <g transform="translate(96.521776 367.435574)scale(0.16 -0.16)">
     <use xlink:href="#DejaVuSans-Bold-44"/>
     <use x="83.007812" xlink:href="#DejaVuSans-Bold-65"/>
     <use x="150.830078" xlink:href="#DejaVuSans-Bold-6c"/>
     <use x="185.107422" xlink:href="#DejaVuSans-Bold-61"/>
     <use x="252.541016" xlink:href="#DejaVuSans-Bold-79"/>
     <use x="317.726562" xlink:href="#DejaVuSans-Bold-47"/>
     <use x="399.806641" xlink:href="#DejaVuSans-Bold-6f"/>
    </g>
   </g>
   <g id="text_13">
    <g id="patch_8">
     <path d="M 76.984545 229.355971 
L 156.052045 229.355971 
L 156.052045 210.030971 
L 76.984545 210.030971 
z
" style="fill:#8c564b;opacity:0.5;"/>
    </g>
    <!-- ReactGo -->
    <defs>
     <path d="M 35.890625 40.578125 
Q 41.796875 40.578125 44.359375 42.765625 
Q 46.921875 44.96875 46.921875 50 
Q 46.921875 54.984375 44.359375 57.125 
Q 41.796875 59.28125 35.890625 59.28125 
L 27.984375 59.28125 
L 27.984375 40.578125 
z
M 27.984375 27.59375 
L 27.984375 0 
L 9.1875 0 
L 9.1875 72.90625 
L 37.890625 72.90625 
Q 52.296875 72.90625 59 68.0625 
Q 65.71875 63.234375 65.71875 52.78125 
Q 65.71875 45.5625 62.21875 40.921875 
Q 58.734375 36.28125 51.703125 34.078125 
Q 55.5625 33.203125 58.609375 30.09375 
Q 61.671875 27 64.796875 20.703125 
L 75 0 
L 54.984375 0 
L 46.09375 18.109375 
Q 43.40625 23.578125 40.640625 25.578125 
Q 37.890625 27.59375 33.296875 27.59375 
z
" id="DejaVuSans-Bold-52"/>
     <path d="M 52.59375 52.984375 
L 52.59375 38.71875 
Q 49.03125 41.15625 45.4375 42.328125 
Q 41.84375 43.5 37.984375 43.5 
Q 30.671875 43.5 26.59375 39.234375 
Q 22.515625 34.96875 22.515625 27.296875 
Q 22.515625 19.625 26.59375 15.34375 
Q 30.671875 11.078125 37.984375 11.078125 
Q 42.09375 11.078125 45.78125 12.296875 
Q 49.46875 13.53125 52.59375 15.921875 
L 52.59375 1.609375 
Q 48.484375 0.09375 44.265625 -0.65625 
Q 40.046875 -1.421875 35.796875 -1.421875 
Q 21 -1.421875 12.640625 6.171875 
Q 4.296875 13.765625 4.296875 27.296875 
Q 4.296875 40.828125 12.640625 48.40625 
Q 21 56 35.796875 56 
Q 40.09375 56 44.265625 55.25 
Q 48.4375 54.5 52.59375 52.984375 
z
" id="DejaVuSans-Bold-63"/>
     <path d="M 27.484375 70.21875 
L 27.484375 54.6875 
L 45.515625 54.6875 
L 45.515625 42.1875 
L 27.484375 42.1875 
L 27.484375 19 
Q 27.484375 15.1875 29 13.84375 
Q 30.515625 12.5 35.015625 12.5 
L 44 12.5 
L 44 0 
L 29 0 
Q 18.65625 0 14.328125 4.3125 
Q 10.015625 8.640625 10.015625 19 
L 10.015625 42.1875 
L 1.3125 42.1875 
L 1.3125 54.6875 
L 10.015625 54.6875 
L 10.015625 70.21875 
z
" id="DejaVuSans-Bold-74"/>
    </defs>
    <g transform="translate(78.904545 224.108471)scale(0.16 -0.16)">
     <use xlink:href="#DejaVuSans-Bold-52"/>
     <use x="77.001953" xlink:href="#DejaVuSans-Bold-65"/>
     <use x="144.824219" xlink:href="#DejaVuSans-Bold-61"/>
     <use x="212.304688" xlink:href="#DejaVuSans-Bold-63"/>
     <use x="271.582031" xlink:href="#DejaVuSans-Bold-74"/>
     <use x="319.384766" xlink:href="#DejaVuSans-Bold-47"/>
     <use x="401.464844" xlink:href="#DejaVuSans-Bold-6f"/>
    </g>
   </g>
   <g id="text_14">
    <g id="patch_9">
     <path d="M 153.664544 87.049502 
L 254.389544 87.049502 
L 254.389544 67.724502 
L 153.664544 67.724502 
z
" style="fill:#ff7f0e;opacity:0.5;"/>
    </g>
    <!-- MemoryGo -->
    <defs>
     <path d="M 9.1875 72.90625 
L 33.109375 72.90625 
L 49.703125 33.890625 
L 66.40625 72.90625 
L 90.28125 72.90625 
L 90.28125 0 
L 72.515625 0 
L 72.515625 53.328125 
L 55.71875 14.015625 
L 43.796875 14.015625 
L 27 53.328125 
L 27 0 
L 9.1875 0 
z
" id="DejaVuSans-Bold-4d"/>
     <path d="M 59.078125 45.609375 
Q 62.40625 50.6875 66.96875 53.34375 
Q 71.53125 56 77 56 
Q 86.421875 56 91.359375 50.1875 
Q 96.296875 44.390625 96.296875 33.296875 
L 96.296875 0 
L 78.71875 0 
L 78.71875 28.515625 
Q 78.765625 29.15625 78.78125 29.828125 
Q 78.8125 30.515625 78.8125 31.78125 
Q 78.8125 37.59375 77.09375 40.203125 
Q 75.390625 42.828125 71.578125 42.828125 
Q 66.609375 42.828125 63.890625 38.71875 
Q 61.1875 34.625 61.078125 26.859375 
L 61.078125 0 
L 43.5 0 
L 43.5 28.515625 
Q 43.5 37.59375 41.9375 40.203125 
Q 40.375 42.828125 36.375 42.828125 
Q 31.34375 42.828125 28.609375 38.703125 
Q 25.875 34.578125 25.875 26.90625 
L 25.875 0 
L 8.296875 0 
L 8.296875 54.6875 
L 25.875 54.6875 
L 25.875 46.6875 
Q 29.109375 51.3125 33.28125 53.65625 
Q 37.453125 56 42.484375 56 
Q 48.140625 56 52.484375 53.265625 
Q 56.84375 50.53125 59.078125 45.609375 
z
" id="DejaVuSans-Bold-6d"/>
     <path d="M 49.03125 39.796875 
Q 46.734375 40.875 44.453125 41.375 
Q 42.1875 41.890625 39.890625 41.890625 
Q 33.15625 41.890625 29.515625 37.5625 
Q 25.875 33.25 25.875 25.203125 
L 25.875 0 
L 8.40625 0 
L 8.40625 54.6875 
L 25.875 54.6875 
L 25.875 45.703125 
Q 29.25 51.078125 33.609375 53.53125 
Q 37.984375 56 44.09375 56 
Q 44.96875 56 45.984375 55.921875 
Q 47.015625 55.859375 48.96875 55.609375 
z
" id="DejaVuSans-Bold-72"/>
    </defs>
    <g transform="translate(155.584544 81.677002)scale(0.16 -0.16)">
     <use xlink:href="#DejaVuSans-Bold-4d"/>
     <use x="99.511719" xlink:href="#DejaVuSans-Bold-65"/>
     <use x="167.333984" xlink:href="#DejaVuSans-Bold-6d"/>
     <use x="271.533203" xlink:href="#DejaVuSans-Bold-6f"/>
     <use x="340.234375" xlink:href="#DejaVuSans-Bold-72"/>
     <use x="389.550781" xlink:href="#DejaVuSans-Bold-79"/>
     <use x="454.736328" xlink:href="#DejaVuSans-Bold-47"/>
     <use x="536.816406" xlink:href="#DejaVuSans-Bold-6f"/>
    </g>
   </g>
   <g id="text_15">
    <g id="patch_10">
     <path d="M 150.599526 293.689543 
L 242.184526 293.689543 
L 242.184526 274.239543 
L 150.599526 274.239543 
z
" style="fill:#1f77b4;opacity:0.5;"/>
    </g>
    <!-- DelayAnti -->
    <defs>
     <path d="M 53.421875 13.28125 
L 24.03125 13.28125 
L 19.390625 0 
L 0.484375 0 
L 27.484375 72.90625 
L 49.90625 72.90625 
L 76.90625 0 
L 58.015625 0 
z
M 28.71875 26.8125 
L 48.6875 26.8125 
L 38.71875 55.8125 
z
" id="DejaVuSans-Bold-41"/>
     <path d="M 63.375 33.296875 
L 63.375 0 
L 45.796875 0 
L 45.796875 5.421875 
L 45.796875 25.484375 
Q 45.796875 32.5625 45.484375 35.25 
Q 45.171875 37.9375 44.390625 39.203125 
Q 43.359375 40.921875 41.59375 41.875 
Q 39.84375 42.828125 37.59375 42.828125 
Q 32.125 42.828125 29 38.59375 
Q 25.875 34.375 25.875 26.90625 
L 25.875 0 
L 8.40625 0 
L 8.40625 54.6875 
L 25.875 54.6875 
L 25.875 46.6875 
Q 29.828125 51.46875 34.265625 53.734375 
Q 38.71875 56 44.09375 56 
Q 53.5625 56 58.46875 50.1875 
Q 63.375 44.390625 63.375 33.296875 
z
" id="DejaVuSans-Bold-6e"/>
     <path d="M 8.40625 54.6875 
L 25.875 54.6875 
L 25.875 0 
L 8.40625 0 
z
M 8.40625 75.984375 
L 25.875 75.984375 
L 25.875 61.71875 
L 8.40625 61.71875 
z
" id="DejaVuSans-Bold-69"/>
    </defs>
    <g transform="translate(152.519526 288.317043)scale(0.16 -0.16)">
     <use xlink:href="#DejaVuSans-Bold-44"/>
     <use x="83.007812" xlink:href="#DejaVuSans-Bold-65"/>
     <use x="150.830078" xlink:href="#DejaVuSans-Bold-6c"/>
     <use x="185.107422" xlink:href="#DejaVuSans-Bold-61"/>
     <use x="252.541016" xlink:href="#DejaVuSans-Bold-79"/>
     <use x="317.726562" xlink:href="#DejaVuSans-Bold-41"/>
     <use x="395.119141" xlink:href="#DejaVuSans-Bold-6e"/>
     <use x="466.310547" xlink:href="#DejaVuSans-Bold-74"/>
     <use x="514.113281" xlink:href="#DejaVuSans-Bold-69"/>
    </g>
   </g>
   <g id="text_16">
    <g id="patch_11">
     <path d="M 172.407418 224.532134 
L 264.254918 224.532134 
L 264.254918 205.207134 
L 172.407418 205.207134 
z
" style="fill:#8c564b;opacity:0.5;"/>
    </g>
    <!-- ReactAnti -->
    <g transform="translate(174.327418 219.284634)scale(0.16 -0.16)">
     <use xlink:href="#DejaVuSans-Bold-52"/>
     <use x="77.001953" xlink:href="#DejaVuSans-Bold-65"/>
     <use x="144.824219" xlink:href="#DejaVuSans-Bold-61"/>
     <use x="212.304688" xlink:href="#DejaVuSans-Bold-63"/>
     <use x="271.582031" xlink:href="#DejaVuSans-Bold-74"/>
     <use x="319.384766" xlink:href="#DejaVuSans-Bold-41"/>
     <use x="396.777344" xlink:href="#DejaVuSans-Bold-6e"/>
     <use x="467.96875" xlink:href="#DejaVuSans-Bold-74"/>
     <use x="515.771484" xlink:href="#DejaVuSans-Bold-69"/>
    </g>
   </g>
   <g id="text_17">
    <g id="patch_12">
     <path d="M 179.959433 48.555926 
L 293.464433 48.555926 
L 293.464433 29.105926 
L 179.959433 29.105926 
z
" style="fill:#ff7f0e;opacity:0.5;"/>
    </g>
    <!-- MemoryAnti -->
    <g transform="translate(181.879433 43.183426)scale(0.16 -0.16)">
     <use xlink:href="#DejaVuSans-Bold-4d"/>
     <use x="99.511719" xlink:href="#DejaVuSans-Bold-65"/>
     <use x="167.333984" xlink:href="#DejaVuSans-Bold-6d"/>
     <use x="271.533203" xlink:href="#DejaVuSans-Bold-6f"/>
     <use x="340.234375" xlink:href="#DejaVuSans-Bold-72"/>
     <use x="389.550781" xlink:href="#DejaVuSans-Bold-79"/>
     <use x="454.736328" xlink:href="#DejaVuSans-Bold-41"/>
     <use x="532.128906" xlink:href="#DejaVuSans-Bold-6e"/>
     <use x="603.320312" xlink:href="#DejaVuSans-Bold-74"/>
     <use x="651.123047" xlink:href="#DejaVuSans-Bold-69"/>
    </g>
   </g>
   <g id="text_18">
    <g id="patch_13">
     <path d="M 205.39574 55.671088 
L 404.02074 55.671088 
L 404.02074 36.221088 
L 205.39574 36.221088 
z
" style="fill:#2ca02c;opacity:0.5;"/>
    </g>
    <!-- MemoryMatchSample -->
    <defs>
     <path d="M 63.375 33.296875 
L 63.375 0 
L 45.796875 0 
L 45.796875 5.421875 
L 45.796875 25.390625 
Q 45.796875 32.5625 45.484375 35.25 
Q 45.171875 37.9375 44.390625 39.203125 
Q 43.359375 40.921875 41.59375 41.875 
Q 39.84375 42.828125 37.59375 42.828125 
Q 32.125 42.828125 29 38.59375 
Q 25.875 34.375 25.875 26.90625 
L 25.875 0 
L 8.40625 0 
L 8.40625 75.984375 
L 25.875 75.984375 
L 25.875 46.6875 
Q 29.828125 51.46875 34.265625 53.734375 
Q 38.71875 56 44.09375 56 
Q 53.5625 56 58.46875 50.1875 
Q 63.375 44.390625 63.375 33.296875 
z
" id="DejaVuSans-Bold-68"/>
     <path d="M 59.90625 70.609375 
L 59.90625 55.171875 
Q 53.90625 57.859375 48.1875 59.21875 
Q 42.484375 60.59375 37.40625 60.59375 
Q 30.671875 60.59375 27.4375 58.734375 
Q 24.21875 56.890625 24.21875 52.984375 
Q 24.21875 50.046875 26.390625 48.40625 
Q 28.5625 46.78125 34.28125 45.609375 
L 42.28125 44 
Q 54.4375 41.546875 59.5625 36.5625 
Q 64.703125 31.59375 64.703125 22.40625 
Q 64.703125 10.359375 57.546875 4.46875 
Q 50.390625 -1.421875 35.6875 -1.421875 
Q 28.765625 -1.421875 21.78125 -0.09375 
Q 14.796875 1.21875 7.8125 3.8125 
L 7.8125 19.671875 
Q 14.796875 15.96875 21.3125 14.078125 
Q 27.828125 12.203125 33.890625 12.203125 
Q 40.046875 12.203125 43.3125 14.25 
Q 46.578125 16.3125 46.578125 20.125 
Q 46.578125 23.53125 44.359375 25.390625 
Q 42.140625 27.25 35.5 28.71875 
L 28.21875 30.328125 
Q 17.28125 32.671875 12.21875 37.796875 
Q 7.171875 42.921875 7.171875 51.609375 
Q 7.171875 62.5 14.203125 68.359375 
Q 21.234375 74.21875 34.421875 74.21875 
Q 40.4375 74.21875 46.78125 73.3125 
Q 53.125 72.40625 59.90625 70.609375 
z
" id="DejaVuSans-Bold-53"/>
     <path d="M 25.875 7.90625 
L 25.875 -20.796875 
L 8.40625 -20.796875 
L 8.40625 54.6875 
L 25.875 54.6875 
L 25.875 46.6875 
Q 29.5 51.46875 33.890625 53.734375 
Q 38.28125 56 44 56 
Q 54.109375 56 60.59375 47.96875 
Q 67.09375 39.9375 67.09375 27.296875 
Q 67.09375 14.65625 60.59375 6.609375 
Q 54.109375 -1.421875 44 -1.421875 
Q 38.28125 -1.421875 33.890625 0.84375 
Q 29.5 3.125 25.875 7.90625 
z
M 37.5 43.3125 
Q 31.890625 43.3125 28.875 39.1875 
Q 25.875 35.0625 25.875 27.296875 
Q 25.875 19.53125 28.875 15.40625 
Q 31.890625 11.28125 37.5 11.28125 
Q 43.109375 11.28125 46.0625 15.375 
Q 49.03125 19.484375 49.03125 27.296875 
Q 49.03125 35.109375 46.0625 39.203125 
Q 43.109375 43.3125 37.5 43.3125 
z
" id="DejaVuSans-Bold-70"/>
    </defs>
    <g transform="translate(207.31574 50.298588)scale(0.16 -0.16)">
     <use xlink:href="#DejaVuSans-Bold-4d"/>
     <use x="99.511719" xlink:href="#DejaVuSans-Bold-65"/>
     <use x="167.333984" xlink:href="#DejaVuSans-Bold-6d"/>
     <use x="271.533203" xlink:href="#DejaVuSans-Bold-6f"/>
     <use x="340.234375" xlink:href="#DejaVuSans-Bold-72"/>
     <use x="389.550781" xlink:href="#DejaVuSans-Bold-79"/>
     <use x="454.736328" xlink:href="#DejaVuSans-Bold-4d"/>
     <use x="554.248047" xlink:href="#DejaVuSans-Bold-61"/>
     <use x="621.728516" xlink:href="#DejaVuSans-Bold-74"/>
     <use x="669.53125" xlink:href="#DejaVuSans-Bold-63"/>
     <use x="728.808594" xlink:href="#DejaVuSans-Bold-68"/>
     <use x="800" xlink:href="#DejaVuSans-Bold-53"/>
     <use x="872.021484" xlink:href="#DejaVuSans-Bold-61"/>
     <use x="939.501953" xlink:href="#DejaVuSans-Bold-6d"/>
     <use x="1043.701172" xlink:href="#DejaVuSans-Bold-70"/>
     <use x="1115.283203" xlink:href="#DejaVuSans-Bold-6c"/>
     <use x="1149.560547" xlink:href="#DejaVuSans-Bold-65"/>
    </g>
   </g>
   <g id="text_19">
    <g id="patch_14">
     <path d="M 204.386879 49.406246 
L 449.839379 49.406246 
L 449.839379 29.956246 
L 204.386879 29.956246 
z
" style="fill:#2ca02c;opacity:0.5;"/>
    </g>
    <!-- MemoryMatchSampleNogo -->
    <defs>
     <path d="M 9.1875 72.90625 
L 30.171875 72.90625 
L 56.6875 22.90625 
L 56.6875 72.90625 
L 74.515625 72.90625 
L 74.515625 0 
L 53.515625 0 
L 27 50 
L 27 0 
L 9.1875 0 
z
" id="DejaVuSans-Bold-4e"/>
     <path d="M 45.609375 9.28125 
Q 42 4.5 37.640625 2.25 
Q 33.296875 0 27.59375 0 
Q 17.578125 0 11.03125 7.875 
Q 4.5 15.765625 4.5 27.984375 
Q 4.5 40.234375 11.03125 48.0625 
Q 17.578125 55.90625 27.59375 55.90625 
Q 33.296875 55.90625 37.640625 53.65625 
Q 42 51.421875 45.609375 46.578125 
L 45.609375 54.6875 
L 63.1875 54.6875 
L 63.1875 5.515625 
Q 63.1875 -7.671875 54.859375 -14.625 
Q 46.53125 -21.578125 30.71875 -21.578125 
Q 25.59375 -21.578125 20.796875 -20.796875 
Q 16.015625 -20.015625 11.1875 -18.40625 
L 11.1875 -4.78125 
Q 15.765625 -7.421875 20.15625 -8.71875 
Q 24.5625 -10.015625 29 -10.015625 
Q 37.59375 -10.015625 41.59375 -6.25 
Q 45.609375 -2.484375 45.609375 5.515625 
z
M 34.078125 43.3125 
Q 28.65625 43.3125 25.625 39.296875 
Q 22.609375 35.296875 22.609375 27.984375 
Q 22.609375 20.453125 25.53125 16.578125 
Q 28.46875 12.703125 34.078125 12.703125 
Q 39.546875 12.703125 42.578125 16.703125 
Q 45.609375 20.703125 45.609375 27.984375 
Q 45.609375 35.296875 42.578125 39.296875 
Q 39.546875 43.3125 34.078125 43.3125 
z
" id="DejaVuSans-Bold-67"/>
    </defs>
    <g transform="translate(206.306879 44.033746)scale(0.16 -0.16)">
     <use xlink:href="#DejaVuSans-Bold-4d"/>
     <use x="99.511719" xlink:href="#DejaVuSans-Bold-65"/>
     <use x="167.333984" xlink:href="#DejaVuSans-Bold-6d"/>
     <use x="271.533203" xlink:href="#DejaVuSans-Bold-6f"/>
     <use x="340.234375" xlink:href="#DejaVuSans-Bold-72"/>
     <use x="389.550781" xlink:href="#DejaVuSans-Bold-79"/>
     <use x="454.736328" xlink:href="#DejaVuSans-Bold-4d"/>
     <use x="554.248047" xlink:href="#DejaVuSans-Bold-61"/>
     <use x="621.728516" xlink:href="#DejaVuSans-Bold-74"/>
     <use x="669.53125" xlink:href="#DejaVuSans-Bold-63"/>
     <use x="728.808594" xlink:href="#DejaVuSans-Bold-68"/>
     <use x="800" xlink:href="#DejaVuSans-Bold-53"/>
     <use x="872.021484" xlink:href="#DejaVuSans-Bold-61"/>
     <use x="939.501953" xlink:href="#DejaVuSans-Bold-6d"/>
     <use x="1043.701172" xlink:href="#DejaVuSans-Bold-70"/>
     <use x="1115.283203" xlink:href="#DejaVuSans-Bold-6c"/>
     <use x="1149.560547" xlink:href="#DejaVuSans-Bold-65"/>
     <use x="1217.382812" xlink:href="#DejaVuSans-Bold-4e"/>
     <use x="1301.074219" xlink:href="#DejaVuSans-Bold-6f"/>
     <use x="1369.775391" xlink:href="#DejaVuSans-Bold-67"/>
     <use x="1441.357422" xlink:href="#DejaVuSans-Bold-6f"/>
    </g>
   </g>
   <g id="text_20">
    <g id="patch_15">
     <path d="M 392.425455 334.351247 
L 574.955455 334.351247 
L 574.955455 315.026247 
L 392.425455 315.026247 
z
" style="fill:#d62728;opacity:0.5;"/>
    </g>
    <!-- MemoryCategoryGo -->
    <defs>
     <path d="M 67 4 
Q 61.8125 1.3125 56.203125 -0.046875 
Q 50.59375 -1.421875 44.484375 -1.421875 
Q 26.265625 -1.421875 15.625 8.765625 
Q 4.984375 18.953125 4.984375 36.375 
Q 4.984375 53.859375 15.625 64.03125 
Q 26.265625 74.21875 44.484375 74.21875 
Q 50.59375 74.21875 56.203125 72.84375 
Q 61.8125 71.484375 67 68.796875 
L 67 53.71875 
Q 61.765625 57.28125 56.6875 58.9375 
Q 51.609375 60.59375 46 60.59375 
Q 35.9375 60.59375 30.171875 54.140625 
Q 24.421875 47.703125 24.421875 36.375 
Q 24.421875 25.09375 30.171875 18.640625 
Q 35.9375 12.203125 46 12.203125 
Q 51.609375 12.203125 56.6875 13.859375 
Q 61.765625 15.53125 67 19.09375 
z
" id="DejaVuSans-Bold-43"/>
    </defs>
    <g transform="translate(394.345455 328.978747)scale(0.16 -0.16)">
     <use xlink:href="#DejaVuSans-Bold-4d"/>
     <use x="99.511719" xlink:href="#DejaVuSans-Bold-65"/>
     <use x="167.333984" xlink:href="#DejaVuSans-Bold-6d"/>
     <use x="271.533203" xlink:href="#DejaVuSans-Bold-6f"/>
     <use x="340.234375" xlink:href="#DejaVuSans-Bold-72"/>
     <use x="389.550781" xlink:href="#DejaVuSans-Bold-79"/>
     <use x="454.736328" xlink:href="#DejaVuSans-Bold-43"/>
     <use x="528.125" xlink:href="#DejaVuSans-Bold-61"/>
     <use x="595.605469" xlink:href="#DejaVuSans-Bold-74"/>
     <use x="643.408203" xlink:href="#DejaVuSans-Bold-65"/>
     <use x="711.230469" xlink:href="#DejaVuSans-Bold-67"/>
     <use x="782.8125" xlink:href="#DejaVuSans-Bold-6f"/>
     <use x="851.513672" xlink:href="#DejaVuSans-Bold-72"/>
     <use x="900.830078" xlink:href="#DejaVuSans-Bold-79"/>
     <use x="966.015625" xlink:href="#DejaVuSans-Bold-47"/>
     <use x="1048.095703" xlink:href="#DejaVuSans-Bold-6f"/>
    </g>
   </g>
   <g id="text_21">
    <g id="patch_16">
     <path d="M 338.681629 361.005786 
L 545.594129 361.005786 
L 545.594129 341.680786 
L 338.681629 341.680786 
z
" style="fill:#d62728;opacity:0.5;"/>
    </g>
    <!-- MemoryCategoryNoGo -->
    <g transform="translate(340.601629 355.633286)scale(0.16 -0.16)">
     <use xlink:href="#DejaVuSans-Bold-4d"/>
     <use x="99.511719" xlink:href="#DejaVuSans-Bold-65"/>
     <use x="167.333984" xlink:href="#DejaVuSans-Bold-6d"/>
     <use x="271.533203" xlink:href="#DejaVuSans-Bold-6f"/>
     <use x="340.234375" xlink:href="#DejaVuSans-Bold-72"/>
     <use x="389.550781" xlink:href="#DejaVuSans-Bold-79"/>
     <use x="454.736328" xlink:href="#DejaVuSans-Bold-43"/>
     <use x="528.125" xlink:href="#DejaVuSans-Bold-61"/>
     <use x="595.605469" xlink:href="#DejaVuSans-Bold-74"/>
     <use x="643.408203" xlink:href="#DejaVuSans-Bold-65"/>
     <use x="711.230469" xlink:href="#DejaVuSans-Bold-67"/>
     <use x="782.8125" xlink:href="#DejaVuSans-Bold-6f"/>
     <use x="851.513672" xlink:href="#DejaVuSans-Bold-72"/>
     <use x="900.830078" xlink:href="#DejaVuSans-Bold-79"/>
     <use x="966.015625" xlink:href="#DejaVuSans-Bold-4e"/>
     <use x="1049.707031" xlink:href="#DejaVuSans-Bold-6f"/>
     <use x="1118.408203" xlink:href="#DejaVuSans-Bold-47"/>
     <use x="1200.488281" xlink:href="#DejaVuSans-Bold-6f"/>
    </g>
   </g>
  </g>
  <g id="axes_2">
   <g id="patch_17">
    <path d="M 496.235 378.802 
L 843.22 378.802 
L 843.22 31.817 
L 496.235 31.817 
z
" style="fill:#ffffff;"/>
   </g>
   <g id="matplotlib.axis_3">
    <g id="xtick_5">
     <g id="line2d_22">
      <g>
       <use style="stroke:#000000;stroke-width:0.8;" x="556.125411" xlink:href="#m7896c72e9a" y="378.802"/>
      </g>
     </g>
     <g id="text_22">
      <!-- −0.2 -->
      <g transform="translate(536.699161 397.9595)scale(0.16 -0.16)">
       <use xlink:href="#DejaVuSans-2212"/>
       <use x="83.789062" xlink:href="#DejaVuSans-30"/>
       <use x="147.412109" xlink:href="#DejaVuSans-2e"/>
       <use x="179.199219" xlink:href="#DejaVuSans-32"/>
      </g>
     </g>
    </g>
    <g id="xtick_6">
     <g id="line2d_23">
      <g>
       <use style="stroke:#000000;stroke-width:0.8;" x="619.439431" xlink:href="#m7896c72e9a" y="378.802"/>
      </g>
     </g>
     <g id="text_23">
      <!-- −0.1 -->
      <g transform="translate(600.013181 397.9595)scale(0.16 -0.16)">
       <use xlink:href="#DejaVuSans-2212"/>
       <use x="83.789062" xlink:href="#DejaVuSans-30"/>
       <use x="147.412109" xlink:href="#DejaVuSans-2e"/>
       <use x="179.199219" xlink:href="#DejaVuSans-31"/>
      </g>
     </g>
    </g>
    <g id="xtick_7">
     <g id="line2d_24">
      <g>
       <use style="stroke:#000000;stroke-width:0.8;" x="682.75345" xlink:href="#m7896c72e9a" y="378.802"/>
      </g>
     </g>
     <g id="text_24">
      <!-- 0.0 -->
      <g transform="translate(670.03095 397.9595)scale(0.16 -0.16)">
       <use xlink:href="#DejaVuSans-30"/>
       <use x="63.623047" xlink:href="#DejaVuSans-2e"/>
       <use x="95.410156" xlink:href="#DejaVuSans-30"/>
      </g>
     </g>
    </g>
    <g id="xtick_8">
     <g id="line2d_25">
      <g>
       <use style="stroke:#000000;stroke-width:0.8;" x="746.06747" xlink:href="#m7896c72e9a" y="378.802"/>
      </g>
     </g>
     <g id="text_25">
      <!-- 0.1 -->
      <g transform="translate(733.34497 397.9595)scale(0.16 -0.16)">
       <use xlink:href="#DejaVuSans-30"/>
       <use x="63.623047" xlink:href="#DejaVuSans-2e"/>
       <use x="95.410156" xlink:href="#DejaVuSans-31"/>
      </g>
     </g>
    </g>
    <g id="xtick_9">
     <g id="line2d_26">
      <g>
       <use style="stroke:#000000;stroke-width:0.8;" x="809.381489" xlink:href="#m7896c72e9a" y="378.802"/>
      </g>
     </g>
     <g id="text_26">
      <!-- 0.2 -->
      <g transform="translate(796.658989 397.9595)scale(0.16 -0.16)">
       <use xlink:href="#DejaVuSans-30"/>
       <use x="63.623047" xlink:href="#DejaVuSans-2e"/>
       <use x="95.410156" xlink:href="#DejaVuSans-32"/>
      </g>
     </g>
    </g>
    <g id="text_27">
     <!-- MDS1 -->
     <defs>
      <path d="M 9.8125 72.90625 
L 24.515625 72.90625 
L 43.109375 23.296875 
L 61.8125 72.90625 
L 76.515625 72.90625 
L 76.515625 0 
L 66.890625 0 
L 66.890625 64.015625 
L 48.09375 14.015625 
L 38.1875 14.015625 
L 19.390625 64.015625 
L 19.390625 0 
L 9.8125 0 
z
" id="DejaVuSans-4d"/>
      <path d="M 19.671875 64.796875 
L 19.671875 8.109375 
L 31.59375 8.109375 
Q 46.6875 8.109375 53.6875 14.9375 
Q 60.6875 21.78125 60.6875 36.53125 
Q 60.6875 51.171875 53.6875 57.984375 
Q 46.6875 64.796875 31.59375 64.796875 
z
M 9.8125 72.90625 
L 30.078125 72.90625 
Q 51.265625 72.90625 61.171875 64.09375 
Q 71.09375 55.28125 71.09375 36.53125 
Q 71.09375 17.671875 61.125 8.828125 
Q 51.171875 0 30.078125 0 
L 9.8125 0 
z
" id="DejaVuSans-44"/>
      <path d="M 53.515625 70.515625 
L 53.515625 60.890625 
Q 47.90625 63.578125 42.921875 64.890625 
Q 37.9375 66.21875 33.296875 66.21875 
Q 25.25 66.21875 20.875 63.09375 
Q 16.5 59.96875 16.5 54.203125 
Q 16.5 49.359375 19.40625 46.890625 
Q 22.3125 44.4375 30.421875 42.921875 
L 36.375 41.703125 
Q 47.40625 39.59375 52.65625 34.296875 
Q 57.90625 29 57.90625 20.125 
Q 57.90625 9.515625 50.796875 4.046875 
Q 43.703125 -1.421875 29.984375 -1.421875 
Q 24.8125 -1.421875 18.96875 -0.25 
Q 13.140625 0.921875 6.890625 3.21875 
L 6.890625 13.375 
Q 12.890625 10.015625 18.65625 8.296875 
Q 24.421875 6.59375 29.984375 6.59375 
Q 38.421875 6.59375 43.015625 9.90625 
Q 47.609375 13.234375 47.609375 19.390625 
Q 47.609375 24.75 44.3125 27.78125 
Q 41.015625 30.8125 33.5 32.328125 
L 27.484375 33.5 
Q 16.453125 35.6875 11.515625 40.375 
Q 6.59375 45.0625 6.59375 53.421875 
Q 6.59375 63.09375 13.40625 68.65625 
Q 20.21875 74.21875 32.171875 74.21875 
Q 37.3125 74.21875 42.625 73.28125 
Q 47.953125 72.359375 53.515625 70.515625 
z
" id="DejaVuSans-53"/>
     </defs>
     <g transform="translate(646.49625 417.4445)scale(0.16 -0.16)">
      <use xlink:href="#DejaVuSans-4d"/>
      <use x="86.279297" xlink:href="#DejaVuSans-44"/>
      <use x="163.28125" xlink:href="#DejaVuSans-53"/>
      <use x="226.757812" xlink:href="#DejaVuSans-31"/>
     </g>
    </g>
   </g>
   <g id="matplotlib.axis_4">
    <g id="ytick_8">
     <g id="line2d_27">
      <g>
       <use style="stroke:#000000;stroke-width:0.8;" x="496.235" xlink:href="#m3f1c040cc3" y="347.973502"/>
      </g>
     </g>
     <g id="text_28">
      <!-- −0.3 -->
      <g transform="translate(450.3825 354.052252)scale(0.16 -0.16)">
       <use xlink:href="#DejaVuSans-2212"/>
       <use x="83.789062" xlink:href="#DejaVuSans-30"/>
       <use x="147.412109" xlink:href="#DejaVuSans-2e"/>
       <use x="179.199219" xlink:href="#DejaVuSans-33"/>
      </g>
     </g>
    </g>
    <g id="ytick_9">
     <g id="line2d_28">
      <g>
       <use style="stroke:#000000;stroke-width:0.8;" x="496.235" xlink:href="#m3f1c040cc3" y="284.659483"/>
      </g>
     </g>
     <g id="text_29">
      <!-- −0.2 -->
      <g transform="translate(450.3825 290.738233)scale(0.16 -0.16)">
       <use xlink:href="#DejaVuSans-2212"/>
       <use x="83.789062" xlink:href="#DejaVuSans-30"/>
       <use x="147.412109" xlink:href="#DejaVuSans-2e"/>
       <use x="179.199219" xlink:href="#DejaVuSans-32"/>
      </g>
     </g>
    </g>
    <g id="ytick_10">
     <g id="line2d_29">
      <g>
       <use style="stroke:#000000;stroke-width:0.8;" x="496.235" xlink:href="#m3f1c040cc3" y="221.345463"/>
      </g>
     </g>
     <g id="text_30">
      <!-- −0.1 -->
      <g transform="translate(450.3825 227.424213)scale(0.16 -0.16)">
       <use xlink:href="#DejaVuSans-2212"/>
       <use x="83.789062" xlink:href="#DejaVuSans-30"/>
       <use x="147.412109" xlink:href="#DejaVuSans-2e"/>
       <use x="179.199219" xlink:href="#DejaVuSans-31"/>
      </g>
     </g>
    </g>
    <g id="ytick_11">
     <g id="line2d_30">
      <g>
       <use style="stroke:#000000;stroke-width:0.8;" x="496.235" xlink:href="#m3f1c040cc3" y="158.031444"/>
      </g>
     </g>
     <g id="text_31">
      <!-- 0.0 -->
      <g transform="translate(463.79 164.110194)scale(0.16 -0.16)">
       <use xlink:href="#DejaVuSans-30"/>
       <use x="63.623047" xlink:href="#DejaVuSans-2e"/>
       <use x="95.410156" xlink:href="#DejaVuSans-30"/>
      </g>
     </g>
    </g>
    <g id="ytick_12">
     <g id="line2d_31">
      <g>
       <use style="stroke:#000000;stroke-width:0.8;" x="496.235" xlink:href="#m3f1c040cc3" y="94.717424"/>
      </g>
     </g>
     <g id="text_32">
      <!-- 0.1 -->
      <g transform="translate(463.79 100.796174)scale(0.16 -0.16)">
       <use xlink:href="#DejaVuSans-30"/>
       <use x="63.623047" xlink:href="#DejaVuSans-2e"/>
       <use x="95.410156" xlink:href="#DejaVuSans-31"/>
      </g>
     </g>
    </g>
    <g id="ytick_13">
     <g id="line2d_32">
      <g>
       <use style="stroke:#000000;stroke-width:0.8;" x="496.235" xlink:href="#m3f1c040cc3" y="31.403405"/>
      </g>
     </g>
     <g id="text_33">
      <!-- 0.2 -->
      <g transform="translate(463.79 37.482155)scale(0.16 -0.16)">
       <use xlink:href="#DejaVuSans-30"/>
       <use x="63.623047" xlink:href="#DejaVuSans-2e"/>
       <use x="95.410156" xlink:href="#DejaVuSans-32"/>
      </g>
     </g>
    </g>
    <g id="text_34">
     <!-- MDS2 -->
     <g transform="translate(443.055 228.54075)rotate(-90)scale(0.16 -0.16)">
      <use xlink:href="#DejaVuSans-4d"/>
      <use x="86.279297" xlink:href="#DejaVuSans-44"/>
      <use x="163.28125" xlink:href="#DejaVuSans-53"/>
      <use x="226.757812" xlink:href="#DejaVuSans-32"/>
     </g>
    </g>
   </g>
   <g id="line2d_33">
    <g clip-path="url(#pebbd41e322)">
     <use style="fill:#1f77b4;stroke:#1f77b4;" x="731.651124" xlink:href="#mbad1f455dd" y="86.220361"/>
    </g>
   </g>
   <g id="line2d_34">
    <g clip-path="url(#pebbd41e322)">
     <use style="fill:#8c564b;stroke:#8c564b;" x="736.62018" xlink:href="#m4aba9f99e7" y="85.524393"/>
    </g>
   </g>
   <g id="line2d_35">
    <g clip-path="url(#pebbd41e322)">
     <use style="fill:#ff7f0e;stroke:#ff7f0e;" x="598.547321" xlink:href="#m8d8ca2addc" y="363.029955"/>
    </g>
   </g>
   <g id="line2d_36">
    <g clip-path="url(#pebbd41e322)">
     <use style="fill:#1f77b4;stroke:#1f77b4;" x="708.851686" xlink:href="#mbad1f455dd" y="47.589045"/>
    </g>
   </g>
   <g id="line2d_37">
    <g clip-path="url(#pebbd41e322)">
     <use style="fill:#8c564b;stroke:#8c564b;" x="733.421188" xlink:href="#m4aba9f99e7" y="58.371622"/>
    </g>
   </g>
   <g id="line2d_38">
    <g clip-path="url(#pebbd41e322)">
     <use style="fill:#ff7f0e;stroke:#ff7f0e;" x="508.019794" xlink:href="#m8d8ca2addc" y="239.675781"/>
    </g>
   </g>
   <g id="line2d_39">
    <g clip-path="url(#pebbd41e322)">
     <use style="fill:#2ca02c;stroke:#2ca02c;" x="681.805563" xlink:href="#m45aa37f3bc" y="289.509304"/>
    </g>
   </g>
   <g id="line2d_40">
    <g clip-path="url(#pebbd41e322)">
     <use style="fill:#2ca02c;stroke:#2ca02c;" x="644.837773" xlink:href="#m45aa37f3bc" y="214.808138"/>
    </g>
   </g>
   <g id="line2d_41">
    <g clip-path="url(#pebbd41e322)">
     <use style="fill:#d62728;stroke:#d62728;" x="740.064205" xlink:href="#m9d64714359" y="99.652706"/>
    </g>
   </g>
   <g id="line2d_42">
    <g clip-path="url(#pebbd41e322)">
     <use style="fill:#d62728;stroke:#d62728;" x="743.715671" xlink:href="#m9d64714359" y="95.933132"/>
    </g>
   </g>
   <g id="patch_18">
    <path d="M 496.235 378.802 
L 496.235 31.817 
" style="fill:none;stroke:#000000;stroke-linecap:square;stroke-linejoin:miter;stroke-width:0.8;"/>
   </g>
   <g id="patch_19">
    <path d="M 843.22 378.802 
L 843.22 31.817 
" style="fill:none;stroke:#000000;stroke-linecap:square;stroke-linejoin:miter;stroke-width:0.8;"/>
   </g>
   <g id="patch_20">
    <path d="M 496.235 378.802 
L 843.22 378.802 
" style="fill:none;stroke:#000000;stroke-linecap:square;stroke-linejoin:miter;stroke-width:0.8;"/>
   </g>
   <g id="patch_21">
    <path d="M 496.235 31.817 
L 843.22 31.817 
" style="fill:none;stroke:#000000;stroke-linecap:square;stroke-linejoin:miter;stroke-width:0.8;"/>
   </g>
   <g id="text_35">
    <g id="patch_22">
     <path d="M 729.731124 91.592861 
L 808.536124 91.592861 
L 808.536124 72.142861 
L 729.731124 72.142861 
z
" style="fill:#1f77b4;opacity:0.5;"/>
    </g>
    <!-- DelayGo -->
    <g transform="translate(731.651124 86.220361)scale(0.16 -0.16)">
     <use xlink:href="#DejaVuSans-Bold-44"/>
     <use x="83.007812" xlink:href="#DejaVuSans-Bold-65"/>
     <use x="150.830078" xlink:href="#DejaVuSans-Bold-6c"/>
     <use x="185.107422" xlink:href="#DejaVuSans-Bold-61"/>
     <use x="252.541016" xlink:href="#DejaVuSans-Bold-79"/>
     <use x="317.726562" xlink:href="#DejaVuSans-Bold-47"/>
     <use x="399.806641" xlink:href="#DejaVuSans-Bold-6f"/>
    </g>
   </g>
   <g id="text_36">
    <g id="patch_23">
     <path d="M 734.70018 90.771893 
L 813.76768 90.771893 
L 813.76768 71.446893 
L 734.70018 71.446893 
z
" style="fill:#8c564b;opacity:0.5;"/>
    </g>
    <!-- ReactGo -->
    <g transform="translate(736.62018 85.524393)scale(0.16 -0.16)">
     <use xlink:href="#DejaVuSans-Bold-52"/>
     <use x="77.001953" xlink:href="#DejaVuSans-Bold-65"/>
     <use x="144.824219" xlink:href="#DejaVuSans-Bold-61"/>
     <use x="212.304688" xlink:href="#DejaVuSans-Bold-63"/>
     <use x="271.582031" xlink:href="#DejaVuSans-Bold-74"/>
     <use x="319.384766" xlink:href="#DejaVuSans-Bold-47"/>
     <use x="401.464844" xlink:href="#DejaVuSans-Bold-6f"/>
    </g>
   </g>
   <g id="text_37">
    <g id="patch_24">
     <path d="M 596.627321 368.402455 
L 697.352321 368.402455 
L 697.352321 349.077455 
L 596.627321 349.077455 
z
" style="fill:#ff7f0e;opacity:0.5;"/>
    </g>
    <!-- MemoryGo -->
    <g transform="translate(598.547321 363.029955)scale(0.16 -0.16)">
     <use xlink:href="#DejaVuSans-Bold-4d"/>
     <use x="99.511719" xlink:href="#DejaVuSans-Bold-65"/>
     <use x="167.333984" xlink:href="#DejaVuSans-Bold-6d"/>
     <use x="271.533203" xlink:href="#DejaVuSans-Bold-6f"/>
     <use x="340.234375" xlink:href="#DejaVuSans-Bold-72"/>
     <use x="389.550781" xlink:href="#DejaVuSans-Bold-79"/>
     <use x="454.736328" xlink:href="#DejaVuSans-Bold-47"/>
     <use x="536.816406" xlink:href="#DejaVuSans-Bold-6f"/>
    </g>
   </g>
   <g id="text_38">
    <g id="patch_25">
     <path d="M 706.931686 52.961545 
L 798.516686 52.961545 
L 798.516686 33.511545 
L 706.931686 33.511545 
z
" style="fill:#1f77b4;opacity:0.5;"/>
    </g>
    <!-- DelayAnti -->
    <g transform="translate(708.851686 47.589045)scale(0.16 -0.16)">
     <use xlink:href="#DejaVuSans-Bold-44"/>
     <use x="83.007812" xlink:href="#DejaVuSans-Bold-65"/>
     <use x="150.830078" xlink:href="#DejaVuSans-Bold-6c"/>
     <use x="185.107422" xlink:href="#DejaVuSans-Bold-61"/>
     <use x="252.541016" xlink:href="#DejaVuSans-Bold-79"/>
     <use x="317.726562" xlink:href="#DejaVuSans-Bold-41"/>
     <use x="395.119141" xlink:href="#DejaVuSans-Bold-6e"/>
     <use x="466.310547" xlink:href="#DejaVuSans-Bold-74"/>
     <use x="514.113281" xlink:href="#DejaVuSans-Bold-69"/>
    </g>
   </g>
   <g id="text_39">
    <g id="patch_26">
     <path d="M 731.501188 63.619122 
L 823.348688 63.619122 
L 823.348688 44.294122 
L 731.501188 44.294122 
z
" style="fill:#8c564b;opacity:0.5;"/>
    </g>
    <!-- ReactAnti -->
    <g transform="translate(733.421188 58.371622)scale(0.16 -0.16)">
     <use xlink:href="#DejaVuSans-Bold-52"/>
     <use x="77.001953" xlink:href="#DejaVuSans-Bold-65"/>
     <use x="144.824219" xlink:href="#DejaVuSans-Bold-61"/>
     <use x="212.304688" xlink:href="#DejaVuSans-Bold-63"/>
     <use x="271.582031" xlink:href="#DejaVuSans-Bold-74"/>
     <use x="319.384766" xlink:href="#DejaVuSans-Bold-41"/>
     <use x="396.777344" xlink:href="#DejaVuSans-Bold-6e"/>
     <use x="467.96875" xlink:href="#DejaVuSans-Bold-74"/>
     <use x="515.771484" xlink:href="#DejaVuSans-Bold-69"/>
    </g>
   </g>
   <g id="text_40">
    <g id="patch_27">
     <path d="M 506.099794 245.048281 
L 619.604794 245.048281 
L 619.604794 225.598281 
L 506.099794 225.598281 
z
" style="fill:#ff7f0e;opacity:0.5;"/>
    </g>
    <!-- MemoryAnti -->
    <g transform="translate(508.019794 239.675781)scale(0.16 -0.16)">
     <use xlink:href="#DejaVuSans-Bold-4d"/>
     <use x="99.511719" xlink:href="#DejaVuSans-Bold-65"/>
     <use x="167.333984" xlink:href="#DejaVuSans-Bold-6d"/>
     <use x="271.533203" xlink:href="#DejaVuSans-Bold-6f"/>
     <use x="340.234375" xlink:href="#DejaVuSans-Bold-72"/>
     <use x="389.550781" xlink:href="#DejaVuSans-Bold-79"/>
     <use x="454.736328" xlink:href="#DejaVuSans-Bold-41"/>
     <use x="532.128906" xlink:href="#DejaVuSans-Bold-6e"/>
     <use x="603.320312" xlink:href="#DejaVuSans-Bold-74"/>
     <use x="651.123047" xlink:href="#DejaVuSans-Bold-69"/>
    </g>
   </g>
   <g id="text_41">
    <g id="patch_28">
     <path d="M 679.885563 294.881804 
L 878.510563 294.881804 
L 878.510563 275.431804 
L 679.885563 275.431804 
z
" style="fill:#2ca02c;opacity:0.5;"/>
    </g>
    <!-- MemoryMatchSample -->
    <g transform="translate(681.805563 289.509304)scale(0.16 -0.16)">
     <use xlink:href="#DejaVuSans-Bold-4d"/>
     <use x="99.511719" xlink:href="#DejaVuSans-Bold-65"/>
     <use x="167.333984" xlink:href="#DejaVuSans-Bold-6d"/>
     <use x="271.533203" xlink:href="#DejaVuSans-Bold-6f"/>
     <use x="340.234375" xlink:href="#DejaVuSans-Bold-72"/>
     <use x="389.550781" xlink:href="#DejaVuSans-Bold-79"/>
     <use x="454.736328" xlink:href="#DejaVuSans-Bold-4d"/>
     <use x="554.248047" xlink:href="#DejaVuSans-Bold-61"/>
     <use x="621.728516" xlink:href="#DejaVuSans-Bold-74"/>
     <use x="669.53125" xlink:href="#DejaVuSans-Bold-63"/>
     <use x="728.808594" xlink:href="#DejaVuSans-Bold-68"/>
     <use x="800" xlink:href="#DejaVuSans-Bold-53"/>
     <use x="872.021484" xlink:href="#DejaVuSans-Bold-61"/>
     <use x="939.501953" xlink:href="#DejaVuSans-Bold-6d"/>
     <use x="1043.701172" xlink:href="#DejaVuSans-Bold-70"/>
     <use x="1115.283203" xlink:href="#DejaVuSans-Bold-6c"/>
     <use x="1149.560547" xlink:href="#DejaVuSans-Bold-65"/>
    </g>
   </g>
   <g id="text_42">
    <g id="patch_29">
     <path d="M 642.917773 220.180638 
L 888.370273 220.180638 
L 888.370273 200.730638 
L 642.917773 200.730638 
z
" style="fill:#2ca02c;opacity:0.5;"/>
    </g>
    <!-- MemoryMatchSampleNogo -->
    <g transform="translate(644.837773 214.808138)scale(0.16 -0.16)">
     <use xlink:href="#DejaVuSans-Bold-4d"/>
     <use x="99.511719" xlink:href="#DejaVuSans-Bold-65"/>
     <use x="167.333984" xlink:href="#DejaVuSans-Bold-6d"/>
     <use x="271.533203" xlink:href="#DejaVuSans-Bold-6f"/>
     <use x="340.234375" xlink:href="#DejaVuSans-Bold-72"/>
     <use x="389.550781" xlink:href="#DejaVuSans-Bold-79"/>
     <use x="454.736328" xlink:href="#DejaVuSans-Bold-4d"/>
     <use x="554.248047" xlink:href="#DejaVuSans-Bold-61"/>
     <use x="621.728516" xlink:href="#DejaVuSans-Bold-74"/>
     <use x="669.53125" xlink:href="#DejaVuSans-Bold-63"/>
     <use x="728.808594" xlink:href="#DejaVuSans-Bold-68"/>
     <use x="800" xlink:href="#DejaVuSans-Bold-53"/>
     <use x="872.021484" xlink:href="#DejaVuSans-Bold-61"/>
     <use x="939.501953" xlink:href="#DejaVuSans-Bold-6d"/>
     <use x="1043.701172" xlink:href="#DejaVuSans-Bold-70"/>
     <use x="1115.283203" xlink:href="#DejaVuSans-Bold-6c"/>
     <use x="1149.560547" xlink:href="#DejaVuSans-Bold-65"/>
     <use x="1217.382812" xlink:href="#DejaVuSans-Bold-4e"/>
     <use x="1301.074219" xlink:href="#DejaVuSans-Bold-6f"/>
     <use x="1369.775391" xlink:href="#DejaVuSans-Bold-67"/>
     <use x="1441.357422" xlink:href="#DejaVuSans-Bold-6f"/>
    </g>
   </g>
   <g id="text_43">
    <g id="patch_30">
     <path d="M 738.144205 105.025206 
L 920.674205 105.025206 
L 920.674205 85.700206 
L 738.144205 85.700206 
z
" style="fill:#d62728;opacity:0.5;"/>
    </g>
    <!-- MemoryCategoryGo -->
    <g transform="translate(740.064205 99.652706)scale(0.16 -0.16)">
     <use xlink:href="#DejaVuSans-Bold-4d"/>
     <use x="99.511719" xlink:href="#DejaVuSans-Bold-65"/>
     <use x="167.333984" xlink:href="#DejaVuSans-Bold-6d"/>
     <use x="271.533203" xlink:href="#DejaVuSans-Bold-6f"/>
     <use x="340.234375" xlink:href="#DejaVuSans-Bold-72"/>
     <use x="389.550781" xlink:href="#DejaVuSans-Bold-79"/>
     <use x="454.736328" xlink:href="#DejaVuSans-Bold-43"/>
     <use x="528.125" xlink:href="#DejaVuSans-Bold-61"/>
     <use x="595.605469" xlink:href="#DejaVuSans-Bold-74"/>
     <use x="643.408203" xlink:href="#DejaVuSans-Bold-65"/>
     <use x="711.230469" xlink:href="#DejaVuSans-Bold-67"/>
     <use x="782.8125" xlink:href="#DejaVuSans-Bold-6f"/>
     <use x="851.513672" xlink:href="#DejaVuSans-Bold-72"/>
     <use x="900.830078" xlink:href="#DejaVuSans-Bold-79"/>
     <use x="966.015625" xlink:href="#DejaVuSans-Bold-47"/>
     <use x="1048.095703" xlink:href="#DejaVuSans-Bold-6f"/>
    </g>
   </g>
   <g id="text_44">
    <g id="patch_31">
     <path d="M 741.795671 101.305632 
L 948.708171 101.305632 
L 948.708171 81.980632 
L 741.795671 81.980632 
z
" style="fill:#d62728;opacity:0.5;"/>
    </g>
    <!-- MemoryCategoryNoGo -->
    <g transform="translate(743.715671 95.933132)scale(0.16 -0.16)">
     <use xlink:href="#DejaVuSans-Bold-4d"/>
     <use x="99.511719" xlink:href="#DejaVuSans-Bold-65"/>
     <use x="167.333984" xlink:href="#DejaVuSans-Bold-6d"/>
     <use x="271.533203" xlink:href="#DejaVuSans-Bold-6f"/>
     <use x="340.234375" xlink:href="#DejaVuSans-Bold-72"/>
     <use x="389.550781" xlink:href="#DejaVuSans-Bold-79"/>
     <use x="454.736328" xlink:href="#DejaVuSans-Bold-43"/>
     <use x="528.125" xlink:href="#DejaVuSans-Bold-61"/>
     <use x="595.605469" xlink:href="#DejaVuSans-Bold-74"/>
     <use x="643.408203" xlink:href="#DejaVuSans-Bold-65"/>
     <use x="711.230469" xlink:href="#DejaVuSans-Bold-67"/>
     <use x="782.8125" xlink:href="#DejaVuSans-Bold-6f"/>
     <use x="851.513672" xlink:href="#DejaVuSans-Bold-72"/>
     <use x="900.830078" xlink:href="#DejaVuSans-Bold-79"/>
     <use x="966.015625" xlink:href="#DejaVuSans-Bold-4e"/>
     <use x="1049.707031" xlink:href="#DejaVuSans-Bold-6f"/>
     <use x="1118.408203" xlink:href="#DejaVuSans-Bold-47"/>
     <use x="1200.488281" xlink:href="#DejaVuSans-Bold-6f"/>
    </g>
   </g>
   <g id="text_45">
    <!-- lowD/combos/most_model_0 -->
    <defs>
     <path d="M 9.421875 75.984375 
L 18.40625 75.984375 
L 18.40625 0 
L 9.421875 0 
z
" id="DejaVuSans-6c"/>
     <path d="M 30.609375 48.390625 
Q 23.390625 48.390625 19.1875 42.75 
Q 14.984375 37.109375 14.984375 27.296875 
Q 14.984375 17.484375 19.15625 11.84375 
Q 23.34375 6.203125 30.609375 6.203125 
Q 37.796875 6.203125 41.984375 11.859375 
Q 46.1875 17.53125 46.1875 27.296875 
Q 46.1875 37.015625 41.984375 42.703125 
Q 37.796875 48.390625 30.609375 48.390625 
z
M 30.609375 56 
Q 42.328125 56 49.015625 48.375 
Q 55.71875 40.765625 55.71875 27.296875 
Q 55.71875 13.875 49.015625 6.21875 
Q 42.328125 -1.421875 30.609375 -1.421875 
Q 18.84375 -1.421875 12.171875 6.21875 
Q 5.515625 13.875 5.515625 27.296875 
Q 5.515625 40.765625 12.171875 48.375 
Q 18.84375 56 30.609375 56 
z
" id="DejaVuSans-6f"/>
     <path d="M 4.203125 54.6875 
L 13.1875 54.6875 
L 24.421875 12.015625 
L 35.59375 54.6875 
L 46.1875 54.6875 
L 57.421875 12.015625 
L 68.609375 54.6875 
L 77.59375 54.6875 
L 63.28125 0 
L 52.6875 0 
L 40.921875 44.828125 
L 29.109375 0 
L 18.5 0 
z
" id="DejaVuSans-77"/>
     <path d="M 25.390625 72.90625 
L 33.6875 72.90625 
L 8.296875 -9.28125 
L 0 -9.28125 
z
" id="DejaVuSans-2f"/>
     <path d="M 48.78125 52.59375 
L 48.78125 44.1875 
Q 44.96875 46.296875 41.140625 47.34375 
Q 37.3125 48.390625 33.40625 48.390625 
Q 24.65625 48.390625 19.8125 42.84375 
Q 14.984375 37.3125 14.984375 27.296875 
Q 14.984375 17.28125 19.8125 11.734375 
Q 24.65625 6.203125 33.40625 6.203125 
Q 37.3125 6.203125 41.140625 7.25 
Q 44.96875 8.296875 48.78125 10.40625 
L 48.78125 2.09375 
Q 45.015625 0.34375 40.984375 -0.53125 
Q 36.96875 -1.421875 32.421875 -1.421875 
Q 20.0625 -1.421875 12.78125 6.34375 
Q 5.515625 14.109375 5.515625 27.296875 
Q 5.515625 40.671875 12.859375 48.328125 
Q 20.21875 56 33.015625 56 
Q 37.15625 56 41.109375 55.140625 
Q 45.0625 54.296875 48.78125 52.59375 
z
" id="DejaVuSans-63"/>
     <path d="M 52 44.1875 
Q 55.375 50.25 60.0625 53.125 
Q 64.75 56 71.09375 56 
Q 79.640625 56 84.28125 50.015625 
Q 88.921875 44.046875 88.921875 33.015625 
L 88.921875 0 
L 79.890625 0 
L 79.890625 32.71875 
Q 79.890625 40.578125 77.09375 44.375 
Q 74.3125 48.1875 68.609375 48.1875 
Q 61.625 48.1875 57.5625 43.546875 
Q 53.515625 38.921875 53.515625 30.90625 
L 53.515625 0 
L 44.484375 0 
L 44.484375 32.71875 
Q 44.484375 40.625 41.703125 44.40625 
Q 38.921875 48.1875 33.109375 48.1875 
Q 26.21875 48.1875 22.15625 43.53125 
Q 18.109375 38.875 18.109375 30.90625 
L 18.109375 0 
L 9.078125 0 
L 9.078125 54.6875 
L 18.109375 54.6875 
L 18.109375 46.1875 
Q 21.1875 51.21875 25.484375 53.609375 
Q 29.78125 56 35.6875 56 
Q 41.65625 56 45.828125 52.96875 
Q 50 49.953125 52 44.1875 
z
" id="DejaVuSans-6d"/>
     <path d="M 48.6875 27.296875 
Q 48.6875 37.203125 44.609375 42.84375 
Q 40.53125 48.484375 33.40625 48.484375 
Q 26.265625 48.484375 22.1875 42.84375 
Q 18.109375 37.203125 18.109375 27.296875 
Q 18.109375 17.390625 22.1875 11.75 
Q 26.265625 6.109375 33.40625 6.109375 
Q 40.53125 6.109375 44.609375 11.75 
Q 48.6875 17.390625 48.6875 27.296875 
z
M 18.109375 46.390625 
Q 20.953125 51.265625 25.265625 53.625 
Q 29.59375 56 35.59375 56 
Q 45.5625 56 51.78125 48.09375 
Q 58.015625 40.1875 58.015625 27.296875 
Q 58.015625 14.40625 51.78125 6.484375 
Q 45.5625 -1.421875 35.59375 -1.421875 
Q 29.59375 -1.421875 25.265625 0.953125 
Q 20.953125 3.328125 18.109375 8.203125 
L 18.109375 0 
L 9.078125 0 
L 9.078125 75.984375 
L 18.109375 75.984375 
z
" id="DejaVuSans-62"/>
     <path d="M 44.28125 53.078125 
L 44.28125 44.578125 
Q 40.484375 46.53125 36.375 47.5 
Q 32.28125 48.484375 27.875 48.484375 
Q 21.1875 48.484375 17.84375 46.4375 
Q 14.5 44.390625 14.5 40.28125 
Q 14.5 37.15625 16.890625 35.375 
Q 19.28125 33.59375 26.515625 31.984375 
L 29.59375 31.296875 
Q 39.15625 29.25 43.1875 25.515625 
Q 47.21875 21.78125 47.21875 15.09375 
Q 47.21875 7.46875 41.1875 3.015625 
Q 35.15625 -1.421875 24.609375 -1.421875 
Q 20.21875 -1.421875 15.453125 -0.5625 
Q 10.6875 0.296875 5.421875 2 
L 5.421875 11.28125 
Q 10.40625 8.6875 15.234375 7.390625 
Q 20.0625 6.109375 24.8125 6.109375 
Q 31.15625 6.109375 34.5625 8.28125 
Q 37.984375 10.453125 37.984375 14.40625 
Q 37.984375 18.0625 35.515625 20.015625 
Q 33.0625 21.96875 24.703125 23.78125 
L 21.578125 24.515625 
Q 13.234375 26.265625 9.515625 29.90625 
Q 5.8125 33.546875 5.8125 39.890625 
Q 5.8125 47.609375 11.28125 51.796875 
Q 16.75 56 26.8125 56 
Q 31.78125 56 36.171875 55.265625 
Q 40.578125 54.546875 44.28125 53.078125 
z
" id="DejaVuSans-73"/>
     <path d="M 18.3125 70.21875 
L 18.3125 54.6875 
L 36.8125 54.6875 
L 36.8125 47.703125 
L 18.3125 47.703125 
L 18.3125 18.015625 
Q 18.3125 11.328125 20.140625 9.421875 
Q 21.96875 7.515625 27.59375 7.515625 
L 36.8125 7.515625 
L 36.8125 0 
L 27.59375 0 
Q 17.1875 0 13.234375 3.875 
Q 9.28125 7.765625 9.28125 18.015625 
L 9.28125 47.703125 
L 2.6875 47.703125 
L 2.6875 54.6875 
L 9.28125 54.6875 
L 9.28125 70.21875 
z
" id="DejaVuSans-74"/>
     <path d="M 50.984375 -16.609375 
L 50.984375 -23.578125 
L -0.984375 -23.578125 
L -0.984375 -16.609375 
z
" id="DejaVuSans-5f"/>
     <path d="M 45.40625 46.390625 
L 45.40625 75.984375 
L 54.390625 75.984375 
L 54.390625 0 
L 45.40625 0 
L 45.40625 8.203125 
Q 42.578125 3.328125 38.25 0.953125 
Q 33.9375 -1.421875 27.875 -1.421875 
Q 17.96875 -1.421875 11.734375 6.484375 
Q 5.515625 14.40625 5.515625 27.296875 
Q 5.515625 40.1875 11.734375 48.09375 
Q 17.96875 56 27.875 56 
Q 33.9375 56 38.25 53.625 
Q 42.578125 51.265625 45.40625 46.390625 
z
M 14.796875 27.296875 
Q 14.796875 17.390625 18.875 11.75 
Q 22.953125 6.109375 30.078125 6.109375 
Q 37.203125 6.109375 41.296875 11.75 
Q 45.40625 17.390625 45.40625 27.296875 
Q 45.40625 37.203125 41.296875 42.84375 
Q 37.203125 48.484375 30.078125 48.484375 
Q 22.953125 48.484375 18.875 42.84375 
Q 14.796875 37.203125 14.796875 27.296875 
z
" id="DejaVuSans-64"/>
     <path d="M 56.203125 29.59375 
L 56.203125 25.203125 
L 14.890625 25.203125 
Q 15.484375 15.921875 20.484375 11.0625 
Q 25.484375 6.203125 34.421875 6.203125 
Q 39.59375 6.203125 44.453125 7.46875 
Q 49.3125 8.734375 54.109375 11.28125 
L 54.109375 2.78125 
Q 49.265625 0.734375 44.1875 -0.34375 
Q 39.109375 -1.421875 33.890625 -1.421875 
Q 20.796875 -1.421875 13.15625 6.1875 
Q 5.515625 13.8125 5.515625 26.8125 
Q 5.515625 40.234375 12.765625 48.109375 
Q 20.015625 56 32.328125 56 
Q 43.359375 56 49.78125 48.890625 
Q 56.203125 41.796875 56.203125 29.59375 
z
M 47.21875 32.234375 
Q 47.125 39.59375 43.09375 43.984375 
Q 39.0625 48.390625 32.421875 48.390625 
Q 24.90625 48.390625 20.390625 44.140625 
Q 15.875 39.890625 15.1875 32.171875 
z
" id="DejaVuSans-65"/>
    </defs>
    <g transform="translate(532.4115 25.817)scale(0.192 -0.192)">
     <use xlink:href="#DejaVuSans-6c"/>
     <use x="27.783203" xlink:href="#DejaVuSans-6f"/>
     <use x="88.964844" xlink:href="#DejaVuSans-77"/>
     <use x="170.751953" xlink:href="#DejaVuSans-44"/>
     <use x="247.753906" xlink:href="#DejaVuSans-2f"/>
     <use x="281.445312" xlink:href="#DejaVuSans-63"/>
     <use x="336.425781" xlink:href="#DejaVuSans-6f"/>
     <use x="397.607422" xlink:href="#DejaVuSans-6d"/>
     <use x="495.019531" xlink:href="#DejaVuSans-62"/>
     <use x="558.496094" xlink:href="#DejaVuSans-6f"/>
     <use x="619.677734" xlink:href="#DejaVuSans-73"/>
     <use x="671.777344" xlink:href="#DejaVuSans-2f"/>
     <use x="705.46875" xlink:href="#DejaVuSans-6d"/>
     <use x="802.880859" xlink:href="#DejaVuSans-6f"/>
     <use x="864.0625" xlink:href="#DejaVuSans-73"/>
     <use x="916.162109" xlink:href="#DejaVuSans-74"/>
     <use x="955.371094" xlink:href="#DejaVuSans-5f"/>
     <use x="1005.371094" xlink:href="#DejaVuSans-6d"/>
     <use x="1102.783203" xlink:href="#DejaVuSans-6f"/>
     <use x="1163.964844" xlink:href="#DejaVuSans-64"/>
     <use x="1227.441406" xlink:href="#DejaVuSans-65"/>
     <use x="1288.964844" xlink:href="#DejaVuSans-6c"/>
     <use x="1316.748047" xlink:href="#DejaVuSans-5f"/>
     <use x="1366.748047" xlink:href="#DejaVuSans-30"/>
    </g>
   </g>
  </g>
 </g>
 <defs>
  <clipPath id="p3e45d6bd90">
   <rect height="356.677364" width="346.985" x="63.1325" y="26.970818"/>
  </clipPath>
  <clipPath id="pebbd41e322">
   <rect height="346.985" width="346.985" x="496.235" y="31.817"/>
  </clipPath>
 </defs>
</svg>
